<?xml version="1.0" standalone="no"?>
<!DOCTYPE svg PUBLIC "-//W3C//DTD SVG 1.1//EN" "http://www.w3.org/Graphics/SVG/1.1/DTD/svg11.dtd" >
<svg xmlns="http://www.w3.org/2000/svg" xmlns:xlink="http://www.w3.org/1999/xlink" version="1.1">
<metadata></metadata>
<defs>
<font id="ralewayextrabold_italic" horiz-adv-x="1210" >
<font-face units-per-em="2048" ascent="1638" descent="-410" />
<missing-glyph horiz-adv-x="471" />
<glyph unicode="ff" horiz-adv-x="1320" d="M201 739h-129l53 248h129l8 35q20 92 62.5 170t101.5 133t133 87t160 32q63 0 125.5 -15.5t128.5 -44.5q61 59 138 95.5t169 36.5q68 0 129 -18.5t125 -45.5l-113 -246q-27 12 -60.5 22.5t-68.5 10.5q-59 0 -96 -43t-51 -109l-21 -100h240l-51 -248h-242l-158 -739h-327 l157 739h-215l-155 -739h-328zM797 987q8 37 18 79t21 77q-25 12 -54.5 18t-54.5 6q-57 0 -90 -36.5t-45 -98.5l-10 -45h215z" />
<glyph unicode="fi" horiz-adv-x="1181" d="M201 739h-129l53 248h129l18 88q20 94 69.5 175t120 140.5t161 92.5t190.5 33q111 0 203 -39t184 -109l-178 -248q-49 53 -113.5 86t-132.5 33q-70 0 -115 -43t-59 -109l-22 -100h571l-211 -987h-328l156 739h-240l-155 -739h-328z" />
<glyph unicode="fl" horiz-adv-x="1353" d="M946 -16q-121 0 -183.5 55t-62.5 139q0 14 2.5 28.5t6.5 31.5l168 780q6 33 10 61.5t4 50.5q0 49 -22.5 79t-82.5 30q-86 0 -131 -56.5t-63 -148.5l-10 -47h147l-51 -248h-150l-155 -739h-328l156 739h-129l53 248h129l27 119q23 102 71.5 179t120.5 128t163 77t195 26 q209 0 304.5 -84t95.5 -230q0 -29 -3 -58.5t-11 -62.5l-146 -688q-2 -10 -3 -19t-1 -20q0 -31 14.5 -55.5t51.5 -24.5q16 0 36.5 5.5t39 10.5t30.5 10t14 5l-16 -264q-4 -2 -30.5 -11.5t-67.5 -19.5t-92.5 -18t-100.5 -8z" />
<glyph unicode="ffi" horiz-adv-x="1726" d="M201 739h-129l53 248h129l8 35q20 90 62.5 168t101.5 134t133 88t160 32q63 0 125.5 -15.5t128.5 -44.5q72 59 168 95.5t209 36.5q100 0 197.5 -38t195.5 -110l-178 -248q-47 53 -113 86t-125 33q-78 0 -123 -43t-59 -109l-21 -100h570l-211 -987h-328l158 739h-242 l-158 -739h-327l157 739h-215l-155 -739h-328zM797 987q8 37 18 79t21 77q-25 12 -54.5 18t-54.5 6q-57 0 -89 -36.5t-46 -98.5l-10 -45h215z" />
<glyph unicode="ffl" horiz-adv-x="1894" d="M1489 -16q-123 0 -184.5 55t-61.5 139q0 29 8 64l168 790q6 25 10.5 48.5t4.5 45.5q0 49 -25 81t-90 32q-41 0 -70.5 -16.5t-53.5 -45t-39 -66.5t-23 -81l-9 -43h148l-53 -248h-148l-158 -739h-327l157 739h-215l-155 -739h-328l156 739h-129l53 248h129l8 35 q20 92 63.5 170t102.5 133t132 87t157 32q66 0 129 -15.5t129 -44.5q74 66 176 99t223 33q209 0 303.5 -84t94.5 -230q0 -57 -13 -121l-147 -688q-4 -20 -4 -37q0 -33 14 -57.5t53 -24.5q16 0 37 5.5t38 10.5t30 10l14 5l-16 -264q-2 -2 -30 -11.5t-69 -19.5t-91 -18t-99 -8 zM797 987q8 39 17 81t20 77q-25 12 -52.5 17t-50.5 5q-55 0 -92 -36.5t-47 -96.5l-10 -47h215z" />
<glyph horiz-adv-x="0" />
<glyph horiz-adv-x="0" />
<glyph unicode=" "  horiz-adv-x="471" />
<glyph unicode="&#x09;" horiz-adv-x="471" />
<glyph unicode="&#xa0;" horiz-adv-x="471" />
<glyph unicode="!" horiz-adv-x="632" d="M145 578l187 890h327l-186 -890h-328zM20 0l74 340h328l-74 -340h-328z" />
<glyph unicode="&#x22;" horiz-adv-x="874" d="M197 1020l100 467h276l-100 -467h-276zM565 1020l101 467h276l-100 -467h-277z" />
<glyph unicode="#" horiz-adv-x="1449" d="M1425 844h-299l-96 -234h250l-51 -243h-309l-162 -367h-262l163 367h-161l-160 -367h-262l162 367h-218l52 243h276l98 234h-229l49 225h285l170 385h262l-172 -385h162l168 385h262l-172 -385h244zM770 610l96 234h-159l-99 -234h162z" />
<glyph unicode="$" horiz-adv-x="1269" d="M1083 1028q-4 6 -27.5 25.5t-61.5 41t-87 41t-104 27.5l-58 -276l62 -19q78 -25 142.5 -54.5t109.5 -70.5t69.5 -96t24.5 -131q0 -137 -49 -235.5t-131 -162t-185.5 -95t-209.5 -37.5l-50 -238h-143l51 240q-131 12 -253 58t-212 118l209 293q4 -10 33 -34t75 -49.5 t107.5 -49t128.5 -33.5l58 268l-95 33q-147 53 -219.5 124.5t-72.5 192.5q0 123 46 220.5t122.5 168t177 112.5t211.5 52l43 207h139l-43 -207q123 -12 224.5 -59t172.5 -96zM776 416q0 39 -29.5 64.5t-78.5 45.5l-52 -239q86 4 123 40t37 89zM563 1024q0 -37 24.5 -60.5 t71.5 -43.5l52 245q-72 -6 -110 -44t-38 -97z" />
<glyph unicode="%" horiz-adv-x="1617" d="M457 842q-61 0 -112.5 20.5t-88.5 56t-56.5 84t-19.5 103.5q0 74 35 141.5t91 117.5t130 80t154 30q61 0 112.5 -20.5t88 -56.5t56 -84t19.5 -104q0 -74 -34.5 -141.5t-91 -117.5t-130 -79.5t-153.5 -29.5zM489 1001q27 0 53.5 16.5t48 43t35 61.5t13.5 74q0 51 -22.5 85 t-59.5 34q-27 0 -53.5 -16.5t-48 -43t-34.5 -61.5t-13 -74q0 -49 22 -84t59 -35zM1075 -20q-61 0 -112.5 20t-88 56t-56 84t-19.5 104q0 74 34.5 141.5t91 117.5t131 79.5t154.5 29.5q61 0 111.5 -20.5t87.5 -56t56.5 -84t19.5 -103.5q0 -74 -34 -141.5t-91 -117.5 t-131 -79.5t-154 -29.5zM1110 139q27 0 52.5 16.5t47 43t34.5 61.5t13 74q0 49 -22.5 84t-58.5 35q-27 0 -53.5 -16.5t-48 -43t-35 -61.5t-13.5 -74q0 -51 22.5 -85t61.5 -34zM106 115l693 663l641 695l119 -132l-668 -645l-666 -714z" />
<glyph unicode="&#x26;" horiz-adv-x="1458" d="M809 106q-98 -63 -198.5 -94.5t-196.5 -31.5t-169 30.5t-121 80.5t-72.5 116.5t-24.5 140.5q0 76 25.5 139.5t70.5 117.5t103.5 99.5t125.5 86.5q-47 78 -69.5 138t-22.5 126q0 92 39 168.5t104.5 132t149.5 86.5t176 31q129 0 230.5 -70t136.5 -217l-230 -105 q-20 78 -65 116t-96 38t-94.5 -35t-43.5 -90q0 -20 7.5 -39.5t23.5 -45.5t40 -59.5t58 -82.5l228 -332q35 66 59.5 140.5t36.5 160.5h377l-31 -227h-145q-33 -78 -72 -147.5t-84 -129.5l242 -348h-424zM504 229q45 0 92 14.5t94 43.5l-198 295q-78 -47 -112 -94.5 t-34 -106.5q0 -76 46 -114t112 -38z" />
<glyph unicode="'" horiz-adv-x="505" d="M197 1018l100 469h276l-100 -469h-276z" />
<glyph unicode="(" horiz-adv-x="653" d="M63 543q0 133 39 259t106.5 250t159 251t195.5 262l228 -103q-96 -123 -173 -243.5t-132.5 -234.5t-85 -221.5t-29.5 -203.5q0 -129 27.5 -275.5t74.5 -287.5l-266 -117q-31 72 -56.5 153t-45 167t-31 173t-11.5 171z" />
<glyph unicode=")" horiz-adv-x="651" d="M631 883q0 -139 -42 -270.5t-111.5 -256.5t-160 -244.5t-186.5 -232.5l-213 117q86 117 160 223.5t128 213t85 214t31 223.5q0 88 -11.5 178.5t-27 171t-33 144t-29.5 98.5l273 103q57 -168 97 -345t40 -337z" />
<glyph unicode="*" horiz-adv-x="708" d="M233 1044l125 154l-129 43l72 137l129 -69l23 164h168l-46 -164l158 69l12 -137l-149 -43l63 -154l-139 -79l-57 161l-125 -161z" />
<glyph unicode="+" horiz-adv-x="886" d="M805 858v-262h-195v-213h-295v213h-192v262h192v213h295v-213h195z" />
<glyph unicode="," horiz-adv-x="495" d="M-41 -276l123 280h-100l69 330h277l-72 -330l-154 -280h-143z" />
<glyph unicode="-" horiz-adv-x="819" d="M66 416l63 295h602l-63 -295h-602z" />
<glyph unicode="." horiz-adv-x="487" d="M-18 0l69 334h268l-71 -334h-266z" />
<glyph unicode="/" horiz-adv-x="1492" d="M1602 1454l-1297 -1454h-360l1296 1454h361z" />
<glyph unicode="0" horiz-adv-x="1218" d="M473 -20q-92 0 -164.5 35.5t-125 99t-80 152.5t-27.5 194q0 158 55 297t147.5 242.5t212 163t248.5 59.5q90 0 164 -36t125 -100.5t79 -152.5t28 -195q0 -158 -55.5 -297t-146.5 -241.5t-211 -161.5t-249 -59zM537 281q51 0 98 33.5t84 92t58.5 135t21.5 163.5 q0 98 -32 157.5t-91 59.5q-53 0 -102.5 -35t-86 -93.5t-58 -136t-21.5 -161.5q0 -98 34 -156.5t95 -58.5z" />
<glyph unicode="1" horiz-adv-x="1030" d="M57 295h277l112 522q-23 -25 -65.5 -50.5t-91.5 -47t-100.5 -34.5t-88.5 -13l64 303q31 0 85 22.5t109.5 54t101.5 64.5t60 53h334l-184 -874h248l-64 -295h-858z" />
<glyph unicode="2" horiz-adv-x="1153" d="M-57 0q20 96 51 173t79 140.5t116.5 115.5t164.5 99q109 53 180.5 89t113.5 66t59.5 57.5t17.5 62.5q0 47 -29.5 74.5t-89.5 27.5q-74 0 -143.5 -42t-140.5 -109l-156 241q41 37 101.5 72t134 62.5t155.5 44t168 16.5q186 0 280.5 -78t94.5 -211q0 -82 -25.5 -143.5 t-68.5 -110.5t-98.5 -88t-114.5 -74q-63 -35 -139 -83t-134 -107h475l-61 -295h-991v0z" />
<glyph unicode="3" horiz-adv-x="1124" d="M319 -301q-293 0 -425 182l223 234q41 -57 99 -87t151 -30q133 0 193.5 54t60.5 155q0 72 -55.5 109.5t-176.5 37.5h-57l49 236h65q117 0 191 56t74 145q0 53 -34 80.5t-93 27.5q-76 0 -149 -40t-134 -114l-156 238q43 43 102.5 80t130.5 62.5t147.5 40t154.5 14.5 q186 0 292.5 -83t106.5 -218q0 -70 -26.5 -135.5t-71.5 -119t-105.5 -90t-125.5 -49.5q96 -18 150 -98t54 -192q0 -111 -46 -203t-130 -156.5t-201 -100.5t-258 -36z" />
<glyph unicode="4" horiz-adv-x="1148" d="M446 20h-526l64 293l811 856h225l-182 -854h172l-64 -295h-172l-59 -280h-328zM547 315l78 363l-316 -363h238z" />
<glyph unicode="5" horiz-adv-x="1097" d="M313 -305q-152 0 -258 63.5t-147 178.5l225 202q39 -72 104.5 -114.5t139.5 -42.5q49 0 92 18t74.5 51t50 79t18.5 99q0 68 -35.5 109t-97.5 41q-51 0 -98 -24.5t-80 -69.5h-283q37 86 83 205.5t95.5 243.5t94.5 240t78 195h688l-64 -299h-450l-88 -247q12 14 44.5 25 t86.5 11q86 0 154.5 -27.5t116.5 -76.5t73.5 -117.5t25.5 -152.5q0 -127 -50 -235.5t-138 -187.5t-205 -123t-250 -44z" />
<glyph unicode="6" horiz-adv-x="1212" d="M481 -20q-193 0 -295 130t-102 359q0 207 54.5 389t153.5 317.5t236.5 213t302.5 77.5q129 0 226.5 -55t163.5 -160l-230 -209q-35 66 -94 103t-131 37q-111 0 -192.5 -86t-118.5 -244q51 55 118.5 86t147.5 31q88 0 160.5 -30t125 -82t80 -125t27.5 -157 q0 -121 -52 -229t-140 -189t-202 -129t-239 -48zM541 256q45 0 91 22.5t82 60.5t58.5 88t22.5 103q0 78 -43 129.5t-115 51.5q-47 0 -93 -21.5t-81 -58.5t-56.5 -85t-21.5 -102q0 -78 43 -133t113 -55z" />
<glyph unicode="7" horiz-adv-x="1153" d="M686 897h-567l63 299h1084l-990 -1454h-370z" />
<glyph unicode="8" horiz-adv-x="1202" d="M463 -18q-90 0 -168 27.5t-135.5 78.5t-89 123t-31.5 160q0 78 25.5 142.5t64.5 114.5t86 87t90 61q-45 29 -70.5 87.5t-25.5 123.5q0 111 55 198t140 146.5t184.5 91t187.5 31.5q72 0 142.5 -22.5t128 -66.5t92.5 -108.5t35 -150.5q0 -53 -18.5 -104.5t-48.5 -94.5 t-69 -76.5t-77 -54.5q47 -37 84.5 -106.5t37.5 -161.5q0 -115 -52 -211t-138 -167t-198.5 -109.5t-231.5 -38.5zM526 279q43 0 84 17t72 46t50.5 69t19.5 87q0 70 -42 106.5t-106 36.5q-43 0 -84 -16.5t-71.5 -45t-49 -67.5t-18.5 -86q0 -66 42 -106.5t103 -40.5zM655 887 q29 0 61 11t57.5 32.5t43 52.5t17.5 72q0 49 -33 79.5t-86 30.5q-35 0 -66 -12t-55.5 -34.5t-38.5 -53.5t-14 -66q0 -55 35.5 -83.5t78.5 -28.5z" />
<glyph unicode="9" horiz-adv-x="1175" d="M346 -317q-129 0 -227.5 55t-163.5 160l229 208q35 -66 94.5 -102.5t133.5 -36.5q109 0 190.5 86t120.5 244q-53 -55 -120.5 -86t-145.5 -31q-90 0 -163 30t-124 82t-79 124.5t-28 156.5q0 121 52.5 229.5t139.5 189.5t200.5 129t238.5 48q193 0 295.5 -130t102.5 -359 q0 -207 -54.5 -389t-153 -317.5t-235.5 -213t-303 -77.5zM539 438q47 0 92 21.5t81 58.5t57.5 85t21.5 102q0 78 -43 133t-113 55q-45 0 -90 -22.5t-82 -60.5t-59.5 -88t-22.5 -104q0 -78 43 -129t115 -51z" />
<glyph unicode=":" horiz-adv-x="550" d="M166 729l72 334h266l-72 -334h-266zM12 0l70 334h268l-71 -334h-267z" />
<glyph unicode=";" horiz-adv-x="557" d="M168 729l70 334h268l-72 -334h-266zM-12 -276l123 280h-101l72 330h274l-71 -330l-154 -280h-143z" />
<glyph unicode="&#x3c;" horiz-adv-x="1130" d="M59 600l865 524v-348l-389 -246l389 -231v-367l-865 512v156z" />
<glyph unicode="=" horiz-adv-x="999" d="M162 254v209h651v-209h-651zM162 668v209h651v-209h-651z" />
<glyph unicode="&#x3e;" horiz-adv-x="1130" d="M1032 444l-864 -512v367l389 231l-389 246v348l864 -524v-156z" />
<glyph unicode="?" horiz-adv-x="974" d="M188 502q8 47 22.5 90t39 83t62.5 74.5t98 63.5q70 35 125 65.5t94 63.5t60.5 69t21.5 83q0 53 -34 83.5t-83 30.5q-37 0 -68.5 -15t-58.5 -36.5t-49.5 -48.5t-38.5 -47l-180 147q78 125 201.5 195t263.5 70q63 0 125.5 -18.5t109.5 -57.5t77 -100.5t30 -147.5 t-20.5 -150.5t-55.5 -113.5t-82 -86t-103 -70q-47 -29 -94 -51.5t-88 -47t-69.5 -55t-36.5 -73.5h-269zM86 0l66 307h268l-66 -307h-268z" />
<glyph unicode="@" horiz-adv-x="1671" d="M1192 109q49 0 93 46t76 118.5t51.5 159.5t19.5 169q0 111 -35 204t-100.5 160.5t-161 105.5t-213.5 38q-152 0 -288 -60.5t-238.5 -165t-163 -245.5t-60.5 -303q0 -117 32 -211t92 -160.5t147 -102.5t196 -36q78 0 150.5 18.5t162.5 59.5l15 -121q-180 -82 -355 -82 q-131 0 -237.5 44t-181 125t-115.5 194.5t-41 254.5q0 195 75.5 363t201.5 291t292 192.5t348 69.5q141 0 254 -43t192 -122t122 -188.5t43 -242.5q0 -111 -30 -229.5t-86 -217t-137 -162t-182 -63.5q-72 0 -115.5 34t-43.5 99q0 23 4 31q-160 -141 -320 -141 q-76 0 -137 27.5t-104 77.5t-65.5 120t-22.5 152q0 117 43 222t114.5 186t164.5 129t194 48q98 0 162.5 -46t82.5 -118l25 134h154l-131 -668q-4 -16 -6.5 -34.5t-2.5 -33.5q0 -77 66 -77zM721 147q86 0 149.5 53.5t100.5 141.5l39 250q-14 78 -62.5 128t-120.5 50 q-55 0 -110 -29.5t-99.5 -81t-72 -121t-27.5 -149.5q0 -102 50.5 -172t152.5 -70z" />
<glyph unicode="A" horiz-adv-x="1312" d="M690 1454h305l189 -1454h-344l-31 326h-414l-166 -326h-346zM803 557l-41 514l-266 -514h307z" />
<glyph unicode="B" horiz-adv-x="1353" d="M317 1454h777q61 0 107 -25.5t77 -66.5t46 -95.5t15 -111.5q0 -61 -19.5 -122.5t-55 -116t-88 -99.5t-117.5 -72q92 -29 141 -102.5t49 -183.5q0 -117 -47 -203t-125 -142.5t-181 -85t-214 -28.5h-674zM743 285q33 0 65 14t56.5 41t39 61.5t14.5 77.5q0 53 -26 88t-69 35 h-352l-65 -317h337zM825 866q29 0 58.5 12.5t53.5 36t38 59.5t14 83q0 53 -24.5 81.5t-63.5 28.5h-309l-64 -301h297z" />
<glyph unicode="C" horiz-adv-x="1353" d="M608 -12q-129 0 -229 52t-170 139t-105.5 198.5t-35.5 230.5q0 100 29.5 202.5t84 198t132 177.5t174 143.5t209 97t237.5 35.5q197 0 321.5 -88t165.5 -229l-297 -180q-10 57 -35.5 95t-62.5 61.5t-80 32.5t-84 9q-106 0 -190 -50t-142.5 -129t-89 -173t-30.5 -182 q0 -70 17 -131.5t51 -108.5t85 -74.5t117 -27.5q43 0 89 11t92 34.5t88 61.5t73 93l242 -161q-49 -80 -125 -143.5t-165 -106.5t-184.5 -65.5t-181.5 -22.5z" />
<glyph unicode="D" horiz-adv-x="1419" d="M317 1454h521q141 0 246.5 -44t174 -120t102.5 -179t34 -222q0 -193 -65.5 -355.5t-182.5 -281.5t-275.5 -185.5t-343.5 -66.5h-520zM590 295q102 0 186 44t144.5 120t93.5 174t33 207q0 143 -69 231t-204 88h-184l-184 -864h184z" />
<glyph unicode="E" horiz-adv-x="1179" d="M317 1454h957l-64 -295h-620l-60 -282h533l-57 -273h-533l-67 -309h638l-61 -295h-975z" />
<glyph unicode="F" horiz-adv-x="1130" d="M317 1454h938l-61 -295h-604l-66 -313h496l-57 -273h-498l-121 -573h-336z" />
<glyph unicode="G" horiz-adv-x="1441" d="M985 143q-98 -78 -191.5 -115.5t-197.5 -37.5q-117 0 -213 43t-167 120.5t-109.5 187.5t-38.5 243q0 180 72.5 340.5t194.5 280.5t278.5 189.5t324.5 69.5q190 0 318 -85t169 -232l-288 -189q-27 98 -101.5 152.5t-173.5 54.5q-90 0 -171 -44t-142.5 -118.5t-98 -173 t-36.5 -206.5q0 -72 18.5 -133.5t54 -106.5t86 -69.5t115.5 -24.5q182 0 367 180l10 47h-264l51 244h543l-162 -760h-279z" />
<glyph unicode="H" horiz-adv-x="1476" d="M317 1454h336l-121 -563h527l121 563h336l-310 -1454h-336l127 596h-526l-127 -596h-336z" />
<glyph unicode="I" horiz-adv-x="614" d="M317 1454h336l-309 -1454h-336z" />
<glyph unicode="J" horiz-adv-x="989" d="M188 -23q-174 0 -280 91l129 274q14 -16 72.5 -41t142.5 -25q68 0 114 26t78.5 79t57 136t49.5 198l158 739h338l-158 -739q-35 -166 -81 -302.5t-123 -232.5t-197 -149.5t-300 -53.5z" />
<glyph unicode="K" horiz-adv-x="1337" d="M317 1454h336l-133 -627l615 627h378l-653 -649l377 -805h-385l-252 586l-166 -158l-90 -428h-336z" />
<glyph unicode="L" horiz-adv-x="1153" d="M317 1454h336l-247 -1159h657l-62 -295h-993z" />
<glyph unicode="M" horiz-adv-x="1689" d="M317 1454h365l180 -760l504 760h365l-310 -1454h-338l187 870l-416 -632h-180l-144 632l-186 -870h-336z" />
<glyph unicode="N" horiz-adv-x="1492" d="M317 1454h263l436 -854l180 854h336l-309 -1454h-267l-436 831l-176 -831h-336z" />
<glyph unicode="O" horiz-adv-x="1501" d="M616 -12q-133 0 -235 50t-172 135t-105.5 194.5t-35.5 228.5q0 111 32.5 217.5t91 202.5t138.5 178t177 141.5t205.5 93t223.5 33.5q131 0 233.5 -51t171 -135t104.5 -194.5t36 -227.5q0 -164 -71 -319.5t-190.5 -277.5t-275.5 -195.5t-328 -73.5zM682 287q106 0 190 51 t142.5 130t90.5 175t32 188q0 68 -16.5 127.5t-49.5 105.5t-84 72.5t-121 26.5q-104 0 -189 -50t-143.5 -128t-90 -174t-31.5 -188q0 -68 16 -128.5t49 -106.5t84 -73.5t121 -27.5z" />
<glyph unicode="P" horiz-adv-x="1232" d="M317 1454h592q84 0 151.5 -35t114 -92t71 -131t24.5 -152q0 -104 -45 -207.5t-122 -184.5t-178.5 -132t-215.5 -51h-267l-98 -469h-336zM750 762q31 0 62.5 17.5t57 51t41 79.5t15.5 106q0 74 -31 108.5t-72 34.5h-233l-84 -397h244z" />
<glyph unicode="Q" horiz-adv-x="1499" d="M967 74q-82 -41 -171 -62.5t-182 -21.5q-133 0 -234 50t-172 134t-106.5 193.5t-35.5 228.5q0 166 71.5 321.5t191.5 277.5t276.5 195.5t328.5 73.5q133 0 234.5 -51t171 -136t104.5 -195.5t35 -227.5q0 -176 -80 -341t-215 -288l151 -225h-317zM682 289q66 0 129 22 l-174 262h313l68 -102q57 78 88 173t31 187q0 68 -16.5 128.5t-50.5 106.5t-84 72.5t-120 26.5q-104 0 -189 -50t-144.5 -129t-91 -175t-31.5 -188q0 -66 16 -126.5t50 -106.5t85 -73.5t121 -27.5z" />
<glyph unicode="R" horiz-adv-x="1325" d="M8 0l309 1454h625q86 0 152.5 -35t112.5 -92t71 -131t25 -152q0 -76 -24 -149.5t-66 -140t-100 -121.5t-128 -92l186 -541h-378l-160 469h-191l-98 -469h-336zM784 762q31 0 62 19.5t55.5 53t39.5 78.5t15 97q0 68 -28.5 108.5t-69.5 40.5h-268l-84 -397h278z" />
<glyph unicode="S" horiz-adv-x="1216" d="M500 -16q-154 0 -301.5 47t-253.5 133l209 293q4 -10 39.5 -39t92 -57.5t130 -51t153.5 -22.5q98 0 139.5 35.5t41.5 93.5q0 35 -22.5 58.5t-62.5 43t-92.5 36.5t-111.5 38q-147 53 -220 124.5t-73 192.5q0 131 53 235.5t140.5 175.5t200 108.5t231.5 37.5q74 0 141 -14 t126.5 -36.5t110 -51.5t91.5 -57l-205 -279q-4 8 -34 30.5t-77 47t-106.5 43t-120.5 18.5q-86 0 -134 -37.5t-48 -105.5q0 -59 63.5 -89t179.5 -67q78 -25 142.5 -54.5t110.5 -70.5t70.5 -96t24.5 -131q0 -145 -55 -246.5t-145 -165t-202.5 -92t-225.5 -28.5z" />
<glyph unicode="T" horiz-adv-x="1220" d="M559 1159h-416l62 295h1165l-61 -295h-414l-248 -1159h-336z" />
<glyph unicode="U" horiz-adv-x="1468" d="M600 -12q-133 0 -225 37.5t-150.5 104.5t-85 158t-26.5 195q0 111 24 228l160 743h336l-160 -743q-18 -90 -18 -166q0 -55 11 -102.5t35.5 -82t64.5 -54t98 -19.5q78 0 139 35.5t106 95t76 136.5t49 157l158 743h336l-158 -743q-33 -152 -97.5 -283t-160.5 -229.5 t-224 -154.5t-288 -56z" />
<glyph unicode="V" horiz-adv-x="1318" d="M168 1454h354l90 -1032l527 1032h352l-827 -1454h-281z" />
<glyph unicode="W" horiz-adv-x="2052" d="M156 1454h364l107 -1069l209 391l-82 676h307l37 -465l233 465h309l-374 -676l47 -391l559 1069h369l-861 -1454h-278l-94 569l-332 -569h-281z" />
<glyph unicode="X" horiz-adv-x="1280" d="M483 717l-317 737h364l183 -502l393 502h362l-630 -737l305 -717h-363l-170 481l-372 -481h-365z" />
<glyph unicode="Y" horiz-adv-x="1275" d="M436 500l-278 954h364l142 -668l432 668h364l-692 -958l-104 -496h-336z" />
<glyph unicode="Z" horiz-adv-x="1218" d="M-20 252l890 907h-669l61 295h1061l-55 -252l-858 -907h673l-61 -295h-1096z" />
<glyph unicode="[" horiz-adv-x="659" d="M-8 -82l340 1598h432l-55 -261h-131l-228 -1077h129l-53 -260h-434z" />
<glyph unicode="\" horiz-adv-x="1294" d="M582 1454l536 -1454h-360l-539 1454h363z" />
<glyph unicode="]" horiz-adv-x="661" d="M-61 -82l55 260h133l227 1077h-131l56 261h432l-338 -1598h-434z" />
<glyph unicode="^" horiz-adv-x="1245" d="M94 621l406 833h272l404 -833h-267l-272 563l-281 -563h-262z" />
<glyph unicode="_" horiz-adv-x="903" d="M-90 -295l61 295h697l-62 -295h-696z" />
<glyph unicode="`" horiz-adv-x="532" d="M109 1495h294l46 -266l-228 -33z" />
<glyph unicode="a" horiz-adv-x="1298" d="M403 -20q-90 0 -160.5 32.5t-119.5 91t-74.5 138.5t-25.5 174q0 135 48 259t128 217t186.5 148.5t222.5 55.5q104 0 178 -53.5t103 -143.5l37 170h329l-151 -700q-2 -14 -3 -23.5t-1 -19.5q0 -47 51 -50l-57 -276q-47 -10 -81 -13t-59 -3q-80 0 -127 31.5t-47 105.5 q0 20 6 57q-76 -100 -177.5 -149t-205.5 -49zM551 256q61 0 124.5 40t110.5 110l48 225q-10 82 -61.5 134t-117.5 52q-55 0 -107 -29.5t-92 -77.5t-63.5 -110.5t-23.5 -130.5q0 -92 48 -152.5t134 -60.5z" />
<glyph unicode="b" horiz-adv-x="1267" d="M600 -20q-117 0 -192.5 52t-104.5 146l-37 -178h-286l317 1495h328l-127 -596q66 90 162 143.5t202 53.5q84 0 149.5 -34t109.5 -92.5t66.5 -137t22.5 -170.5q0 -141 -51 -265.5t-135 -217.5t-194.5 -146t-229.5 -53zM571 256q57 0 110.5 27.5t94.5 73.5t65.5 107.5 t24.5 131.5q0 92 -44 156.5t-122 64.5q-70 0 -140.5 -53t-117.5 -133l-49 -225q20 -70 64 -110t114 -40z" />
<glyph unicode="c" horiz-adv-x="1122" d="M471 -20q-113 0 -197 35.5t-140 98t-83.5 144.5t-27.5 174q0 125 50 245t140 213t216 149.5t278 56.5q180 0 284.5 -79t138.5 -206l-337 -96q-39 102 -148 102q-53 0 -104.5 -26.5t-91 -72.5t-63.5 -109.5t-24 -139.5q0 -96 45.5 -154.5t118.5 -58.5q53 0 105.5 29.5 t85.5 76.5l299 -98q-86 -125 -225.5 -204.5t-319.5 -79.5z" />
<glyph unicode="d" horiz-adv-x="1298" d="M403 -20q-90 0 -160.5 32.5t-119.5 91t-74.5 138.5t-25.5 174q0 135 48 259t128 217t186.5 148.5t222.5 55.5q104 0 178 -53.5t103 -143.5l127 596h330l-242 -1126q-2 -14 -3 -23.5t-1 -19.5q0 -47 51 -50l-57 -276q-47 -10 -81 -13t-59 -3q-78 0 -127 30.5t-49 100.5 q0 25 8 63q-76 -100 -177.5 -149t-205.5 -49zM551 256q61 0 124.5 40t110.5 110l48 225q-10 82 -61.5 134t-117.5 52q-55 0 -107 -29.5t-92 -77.5t-63.5 -110.5t-23.5 -130.5q0 -92 48 -152.5t134 -60.5z" />
<glyph unicode="e" horiz-adv-x="1142" d="M475 -20q-104 0 -188 33.5t-142.5 93t-89 143.5t-30.5 184q0 135 53 256t147 211t220 142.5t272 52.5q186 0 291.5 -80t105.5 -228q0 -176 -159.5 -266t-479.5 -90h-54.5t-55.5 2q0 -109 38.5 -164t131.5 -55q74 0 136 35t101 96l258 -82q-43 -63 -104.5 -115.5 t-134 -90.5t-153.5 -58t-163 -20zM664 860q-92 0 -159 -63.5t-104 -161.5h74q180 0 252 30.5t72 94.5q0 47 -38 73.5t-97 26.5z" />
<glyph unicode="f" horiz-adv-x="770" d="M201 739h-129l53 248h129l18 88q20 100 63.5 182t104 139.5t134 88.5t155.5 31q125 0 258 -64l-113 -246q-27 14 -63.5 23.5t-67.5 9.5q-111 0 -141 -152l-22 -100h235l-53 -248h-234l-249 -1175h-328z" />
<glyph unicode="g" horiz-adv-x="1265" d="M328 -457q-166 0 -272.5 55.5t-172.5 159.5l213 179q41 -68 116 -108t167 -40q55 0 108.5 16.5t98.5 50t77.5 88t49.5 130.5l20 104q-63 -90 -160.5 -136t-197.5 -46q-84 0 -148.5 32.5t-109.5 90t-68.5 134.5t-23.5 167q0 137 49 260t133 215t194.5 146.5t233.5 54.5 q113 0 187.5 -52.5t107.5 -144.5l39 176h284l-213 -1001q-27 -123 -91 -221.5t-157.5 -167t-212 -105.5t-251.5 -37zM547 256q66 0 127 42t108 108l49 225q-12 86 -63 136t-117 50q-55 0 -107 -30.5t-91 -80t-62.5 -112t-23.5 -125.5q0 -92 48 -152.5t132 -60.5z" />
<glyph unicode="h" d="M297 1495h328l-127 -600q76 96 178 148.5t215 52.5q74 0 122 -20.5t77.5 -54.5t41 -79t11.5 -94q0 -39 -5 -79t-14 -81l-145 -688h-328l129 604q4 23 6 42.5t2 37.5q0 63 -28.5 93t-77.5 30q-25 0 -57.5 -13.5t-66.5 -39t-65.5 -60.5t-54.5 -78l-131 -616h-327z" />
<glyph unicode="i" horiz-adv-x="548" d="M209 1075h328l-230 -1075h-327zM297 1495h328l-64 -297h-328z" />
<glyph unicode="j" horiz-adv-x="559" d="M-154 -414q-78 0 -143 26t-113 77l185 223q14 -23 37.5 -33t52.5 -10q41 0 75.5 29.5t45.5 83.5l231 1093h328l-226 -1069q-20 -92 -65 -170t-108.5 -133t-140.5 -86t-159 -31zM307 1495h328l-64 -297h-327z" />
<glyph unicode="k" horiz-adv-x="1167" d="M297 1495h326l-146 -688q82 131 187.5 205.5t228.5 74.5q113 0 171 -63t58 -178q0 -135 -74.5 -250t-216.5 -190l183 -406h-348l-181 465q162 31 252 99.5t90 152.5q0 45 -24.5 68.5t-65.5 23.5q-43 0 -90 -25.5t-92 -68.5t-83 -101.5t-62 -124.5l-105 -489h-325z" />
<glyph unicode="l" horiz-adv-x="667" d="M258 -18q-117 0 -176 51t-59 149q0 20 3 41t7 45l260 1227h328l-238 -1112q-2 -10 -3 -21.5t-1 -21.5q0 -80 78 -80q23 0 52.5 7t55.5 22l-10 -246q-66 -29 -147.5 -45t-149.5 -16z" />
<glyph unicode="m" horiz-adv-x="1837" d="M209 1075h295l-39 -180q74 96 184.5 148.5t227.5 52.5q66 0 110.5 -16.5t73.5 -44t42 -65.5t17 -83q80 100 186.5 154.5t223.5 54.5q70 0 117 -20.5t74.5 -54.5t39 -78t11.5 -93q0 -25 -4.5 -65t-16.5 -97l-147 -688h-328l129 604q4 25 7 46.5t3 39.5q0 59 -24.5 88 t-65.5 29q-31 0 -63.5 -14.5t-64.5 -40t-61.5 -60.5t-50.5 -76l-129 -616h-327l129 604q4 25 7 46.5t3 39.5q0 59 -25.5 88t-66.5 29q-59 0 -127 -54.5t-111 -136.5l-131 -616h-327z" />
<glyph unicode="n" d="M209 1075h295l-39 -180q76 96 188.5 148.5t247.5 52.5q72 0 118 -20.5t73.5 -54.5t39 -79t11.5 -94q0 -41 -5 -81t-14 -79l-145 -688h-328l129 604q8 41 8 82q0 63 -26.5 92t-71.5 29q-59 0 -133 -53.5t-119 -137.5l-131 -616h-327z" />
<glyph unicode="o" d="M469 -20q-113 0 -197 35.5t-139 97t-82.5 142.5t-27.5 173q0 127 49 247t139 214t216 150.5t280 56.5q111 0 194.5 -36t140 -97.5t84 -142.5t27.5 -173q0 -127 -49 -246.5t-139.5 -213t-216 -150.5t-279.5 -57zM528 256q55 0 106.5 26.5t90.5 75t62.5 111.5t23.5 137 q0 96 -44 153.5t-120 57.5q-55 0 -106.5 -26.5t-90 -74.5t-62 -111.5t-23.5 -137.5q0 -96 43.5 -153.5t119.5 -57.5z" />
<glyph unicode="p" horiz-adv-x="1265" d="M207 1075h287l-39 -174q76 92 170 143.5t211 51.5q86 0 155.5 -34t117.5 -92.5t73.5 -139t25.5 -173.5q0 -135 -47 -258t-127 -216t-184.5 -148t-216.5 -55q-115 0 -188.5 51t-100.5 143l-131 -610h-328zM580 256q55 0 106 29.5t91 79t64.5 112t24.5 127.5 q0 92 -49 152.5t-135 60.5q-59 0 -122.5 -40t-110.5 -107l-48 -221q14 -82 62.5 -137.5t116.5 -55.5z" />
<glyph unicode="q" horiz-adv-x="1265" d="M360 -20q-80 0 -142 32.5t-105 91t-66.5 137t-23.5 171.5q0 141 51 266t135 217t194.5 146.5t229.5 54.5q117 0 189.5 -53.5t107.5 -143.5l37 176h286l-239 -1126q-6 -23 -6 -37q0 -51 69 -53l-59 -279q-45 -8 -94.5 -12t-85.5 -4q-86 0 -140.5 44t-54.5 122q0 23 6 45 l84 399q-70 -96 -165 -145t-208 -49zM547 256q63 0 122.5 40t112.5 105l49 228q-10 80 -60 134t-118 54q-55 0 -107 -29.5t-92 -77.5t-64.5 -110.5t-24.5 -130.5q0 -92 48 -152.5t134 -60.5z" />
<glyph unicode="r" horiz-adv-x="802" d="M209 1075h301l-47 -217q78 109 173 170.5t187 61.5q39 0 47 -3l-61 -292q-111 -2 -208 -39t-157 -111l-137 -645h-327z" />
<glyph unicode="s" horiz-adv-x="987" d="M383 -20q-129 0 -247 44t-189 128l157 200q78 -68 160 -104.5t162 -36.5q66 0 98.5 27.5t32.5 74.5q0 35 -34 58.5t-117 50.5q-84 27 -144.5 52.5t-99.5 55t-57.5 65.5t-18.5 83q0 90 40 167t107.5 132t157.5 87t193 32q115 0 208 -33t171 -119l-168 -196 q-76 63 -137.5 91.5t-122.5 28.5q-55 0 -92 -26.5t-37 -79.5q0 -35 34.5 -56.5t114.5 -43.5q176 -51 254 -110.5t78 -162.5q0 -90 -37 -166t-103.5 -130t-158.5 -83.5t-205 -29.5z" />
<glyph unicode="t" horiz-adv-x="802" d="M334 -20q-104 0 -172 46t-68 156q0 43 8 84l119 561h-129l55 248h127l74 342h328l-74 -342h207l-53 -248h-207l-94 -448q-2 -10 -3 -18.5t-1 -16.5q0 -35 19 -50t50 -15q33 0 74 12t76 26v-260q-74 -33 -162 -55t-174 -22z" />
<glyph unicode="u" horiz-adv-x="1241" d="M285 -20q-125 0 -188.5 65.5t-63.5 192.5q0 66 18 149l148 688h325l-131 -616q-10 -51 -10 -80q0 -123 102 -123q55 0 118 35t126 121l141 663h328l-149 -706q-6 -29 -7 -43q0 -47 54 -50l-60 -276q-45 -10 -78.5 -13t-60.5 -3q-78 0 -127 30.5t-49 100.5q0 12 3 27.5 t7 43.5q-92 -106 -204.5 -156t-241.5 -50z" />
<glyph unicode="v" horiz-adv-x="1097" d="M96 1075h340l35 -813q68 113 122 212t98 194.5t81 194t74 212.5h297q-74 -268 -222.5 -537.5t-357.5 -537.5h-340z" />
<glyph unicode="w" horiz-adv-x="1642" d="M78 1075h315l105 -778q10 12 30.5 50t44 81t43 81t27.5 50l-98 516h272l37 -325q6 12 28.5 60t48 102.5t46 102.5t24.5 60h252q-55 -147 -115.5 -268t-146.5 -246l35 -190q82 109 139.5 191.5t101.5 159.5t81.5 160t81.5 193h296q-100 -268 -273 -537.5t-409 -537.5h-215 l-51 377q-6 -8 -22.5 -37t-38 -68t-47 -84t-48 -83.5t-39 -68.5t-22.5 -36h-282z" />
<glyph unicode="x" horiz-adv-x="1069" d="M340 537l-234 538h332l111 -303l10 -39l25 39l245 303h330l-465 -538l244 -537h-334l-119 301l-10 39l-24 -39l-246 -301h-336z" />
<glyph unicode="y" horiz-adv-x="1087" d="M-102 -227q61 2 104 9t76 21.5t59.5 38t55.5 60.5l59 75l-160 1098h334l59 -794l70 114q104 168 167.5 331t104.5 349h316q-29 -98 -59.5 -184t-78 -183.5t-116 -215t-168.5 -281.5l-164 -264q-72 -117 -141.5 -197t-143 -129t-155.5 -71.5t-180 -22.5z" />
<glyph unicode="z" horiz-adv-x="964" d="M-39 197l639 651h-475l49 227h821l-43 -196l-639 -652h516l-49 -227h-862z" />
<glyph unicode="{" horiz-adv-x="679" d="M616 1255l-77 -370q-10 -47 -40 -83t-67 -65q18 -23 32.5 -50.5t14.5 -61.5q0 -14 -4 -35l-82 -393h107l-56 -260h-356q-10 0 -22.5 8t-12.5 32q0 12 2 21l103 481q2 10 3 17.5t1 15.5q0 47 -24.5 76.5t-57.5 38.5l47 225q20 0 43 13.5t43 34t34.5 46t20.5 49.5l97 459 q8 37 28.5 49.5t30.5 12.5h356l-57 -261h-107z" />
<glyph unicode="|" horiz-adv-x="700" d="M221 -266v1853h277v-1853h-277z" />
<glyph unicode="}" horiz-adv-x="686" d="M236 1255l55 261h354q10 0 22.5 -9.5t12.5 -31.5q0 -12 -2 -21l-98 -459l-3.5 -14t-1.5 -14q0 -45 25 -80t59 -35l-49 -225q-41 -10 -84 -49t-55 -99l-102 -481q-8 -37 -27.5 -49t-32.5 -12h-354l55 260h107l84 393q10 47 39.5 83t64.5 64q-16 23 -30.5 49.5t-14.5 61.5 v18t4 19l80 370h-108z" />
<glyph unicode="~" horiz-adv-x="1157" d="M76 455q0 20 17.5 69t56 100.5t99 89.5t148.5 38q57 0 104.5 -17.5t88.5 -37t82 -37t88 -17.5q43 0 71.5 15.5t45 34t22.5 34.5t6 21h176q0 -12 -18.5 -60.5t-57 -99.5t-101 -92t-154.5 -41q-55 0 -101.5 16t-88.5 35.5t-84 36t-87 16.5t-71.5 -15.5t-41 -35t-18.5 -35.5 t-4 -18h-178v0z" />
<glyph unicode="&#xa1;" horiz-adv-x="632" d="M537 879l-191 -891h-328l191 891h328zM657 1456l-71 -340h-328l72 340h327z" />
<glyph unicode="&#xa2;" horiz-adv-x="1196" d="M365 -246l49 228q-86 6 -152.5 47t-113 103.5t-71 140t-24.5 161.5q0 111 40 219.5t117 197.5t187.5 153.5t251.5 87.5l49 229h142l-49 -229q131 -4 232 -74t142 -207l-340 -96q-10 39 -37.5 63.5t-56.5 28.5l-117 -543q41 12 78 38t60 60l299 -98q-47 -72 -113 -125 t-134.5 -89t-135 -53t-113.5 -17l-49 -226h-141zM393 461q0 -59 21.5 -108.5t62.5 -71.5l109 512q-41 -14 -76 -49t-61.5 -81.5t-41 -98.5t-14.5 -103z" />
<glyph unicode="&#xa3;" horiz-adv-x="1114" d="M154 786h120q-10 59 -21 120t-11 118q0 92 43 172t113.5 140.5t163.5 94t192 33.5q125 0 226 -56t159 -159l-209 -200q-35 66 -101.5 108.5t-132.5 42.5q-72 0 -120 -51t-48 -129q0 -51 14.5 -109.5t24.5 -124.5h367l-53 -243h-322q-23 -72 -72 -139.5t-141 -151.5 q49 16 86 22.5t72 6.5q66 0 125 -16.5t125 -16.5q35 0 65.5 7t71.5 21l29 -241q-51 -29 -118 -47.5t-124 -18.5q-45 0 -90 10.5t-90 21.5t-91.5 21.5t-95.5 10.5q-53 0 -129 -14.5t-149 -36.5l-19 233q96 66 165 150t95 178h-170z" />
<glyph unicode="&#xa4;" horiz-adv-x="1187" d="M397 1026q45 25 98.5 39t116.5 14q61 0 113.5 -14t97.5 -37l142 143l127 -127l-136 -135q63 -96 64 -217q0 -125 -66 -221l138 -135l-117 -117l-148 137q-90 -51 -215 -51q-66 0 -120 14.5t-99 38.5l-147 -139l-117 117l137 139q-29 47 -45 102.5t-16 114.5q0 119 59 213 l-135 139l127 127zM440 690q0 -84 49.5 -135t122.5 -51q74 0 123 51t49 137t-49 136.5t-123 50.5t-123 -51.5t-49 -137.5z" />
<glyph unicode="&#xa5;" horiz-adv-x="1433" d="M1106 852h131l-45 -211h-240l-104 -145l-14 -64h315l-43 -211h-318l-47 -221h-333l45 221h-312l45 211h314l14 68l-41 141h-242l45 211h136l-176 602h364l141 -668l430 668h367z" />
<glyph unicode="&#xa6;" horiz-adv-x="684" d="M492 532v-798h-279v798h279zM492 1587v-799h-279v799h279z" />
<glyph unicode="&#xa7;" horiz-adv-x="1073" d="M897 457q10 -18 17.5 -50t7.5 -73q0 -141 -57.5 -239.5t-142.5 -159t-182.5 -88t-174.5 -27.5q-80 0 -145.5 24.5t-115 59.5t-82 72.5t-47.5 66.5l252 201q41 -61 88 -87t101 -26q59 0 105 33t46 92q0 41 -28.5 51t-61.5 15q-176 14 -260 97t-84 208q0 47 8.5 81.5 t19.5 60.5t22.5 43t17.5 30q-10 18 -20.5 59t-10.5 94q0 90 43 174t114.5 149.5t166 105.5t196.5 40q90 0 155.5 -28.5t109.5 -70.5t73 -90t45 -85l-276 -119q-16 45 -51 74t-95 29q-61 0 -103 -35t-42 -95q0 -45 28.5 -58t69.5 -15q66 -2 131.5 -18.5t118.5 -50.5t86 -88 t33 -134q0 -39 -9.5 -75t-21.5 -65.5t-24.5 -51t-20.5 -31.5zM446 631q0 -35 19.5 -51.5t45.5 -23.5t53.5 -9t45.5 -10q18 14 30.5 39.5t12.5 50.5q0 47 -30.5 64.5t-61.5 17.5q-25 0 -47 5t-27 9q-16 -14 -28.5 -38.5t-12.5 -53.5z" />
<glyph unicode="&#xa8;" horiz-adv-x="1017" d="M150 1214l57 265h270l-57 -265h-270zM569 1214l58 265h268l-55 -265h-271z" />
<glyph unicode="&#xa9;" horiz-adv-x="1757" d="M895 -14q-166 0 -308.5 56t-245.5 155.5t-161.5 234.5t-58.5 295q0 158 58.5 293t161.5 233.5t245.5 154.5t308.5 56q170 0 315.5 -56t251 -154.5t165 -233.5t59.5 -293q0 -160 -59.5 -295t-165 -234.5t-251 -155.5t-315.5 -56zM895 100q139 0 261 46.5t211 128 t140.5 196.5t51.5 254q0 131 -50.5 244.5t-139.5 198.5t-210 133.5t-264 48.5q-139 0 -257 -48.5t-205 -132.5t-136 -197.5t-49 -244.5t49 -245.5t135 -198.5t205 -133.5t258 -49.5zM913 233q-123 0 -222 39t-167.5 105.5t-105.5 156t-37 191.5q0 96 34 185t100.5 158 t165.5 110t230 41q174 0 296 -76t182 -201l-318 -98q-29 53 -72 75.5t-90 22.5q-86 0 -139 -61.5t-53 -155.5q0 -51 16.5 -91t44 -67.5t62 -42t71.5 -14.5q49 0 93.5 25.5t68.5 72.5l320 -96q-27 -57 -72 -108.5t-105.5 -89.5t-136.5 -59.5t-166 -21.5z" />
<glyph unicode="&#xaa;" horiz-adv-x="878" d="M324 688q-86 0 -138.5 54.5t-52.5 138.5q0 63 27.5 117.5t75 93t111 61.5t134.5 23q90 0 140 -31l6 31q2 12 3 21t1 20q0 86 -103 86q-57 0 -110 -20.5t-119 -61.5l-37 145q154 96 322 96q135 0 204.5 -57t69.5 -168q0 -37 -10 -88l-37 -182q-2 -8 -3 -14.5t-1 -12.5 q0 -37 45 -39l-43 -199q-59 -12 -104 -12q-63 0 -91 23.5t-28 70.5v15.5t2 21.5q-123 -133 -264 -133zM428 858q20 0 45 8t47.5 21.5t38.5 31t21 35.5l14 68q-20 12 -48 18.5t-50 6.5q-57 0 -99.5 -34t-42.5 -83q0 -31 20.5 -51.5t53.5 -20.5z" />
<glyph unicode="&#xab;" horiz-adv-x="1349" d="M66 600l612 395l-55 -264l-316 -201l232 -186l-56 -264l-452 364zM702 600l613 395l-55 -264l-314 -201l232 -186l-56 -264l-452 364z" />
<glyph unicode="&#xac;" horiz-adv-x="1232" d="M1155 850l-137 -649h-277l76 354h-723l62 295h999z" />
<glyph unicode="&#xad;" horiz-adv-x="1218" d="M66 416l63 295h999l-63 -295h-999z" />
<glyph unicode="&#xae;" horiz-adv-x="1757" d="M899 -14q-170 0 -312.5 56t-245.5 155.5t-161.5 234.5t-58.5 295q0 158 58.5 293t161.5 233.5t245.5 154.5t312.5 56q168 0 312.5 -56t250 -154.5t165 -233.5t59.5 -293q0 -160 -59.5 -295t-165 -234.5t-250 -155.5t-312.5 -56zM899 98q137 0 257 47.5t208 130t138 197.5 t50 250q0 131 -49 245.5t-136 198.5t-207 133.5t-261 49.5t-260 -49.5t-204 -133.5t-133 -197.5t-48 -244.5t48 -244.5t133 -198.5t204 -134.5t260 -49.5zM559 1176h404q63 0 116.5 -27t92 -70t60 -97t21.5 -110q0 -80 -41 -150.5t-106 -105.5l205 -329h-256l-178 286h-89 v-286h-229v889zM940 770q39 0 63.5 24.5t24.5 77.5q0 57 -28.5 80t-63.5 23h-148v-205h152z" />
<glyph unicode="&#xaf;" horiz-adv-x="839" d="M123 1270l41 198h596l-43 -198h-594z" />
<glyph unicode="&#xb0;" horiz-adv-x="583" d="M375 1032q-82 0 -129 47t-47 125q0 53 20.5 103.5t57 89.5t87 62.5t109.5 23.5q82 0 129 -50.5t47 -127.5q0 -57 -21.5 -107.5t-58.5 -87.5t-87 -57.5t-107 -20.5zM410 1186q29 0 55.5 25.5t26.5 60.5q0 29 -15.5 42t-38.5 13q-31 0 -57.5 -24.5t-26.5 -57.5 q0 -25 14.5 -42t41.5 -17z" />
<glyph unicode="&#xb1;" horiz-adv-x="1075" d="M139 33v260h750v-260h-750zM891 911v-260h-227v-248h-295v248h-228v260h228v248h295v-248h227z" />
<glyph unicode="&#xb2;" horiz-adv-x="847" d="M94 784q18 86 44 149.5t66 113t98 86t140 69.5q55 20 107.5 41t94.5 43.5t67.5 52t25.5 72.5q0 41 -35.5 59.5t-97.5 18.5q-78 0 -145.5 -29.5t-110.5 -64.5l-90 139q25 25 64.5 50.5t93 45t118 32.5t138.5 13q141 0 212.5 -58t71.5 -167q0 -78 -28.5 -135.5t-73.5 -97 t-101.5 -65.5t-111.5 -42q-174 -53 -195 -139h383l-41 -187h-694z" />
<glyph unicode="&#xb3;" horiz-adv-x="817" d="M416 770q-115 0 -185.5 39t-115.5 117l131 143q6 -10 17 -28.5t35 -36t61.5 -29.5t95.5 -12q37 0 71.5 6t62 18t45 30.5t17.5 43.5q0 51 -69.5 71.5t-198.5 20.5h-47l37 174h45q123 0 202.5 24.5t79.5 78.5q0 20 -12 33.5t-30.5 21.5t-41 11t-43.5 3q-76 0 -133 -26.5 t-104 -69.5l-88 153q31 29 72.5 51.5t89 38t97.5 22.5t97 7q141 0 223 -59.5t82 -153.5q0 -84 -65.5 -139t-165.5 -72q82 -14 123 -66t41 -124q0 -74 -39 -129t-100.5 -91t-137 -53.5t-149.5 -17.5z" />
<glyph unicode="&#xb4;" horiz-adv-x="530" d="M256 1200l-217 29l158 266h295z" />
<glyph unicode="&#xb5;" horiz-adv-x="1331" d="M231 1075h328l-131 -616q-10 -51 -10 -82q0 -121 108 -121q49 0 111.5 35t126.5 121l139 663h328l-150 -706q-2 -10 -3 -19.5t-1 -19.5q0 -29 15.5 -40t52.5 -14l-60 -276q-51 -10 -87.5 -13t-65.5 -3q-172 0 -172 131q0 4 1 26.5t5 44.5q-18 -31 -53 -66.5t-79 -66 t-93 -52t-95 -21.5q-57 0 -86.5 26.5t-33.5 71.5l-88 -514h-328z" />
<glyph unicode="&#xb6;" horiz-adv-x="1345" d="M125 793q0 150 47 272.5t136 208.5t214 133t283 47h629l-52 -244h-137l-293 -1374h-276l121 572h-74l-121 -572h-278l122 572q-76 0 -135 27.5t-101 78.5t-63.5 122t-21.5 157zM399 817q0 -72 28 -117t71 -51l120 561q-43 -4 -82.5 -37.5t-69.5 -88t-48.5 -124 t-18.5 -143.5zM971 1210h-78l-119 -561h76z" />
<glyph unicode="&#xb7;" horiz-adv-x="487" d="M82 492l72 339h268l-72 -339h-268z" />
<glyph unicode="&#xb8;" horiz-adv-x="675" d="M45 -260q18 -14 66.5 -27.5t101.5 -13.5t88 17.5t35 60.5q0 29 -24.5 41t-67.5 12q-41 0 -88 -8t-72 -15l178 259l115 -37l-92 -107q25 6 57 6q59 0 103 -28.5t44 -94.5q0 -45 -20 -84.5t-60 -70.5t-100.5 -49.5t-142.5 -18.5q-68 0 -120 13.5t-87 29.5z" />
<glyph unicode="&#xb9;" horiz-adv-x="612" d="M645 975l-41 -189h-473l41 189h150l104 498q-12 -14 -38 -33t-54.5 -35t-59 -27.5t-53.5 -11.5l41 190q31 0 67 18.5t66.5 40t52 40t21.5 20.5h193l-150 -700h133z" />
<glyph unicode="&#xba;" horiz-adv-x="872" d="M449 688q-74 0 -129.5 24.5t-92.5 66.5t-55 98.5t-18 117.5q0 88 32.5 173t93 149.5t145.5 104.5t189 40q74 0 129.5 -24.5t92 -66.5t55 -97t18.5 -119q0 -88 -32.5 -172t-92 -149.5t-145.5 -105.5t-190 -40zM492 887q35 0 67.5 18.5t57 51t40 75.5t15.5 92 q0 63 -27 101.5t-74 38.5q-35 0 -67.5 -18.5t-57 -51.5t-40 -77t-15.5 -93q0 -61 27 -99t74 -38z" />
<glyph unicode="&#xbb;" horiz-adv-x="1349" d="M1243 444l-606 -364l55 264l312 186l-230 201l57 264l445 -395zM606 444l-606 -364l55 264l312 186l-230 201l56 264l446 -395z" />
<glyph unicode="&#xbc;" horiz-adv-x="1736" d="M1260 182h-422l41 187l589 514h129l-108 -514h123l-41 -187h-121l-39 -180h-188zM1307 369l61 282l-311 -282h250zM211 115l690 663l643 695l119 -132l-670 -645l-665 -714zM623 797l-39 -189h-475l41 189h149l107 497q-14 -14 -40 -32.5t-54.5 -35t-59.5 -27.5t-53 -11 l41 190q31 0 66.5 18.5t66 40t52 40t21.5 20.5h195l-152 -700h134z" />
<glyph unicode="&#xbd;" horiz-adv-x="1804" d="M897 0q16 86 41 149.5t63.5 111.5t94 86t135.5 71q53 20 104 40.5t91 43t65 52.5t25 73q0 41 -34 59.5t-93 18.5q-76 0 -140.5 -31t-107.5 -66l-88 142q25 25 63.5 50t89.5 44.5t113.5 33t134.5 13.5q135 0 205 -58.5t70 -166.5q0 -78 -27 -134.5t-70 -96.5t-97 -65.5 t-110 -43.5q-168 -53 -188 -140h399l-39 -186h-700zM139 115l690 663l644 695l118 -132l-669 -645l-666 -714zM623 797l-39 -189h-475l41 189h149l107 497q-14 -14 -40 -32.5t-54.5 -35t-59.5 -27.5t-53 -11l41 190q31 0 66.5 18.5t66 40t52 40t21.5 20.5h195l-152 -700h134 z" />
<glyph unicode="&#xbe;" horiz-adv-x="1769" d="M395 592q-123 0 -200.5 39t-94.5 117l131 143q2 -8 14.5 -25.5t36 -36t60.5 -32t90 -13.5q82 0 143.5 25t61.5 76q0 49 -70.5 69.5t-197.5 20.5h-47l34 174h47q123 0 203 24.5t80 79.5q0 18 -12 31.5t-31.5 21t-42 11.5t-43.5 4q-76 0 -132 -26.5t-106 -69.5l-86 153 q31 29 72 51.5t88 38t99.5 22.5t101.5 7q68 0 123 -16.5t95 -44t61.5 -65.5t21.5 -83q0 -86 -63.5 -142t-169.5 -73q82 -12 123.5 -65.5t41.5 -122.5q0 -78 -38.5 -133.5t-100 -90t-138.5 -52t-155 -17.5zM1286 182h-422l41 187l590 514h129l-108 -514h122l-41 -187h-120 l-39 -180h-189zM1333 369l62 282l-312 -282h250zM285 115l690 663l643 695l119 -132l-670 -645l-666 -714z" />
<glyph unicode="&#xbf;" horiz-adv-x="962" d="M739 535q-10 -47 -23.5 -90.5t-38 -83t-63.5 -74.5t-96 -64q-70 -35 -125 -65.5t-94 -63.5t-60.5 -69.5t-21.5 -81.5q0 -53 34 -84t83 -31q37 0 68.5 15.5t58 37t49 47t39.5 47.5l180 -147q-78 -125 -202 -194.5t-263 -69.5q-66 0 -127 18.5t-108 57t-77 100t-30 147.5 t20.5 150.5t55.5 114t82 86t102 69.5q45 27 93.5 50.5t89.5 48t69.5 55.5t36.5 74h268zM842 1036l-66 -307h-268l65 307h269z" />
<glyph unicode="&#xc0;" horiz-adv-x="1312" d="M690 1454h305l189 -1454h-344l-31 326h-414l-166 -326h-346zM803 557l-41 514l-266 -514h307zM643 1878h295l45 -266l-227 -33z" />
<glyph unicode="&#xc1;" horiz-adv-x="1312" d="M690 1454h305l189 -1454h-344l-31 326h-414l-166 -326h-346zM803 557l-41 514l-266 -514h307zM924 1581l-217 29l157 266h295z" />
<glyph unicode="&#xc2;" horiz-adv-x="1312" d="M690 1454h305l189 -1454h-344l-31 326h-414l-166 -326h-346zM803 557l-41 514l-266 -514h307zM555 1655l262 221h234l168 -221l-183 -74l-137 129l-192 -129z" />
<glyph unicode="&#xc3;" horiz-adv-x="1312" d="M690 1454h305l189 -1454h-344l-31 326h-414l-166 -326h-346zM803 557l-41 514l-266 -514h307zM995 1585q-45 0 -75.5 14.5t-56 33t-50.5 32.5t-57 14q-33 0 -54.5 -14t-34 -32.5t-17.5 -34t-5 -17.5h-178q4 23 27.5 71t64.5 97t97.5 86t125.5 37q47 0 78 -15.5t55.5 -34 t48 -33.5t58.5 -15q33 0 56.5 15t37.5 33.5t21.5 35t7.5 18.5h174q-4 -16 -27.5 -63.5t-65.5 -98.5t-100.5 -90t-130.5 -39z" />
<glyph unicode="&#xc4;" horiz-adv-x="1312" d="M690 1454h305l189 -1454h-344l-31 326h-414l-166 -326h-346zM803 557l-41 514l-266 -514h307zM514 1597l57 265h271l-58 -265h-270zM934 1597l57 265h269l-56 -265h-270z" />
<glyph unicode="&#xc5;" horiz-adv-x="1312" d="M690 1454h305l189 -1454h-344l-31 326h-414l-166 -326h-346zM803 557l-41 514l-266 -514h307zM668 1675q0 98 70.5 149.5t183.5 51.5q86 0 133 -35t47 -100q0 -96 -70.5 -147.5t-181.5 -51.5q-86 0 -134 33.5t-48 99.5zM899 1780q-37 0 -64.5 -23.5t-27.5 -58.5 q0 -27 17.5 -43.5t45.5 -16.5q35 0 65 24t30 60q0 25 -18.5 41.5t-47.5 16.5z" />
<glyph unicode="&#xc6;" horiz-adv-x="1908" d="M991 1454h1012l-64 -295h-587l-58 -272h482l-62 -293h-481l-64 -299h603l-62 -295h-938l70 326h-412l-237 -326h-357zM879 621l96 458l-340 -458h244z" />
<glyph unicode="&#xc7;" horiz-adv-x="1351" d="M389 -260q18 -14 66.5 -27.5t101.5 -13.5t88 17.5t35 60.5q0 29 -24.5 41t-67.5 12q-41 0 -88 -8t-72 -15l125 183q-117 10 -208 66.5t-152.5 141.5t-94 191.5t-32.5 218.5q0 100 29.5 202.5t83.5 198t132 177.5t174.5 143.5t209 97t237.5 35.5q197 0 321.5 -88 t165.5 -229l-297 -180q-10 57 -35.5 95t-62.5 61.5t-80 32.5t-84 9q-106 0 -190 -50t-142.5 -129t-89 -173t-30.5 -182q0 -70 17 -131.5t51 -108.5t85 -74.5t117 -27.5q43 0 89 11t92 34.5t88 61.5t73 93l242 -161q-43 -72 -107.5 -129.5t-140.5 -99.5t-160 -68.5 t-164 -34.5l-61 -72q25 6 57 6q59 0 103.5 -28.5t44.5 -94.5q0 -45 -20.5 -84.5t-60.5 -70.5t-100.5 -49.5t-142.5 -18.5q-68 0 -120 13.5t-87 29.5z" />
<glyph unicode="&#xc8;" horiz-adv-x="1179" d="M317 1454h957l-64 -295h-620l-60 -282h533l-57 -273h-533l-67 -309h638l-61 -295h-975zM635 1878h295l45 -266l-227 -33z" />
<glyph unicode="&#xc9;" horiz-adv-x="1179" d="M883 1581l-217 29l157 266h295zM317 1454h957l-64 -295h-620l-60 -282h533l-57 -273h-533l-67 -309h638l-61 -295h-975z" />
<glyph unicode="&#xca;" horiz-adv-x="1179" d="M496 1655l262 221h233l168 -221l-182 -74l-137 129l-193 -129zM317 1454h957l-64 -295h-620l-60 -282h533l-57 -273h-533l-67 -309h638l-61 -295h-975z" />
<glyph unicode="&#xcb;" horiz-adv-x="1179" d="M477 1597l58 265h270l-57 -265h-271zM897 1597l57 265h269l-56 -265h-270zM317 1454h957l-64 -295h-620l-60 -282h533l-57 -273h-533l-67 -309h638l-61 -295h-975z" />
<glyph unicode="&#xcc;" horiz-adv-x="614" d="M317 1454h336l-309 -1454h-336zM324 1878h294l46 -266l-228 -33z" />
<glyph unicode="&#xcd;" horiz-adv-x="614" d="M317 1454h336l-309 -1454h-336zM557 1581l-217 29l158 266h295z" />
<glyph unicode="&#xce;" horiz-adv-x="614" d="M317 1454h336l-309 -1454h-336zM201 1655l262 221h233l168 -221l-182 -74l-137 129l-193 -129z" />
<glyph unicode="&#xcf;" horiz-adv-x="614" d="M317 1454h336l-309 -1454h-336zM172 1597l57 265h271l-58 -265h-270zM592 1597l57 265h269l-56 -265h-270z" />
<glyph unicode="&#xd0;" horiz-adv-x="1427" d="M117 852h80l129 602h520q141 0 246.5 -44t174 -120t102.5 -179t34 -222q0 -193 -65.5 -355.5t-182.5 -281.5t-275.5 -185.5t-342.5 -66.5h-521l129 610h-79zM598 295q102 0 187 44t145.5 120t93.5 174t33 207q0 143 -68.5 231t-204.5 88h-184l-68 -307h244l-53 -242h-242 l-67 -315h184z" />
<glyph unicode="&#xd1;" horiz-adv-x="1492" d="M317 1454h263l436 -854l180 854h336l-309 -1454h-267l-436 831l-176 -831h-336zM1081 1585q-45 0 -75.5 14.5t-56 33t-50.5 32.5t-57 14q-33 0 -54.5 -14t-34 -32.5t-17.5 -34t-5 -17.5h-178q4 23 27.5 71t64.5 97t97.5 86t125.5 37q47 0 78 -15.5t55.5 -34t48 -33.5 t58.5 -15q33 0 56.5 15t38 33.5t21.5 35t7 18.5h174q-4 -16 -27.5 -63.5t-65.5 -98.5t-100.5 -90t-130.5 -39z" />
<glyph unicode="&#xd2;" horiz-adv-x="1501" d="M616 -12q-133 0 -235 50t-172 135t-105.5 194.5t-35.5 228.5q0 111 32.5 217.5t91 202.5t138.5 178t177 141.5t205.5 93t223.5 33.5q131 0 233.5 -51t171 -135t104.5 -194.5t36 -227.5q0 -164 -71 -319.5t-190.5 -277.5t-275.5 -195.5t-328 -73.5zM682 287q106 0 190 51 t142.5 130t90.5 175t32 188q0 68 -16.5 127.5t-49.5 105.5t-84 72.5t-121 26.5q-104 0 -189 -50t-143.5 -128t-90 -174t-31.5 -188q0 -68 16 -128.5t49 -106.5t84 -73.5t121 -27.5zM774 1878h295l45 -266l-227 -33z" />
<glyph unicode="&#xd3;" horiz-adv-x="1501" d="M1034 1581l-217 29l158 266h295zM616 -12q-133 0 -235 50t-172 135t-105.5 194.5t-35.5 228.5q0 111 32.5 217.5t91 202.5t138.5 178t177 141.5t205.5 93t223.5 33.5q131 0 233.5 -51t171 -135t104.5 -194.5t36 -227.5q0 -164 -71 -319.5t-190.5 -277.5t-275.5 -195.5 t-328 -73.5zM682 287q106 0 190 51t142.5 130t90.5 175t32 188q0 68 -16.5 127.5t-49.5 105.5t-84 72.5t-121 26.5q-104 0 -189 -50t-143.5 -128t-90 -174t-31.5 -188q0 -68 16 -128.5t49 -106.5t84 -73.5t121 -27.5z" />
<glyph unicode="&#xd4;" horiz-adv-x="1501" d="M647 1655l262 221h234l168 -221l-183 -74l-137 129l-192 -129zM616 -12q-133 0 -235 50t-172 135t-105.5 194.5t-35.5 228.5q0 111 32.5 217.5t91 202.5t138.5 178t177 141.5t205.5 93t223.5 33.5q131 0 233.5 -51t171 -135t104.5 -194.5t36 -227.5q0 -164 -71 -319.5 t-190.5 -277.5t-275.5 -195.5t-328 -73.5zM682 287q106 0 190 51t142.5 130t90.5 175t32 188q0 68 -16.5 127.5t-49.5 105.5t-84 72.5t-121 26.5q-104 0 -189 -50t-143.5 -128t-90 -174t-31.5 -188q0 -68 16 -128.5t49 -106.5t84 -73.5t121 -27.5z" />
<glyph unicode="&#xd5;" horiz-adv-x="1501" d="M616 -12q-133 0 -235 50t-172 135t-105.5 194.5t-35.5 228.5q0 111 32.5 217.5t91 202.5t138.5 178t177 141.5t205.5 93t223.5 33.5q131 0 233.5 -51t171 -135t104.5 -194.5t36 -227.5q0 -164 -71 -319.5t-190.5 -277.5t-275.5 -195.5t-328 -73.5zM682 287q106 0 190 51 t142.5 130t90.5 175t32 188q0 68 -16.5 127.5t-49.5 105.5t-84 72.5t-121 26.5q-104 0 -189 -50t-143.5 -128t-90 -174t-31.5 -188q0 -68 16 -128.5t49 -106.5t84 -73.5t121 -27.5zM1096 1585q-45 0 -76 14.5t-56.5 33t-50 32.5t-57.5 14t-54.5 -14t-33.5 -32.5t-17.5 -34 t-5.5 -17.5h-178q4 23 27.5 71t64.5 97t97.5 86t126.5 37q47 0 77.5 -15.5t55 -34t48 -33.5t58.5 -15q33 0 56.5 15t38 33.5t21.5 35t7 18.5h174q-4 -16 -27.5 -63.5t-65.5 -98.5t-100 -90t-130 -39z" />
<glyph unicode="&#xd6;" horiz-adv-x="1501" d="M616 1597l58 265h270l-57 -265h-271zM1036 1597l58 265h268l-55 -265h-271zM616 -12q-133 0 -235 50t-172 135t-105.5 194.5t-35.5 228.5q0 111 32.5 217.5t91 202.5t138.5 178t177 141.5t205.5 93t223.5 33.5q131 0 233.5 -51t171 -135t104.5 -194.5t36 -227.5 q0 -164 -71 -319.5t-190.5 -277.5t-275.5 -195.5t-328 -73.5zM682 287q106 0 190 51t142.5 130t90.5 175t32 188q0 68 -16.5 127.5t-49.5 105.5t-84 72.5t-121 26.5q-104 0 -189 -50t-143.5 -128t-90 -174t-31.5 -188q0 -68 16 -128.5t49 -106.5t84 -73.5t121 -27.5z" />
<glyph unicode="&#xd7;" horiz-adv-x="1015" d="M891 371l-205 -203l-197 194l-194 -194l-203 203l195 194l-185 187l205 202l185 -184l184 184l203 -202l-185 -185z" />
<glyph unicode="&#xd8;" horiz-adv-x="1501" d="M1604 1454l-218 -244q47 -78 71 -169t24 -187q0 -164 -71 -319.5t-190.5 -277.5t-275.5 -195.5t-328 -73.5q-147 0 -262 63l-47 -51h-360l213 240q-47 78 -69.5 168t-22.5 188q0 111 32.5 217.5t91 202.5t138.5 178t177 141.5t205.5 93t223.5 33.5q74 0 138.5 -17.5 t119.5 -45.5l49 55h361zM682 287q106 0 190 51t142.5 130t90.5 175t32 188q0 23 -2 45.5t-7 45.5l-548 -617q43 -18 102 -18zM412 623q0 -51 8 -93l547 615q-23 8 -47.5 13t-53.5 5q-104 0 -189 -50t-143.5 -128t-90 -174t-31.5 -188z" />
<glyph unicode="&#xd9;" horiz-adv-x="1466" d="M598 -12q-133 0 -225 37.5t-150.5 104.5t-85 158t-26.5 195q0 111 24 228l160 743h336l-160 -743q-18 -90 -18 -166q0 -55 11 -102.5t35.5 -82t64.5 -54t98 -19.5q78 0 139 35.5t106 95t76 136.5t49 157l158 743h336l-158 -743q-33 -152 -97.5 -283t-160.5 -229.5 t-224 -154.5t-288 -56zM748 1878h294l45 -266l-227 -33z" />
<glyph unicode="&#xda;" horiz-adv-x="1466" d="M1004 1581l-218 29l158 266h295zM598 -12q-133 0 -225 37.5t-150.5 104.5t-85 158t-26.5 195q0 111 24 228l160 743h336l-160 -743q-18 -90 -18 -166q0 -55 11 -102.5t35.5 -82t64.5 -54t98 -19.5q78 0 139 35.5t106 95t76 136.5t49 157l158 743h336l-158 -743 q-33 -152 -97.5 -283t-160.5 -229.5t-224 -154.5t-288 -56z" />
<glyph unicode="&#xdb;" horiz-adv-x="1466" d="M616 1655l263 221h233l168 -221l-182 -74l-137 129l-193 -129zM598 -12q-133 0 -225 37.5t-150.5 104.5t-85 158t-26.5 195q0 111 24 228l160 743h336l-160 -743q-18 -90 -18 -166q0 -55 11 -102.5t35.5 -82t64.5 -54t98 -19.5q78 0 139 35.5t106 95t76 136.5t49 157 l158 743h336l-158 -743q-33 -152 -97.5 -283t-160.5 -229.5t-224 -154.5t-288 -56z" />
<glyph unicode="&#xdc;" horiz-adv-x="1466" d="M588 1597l57 265h270l-57 -265h-270zM1008 1597l57 265h268l-55 -265h-270zM598 -12q-133 0 -225 37.5t-150.5 104.5t-85 158t-26.5 195q0 111 24 228l160 743h336l-160 -743q-18 -90 -18 -166q0 -55 11 -102.5t35.5 -82t64.5 -54t98 -19.5q78 0 139 35.5t106 95 t76 136.5t49 157l158 743h336l-158 -743q-33 -152 -97.5 -283t-160.5 -229.5t-224 -154.5t-288 -56z" />
<glyph unicode="&#xdd;" horiz-adv-x="1275" d="M436 500l-278 954h364l142 -668l432 668h364l-692 -958l-104 -496h-336zM889 1581l-217 29l157 266h295z" />
<glyph unicode="&#xde;" horiz-adv-x="1196" d="M317 1454h336l-53 -254h223q86 0 152.5 -35t114 -91t72 -130t24.5 -151q0 -104 -45 -208t-122 -186t-178.5 -132t-215.5 -50h-236l-45 -217h-336zM670 512q31 0 62.5 19.5t57 53t41 79t15.5 94.5q0 68 -30 108.5t-73 40.5h-206l-84 -395h217z" />
<glyph unicode="&#xdf;" horiz-adv-x="1110" d="M428 289q51 0 98 14t83 42t56.5 69t20.5 96q0 70 -44 106.5t-91 36.5h-43l63 293h39q35 0 59.5 13.5t41 35t24.5 47t8 50.5q0 47 -25.5 70.5t-64.5 23.5q-59 0 -94 -47t-51 -121l-217 -1018h-311l229 1075q18 84 67.5 154.5t121 123t160.5 81t185 28.5q147 0 237.5 -73.5 t90.5 -202.5q0 -61 -19.5 -119.5t-51 -107t-71.5 -83t-79 -51.5q86 -33 132 -112.5t46 -190.5q0 -150 -60.5 -251t-155.5 -163.5t-213 -90t-234 -29.5z" />
<glyph unicode="&#xe0;" horiz-adv-x="1298" d="M403 -20q-90 0 -160.5 32.5t-119.5 91t-74.5 138.5t-25.5 174q0 135 48 259t128 217t186.5 148.5t222.5 55.5q104 0 178 -53.5t103 -143.5l37 170h329l-151 -700q-2 -14 -3 -23.5t-1 -19.5q0 -47 51 -50l-57 -276q-47 -10 -81 -13t-59 -3q-80 0 -127 31.5t-47 105.5 q0 20 6 57q-76 -100 -177.5 -149t-205.5 -49zM551 256q61 0 124.5 40t110.5 110l48 225q-10 82 -61.5 134t-117.5 52q-55 0 -107 -29.5t-92 -77.5t-63.5 -110.5t-23.5 -130.5q0 -92 48 -152.5t134 -60.5zM457 1495h295l45 -266l-228 -33z" />
<glyph unicode="&#xe1;" horiz-adv-x="1298" d="M403 -20q-90 0 -160.5 32.5t-119.5 91t-74.5 138.5t-25.5 174q0 135 48 259t128 217t186.5 148.5t222.5 55.5q104 0 178 -53.5t103 -143.5l37 170h329l-151 -700q-2 -14 -3 -23.5t-1 -19.5q0 -47 51 -50l-57 -276q-47 -10 -81 -13t-59 -3q-80 0 -127 31.5t-47 105.5 q0 20 6 57q-76 -100 -177.5 -149t-205.5 -49zM551 256q61 0 124.5 40t110.5 110l48 225q-10 82 -61.5 134t-117.5 52q-55 0 -107 -29.5t-92 -77.5t-63.5 -110.5t-23.5 -130.5q0 -92 48 -152.5t134 -60.5zM752 1200l-217 29l157 266h295z" />
<glyph unicode="&#xe2;" horiz-adv-x="1298" d="M403 -20q-90 0 -160.5 32.5t-119.5 91t-74.5 138.5t-25.5 174q0 135 48 259t128 217t186.5 148.5t222.5 55.5q104 0 178 -53.5t103 -143.5l37 170h329l-151 -700q-2 -14 -3 -23.5t-1 -19.5q0 -47 51 -50l-57 -276q-47 -10 -81 -13t-59 -3q-80 0 -127 31.5t-47 105.5 q0 20 6 57q-76 -100 -177.5 -149t-205.5 -49zM551 256q61 0 124.5 40t110.5 110l48 225q-10 82 -61.5 134t-117.5 52q-55 0 -107 -29.5t-92 -77.5t-63.5 -110.5t-23.5 -130.5q0 -92 48 -152.5t134 -60.5zM354 1274l262 221h234l168 -221l-182 -74l-138 129l-192 -129z" />
<glyph unicode="&#xe3;" horiz-adv-x="1298" d="M403 -20q-90 0 -160.5 32.5t-119.5 91t-74.5 138.5t-25.5 174q0 135 48 259t128 217t186.5 148.5t222.5 55.5q104 0 178 -53.5t103 -143.5l37 170h329l-151 -700q-2 -14 -3 -23.5t-1 -19.5q0 -47 51 -50l-57 -276q-47 -10 -81 -13t-59 -3q-80 0 -127 31.5t-47 105.5 q0 20 6 57q-76 -100 -177.5 -149t-205.5 -49zM551 256q61 0 124.5 40t110.5 110l48 225q-10 82 -61.5 134t-117.5 52q-55 0 -107 -29.5t-92 -77.5t-63.5 -110.5t-23.5 -130.5q0 -92 48 -152.5t134 -60.5zM799 1204q-45 0 -76 14.5t-56.5 33t-50 32.5t-57.5 14t-54.5 -14 t-33.5 -32.5t-17 -34t-5 -17.5h-179q4 23 28 71t64.5 97t97 86t126.5 37q47 0 77.5 -15.5t55 -34t48.5 -33.5t58 -15q33 0 56.5 15t38 33.5t21.5 35t7 18.5h174q-4 -16 -27.5 -63.5t-65.5 -98.5t-100 -90t-130 -39z" />
<glyph unicode="&#xe4;" horiz-adv-x="1298" d="M403 -20q-90 0 -160.5 32.5t-119.5 91t-74.5 138.5t-25.5 174q0 135 48 259t128 217t186.5 148.5t222.5 55.5q104 0 178 -53.5t103 -143.5l37 170h329l-151 -700q-2 -14 -3 -23.5t-1 -19.5q0 -47 51 -50l-57 -276q-47 -10 -81 -13t-59 -3q-80 0 -127 31.5t-47 105.5 q0 20 6 57q-76 -100 -177.5 -149t-205.5 -49zM551 256q61 0 124.5 40t110.5 110l48 225q-10 82 -61.5 134t-117.5 52q-55 0 -107 -29.5t-92 -77.5t-63.5 -110.5t-23.5 -130.5q0 -92 48 -152.5t134 -60.5zM332 1214l57 265h270l-57 -265h-270zM752 1214l57 265h268l-55 -265 h-270z" />
<glyph unicode="&#xe5;" horiz-adv-x="1298" d="M403 -20q-90 0 -160.5 32.5t-119.5 91t-74.5 138.5t-25.5 174q0 135 48 259t128 217t186.5 148.5t222.5 55.5q104 0 178 -53.5t103 -143.5l37 170h329l-151 -700q-2 -14 -3 -23.5t-1 -19.5q0 -47 51 -50l-57 -276q-47 -10 -81 -13t-59 -3q-80 0 -127 31.5t-47 105.5 q0 20 6 57q-76 -100 -177.5 -149t-205.5 -49zM551 256q61 0 124.5 40t110.5 110l48 225q-10 82 -61.5 134t-117.5 52q-55 0 -107 -29.5t-92 -77.5t-63.5 -110.5t-23.5 -130.5q0 -92 48 -152.5t134 -60.5zM477 1294q0 98 70.5 149.5t183.5 51.5q86 0 133 -35t47 -100 q0 -96 -70.5 -147.5t-181.5 -51.5q-86 0 -134 33.5t-48 99.5zM709 1399q-37 0 -65 -23.5t-28 -58.5q0 -27 17.5 -43.5t46.5 -16.5q35 0 64.5 24t29.5 60q0 25 -18 41.5t-47 16.5z" />
<glyph unicode="&#xe6;" horiz-adv-x="1839" d="M268 -20q-68 0 -121 21.5t-92 58t-59.5 89t-20.5 113.5q0 88 41 165t112 133t167 88t205 32q61 0 114.5 -11.5t92.5 -29.5q6 29 14 55.5t8 53.5q0 59 -40 90.5t-124 31.5t-166 -29.5t-176 -88.5l-53 204q231 139 475 140q117 0 200 -34t132 -97q78 59 172 95t205 36 t194.5 -36t140 -97.5t84 -142.5t27.5 -173q0 -78 -15.5 -129t-29.5 -82h-747q-2 -12 -3 -22.5t-1 -24.5q0 -86 51 -130t125 -44q66 0 132 35t99 94l262 -78q-86 -127 -230.5 -206.5t-324.5 -79.5q-154 0 -254 58t-147 157q-49 -57 -107.5 -98.5t-119 -67t-118 -37.5 t-104.5 -12zM418 215q31 0 66.5 9t69.5 23.5t62.5 34t47.5 42.5q-2 10 -3.5 20t-1.5 23q0 23 3.5 47t7.5 53q-35 14 -77 22.5t-79 8.5q-43 0 -83 -13.5t-70.5 -36t-48 -54.5t-17.5 -68q0 -47 32 -79t91 -32zM1458 635q2 10 2 19.5v23.5q0 82 -43 132t-121 50 q-86 0 -155.5 -61.5t-98.5 -163.5h416z" />
<glyph unicode="&#xe7;" horiz-adv-x="1122" d="M246 -260q18 -14 66 -27.5t102 -13.5q53 0 88 17.5t35 60.5q0 29 -25 41t-68 12q-41 0 -88 -8t-71 -15l121 177q-96 10 -168 49t-120 99.5t-71.5 137t-23.5 162.5q0 125 50 245t140 213t216 149.5t278 56.5q180 0 284.5 -79t138.5 -206l-337 -96q-39 102 -148 102 q-53 0 -104.5 -26.5t-91 -72.5t-63.5 -109.5t-24 -139.5q0 -96 45.5 -154.5t118.5 -58.5q53 0 105.5 29.5t85.5 76.5l299 -98q-78 -115 -201 -190.5t-278 -89.5l-52 -62q25 6 58 6q59 0 103 -28.5t44 -94.5q0 -45 -20.5 -84.5t-60.5 -70.5t-100 -49.5t-142 -18.5 q-68 0 -120 13.5t-87 29.5z" />
<glyph unicode="&#xe8;" horiz-adv-x="1142" d="M475 -20q-104 0 -188 33.5t-142.5 93t-89 143.5t-30.5 184q0 135 53 256t147 211t220 142.5t272 52.5q186 0 291.5 -80t105.5 -228q0 -176 -159.5 -266t-479.5 -90h-54.5t-55.5 2q0 -109 38.5 -164t131.5 -55q74 0 136 35t101 96l258 -82q-43 -63 -104.5 -115.5 t-134 -90.5t-153.5 -58t-163 -20zM664 860q-92 0 -159 -63.5t-104 -161.5h74q180 0 252 30.5t72 94.5q0 47 -38 73.5t-97 26.5zM541 1495h295l45 -266l-228 -33z" />
<glyph unicode="&#xe9;" horiz-adv-x="1142" d="M788 1200l-217 29l158 266h295zM475 -20q-104 0 -188 33.5t-142.5 93t-89 143.5t-30.5 184q0 135 53 256t147 211t220 142.5t272 52.5q186 0 291.5 -80t105.5 -228q0 -176 -159.5 -266t-479.5 -90h-54.5t-55.5 2q0 -109 38.5 -164t131.5 -55q74 0 136 35t101 96l258 -82 q-43 -63 -104.5 -115.5t-134 -90.5t-153.5 -58t-163 -20zM664 860q-92 0 -159 -63.5t-104 -161.5h74q180 0 252 30.5t72 94.5q0 47 -38 73.5t-97 26.5z" />
<glyph unicode="&#xea;" horiz-adv-x="1142" d="M428 1274l262 221h234l168 -221l-183 -74l-137 129l-192 -129zM475 -20q-104 0 -188 33.5t-142.5 93t-89 143.5t-30.5 184q0 135 53 256t147 211t220 142.5t272 52.5q186 0 291.5 -80t105.5 -228q0 -176 -159.5 -266t-479.5 -90h-54.5t-55.5 2q0 -109 38.5 -164 t131.5 -55q74 0 136 35t101 96l258 -82q-43 -63 -104.5 -115.5t-134 -90.5t-153.5 -58t-163 -20zM664 860q-92 0 -159 -63.5t-104 -161.5h74q180 0 252 30.5t72 94.5q0 47 -38 73.5t-97 26.5z" />
<glyph unicode="&#xeb;" horiz-adv-x="1142" d="M395 1214l58 265h270l-57 -265h-271zM815 1214l57 265h269l-56 -265h-270zM475 -20q-104 0 -188 33.5t-142.5 93t-89 143.5t-30.5 184q0 135 53 256t147 211t220 142.5t272 52.5q186 0 291.5 -80t105.5 -228q0 -176 -159.5 -266t-479.5 -90h-54.5t-55.5 2 q0 -109 38.5 -164t131.5 -55q74 0 136 35t101 96l258 -82q-43 -63 -104.5 -115.5t-134 -90.5t-153.5 -58t-163 -20zM664 860q-92 0 -159 -63.5t-104 -161.5h74q180 0 252 30.5t72 94.5q0 47 -38 73.5t-97 26.5z" />
<glyph unicode="&#xec;" horiz-adv-x="548" d="M209 1075h328l-230 -1075h-327zM201 1495h295l45 -266l-228 -33z" />
<glyph unicode="&#xed;" horiz-adv-x="548" d="M467 1200l-217 29l158 266h294zM209 1075h328l-230 -1075h-327z" />
<glyph unicode="&#xee;" horiz-adv-x="548" d="M94 1274l262 221h234l168 -221l-183 -74l-137 129l-192 -129zM209 1075h328l-230 -1075h-327z" />
<glyph unicode="&#xef;" horiz-adv-x="548" d="M55 1214l58 265h270l-57 -265h-271zM475 1214l57 265h269l-56 -265h-270zM209 1075h328l-230 -1075h-327z" />
<glyph unicode="&#xf0;" horiz-adv-x="1222" d="M1214 1333l-157 -78q59 -106 89 -231t30 -252q0 -180 -53.5 -326.5t-147.5 -250t-224 -159.5t-282 -56q-104 0 -187 30.5t-142.5 85t-91.5 130t-32 165.5q0 117 49.5 221.5t130 183t185 125t217.5 46.5q86 0 157.5 -36t112.5 -95q-2 35 -5 67.5t-9 63.5q-10 47 -26.5 91 t-39.5 85l-172 -86l-65 125l160 80q-51 61 -120 118.5t-159 114.5h404q41 -23 75.5 -54.5t65.5 -68.5l172 86zM358 434q0 -78 46.5 -128t125.5 -50q55 0 104.5 21.5t85.5 58.5t57.5 87t21.5 105q0 78 -45 127.5t-127 49.5q-55 0 -104.5 -20.5t-85.5 -57.5t-57.5 -86.5 t-21.5 -106.5z" />
<glyph unicode="&#xf1;" d="M209 1075h295l-39 -180q76 96 188.5 148.5t247.5 52.5q72 0 118 -20.5t73.5 -54.5t39 -79t11.5 -94q0 -41 -5 -81t-14 -79l-145 -688h-328l129 604q8 41 8 82q0 63 -26.5 92t-71.5 29q-59 0 -133 -53.5t-119 -137.5l-131 -616h-327zM854 1204q-45 0 -75.5 14.5t-56.5 33 t-50.5 32.5t-57.5 14t-54 -14t-33.5 -32.5t-17.5 -34t-5 -17.5h-178q4 23 27.5 71t64.5 97t97 86t126 37q47 0 78 -15.5t55.5 -34t48 -33.5t58.5 -15q33 0 56.5 15t37.5 33.5t21.5 35t7.5 18.5h174q-4 -16 -28 -63.5t-66 -98.5t-100 -90t-130 -39z" />
<glyph unicode="&#xf2;" d="M469 -20q-113 0 -197 35.5t-139 97t-82.5 142.5t-27.5 173q0 127 49 247t139 214t216 150.5t280 56.5q111 0 194.5 -36t140 -97.5t84 -142.5t27.5 -173q0 -127 -49 -246.5t-139.5 -213t-216 -150.5t-279.5 -57zM528 256q55 0 106.5 26.5t90.5 75t62.5 111.5t23.5 137 q0 96 -44 153.5t-120 57.5q-55 0 -106.5 -26.5t-90 -74.5t-62 -111.5t-23.5 -137.5q0 -96 43.5 -153.5t119.5 -57.5zM557 1495h295l45 -266l-227 -33z" />
<glyph unicode="&#xf3;" d="M809 1200l-217 29l158 266h294zM469 -20q-113 0 -197 35.5t-139 97t-82.5 142.5t-27.5 173q0 127 49 247t139 214t216 150.5t280 56.5q111 0 194.5 -36t140 -97.5t84 -142.5t27.5 -173q0 -127 -49 -246.5t-139.5 -213t-216 -150.5t-279.5 -57zM528 256q55 0 106.5 26.5 t90.5 75t62.5 111.5t23.5 137q0 96 -44 153.5t-120 57.5q-55 0 -106.5 -26.5t-90 -74.5t-62 -111.5t-23.5 -137.5q0 -96 43.5 -153.5t119.5 -57.5z" />
<glyph unicode="&#xf4;" d="M428 1274l262 221h234l168 -221l-183 -74l-137 129l-192 -129zM469 -20q-113 0 -197 35.5t-139 97t-82.5 142.5t-27.5 173q0 127 49 247t139 214t216 150.5t280 56.5q111 0 194.5 -36t140 -97.5t84 -142.5t27.5 -173q0 -127 -49 -246.5t-139.5 -213t-216 -150.5 t-279.5 -57zM528 256q55 0 106.5 26.5t90.5 75t62.5 111.5t23.5 137q0 96 -44 153.5t-120 57.5q-55 0 -106.5 -26.5t-90 -74.5t-62 -111.5t-23.5 -137.5q0 -96 43.5 -153.5t119.5 -57.5z" />
<glyph unicode="&#xf5;" d="M469 -20q-113 0 -197 35.5t-139 97t-82.5 142.5t-27.5 173q0 127 49 247t139 214t216 150.5t280 56.5q111 0 194.5 -36t140 -97.5t84 -142.5t27.5 -173q0 -127 -49 -246.5t-139.5 -213t-216 -150.5t-279.5 -57zM528 256q55 0 106.5 26.5t90.5 75t62.5 111.5t23.5 137 q0 96 -44 153.5t-120 57.5q-55 0 -106.5 -26.5t-90 -74.5t-62 -111.5t-23.5 -137.5q0 -96 43.5 -153.5t119.5 -57.5zM864 1204q-45 0 -75.5 14.5t-56 33t-50.5 32.5t-57 14q-33 0 -54.5 -14t-34 -32.5t-17.5 -34t-5 -17.5h-178q4 23 27.5 71t64.5 97t97.5 86t125.5 37 q47 0 78 -15.5t55.5 -34t48 -33.5t58.5 -15q33 0 56.5 15t37.5 33.5t21.5 35t7.5 18.5h174q-4 -16 -27.5 -63.5t-65.5 -98.5t-100.5 -90t-130.5 -39z" />
<glyph unicode="&#xf6;" d="M397 1214l58 265h270l-57 -265h-271zM817 1214l57 265h269l-56 -265h-270zM469 -20q-113 0 -197 35.5t-139 97t-82.5 142.5t-27.5 173q0 127 49 247t139 214t216 150.5t280 56.5q111 0 194.5 -36t140 -97.5t84 -142.5t27.5 -173q0 -127 -49 -246.5t-139.5 -213 t-216 -150.5t-279.5 -57zM528 256q55 0 106.5 26.5t90.5 75t62.5 111.5t23.5 137q0 96 -44 153.5t-120 57.5q-55 0 -106.5 -26.5t-90 -74.5t-62 -111.5t-23.5 -137.5q0 -96 43.5 -153.5t119.5 -57.5z" />
<glyph unicode="&#xf7;" horiz-adv-x="1050" d="M389 872v293h277v-293h-277zM389 78v293h277v-293h-277zM113 492v260h827v-260h-827z" />
<glyph unicode="&#xf8;" d="M104 150q-41 57 -61 128.5t-20 149.5q0 127 49 247t139 214t216 150.5t280 56.5q86 0 152.5 -21.5t119.5 -58.5l74 69h178l-164 -153q43 -59 64.5 -132t21.5 -153q0 -127 -49 -246.5t-139.5 -213t-216 -150.5t-279.5 -57q-88 0 -157.5 21.5t-123.5 61.5l-79 -73h-177z M528 256q55 0 106.5 26.5t91.5 75t63.5 111.5t23.5 137q0 41 -10 78l-381 -387q45 -41 106 -41zM365 467q0 -37 6 -70l374 383q-41 37 -98 37q-55 0 -106.5 -26.5t-90 -74.5t-62 -111.5t-23.5 -137.5z" />
<glyph unicode="&#xf9;" horiz-adv-x="1241" d="M285 -20q-125 0 -188.5 65.5t-63.5 192.5q0 66 18 149l148 688h325l-131 -616q-10 -51 -10 -80q0 -123 102 -123q55 0 118 35t126 121l141 663h328l-149 -706q-6 -29 -7 -43q0 -47 54 -50l-60 -276q-45 -10 -78.5 -13t-60.5 -3q-78 0 -127 30.5t-49 100.5q0 12 3 27.5 t7 43.5q-92 -106 -204.5 -156t-241.5 -50zM528 1495h295l45 -266l-227 -33z" />
<glyph unicode="&#xfa;" horiz-adv-x="1241" d="M774 1200l-217 29l158 266h295zM285 -20q-125 0 -188.5 65.5t-63.5 192.5q0 66 18 149l148 688h325l-131 -616q-10 -51 -10 -80q0 -123 102 -123q55 0 118 35t126 121l141 663h328l-149 -706q-6 -29 -7 -43q0 -47 54 -50l-60 -276q-45 -10 -78.5 -13t-60.5 -3 q-78 0 -127 30.5t-49 100.5q0 12 3 27.5t7 43.5q-92 -106 -204.5 -156t-241.5 -50z" />
<glyph unicode="&#xfb;" horiz-adv-x="1241" d="M416 1274l262 221h233l168 -221l-182 -74l-137 129l-193 -129zM285 -20q-125 0 -188.5 65.5t-63.5 192.5q0 66 18 149l148 688h325l-131 -616q-10 -51 -10 -80q0 -123 102 -123q55 0 118 35t126 121l141 663h328l-149 -706q-6 -29 -7 -43q0 -47 54 -50l-60 -276 q-45 -10 -78.5 -13t-60.5 -3q-78 0 -127 30.5t-49 100.5q0 12 3 27.5t7 43.5q-92 -106 -204.5 -156t-241.5 -50z" />
<glyph unicode="&#xfc;" horiz-adv-x="1241" d="M371 1214l57 265h270l-57 -265h-270zM791 1214l57 265h268l-55 -265h-270zM285 -20q-125 0 -188.5 65.5t-63.5 192.5q0 66 18 149l148 688h325l-131 -616q-10 -51 -10 -80q0 -123 102 -123q55 0 118 35t126 121l141 663h328l-149 -706q-6 -29 -7 -43q0 -47 54 -50 l-60 -276q-45 -10 -78.5 -13t-60.5 -3q-78 0 -127 30.5t-49 100.5q0 12 3 27.5t7 43.5q-92 -106 -204.5 -156t-241.5 -50z" />
<glyph unicode="&#xfd;" horiz-adv-x="1087" d="M-102 -227q61 2 104 9t76 21.5t59.5 38t55.5 60.5l59 75l-160 1098h334l59 -794l70 114q104 168 167.5 331t104.5 349h316q-29 -98 -59.5 -184t-78 -183.5t-116 -215t-168.5 -281.5l-164 -264q-72 -117 -141.5 -197t-143 -129t-155.5 -71.5t-180 -22.5zM715 1200l-217 29 l157 266h295z" />
<glyph unicode="&#xfe;" horiz-adv-x="1179" d="M287 1454h338q-23 -102 -40.5 -181t-27.5 -132q-14 -63 -22 -111q27 35 73.5 56.5t118.5 21.5q98 0 173 -38t125 -100.5t75.5 -143.5t25.5 -167q0 -121 -47 -246.5t-133 -230t-203.5 -171t-259.5 -66.5q-84 0 -119.5 23.5t-46.5 47.5q-12 -59 -26 -129 q-12 -59 -29.5 -142t-38.5 -181h-338zM532 238q59 0 106.5 31.5t81.5 82.5t51 117t17 135q0 94 -34.5 152.5t-106.5 58.5q-57 0 -102 -38t-86 -97l-68 -318q0 -4 -1 -7t-1 -9q0 -16 9.5 -34.5t26.5 -35t43.5 -27.5t63.5 -11z" />
<glyph unicode="&#xff;" horiz-adv-x="1087" d="M-102 -227q61 2 104 9t76 21.5t59.5 38t55.5 60.5l59 75l-160 1098h334l59 -794l70 114q104 168 167.5 331t104.5 349h316q-29 -98 -59.5 -184t-78 -183.5t-116 -215t-168.5 -281.5l-164 -264q-72 -117 -141.5 -197t-143 -129t-155.5 -71.5t-180 -22.5zM317 1214l58 265 h270l-57 -265h-271zM737 1214l58 265h268l-55 -265h-271z" />
<glyph unicode="&#x100;" horiz-adv-x="1312" d="M690 1454h305l189 -1454h-344l-31 326h-414l-166 -326h-346zM803 557l-41 514l-266 -514h307zM580 1651l41 198h596l-43 -198h-594z" />
<glyph unicode="&#x101;" horiz-adv-x="1298" d="M403 -20q-90 0 -160.5 32.5t-119.5 91t-74.5 138.5t-25.5 174q0 135 48 259t128 217t186.5 148.5t222.5 55.5q104 0 178 -53.5t103 -143.5l37 170h329l-151 -700q-2 -14 -3 -23.5t-1 -19.5q0 -47 51 -50l-57 -276q-47 -10 -81 -13t-59 -3q-80 0 -127 31.5t-47 105.5 q0 20 6 57q-76 -100 -177.5 -149t-205.5 -49zM551 256q61 0 124.5 40t110.5 110l48 225q-10 82 -61.5 134t-117.5 52q-55 0 -107 -29.5t-92 -77.5t-63.5 -110.5t-23.5 -130.5q0 -92 48 -152.5t134 -60.5zM393 1270l41 198h596l-43 -198h-594z" />
<glyph unicode="&#x102;" horiz-adv-x="1312" d="M690 1454h305l189 -1454h-344l-31 326h-414l-166 -326h-346zM803 557l-41 514l-266 -514h307zM877 1718q43 0 85 44t64 114h172q-14 -66 -47 -121t-80 -95t-104.5 -62.5t-120.5 -22.5q-111 0 -173.5 61.5t-62.5 163.5q0 18 3 36.5t8 39.5h172q-6 -23 -7 -43q0 -49 25 -82 t66 -33z" />
<glyph unicode="&#x103;" horiz-adv-x="1298" d="M403 -20q-90 0 -160.5 32.5t-119.5 91t-74.5 138.5t-25.5 174q0 135 48 259t128 217t186.5 148.5t222.5 55.5q104 0 178 -53.5t103 -143.5l37 170h329l-151 -700q-2 -14 -3 -23.5t-1 -19.5q0 -47 51 -50l-57 -276q-47 -10 -81 -13t-59 -3q-80 0 -127 31.5t-47 105.5 q0 20 6 57q-76 -100 -177.5 -149t-205.5 -49zM551 256q61 0 124.5 40t110.5 110l48 225q-10 82 -61.5 134t-117.5 52q-55 0 -107 -29.5t-92 -77.5t-63.5 -110.5t-23.5 -130.5q0 -92 48 -152.5t134 -60.5zM686 1337q43 0 85 44t65 114h172q-14 -66 -47 -121t-80 -95 t-104.5 -62.5t-121.5 -22.5q-111 0 -173 61.5t-62 163.5q0 18 3 37t7 39h172q-6 -23 -6 -43q0 -49 24.5 -82t65.5 -33z" />
<glyph unicode="&#x104;" horiz-adv-x="1312" d="M1016 -420q-117 16 -173.5 62.5t-56.5 105.5q0 131 218 252h-164l-31 326h-414l-166 -326h-346l807 1454h305l189 -1454q-182 -104 -183 -180q0 -29 28 -47.5t87 -20.5zM803 557l-41 514l-266 -514h307z" />
<glyph unicode="&#x105;" horiz-adv-x="1298" d="M926 -420q-117 16 -173.5 62.5t-56.5 105.5q0 125 199 242q-53 10 -84 40.5t-31 90.5q0 20 6 57q-76 -100 -177 -149t-206 -49q-90 0 -160.5 32.5t-119.5 91t-74.5 138.5t-25.5 174q0 135 48 259t128 217t186.5 148.5t222.5 55.5q104 0 178 -53.5t103 -143.5l37 170h329 l-151 -700q-2 -14 -3 -23.5t-1 -19.5q0 -47 51 -50l-57 -276q-182 -104 -183 -180q0 -29 28 -47.5t87 -20.5zM551 256q61 0 124.5 40t110.5 110l48 225q-10 82 -61.5 134t-117.5 52q-55 0 -107 -29.5t-92 -77.5t-63.5 -110.5t-23.5 -130.5q0 -92 48 -152.5t134 -60.5z" />
<glyph unicode="&#x106;" horiz-adv-x="1353" d="M1051 1581l-217 29l157 266h295zM608 -12q-129 0 -229 52t-170 139t-105.5 198.5t-35.5 230.5q0 100 29.5 202.5t84 198t132 177.5t174 143.5t209 97t237.5 35.5q197 0 321.5 -88t165.5 -229l-297 -180q-10 57 -35.5 95t-62.5 61.5t-80 32.5t-84 9q-106 0 -190 -50 t-142.5 -129t-89 -173t-30.5 -182q0 -70 17 -131.5t51 -108.5t85 -74.5t117 -27.5q43 0 89 11t92 34.5t88 61.5t73 93l242 -161q-49 -80 -125 -143.5t-165 -106.5t-184.5 -65.5t-181.5 -22.5z" />
<glyph unicode="&#x107;" horiz-adv-x="1122" d="M784 1200l-217 29l158 266h295zM471 -20q-113 0 -197 35.5t-140 98t-83.5 144.5t-27.5 174q0 125 50 245t140 213t216 149.5t278 56.5q180 0 284.5 -79t138.5 -206l-337 -96q-39 102 -148 102q-53 0 -104.5 -26.5t-91 -72.5t-63.5 -109.5t-24 -139.5q0 -96 45.5 -154.5 t118.5 -58.5q53 0 105.5 29.5t85.5 76.5l299 -98q-86 -125 -225.5 -204.5t-319.5 -79.5z" />
<glyph unicode="&#x108;" horiz-adv-x="1353" d="M647 1655l262 221h234l168 -221l-183 -74l-137 129l-192 -129zM608 -12q-129 0 -229 52t-170 139t-105.5 198.5t-35.5 230.5q0 100 29.5 202.5t84 198t132 177.5t174 143.5t209 97t237.5 35.5q197 0 321.5 -88t165.5 -229l-297 -180q-10 57 -35.5 95t-62.5 61.5t-80 32.5 t-84 9q-106 0 -190 -50t-142.5 -129t-89 -173t-30.5 -182q0 -70 17 -131.5t51 -108.5t85 -74.5t117 -27.5q43 0 89 11t92 34.5t88 61.5t73 93l242 -161q-49 -80 -125 -143.5t-165 -106.5t-184.5 -65.5t-181.5 -22.5z" />
<glyph unicode="&#x109;" horiz-adv-x="1122" d="M422 1274l262 221h234l167 -221l-182 -74l-137 129l-193 -129zM471 -20q-113 0 -197 35.5t-140 98t-83.5 144.5t-27.5 174q0 125 50 245t140 213t216 149.5t278 56.5q180 0 284.5 -79t138.5 -206l-337 -96q-39 102 -148 102q-53 0 -104.5 -26.5t-91 -72.5t-63.5 -109.5 t-24 -139.5q0 -96 45.5 -154.5t118.5 -58.5q53 0 105.5 29.5t85.5 76.5l299 -98q-86 -125 -225.5 -204.5t-319.5 -79.5z" />
<glyph unicode="&#x10a;" horiz-adv-x="1353" d="M608 -12q-129 0 -229 52t-170 139t-105.5 198.5t-35.5 230.5q0 100 29.5 202.5t84 198t132 177.5t174 143.5t209 97t237.5 35.5q197 0 321.5 -88t165.5 -229l-297 -180q-10 57 -35.5 95t-62.5 61.5t-80 32.5t-84 9q-106 0 -190 -50t-142.5 -129t-89 -173t-30.5 -182 q0 -70 17 -131.5t51 -108.5t85 -74.5t117 -27.5q43 0 89 11t92 34.5t88 61.5t73 93l242 -161q-49 -80 -125 -143.5t-165 -106.5t-184.5 -65.5t-181.5 -22.5zM821 1595l60 281h295l-60 -281h-295z" />
<glyph unicode="&#x10b;" horiz-adv-x="1122" d="M471 -20q-113 0 -197 35.5t-140 98t-83.5 144.5t-27.5 174q0 125 50 245t140 213t216 149.5t278 56.5q180 0 284.5 -79t138.5 -206l-337 -96q-39 102 -148 102q-53 0 -104.5 -26.5t-91 -72.5t-63.5 -109.5t-24 -139.5q0 -96 45.5 -154.5t118.5 -58.5q53 0 105.5 29.5 t85.5 76.5l299 -98q-86 -125 -225.5 -204.5t-319.5 -79.5zM584 1214l59 281h295l-59 -281h-295z" />
<glyph unicode="&#x10c;" horiz-adv-x="1353" d="M672 1800l182 76l137 -129l193 129l153 -76l-262 -219h-235zM608 -12q-129 0 -229 52t-170 139t-105.5 198.5t-35.5 230.5q0 100 29.5 202.5t84 198t132 177.5t174 143.5t209 97t237.5 35.5q197 0 321.5 -88t165.5 -229l-297 -180q-10 57 -35.5 95t-62.5 61.5t-80 32.5 t-84 9q-106 0 -190 -50t-142.5 -129t-89 -173t-30.5 -182q0 -70 17 -131.5t51 -108.5t85 -74.5t117 -27.5q43 0 89 11t92 34.5t88 61.5t73 93l242 -161q-49 -80 -125 -143.5t-165 -106.5t-184.5 -65.5t-181.5 -22.5z" />
<glyph unicode="&#x10d;" horiz-adv-x="1122" d="M438 1419l183 76l137 -129l192 129l154 -76l-262 -219h-236zM471 -20q-113 0 -197 35.5t-140 98t-83.5 144.5t-27.5 174q0 125 50 245t140 213t216 149.5t278 56.5q180 0 284.5 -79t138.5 -206l-337 -96q-39 102 -148 102q-53 0 -104.5 -26.5t-91 -72.5t-63.5 -109.5 t-24 -139.5q0 -96 45.5 -154.5t118.5 -58.5q53 0 105.5 29.5t85.5 76.5l299 -98q-86 -125 -225.5 -204.5t-319.5 -79.5z" />
<glyph unicode="&#x10e;" horiz-adv-x="1419" d="M549 1800l182 76l137 -129l193 129l153 -76l-262 -219h-235zM317 1454h521q141 0 246.5 -44t174 -120t102.5 -179t34 -222q0 -193 -65.5 -355.5t-182.5 -281.5t-275.5 -185.5t-343.5 -66.5h-520zM590 295q102 0 186 44t144.5 120t93.5 174t33 207q0 143 -69 231t-204 88 h-184l-184 -864h184z" />
<glyph unicode="&#x10f;" horiz-adv-x="1298" d="M1372 1229l158 266h295l-256 -324zM403 -20q-90 0 -160.5 32.5t-119.5 91t-74.5 138.5t-25.5 174q0 135 48 259t128 217t186.5 148.5t222.5 55.5q104 0 178 -53.5t103 -143.5l127 596h330l-242 -1126q-2 -14 -3 -23.5t-1 -19.5q0 -47 51 -50l-57 -276q-47 -10 -81 -13 t-59 -3q-78 0 -127 30.5t-49 100.5q0 25 8 63q-76 -100 -177.5 -149t-205.5 -49zM551 256q61 0 124.5 40t110.5 110l48 225q-10 82 -61.5 134t-117.5 52q-55 0 -107 -29.5t-92 -77.5t-63.5 -110.5t-23.5 -130.5q0 -92 48 -152.5t134 -60.5z" />
<glyph unicode="&#x110;" horiz-adv-x="1427" d="M117 852h80l129 602h520q141 0 246.5 -44t174 -120t102.5 -179t34 -222q0 -193 -65.5 -355.5t-182.5 -281.5t-275.5 -185.5t-342.5 -66.5h-521l129 610h-79zM598 295q102 0 187 44t145.5 120t93.5 174t33 207q0 143 -68.5 231t-204.5 88h-184l-68 -307h244l-53 -242h-242 l-67 -315h184z" />
<glyph unicode="&#x111;" horiz-adv-x="1298" d="M838 1391h155l23 104h330l-23 -104h137l-41 -193h-137l-178 -829q-2 -14 -3 -23.5t-1 -19.5q0 -47 51 -50l-57 -276q-47 -10 -81 -13t-59 -3q-172 0 -172 133v25.5t4 35.5q-76 -100 -177 -149t-206 -49q-90 0 -160.5 32.5t-119.5 91t-74.5 138.5t-25.5 174q0 135 48 259 t128 217t186.5 148.5t222.5 55.5q104 0 178 -53.5t103 -143.5l63 299h-155zM551 256q61 0 124.5 40t110.5 110l48 225q-10 82 -61.5 134t-117.5 52q-55 0 -107 -29.5t-92 -77.5t-63.5 -110.5t-23.5 -130.5q0 -92 48 -152.5t134 -60.5z" />
<glyph unicode="&#x112;" horiz-adv-x="1179" d="M317 1454h957l-64 -295h-620l-60 -282h533l-57 -273h-533l-67 -309h638l-61 -295h-975zM537 1651l41 198h596l-44 -198h-593z" />
<glyph unicode="&#x113;" horiz-adv-x="1142" d="M475 -20q-104 0 -188 33.5t-142.5 93t-89 143.5t-30.5 184q0 135 53 256t147 211t220 142.5t272 52.5q186 0 291.5 -80t105.5 -228q0 -176 -159.5 -266t-479.5 -90h-54.5t-55.5 2q0 -109 38.5 -164t131.5 -55q74 0 136 35t101 96l258 -82q-43 -63 -104.5 -115.5 t-134 -90.5t-153.5 -58t-163 -20zM664 860q-92 0 -159 -63.5t-104 -161.5h74q180 0 252 30.5t72 94.5q0 47 -38 73.5t-97 26.5zM446 1270l41 198h596l-43 -198h-594z" />
<glyph unicode="&#x114;" horiz-adv-x="1179" d="M317 1454h957l-64 -295h-620l-60 -282h533l-57 -273h-533l-67 -309h638l-61 -295h-975zM829 1718q43 0 85 44t65 114h172q-14 -66 -47 -121t-80 -95t-104.5 -62.5t-120.5 -22.5q-111 0 -173.5 61.5t-62.5 163.5q0 18 3 36.5t7 39.5h172q-6 -23 -6 -43q0 -49 24.5 -82 t65.5 -33z" />
<glyph unicode="&#x115;" horiz-adv-x="1142" d="M475 -20q-104 0 -188 33.5t-142.5 93t-89 143.5t-30.5 184q0 135 53 256t147 211t220 142.5t272 52.5q186 0 291.5 -80t105.5 -228q0 -176 -159.5 -266t-479.5 -90h-54.5t-55.5 2q0 -109 38.5 -164t131.5 -55q74 0 136 35t101 96l258 -82q-43 -63 -104.5 -115.5 t-134 -90.5t-153.5 -58t-163 -20zM664 860q-92 0 -159 -63.5t-104 -161.5h74q180 0 252 30.5t72 94.5q0 47 -38 73.5t-97 26.5zM748 1337q43 0 84.5 44t64.5 114h172q-14 -66 -47 -121t-80 -95t-104.5 -62.5t-120.5 -22.5q-111 0 -173.5 61.5t-62.5 163.5q0 18 3 37t8 39 h172q-6 -23 -7 -43q0 -49 25 -82t66 -33z" />
<glyph unicode="&#x116;" horiz-adv-x="1179" d="M317 1454h957l-64 -295h-620l-60 -282h533l-57 -273h-533l-67 -309h638l-61 -295h-975zM672 1595l59 281h295l-59 -281h-295z" />
<glyph unicode="&#x117;" horiz-adv-x="1142" d="M475 -20q-104 0 -188 33.5t-142.5 93t-89 143.5t-30.5 184q0 135 53 256t147 211t220 142.5t272 52.5q186 0 291.5 -80t105.5 -228q0 -176 -159.5 -266t-479.5 -90h-54.5t-55.5 2q0 -109 38.5 -164t131.5 -55q74 0 136 35t101 96l258 -82q-43 -63 -104.5 -115.5 t-134 -90.5t-153.5 -58t-163 -20zM664 860q-92 0 -159 -63.5t-104 -161.5h74q180 0 252 30.5t72 94.5q0 47 -38 73.5t-97 26.5zM590 1214l59 281h295l-59 -281h-295z" />
<glyph unicode="&#x118;" horiz-adv-x="1179" d="M317 1454h957l-64 -295h-620l-60 -282h533l-57 -273h-533l-67 -309h638l-61 -295h-385q-178 -102 -178 -178q0 -29 27.5 -47.5t87.5 -20.5l-101 -172q-117 16 -173 62.5t-56 105.5q0 61 53 126t162 124h-412z" />
<glyph unicode="&#x119;" horiz-adv-x="1142" d="M428 -428q-117 16 -173 62.5t-56 105.5q0 125 204 244q-178 23 -278 143.5t-100 306.5q0 135 53 256t147 211t220 142.5t272 52.5q186 0 291.5 -80t105.5 -228q0 -176 -159.5 -266t-479.5 -90h-54.5t-55.5 2q0 -109 38.5 -164t131.5 -55q74 0 136 35t101 96l258 -82 q-72 -104 -187.5 -177t-248.5 -95q-180 -104 -180 -180q0 -29 27.5 -47.5t86.5 -20.5zM664 860q-92 0 -159 -63.5t-104 -161.5h74q180 0 252 30.5t72 94.5q0 47 -38 73.5t-97 26.5z" />
<glyph unicode="&#x11a;" horiz-adv-x="1179" d="M520 1800l182 76l138 -129l192 129l154 -76l-262 -219h-236zM317 1454h957l-64 -295h-620l-60 -282h533l-57 -273h-533l-67 -309h638l-61 -295h-975z" />
<glyph unicode="&#x11b;" horiz-adv-x="1142" d="M438 1419l183 76l137 -129l192 129l154 -76l-262 -219h-236zM475 -20q-104 0 -188 33.5t-142.5 93t-89 143.5t-30.5 184q0 135 53 256t147 211t220 142.5t272 52.5q186 0 291.5 -80t105.5 -228q0 -176 -159.5 -266t-479.5 -90h-54.5t-55.5 2q0 -109 38.5 -164t131.5 -55 q74 0 136 35t101 96l258 -82q-43 -63 -104.5 -115.5t-134 -90.5t-153.5 -58t-163 -20zM664 860q-92 0 -159 -63.5t-104 -161.5h74q180 0 252 30.5t72 94.5q0 47 -38 73.5t-97 26.5z" />
<glyph unicode="&#x11c;" horiz-adv-x="1441" d="M645 1655l262 221h234l168 -221l-183 -74l-137 129l-192 -129zM985 143q-98 -78 -191.5 -115.5t-197.5 -37.5q-117 0 -213 43t-167 120.5t-109.5 187.5t-38.5 243q0 180 72.5 340.5t194.5 280.5t278.5 189.5t324.5 69.5q190 0 318 -85t169 -232l-288 -189 q-27 98 -101.5 152.5t-173.5 54.5q-90 0 -171 -44t-142.5 -118.5t-98 -173t-36.5 -206.5q0 -72 18.5 -133.5t54 -106.5t86 -69.5t115.5 -24.5q182 0 367 180l10 47h-264l51 244h543l-162 -760h-279z" />
<glyph unicode="&#x11d;" horiz-adv-x="1265" d="M401 1274l263 221h233l168 -221l-182 -74l-138 129l-192 -129zM328 -457q-166 0 -272.5 55.5t-172.5 159.5l213 179q41 -68 116 -108t167 -40q55 0 108.5 16.5t98.5 50t77.5 88t49.5 130.5l20 104q-63 -90 -160.5 -136t-197.5 -46q-84 0 -148.5 32.5t-109.5 90 t-68.5 134.5t-23.5 167q0 137 49 260t133 215t194.5 146.5t233.5 54.5q113 0 187.5 -52.5t107.5 -144.5l39 176h284l-213 -1001q-27 -123 -91 -221.5t-157.5 -167t-212 -105.5t-251.5 -37zM547 256q66 0 127 42t108 108l49 225q-12 86 -63 136t-117 50q-55 0 -107 -30.5 t-91 -80t-62.5 -112t-23.5 -125.5q0 -92 48 -152.5t132 -60.5z" />
<glyph unicode="&#x11e;" horiz-adv-x="1441" d="M985 143q-98 -78 -191.5 -115.5t-197.5 -37.5q-117 0 -213 43t-167 120.5t-109.5 187.5t-38.5 243q0 180 72.5 340.5t194.5 280.5t278.5 189.5t324.5 69.5q190 0 318 -85t169 -232l-288 -189q-27 98 -101.5 152.5t-173.5 54.5q-90 0 -171 -44t-142.5 -118.5t-98 -173 t-36.5 -206.5q0 -72 18.5 -133.5t54 -106.5t86 -69.5t115.5 -24.5q182 0 367 180l10 47h-264l51 244h543l-162 -760h-279zM977 1718q43 0 85 44t64 114h172q-14 -66 -46.5 -121t-80 -95t-104.5 -62.5t-121 -22.5q-111 0 -173 61.5t-62 163.5q0 18 3 36.5t7 39.5h172 q-6 -23 -6 -43q0 -49 24.5 -82t65.5 -33z" />
<glyph unicode="&#x11f;" horiz-adv-x="1265" d="M328 -457q-166 0 -272.5 55.5t-172.5 159.5l213 179q41 -68 116 -108t167 -40q55 0 108.5 16.5t98.5 50t77.5 88t49.5 130.5l20 104q-63 -90 -160.5 -136t-197.5 -46q-84 0 -148.5 32.5t-109.5 90t-68.5 134.5t-23.5 167q0 137 49 260t133 215t194.5 146.5t233.5 54.5 q113 0 187.5 -52.5t107.5 -144.5l39 176h284l-213 -1001q-27 -123 -91 -221.5t-157.5 -167t-212 -105.5t-251.5 -37zM547 256q66 0 127 42t108 108l49 225q-12 86 -63 136t-117 50q-55 0 -107 -30.5t-91 -80t-62.5 -112t-23.5 -125.5q0 -92 48 -152.5t132 -60.5zM733 1337 q43 0 85 44t65 114h172q-14 -66 -47 -121t-80 -95t-104.5 -62.5t-121.5 -22.5q-111 0 -173 61.5t-62 163.5q0 18 3 37t7 39h172q-6 -23 -6 -43q0 -49 24.5 -82t65.5 -33z" />
<glyph unicode="&#x120;" horiz-adv-x="1441" d="M985 143q-98 -78 -191.5 -115.5t-197.5 -37.5q-117 0 -213 43t-167 120.5t-109.5 187.5t-38.5 243q0 180 72.5 340.5t194.5 280.5t278.5 189.5t324.5 69.5q190 0 318 -85t169 -232l-288 -189q-27 98 -101.5 152.5t-173.5 54.5q-90 0 -171 -44t-142.5 -118.5t-98 -173 t-36.5 -206.5q0 -72 18.5 -133.5t54 -106.5t86 -69.5t115.5 -24.5q182 0 367 180l10 47h-264l51 244h543l-162 -760h-279zM819 1595l60 281h295l-60 -281h-295z" />
<glyph unicode="&#x121;" horiz-adv-x="1265" d="M328 -457q-166 0 -272.5 55.5t-172.5 159.5l213 179q41 -68 116 -108t167 -40q55 0 108.5 16.5t98.5 50t77.5 88t49.5 130.5l20 104q-63 -90 -160.5 -136t-197.5 -46q-84 0 -148.5 32.5t-109.5 90t-68.5 134.5t-23.5 167q0 137 49 260t133 215t194.5 146.5t233.5 54.5 q113 0 187.5 -52.5t107.5 -144.5l39 176h284l-213 -1001q-27 -123 -91 -221.5t-157.5 -167t-212 -105.5t-251.5 -37zM547 256q66 0 127 42t108 108l49 225q-12 86 -63 136t-117 50q-55 0 -107 -30.5t-91 -80t-62.5 -112t-23.5 -125.5q0 -92 48 -152.5t132 -60.5zM573 1214 l60 281h295l-60 -281h-295z" />
<glyph unicode="&#x122;" horiz-adv-x="1441" d="M428 -436l92 137h-96l43 203h272l-43 -203l-125 -137h-143zM985 143q-98 -78 -191.5 -115.5t-197.5 -37.5q-117 0 -213 43t-167 120.5t-109.5 187.5t-38.5 243q0 180 72.5 340.5t194.5 280.5t278.5 189.5t324.5 69.5q190 0 318 -85t169 -232l-288 -189 q-27 98 -101.5 152.5t-173.5 54.5q-90 0 -171 -44t-142.5 -118.5t-98 -173t-36.5 -206.5q0 -72 18.5 -133.5t54 -106.5t86 -69.5t115.5 -24.5q182 0 367 180l10 47h-264l51 244h543l-162 -760h-279z" />
<glyph unicode="&#x123;" horiz-adv-x="1265" d="M883 1526l-92 -137h96l-43 -203h-273l43 203l125 137h144zM328 -457q-166 0 -272.5 55.5t-172.5 159.5l213 179q41 -68 116 -108t167 -40q55 0 108.5 16.5t98.5 50t77.5 88t49.5 130.5l20 104q-63 -90 -160.5 -136t-197.5 -46q-84 0 -148.5 32.5t-109.5 90t-68.5 134.5 t-23.5 167q0 137 49 260t133 215t194.5 146.5t233.5 54.5q113 0 187.5 -52.5t107.5 -144.5l39 176h284l-213 -1001q-27 -123 -91 -221.5t-157.5 -167t-212 -105.5t-251.5 -37zM547 256q66 0 127 42t108 108l49 225q-12 86 -63 136t-117 50q-55 0 -107 -30.5t-91 -80 t-62.5 -112t-23.5 -125.5q0 -92 48 -152.5t132 -60.5z" />
<glyph unicode="&#x124;" horiz-adv-x="1476" d="M627 1655l262 221h233l168 -221l-182 -74l-137 129l-193 -129zM317 1454h336l-121 -563h527l121 563h336l-310 -1454h-336l127 596h-526l-127 -596h-336z" />
<glyph unicode="&#x125;" d="M629 1274l241 219h217l156 -219l-168 -72l-129 127l-178 -127zM297 1495h328l-127 -600q76 96 178 148.5t215 52.5q74 0 122 -20.5t77.5 -54.5t41 -79t11.5 -94q0 -39 -5 -79t-14 -81l-145 -688h-328l129 604q4 23 6 42.5t2 37.5q0 63 -28.5 93t-77.5 30 q-25 0 -57.5 -13.5t-66.5 -39t-65.5 -60.5t-54.5 -78l-131 -616h-327z" />
<glyph unicode="&#x126;" horiz-adv-x="1488" d="M188 1264h97l41 190h336l-41 -190h526l41 190h336l-41 -190h96l-33 -156h-96l-236 -1108h-335l127 596h-527l-127 -596h-336l236 1108h-98zM1067 891l45 217h-526l-45 -217h526z" />
<glyph unicode="&#x127;" d="M166 1391h108l23 104h328l-23 -104h189l-41 -193h-189l-63 -303q76 96 178 148.5t215 52.5q74 0 122 -20.5t77.5 -54.5t41 -79t11.5 -94q0 -39 -5 -79t-14 -81l-145 -688h-328l129 604q4 23 6 42.5t2 37.5q0 63 -28.5 93t-77.5 30q-25 0 -57.5 -13.5t-66.5 -39 t-65.5 -60.5t-54.5 -78l-131 -616h-327l253 1198h-106z" />
<glyph unicode="&#x128;" horiz-adv-x="614" d="M317 1454h336l-309 -1454h-336zM653 1585q-45 0 -75.5 14.5t-56 33t-50.5 32.5t-57 14q-33 0 -54.5 -14t-34 -32.5t-17.5 -34t-5 -17.5h-178q4 23 27.5 71t64.5 97t97.5 86t125.5 37q47 0 78 -15.5t55.5 -34t48 -33.5t58.5 -15q33 0 56.5 15t37.5 33.5t21.5 35t7.5 18.5 h174q-4 -16 -27.5 -63.5t-65.5 -98.5t-100.5 -90t-130.5 -39z" />
<glyph unicode="&#x129;" horiz-adv-x="548" d="M209 1075h328l-230 -1075h-327zM532 1204q-45 0 -75.5 14.5t-56 33t-50 32.5t-57.5 14t-54.5 -14t-33.5 -32.5t-17.5 -34t-5.5 -17.5h-178q4 23 27.5 71t64.5 97t97.5 86t125.5 37q47 0 78 -15.5t55.5 -34t48 -33.5t58.5 -15q33 0 56.5 15t38 33.5t21.5 35t7 18.5h174 q-4 -16 -27.5 -63.5t-65.5 -98.5t-100.5 -90t-130.5 -39z" />
<glyph unicode="&#x12a;" horiz-adv-x="614" d="M317 1454h336l-309 -1454h-336zM231 1651l41 198h596l-43 -198h-594z" />
<glyph unicode="&#x12b;" horiz-adv-x="548" d="M209 1075h328l-230 -1075h-327zM113 1270l41 198h596l-43 -198h-594z" />
<glyph unicode="&#x12c;" horiz-adv-x="614" d="M317 1454h336l-309 -1454h-336zM535 1718q43 0 85 44t64 114h172q-14 -66 -47 -121t-80 -95t-104.5 -62.5t-120.5 -22.5q-111 0 -173.5 61.5t-62.5 163.5q0 18 3 36.5t8 39.5h172q-6 -23 -7 -43q0 -49 25 -82t66 -33z" />
<glyph unicode="&#x12d;" horiz-adv-x="548" d="M209 1075h328l-230 -1075h-327zM410 1337q43 0 85 44t64 114h172q-14 -66 -47 -121t-80 -95t-104.5 -62.5t-120.5 -22.5q-111 0 -173.5 61.5t-62.5 163.5q0 18 3.5 37t7.5 39h172q-6 -23 -7 -43q0 -49 25 -82t66 -33z" />
<glyph unicode="&#x12e;" horiz-adv-x="614" d="M317 1454h336l-309 -1454q-182 -104 -182 -180q0 -29 27.5 -47.5t86.5 -20.5l-100 -172q-117 16 -173 62.5t-56 105.5q0 131 217 252h-156z" />
<glyph unicode="&#x12f;" horiz-adv-x="548" d="M209 1075h328l-230 -1075q-182 -104 -182 -180q0 -29 27.5 -47.5t87.5 -20.5l-101 -172q-117 16 -173 62.5t-56 105.5q0 131 217 252h-147zM297 1495h328l-64 -297h-328z" />
<glyph unicode="&#x130;" horiz-adv-x="614" d="M317 1454h336l-309 -1454h-336zM371 1595l59 281h295l-59 -281h-295z" />
<glyph unicode="&#x131;" horiz-adv-x="548" d="M209 1075h328l-230 -1075h-327z" />
<glyph unicode="&#x132;" horiz-adv-x="1603" d="M317 1454h336l-309 -1454h-336zM803 -23q-174 0 -281 91l129 274q14 -16 72.5 -41t142.5 -25q68 0 114 26t79 79t57.5 136t48.5 198l158 739h338l-158 -739q-35 -166 -81 -302.5t-122.5 -232.5t-196.5 -149.5t-300 -53.5z" />
<glyph unicode="&#x133;" horiz-adv-x="1107" d="M209 1075h328l-230 -1075h-327zM297 1495h328l-64 -297h-328zM395 -414q-78 0 -143.5 26t-112.5 77l185 223q14 -23 37.5 -33t52.5 -10q41 0 75.5 29.5t45.5 83.5l231 1093h328l-226 -1069q-20 -92 -65 -170t-108.5 -133t-140.5 -86t-159 -31zM856 1495h328l-64 -297 h-327z" />
<glyph unicode="&#x134;" horiz-adv-x="989" d="M586 1655l262 221h233l168 -221l-182 -74l-137 129l-193 -129zM188 -23q-174 0 -280 91l129 274q14 -16 72.5 -41t142.5 -25q68 0 114 26t78.5 79t57 136t49.5 198l158 739h338l-158 -739q-35 -166 -81 -302.5t-123 -232.5t-197 -149.5t-300 -53.5z" />
<glyph unicode="&#x135;" horiz-adv-x="548" d="M-164 -414q-78 0 -143.5 26t-112.5 77l184 223q14 -23 38 -33t53 -10q43 0 76.5 30.5t43.5 82.5l232 1093h330l-228 -1069q-20 -92 -65 -170t-108.5 -133t-140.5 -86t-159 -31zM78 1274l262 221h233l168 -221l-182 -74l-137 129l-193 -129z" />
<glyph unicode="&#x136;" horiz-adv-x="1337" d="M414 -436l92 137h-96l43 203h272l-43 -203l-125 -137h-143zM317 1454h336l-133 -627l615 627h378l-653 -649l377 -805h-385l-252 586l-166 -158l-90 -428h-336z" />
<glyph unicode="&#x137;" horiz-adv-x="1167" d="M297 -436l92 137h-96l43 203h272l-43 -203l-125 -137h-143zM297 1495h326l-146 -688q82 131 187.5 205.5t228.5 74.5q113 0 171 -63t58 -178q0 -135 -74.5 -250t-216.5 -190l183 -406h-348l-181 465q162 31 252 99.5t90 152.5q0 45 -24.5 68.5t-65.5 23.5 q-43 0 -90 -25.5t-92 -68.5t-83 -101.5t-62 -124.5l-105 -489h-325z" />
<glyph unicode="&#x138;" horiz-adv-x="1126" d="M209 1075h328l-97 -446l422 446h344l-461 -463l267 -612h-348l-164 432l-125 -119l-68 -313h-327z" />
<glyph unicode="&#x139;" horiz-adv-x="1153" d="M573 1581l-217 29l158 266h295zM317 1454h336l-247 -1159h657l-62 -295h-993z" />
<glyph unicode="&#x13a;" horiz-adv-x="667" d="M528 1530l-217 29l158 266h295zM258 -18q-117 0 -176 51t-59 149q0 20 3 41t7 45l260 1227h328l-238 -1112q-2 -10 -3 -21.5t-1 -21.5q0 -80 78 -80q23 0 52.5 7t55.5 22l-10 -246q-66 -29 -147.5 -45t-149.5 -16z" />
<glyph unicode="&#x13b;" horiz-adv-x="1153" d="M319 -436l93 137h-97l43 203h273l-43 -203l-125 -137h-144zM317 1454h336l-247 -1159h657l-62 -295h-993z" />
<glyph unicode="&#x13c;" horiz-adv-x="667" d="M39 -436l92 137h-96l43 203h272l-43 -203l-125 -137h-143zM258 -18q-117 0 -176 51t-59 149q0 20 3 41t7 45l260 1227h328l-238 -1112q-2 -10 -3 -21.5t-1 -21.5q0 -80 78 -80q23 0 52.5 7t55.5 22l-10 -246q-66 -29 -147.5 -45t-149.5 -16z" />
<glyph unicode="&#x13d;" horiz-adv-x="1153" d="M731 1229l158 266h295l-256 -324zM317 1454h336l-247 -1159h657l-62 -295h-993z" />
<glyph unicode="&#x13e;" horiz-adv-x="661" d="M641 1229l158 266h295l-256 -324zM258 -18q-117 0 -176 51t-59 149q0 20 3 41t7 45l260 1227h328l-238 -1112q-2 -10 -3 -21.5t-1 -21.5q0 -80 78 -80q23 0 52.5 7t55.5 22l-10 -246q-66 -29 -147.5 -45t-149.5 -16z" />
<glyph unicode="&#x13f;" horiz-adv-x="1153" d="M317 1454h336l-247 -1159h657l-62 -295h-993zM698 692l72 340h268l-71 -340h-269z" />
<glyph unicode="&#x140;" horiz-adv-x="882" d="M258 -18q-117 0 -176 51t-59 149q0 20 3 41t7 45l260 1227h328l-238 -1112q-2 -10 -3 -21.5t-1 -21.5q0 -80 78 -80q23 0 52.5 7t55.5 22l-10 -246q-66 -29 -147.5 -45t-149.5 -16zM569 541l72 340h268l-71 -340h-269z" />
<glyph unicode="&#x141;" horiz-adv-x="1169" d="M0 680l193 100l143 674h336l-103 -477l191 100l39 -176l-277 -145l-98 -461h657l-61 -295h-993l118 559l-106 -55z" />
<glyph unicode="&#x142;" horiz-adv-x="751" d="M14 711l215 106l144 678h327l-104 -494l149 76l41 -176l-237 -119l-82 -387q-4 -16 -6 -30.5t-2 -24.5q0 -80 80 -80q23 0 52.5 7t55.5 22l-10 -246q-68 -29 -149.5 -45t-147.5 -16q-117 0 -177.5 51t-60.5 149q0 35 11 86l69 330l-129 -63z" />
<glyph unicode="&#x143;" horiz-adv-x="1492" d="M1010 1581l-217 29l157 266h295zM317 1454h263l436 -854l180 854h336l-309 -1454h-267l-436 831l-176 -831h-336z" />
<glyph unicode="&#x144;" d="M791 1200l-218 29l158 266h295zM209 1075h295l-39 -180q76 96 188.5 148.5t247.5 52.5q72 0 118 -20.5t73.5 -54.5t39 -79t11.5 -94q0 -41 -5 -81t-14 -79l-145 -688h-328l129 604q8 41 8 82q0 63 -26.5 92t-71.5 29q-59 0 -133 -53.5t-119 -137.5l-131 -616h-327z" />
<glyph unicode="&#x145;" horiz-adv-x="1492" d="M436 -436l92 137h-96l43 203h273l-43 -203l-125 -137h-144zM317 1454h263l436 -854l180 854h336l-309 -1454h-267l-436 831l-176 -831h-336z" />
<glyph unicode="&#x146;" d="M285 -436l92 137h-96l43 203h272l-43 -203l-125 -137h-143zM209 1075h295l-39 -180q76 96 188.5 148.5t247.5 52.5q72 0 118 -20.5t73.5 -54.5t39 -79t11.5 -94q0 -41 -5 -81t-14 -79l-145 -688h-328l129 604q8 41 8 82q0 63 -26.5 92t-71.5 29q-59 0 -133 -53.5 t-119 -137.5l-131 -616h-327z" />
<glyph unicode="&#x147;" horiz-adv-x="1492" d="M635 1800l182 76l137 -129l193 129l153 -76l-262 -219h-235zM317 1454h263l436 -854l180 854h336l-309 -1454h-267l-436 831l-176 -831h-336z" />
<glyph unicode="&#x148;" d="M428 1419l182 76l138 -129l192 129l154 -76l-263 -219h-235zM209 1075h295l-39 -180q76 96 188.5 148.5t247.5 52.5q72 0 118 -20.5t73.5 -54.5t39 -79t11.5 -94q0 -41 -5 -81t-14 -79l-145 -688h-328l129 604q8 41 8 82q0 63 -26.5 92t-71.5 29q-59 0 -133 -53.5 t-119 -137.5l-131 -616h-327z" />
<glyph unicode="&#x149;" d="M-152 1229l101 164v102h352l-258 -324zM209 1075h295l-39 -180q76 96 188.5 148.5t247.5 52.5q72 0 118 -20.5t73.5 -54.5t39 -79t11.5 -94q0 -41 -5 -81t-14 -79l-145 -688h-328l129 604q8 41 8 82q0 63 -26.5 92t-71.5 29q-59 0 -133 -53.5t-119 -137.5l-131 -616h-327 z" />
<glyph unicode="&#x14a;" horiz-adv-x="1460" d="M719 -414q-78 0 -143.5 26t-112.5 77l184 223q14 -23 39 -33t53 -10q41 0 75 30.5t44 82.5l21 90l-361 749l-174 -821h-336l309 1454h258l410 -838l178 836h336l-311 -1456q-20 -92 -66.5 -168t-109 -130t-138 -83t-155.5 -29z" />
<glyph unicode="&#x14b;" horiz-adv-x="1208" d="M506 -414q-78 0 -143.5 26t-112.5 77l184 223q14 -23 38 -33t52 -10q41 0 77 29.5t46 83.5l133 622q8 41 8 82q0 63 -26.5 92t-71.5 29q-59 0 -133 -53.5t-119 -137.5l-131 -616h-327l229 1075h295l-39 -180q76 96 188.5 148.5t247.5 52.5q72 0 118 -19.5t73.5 -53.5 t39 -78t11.5 -93q0 -41 -5 -82t-16 -82l-145 -682q-20 -92 -65.5 -170t-109 -133t-139 -86t-157.5 -31z" />
<glyph unicode="&#x14c;" horiz-adv-x="1501" d="M676 1651l41 198h596l-43 -198h-594zM616 -12q-133 0 -235 50t-172 135t-105.5 194.5t-35.5 228.5q0 111 32.5 217.5t91 202.5t138.5 178t177 141.5t205.5 93t223.5 33.5q131 0 233.5 -51t171 -135t104.5 -194.5t36 -227.5q0 -164 -71 -319.5t-190.5 -277.5 t-275.5 -195.5t-328 -73.5zM682 287q106 0 190 51t142.5 130t90.5 175t32 188q0 68 -16.5 127.5t-49.5 105.5t-84 72.5t-121 26.5q-104 0 -189 -50t-143.5 -128t-90 -174t-31.5 -188q0 -68 16 -128.5t49 -106.5t84 -73.5t121 -27.5z" />
<glyph unicode="&#x14d;" d="M455 1270l41 198h596l-43 -198h-594zM469 -20q-113 0 -197 35.5t-139 97t-82.5 142.5t-27.5 173q0 127 49 247t139 214t216 150.5t280 56.5q111 0 194.5 -36t140 -97.5t84 -142.5t27.5 -173q0 -127 -49 -246.5t-139.5 -213t-216 -150.5t-279.5 -57zM528 256 q55 0 106.5 26.5t90.5 75t62.5 111.5t23.5 137q0 96 -44 153.5t-120 57.5q-55 0 -106.5 -26.5t-90 -74.5t-62 -111.5t-23.5 -137.5q0 -96 43.5 -153.5t119.5 -57.5z" />
<glyph unicode="&#x14e;" horiz-adv-x="1501" d="M616 -12q-133 0 -235 50t-172 135t-105.5 194.5t-35.5 228.5q0 111 32.5 217.5t91 202.5t138.5 178t177 141.5t205.5 93t223.5 33.5q131 0 233.5 -51t171 -135t104.5 -194.5t36 -227.5q0 -164 -71 -319.5t-190.5 -277.5t-275.5 -195.5t-328 -73.5zM682 287q106 0 190 51 t142.5 130t90.5 175t32 188q0 68 -16.5 127.5t-49.5 105.5t-84 72.5t-121 26.5q-104 0 -189 -50t-143.5 -128t-90 -174t-31.5 -188q0 -68 16 -128.5t49 -106.5t84 -73.5t121 -27.5zM985 1718q43 0 85 44t65 114h172q-14 -66 -47 -121t-80 -95t-104.5 -62.5t-121.5 -22.5 q-111 0 -173 61.5t-62 163.5q0 18 3 36.5t7 39.5h172q-6 -23 -6 -43q0 -49 24.5 -82t65.5 -33z" />
<glyph unicode="&#x14f;" d="M469 -20q-113 0 -197 35.5t-139 97t-82.5 142.5t-27.5 173q0 127 49 247t139 214t216 150.5t280 56.5q111 0 194.5 -36t140 -97.5t84 -142.5t27.5 -173q0 -127 -49 -246.5t-139.5 -213t-216 -150.5t-279.5 -57zM528 256q55 0 106.5 26.5t90.5 75t62.5 111.5t23.5 137 q0 96 -44 153.5t-120 57.5q-55 0 -106.5 -26.5t-90 -74.5t-62 -111.5t-23.5 -137.5q0 -96 43.5 -153.5t119.5 -57.5zM756 1337q43 0 85 44t64 114h172q-14 -66 -47 -121t-80 -95t-104.5 -62.5t-120.5 -22.5q-111 0 -173.5 61.5t-62.5 163.5q0 18 3.5 37t7.5 39h172 q-6 -23 -6 -43q0 -49 24.5 -82t65.5 -33z" />
<glyph unicode="&#x150;" horiz-adv-x="1501" d="M815 1550l-166 25l139 266h244zM1163 1550l-166 25l138 266h245zM616 -12q-133 0 -235 50t-172 135t-105.5 194.5t-35.5 228.5q0 111 32.5 217.5t91 202.5t138.5 178t177 141.5t205.5 93t223.5 33.5q131 0 233.5 -51t171 -135t104.5 -194.5t36 -227.5q0 -164 -71 -319.5 t-190.5 -277.5t-275.5 -195.5t-328 -73.5zM682 287q106 0 190 51t142.5 130t90.5 175t32 188q0 68 -16.5 127.5t-49.5 105.5t-84 72.5t-121 26.5q-104 0 -189 -50t-143.5 -128t-90 -174t-31.5 -188q0 -68 16 -128.5t49 -106.5t84 -73.5t121 -27.5z" />
<glyph unicode="&#x151;" d="M612 1204l-166 25l140 266h243zM961 1204l-166 25l137 266h246zM469 -20q-113 0 -197 35.5t-139 97t-82.5 142.5t-27.5 173q0 127 49 247t139 214t216 150.5t280 56.5q111 0 194.5 -36t140 -97.5t84 -142.5t27.5 -173q0 -127 -49 -246.5t-139.5 -213t-216 -150.5 t-279.5 -57zM528 256q55 0 106.5 26.5t90.5 75t62.5 111.5t23.5 137q0 96 -44 153.5t-120 57.5q-55 0 -106.5 -26.5t-90 -74.5t-62 -111.5t-23.5 -137.5q0 -96 43.5 -153.5t119.5 -57.5z" />
<glyph unicode="&#x152;" horiz-adv-x="2060" d="M586 -10q-125 0 -221.5 50t-163 133t-100 191.5t-33.5 225.5q0 166 69.5 323.5t185 280.5t267 196.5t317.5 73.5q98 0 171 -45t124 -116l31 151h924l-64 -295h-586l-59 -272h483l-63 -293h-482l-65 -299h606l-63 -295h-940l32 154q-82 -72 -177 -118t-193 -46zM651 289 q98 0 177 52t135.5 132t86 177.5t29.5 189.5q0 66 -14 125t-45 103t-76 70.5t-106 26.5q-96 0 -175 -51t-135.5 -132t-87 -178t-30.5 -190q0 -66 14 -125t45 -103t76 -70.5t106 -26.5z" />
<glyph unicode="&#x153;" horiz-adv-x="1957" d="M467 -20q-102 0 -185 32.5t-140.5 92t-88 141.5t-30.5 180q0 141 54 263t147 212t216 142.5t260 52.5q123 0 207 -55.5t135 -161.5q109 111 212.5 164t224.5 53q102 0 184 -33t138.5 -93.5t87 -143.5t30.5 -181q0 -78 -15.5 -128t-29.5 -81h-744q-2 -12 -3 -21t-1 -20 q0 -82 49.5 -134t127.5 -52q72 0 139 38t100 97l254 -78q-47 -66 -107.5 -119t-132 -90t-151.5 -57t-162 -20q-111 0 -190.5 50t-157.5 154q-123 -109 -221 -156.5t-207 -47.5zM528 256q57 0 108.5 27.5t90.5 76t61.5 112t22.5 136.5q0 92 -43 150.5t-121 58.5 q-57 0 -108.5 -27.5t-90 -75.5t-61 -111.5t-22.5 -137.5q0 -92 42.5 -150.5t120.5 -58.5zM1583 635q2 10 3 19.5t1 17.5q0 86 -45 137t-123 51q-86 0 -156.5 -62.5t-99.5 -162.5h420z" />
<glyph unicode="&#x154;" horiz-adv-x="1325" d="M924 1585l-217 29l157 266h295zM8 0l309 1454h625q86 0 152.5 -35t112.5 -92t71 -131t25 -152q0 -76 -24 -149.5t-66 -140t-100 -121.5t-128 -92l186 -541h-378l-160 469h-191l-98 -469h-336zM784 762q31 0 62 19.5t55.5 53t39.5 78.5t15 97q0 68 -28.5 108.5t-69.5 40.5 h-268l-84 -397h278z" />
<glyph unicode="&#x155;" horiz-adv-x="802" d="M621 1200l-218 29l158 266h295zM209 1075h301l-47 -217q78 109 173 170.5t187 61.5q39 0 47 -3l-61 -292q-111 -2 -208 -39t-157 -111l-137 -645h-327z" />
<glyph unicode="&#x156;" horiz-adv-x="1325" d="M344 -436l92 137h-96l43 203h272l-43 -203l-125 -137h-143zM8 0l309 1454h625q86 0 152.5 -35t112.5 -92t71 -131t25 -152q0 -76 -24 -149.5t-66 -140t-100 -121.5t-128 -92l186 -541h-378l-160 469h-191l-98 -469h-336zM784 762q31 0 62 19.5t55.5 53t39.5 78.5t15 97 q0 68 -28.5 108.5t-69.5 40.5h-268l-84 -397h278z" />
<glyph unicode="&#x157;" horiz-adv-x="802" d="M-53 -436l92 137h-96l43 203h272l-43 -203l-125 -137h-143zM209 1075h301l-47 -217q78 109 173 170.5t187 61.5q39 0 47 -3l-61 -292q-111 -2 -208 -39t-157 -111l-137 -645h-327z" />
<glyph unicode="&#x158;" horiz-adv-x="1325" d="M551 1804l182 76l137 -129l193 129l154 -76l-263 -219h-235zM8 0l309 1454h625q86 0 152.5 -35t112.5 -92t71 -131t25 -152q0 -76 -24 -149.5t-66 -140t-100 -121.5t-128 -92l186 -541h-378l-160 469h-191l-98 -469h-336zM784 762q31 0 62 19.5t55.5 53t39.5 78.5t15 97 q0 68 -28.5 108.5t-69.5 40.5h-268l-84 -397h278z" />
<glyph unicode="&#x159;" horiz-adv-x="802" d="M262 1419l182 76l138 -129l192 129l154 -76l-262 -219h-236zM209 1075h301l-47 -217q78 109 173 170.5t187 61.5q39 0 47 -3l-61 -292q-111 -2 -208 -39t-157 -111l-137 -645h-327z" />
<glyph unicode="&#x15a;" horiz-adv-x="1216" d="M905 1610l-217 28l158 267h295zM500 -16q-154 0 -301.5 47t-253.5 133l209 293q4 -10 39.5 -39t92 -57.5t130 -51t153.5 -22.5q98 0 139.5 35.5t41.5 93.5q0 35 -22.5 58.5t-62.5 43t-92.5 36.5t-111.5 38q-147 53 -220 124.5t-73 192.5q0 131 53 235.5t140.5 175.5 t200 108.5t231.5 37.5q74 0 141 -14t126.5 -36.5t110 -51.5t91.5 -57l-205 -279q-4 8 -34 30.5t-77 47t-106.5 43t-120.5 18.5q-86 0 -134 -37.5t-48 -105.5q0 -59 63.5 -89t179.5 -67q78 -25 142.5 -54.5t110.5 -70.5t70.5 -96t24.5 -131q0 -145 -55 -246.5t-145 -165 t-202.5 -92t-225.5 -28.5z" />
<glyph unicode="&#x15b;" horiz-adv-x="987" d="M684 1200l-217 29l158 266h295zM383 -20q-129 0 -247 44t-189 128l157 200q78 -68 160 -104.5t162 -36.5q66 0 98.5 27.5t32.5 74.5q0 35 -34 58.5t-117 50.5q-84 27 -144.5 52.5t-99.5 55t-57.5 65.5t-18.5 83q0 90 40 167t107.5 132t157.5 87t193 32q115 0 208 -33 t171 -119l-168 -196q-76 63 -137.5 91.5t-122.5 28.5q-55 0 -92 -26.5t-37 -79.5q0 -35 34.5 -56.5t114.5 -43.5q176 -51 254 -110.5t78 -162.5q0 -90 -37 -166t-103.5 -130t-158.5 -83.5t-205 -29.5z" />
<glyph unicode="&#x15c;" horiz-adv-x="1216" d="M524 1683l262 222h234l168 -222l-182 -73l-138 129l-192 -129zM500 -16q-154 0 -301.5 47t-253.5 133l209 293q4 -10 39.5 -39t92 -57.5t130 -51t153.5 -22.5q98 0 139.5 35.5t41.5 93.5q0 35 -22.5 58.5t-62.5 43t-92.5 36.5t-111.5 38q-147 53 -220 124.5t-73 192.5 q0 131 53 235.5t140.5 175.5t200 108.5t231.5 37.5q74 0 141 -14t126.5 -36.5t110 -51.5t91.5 -57l-205 -279q-4 8 -34 30.5t-77 47t-106.5 43t-120.5 18.5q-86 0 -134 -37.5t-48 -105.5q0 -59 63.5 -89t179.5 -67q78 -25 142.5 -54.5t110.5 -70.5t70.5 -96t24.5 -131 q0 -145 -55 -246.5t-145 -165t-202.5 -92t-225.5 -28.5z" />
<glyph unicode="&#x15d;" horiz-adv-x="987" d="M324 1274l262 221h233l168 -221l-182 -74l-137 129l-193 -129zM383 -20q-129 0 -247 44t-189 128l157 200q78 -68 160 -104.5t162 -36.5q66 0 98.5 27.5t32.5 74.5q0 35 -34 58.5t-117 50.5q-84 27 -144.5 52.5t-99.5 55t-57.5 65.5t-18.5 83q0 90 40 167t107.5 132 t157.5 87t193 32q115 0 208 -33t171 -119l-168 -196q-76 63 -137.5 91.5t-122.5 28.5q-55 0 -92 -26.5t-37 -79.5q0 -35 34.5 -56.5t114.5 -43.5q176 -51 254 -110.5t78 -162.5q0 -90 -37 -166t-103.5 -130t-158.5 -83.5t-205 -29.5z" />
<glyph unicode="&#x15e;" horiz-adv-x="1216" d="M276 -260q18 -14 66.5 -27.5t101.5 -13.5t88 17.5t35 60.5q0 29 -24.5 41t-67.5 12q-41 0 -88 -8t-72 -15l123 179q-139 10 -268 55t-225 123l209 293q4 -10 39.5 -39t92 -57.5t130 -51t153.5 -22.5q98 0 139.5 35.5t41.5 93.5q0 35 -22.5 58.5t-62.5 43t-92.5 36.5 t-111.5 38q-147 53 -220 124.5t-73 192.5q0 131 53 235.5t140.5 175.5t200 108.5t231.5 37.5q74 0 141 -14t126.5 -36.5t110 -51.5t91.5 -57l-205 -279q-4 8 -34 30.5t-77 47t-106.5 43t-120.5 18.5q-86 0 -134 -37.5t-48 -105.5q0 -59 63.5 -89t179.5 -67 q78 -25 142.5 -54.5t110.5 -70.5t70.5 -96t24.5 -131q0 -133 -47 -230.5t-125.5 -161t-179 -97t-205.5 -41.5l-55 -64q25 6 57 6q59 0 103.5 -28.5t44.5 -94.5q0 -45 -20.5 -84.5t-60.5 -70.5t-100.5 -49.5t-142.5 -18.5q-68 0 -120 13.5t-87 29.5z" />
<glyph unicode="&#x15f;" horiz-adv-x="987" d="M139 -260q18 -14 66.5 -27.5t101.5 -13.5t88 17.5t35 60.5q0 29 -24.5 41t-67.5 12q-41 0 -88 -8t-72 -15l121 177q-106 12 -199.5 54t-152.5 114l157 200q78 -68 160 -104.5t162 -36.5q66 0 98.5 27.5t32.5 74.5q0 35 -34 58.5t-117 50.5q-84 27 -144.5 52.5t-99.5 55 t-57.5 65.5t-18.5 83q0 90 40 167t107.5 132t157.5 87t193 32q115 0 208 -33t171 -119l-168 -196q-76 63 -137.5 91.5t-122.5 28.5q-55 0 -92 -26.5t-37 -79.5q0 -35 34.5 -56.5t114.5 -43.5q176 -51 254 -110.5t78 -162.5q0 -86 -33 -157.5t-93.5 -126t-144.5 -86 t-186 -37.5l-51 -60q25 6 57 6q59 0 103.5 -28.5t44.5 -94.5q0 -45 -20.5 -84.5t-60.5 -70.5t-100.5 -49.5t-142.5 -18.5q-68 0 -120 13.5t-87 29.5z" />
<glyph unicode="&#x160;" horiz-adv-x="1216" d="M539 1829l182 76l137 -129l193 129l153 -76l-262 -219h-235zM500 -16q-154 0 -301.5 47t-253.5 133l209 293q4 -10 39.5 -39t92 -57.5t130 -51t153.5 -22.5q98 0 139.5 35.5t41.5 93.5q0 35 -22.5 58.5t-62.5 43t-92.5 36.5t-111.5 38q-147 53 -220 124.5t-73 192.5 q0 131 53 235.5t140.5 175.5t200 108.5t231.5 37.5q74 0 141 -14t126.5 -36.5t110 -51.5t91.5 -57l-205 -279q-4 8 -34 30.5t-77 47t-106.5 43t-120.5 18.5q-86 0 -134 -37.5t-48 -105.5q0 -59 63.5 -89t179.5 -67q78 -25 142.5 -54.5t110.5 -70.5t70.5 -96t24.5 -131 q0 -145 -55 -246.5t-145 -165t-202.5 -92t-225.5 -28.5z" />
<glyph unicode="&#x161;" horiz-adv-x="987" d="M326 1419l182 76l137 -129l193 129l153 -76l-262 -219h-235zM383 -20q-129 0 -247 44t-189 128l157 200q78 -68 160 -104.5t162 -36.5q66 0 98.5 27.5t32.5 74.5q0 35 -34 58.5t-117 50.5q-84 27 -144.5 52.5t-99.5 55t-57.5 65.5t-18.5 83q0 90 40 167t107.5 132 t157.5 87t193 32q115 0 208 -33t171 -119l-168 -196q-76 63 -137.5 91.5t-122.5 28.5q-55 0 -92 -26.5t-37 -79.5q0 -35 34.5 -56.5t114.5 -43.5q176 -51 254 -110.5t78 -162.5q0 -90 -37 -166t-103.5 -130t-158.5 -83.5t-205 -29.5z" />
<glyph unicode="&#x162;" horiz-adv-x="1220" d="M559 1159h-416l62 295h1165l-61 -295h-414l-248 -1159h-108l-68 -78q25 6 57 6q59 0 103.5 -28.5t44.5 -94.5q0 -45 -20.5 -84.5t-60.5 -70.5t-100.5 -49.5t-142.5 -18.5q-68 0 -120 13.5t-87 29.5l86 115q18 -14 66.5 -27.5t101.5 -13.5t88 17.5t35 60.5q0 29 -24.5 41 t-67.5 12q-41 0 -88 -8t-72 -15l133 193h-92z" />
<glyph unicode="&#x163;" horiz-adv-x="802" d="M76 -260q18 -14 66 -27.5t102 -13.5q53 0 88 17.5t35 60.5q0 29 -25 41t-68 12q-41 0 -88 -8t-71 -15l125 183q-66 16 -106 61t-40 131q0 43 8 84l119 561h-129l55 248h127l74 342h328l-74 -342h207l-53 -248h-207l-94 -448q-2 -10 -3 -18.5t-1 -16.5q0 -35 19 -50 t50 -15q33 0 74 12t76 26v-260q-68 -29 -148 -50t-157 -25l-50 -60q25 6 58 6q59 0 103 -28.5t44 -94.5q0 -45 -20.5 -84.5t-60.5 -70.5t-100 -49.5t-142 -18.5q-68 0 -120 13.5t-87 29.5z" />
<glyph unicode="&#x164;" horiz-adv-x="1220" d="M516 1800l182 76l138 -129l192 129l154 -76l-262 -219h-236zM559 1159h-416l62 295h1165l-61 -295h-414l-248 -1159h-336z" />
<glyph unicode="&#x165;" horiz-adv-x="802" d="M745 1229l158 266h295l-256 -324zM334 -20q-104 0 -172 46t-68 156q0 43 8 84l119 561h-129l55 248h127l74 342h328l-74 -342h207l-53 -248h-207l-94 -448q-2 -10 -3 -18.5t-1 -16.5q0 -35 19 -50t50 -15q33 0 74 12t76 26v-260q-74 -33 -162 -55t-174 -22z" />
<glyph unicode="&#x166;" horiz-adv-x="1267" d="M156 754h338l86 405h-414l61 295h1166l-64 -295h-414l-86 -405h340l-32 -156h-340l-125 -598h-338l127 598h-340z" />
<glyph unicode="&#x167;" horiz-adv-x="806" d="M68 696h129l28 131h-129l54 248h129l73 342h328l-74 -342h205l-51 -248h-207l-29 -131h207l-39 -190h-209l-24 -117q-4 -14 -4 -23.5v-19.5q0 -68 69 -67q33 0 74 12t76 26v-260q-74 -33 -163 -55t-175 -22q-102 0 -171 46t-69 156q0 20 3 40t7 44l52 240h-129z" />
<glyph unicode="&#x168;" horiz-adv-x="1466" d="M598 -12q-133 0 -225 37.5t-150.5 104.5t-85 158t-26.5 195q0 111 24 228l160 743h336l-160 -743q-18 -90 -18 -166q0 -55 11 -102.5t35.5 -82t64.5 -54t98 -19.5q78 0 139 35.5t106 95t76 136.5t49 157l158 743h336l-158 -743q-33 -152 -97.5 -283t-160.5 -229.5 t-224 -154.5t-288 -56zM1063 1585q-45 0 -76 14.5t-56.5 33t-50 32.5t-57.5 14t-54 -14t-33.5 -32.5t-17.5 -34t-5 -17.5h-178q4 23 27.5 71t64.5 97t97 86t126 37q47 0 77.5 -15.5t55.5 -34t48.5 -33.5t58.5 -15q33 0 56 15t37.5 33.5t21.5 35t7 18.5h174 q-4 -16 -27.5 -63.5t-65.5 -98.5t-100 -90t-130 -39z" />
<glyph unicode="&#x169;" horiz-adv-x="1241" d="M285 -20q-125 0 -188.5 65.5t-63.5 192.5q0 66 18 149l148 688h325l-131 -616q-10 -51 -10 -80q0 -123 102 -123q55 0 118 35t126 121l141 663h328l-149 -706q-6 -29 -7 -43q0 -47 54 -50l-60 -276q-45 -10 -78.5 -13t-60.5 -3q-78 0 -127 30.5t-49 100.5q0 12 3 27.5 t7 43.5q-92 -106 -204.5 -156t-241.5 -50zM846 1204q-45 0 -76 14.5t-56.5 33t-50 32.5t-57.5 14t-54.5 -14t-33.5 -32.5t-17 -34t-5 -17.5h-179q4 23 28 71t65 97t97 86t126 37q47 0 77.5 -15.5t55.5 -34t48.5 -33.5t57.5 -15q33 0 56.5 15t38 33.5t21.5 35t7 18.5h174 q-4 -16 -27.5 -63.5t-65.5 -98.5t-100 -90t-130 -39z" />
<glyph unicode="&#x16a;" horiz-adv-x="1466" d="M598 -12q-133 0 -225 37.5t-150.5 104.5t-85 158t-26.5 195q0 111 24 228l160 743h336l-160 -743q-18 -90 -18 -166q0 -55 11 -102.5t35.5 -82t64.5 -54t98 -19.5q78 0 139 35.5t106 95t76 136.5t49 157l158 743h336l-158 -743q-33 -152 -97.5 -283t-160.5 -229.5 t-224 -154.5t-288 -56zM647 1651l41 198h596l-43 -198h-594z" />
<glyph unicode="&#x16b;" horiz-adv-x="1241" d="M285 -20q-125 0 -188.5 65.5t-63.5 192.5q0 66 18 149l148 688h325l-131 -616q-10 -51 -10 -80q0 -123 102 -123q55 0 118 35t126 121l141 663h328l-149 -706q-6 -29 -7 -43q0 -47 54 -50l-60 -276q-45 -10 -78.5 -13t-60.5 -3q-78 0 -127 30.5t-49 100.5q0 12 3 27.5 t7 43.5q-92 -106 -204.5 -156t-241.5 -50zM430 1270l41 198h596l-43 -198h-594z" />
<glyph unicode="&#x16c;" horiz-adv-x="1466" d="M598 -12q-133 0 -225 37.5t-150.5 104.5t-85 158t-26.5 195q0 111 24 228l160 743h336l-160 -743q-18 -90 -18 -166q0 -55 11 -102.5t35.5 -82t64.5 -54t98 -19.5q78 0 139 35.5t106 95t76 136.5t49 157l158 743h336l-158 -743q-33 -152 -97.5 -283t-160.5 -229.5 t-224 -154.5t-288 -56zM934 1718q43 0 85 44t64 114h172q-14 -66 -46.5 -121t-80 -95t-104.5 -62.5t-121 -22.5q-111 0 -173 61.5t-62 163.5q0 18 3 36.5t7 39.5h172q-6 -23 -6 -43q0 -49 24.5 -82t65.5 -33z" />
<glyph unicode="&#x16d;" horiz-adv-x="1241" d="M285 -20q-125 0 -188.5 65.5t-63.5 192.5q0 66 18 149l148 688h325l-131 -616q-10 -51 -10 -80q0 -123 102 -123q55 0 118 35t126 121l141 663h328l-149 -706q-6 -29 -7 -43q0 -47 54 -50l-60 -276q-45 -10 -78.5 -13t-60.5 -3q-78 0 -127 30.5t-49 100.5q0 12 3 27.5 t7 43.5q-92 -106 -204.5 -156t-241.5 -50zM727 1337q43 0 85 44t65 114h172q-14 -66 -47 -121t-80.5 -95t-104.5 -62.5t-121 -22.5q-111 0 -173 61.5t-62 163.5q0 18 3 37t7 39h172q-6 -23 -6 -43q0 -49 24.5 -82t65.5 -33z" />
<glyph unicode="&#x16e;" horiz-adv-x="1466" d="M741 1675q0 98 71 149.5t183 51.5q86 0 133.5 -35t47.5 -100q0 -96 -71 -147.5t-181 -51.5q-86 0 -134.5 33.5t-48.5 99.5zM973 1780q-37 0 -64.5 -23.5t-27.5 -58.5q0 -27 17 -43.5t46 -16.5q35 0 64.5 24t29.5 60q0 25 -18 41.5t-47 16.5zM598 -12q-133 0 -225 37.5 t-150.5 104.5t-85 158t-26.5 195q0 111 24 228l160 743h336l-160 -743q-18 -90 -18 -166q0 -55 11 -102.5t35.5 -82t64.5 -54t98 -19.5q78 0 139 35.5t106 95t76 136.5t49 157l158 743h336l-158 -743q-33 -152 -97.5 -283t-160.5 -229.5t-224 -154.5t-288 -56z" />
<glyph unicode="&#x16f;" horiz-adv-x="1241" d="M522 1294q0 98 71 149.5t183 51.5q86 0 133 -35t47 -100q0 -96 -70.5 -147.5t-180.5 -51.5q-86 0 -134.5 33.5t-48.5 99.5zM754 1399q-37 0 -64.5 -23.5t-27.5 -58.5q0 -27 17 -43.5t46 -16.5q35 0 64.5 24t29.5 60q0 25 -18 41.5t-47 16.5zM285 -20q-125 0 -188.5 65.5 t-63.5 192.5q0 66 18 149l148 688h325l-131 -616q-10 -51 -10 -80q0 -123 102 -123q55 0 118 35t126 121l141 663h328l-149 -706q-6 -29 -7 -43q0 -47 54 -50l-60 -276q-45 -10 -78.5 -13t-60.5 -3q-78 0 -127 30.5t-49 100.5q0 12 3 27.5t7 43.5q-92 -106 -204.5 -156 t-241.5 -50z" />
<glyph unicode="&#x170;" horiz-adv-x="1466" d="M598 -12q-133 0 -225 37.5t-150.5 104.5t-85 158t-26.5 195q0 111 24 228l160 743h336l-160 -743q-18 -90 -18 -166q0 -55 11 -102.5t35.5 -82t64.5 -54t98 -19.5q78 0 139 35.5t106 95t76 136.5t49 157l158 743h336l-158 -743q-33 -152 -97.5 -283t-160.5 -229.5 t-224 -154.5t-288 -56zM778 1587l-166 25l140 266h243zM1126 1587l-165 25l137 266h245z" />
<glyph unicode="&#x171;" horiz-adv-x="1241" d="M285 -20q-125 0 -188.5 65.5t-63.5 192.5q0 66 18 149l148 688h325l-131 -616q-10 -51 -10 -80q0 -123 102 -123q55 0 118 35t126 121l141 663h328l-149 -706q-6 -29 -7 -43q0 -47 54 -50l-60 -276q-45 -10 -78.5 -13t-60.5 -3q-78 0 -127 30.5t-49 100.5q0 12 3 27.5 t7 43.5q-92 -106 -204.5 -156t-241.5 -50zM551 1204l-166 25l139 266h244zM899 1204l-166 25l137 266h246z" />
<glyph unicode="&#x172;" horiz-adv-x="1466" d="M555 -418q-117 16 -173 62.5t-56 105.5q0 125 198 242q-113 10 -191.5 51t-127.5 106.5t-71.5 150.5t-22.5 183q0 111 24 228l160 743h336l-160 -743q-18 -90 -18 -166q0 -55 11 -102.5t35.5 -82t64.5 -54t98 -19.5q78 0 139 35.5t106 95t76 136.5t49 157l158 743h336 l-158 -743q-29 -137 -85 -258t-138 -216.5t-190.5 -159t-243.5 -81.5q-170 -98 -170 -174q0 -29 27.5 -47.5t86.5 -20.5l-100 -172v0z" />
<glyph unicode="&#x173;" horiz-adv-x="1241" d="M285 -20q-125 0 -188.5 65.5t-63.5 192.5q0 66 18 149l148 688h325l-131 -616q-10 -51 -10 -80q0 -123 102 -123q55 0 118 35t126 121l141 663h328l-149 -706q-6 -29 -7 -43q0 -47 54 -50l-60 -276q-182 -104 -182 -180q0 -29 27.5 -47.5t87.5 -20.5l-101 -172 q-117 16 -173 62.5t-56 105.5q0 125 199 242q-53 10 -85 39.5t-32 85.5q0 12 3 27.5t7 43.5q-92 -106 -204.5 -156t-241.5 -50z" />
<glyph unicode="&#x174;" horiz-adv-x="2052" d="M905 1655l262 221h234l168 -221l-183 -74l-137 129l-192 -129zM156 1454h364l107 -1069l209 391l-82 676h307l37 -465l233 465h309l-374 -676l47 -391l559 1069h369l-861 -1454h-278l-94 569l-332 -569h-281z" />
<glyph unicode="&#x175;" horiz-adv-x="1642" d="M618 1274l263 221h233l168 -221l-182 -74l-137 129l-193 -129zM78 1075h315l105 -778q10 12 30.5 50t44 81t43 81t27.5 50l-98 516h272l37 -325q6 12 28.5 60t48 102.5t46 102.5t24.5 60h252q-55 -147 -115.5 -268t-146.5 -246l35 -190q82 109 139.5 191.5t101.5 159.5 t81.5 160t81.5 193h296q-100 -268 -273 -537.5t-409 -537.5h-215l-51 377q-6 -8 -22.5 -37t-38 -68t-47 -84t-48 -83.5t-39 -68.5t-22.5 -36h-282z" />
<glyph unicode="&#x176;" horiz-adv-x="1275" d="M436 500l-278 954h364l142 -668l432 668h364l-692 -958l-104 -496h-336zM510 1655l262 221h234l168 -221l-183 -74l-137 129l-192 -129z" />
<glyph unicode="&#x177;" horiz-adv-x="1087" d="M-102 -227q61 2 104 9t76 21.5t59.5 38t55.5 60.5l59 75l-160 1098h334l59 -794l70 114q104 168 167.5 331t104.5 349h316q-29 -98 -59.5 -184t-78 -183.5t-116 -215t-168.5 -281.5l-164 -264q-72 -117 -141.5 -197t-143 -129t-155.5 -71.5t-180 -22.5zM354 1274l262 221 h234l168 -221l-182 -74l-138 129l-192 -129z" />
<glyph unicode="&#x178;" horiz-adv-x="1275" d="M436 500l-278 954h364l142 -668l432 668h364l-692 -958l-104 -496h-336zM487 1597l58 265h270l-57 -265h-271zM907 1597l58 265h268l-55 -265h-271z" />
<glyph unicode="&#x179;" horiz-adv-x="1218" d="M864 1581l-217 29l158 266h295zM-20 252l890 907h-669l61 295h1061l-55 -252l-858 -907h673l-61 -295h-1096z" />
<glyph unicode="&#x17a;" horiz-adv-x="964" d="M653 1200l-217 29l158 266h295zM-39 197l639 651h-475l49 227h821l-43 -196l-639 -652h516l-49 -227h-862z" />
<glyph unicode="&#x17b;" horiz-adv-x="1218" d="M-20 252l890 907h-669l61 295h1061l-55 -252l-858 -907h673l-61 -295h-1096zM662 1595l59 281h295l-60 -281h-294z" />
<glyph unicode="&#x17c;" horiz-adv-x="964" d="M-39 197l639 651h-475l49 227h821l-43 -196l-639 -652h516l-49 -227h-862zM449 1214l59 281h295l-60 -281h-294z" />
<glyph unicode="&#x17d;" horiz-adv-x="1218" d="M508 1800l182 76l137 -129l193 129l154 -76l-263 -219h-235zM-20 252l890 907h-669l61 295h1061l-55 -252l-858 -907h673l-61 -295h-1096z" />
<glyph unicode="&#x17e;" horiz-adv-x="964" d="M293 1419l182 76l137 -129l193 129l153 -76l-262 -219h-235zM-39 197l639 651h-475l49 227h821l-43 -196l-639 -652h516l-49 -227h-862z" />
<glyph unicode="&#x18f;" horiz-adv-x="1482" d="M598 -10q-141 0 -246.5 51t-174 135t-103.5 189.5t-35 214.5q0 86 17.5 148.5t33.5 100.5h1010q2 16 3 30.5t1 29.5q0 135 -74 205.5t-182 70.5q-47 0 -94 -13t-90 -39t-79 -61.5t-57 -80.5l-325 106q57 86 134 158t167 122t193.5 77.5t215.5 27.5q137 0 240.5 -51 t172.5 -134t103.5 -189.5t34.5 -219.5q0 -102 -28.5 -207.5t-83 -203t-132 -183.5t-174 -148.5t-209 -99t-239.5 -36.5zM666 285q127 0 228 78.5t146 214.5h-645q-8 -31 -8 -64q0 -104 77 -166.5t202 -62.5z" />
<glyph unicode="&#x192;" horiz-adv-x="1095" d="M119 -414q-78 0 -144.5 26t-113.5 77l184 223q14 -23 39 -33t53 -10q41 0 75 30.5t44 82.5l154 720h-129l53 248h129l26 125q20 100 64.5 182t104 139.5t132 88.5t154.5 31q125 0 258 -64l-110 -246q-29 14 -66 23.5t-68 9.5q-109 0 -139 -152l-31 -137h236l-53 -248 h-234l-151 -712q-18 -90 -63.5 -164t-109 -127t-139 -83t-155.5 -30z" />
<glyph unicode="&#x1c4;" horiz-adv-x="2637" d="M1927 1800l182 76l138 -129l192 129l154 -76l-262 -219h-236zM1399 252l891 907h-670l61 295h1061l-55 -252l-858 -907h674l-62 -295h-1095zM317 1454h521q141 0 246.5 -44t174 -120t102.5 -179t34 -222q0 -193 -65.5 -355.5t-182.5 -281.5t-275.5 -185.5t-343.5 -66.5 h-520zM590 295q102 0 186 44t144.5 120t93.5 174t33 207q0 143 -69 231t-204 88h-184l-184 -864h184z" />
<glyph unicode="&#x1c5;" horiz-adv-x="2383" d="M1712 1419l182 76l138 -129l192 129l154 -76l-262 -219h-236zM1380 197l639 651h-475l49 227h822l-43 -196l-639 -652h516l-49 -227h-863zM317 1454h521q141 0 246.5 -44t174 -120t102.5 -179t34 -222q0 -193 -65.5 -355.5t-182.5 -281.5t-275.5 -185.5t-343.5 -66.5 h-520zM590 295q102 0 186 44t144.5 120t93.5 174t33 207q0 143 -69 231t-204 88h-184l-184 -864h184z" />
<glyph unicode="&#x1c6;" horiz-adv-x="2263" d="M1591 1419l183 76l137 -129l192 129l154 -76l-262 -219h-236zM1260 197l638 651h-475l50 227h821l-43 -196l-639 -652h516l-49 -227h-862zM403 -20q-90 0 -160.5 32.5t-119.5 91t-74.5 138.5t-25.5 174q0 135 48 259t128 217t186.5 148.5t222.5 55.5q104 0 178 -53.5 t103 -143.5l127 596h330l-242 -1126q-2 -14 -3 -23.5t-1 -19.5q0 -47 51 -50l-57 -276q-47 -10 -81 -13t-59 -3q-78 0 -127 30.5t-49 100.5q0 25 8 63q-76 -100 -177.5 -149t-205.5 -49zM551 256q61 0 124.5 40t110.5 110l48 225q-10 82 -61.5 134t-117.5 52 q-55 0 -107 -29.5t-92 -77.5t-63.5 -110.5t-23.5 -130.5q0 -92 48 -152.5t134 -60.5z" />
<glyph unicode="&#x1c7;" horiz-adv-x="2142" d="M1341 -23q-174 0 -280 91l129 274q14 -16 72.5 -41t142.5 -25q68 0 114 26t78.5 79t57 136t49.5 198l158 739h338l-158 -739q-35 -166 -81 -302.5t-123 -232.5t-197 -149.5t-300 -53.5zM317 1454h336l-247 -1159h657l-62 -295h-993z" />
<glyph unicode="&#x1c8;" horiz-adv-x="1710" d="M999 -414q-78 0 -143 26t-113 77l185 223q14 -23 37.5 -33t52.5 -10q41 0 75.5 29.5t45.5 83.5l231 1093h328l-225 -1069q-20 -92 -65.5 -170t-109 -133t-140.5 -86t-159 -31zM1460 1495h328l-64 -297h-327zM317 1454h336l-247 -1159h657l-62 -295h-993z" />
<glyph unicode="&#x1c9;" horiz-adv-x="1226" d="M514 -414q-78 0 -143.5 26t-112.5 77l184 223q14 -23 38 -33t52 -10q41 0 76 29.5t45 83.5l232 1093h327l-225 -1069q-20 -92 -65 -170t-108.5 -133t-140.5 -86t-159 -31zM975 1495h328l-64 -297h-328zM258 -18q-117 0 -176 51t-59 149q0 20 3 41t7 45l260 1227h328 l-238 -1112q-2 -10 -3 -21.5t-1 -21.5q0 -80 78 -80q23 0 52.5 7t55.5 22l-10 -246q-66 -29 -147.5 -45t-149.5 -16z" />
<glyph unicode="&#x1ca;" horiz-adv-x="2482" d="M1681 -23q-174 0 -280 91l129 274q14 -16 72.5 -41t142.5 -25q68 0 114 26t78.5 79t57 136t49.5 198l158 739h338l-158 -739q-35 -166 -81 -302.5t-123 -232.5t-197 -149.5t-300 -53.5zM317 1454h263l436 -854l180 854h336l-309 -1454h-267l-436 831l-176 -831h-336z" />
<glyph unicode="&#x1cb;" horiz-adv-x="2052" d="M1339 -414q-78 0 -143.5 26t-112.5 77l185 223q14 -23 37.5 -33t52.5 -10q41 0 75.5 29.5t45.5 83.5l231 1093h328l-226 -1069q-20 -92 -65 -170t-108.5 -133t-140.5 -86t-159 -31zM1800 1495h328l-64 -297h-327zM317 1454h263l436 -854l180 854h336l-309 -1454h-267 l-436 831l-176 -831h-336z" />
<glyph unicode="&#x1cc;" horiz-adv-x="1769" d="M1057 -414q-78 0 -143.5 26t-112.5 77l184 223q14 -23 38 -33t52 -10q41 0 76 29.5t45 83.5l231 1093h328l-225 -1069q-20 -92 -65.5 -170t-109 -133t-140 -86t-158.5 -31zM1518 1495h327l-63 -297h-328zM209 1075h295l-39 -180q76 96 188.5 148.5t247.5 52.5 q72 0 118 -20.5t73.5 -54.5t39 -79t11.5 -94q0 -41 -5 -81t-14 -79l-145 -688h-328l129 604q8 41 8 82q0 63 -26.5 92t-71.5 29q-59 0 -133 -53.5t-119 -137.5l-131 -616h-327z" />
<glyph unicode="&#x1ea;" horiz-adv-x="1501" d="M567 -418q-117 16 -173 62.5t-56 105.5t50 121.5t151 122.5q-115 14 -203 68.5t-147.5 136.5t-90 184t-30.5 213t32.5 217.5t91 202.5t138.5 178t177 141.5t205.5 93t223.5 33.5q131 0 233.5 -51t171 -135t104.5 -194.5t36 -227.5q0 -152 -60.5 -296t-164 -262 t-241.5 -198t-292 -102q-170 -98 -170 -174q0 -29 27.5 -47.5t87.5 -20.5zM682 287q106 0 190 51t142.5 130t90.5 175t32 188q0 68 -16.5 127.5t-49.5 105.5t-84 72.5t-121 26.5q-104 0 -189 -50t-143.5 -128t-90 -174t-31.5 -188q0 -68 16 -128.5t49 -106.5t84 -73.5 t121 -27.5z" />
<glyph unicode="&#x1eb;" horiz-adv-x="1208" d="M428 -428q-117 16 -173 62.5t-56 105.5t50 121.5t152 122.5q-96 10 -166.5 49t-117.5 98t-70.5 136t-23.5 161q0 127 49 247t139 214t216 150.5t280 56.5q111 0 194.5 -36t140 -97.5t84 -142.5t27.5 -173q0 -113 -40 -221.5t-113.5 -198.5t-177 -153.5t-230.5 -83.5 q-178 -102 -178 -178q0 -29 27.5 -47.5t86.5 -20.5zM528 256q55 0 106.5 26.5t90.5 75t62.5 111.5t23.5 137q0 96 -44 153.5t-120 57.5q-55 0 -106.5 -26.5t-90 -74.5t-62 -111.5t-23.5 -137.5q0 -96 43.5 -153.5t119.5 -57.5z" />
<glyph unicode="&#x1f1;" horiz-adv-x="2617" d="M1378 252l891 907h-670l62 295h1061l-56 -252l-858 -907h674l-61 -295h-1096zM317 1454h521q141 0 246.5 -44t174 -120t102.5 -179t34 -222q0 -193 -65.5 -355.5t-182.5 -281.5t-275.5 -185.5t-343.5 -66.5h-520zM590 295q102 0 186 44t144.5 120t93.5 174t33 207 q0 143 -69 231t-204 88h-184l-184 -864h184z" />
<glyph unicode="&#x1f2;" horiz-adv-x="2375" d="M1370 197l639 651h-475l49 227h821l-43 -196l-639 -652h516l-49 -227h-862zM317 1454h521q141 0 246.5 -44t174 -120t102.5 -179t34 -222q0 -193 -65.5 -355.5t-182.5 -281.5t-275.5 -185.5t-343.5 -66.5h-520zM590 295q102 0 186 44t144.5 120t93.5 174t33 207 q0 143 -69 231t-204 88h-184l-184 -864h184z" />
<glyph unicode="&#x1f3;" horiz-adv-x="2263" d="M1260 197l638 651h-475l50 227h821l-43 -196l-639 -652h516l-49 -227h-862zM403 -20q-90 0 -160.5 32.5t-119.5 91t-74.5 138.5t-25.5 174q0 135 48 259t128 217t186.5 148.5t222.5 55.5q104 0 178 -53.5t103 -143.5l127 596h330l-242 -1126q-2 -14 -3 -23.5t-1 -19.5 q0 -47 51 -50l-57 -276q-47 -10 -81 -13t-59 -3q-78 0 -127 30.5t-49 100.5q0 25 8 63q-76 -100 -177.5 -149t-205.5 -49zM551 256q61 0 124.5 40t110.5 110l48 225q-10 82 -61.5 134t-117.5 52q-55 0 -107 -29.5t-92 -77.5t-63.5 -110.5t-23.5 -130.5q0 -92 48 -152.5 t134 -60.5z" />
<glyph unicode="&#x1f4;" horiz-adv-x="1441" d="M1036 1581l-217 29l158 266h295zM985 143q-98 -78 -191.5 -115.5t-197.5 -37.5q-117 0 -213 43t-167 120.5t-109.5 187.5t-38.5 243q0 180 72.5 340.5t194.5 280.5t278.5 189.5t324.5 69.5q190 0 318 -85t169 -232l-288 -189q-27 98 -101.5 152.5t-173.5 54.5 q-90 0 -171 -44t-142.5 -118.5t-98 -173t-36.5 -206.5q0 -72 18.5 -133.5t54 -106.5t86 -69.5t115.5 -24.5q182 0 367 180l10 47h-264l51 244h543l-162 -760h-279z" />
<glyph unicode="&#x1f5;" horiz-adv-x="1265" d="M735 1200l-217 29l158 266h295zM328 -457q-166 0 -272.5 55.5t-172.5 159.5l213 179q41 -68 116 -108t167 -40q55 0 108.5 16.5t98.5 50t77.5 88t49.5 130.5l20 104q-63 -90 -160.5 -136t-197.5 -46q-84 0 -148.5 32.5t-109.5 90t-68.5 134.5t-23.5 167q0 137 49 260 t133 215t194.5 146.5t233.5 54.5q113 0 187.5 -52.5t107.5 -144.5l39 176h284l-213 -1001q-27 -123 -91 -221.5t-157.5 -167t-212 -105.5t-251.5 -37zM547 256q66 0 127 42t108 108l49 225q-12 86 -63 136t-117 50q-55 0 -107 -30.5t-91 -80t-62.5 -112t-23.5 -125.5 q0 -92 48 -152.5t132 -60.5z" />
<glyph unicode="&#x1fa;" horiz-adv-x="1312" d="M1022 1655q47 -35 47 -101q0 -90 -68 -145l183 -1409h-344l-31 326h-414l-166 -326h-346l781 1407q-29 33 -29 82q0 74 42 122t114 66l135 215h295zM803 557l-41 514l-266 -514h307zM866 1593q-37 0 -64.5 -23.5t-27.5 -58.5q0 -27 17.5 -43t46.5 -16q35 0 64.5 23.5 t29.5 60.5q0 25 -18.5 41t-47.5 16z" />
<glyph unicode="&#x1fb;" horiz-adv-x="1298" d="M403 -20q-90 0 -160.5 32.5t-119.5 91t-74.5 138.5t-25.5 174q0 135 48 259t128 217t186.5 148.5t222.5 55.5q104 0 178 -53.5t103 -143.5l37 170h329l-151 -700q-2 -14 -3 -23.5t-1 -19.5q0 -47 51 -50l-57 -276q-47 -10 -81 -13t-59 -3q-80 0 -127 31.5t-47 105.5 q0 20 6 57q-76 -100 -177.5 -149t-205.5 -49zM551 256q61 0 124.5 40t110.5 110l48 225q-10 82 -61.5 134t-117.5 52q-55 0 -107 -29.5t-92 -77.5t-63.5 -110.5t-23.5 -130.5q0 -92 48 -152.5t134 -60.5zM831 1520l-217 28l158 267h295zM473 1294q0 98 70.5 149.5 t183.5 51.5q86 0 133 -35t47 -100q0 -96 -70.5 -147.5t-181.5 -51.5q-86 0 -134 33.5t-48 99.5zM705 1399q-37 0 -65 -23.5t-28 -58.5q0 -27 17.5 -43.5t46.5 -16.5q35 0 64.5 24t29.5 60q0 25 -18 41.5t-47 16.5z" />
<glyph unicode="&#x1fc;" horiz-adv-x="1908" d="M1366 1581l-217 29l158 266h295zM991 1454h1012l-64 -295h-587l-58 -272h482l-62 -293h-481l-64 -299h603l-62 -295h-938l70 326h-412l-237 -326h-357zM879 621l96 458l-340 -458h244z" />
<glyph unicode="&#x1fd;" horiz-adv-x="1837" d="M1087 1200l-217 29l158 266h295zM266 -20q-68 0 -121 21.5t-92 58t-59.5 89t-20.5 113.5q0 88 41 165t112 133t167 88t205 32q61 0 114.5 -11.5t92.5 -29.5q6 29 14 55.5t8 53.5q0 59 -40 90.5t-124 31.5t-166 -29.5t-176 -88.5l-53 204q231 139 475 140q117 0 200 -34 t132 -97q78 59 172 95t205 36t194.5 -36t140 -97.5t84 -142.5t27.5 -173q0 -78 -15.5 -129t-29.5 -82h-747q-2 -12 -3.5 -22.5t-1.5 -24.5q0 -86 51.5 -130t125.5 -44q66 0 132 35t99 94l262 -78q-86 -127 -230.5 -206.5t-324.5 -79.5q-154 0 -254 58t-147 157 q-49 -57 -107.5 -98.5t-119 -67t-118 -37.5t-104.5 -12zM416 215q31 0 66.5 9t69.5 23.5t62.5 34t47.5 42.5q-2 10 -3.5 20t-1.5 23q0 23 3.5 47t7.5 53q-35 14 -77 22.5t-79 8.5q-43 0 -83 -13.5t-70.5 -36t-48 -54.5t-17.5 -68q0 -47 32 -79t91 -32zM1456 635q2 10 2 19.5 v23.5q0 82 -43 132t-121 50q-86 0 -155.5 -61.5t-98.5 -163.5h416z" />
<glyph unicode="&#x1fe;" horiz-adv-x="1501" d="M1599 1454l-215 -242q47 -78 72 -169t25 -189q0 -164 -71 -319.5t-190.5 -277.5t-275.5 -195.5t-328 -73.5q-78 0 -143 17.5t-123 47.5l-47 -53h-360l217 244q-47 76 -69.5 165t-22.5 187q0 111 32.5 217.5t91 202.5t138.5 178t177 141.5t205.5 93t223.5 33.5 q72 0 136.5 -17.5t117.5 -45.5l49 55h360zM682 287q106 0 190 51t142.5 130t90.5 175t32 188q0 53 -9 95l-553 -619q44 -20 107 -20zM412 623q0 -45 6 -88l547 610q-43 18 -99 18q-104 0 -189 -50t-143.5 -128t-90 -174t-31.5 -188zM1040 1581l-217 29l158 266h295z" />
<glyph unicode="&#x1ff;" d="M104 150q-41 57 -61 128.5t-20 149.5q0 127 49 247t139 214t216 150.5t280 56.5q86 0 152.5 -21.5t119.5 -58.5l74 69h178l-164 -153q43 -59 64.5 -132t21.5 -153q0 -127 -49 -246.5t-139.5 -213t-216 -150.5t-279.5 -57q-88 0 -157.5 21.5t-123.5 61.5l-79 -73h-177z M528 256q55 0 106.5 26.5t91.5 75t63.5 111.5t23.5 137q0 41 -10 78l-381 -387q45 -41 106 -41zM365 467q0 -37 6 -70l374 383q-41 37 -98 37q-55 0 -106.5 -26.5t-90 -74.5t-62 -111.5t-23.5 -137.5zM803 1200l-217 29l157 266h295z" />
<glyph unicode="&#x200;" horiz-adv-x="1312" d="M690 1454h305l189 -1454h-344l-31 326h-414l-166 -326h-346zM803 557l-41 514l-266 -514h307zM887 1880h241l29 -266l-174 -33zM539 1880h243l27 -266l-174 -33z" />
<glyph unicode="&#x201;" horiz-adv-x="1298" d="M403 -20q-90 0 -160.5 32.5t-119.5 91t-74.5 138.5t-25.5 174q0 135 48 259t128 217t186.5 148.5t222.5 55.5q104 0 178 -53.5t103 -143.5l37 170h329l-151 -700q-2 -14 -3 -23.5t-1 -19.5q0 -47 51 -50l-57 -276q-47 -10 -81 -13t-59 -3q-80 0 -127 31.5t-47 105.5 q0 20 6 57q-76 -100 -177.5 -149t-205.5 -49zM551 256q61 0 124.5 40t110.5 110l48 225q-10 82 -61.5 134t-117.5 52q-55 0 -107 -29.5t-92 -77.5t-63.5 -110.5t-23.5 -130.5q0 -92 48 -152.5t134 -60.5zM715 1495h241l29 -266l-174 -33zM367 1495h243l27 -266l-174 -33z " />
<glyph unicode="&#x202;" horiz-adv-x="1312" d="M690 1454h305l189 -1454h-344l-31 326h-414l-166 -326h-346zM803 557l-41 514l-266 -514h307zM582 1575q14 66 47 121t80 95t104 62.5t121 22.5q111 0 171 -67.5t60 -166.5q0 -31 -6 -67h-172q6 33 6 61q0 96 -90 97q-53 0 -94 -36t-57 -122h-170z" />
<glyph unicode="&#x203;" horiz-adv-x="1298" d="M403 -20q-90 0 -160.5 32.5t-119.5 91t-74.5 138.5t-25.5 174q0 135 48 259t128 217t186.5 148.5t222.5 55.5q104 0 178 -53.5t103 -143.5l37 170h329l-151 -700q-2 -14 -3 -23.5t-1 -19.5q0 -47 51 -50l-57 -276q-47 -10 -81 -13t-59 -3q-80 0 -127 31.5t-47 105.5 q0 20 6 57q-76 -100 -177.5 -149t-205.5 -49zM551 256q61 0 124.5 40t110.5 110l48 225q-10 82 -61.5 134t-117.5 52q-55 0 -107 -29.5t-92 -77.5t-63.5 -110.5t-23.5 -130.5q0 -92 48 -152.5t134 -60.5zM395 1194q14 66 47 121t80 95t104.5 62.5t121.5 22.5 q111 0 171 -67.5t60 -165.5q0 -31 -6 -68h-172q6 33 6 61q0 96 -90 97q-53 0 -94 -36t-58 -122h-170z" />
<glyph unicode="&#x204;" horiz-adv-x="1179" d="M850 1880h242l28 -266l-174 -33zM502 1880h243l27 -266l-174 -33zM317 1454h957l-64 -295h-620l-60 -282h533l-57 -273h-533l-67 -309h638l-61 -295h-975z" />
<glyph unicode="&#x205;" horiz-adv-x="1142" d="M762 1495h242l28 -266l-174 -33zM414 1495h243l27 -266l-174 -33zM475 -20q-104 0 -188 33.5t-142.5 93t-89 143.5t-30.5 184q0 135 53 256t147 211t220 142.5t272 52.5q186 0 291.5 -80t105.5 -228q0 -176 -159.5 -266t-479.5 -90h-54.5t-55.5 2q0 -109 38.5 -164 t131.5 -55q74 0 136 35t101 96l258 -82q-43 -63 -104.5 -115.5t-134 -90.5t-153.5 -58t-163 -20zM664 860q-92 0 -159 -63.5t-104 -161.5h74q180 0 252 30.5t72 94.5q0 47 -38 73.5t-97 26.5z" />
<glyph unicode="&#x206;" horiz-adv-x="1179" d="M532 1575q14 66 47 121t80.5 95t104.5 62.5t121 22.5q111 0 171 -67.5t60 -166.5q0 -31 -6 -67h-172q6 33 6 61q0 96 -90 97q-53 0 -94 -36t-58 -122h-170zM317 1454h957l-64 -295h-620l-60 -282h533l-57 -273h-533l-67 -309h638l-61 -295h-975z" />
<glyph unicode="&#x207;" horiz-adv-x="1142" d="M461 1194q14 66 47 121t80 95t104.5 62.5t120.5 22.5q111 0 171 -67.5t60 -165.5q0 -31 -6 -68h-172q6 33 6 61q0 96 -90 97q-53 0 -94 -36t-57 -122h-170zM475 -20q-104 0 -188 33.5t-142.5 93t-89 143.5t-30.5 184q0 135 53 256t147 211t220 142.5t272 52.5 q186 0 291.5 -80t105.5 -228q0 -176 -159.5 -266t-479.5 -90h-54.5t-55.5 2q0 -109 38.5 -164t131.5 -55q74 0 136 35t101 96l258 -82q-43 -63 -104.5 -115.5t-134 -90.5t-153.5 -58t-163 -20zM664 860q-92 0 -159 -63.5t-104 -161.5h74q180 0 252 30.5t72 94.5 q0 47 -38 73.5t-97 26.5z" />
<glyph unicode="&#x208;" horiz-adv-x="614" d="M317 1454h336l-309 -1454h-336zM545 1880h241l29 -266l-174 -33zM197 1880h243l27 -266l-174 -33z" />
<glyph unicode="&#x209;" horiz-adv-x="548" d="M444 1495h242l29 -266l-174 -33zM96 1495h244l27 -266l-174 -33zM209 1075h328l-230 -1075h-327z" />
<glyph unicode="&#x20a;" horiz-adv-x="614" d="M317 1454h336l-309 -1454h-336zM223 1575q14 66 47 121t80 95t104.5 62.5t120.5 22.5q111 0 171.5 -67.5t60.5 -166.5q0 -31 -6 -67h-172q6 33 6 61q0 96 -90 97q-53 0 -94 -36t-58 -122h-170z" />
<glyph unicode="&#x20b;" horiz-adv-x="548" d="M123 1194q14 66 47 121t80 95t104.5 62.5t120.5 22.5q111 0 171.5 -67.5t60.5 -165.5q0 -31 -7 -68h-172q6 33 7 61q0 96 -91 97q-53 0 -94 -36t-57 -122h-170zM209 1075h328l-230 -1075h-327z" />
<glyph unicode="&#x20c;" horiz-adv-x="1501" d="M1036 1880h242l29 -266l-174 -33zM688 1880h244l26 -266l-174 -33zM616 -12q-133 0 -235 50t-172 135t-105.5 194.5t-35.5 228.5q0 111 32.5 217.5t91 202.5t138.5 178t177 141.5t205.5 93t223.5 33.5q131 0 233.5 -51t171 -135t104.5 -194.5t36 -227.5 q0 -164 -71 -319.5t-190.5 -277.5t-275.5 -195.5t-328 -73.5zM682 287q106 0 190 51t142.5 130t90.5 175t32 188q0 68 -16.5 127.5t-49.5 105.5t-84 72.5t-121 26.5q-104 0 -189 -50t-143.5 -128t-90 -174t-31.5 -188q0 -68 16 -128.5t49 -106.5t84 -73.5t121 -27.5z" />
<glyph unicode="&#x20d;" d="M770 1495h242l28 -266l-174 -33zM422 1495h244l26 -266l-174 -33zM469 -20q-113 0 -197 35.5t-139 97t-82.5 142.5t-27.5 173q0 127 49 247t139 214t216 150.5t280 56.5q111 0 194.5 -36t140 -97.5t84 -142.5t27.5 -173q0 -127 -49 -246.5t-139.5 -213t-216 -150.5 t-279.5 -57zM528 256q55 0 106.5 26.5t90.5 75t62.5 111.5t23.5 137q0 96 -44 153.5t-120 57.5q-55 0 -106.5 -26.5t-90 -74.5t-62 -111.5t-23.5 -137.5q0 -96 43.5 -153.5t119.5 -57.5z" />
<glyph unicode="&#x20e;" horiz-adv-x="1501" d="M680 1575q14 66 47 121t80 95t104.5 62.5t120.5 22.5q111 0 171.5 -67.5t60.5 -166.5q0 -31 -7 -67h-172q6 33 7 61q0 96 -91 97q-53 0 -94 -36t-57 -122h-170zM616 -12q-133 0 -235 50t-172 135t-105.5 194.5t-35.5 228.5q0 111 32.5 217.5t91 202.5t138.5 178 t177 141.5t205.5 93t223.5 33.5q131 0 233.5 -51t171 -135t104.5 -194.5t36 -227.5q0 -164 -71 -319.5t-190.5 -277.5t-275.5 -195.5t-328 -73.5zM682 287q106 0 190 51t142.5 130t90.5 175t32 188q0 68 -16.5 127.5t-49.5 105.5t-84 72.5t-121 26.5q-104 0 -189 -50 t-143.5 -128t-90 -174t-31.5 -188q0 -68 16 -128.5t49 -106.5t84 -73.5t121 -27.5z" />
<glyph unicode="&#x20f;" d="M455 1194q14 66 47 121t80 95t104 62.5t121 22.5q111 0 171 -67.5t60 -165.5q0 -31 -6 -68h-172q6 33 6 61q0 96 -90 97q-53 0 -94 -36t-57 -122h-170zM469 -20q-113 0 -197 35.5t-139 97t-82.5 142.5t-27.5 173q0 127 49 247t139 214t216 150.5t280 56.5 q111 0 194.5 -36t140 -97.5t84 -142.5t27.5 -173q0 -127 -49 -246.5t-139.5 -213t-216 -150.5t-279.5 -57zM528 256q55 0 106.5 26.5t90.5 75t62.5 111.5t23.5 137q0 96 -44 153.5t-120 57.5q-55 0 -106.5 -26.5t-90 -74.5t-62 -111.5t-23.5 -137.5q0 -96 43.5 -153.5 t119.5 -57.5z" />
<glyph unicode="&#x210;" horiz-adv-x="1325" d="M862 1880h242l29 -266l-175 -33zM514 1880h244l26 -266l-174 -33zM8 0l309 1454h625q86 0 152.5 -35t112.5 -92t71 -131t25 -152q0 -76 -24 -149.5t-66 -140t-100 -121.5t-128 -92l186 -541h-378l-160 469h-191l-98 -469h-336zM784 762q31 0 62 19.5t55.5 53t39.5 78.5 t15 97q0 68 -28.5 108.5t-69.5 40.5h-268l-84 -397h278z" />
<glyph unicode="&#x211;" horiz-adv-x="802" d="M547 1495h241l29 -266l-174 -33zM199 1495h243l27 -266l-174 -33zM209 1075h301l-47 -217q78 109 173 170.5t187 61.5q39 0 47 -3l-61 -292q-111 -2 -208 -39t-157 -111l-137 -645h-327z" />
<glyph unicode="&#x212;" horiz-adv-x="1325" d="M563 1575q14 66 47 121t80 95t104.5 62.5t120.5 22.5q111 0 171.5 -67.5t60.5 -166.5q0 -31 -6 -67h-172q6 33 6 61q0 96 -90 97q-53 0 -94 -36t-58 -122h-170zM8 0l309 1454h625q86 0 152.5 -35t112.5 -92t71 -131t25 -152q0 -76 -24 -149.5t-66 -140t-100 -121.5 t-128 -92l186 -541h-378l-160 469h-191l-98 -469h-336zM784 762q31 0 62 19.5t55.5 53t39.5 78.5t15 97q0 68 -28.5 108.5t-69.5 40.5h-268l-84 -397h278z" />
<glyph unicode="&#x213;" horiz-adv-x="802" d="M260 1194q14 66 47 121t80 95t104.5 62.5t120.5 22.5q111 0 171.5 -67.5t60.5 -165.5q0 -31 -6 -68h-172q6 33 6 61q0 96 -90 97q-53 0 -94.5 -36t-57.5 -122h-170zM209 1075h301l-47 -217q78 109 173 170.5t187 61.5q39 0 47 -3l-61 -292q-111 -2 -208 -39t-157 -111 l-137 -645h-327z" />
<glyph unicode="&#x214;" horiz-adv-x="1466" d="M969 1880h241l29 -266l-174 -33zM621 1880h243l27 -266l-174 -33zM598 -12q-133 0 -225 37.5t-150.5 104.5t-85 158t-26.5 195q0 111 24 228l160 743h336l-160 -743q-18 -90 -18 -166q0 -55 11 -102.5t35.5 -82t64.5 -54t98 -19.5q78 0 139 35.5t106 95t76 136.5t49 157 l158 743h336l-158 -743q-33 -152 -97.5 -283t-160.5 -229.5t-224 -154.5t-288 -56z" />
<glyph unicode="&#x215;" horiz-adv-x="1241" d="M745 1495h242l29 -266l-174 -33zM397 1495h244l27 -266l-174 -33zM285 -20q-125 0 -188.5 65.5t-63.5 192.5q0 66 18 149l148 688h325l-131 -616q-10 -51 -10 -80q0 -123 102 -123q55 0 118 35t126 121l141 663h328l-149 -706q-6 -29 -7 -43q0 -47 54 -50l-60 -276 q-45 -10 -78.5 -13t-60.5 -3q-78 0 -127 30.5t-49 100.5q0 12 3 27.5t7 43.5q-92 -106 -204.5 -156t-241.5 -50z" />
<glyph unicode="&#x216;" horiz-adv-x="1466" d="M655 1575q14 66 47 121t80 95t104.5 62.5t121.5 22.5q111 0 171 -67.5t60 -166.5q0 -31 -6 -67h-172q6 33 6 61q0 96 -90 97q-53 0 -94 -36t-58 -122h-170zM598 -12q-133 0 -225 37.5t-150.5 104.5t-85 158t-26.5 195q0 111 24 228l160 743h336l-160 -743 q-18 -90 -18 -166q0 -55 11 -102.5t35.5 -82t64.5 -54t98 -19.5q78 0 139 35.5t106 95t76 136.5t49 157l158 743h336l-158 -743q-33 -152 -97.5 -283t-160.5 -229.5t-224 -154.5t-288 -56z" />
<glyph unicode="&#x217;" horiz-adv-x="1241" d="M428 1194q14 66 47 121t80 95t104.5 62.5t120.5 22.5q111 0 171.5 -67.5t60.5 -165.5q0 -31 -6 -68h-172q6 33 6 61q0 96 -90 97q-53 0 -94.5 -36t-57.5 -122h-170zM285 -20q-125 0 -188.5 65.5t-63.5 192.5q0 66 18 149l148 688h325l-131 -616q-10 -51 -10 -80 q0 -123 102 -123q55 0 118 35t126 121l141 663h328l-149 -706q-6 -29 -7 -43q0 -47 54 -50l-60 -276q-45 -10 -78.5 -13t-60.5 -3q-78 0 -127 30.5t-49 100.5q0 12 3 27.5t7 43.5q-92 -106 -204.5 -156t-241.5 -50z" />
<glyph unicode="&#x218;" horiz-adv-x="1216" d="M299 -436l92 137h-96l43 203h272l-43 -203l-125 -137h-143zM500 -16q-154 0 -301.5 47t-253.5 133l209 293q4 -10 39.5 -39t92 -57.5t130 -51t153.5 -22.5q98 0 139.5 35.5t41.5 93.5q0 35 -22.5 58.5t-62.5 43t-92.5 36.5t-111.5 38q-147 53 -220 124.5t-73 192.5 q0 131 53 235.5t140.5 175.5t200 108.5t231.5 37.5q74 0 141 -14t126.5 -36.5t110 -51.5t91.5 -57l-205 -279q-4 8 -34 30.5t-77 47t-106.5 43t-120.5 18.5q-86 0 -134 -37.5t-48 -105.5q0 -59 63.5 -89t179.5 -67q78 -25 142.5 -54.5t110.5 -70.5t70.5 -96t24.5 -131 q0 -145 -55 -246.5t-145 -165t-202.5 -92t-225.5 -28.5z" />
<glyph unicode="&#x219;" horiz-adv-x="987" d="M164 -436l92 137h-96l43 203h272l-43 -203l-125 -137h-143zM383 -20q-129 0 -247 44t-189 128l157 200q78 -68 160 -104.5t162 -36.5q66 0 98.5 27.5t32.5 74.5q0 35 -34 58.5t-117 50.5q-84 27 -144.5 52.5t-99.5 55t-57.5 65.5t-18.5 83q0 90 40 167t107.5 132 t157.5 87t193 32q115 0 208 -33t171 -119l-168 -196q-76 63 -137.5 91.5t-122.5 28.5q-55 0 -92 -26.5t-37 -79.5q0 -35 34.5 -56.5t114.5 -43.5q176 -51 254 -110.5t78 -162.5q0 -90 -37 -166t-103.5 -130t-158.5 -83.5t-205 -29.5z" />
<glyph unicode="&#x21a;" horiz-adv-x="1220" d="M281 -436l92 137h-97l43 203h273l-43 -203l-125 -137h-143zM559 1159h-416l62 295h1165l-61 -295h-414l-248 -1159h-336z" />
<glyph unicode="&#x21b;" horiz-adv-x="802" d="M143 -436l93 137h-97l43 203h273l-43 -203l-125 -137h-144zM334 -20q-104 0 -172 46t-68 156q0 43 8 84l119 561h-129l55 248h127l74 342h328l-74 -342h207l-53 -248h-207l-94 -448q-2 -10 -3 -18.5t-1 -16.5q0 -35 19 -50t50 -15q33 0 74 12t76 26v-260 q-74 -33 -162 -55t-174 -22z" />
<glyph unicode="&#x237;" horiz-adv-x="548" d="M-164 -414q-78 0 -143.5 26t-112.5 77l184 223q14 -23 38 -33t53 -10q43 0 76.5 30.5t43.5 82.5l232 1093h330l-228 -1069q-20 -92 -65 -170t-108.5 -133t-140.5 -86t-159 -31z" />
<glyph unicode="&#x259;" horiz-adv-x="1196" d="M457 -20q-113 0 -197 32.5t-140.5 90t-84 134t-27.5 166.5q0 57 12.5 120t32.5 116h746q2 10 2 21.5v21.5q0 86 -50.5 131t-119.5 45q-68 0 -134.5 -35t-99.5 -94l-262 80q86 125 230.5 206t326.5 81q111 0 195 -36t140 -96.5t85 -141.5t29 -173q0 -127 -49.5 -247.5 t-138.5 -215t-215.5 -150.5t-280.5 -56zM510 215q86 0 153.5 60.5t98.5 162.5h-412q-2 -10 -2 -20v-21q0 -86 43 -134t119 -48z" />
<glyph unicode="&#x2bc;" horiz-adv-x="1054" d="M475 1229l100 164v102h353l-258 -324z" />
<glyph unicode="&#x2c6;" horiz-adv-x="757" d="M63 1274l263 221h233l168 -221l-182 -74l-137 129l-193 -129z" />
<glyph unicode="&#x2c7;" horiz-adv-x="757" d="M72 1419l182 76l137 -129l193 129l153 -76l-262 -219h-235z" />
<glyph unicode="&#x2c9;" horiz-adv-x="839" d="M164 1468h596l-43 -198h-594z" />
<glyph unicode="&#x2d8;" horiz-adv-x="686" d="M334 1337q43 0 85 44t64 114h172q-14 -66 -47 -121t-80 -95t-104 -62.5t-121 -22.5q-111 0 -173 61.5t-62 163.5q0 18 3 37t7 39h172q-6 -23 -6 -43q0 -49 24.5 -82t65.5 -33z" />
<glyph unicode="&#x2d9;" horiz-adv-x="487" d="M80 1214l59 281h295l-59 -281h-295z" />
<glyph unicode="&#x2da;" horiz-adv-x="524" d="M63 1294q0 98 71 149.5t183 51.5q86 0 133.5 -35t47.5 -100q0 -96 -71 -147.5t-181 -51.5q-86 0 -134.5 33.5t-48.5 99.5zM295 1399q-37 0 -64.5 -23.5t-27.5 -58.5q0 -27 17.5 -43.5t45.5 -16.5q35 0 64.5 24t29.5 60q0 25 -18 41.5t-47 16.5z" />
<glyph unicode="&#x2db;" horiz-adv-x="614" d="M315 -418q-117 16 -173 62.5t-56 105.5q0 74 78 152t231 145l88 -45q-182 -104 -182 -180q0 -29 27.5 -47.5t87.5 -20.5l-101 -172v0z" />
<glyph unicode="&#x2dc;" horiz-adv-x="882" d="M555 1204q-45 0 -75.5 14.5t-56.5 33t-50.5 32.5t-57.5 14t-54 -14t-33.5 -32.5t-17.5 -34t-5 -17.5h-178q4 23 27.5 71t64.5 97t97 86t126 37q47 0 78 -15.5t55.5 -34t48 -33.5t58.5 -15q33 0 56.5 15t37.5 33.5t21.5 35t7.5 18.5h174q-4 -16 -28 -63.5t-66 -98.5 t-100 -90t-130 -39z" />
<glyph unicode="&#x2dd;" horiz-adv-x="749" d="M188 1204l-165 25l139 266h244zM537 1204l-166 25l137 266h246z" />
<glyph unicode="&#x30f;" horiz-adv-x="749" d="M426 1495h242l28 -266l-174 -33zM78 1495h244l26 -266l-174 -33z" />
<glyph unicode="&#x311;" horiz-adv-x="686" d="M66 1194q14 66 46.5 121t80 95t104.5 62.5t121 22.5q111 0 171 -67.5t60 -165.5q0 -31 -6 -68h-172q6 33 6 61q0 96 -90 97q-53 0 -94 -36t-57 -122h-170v0z" />
<glyph unicode="&#x394;" horiz-adv-x="1316" d="M-29 258l502 1196h272l500 -1196v-258h-1274v258zM922 295l-314 788l-305 -788h619z" />
<glyph unicode="&#x3a9;" horiz-adv-x="1685" d="M82 233h324q-141 82 -222.5 218.5t-81.5 310.5q0 139 54.5 266t149.5 224.5t225.5 154.5t283.5 57q152 0 282 -57t225 -154.5t149.5 -224.5t54.5 -266q0 -174 -81 -310.5t-222 -218.5h323v-233h-649v233q68 27 123 81.5t94 126t59.5 154.5t20.5 167q0 76 -25.5 147.5 t-75 129t-120 92t-158.5 34.5q-90 0 -160.5 -34.5t-120 -92t-75 -129t-25.5 -147.5q0 -84 20.5 -167t59.5 -154.5t94.5 -126t124.5 -81.5v-233h-651v233z" />
<glyph unicode="&#x3bc;" horiz-adv-x="1265" d="M207 1075h328l-132 -616q-10 -51 -10 -82q0 -121 109 -121q51 0 112.5 35t124.5 121l142 663h327l-149 -706q-6 -23 -6 -39q0 -51 69 -54l-59 -276q-51 -10 -89 -13t-67 -3q-172 0 -172 131q0 4 1 26.5t7 44.5q-18 -31 -53 -66.5t-79 -66t-93 -52t-94 -21.5 q-59 0 -89 26.5t-32 71.5l-90 -514h-328z" />
<glyph unicode="&#x3c0;" horiz-adv-x="1484" d="M1075 -18q-141 0 -217 73.5t-76 212.5v523h-211v-791h-323v791h-150v278h1192v-278h-182v-408q0 -123 106 -123q25 0 53.5 7t53.5 22l45 -246q-63 -29 -143 -45t-148 -16z" />
<glyph unicode="&#x1e0c;" horiz-adv-x="1419" d="M317 -418l60 281h295l-60 -281h-295zM317 1454h521q141 0 246.5 -44t174 -120t102.5 -179t34 -222q0 -193 -65.5 -355.5t-182.5 -281.5t-275.5 -185.5t-343.5 -66.5h-520zM590 295q102 0 186 44t144.5 120t93.5 174t33 207q0 143 -69 231t-204 88h-184l-184 -864h184z " />
<glyph unicode="&#x1e0d;" horiz-adv-x="1298" d="M295 -418l59 281h295l-59 -281h-295zM403 -20q-90 0 -160.5 32.5t-119.5 91t-74.5 138.5t-25.5 174q0 135 48 259t128 217t186.5 148.5t222.5 55.5q104 0 178 -53.5t103 -143.5l127 596h330l-242 -1126q-2 -14 -3 -23.5t-1 -19.5q0 -47 51 -50l-57 -276q-47 -10 -81 -13 t-59 -3q-78 0 -127 30.5t-49 100.5q0 25 8 63q-76 -100 -177.5 -149t-205.5 -49zM551 256q61 0 124.5 40t110.5 110l48 225q-10 82 -61.5 134t-117.5 52q-55 0 -107 -29.5t-92 -77.5t-63.5 -110.5t-23.5 -130.5q0 -92 48 -152.5t134 -60.5z" />
<glyph unicode="&#x1e24;" horiz-adv-x="1476" d="M317 1454h336l-121 -563h527l121 563h336l-310 -1454h-336l127 596h-526l-127 -596h-336zM367 -418l59 281h295l-59 -281h-295z" />
<glyph unicode="&#x1e25;" d="M297 1495h328l-127 -600q76 96 178 148.5t215 52.5q74 0 122 -20.5t77.5 -54.5t41 -79t11.5 -94q0 -39 -5 -79t-14 -81l-145 -688h-328l129 604q4 23 6 42.5t2 37.5q0 63 -28.5 93t-77.5 30q-25 0 -57.5 -13.5t-66.5 -39t-65.5 -60.5t-54.5 -78l-131 -616h-327zM246 -418 l59 281h295l-59 -281h-295z" />
<glyph unicode="&#x1e44;" horiz-adv-x="1492" d="M793 1595l59 281h295l-60 -281h-294zM317 1454h263l436 -854l180 854h336l-309 -1454h-267l-436 831l-176 -831h-336z" />
<glyph unicode="&#x1e45;" d="M569 1214l60 281h295l-60 -281h-295zM209 1075h295l-39 -180q76 96 188.5 148.5t247.5 52.5q72 0 118 -20.5t73.5 -54.5t39 -79t11.5 -94q0 -41 -5 -81t-14 -79l-145 -688h-328l129 604q8 41 8 82q0 63 -26.5 92t-71.5 29q-59 0 -133 -53.5t-119 -137.5l-131 -616h-327z " />
<glyph unicode="&#x1e5a;" horiz-adv-x="1325" d="M8 0l309 1454h625q86 0 152.5 -35t112.5 -92t71 -131t25 -152q0 -76 -24 -149.5t-66 -140t-100 -121.5t-128 -92l186 -541h-378l-160 469h-191l-98 -469h-336zM784 762q31 0 62 19.5t55.5 53t39.5 78.5t15 97q0 68 -28.5 108.5t-69.5 40.5h-268l-84 -397h278zM305 -418 l60 281h294l-59 -281h-295z" />
<glyph unicode="&#x1e5b;" horiz-adv-x="802" d="M209 1075h301l-47 -217q78 109 173 170.5t187 61.5q39 0 47 -3l-61 -292q-111 -2 -208 -39t-157 -111l-137 -645h-327zM-88 -418l59 281h295l-59 -281h-295z" />
<glyph unicode="&#x1e62;" horiz-adv-x="1216" d="M500 -16q-154 0 -301.5 47t-253.5 133l209 293q4 -10 39.5 -39t92 -57.5t130 -51t153.5 -22.5q98 0 139.5 35.5t41.5 93.5q0 35 -22.5 58.5t-62.5 43t-92.5 36.5t-111.5 38q-147 53 -220 124.5t-73 192.5q0 131 53 235.5t140.5 175.5t200 108.5t231.5 37.5q74 0 141 -14 t126.5 -36.5t110 -51.5t91.5 -57l-205 -279q-4 8 -34 30.5t-77 47t-106.5 43t-120.5 18.5q-86 0 -134 -37.5t-48 -105.5q0 -59 63.5 -89t179.5 -67q78 -25 142.5 -54.5t110.5 -70.5t70.5 -96t24.5 -131q0 -145 -55 -246.5t-145 -165t-202.5 -92t-225.5 -28.5zM264 -418 l60 281h294l-59 -281h-295z" />
<glyph unicode="&#x1e63;" horiz-adv-x="987" d="M383 -20q-129 0 -247 44t-189 128l157 200q78 -68 160 -104.5t162 -36.5q66 0 98.5 27.5t32.5 74.5q0 35 -34 58.5t-117 50.5q-84 27 -144.5 52.5t-99.5 55t-57.5 65.5t-18.5 83q0 90 40 167t107.5 132t157.5 87t193 32q115 0 208 -33t171 -119l-168 -196 q-76 63 -137.5 91.5t-122.5 28.5q-55 0 -92 -26.5t-37 -79.5q0 -35 34.5 -56.5t114.5 -43.5q176 -51 254 -110.5t78 -162.5q0 -90 -37 -166t-103.5 -130t-158.5 -83.5t-205 -29.5zM129 -418l59 281h295l-59 -281h-295z" />
<glyph unicode="&#x1e6c;" horiz-adv-x="1220" d="M244 -418l59 281h295l-59 -281h-295zM559 1159h-416l62 295h1165l-61 -295h-414l-248 -1159h-336z" />
<glyph unicode="&#x1e6d;" horiz-adv-x="802" d="M96 -418l60 281h295l-60 -281h-295zM334 -20q-104 0 -172 46t-68 156q0 43 8 84l119 561h-129l55 248h127l74 342h328l-74 -342h207l-53 -248h-207l-94 -448q-2 -10 -3 -18.5t-1 -16.5q0 -35 19 -50t50 -15q33 0 74 12t76 26v-260q-74 -33 -162 -55t-174 -22z" />
<glyph unicode="&#x1e80;" horiz-adv-x="2052" d="M156 1454h364l107 -1069l209 391l-82 676h307l37 -465l233 465h309l-374 -676l47 -391l559 1069h369l-861 -1454h-278l-94 569l-332 -569h-281zM1032 1878h295l45 -266l-227 -33z" />
<glyph unicode="&#x1e81;" horiz-adv-x="1642" d="M78 1075h315l105 -778q10 12 30.5 50t44 81t43 81t27.5 50l-98 516h272l37 -325q6 12 28.5 60t48 102.5t46 102.5t24.5 60h252q-55 -147 -115.5 -268t-146.5 -246l35 -190q82 109 139.5 191.5t101.5 159.5t81.5 160t81.5 193h296q-100 -268 -273 -537.5t-409 -537.5h-215 l-51 377q-6 -8 -22.5 -37t-38 -68t-47 -84t-48 -83.5t-39 -68.5t-22.5 -36h-282zM739 1495h295l45 -266l-227 -33z" />
<glyph unicode="&#x1e82;" horiz-adv-x="2052" d="M1288 1581l-217 29l158 266h295zM156 1454h364l107 -1069l209 391l-82 676h307l37 -465l233 465h309l-374 -676l47 -391l559 1069h369l-861 -1454h-278l-94 569l-332 -569h-281z" />
<glyph unicode="&#x1e83;" horiz-adv-x="1642" d="M997 1200l-217 29l158 266h295zM78 1075h315l105 -778q10 12 30.5 50t44 81t43 81t27.5 50l-98 516h272l37 -325q6 12 28.5 60t48 102.5t46 102.5t24.5 60h252q-55 -147 -115.5 -268t-146.5 -246l35 -190q82 109 139.5 191.5t101.5 159.5t81.5 160t81.5 193h296 q-100 -268 -273 -537.5t-409 -537.5h-215l-51 377q-6 -8 -22.5 -37t-38 -68t-47 -84t-48 -83.5t-39 -68.5t-22.5 -36h-282z" />
<glyph unicode="&#x1e84;" horiz-adv-x="2052" d="M877 1597l57 265h270l-57 -265h-270zM1296 1597l58 265h268l-55 -265h-271zM156 1454h364l107 -1069l209 391l-82 676h307l37 -465l233 465h309l-374 -676l47 -391l559 1069h369l-861 -1454h-278l-94 569l-332 -569h-281z" />
<glyph unicode="&#x1e85;" horiz-adv-x="1642" d="M590 1214l57 265h271l-58 -265h-270zM1010 1214l57 265h268l-55 -265h-270zM78 1075h315l105 -778q10 12 30.5 50t44 81t43 81t27.5 50l-98 516h272l37 -325q6 12 28.5 60t48 102.5t46 102.5t24.5 60h252q-55 -147 -115.5 -268t-146.5 -246l35 -190q82 109 139.5 191.5 t101.5 159.5t81.5 160t81.5 193h296q-100 -268 -273 -537.5t-409 -537.5h-215l-51 377q-6 -8 -22.5 -37t-38 -68t-47 -84t-48 -83.5t-39 -68.5t-22.5 -36h-282z" />
<glyph unicode="&#x1e92;" horiz-adv-x="1218" d="M-20 252l890 907h-669l61 295h1061l-55 -252l-858 -907h673l-61 -295h-1096zM244 -418l59 281h295l-59 -281h-295z" />
<glyph unicode="&#x1e93;" horiz-adv-x="964" d="M-39 197l639 651h-475l49 227h821l-43 -196l-639 -652h516l-49 -227h-862zM115 -418l59 281h295l-59 -281h-295z" />
<glyph unicode="&#x1eb8;" horiz-adv-x="1179" d="M317 1454h957l-64 -295h-620l-60 -282h533l-57 -273h-533l-67 -309h638l-61 -295h-975zM246 -418l59 281h295l-59 -281h-295z" />
<glyph unicode="&#x1eb9;" horiz-adv-x="1142" d="M475 -20q-104 0 -188 33.5t-142.5 93t-89 143.5t-30.5 184q0 135 53 256t147 211t220 142.5t272 52.5q186 0 291.5 -80t105.5 -228q0 -176 -159.5 -266t-479.5 -90h-54.5t-55.5 2q0 -109 38.5 -164t131.5 -55q74 0 136 35t101 96l258 -82q-43 -63 -104.5 -115.5 t-134 -90.5t-153.5 -58t-163 -20zM664 860q-92 0 -159 -63.5t-104 -161.5h74q180 0 252 30.5t72 94.5q0 47 -38 73.5t-97 26.5zM250 -418l59 281h295l-59 -281h-295z" />
<glyph unicode="&#x1ebc;" horiz-adv-x="1179" d="M317 1454h957l-64 -295h-620l-60 -282h533l-57 -273h-533l-67 -309h638l-61 -295h-975zM940 1585q-45 0 -75.5 14.5t-56.5 33t-50.5 32.5t-57.5 14t-54 -14t-33.5 -32.5t-17.5 -34t-5 -17.5h-178q4 23 27.5 71t64.5 97t97 86t126 37q47 0 78 -15.5t55.5 -34t48 -33.5 t58.5 -15q33 0 56.5 15t37.5 33.5t21.5 35t7.5 18.5h174q-4 -16 -28 -63.5t-66 -98.5t-100 -90t-130 -39z" />
<glyph unicode="&#x1ebd;" horiz-adv-x="1142" d="M475 -20q-104 0 -188 33.5t-142.5 93t-89 143.5t-30.5 184q0 135 53 256t147 211t220 142.5t272 52.5q186 0 291.5 -80t105.5 -228q0 -176 -159.5 -266t-479.5 -90h-54.5t-55.5 2q0 -109 38.5 -164t131.5 -55q74 0 136 35t101 96l258 -82q-43 -63 -104.5 -115.5 t-134 -90.5t-153.5 -58t-163 -20zM664 860q-92 0 -159 -63.5t-104 -161.5h74q180 0 252 30.5t72 94.5q0 47 -38 73.5t-97 26.5zM860 1204q-45 0 -75.5 14.5t-56.5 33t-50.5 32.5t-56.5 14q-33 0 -54.5 -14t-34 -32.5t-17.5 -34t-5 -17.5h-178q4 23 27.5 71t64.5 97t97.5 86 t125.5 37q47 0 78 -15.5t55.5 -34t48 -33.5t58.5 -15q33 0 56.5 15t37.5 33.5t21.5 35t7.5 18.5h174q-4 -16 -27.5 -63.5t-65.5 -98.5t-100.5 -90t-130.5 -39z" />
<glyph unicode="&#x1eca;" horiz-adv-x="614" d="M317 1454h336l-309 -1454h-336zM-55 -418l59 281h295l-59 -281h-295z" />
<glyph unicode="&#x1ecb;" horiz-adv-x="548" d="M209 1075h328l-230 -1075h-327zM297 1495h328l-64 -297h-328zM-88 -418l59 281h295l-59 -281h-295z" />
<glyph unicode="&#x1ecc;" horiz-adv-x="1501" d="M389 -418l60 281h294l-59 -281h-295zM616 -12q-133 0 -235 50t-172 135t-105.5 194.5t-35.5 228.5q0 111 32.5 217.5t91 202.5t138.5 178t177 141.5t205.5 93t223.5 33.5q131 0 233.5 -51t171 -135t104.5 -194.5t36 -227.5q0 -164 -71 -319.5t-190.5 -277.5 t-275.5 -195.5t-328 -73.5zM682 287q106 0 190 51t142.5 130t90.5 175t32 188q0 68 -16.5 127.5t-49.5 105.5t-84 72.5t-121 26.5q-104 0 -189 -50t-143.5 -128t-90 -174t-31.5 -188q0 -68 16 -128.5t49 -106.5t84 -73.5t121 -27.5z" />
<glyph unicode="&#x1ecd;" d="M252 -418l59 281h295l-59 -281h-295zM469 -20q-113 0 -197 35.5t-139 97t-82.5 142.5t-27.5 173q0 127 49 247t139 214t216 150.5t280 56.5q111 0 194.5 -36t140 -97.5t84 -142.5t27.5 -173q0 -127 -49 -246.5t-139.5 -213t-216 -150.5t-279.5 -57zM528 256 q55 0 106.5 26.5t90.5 75t62.5 111.5t23.5 137q0 96 -44 153.5t-120 57.5q-55 0 -106.5 -26.5t-90 -74.5t-62 -111.5t-23.5 -137.5q0 -96 43.5 -153.5t119.5 -57.5z" />
<glyph unicode="&#x1ee4;" horiz-adv-x="1466" d="M598 -12q-133 0 -225 37.5t-150.5 104.5t-85 158t-26.5 195q0 111 24 228l160 743h336l-160 -743q-18 -90 -18 -166q0 -55 11 -102.5t35.5 -82t64.5 -54t98 -19.5q78 0 139 35.5t106 95t76 136.5t49 157l158 743h336l-158 -743q-33 -152 -97.5 -283t-160.5 -229.5 t-224 -154.5t-288 -56zM360 -418l60 281h295l-60 -281h-295z" />
<glyph unicode="&#x1ee5;" horiz-adv-x="1241" d="M285 -20q-125 0 -188.5 65.5t-63.5 192.5q0 66 18 149l148 688h325l-131 -616q-10 -51 -10 -80q0 -123 102 -123q55 0 118 35t126 121l141 663h328l-149 -706q-6 -29 -7 -43q0 -47 54 -50l-60 -276q-45 -10 -78.5 -13t-60.5 -3q-78 0 -127 30.5t-49 100.5q0 12 3 27.5 t7 43.5q-92 -106 -204.5 -156t-241.5 -50zM240 -418l59 281h295l-59 -281h-295z" />
<glyph unicode="&#x1ef2;" horiz-adv-x="1275" d="M436 500l-278 954h364l142 -668l432 668h364l-692 -958l-104 -496h-336zM645 1878h295l45 -266l-227 -33z" />
<glyph unicode="&#x1ef3;" horiz-adv-x="1087" d="M-102 -227q61 2 104 9t76 21.5t59.5 38t55.5 60.5l59 75l-160 1098h334l59 -794l70 114q104 168 167.5 331t104.5 349h316q-29 -98 -59.5 -184t-78 -183.5t-116 -215t-168.5 -281.5l-164 -264q-72 -117 -141.5 -197t-143 -129t-155.5 -71.5t-180 -22.5zM459 1495h295 l45 -266l-228 -33z" />
<glyph unicode="&#x1ef8;" horiz-adv-x="1275" d="M436 500l-278 954h364l142 -668l432 668h364l-692 -958l-104 -496h-336zM961 1585q-45 0 -76 14.5t-56.5 33t-50 32.5t-57.5 14t-54.5 -14t-33.5 -32.5t-17.5 -34t-5.5 -17.5h-178q4 23 27.5 71t64.5 97t97.5 86t126.5 37q47 0 77.5 -15.5t55 -34t48 -33.5t58.5 -15 q33 0 56.5 15t38 33.5t21.5 35t7 18.5h174q-4 -16 -27.5 -63.5t-65.5 -98.5t-100 -90t-130 -39z" />
<glyph unicode="&#x1ef9;" horiz-adv-x="1087" d="M-102 -227q61 2 104 9t76 21.5t59.5 38t55.5 60.5l59 75l-160 1098h334l59 -794l70 114q104 168 167.5 331t104.5 349h316q-29 -98 -59.5 -184t-78 -183.5t-116 -215t-168.5 -281.5l-164 -264q-72 -117 -141.5 -197t-143 -129t-155.5 -71.5t-180 -22.5zM782 1204 q-45 0 -75.5 14.5t-56 33t-50.5 32.5t-57 14q-33 0 -54.5 -14t-34 -32.5t-17.5 -34t-5 -17.5h-178q4 23 27.5 71t64.5 97t97.5 86t125.5 37q47 0 78 -15.5t55.5 -34t48 -33.5t58.5 -15q33 0 56.5 15t38 33.5t21.5 35t7 18.5h174q-4 -16 -27.5 -63.5t-65.5 -98.5t-100.5 -90 t-130.5 -39z" />
<glyph unicode="&#x2000;" horiz-adv-x="952" />
<glyph unicode="&#x2001;" horiz-adv-x="1905" />
<glyph unicode="&#x2002;" horiz-adv-x="1193" />
<glyph unicode="&#x2003;" horiz-adv-x="1820" />
<glyph unicode="&#x2004;" horiz-adv-x="635" />
<glyph unicode="&#x2005;" horiz-adv-x="476" />
<glyph unicode="&#x2006;" horiz-adv-x="317" />
<glyph unicode="&#x2007;" horiz-adv-x="317" />
<glyph unicode="&#x2008;" horiz-adv-x="238" />
<glyph unicode="&#x2009;" horiz-adv-x="381" />
<glyph unicode="&#x200a;" horiz-adv-x="105" />
<glyph unicode="&#x2010;" horiz-adv-x="819" d="M66 416l63 295h602l-63 -295h-602z" />
<glyph unicode="&#x2011;" horiz-adv-x="819" d="M66 416l63 295h602l-63 -295h-602z" />
<glyph unicode="&#x2012;" horiz-adv-x="819" d="M66 416l63 295h602l-63 -295h-602z" />
<glyph unicode="&#x2013;" horiz-adv-x="1218" d="M66 416l63 295h999l-63 -295h-999z" />
<glyph unicode="&#x2014;" horiz-adv-x="1843" d="M66 416l63 295h1624l-63 -295h-1624z" />
<glyph unicode="&#x2018;" horiz-adv-x="546" d="M584 1495l-103 -258h92l-63 -301h-336l64 307l131 252h215z" />
<glyph unicode="&#x2019;" horiz-adv-x="524" d="M223 1026l103 258h-93l64 301h336l-64 -307l-131 -252h-215z" />
<glyph unicode="&#x201a;" horiz-adv-x="559" d="M-35 -287l109 287h-92l71 334h336l-72 -342l-137 -279h-215z" />
<glyph unicode="&#x201c;" horiz-adv-x="958" d="M584 1495l-103 -258h92l-63 -301h-336l64 307l131 252h215zM995 1495l-102 -258h92l-63 -301h-336l63 307l131 252h215z" />
<glyph unicode="&#x201d;" horiz-adv-x="1153" d="M635 1026l102 258h-92l64 301h335l-63 -307l-131 -252h-215zM223 1026l103 258h-93l64 301h336l-64 -307l-131 -252h-215z" />
<glyph unicode="&#x201e;" horiz-adv-x="978" d="M-35 -287l109 287h-92l71 334h336l-72 -342l-137 -279h-215zM385 -287l111 287h-95l72 334h336l-72 -342l-137 -279h-215z" />
<glyph unicode="&#x2020;" horiz-adv-x="964" d="M139 -266l144 674h-256l63 294h256l189 885h311l-191 -885h256l-61 -294h-256l-143 -674h-312z" />
<glyph unicode="&#x2021;" horiz-adv-x="1001" d="M162 -266l90 428h-256l61 295h258l50 229h-259l62 295h258l129 606h311l-129 -606h254l-61 -295h-256l-49 -229h256l-64 -295h-256l-90 -428h-309z" />
<glyph unicode="&#x2022;" horiz-adv-x="733" d="M610 760q0 -53 -22.5 -101.5t-61.5 -85t-88 -58t-100 -21.5q-78 0 -126 54t-48 132q0 53 23.5 101t61.5 84t86 57.5t99 21.5q80 0 128 -53t48 -131z" />
<glyph unicode="&#x2026;" horiz-adv-x="1329" d="M-18 0l69 334h268l-71 -334h-266zM401 0l72 334h266l-69 -334h-269zM823 0l70 334h268l-71 -334h-267z" />
<glyph unicode="&#x202f;" horiz-adv-x="381" />
<glyph unicode="&#x2030;" horiz-adv-x="2392" d="M467 842q-63 0 -114.5 20.5t-88.5 56t-56.5 84t-19.5 103.5q0 74 35 141.5t91.5 117.5t129 80t150.5 30q63 0 115.5 -20.5t89.5 -56.5t56 -84t19 -104q0 -74 -34.5 -141.5t-91 -117.5t-130 -79.5t-151.5 -29.5zM500 1001q25 0 51.5 16.5t48 43t34.5 61.5t13 74 q0 51 -22.5 85t-63.5 34q-25 0 -51.5 -16.5t-47 -43t-33.5 -61.5t-13 -74q0 -49 22.5 -84t61.5 -35zM1087 -20q-66 0 -116.5 20t-87.5 56t-56.5 84t-19.5 104q0 74 35 141.5t91 117.5t130 79.5t151 29.5q63 0 114.5 -20.5t88.5 -56t56.5 -84t19.5 -103.5q0 -74 -34 -141.5 t-91 -117.5t-130 -79.5t-151 -29.5zM1118 139q27 0 52.5 16.5t47 43t35 62.5t13.5 75q0 47 -22.5 82t-61.5 35q-27 0 -52.5 -16.5t-47 -43t-35 -61.5t-13.5 -74q0 -51 22.5 -85t61.5 -34zM1860 -20q-66 0 -118 20t-89 56t-56.5 83t-19.5 103q0 76 35 142.5t91 117.5 t130 80.5t152 29.5q63 0 115 -20.5t89 -56t56.5 -84t19.5 -103.5q0 -74 -35 -141.5t-91 -117.5t-129.5 -79.5t-149.5 -29.5zM1890 139q27 0 52.5 16.5t47 43t35 62.5t13.5 75q0 47 -22.5 82t-61.5 35q-27 0 -52.5 -16.5t-47 -43t-35 -61.5t-13.5 -74q0 -51 22.5 -85 t61.5 -34zM115 115l692 663l641 695l119 -132l-668 -645l-666 -714z" />
<glyph unicode="&#x2039;" horiz-adv-x="710" d="M66 600l612 395l-55 -264l-316 -201l232 -186l-56 -264l-452 364z" />
<glyph unicode="&#x203a;" horiz-adv-x="710" d="M606 444l-606 -364l55 264l312 186l-230 201l56 264l446 -395z" />
<glyph unicode="&#x2044;" horiz-adv-x="448" d="M-477 115l690 663l643 695l119 -132l-670 -645l-665 -714z" />
<glyph unicode="&#x205f;" horiz-adv-x="476" />
<glyph unicode="&#x2070;" horiz-adv-x="987" d="M528 780q-92 0 -157.5 34t-107.5 87t-62.5 118.5t-20.5 131.5q0 90 42 183t115 168t171 123t211 48q92 0 157.5 -33.5t107.5 -88t61.5 -121t19.5 -132.5q0 -90 -41 -181t-113.5 -167t-171 -123t-211.5 -47zM379 1178q0 -37 10 -75t33.5 -66.5t59.5 -47t87 -18.5 q72 0 127.5 30.5t93 76.5t57 98.5t19.5 97.5q0 39 -11 77t-33.5 66.5t-58.5 47t-85 18.5q-72 0 -128 -31t-94 -76t-57.5 -99t-19.5 -99z" />
<glyph unicode="&#x2074;" horiz-adv-x="831" d="M504 795l37 180h-422l41 186l590 514h131l-111 -514h123l-41 -186h-121l-39 -180h-188zM338 1161h252l59 285z" />
<glyph unicode="&#x2075;" horiz-adv-x="794" d="M571 1368q125 0 200 -66.5t75 -171.5q0 -76 -35 -139t-95.5 -110t-140 -74t-172.5 -27q-104 0 -183 39t-111 107l139 129q29 -41 82 -65.5t125 -24.5q39 0 74.5 9t62 27.5t43 47t16.5 67.5q0 57 -40 83t-83 26q-47 0 -101 -24.5t-83 -65.5h-164q25 63 55.5 132.5 t61.5 140.5t60.5 139.5t52.5 127.5h489l-41 -190h-352l-70 -146q20 10 53 19.5t82 9.5z" />
<glyph unicode="&#x2076;" horiz-adv-x="862" d="M911 1126q0 -72 -35.5 -136t-96 -112.5t-140.5 -77t-168 -28.5q-141 0 -216 83t-75 232q0 125 37 232.5t104.5 186.5t160.5 123t206 44q92 0 164 -31.5t113 -95.5l-138 -133q-25 37 -75 57.5t-111 20.5q-92 0 -158.5 -47t-89.5 -135q39 33 100.5 48t114.5 15 q70 0 126.5 -18.5t95 -52t60 -79t21.5 -96.5zM512 948q41 0 80 12.5t68.5 33t48 47t18.5 55.5q0 47 -45 78.5t-115 31.5q-43 0 -82 -11t-68.5 -30.5t-47 -45t-17.5 -54.5q0 -47 46 -82t114 -35z" />
<glyph unicode="&#x2077;" horiz-adv-x="800" d="M686 1485h-455l41 190h750l-682 -880h-215z" />
<glyph unicode="&#x2078;" horiz-adv-x="847" d="M885 1090q0 -66 -36 -122.5t-95.5 -98.5t-136 -65.5t-156.5 -23.5q-68 0 -125 18.5t-98 50.5t-64.5 76t-23.5 95q0 49 16 86t45 66.5t66.5 51t78.5 40.5q-41 18 -67.5 52t-26.5 85q0 59 36 109.5t92 86t125 56t132 20.5q53 0 105.5 -15.5t92.5 -43t64.5 -67.5t24.5 -87 q0 -72 -49 -120t-117 -76q53 -29 85 -72t32 -102zM694 1085q0 43 -46 68t-105 25q-37 0 -73 -8.5t-62.5 -24t-43 -35.5t-16.5 -45q0 -43 47 -68.5t107 -25.5q35 0 69.5 8t62.5 23.5t44 36.5t16 46zM451 1403q0 -33 38.5 -51.5t85.5 -18.5q27 0 55.5 6.5t52.5 17.5t39 27.5 t15 36.5q0 31 -37.5 49.5t-91.5 18.5q-59 0 -108 -22.5t-49 -63.5z" />
<glyph unicode="&#x2079;" horiz-adv-x="864" d="M209 1319q0 72 36 136.5t96 112.5t140 76.5t168 28.5q139 0 215 -84t76 -231q0 -127 -37 -233.5t-103.5 -185.5t-160.5 -123t-207 -44q-92 0 -163.5 33t-112.5 96l137 133q25 -39 74 -60.5t110 -21.5q94 0 161 49.5t87 135.5q-37 -31 -98.5 -47.5t-116.5 -16.5 q-139 0 -220 70t-81 176zM608 1497q-41 0 -78.5 -12t-67.5 -32.5t-48.5 -47.5t-18.5 -55q0 -47 45 -79t115 -32q41 0 79 11.5t67.5 30.5t48 45t18.5 54q0 47 -45 82t-115 35z" />
<glyph unicode="&#x2080;" horiz-adv-x="987" d="M324 -190q-92 0 -158 33.5t-109 87t-63.5 119t-20.5 130.5q0 90 42 183.5t115 168t171 122.5t213 48q90 0 155.5 -33.5t107.5 -88t62.5 -121t20.5 -131.5q0 -90 -41 -181.5t-113.5 -167t-170.5 -122.5t-211 -47zM172 207q0 -37 11.5 -75t35 -66.5t59 -47t87.5 -18.5 q72 0 127 30.5t93 76t57.5 98.5t19.5 98q0 39 -11.5 76t-35 66.5t-59.5 48t-85 18.5q-72 0 -128 -30.5t-94 -77t-57.5 -99.5t-19.5 -98z" />
<glyph unicode="&#x2081;" horiz-adv-x="694" d="M530 8l-38 -186h-568l41 186h195l106 498q-16 -14 -46 -32.5t-65.5 -35t-72.5 -28t-66 -11.5l39 191q37 0 81 18.5t83 40t64.5 41t25.5 21.5h193l-150 -703h178z" />
<glyph unicode="&#x2082;" horiz-adv-x="860" d="M-111 -178q18 86 44 149.5t66 111.5t98.5 85t140.5 70q55 20 107 40.5t94 44t67.5 53.5t25.5 73q0 41 -35.5 59t-97.5 18q-78 0 -144.5 -30.5t-111.5 -65.5l-90 141q25 25 65 50.5t93 45t117.5 33t138.5 13.5q141 0 213 -58.5t72 -167.5q0 -78 -28 -135t-73 -97 t-100 -65.5t-113 -42.5q-176 -53 -194 -139h413l-41 -186h-727z" />
<glyph unicode="&#x2083;" horiz-adv-x="815" d="M207 -190q-123 0 -201 38.5t-94 116.5l129 144q2 -8 14.5 -25.5t37 -36t61 -32t90.5 -13.5q80 0 141 24.5t61 75.5q0 47 -69.5 69t-196.5 22h-49l37 174h47q61 0 112.5 6t89.5 18t59.5 31.5t21.5 48.5q0 18 -12.5 30.5t-32 19.5t-42 11.5t-42.5 4.5q-78 0 -134.5 -27 t-103.5 -70l-86 156q31 29 72 50.5t88 36.5t98 23.5t100 8.5q68 0 123.5 -16.5t95.5 -44t62.5 -66.5t22.5 -84q0 -84 -63.5 -140.5t-170.5 -72.5q80 -12 123 -65.5t43 -123.5q0 -78 -39 -133t-100.5 -90t-139 -52t-153.5 -17z" />
<glyph unicode="&#x2084;" horiz-adv-x="829" d="M297 -176l37 180h-422l39 186l592 515h129l-109 -515h123l-41 -186h-121l-39 -180h-188zM131 190h250l61 283z" />
<glyph unicode="&#x2085;" horiz-adv-x="796" d="M367 395q125 0 200.5 -65.5t75.5 -169.5q0 -76 -35 -139.5t-95 -110.5t-141 -73.5t-171 -26.5q-106 0 -184 38.5t-113 104.5l139 131q31 -41 83 -65.5t124 -24.5q39 0 74.5 9t62.5 27.5t43 47t16 67.5q0 57 -39.5 83t-82.5 26q-47 0 -101.5 -24.5t-83.5 -65.5h-164 q25 63 55.5 133t61.5 140.5t60.5 139t54.5 128.5h487l-39 -191h-354l-70 -145q20 10 53.5 18t82.5 8z" />
<glyph unicode="&#x2086;" horiz-adv-x="862" d="M707 164q0 -72 -36 -136.5t-96.5 -112.5t-140.5 -76.5t-168 -28.5q-139 0 -215 82.5t-76 230.5q0 127 37 234.5t104.5 186.5t161 123t205.5 44q92 0 164 -33t113 -94l-137 -135q-25 39 -75 59t-112 20q-92 0 -158.5 -47t-87.5 -135q37 31 98.5 46.5t114.5 15.5 q141 0 222.5 -70t81.5 -174zM307 -14q41 0 80 12t68.5 31.5t48 46t18.5 57.5q0 47 -45 79t-115 32q-43 0 -81.5 -11.5t-68.5 -31t-47.5 -45t-17.5 -56.5q0 -47 46 -80.5t114 -33.5z" />
<glyph unicode="&#x2087;" horiz-adv-x="798" d="M479 514h-454l41 191h751l-684 -881h-215z" />
<glyph unicode="&#x2088;" horiz-adv-x="851" d="M680 119q0 -66 -36 -122t-95.5 -98t-136 -65.5t-156.5 -23.5q-68 0 -125 18t-98 50t-64.5 76t-23.5 95q0 49 16 86t45 66.5t67 51t79 40.5q-39 18 -67 52t-28 85q0 59 36 109.5t92.5 86.5t125 56t131.5 20q53 0 105.5 -15t92.5 -43t64.5 -67.5t24.5 -87.5 q0 -72 -49 -119.5t-117 -76.5q53 -29 85 -72t32 -102zM489 115q0 43 -46 67.5t-105 24.5q-37 0 -73 -8.5t-62.5 -23.5t-43 -36.5t-16.5 -46.5q0 -41 47.5 -66.5t106.5 -25.5q35 0 69.5 8t62.5 23.5t44 37t16 46.5zM246 432q0 -33 39 -51.5t86 -18.5q27 0 55.5 6.5t52 17.5 t38.5 26.5t15 36.5q0 33 -37.5 51t-91.5 18q-59 0 -108 -22.5t-49 -63.5z" />
<glyph unicode="&#x2089;" horiz-adv-x="862" d="M4 354q0 74 36 138.5t96.5 112.5t140 77t167.5 29q141 0 216 -84t75 -232q0 -127 -36.5 -233.5t-103.5 -185t-161 -122.5t-207 -44q-92 0 -163.5 32.5t-112.5 94.5l137 133q25 -37 74 -58.5t112 -21.5q92 0 159 48t87 136q-37 -33 -98.5 -49t-116.5 -16q-70 0 -125 18 t-94 52t-60.5 78t-21.5 97zM403 535q-41 0 -78.5 -12.5t-67.5 -33t-48.5 -47t-18.5 -55.5q0 -47 45.5 -79t114.5 -32q41 0 79 11.5t67.5 31t48 45t18.5 54.5q0 47 -45 82t-115 35z" />
<glyph unicode="&#x20a1;" horiz-adv-x="1136" d="M262 23q-117 55 -175 164.5t-58 244.5q0 100 31.5 196.5t91 180.5t143.5 148.5t188 99.5l56 264h147l-49 -229q18 2 37.5 3t40.5 1h19t20 -2l49 227h147l-55 -254q98 -33 157.5 -99.5t86.5 -156.5l-340 -96q-39 102 -146 102q-55 0 -105 -26.5t-90 -72.5t-63.5 -109.5 t-23.5 -139.5q0 -96 45 -154.5t119 -58.5q53 0 104 29.5t86 76.5l299 -98q-61 -90 -151.5 -156.5t-202.5 -101.5l-54 -252h-147l49 228q-10 -2 -20.5 -2h-20.5q-39 0 -76 6l-49 -232h-145z" />
<glyph unicode="&#x20a3;" horiz-adv-x="1193" d="M78 0l39 186h-140l48 215h139l223 1053h942l-65 -295h-602l-68 -313h498l-60 -273h-495l-37 -172h209l-45 -215h-211l-39 -186h-336z" />
<glyph unicode="&#x20a4;" horiz-adv-x="1091" d="M145 911h127q-4 29 -7 56.5t-3 56.5q0 92 43 172t115 140.5t165 94t191 33.5q125 0 225.5 -56t159.5 -159l-211 -200q-16 33 -42.5 60.5t-57.5 48t-65.5 31.5t-67.5 11q-72 0 -120 -51t-48 -129q0 -27 4 -53.5t10 -55.5h316l-43 -204h-240q2 -10 2 -31q0 -12 -1 -24.5 t-1 -24.5h223l-45 -205h-254q-51 -80 -151 -170q47 16 85 22.5t70 6.5q66 0 125.5 -16.5t124.5 -16.5q35 0 65.5 7t73.5 21l27 -241q-51 -29 -117.5 -47.5t-124.5 -18.5q-45 0 -89 10.5t-90 21.5t-92 21.5t-95 10.5q-53 0 -129 -14.5t-150 -36.5l-16 233q127 86 203 207 h-199l45 205h223q0 4 1 9t1 9q0 16 -1 30.5t-3 31.5h-205z" />
<glyph unicode="&#x20a6;" horiz-adv-x="1693" d="M1663 852h-158l-59 -281h158l-41 -204h-160l-78 -367h-270l-193 367h-340l-78 -367h-335l77 367h-161l45 204h159l60 281h-160l43 205h160l84 397h264l201 -397h331l84 397h338l-84 -397h158zM565 571h191l-135 260zM1114 600l53 252h-182z" />
<glyph unicode="&#x20a9;" horiz-adv-x="2260" d="M66 537h348l-33 200h-272l43 205h196l-84 512h363l51 -512h244l-64 510h309l37 -465l234 465h311l-283 -510h246l268 512h365l-301 -512h203l-43 -205h-281l-119 -200h357l-43 -205h-435l-194 -332h-283l-92 569l-332 -569h-280l-56 332h-426zM1401 537h98l105 200h-226z M719 537h96l107 200h-224z" />
<glyph unicode="&#x20ac;" horiz-adv-x="1566" d="M297 926q49 109 127 206t180.5 170.5t225 116.5t262.5 43q197 0 321.5 -88t165.5 -229l-297 -180q-10 57 -36.5 95t-62.5 61.5t-79 32.5t-84 9q-127 0 -220 -68.5t-151 -168.5h424l-108 -176h-383q-6 -25 -10.5 -50.5t-4.5 -48.5h389l-108 -176h-256q29 -84 90 -136 t156 -52q41 0 88 11t93 34.5t88 61.5t73 93l241 -161q-49 -80 -124.5 -143.5t-165 -106.5t-184.5 -65.5t-181 -22.5q-111 0 -201 39t-156.5 105.5t-109.5 155.5t-61 187h-197l109 176h77q2 49 13 99h-131l108 176h80z" />
<glyph unicode="&#x20b9;" horiz-adv-x="1103" d="M1085 905h-192q-35 -117 -122 -214t-206 -150l232 -541h-379l-297 733h266q47 0 93 48t71 124h-408l45 205h371q-12 37 -34.5 58.5t-49.5 21.5h-270l55 264h942l-45 -205h-289q33 -68 41 -139h219z" />
<glyph unicode="&#x2113;" horiz-adv-x="706" d="M377 -14q-121 0 -188.5 59t-67.5 166v1038q0 57 23.5 105.5t64.5 84.5t97 56.5t122 20.5q129 0 208 -74t79 -193q0 -86 -32 -196.5t-84 -223t-119.5 -216t-139.5 -175.5v-104q0 -59 28.5 -93t80.5 -34q20 0 48.5 7t53.5 17l41 -202q-45 -18 -106.5 -30.5t-108.5 -12.5z M510 1180q0 137 -80 137q-41 0 -65.5 -35t-24.5 -90v-467q33 51 64.5 111.5t54 122t37 119t14.5 102.5z" />
<glyph unicode="&#x2116;" horiz-adv-x="2236" d="M524 831l-176 -831h-336l310 1454h260l438 -854l180 854h336l-309 -1454h-269zM1860 688q-74 0 -129.5 24.5t-92 66.5t-55 98.5t-18.5 117.5q0 88 32.5 173t93 149.5t145.5 104.5t189 40q74 0 130.5 -24.5t93.5 -66.5t55 -97t18 -119q0 -88 -32.5 -172t-93 -149.5 t-146.5 -105.5t-190 -40zM1800 1024q0 -61 27.5 -99t75.5 -38q35 0 67.5 18.5t58 51t41 75.5t15.5 92q0 63 -27.5 101.5t-75.5 38.5q-35 0 -67.5 -18.5t-58 -51.5t-41 -77t-15.5 -93z" />
<glyph unicode="&#x2120;" horiz-adv-x="1622" d="M1362 1454h315l-131 -620h-209l76 356l-164 -270h-168l-49 270l-76 -356h-208l133 620h313l20 -297zM672 1249q-47 29 -87 44.5t-83 15.5q-35 0 -54.5 -9.5t-19.5 -29.5q0 -16 19.5 -26.5t76.5 -24.5q104 -29 151.5 -65t47.5 -99q0 -111 -84 -172.5t-217 -61.5 q-78 0 -157 22.5t-128 57.5l111 152q47 -33 99 -52.5t106 -19.5q74 0 73 35q0 16 -22.5 26.5t-81.5 26.5q-98 27 -142 61.5t-44 94.5q0 51 23.5 96t64.5 77t96 50t117 18q59 0 120.5 -18t120.5 -51z" />
<glyph unicode="&#x2122;" horiz-adv-x="1722" d="M831 1249h-184l-88 -415h-209l88 415h-184l45 209h578zM965 1454h315l20 -297l148 297h315l-131 -620h-211l78 356l-164 -270h-168l-49 270l-76 -356h-208z" />
<glyph unicode="&#x2126;" horiz-adv-x="1685" d="M82 236h324q-141 80 -222.5 216t-81.5 310q0 139 54.5 266t149.5 224.5t225.5 154.5t283.5 57q152 0 282 -57t225 -154.5t149.5 -224.5t54.5 -266q0 -174 -81 -310.5t-222 -215.5h323v-236h-649v236q68 27 123 81t94 124.5t59.5 153.5t20.5 167q0 76 -25.5 147.5t-75 129 t-120 92t-158.5 34.5q-90 0 -160.5 -34.5t-120 -92t-75 -129t-25.5 -147.5q0 -84 20.5 -167t59.5 -153.5t94.5 -125t124.5 -80.5v-236h-651v236z" />
<glyph unicode="&#x212e;" horiz-adv-x="1273" d="M631 84q147 0 248.5 43t160.5 102l68 -79q-78 -72 -194.5 -121t-282.5 -49q-129 0 -235.5 45t-181.5 120.5t-116 176t-41 210.5q0 115 42 217.5t117 179.5t180.5 122t234.5 45t235.5 -47.5t182 -128t117.5 -191.5t42 -235h-874v-281q53 -57 132 -93t165 -36zM631 989 q-86 0 -165 -38t-132 -111v-236h600v234q-55 76 -134 113.5t-169 37.5z" />
<glyph unicode="&#x2153;" horiz-adv-x="1783" d="M143 115l691 663l643 695l118 -132l-669 -645l-666 -714zM627 797l-39 -189h-475l41 189h149l107 497q-14 -14 -40 -32.5t-54.5 -35t-59.5 -27.5t-53 -11l41 190q31 0 66.5 18.5t66.5 40t52.5 40t21.5 20.5h194l-151 -700h133zM1204 -12q-123 0 -200.5 39t-94.5 116 l131 144q2 -8 13.5 -25.5t36 -36t61.5 -32t90 -13.5q82 0 142.5 24.5t60.5 76.5q0 47 -69.5 68.5t-196.5 21.5h-50l37 174h47q123 0 203 23.5t80 80.5q0 18 -12.5 30.5t-31.5 20t-42 11.5t-43 4q-78 0 -133 -26.5t-105 -70.5l-86 156q31 29 72 51.5t88 38t98.5 22.5t100.5 7 q137 0 220 -59.5t83 -151.5q0 -84 -63.5 -140.5t-170.5 -72.5q82 -12 124 -65.5t42 -122.5q0 -78 -38.5 -133.5t-100 -90t-138.5 -52t-155 -17.5z" />
<glyph unicode="&#x2154;" horiz-adv-x="1824" d="M1239 -12q-123 0 -200.5 39t-94.5 116l131 144q2 -8 13.5 -25.5t36 -36t61.5 -32t90 -13.5q82 0 142.5 24.5t60.5 76.5q0 47 -70 68.5t-197 21.5h-49l37 174h47q123 0 203 23.5t80 80.5q0 18 -12.5 30.5t-32 20t-42 11.5t-42.5 4q-78 0 -133.5 -26.5t-104.5 -70.5 l-69 127l-719 -763l-117 133l690 663l643 695l119 -132l-508 -491q53 23 113.5 33t120.5 10q137 0 220 -59.5t83 -151.5q0 -84 -63.5 -140.5t-170.5 -72.5q82 -12 124 -65.5t42 -122.5q0 -78 -39 -133.5t-100.5 -90t-138 -52t-154.5 -17.5zM76 606q16 86 40.5 149.5 t63.5 113t94.5 86t135.5 69.5q53 23 104 42t91 41.5t64.5 52.5t24.5 73q0 41 -33.5 59.5t-93.5 18.5q-76 0 -140.5 -30t-107.5 -64l-86 139q23 25 62 50.5t90 44.5t113.5 32.5t132.5 13.5q135 0 205.5 -58.5t70.5 -166.5q0 -78 -26.5 -134.5t-69.5 -96.5t-97.5 -66.5 t-109.5 -42.5q-170 -53 -188 -139h368l-39 -187h-669z" />
<glyph unicode="&#x215b;" horiz-adv-x="1796" d="M168 115l690 663l643 695l119 -132l-670 -645l-665 -714zM627 797l-39 -189h-475l41 189h149l107 497q-14 -14 -40 -32.5t-54.5 -35t-59.5 -27.5t-53 -11l41 190q31 0 66.5 18.5t66.5 40t52.5 40t21.5 20.5h194l-151 -700h133zM1227 -12q-68 0 -125.5 18.5t-98 50 t-64.5 75.5t-24 95q0 49 17.5 86t46.5 67t66.5 51.5t78.5 39.5q-41 18 -68.5 52t-27.5 85q0 59 36 109.5t93 86.5t125 56.5t133 20.5q53 0 105.5 -15.5t92.5 -43t64.5 -67.5t24.5 -87q0 -72 -49 -120t-119 -77q53 -29 86 -72t33 -102q0 -66 -36 -122t-95.5 -98t-136 -65.5 t-158.5 -23.5zM1268 178q35 0 69.5 8.5t62 23.5t44 36.5t16.5 46.5q0 43 -45 67.5t-106 24.5q-37 0 -72 -8t-61.5 -23.5t-43 -37t-16.5 -46.5q0 -41 46.5 -66.5t105.5 -25.5zM1343 541q27 0 55.5 6t51.5 17t38 27.5t15 37.5q0 31 -36.5 49t-90.5 18q-61 0 -110 -22.5 t-49 -63.5q0 -33 39.5 -51t86.5 -18z" />
<glyph unicode="&#x215c;" horiz-adv-x="1820" d="M395 592q-123 0 -200.5 39t-94.5 117l131 143q2 -8 14.5 -25.5t36 -36t60.5 -32t90 -13.5q82 0 143.5 25t61.5 76q0 49 -70.5 69.5t-197.5 20.5h-47l34 174h47q123 0 203 24.5t80 79.5q0 18 -12 31.5t-31.5 21t-42 11.5t-43.5 4q-76 0 -132 -26.5t-106 -69.5l-86 153 q31 29 72 51.5t88 38t99.5 22.5t101.5 7q68 0 123 -16.5t95 -44t61.5 -65.5t21.5 -83q0 -86 -63.5 -142t-169.5 -73q82 -12 123.5 -65.5t41.5 -122.5q0 -78 -38.5 -133.5t-100 -90t-138.5 -52t-155 -17.5zM229 115l691 663l643 695l118 -132l-669 -645l-666 -714zM1247 -12 q-68 0 -125 18.5t-98 50t-64.5 75.5t-23.5 95q0 49 17.5 86t46 67t66.5 51.5t79 39.5q-41 18 -68.5 52t-27.5 85q0 59 35.5 109.5t93 86.5t125 56.5t133.5 20.5q53 0 105 -15.5t92 -43t64.5 -67.5t24.5 -87q0 -72 -49 -120t-119 -77q53 -29 86 -72t33 -102q0 -66 -35.5 -122 t-95 -98t-136.5 -65.5t-159 -23.5zM1288 178q35 0 70 8.5t62.5 23.5t44 36.5t16.5 46.5q0 43 -45 67.5t-107 24.5q-37 0 -71.5 -8t-61.5 -23.5t-43 -37t-16 -46.5q0 -41 46 -66.5t105 -25.5zM1364 541q27 0 55.5 6t51 17t38 27.5t15.5 37.5q0 31 -37 49t-90 18 q-61 0 -110.5 -22.5t-49.5 -63.5q0 -33 40 -51t87 -18z" />
<glyph unicode="&#x215d;" horiz-adv-x="1841" d="M555 1188q125 0 200.5 -65.5t75.5 -170.5q0 -76 -34.5 -139t-95 -110.5t-141.5 -74t-173 -26.5q-104 0 -182 39t-111 107l137 129q31 -41 83.5 -66t123.5 -25q80 0 139.5 37t59.5 115q0 57 -41 83t-84 26q-47 0 -100.5 -25t-83.5 -66h-164q25 63 55.5 133t62 140.5 t61.5 139.5t52 128h488l-39 -190h-355l-69 -146q20 10 54 18.5t81 8.5zM227 115l691 663l643 695l118 -132l-669 -645l-666 -714zM1268 -12q-68 0 -125.5 18.5t-98 50t-64.5 75.5t-24 95q0 49 17.5 86t46.5 67t66.5 51.5t78.5 39.5q-41 18 -68.5 52t-27.5 85q0 59 36 109.5 t93 86.5t125 56.5t133 20.5q53 0 105.5 -15.5t92.5 -43t64.5 -67.5t24.5 -87q0 -72 -49 -120t-119 -77q53 -29 86 -72t33 -102q0 -66 -36 -122t-95.5 -98t-136 -65.5t-158.5 -23.5zM1309 178q35 0 69.5 8.5t62 23.5t44 36.5t16.5 46.5q0 43 -45 67.5t-106 24.5q-37 0 -72 -8 t-61.5 -23.5t-43 -37t-16.5 -46.5q0 -41 46.5 -66.5t105.5 -25.5zM1384 541q27 0 55.5 6t51 17t38 27.5t15.5 37.5q0 31 -37 49t-90 18q-61 0 -110.5 -22.5t-49.5 -63.5q0 -33 40 -51t87 -18z" />
<glyph unicode="&#x215e;" horiz-adv-x="1775" d="M84 115l690 663l643 695l119 -132l-670 -645l-665 -714zM1208 -12q-68 0 -125 18.5t-98 50t-64.5 75.5t-23.5 95q0 49 17.5 86t46 67t66.5 51.5t79 39.5q-41 18 -68.5 52t-27.5 85q0 59 35.5 109.5t93 86.5t125 56.5t133.5 20.5q53 0 105 -15.5t92 -43t64.5 -67.5 t24.5 -87q0 -72 -49 -120t-118 -77q53 -29 85.5 -72t32.5 -102q0 -66 -35.5 -122t-95 -98t-136.5 -65.5t-159 -23.5zM1249 178q35 0 70 8.5t62.5 23.5t44 36.5t16.5 46.5q0 43 -45 67.5t-107 24.5q-37 0 -71.5 -8t-61.5 -23.5t-43 -37t-16 -46.5q0 -41 46 -66.5t105 -25.5z M1325 541q27 0 55.5 6t51 17t38 27.5t15.5 37.5q0 31 -37 49t-90 18q-61 0 -110.5 -22.5t-49.5 -63.5q0 -33 40 -51t87 -18zM682 1307h-455l39 190h752l-684 -881h-213z" />
<glyph unicode="&#x2202;" horiz-adv-x="1179" d="M524 -20q-106 0 -195 32.5t-153.5 91t-101.5 138.5t-37 172q0 104 45 193t118.5 154.5t171 102.5t201.5 37q168 0 242 -104q0 209 -55 304t-174 95q-53 0 -113.5 -18.5t-99.5 -51.5l-178 189q86 72 191.5 111.5t223.5 39.5q242 0 373 -171t131 -509q0 -188 -42 -337.5 t-118.5 -254t-185.5 -159.5t-244 -55zM545 225q45 0 86 19.5t73.5 52.5t52 76t19.5 90q0 84 -56 139t-142 55q-47 0 -88 -18t-72 -49t-49.5 -72t-18.5 -88q0 -43 15.5 -81t41 -65.5t61.5 -43t77 -15.5z" />
<glyph unicode="&#x2206;" horiz-adv-x="1372" d="M1276 258v-258h-1274v258l502 1196h272zM954 295l-313 788l-305 -788h618z" />
<glyph unicode="&#x220f;" horiz-adv-x="1560" d="M1014 1176h-389v-1360h-318v1360h-164v278h1354v-278h-164v-1360h-319v1360z" />
<glyph unicode="&#x2211;" horiz-adv-x="1288" d="M1163 1208h-628v-8l358 -444l-385 -469v-8h663v-279h-1030v219l428 510l-413 510v215h1007v-246z" />
<glyph unicode="&#x2212;" horiz-adv-x="1124" d="M162 567v260h827v-260h-827z" />
<glyph unicode="&#x2215;" horiz-adv-x="1251" d="M-129 137l1403 1336l153 -154l-1402 -1337z" />
<glyph unicode="&#x2219;" horiz-adv-x="487" d="M82 492l72 339h268l-72 -339h-268z" />
<glyph unicode="&#x221a;" horiz-adv-x="1085" d="M29 791h452l144 -562l229 1389h287l-312 -1618h-409l-164 565h-227v226z" />
<glyph unicode="&#x221e;" horiz-adv-x="1513" d="M463 1116q63 0 111.5 -14.5t85 -38t65.5 -55t53 -66.5q25 35 53.5 66.5t65.5 55t85 38t112 14.5q80 0 145.5 -31.5t111.5 -86t71.5 -126t25.5 -153.5t-27.5 -153.5t-75 -126t-113 -85t-140.5 -30.5q-121 0 -192 46t-118 109q-23 -31 -51.5 -59.5t-66 -50t-87 -33.5 t-114.5 -12q-68 0 -132.5 31.5t-113.5 86t-80 126t-31 153.5t28 153.5t75 126t112.5 85t141.5 30.5zM492 567q72 0 111.5 44t74.5 106q-35 63 -75 108t-111 45q-51 0 -96.5 -34.5t-45.5 -114.5q0 -82 45.5 -118t96.5 -36zM1065 567q51 0 95 36t44 118q0 80 -44 114.5 t-95 34.5q-76 0 -115 -48t-67 -113q31 -59 70.5 -100.5t111.5 -41.5z" />
<glyph unicode="&#x222b;" horiz-adv-x="790" d="M217 1200q0 12 -2 48t-4 74t-3 69.5t-1 35.5q0 121 72.5 186.5t207.5 65.5q68 0 148 -16t145 -45l-51 -240q-23 12 -48.5 20.5t-45.5 8.5q-47 0 -75 -25.5t-28 -74.5q0 -4 1.5 -25.5t3.5 -49.5t3 -53.5t1 -35.5l55 -1000q0 -10 2 -45t4 -73.5t3 -69.5t1 -33 q0 -129 -72.5 -196.5t-207.5 -67.5q-68 0 -148 16.5t-143 44.5l49 240q25 -12 49.5 -20.5t46.5 -8.5q100 0 101 113l-1 23q-1 24 -3.5 54t-3.5 56.5t-1 32.5z" />
<glyph unicode="&#x2248;" horiz-adv-x="946" d="M834 758q-31 -61 -88.5 -113.5t-145.5 -52.5q-47 0 -83 14.5t-66.5 32.5t-60.5 32.5t-62 14.5q-37 0 -56.5 -14.5t-29.5 -34.5l-152 90q29 59 84 108.5t141 49.5q47 0 82 -15.5t66 -35t59.5 -35t65.5 -15.5q41 0 63.5 16.5t34.5 39.5zM834 408q-16 -29 -38 -59 t-50.5 -52.5t-65.5 -36.5t-80 -14q-47 0 -83 15t-66.5 32.5t-60.5 33t-62 15.5q-37 0 -56.5 -15.5t-29.5 -33.5l-152 90q29 59 84 107.5t141 48.5q47 0 82 -15.5t66 -34t59.5 -34t65.5 -15.5q41 0 63.5 15.5t34.5 38.5z" />
<glyph unicode="&#x2260;" horiz-adv-x="960" d="M141 862h394l129 262l116 -63l-98 -199h111v-209h-213l-86 -176h299v-209h-402l-123 -252l-116 60l94 192h-105v209h207l86 176h-293v209z" />
<glyph unicode="&#x2264;" horiz-adv-x="995" d="M100 33v260h750v-260h-750zM104 946l742 342v-315l-408 -139l408 -127v-316l-742 314v241z" />
<glyph unicode="&#x2265;" horiz-adv-x="1056" d="M170 293h750v-260h-750v260zM174 707l408 127l-408 139v315l741 -342v-241l-741 -314v316z" />
<glyph unicode="&#x25ca;" horiz-adv-x="1206" d="M815 1493l381 -745l-381 -750h-366l-381 750l381 745h366zM903 723l-274 545l-254 -502l272 -547z" />
<glyph unicode="&#x25fc;" horiz-adv-x="1075" d="M0 1075h1075v-1075h-1075v1075z" />
<glyph unicode="&#xf6c3;" horiz-adv-x="440" d="M63 -436l93 137h-97l43 203h273l-43 -203l-125 -137h-144z" />
<glyph unicode="&#xfb06;" horiz-adv-x="1744" d="M391 -20q-63 0 -129.5 10t-128 28.5t-115 43t-92.5 53.5l168 223q86 -61 170 -94t164 -33q66 0 106.5 25.5t40.5 72.5q0 23 -9 37t-30.5 26.5t-54 23t-80.5 24.5q-78 23 -136 45t-96 51t-56.5 69t-18.5 97q0 90 42 166t109.5 131t152.5 86t169 31q23 0 54.5 -3 t65.5 -10.5t66.5 -19.5t59.5 -31q-8 23 -11 50.5t-3 52.5q0 74 25.5 140t82 117.5t145.5 81t216 29.5q88 0 146.5 -15t93 -43t50 -69t15.5 -92q0 -41 -8.5 -95t-22.5 -114h207l-51 -248h-207l-94 -448q-4 -10 -4 -17.5v-11.5q0 -41 17 -56t50 -15q35 0 75 12t75 26v-260 q-74 -29 -163 -53t-173 -24q-102 0 -170 46t-68 156q0 20 2 45t9 52l116 548h-129l53 248h127q25 117 25 180q0 57 -22.5 82t-77.5 25q-98 0 -151.5 -65.5t-53.5 -159.5q0 -47 12 -93.5t29 -70.5l-166 -207q-82 57 -146.5 79.5t-119.5 22.5q-61 0 -103.5 -26.5t-42.5 -79.5 q0 -49 43 -68.5t131 -42.5q86 -23 146.5 -46t98.5 -54t54.5 -71t16.5 -95q0 -90 -38 -165t-103.5 -128t-157 -82.5t-197.5 -29.5z" />
<glyph horiz-adv-x="1179" d="M592 1153h237l224 -1153h-310l-41 242h-370l-142 -242h-315zM690 498l-55 299l-186 -299h241z" />
<glyph horiz-adv-x="1193" d="M242 1153h678q55 0 96 -20.5t68.5 -54.5t41 -78t13.5 -91t-16.5 -95t-46 -90t-74 -77t-99.5 -55q80 -25 125 -83t45 -149q0 -94 -41 -161.5t-108.5 -111.5t-155.5 -65.5t-182 -21.5h-590zM637 248q57 0 100 34.5t43 94.5q0 39 -22.5 64.5t-61.5 25.5h-307l-47 -219h295z M698 698q51 0 92 28t41 97q0 41 -23.5 59.5t-57.5 18.5h-269l-43 -203h260z" />
<glyph horiz-adv-x="1167" d="M508 -10q-111 0 -199 42t-147.5 111.5t-91 158.5t-31.5 185q0 119 54 239t150.5 216t230.5 156.5t292 60.5q166 0 272.5 -68.5t141.5 -183.5l-258 -159q-10 43 -33 72.5t-52.5 46t-64.5 23.5t-67 7q-86 0 -154 -36t-115 -92t-71.5 -125t-24.5 -134q0 -53 15.5 -99t44 -82 t72.5 -56.5t99 -20.5q68 0 147 33.5t128 115.5l209 -143q-41 -66 -104.5 -115t-137.5 -83.5t-152.5 -52t-152.5 -17.5z" />
<glyph horiz-adv-x="1267" d="M242 1153h460q129 0 224.5 -36t158 -98.5t93 -146.5t30.5 -180q0 -152 -57 -278.5t-157.5 -219t-238 -143.5t-298.5 -51h-461zM510 256q90 0 164 31.5t125 85t78.5 124t27.5 150.5q0 113 -65.5 181.5t-192.5 68.5h-168l-135 -641h166z" />
<glyph horiz-adv-x="1062" d="M242 1153h850l-56 -256h-557l-39 -190h478l-50 -240h-479l-45 -211h571l-55 -256h-864z" />
<glyph horiz-adv-x="1011" d="M242 1153h833l-53 -256h-543l-45 -217h447l-52 -240h-446l-94 -440h-293z" />
<glyph horiz-adv-x="1409" d="M618 -10q-131 0 -232 50t-172 134t-107.5 194.5t-36.5 233.5q0 158 64.5 312.5t179 276.5t270 197.5t338.5 75.5q178 0 296.5 -78.5t165.5 -222.5l-311 -209q-4 20 -16.5 56.5t-39 70t-70.5 59t-109 25.5q-96 0 -175 -51t-135.5 -131t-87 -178t-30.5 -195 q0 -59 13 -117.5t42 -103.5t74 -72.5t110 -27.5q51 0 99.5 17.5t91.5 46t77.5 65.5t57.5 78h-250l63 295h613l-35 -158q-29 -131 -98.5 -248t-168 -205t-221.5 -139t-260 -51z" />
<glyph horiz-adv-x="1226" d="M795 100q-78 -57 -153 -82.5t-155 -25.5q-98 0 -181 39t-141.5 106.5t-91 156.5t-32.5 189q0 137 59.5 261t159.5 216.5t229 146.5t271 54q160 0 265 -67.5t140 -184.5l-254 -166q-20 72 -79.5 114t-137.5 42q-72 0 -135 -31.5t-111.5 -85t-77 -126t-28.5 -152.5 q0 -111 60.5 -180.5t164.5 -69.5q72 0 144.5 34t144.5 97l2 12h-231l43 211h477l-129 -608h-244z" />
<glyph horiz-adv-x="1316" d="M242 1153h293l-95 -434h478l92 434h295l-246 -1153h-295l98 461h-475l-98 -461h-293z" />
<glyph horiz-adv-x="546" d="M242 1153h293l-246 -1153h-293z" />
<glyph horiz-adv-x="888" d="M160 -18q-156 0 -252 71l115 240q16 -16 67 -32.5t125 -16.5q63 0 104 18.5t69 57t46.5 100t36.5 147.5l125 586h295l-125 -586q-29 -133 -66.5 -240.5t-103.5 -184t-170 -118.5t-266 -42z" />
<glyph horiz-adv-x="1202" d="M242 1153h293l-107 -494l567 494h305l-567 -514l352 -639h-309l-252 473l-162 -129l-73 -344h-293z" />
<glyph horiz-adv-x="948" d="M242 1153h293l-191 -897h512l-55 -256h-805z" />
<glyph horiz-adv-x="530" d="M57 1229l158 266h295l-256 -324z" />
<glyph horiz-adv-x="1507" d="M242 1153h319l187 -569l430 569h317l-246 -1153h-293l138 643l-353 -459h-157l-158 459l-137 -643h-293z" />
<glyph horiz-adv-x="1335" d="M242 1153h229l424 -627l133 627h293l-244 -1153h-235l-424 608l-129 -608h-293z" />
<glyph horiz-adv-x="1292" d="M512 -10q-113 0 -201 41t-148.5 108.5t-92 155.5t-31.5 184q0 131 59.5 253t159.5 217t231.5 152.5t276.5 57.5q115 0 203 -41t147.5 -109.5t90 -156.5t30.5 -182q0 -129 -58.5 -251t-158.5 -217.5t-231.5 -153.5t-276.5 -58zM571 252q84 0 152 37t115 93t72.5 126 t25.5 137q0 51 -14.5 96t-43 80t-71.5 55.5t-100 20.5q-84 0 -152 -36t-115 -91t-72.5 -125t-25.5 -137q0 -51 13.5 -97t42 -82t71.5 -56.5t102 -20.5z" />
<glyph horiz-adv-x="1103" d="M242 1153h524q76 0 137.5 -28.5t103.5 -74.5t64.5 -106.5t22.5 -124.5q0 -84 -39 -166t-104.5 -147.5t-154.5 -105.5t-190 -40h-239l-78 -360h-293zM643 618q55 0 102.5 42t47.5 131q0 57 -30 81.5t-69 24.5h-215l-59 -279h223z" />
<glyph horiz-adv-x="1296" d="M823 66q-72 -35 -150.5 -54.5t-162.5 -19.5q-113 0 -201 40t-148.5 107.5t-92 155.5t-31.5 184q0 129 59.5 252t159.5 218t232.5 153.5t275.5 58.5q115 0 203 -41t147.5 -109.5t90 -157.5t30.5 -183q0 -133 -61.5 -257t-165.5 -220l141 -193h-277zM571 254q53 0 103 16 l-148 203h277l49 -70q41 53 61.5 117t20.5 125q0 51 -14.5 97t-42 81t-70.5 55.5t-100 20.5q-84 0 -153 -36t-116 -92t-72.5 -126t-25.5 -137q0 -51 14.5 -97t43 -81t71.5 -55.5t102 -20.5z" />
<glyph horiz-adv-x="1200" d="M242 1153h553q78 0 139 -28.5t103 -74.5t64.5 -106.5t22.5 -124.5q0 -121 -75.5 -226.5t-198.5 -166.5l192 -426h-335l-166 360h-174l-78 -360h-293zM674 618q27 0 53.5 12.5t47 35t33.5 53.5t13 67q0 51 -28.5 81t-69.5 30h-244l-59 -279h254z" />
<glyph horiz-adv-x="1062" d="M420 -14q-131 0 -260 37.5t-221 101.5l184 256q8 -16 40 -37.5t80 -43t109.5 -36t128.5 -14.5q72 0 106 22.5t34 59.5q0 25 -19.5 41t-53.5 29.5t-78 26.5t-95 30q-129 41 -191.5 102.5t-62.5 161.5q0 104 45 186t118.5 138.5t169 86t197.5 29.5q127 0 230.5 -41 t173.5 -86l-178 -243q-8 10 -35 28.5t-67 35.5t-89 30.5t-100 13.5q-143 0 -144 -86q0 -43 56.5 -65.5t154.5 -51.5q68 -18 123 -42.5t94 -57.5t60.5 -78t21.5 -106q0 -119 -47 -201t-122.5 -132t-171 -72.5t-191.5 -22.5z" />
<glyph horiz-adv-x="1097" d="M463 897h-373l53 256h1037l-56 -256h-366l-193 -897h-295z" />
<glyph horiz-adv-x="1288" d="M512 -10q-117 0 -200 30.5t-135 86t-75.5 129t-23.5 159.5q0 80 18 166l127 592h293l-125 -592q-12 -55 -12 -106q0 -86 42 -144.5t144 -58.5q70 0 122 26.5t90 69.5t61.5 98.5t35.5 114.5l125 592h295l-125 -592q-25 -121 -79 -224.5t-137 -181t-193.5 -121.5 t-247.5 -44z" />
<glyph horiz-adv-x="1179" d="M106 1153h312l125 -737l432 737h311l-711 -1153h-243z" />
<glyph horiz-adv-x="2207" d="M180 1454h381l53 -948l478 948h364l76 -946l457 948h383l-740 -1454h-348l-127 903l-508 -905h-348z" />
<glyph horiz-adv-x="1843" d="M104 1153h318l147 -799l154 254l-86 543h270l45 -360l199 360h272l-321 -543l49 -254l483 799h324l-737 -1153h-244l-103 430l-280 -430h-246z" />
<glyph horiz-adv-x="1157" d="M412 569l-299 584h319l180 -379l338 379h320l-547 -584l289 -569h-320l-168 362l-321 -362h-322z" />
<glyph horiz-adv-x="1138" d="M367 389l-267 764h318l149 -512l367 512h321l-596 -766l-84 -387h-292z" />
<glyph horiz-adv-x="1110" d="M-20 219l770 678h-605l56 256h944l-45 -219l-744 -678h607l-56 -256h-975z" />
<glyph horiz-adv-x="1269" d="M403 -20q-88 0 -158.5 32.5t-119.5 91t-75.5 138.5t-26.5 176q0 137 48 260t130 216t187.5 147.5t219.5 54.5q106 0 180 -53.5t101 -143.5l35 162h327l-225 -1061h-326l35 160q-66 -88 -147 -134t-185 -46zM549 256q68 0 126 40t111 110l48 223q-12 86 -61.5 137 t-119.5 51q-55 0 -106 -29.5t-91 -79t-63.5 -111.5t-23.5 -126q0 -92 47 -153.5t133 -61.5z" />
<glyph horiz-adv-x="1134" d="M266 -20q-66 0 -120 21.5t-92 58t-58.5 89t-20.5 113.5q0 94 42 171t115 132.5t168 85t200 29.5q68 0 123 -12.5t90 -32.5l10 49q6 27 6 55q0 131 -164 131q-84 0 -166 -29.5t-178 -88.5l-51 204q115 68 231.5 104t243.5 36q203 0 307.5 -84t104.5 -244q0 -63 -15 -123 l-137 -645h-315l28 141q-70 -80 -159 -120.5t-193 -40.5zM414 215q43 0 91 17.5t87 50.5q23 18 40 37.5t21 39.5l21 103q-35 16 -77 25.5t-81 9.5q-41 0 -81 -12.5t-70.5 -34t-49 -54t-18.5 -71.5q0 -49 32 -80t85 -31z" />
<glyph horiz-adv-x="1918" d="M471 -20q-111 0 -194.5 36.5t-140 98t-85 143.5t-28.5 174q0 123 48 242t138 213t219 151.5t289 57.5q94 0 151.5 -20.5t112.5 -59.5q-4 16 -7 45t-3 51q0 186 119.5 288.5t343.5 102.5q94 0 154.5 -18.5t96 -49t49 -72.5t13.5 -91q0 -47 -9 -96.5t-20 -100.5h205 l-51 -248h-207l-94 -448q-4 -10 -4 -18.5v-14.5q0 -68 69 -67q33 0 74 12t76 26v-260q-74 -29 -163 -53t-173 -24q-104 0 -172 46t-68 156q0 43 9 84l118 561h-129l54 248h129q23 109 22 170q0 59 -23.5 88t-82.5 29q-61 0 -102.5 -25.5t-64 -65.5t-31.5 -92.5t-9 -103.5 q0 -37 4 -74.5t9 -73.5t10 -67t10 -49l-340 -96q-37 102 -148 102q-55 0 -105.5 -27.5t-89 -74.5t-62 -110.5t-23.5 -135.5q0 -96 45 -154.5t118 -58.5q53 0 104.5 27.5t86.5 78.5l299 -98q-86 -129 -227.5 -206.5t-319.5 -77.5z" />
<glyph horiz-adv-x="1267" d="M403 -20q-90 0 -160.5 32.5t-119.5 91t-74.5 138.5t-25.5 174q0 137 48 260t129 216t186.5 148.5t219.5 55.5q109 0 181.5 -53.5t101.5 -143.5l127 596h327l-317 -1495h-326l33 156q-66 -86 -146 -131t-184 -45zM549 256q66 0 128 40t109 110l48 225q-10 84 -62.5 135 t-118.5 51q-55 0 -106 -29.5t-91 -77.5t-63.5 -110.5t-23.5 -128.5q0 -94 48 -154.5t132 -60.5z" />
<glyph horiz-adv-x="1202" d="M1083 508q0 -115 -52 -211t-138 -167t-198.5 -109.5t-231.5 -38.5q-90 0 -168 27.5t-135.5 78.5t-89 123t-31.5 160q0 78 25.5 142.5t64.5 114.5t86 87t90 61q-45 29 -70.5 87.5t-25.5 123.5q0 111 55 198t140 146.5t184.5 91t187.5 31.5q72 0 142.5 -22.5t128 -66.5 t92.5 -108.5t35 -150.5q0 -53 -18.5 -104.5t-48.5 -94.5t-69 -76.5t-77 -54.5q47 -37 84.5 -106.5t37.5 -161.5zM752 498q0 70 -42 106.5t-106 36.5q-43 0 -84 -16.5t-71.5 -45t-49 -67.5t-18.5 -86q0 -66 42 -106.5t103 -40.5q43 0 84 17t72 46t50.5 69t19.5 87zM541 999 q0 -55 35.5 -83.5t78.5 -28.5q29 0 61 11t57.5 32.5t43 52.5t17.5 72q0 49 -33 79.5t-86 30.5q-35 0 -66 -12t-55.5 -34.5t-38.5 -53.5t-14 -66z" />
<glyph horiz-adv-x="1130" d="M389 -18q-152 0 -258 63.5t-147 177.5l225 203q41 -72 105.5 -115t138.5 -43q49 0 92 18.5t74.5 51.5t50 78t18.5 98q0 68 -35 110t-98 42q-49 0 -97 -25t-81 -70h-281q35 86 82 206t95.5 244t93.5 239.5t77 195.5h689l-64 -299h-451l-88 -248q12 14 46 25.5t88 11.5 q84 0 152.5 -27.5t116.5 -76.5t73.5 -119t25.5 -152q0 -127 -50 -235.5t-138 -187t-205 -122.5t-250 -44z" />
<glyph horiz-adv-x="796" d="M535 1188q125 0 200.5 -65.5t75.5 -170.5q0 -76 -35 -139t-95 -110.5t-141 -74t-173 -26.5q-104 0 -182.5 39t-110.5 107l137 129q31 -41 83 -66t124 -25q80 0 139 37t59 115q0 57 -40.5 83t-83.5 26q-47 0 -100.5 -25t-84.5 -66h-164q25 63 55.5 133t62.5 140.5 t61.5 139.5t52.5 128h487l-39 -190h-354l-70 -146q20 10 54.5 18.5t81.5 8.5z" />
<glyph horiz-adv-x="851" d="M293 -12q-68 0 -125 18.5t-98 50t-64.5 75.5t-23.5 95q0 49 17 86t46 67t67 51.5t78 39.5q-41 18 -68.5 52t-27.5 85q0 59 36 109.5t93.5 86.5t125 56.5t132.5 20.5q53 0 105.5 -15.5t92.5 -43t64.5 -67.5t24.5 -87q0 -72 -49 -120t-119 -77q53 -29 86 -72t33 -102 q0 -66 -36 -122t-95.5 -98t-136 -65.5t-158.5 -23.5zM334 178q35 0 69.5 8.5t62.5 23.5t44 36.5t16 46.5q0 43 -45 67.5t-106 24.5q-37 0 -72 -8t-61.5 -23.5t-43 -37t-16.5 -46.5q0 -41 46.5 -66.5t105.5 -25.5zM410 541q27 0 55.5 6t51 17t37.5 27.5t15 37.5 q0 31 -36.5 49t-90.5 18q-61 0 -110 -22.5t-49 -63.5q0 -33 40 -51t87 -18z" />
<glyph horiz-adv-x="1165" d="M457 2l65 305h-532l61 293l817 856h226l-183 -856h172l-61 -293h-172l-66 -305h-327zM621 600l77 365l-321 -365h244z" />
<glyph horiz-adv-x="548" d="M205 1059h327l-317 -1495h-328zM297 1491h326l-62 -293h-328z" />
<glyph horiz-adv-x="555" d="M301 1495h328l-318 -1495h-327z" />
<glyph horiz-adv-x="1214" d="M143 870q0 121 52.5 229.5t140.5 189.5t202.5 129t239.5 48q193 0 294.5 -130t101.5 -359q0 -207 -54.5 -389t-153 -317.5t-235.5 -213t-303 -77.5q-127 0 -225.5 55t-163.5 160l229 208q35 -66 93.5 -102.5t132.5 -36.5q111 0 191.5 86t119.5 244q-51 -57 -119 -88 t-147 -31q-90 0 -163 30t-125 83t-80 125.5t-28 156.5zM719 1190q-47 0 -92 -22.5t-81 -60.5t-58.5 -88t-22.5 -104q0 -78 43 -129t115 -51q47 0 92 21.5t80.5 57.5t57 84t21.5 103q0 78 -42.5 133.5t-112.5 55.5z" />
<glyph horiz-adv-x="1028" d="M61 295h275l180 850q-20 -25 -64 -54.5t-95.5 -57t-104.5 -46t-92 -18.5l65 301q51 0 113.5 29.5t116 65.5t90.5 66.5t39 34.5h336l-250 -1171h248l-64 -295h-854z" />
<glyph horiz-adv-x="614" d="M608 797l-39 -189h-475l41 189h150l106 497q-14 -14 -39.5 -32.5t-54.5 -35t-59.5 -27.5t-53.5 -11l41 190q31 0 67 18.5t66.5 40t52 40t21.5 20.5h195l-152 -700h133z" />
<glyph horiz-adv-x="858" d="M-72 0q18 86 43 149.5t65 111.5t98.5 86t139.5 71q55 20 107.5 40.5t94.5 43t67.5 52.5t25.5 73q0 41 -34.5 59.5t-96.5 18.5q-78 0 -145.5 -31t-112.5 -66l-90 142q25 25 65 50t94 44.5t118.5 33t138.5 13.5q139 0 212 -58.5t73 -166.5q0 -78 -28 -134.5t-73 -96.5 t-101.5 -65.5t-113.5 -43.5q-174 -53 -194 -140h413l-39 -186h-727v0z" />
<glyph horiz-adv-x="831" d="M373 182h-422l41 187l590 514h129l-109 -514h123l-41 -187h-121l-39 -180h-188zM420 369l61 282l-311 -282h250z" />
<glyph horiz-adv-x="817" d="M246 -12q-123 0 -201 39t-94 116l131 144q2 -8 13 -25.5t36 -36t61.5 -32t90.5 -13.5q82 0 142 24.5t60 76.5q0 47 -69.5 68.5t-196.5 21.5h-49l37 174h47q123 0 203 23.5t80 80.5q0 18 -12.5 30.5t-32 20t-42 11.5t-42.5 4q-78 0 -133.5 -26.5t-104.5 -70.5l-86 156 q31 29 72 51.5t88 38t98 22.5t100 7q137 0 220 -59.5t83 -151.5q0 -84 -63.5 -140.5t-169.5 -72.5q82 -12 124 -65.5t42 -122.5q0 -78 -39 -133.5t-100.5 -90t-138 -52t-154.5 -17.5z" />
<glyph horiz-adv-x="1265" d="M733 174q-70 -96 -165 -145t-208 -49q-80 0 -142 32.5t-105 91t-66.5 137t-23.5 171.5q0 141 51 266t135 217t194.5 146.5t229.5 54.5q117 0 189.5 -53.5t107.5 -143.5l37 176h286l-321 -1513h-328zM547 256q63 0 122.5 40t112.5 105l49 228q-10 80 -60 134t-118 54 q-55 0 -107 -29.5t-92 -77.5t-64.5 -110.5t-24.5 -130.5q0 -92 48 -152.5t134 -60.5z" />
<glyph horiz-adv-x="1155" d="M752 1157h-566l64 299h1083l-991 -1454h-369z" />
<glyph horiz-adv-x="794" d="M647 1307h-454l38 190h752l-684 -881h-213z" />
<glyph horiz-adv-x="1212" d="M481 -20q-193 0 -295 130t-102 359q0 207 54.5 389t153.5 317.5t236.5 213t302.5 77.5q129 0 226.5 -55t163.5 -160l-230 -209q-35 66 -94 103t-131 37q-111 0 -192.5 -86t-118.5 -244q51 55 118.5 86t147.5 31q88 0 160.5 -30t125 -82t80 -125t27.5 -157 q0 -121 -52 -229t-140 -189t-202 -129t-239 -48zM541 256q45 0 91 22.5t82 60.5t58.5 88t22.5 103q0 78 -43 129.5t-115 51.5q-47 0 -93 -21.5t-81 -58.5t-56.5 -85t-21.5 -102q0 -78 43 -133t113 -55z" />
<glyph horiz-adv-x="813" d="M244 780h-154l62 295h153l74 342h338l-76 -342h236l-62 -295h-235l-166 -780h-336z" />
<glyph horiz-adv-x="1153" d="M389 -18q-164 0 -263 66.5t-130 195.5l217 223q2 -18 13.5 -50t37 -61.5t67.5 -51t109 -21.5q47 0 91 12t78 34.5t54.5 56.5t20.5 75q0 86 -85 120.5t-253 34.5h-63l57 273h63q76 0 144.5 11t120 33.5t82 58.5t30.5 85q0 31 -11 52.5t-29.5 34t-40 17.5t-42.5 5 q-53 0 -101 -15.5t-86 -39t-66.5 -50t-43.5 -47.5l-157 242q45 47 107.5 84t132 61.5t141 38t139.5 13.5q94 0 171 -26t131 -71t84 -108.5t30 -137.5q0 -68 -24.5 -127t-67.5 -105t-102.5 -80t-131.5 -48q102 -18 156.5 -101t54.5 -200q0 -125 -59.5 -217t-151.5 -151.5 t-205 -89t-219 -29.5z" />
<glyph horiz-adv-x="817" d="M373 592q-123 0 -201 39t-94 117l131 143q2 -8 14.5 -25.5t36 -36t60 -32t90.5 -13.5q82 0 143 25t61 76q0 49 -70.5 69.5t-197.5 20.5h-47l35 174h47q123 0 203 24.5t80 79.5q0 18 -12.5 31.5t-32 21t-42 11.5t-42.5 4q-76 0 -132.5 -26.5t-105.5 -69.5l-86 153 q31 29 72 51.5t88 38t99 22.5t101 7q68 0 123.5 -16.5t95 -44t61 -65.5t21.5 -83q0 -86 -63.5 -142t-169.5 -73q82 -12 124 -65.5t42 -122.5q0 -78 -39 -133.5t-100.5 -90t-138 -52t-154.5 -17.5z" />
<glyph horiz-adv-x="1228" d="M-47 0q31 141 65.5 247.5t90 186.5t135.5 140.5t200 113.5q76 33 148 66.5t127 74.5t88 95.5t33 128.5q0 61 -35 94t-92 33q-45 0 -91.5 -14.5t-90.5 -38t-83.5 -52t-72.5 -57.5l-158 217q43 39 105.5 80t140.5 75.5t169 57t189 22.5q199 0 299.5 -95t100.5 -259 q0 -109 -27 -187.5t-79 -141t-128 -113.5t-172 -103q-61 -33 -115.5 -63.5t-96.5 -62t-70.5 -68.5t-36.5 -82h561l-64 -295h-1040v0z" />
<glyph horiz-adv-x="849" d="M57 606q18 86 43 149.5t65 111.5t98.5 86t139.5 71q55 20 108.5 40.5t94.5 43t66.5 52.5t25.5 73q0 41 -34.5 59.5t-96.5 18.5q-78 0 -145.5 -30t-112.5 -64l-88 139q25 25 65 50.5t92 44.5t116.5 32.5t138.5 13.5q141 0 214 -58.5t73 -166.5q0 -78 -28 -134.5t-73 -96.5 t-101 -66.5t-114 -42.5q-176 -53 -194 -139h383l-41 -187h-695z" />
<glyph d="M305 -20q-141 0 -206.5 65.5t-65.5 192.5q0 66 18 149l148 688h327l-131 -616q-4 -23 -7 -43.5t-3 -38.5q0 -57 25.5 -89t83.5 -32q51 0 112.5 37t124.5 119l139 663h328l-229 -1075h-314l35 166q-74 -98 -177.5 -142t-207.5 -44z" />
<glyph horiz-adv-x="1738" d="M100 1075h338l58 -686l311 686h307l23 -686l346 686h338l-576 -1075h-373l-20 563l-277 -563h-356z" />
<glyph horiz-adv-x="1067" d="M-8 -436q49 78 115.5 193.5t140.5 242.5l-156 1075h350l43 -794l361 794h307l-780 -1511h-381v0z" />
<glyph horiz-adv-x="1396" d="M563 -20q-127 0 -217 53t-148.5 138t-86 190.5t-27.5 211.5q0 100 28.5 205t80 202t124 184t160.5 151.5t188.5 101.5t208.5 37q127 0 217.5 -54t148.5 -140t86 -192.5t28 -211.5q0 -100 -29 -204.5t-80 -202t-122.5 -182.5t-160 -149.5t-189.5 -101t-210 -36.5zM627 279 q90 0 161.5 57t120.5 142t76 183.5t27 178.5q0 59 -11.5 115.5t-35 101.5t-61.5 71.5t-91 26.5q-92 0 -165 -62.5t-122 -153.5t-74.5 -193.5t-25.5 -184.5q0 -55 11.5 -106.5t35 -90t61.5 -62t93 -23.5z" />
<glyph horiz-adv-x="489" d="M8 -418l60 281h294l-59 -281h-295z" />
<glyph horiz-adv-x="987" d="M362 -12q-92 0 -158.5 33.5t-108.5 87t-62.5 119t-20.5 130.5q0 90 42 183.5t115 168t171 123t211 48.5q92 0 157.5 -34t107.5 -88t61.5 -121t19.5 -132q0 -90 -41 -181.5t-113.5 -167t-170 -122.5t-210.5 -47zM401 178q72 0 127.5 31t94.5 76t58 98t19 98q0 39 -11 76 t-34.5 66.5t-59.5 48t-85 18.5q-72 0 -128 -30.5t-95 -75.5t-58.5 -99.5t-19.5 -99.5q0 -37 11 -75t35 -66.5t59.5 -47t86.5 -18.5z" />
<glyph horiz-adv-x="694" d="M4 186h197l104 498q-16 -14 -46 -32.5t-65.5 -35t-72.5 -27.5t-66 -11l39 190q37 0 81 18.5t83 40t64.5 41t25.5 21.5h193l-150 -703h178l-37 -186h-567z" />
<glyph horiz-adv-x="796" d="M236 -12q-104 0 -183.5 39t-111.5 104l139 131q29 -41 82 -65.5t125 -24.5q39 0 74.5 9t62.5 27.5t43 47.5t16 68q0 57 -40 82.5t-83 25.5q-47 0 -101 -24.5t-83 -65.5h-164q25 63 55.5 133t61.5 140.5t60.5 139t52.5 128.5h489l-41 -191h-352l-70 -145q18 10 52 18t83 8 q125 0 200 -65.5t75 -169.5q0 -76 -35 -139.5t-95.5 -110.5t-140 -73.5t-171.5 -26.5z" />
<glyph horiz-adv-x="862" d="M303 -12q-139 0 -215 83t-76 232q0 125 37 232.5t104.5 186.5t161 123t207.5 44q90 0 162 -33t113 -94l-138 -133q-23 37 -72.5 57.5t-111.5 20.5q-94 0 -159.5 -47.5t-88.5 -135.5q39 33 99.5 48.5t113.5 15.5q141 0 222 -71t81 -175q0 -72 -35.5 -136.5t-96 -112.5 t-140.5 -76.5t-168 -28.5zM344 164q41 0 80 12t68.5 31.5t48 46.5t18.5 57q0 47 -45 79t-115 32q-43 0 -81.5 -11.5t-68.5 -31t-47.5 -45t-17.5 -55.5q0 -47 46 -81t114 -34z" />
<glyph horiz-adv-x="796" d="M516 692h-453l41 191h750l-684 -881h-213z" />
<glyph horiz-adv-x="862" d="M266 -12q-92 0 -164.5 32.5t-113.5 94.5l137 133q25 -37 75 -58.5t111 -21.5q92 0 159 48t89 136q-37 -33 -99.5 -49t-117.5 -16q-137 0 -218 70.5t-81 174.5q0 74 36 138.5t96.5 112.5t139 77t166.5 29q141 0 217 -84t76 -232q0 -127 -37 -233.5t-104.5 -185 t-160.5 -122.5t-206 -44zM387 455q41 0 80 11t68.5 30.5t47 45t17.5 54.5q0 47 -45 82t-113 35q-41 0 -79.5 -12.5t-68.5 -33t-48.5 -47t-18.5 -55.5q0 -47 46 -78.5t114 -31.5z" />
<glyph horiz-adv-x="987" d="M494 602q-92 0 -159 34t-109 87t-62.5 118.5t-20.5 131.5q0 90 42 183t115 168t171 123t211 48q92 0 157.5 -34t107.5 -88t61.5 -120.5t19.5 -132.5q0 -90 -41 -181t-113.5 -167t-169.5 -123t-210 -47zM342 999q0 -37 10 -74.5t34 -66.5t59.5 -47t86.5 -18 q72 0 127.5 30.5t94.5 75.5t58 98.5t19 98.5q0 39 -11 75.5t-33.5 66.5t-59.5 48.5t-86 18.5q-72 0 -128 -31t-94 -76t-57.5 -99.5t-19.5 -99.5z" />
<glyph horiz-adv-x="831" d="M467 616l37 181h-422l39 186l592 514h129l-109 -514h123l-41 -186h-123l-39 -181h-186zM301 983h250l61 283z" />
<glyph horiz-adv-x="862" d="M872 948q0 -72 -35.5 -136t-96 -112.5t-140.5 -77t-168 -28.5q-139 0 -215 83t-76 232q0 125 37 232.5t104.5 186.5t161 123t207.5 44q90 0 163 -31.5t114 -95.5l-137 -133q-25 37 -75 57.5t-112 20.5q-94 0 -159.5 -47t-88.5 -136q39 33 99.5 48.5t113.5 15.5 q141 0 222 -71t81 -175zM473 770q41 0 80 12.5t68.5 33t48 47t18.5 55.5q0 47 -45 78.5t-115 31.5q-43 0 -81.5 -11t-68.5 -30.5t-47.5 -45.5t-17.5 -54q0 -47 46 -82t114 -35z" />
<glyph horiz-adv-x="851" d="M850 911q0 -66 -36 -122t-95.5 -98t-136 -65.5t-158.5 -23.5q-68 0 -124 18.5t-98 50t-64.5 76t-22.5 95.5q0 49 16 86t45 66.5t67 51t79 39.5q-41 18 -68 52t-27 86q0 59 36 109t92.5 86t124 56.5t132.5 20.5q53 0 105.5 -15.5t92.5 -43t64.5 -67.5t24.5 -87 q0 -72 -49 -120t-119 -77q53 -29 86 -72t33 -102zM659 907q0 43 -46 67.5t-107 24.5q-37 0 -72 -8t-61.5 -23.5t-43 -37t-16.5 -45.5q0 -41 47.5 -66.5t106.5 -25.5q35 0 69.5 8t62.5 23.5t44 36.5t16 46zM414 1225q0 -33 40 -51.5t87 -18.5q27 0 55.5 6t51 17.5t37.5 28 t15 36.5q0 31 -36.5 49.5t-90.5 18.5q-61 0 -110 -22.5t-49 -63.5z" />
<glyph horiz-adv-x="862" d="M172 1141q0 72 36 136t96.5 112.5t139 77t166.5 28.5q141 0 217 -84t76 -231q0 -127 -37 -233.5t-104.5 -185.5t-160.5 -123t-206 -44q-92 0 -164.5 32.5t-113.5 96.5l137 131q25 -37 75 -58.5t111 -21.5q94 0 160 49t88 135q-37 -31 -99.5 -47t-117.5 -16 q-139 0 -219 70t-80 176zM571 1319q-41 0 -79.5 -12.5t-68.5 -33t-48.5 -47t-18.5 -55.5q0 -47 46.5 -78.5t113.5 -31.5q41 0 80 11t68.5 30.5t48 45.5t18.5 54q0 47 -46 82t-114 35z" />
</font>
</defs>
</svg>
