<?xml version="1.0" standalone="no"?>
<!DOCTYPE svg PUBLIC "-//W3C//DTD SVG 1.1//EN" "http://www.w3.org/Graphics/SVG/1.1/DTD/svg11.dtd" >
<svg xmlns="http://www.w3.org/2000/svg" xmlns:xlink="http://www.w3.org/1999/xlink" version="1.1">
<metadata></metadata>
<defs>
<font id="ralewaylight_italic" horiz-adv-x="1482" >
<font-face units-per-em="2048" ascent="1638" descent="-410" />
<missing-glyph horiz-adv-x="514" />
<glyph unicode="ff" horiz-adv-x="1118" d="M272 981h-141l19 84h143l2 16q14 66 45 129.5t79 113.5t110.5 81t142.5 31q68 0 118 -17.5t78 -38.5q53 61 122 98.5t161 37.5q47 0 78 -9.5t51 -20.5t31.5 -22.5t17.5 -15.5l-53 -74q-12 14 -37 31.5t-90 17.5q-68 0 -122 -29.5t-93 -75.5t-63.5 -103.5t-34.5 -112.5 l-9 -37h334l-18 -84h-334l-209 -981h-102l209 981h-332l-207 -981h-102zM725 1065q14 74 36.5 131t55.5 104q-29 27 -73 35t-76 8q-63 0 -109.5 -24.5t-79.5 -63t-52 -84t-30 -88.5l-4 -18h332z" />
<glyph unicode="fi" horiz-adv-x="950" d="M272 981h-141l19 84h143l6 35q14 70 49 144.5t89.5 134t128 98.5t165.5 39q53 0 96 -10.5t76 -24t53.5 -28.5t30.5 -23l-67 -72q-23 27 -77.5 46t-125.5 19q-66 0 -119 -29.5t-93 -75.5t-65.5 -103.5t-38.5 -112.5l-6 -37h496l-227 -1065h-103l209 981h-395l-207 -981 h-102z" />
<glyph unicode="fl" horiz-adv-x="1097" d="M801 -12q-74 0 -112 41t-38 100q0 29 8 61l215 1012q4 14 6.5 28.5t2.5 29.5q0 33 -9.5 62.5t-31 52t-56 35.5t-86.5 13q-61 0 -111 -27.5t-87 -72.5t-62.5 -103.5t-38.5 -121.5l-6 -33h221l-18 -84h-223l-207 -981h-102l206 981h-141l19 84h143l8 41q18 88 53 162.5 t88.5 130t122 86.5t154.5 31q137 0 203.5 -62.5t66.5 -161.5q0 -39 -8 -73l-215 -1010q-4 -20 -4 -31q0 -37 20.5 -66.5t67.5 -29.5q18 0 39.5 3t40 7t32.5 7l13 3v-86q0 -2 -16.5 -6t-41 -9t-55 -9t-61.5 -4z" />
<glyph unicode="ffi" horiz-adv-x="1384" d="M272 981h-141l19 84h141l4 16q12 63 43 126t79 114t111.5 83t143.5 32q68 0 118 -17.5t78 -38.5q57 61 130 98.5t169 37.5q49 0 91 -10.5t75 -24t55.5 -28.5t32.5 -23l-67 -72q-20 25 -75.5 45t-121.5 20q-72 0 -126 -29.5t-94 -75.5t-65.5 -103.5t-35.5 -112.5l-9 -37 h498l-227 -1065h-103l209 981h-395l-209 -981h-102l209 981h-332l-207 -981h-102zM725 1065q14 66 36.5 127t55.5 108q-29 27 -73 35t-76 8q-63 0 -110.5 -25.5t-80.5 -63t-52 -84t-28 -89.5l-4 -16h332z" />
<glyph unicode="ffl" horiz-adv-x="1540" d="M1247 -12q-80 0 -116.5 41t-36.5 100q0 29 8 68l215 1005q6 27 6 58q0 68 -40 115.5t-132 47.5q-68 0 -119 -28.5t-89 -74.5t-63.5 -105.5t-37.5 -120.5l-6 -29h221l-19 -84h-221l-209 -981h-102l209 981h-340l-207 -981h-102l206 981h-141l19 84h141l4 14 q16 74 51 138.5t84 112.5t112.5 77t141.5 29q72 0 114 -17.5t70 -36.5q53 63 127 98.5t168 35.5q135 0 201 -63.5t66 -162.5q0 -37 -9 -71l-213 -1010q-4 -20 -4 -33q0 -35 20.5 -64.5t69.5 -29.5q35 0 76 10t45 10v-86q0 -2 -16.5 -6t-41 -9t-54 -9t-56.5 -4zM733 1065 q16 74 35.5 135.5t46.5 102.5q-27 27 -63.5 33.5t-69.5 6.5q-61 0 -109.5 -23.5t-84 -60t-59 -84t-32.5 -94.5l-4 -16h340z" />
<glyph horiz-adv-x="0" />
<glyph horiz-adv-x="0" />
<glyph unicode=" "  horiz-adv-x="514" />
<glyph unicode="&#x09;" horiz-adv-x="514" />
<glyph unicode="&#xa0;" horiz-adv-x="514" />
<glyph unicode="!" horiz-adv-x="489" d="M158 446l215 1022h104l-217 -1022h-102zM61 0l45 209h109l-49 -209h-105z" />
<glyph unicode="&#x22;" horiz-adv-x="530" d="M242 1106l75 356h93l-78 -356h-90zM397 1106l76 356h92l-76 -356h-92z" />
<glyph unicode="#" horiz-adv-x="1312" d="M1307 954h-244l-191 -436h261l-17 -84h-282l-191 -434h-90l195 434h-402l-190 -434h-90l192 434h-219l18 84h242l188 436h-256l19 80h276l185 420h90l-189 -420h402l184 420h90l-188 -420h225zM784 518l191 436h-400l-190 -436h399z" />
<glyph unicode="$" horiz-adv-x="1212" d="M1130 1212q-98 156 -333 158l-125 -596q94 -23 172 -48.5t131 -63t82.5 -90t29.5 -128.5q0 -111 -43 -195.5t-119.5 -142t-183 -88t-231.5 -30.5l-41 -191h-61l41 193q-285 14 -451 215l74 84q59 -88 160.5 -143.5t240.5 -65.5l127 604q-90 20 -160.5 45t-120 58.5 t-75 82t-25.5 115.5q0 106 41 192.5t112.5 147.5t172 96t217.5 41l45 207h61l-45 -205q129 -4 220.5 -46t156.5 -124zM973 414q0 106 -82 161.5t-242 96.5l-125 -592q207 0 328 86t121 248zM332 1016q0 -98 71.5 -145.5t219.5 -84.5l122 582q-111 -4 -188.5 -32.5 t-127.5 -76t-73.5 -109.5t-23.5 -134z" />
<glyph unicode="%" horiz-adv-x="1376" d="M432 895q-104 0 -166.5 68.5t-62.5 169.5q0 70 29.5 131t78.5 108t112.5 75t131.5 28q104 0 166.5 -69t62.5 -171q0 -68 -29.5 -130.5t-78.5 -108.5t-112.5 -73.5t-131.5 -27.5zM446 961q49 0 95.5 22.5t82 59t57 85t21.5 99.5q0 78 -46 130t-115 52q-49 0 -95.5 -22.5 t-82 -59.5t-57 -85t-21.5 -99q0 -78 44.5 -130t116.5 -52zM868 -20q-102 0 -165.5 68.5t-63.5 170.5q0 68 30.5 130.5t80 108.5t113 73.5t128.5 27.5q102 0 165 -68.5t63 -168.5q0 -70 -30 -131.5t-79 -108.5t-111.5 -74.5t-130.5 -27.5zM881 45q49 0 95 22.5t82 59.5 t58.5 84t22.5 98q0 78 -46 131.5t-116 53.5q-49 0 -95 -22.5t-82 -59.5t-58.5 -85t-22.5 -100q0 -78 45 -130t117 -52zM-2 43l1378 1417l47 -47l-1378 -1419z" />
<glyph unicode="&#x26;" horiz-adv-x="1372" d="M848 225q-102 -117 -222 -181t-245 -64q-76 0 -138.5 24.5t-107.5 69.5t-70.5 107.5t-25.5 135.5q0 158 104.5 278t292.5 232q-63 98 -90 164t-27 125q0 72 34 136.5t91.5 113.5t132 78t158.5 29q111 0 196 -56.5t130 -159.5l-72 -63q-35 90 -106.5 143.5t-163.5 53.5 q-59 0 -114.5 -21.5t-97.5 -57.5t-66.5 -83t-24.5 -99q0 -49 27.5 -114.5t99.5 -165.5l323 -463q61 98 107.5 215t70.5 250h297l-18 -86h-201q-33 -131 -85 -244.5t-119 -210.5l219 -311h-133zM401 68q106 0 209 60t191 167l-314 457l-6 6q-166 -100 -253 -201.5t-87 -226.5 q0 -121 72.5 -191.5t187.5 -70.5z" />
<glyph unicode="'" horiz-adv-x="372" d="M242 1104l75 358h93l-78 -358h-90z" />
<glyph unicode="(" horiz-adv-x="512" d="M94 528q0 137 36 261t98.5 243t146.5 234.5t178 236.5l70 -41q-66 -78 -140.5 -184.5t-139 -228t-107.5 -251.5t-43 -253q0 -63 7 -136t21.5 -147t34.5 -146.5t49 -138.5l-84 -45q-59 139 -93 297t-34 299z" />
<glyph unicode=")" horiz-adv-x="512" d="M459 887q0 -125 -33 -245t-93.5 -237.5t-144.5 -234.5t-186 -238l-68 45q94 111 172 221.5t134.5 223.5t87 224.5t30.5 221.5q0 78 -9 162t-24.5 164t-36 149.5t-40.5 118.5l88 41q53 -143 88 -302.5t35 -313.5z" />
<glyph unicode="*" horiz-adv-x="626" d="M283 1133l108 122l-121 45l31 60l123 -49l27 147h69l-35 -147l146 49l2 -60l-139 -45l57 -122l-62 -37l-53 125l-110 -125z" />
<glyph unicode="+" horiz-adv-x="845" d="M756 770v-86h-267v-289h-94v289h-268v86h268v289h94v-289h267z" />
<glyph unicode="," horiz-adv-x="481" d="M31 -166l63 162h-37l37 178h105l-39 -178l-74 -162h-55z" />
<glyph unicode="-" horiz-adv-x="829" d="M111 510l20 94h561l-20 -94h-561z" />
<glyph unicode="." horiz-adv-x="362" d="M8 0l39 174h88l-37 -174h-90z" />
<glyph unicode="/" horiz-adv-x="1175" d="M1282 1454l-1219 -1454h-116l1218 1454h117z" />
<glyph unicode="0" horiz-adv-x="1208" d="M469 -20q-86 0 -154.5 34.5t-118 98t-75 149.5t-25.5 191q0 160 52.5 300t140.5 244.5t203.5 165t240.5 60.5q86 0 154.5 -35t118 -98.5t75 -149.5t25.5 -190q0 -160 -52.5 -300.5t-140.5 -245t-203.5 -164.5t-240.5 -60zM489 76q102 0 195.5 51t164.5 141t111.5 211 t40.5 260q0 86 -19 158t-57 122t-91.5 78.5t-120.5 28.5q-104 0 -196.5 -52t-163 -142t-111.5 -212t-41 -259q0 -172 75.5 -278.5t212.5 -106.5z" />
<glyph unicode="1" horiz-adv-x="796" d="M25 94h276l201 946q-23 -25 -66 -53.5t-94 -54t-103.5 -43t-91.5 -17.5l21 103q49 0 109.5 27.5t114.5 62.5t93 66.5t43 37.5h105l-227 -1075h247l-20 -94h-629z" />
<glyph unicode="2" horiz-adv-x="1009" d="M-27 0q12 57 37 128t74 143.5t128 142t200 123.5q100 45 180 82.5t135 78.5t85 89.5t30 113.5q0 37 -13.5 72t-42 62.5t-72.5 44t-104 16.5q-66 0 -123 -20.5t-103 -49.5t-79 -57.5t-49 -44.5l-53 71q8 8 46 40t96 66t135 61.5t165 27.5q76 0 134.5 -21.5t97 -58.5 t58 -85t19.5 -99q0 -84 -32.5 -146.5t-91 -112t-140.5 -90t-178 -83.5q-82 -35 -149.5 -86.5t-118.5 -107.5t-85 -110.5t-46 -95.5h690l-21 -94h-809v0z" />
<glyph unicode="3" horiz-adv-x="1030" d="M305 -301q-147 0 -244.5 65.5t-123.5 180.5l86 61q18 -98 96 -155.5t207 -57.5q90 0 164.5 27.5t129 78t84 122t29.5 159.5q0 117 -74.5 186.5t-218.5 69.5h-47l19 90h51q90 0 162.5 24.5t123 69t77 104.5t26.5 132q0 106 -68.5 167.5t-183.5 61.5t-213 -56t-162 -152 l-57 57q35 55 85 100t110.5 78t128 50.5t137.5 17.5q76 0 138 -22.5t105 -62.5t67 -95.5t24 -122.5q0 -74 -27 -140.5t-73 -119t-108.5 -88t-136.5 -46.5q104 -16 163 -97t59 -198q0 -106 -42 -196t-114 -154.5t-169 -101.5t-210 -37z" />
<glyph unicode="4" horiz-adv-x="1058" d="M612 121h-667l18 90l905 958h70l-203 -954h172l-20 -94h-172l-80 -381h-103zM641 215l168 789l-731 -789h563z" />
<glyph unicode="5" horiz-adv-x="1075" d="M324 -305q-147 0 -249 79t-132 208l84 43q31 -106 114.5 -171t200.5 -65q88 0 171 35t147.5 96.5t102.5 144t38 179.5q0 133 -78 215t-207 82q-98 0 -194.5 -46t-169.5 -133h-99q8 20 36 88t63.5 158t75.5 188.5t73 181.5t55 137l23 54h661l-20 -96h-586l-227 -575 q72 66 159 101.5t179 35.5q80 0 147.5 -27.5t114.5 -77t73.5 -118t26.5 -150.5q0 -123 -50 -227.5t-132 -180t-186 -117.5t-215 -42z" />
<glyph unicode="6" horiz-adv-x="1198" d="M485 -20q-178 0 -282.5 118.5t-104.5 327.5q0 203 52.5 390.5t146.5 331.5t225 230t291 86q137 0 230.5 -75.5t115.5 -206.5l-82 -56q-16 111 -93 178.5t-193 67.5q-98 0 -186.5 -49t-162 -140t-129 -219t-86.5 -286q37 68 89.5 123t116 93t134 58.5t142.5 20.5 q86 0 156.5 -32t119.5 -86t77 -128t28 -160q0 -119 -51.5 -225t-135.5 -187t-192.5 -128t-225.5 -47zM508 72q90 0 176 39t153.5 104.5t108.5 151.5t41 182q0 70 -22.5 131t-63.5 106t-97 72t-124 27q-90 0 -176 -39t-153.5 -105.5t-109.5 -152.5t-42 -180 q0 -70 22.5 -131.5t63.5 -106.5t98 -71.5t125 -26.5z" />
<glyph unicode="7" horiz-adv-x="1050" d="M944 1098h-772l21 96h937l-1011 -1454h-117z" />
<glyph unicode="8" horiz-adv-x="1157" d="M438 -14q-90 0 -161.5 27.5t-122 74.5t-77 111.5t-26.5 136.5q0 86 35 158.5t89 129t122 96.5t133 60q-78 33 -130 100.5t-52 159.5q0 98 47 175t122 130.5t165 81t176 27.5q68 0 132 -20.5t114.5 -58.5t80 -94t29.5 -128q0 -70 -27.5 -128t-71.5 -105.5t-101.5 -82 t-118.5 -57.5q96 -37 158.5 -119.5t62.5 -197.5q0 -106 -49 -194.5t-131 -151t-185.5 -97t-212.5 -34.5zM465 76q74 0 153.5 27.5t144 77.5t106.5 121t42 157q0 66 -26.5 117t-70.5 86.5t-100.5 54t-113.5 18.5q-74 0 -152.5 -28.5t-143 -78.5t-106.5 -121t-42 -157 q0 -66 26.5 -116t70.5 -85.5t99.5 -54t112.5 -18.5zM621 819q61 0 129.5 21.5t125 61.5t94.5 98.5t38 134.5q0 53 -21.5 95t-59.5 70.5t-87 44t-105 15.5q-70 0 -138.5 -22.5t-123.5 -63.5t-89 -98.5t-34 -128.5q0 -55 23.5 -97.5t62.5 -71t87.5 -44t97.5 -15.5z" />
<glyph unicode="9" horiz-adv-x="1165" d="M354 -317q-139 0 -231 74.5t-117 207.5l82 55q16 -111 93 -178t194 -67q98 0 186 49t162 140t129 219t86 286q-72 -137 -203 -216t-278 -79q-86 0 -156 32t-119 86t-76.5 128t-27.5 160q0 119 50 225t134 187t192.5 128t225.5 47q178 0 282.5 -118.5t104.5 -327.5 q0 -203 -52 -390.5t-145.5 -331.5t-224.5 -230t-291 -86zM487 262q90 0 176.5 39t154 105.5t108.5 152.5t41 180q0 70 -22.5 131.5t-63.5 106.5t-98.5 71.5t-125.5 26.5q-90 0 -176 -39t-153.5 -104.5t-108.5 -151.5t-41 -182q0 -70 22.5 -131t63.5 -106.5t98 -72t125 -26.5 z" />
<glyph unicode=":" horiz-adv-x="356" d="M188 885l39 174h88l-36 -174h-91zM2 0l37 174h88l-37 -174h-88z" />
<glyph unicode=";" horiz-adv-x="366" d="M193 885l36 174h90l-38 -174h-88zM-25 -166l64 162h-37l39 178h102l-39 -178l-73 -162h-56z" />
<glyph unicode="&#x3c;" horiz-adv-x="1114" d="M63 559l857 514v-110l-709 -433l709 -432v-112l-857 512v61z" />
<glyph unicode="=" horiz-adv-x="950" d="M158 426v78h610v-78h-610zM158 627v78h610v-78h-610z" />
<glyph unicode="&#x3e;" horiz-adv-x="1112" d="M1014 498l-858 -512v112l708 432l-708 433v110l858 -514v-61z" />
<glyph unicode="?" horiz-adv-x="931" d="M268 395q33 158 92.5 237t149.5 126q53 29 115.5 57.5t116 70.5t88 106.5t34.5 162.5q0 115 -67.5 172t-161.5 57q-109 0 -210 -61t-167 -160l-65 45q41 63 95 112.5t114.5 83.5t126 51.5t126.5 17.5t116.5 -19.5t97.5 -57.5t67 -95.5t25 -133.5q0 -106 -32 -177.5 t-84 -123t-117.5 -86.5t-135.5 -65q-37 -16 -72 -39t-65.5 -57.5t-55 -89t-41.5 -134.5h-90zM186 0l43 201h88l-41 -201h-90z" />
<glyph unicode="@" horiz-adv-x="1636" d="M1133 31q66 0 123 55t99 141t66.5 189.5t24.5 199.5q0 117 -37 219.5t-105.5 177t-166 119t-217.5 44.5q-152 0 -297.5 -69t-259 -184.5t-182 -269t-68.5 -323.5q0 -123 36.5 -226.5t105.5 -180.5t164 -120t212 -43q80 0 155.5 19.5t153.5 58.5l12 -55 q-86 -41 -174 -61.5t-168 -20.5q-123 0 -225 47t-176 130t-116 196.5t-42 249.5q0 125 36 241.5t97.5 218t146.5 184.5t182 142t204.5 92t214.5 33q129 0 235.5 -47t182 -128t116.5 -191.5t41 -237.5q0 -100 -26.5 -217t-77.5 -216.5t-126 -165t-169 -65.5q-57 0 -88 30 t-31 99q0 14 1 31.5t5 34.5q-70 -66 -160 -108t-178 -42q-70 0 -126 28t-96 77t-61.5 115.5t-21.5 144.5q0 109 40 208t107.5 176t156.5 122t186 45q102 0 170.5 -50.5t101.5 -136.5l37 181h74l-154 -719q-8 -35 -10 -56.5t-2 -33.5q0 -82 74 -82zM686 82q49 0 101.5 17.5 t98.5 48t82 71.5t54 88l68 346q-29 102 -96.5 153.5t-155.5 51.5q-78 0 -151 -38t-131 -101.5t-93 -147.5t-35 -178q0 -68 19.5 -125t53.5 -99t82 -64.5t103 -22.5z" />
<glyph unicode="A" horiz-adv-x="1329" d="M807 1454h90l272 -1454h-110l-90 479h-654l-290 -479h-113zM961 565l-136 762l-467 -762h603z" />
<glyph unicode="B" horiz-adv-x="1302" d="M365 1454h647q61 0 107 -25.5t77 -66.5t46 -94.5t15 -110.5q0 -66 -20 -129t-58 -116.5t-89.5 -96.5t-112.5 -70q92 -31 140 -111.5t48 -184.5q0 -94 -40 -176.5t-104.5 -142.5t-147 -95t-168.5 -35h-650zM723 94q63 0 123.5 31t109 80t77 112.5t28.5 131.5 q0 49 -13.5 92t-39 76.5t-62.5 53t-82 19.5h-557l-127 -596h543zM827 778q63 0 122 30t104 79t71.5 112.5t26.5 130.5q0 96 -49 163t-139 67h-514l-123 -582h501z" />
<glyph unicode="C" horiz-adv-x="1349" d="M604 -12q-121 0 -214 51t-157.5 137t-98.5 196.5t-34 227.5q0 150 62.5 302.5t173 277.5t262.5 203.5t330 78.5q92 0 165.5 -23.5t129 -65.5t92.5 -100.5t53 -127.5l-96 -49q-18 76 -57 127t-89.5 82.5t-109 46t-117.5 14.5q-100 0 -191.5 -31.5t-168 -87t-139 -130.5 t-105.5 -159t-66.5 -175t-23.5 -177q0 -106 29.5 -200.5t85 -166t134 -113.5t177.5 -42q61 0 130.5 16.5t137.5 51t130.5 89t113.5 128.5l82 -43q-53 -82 -126 -145.5t-157 -106.5t-171 -64.5t-167 -21.5z" />
<glyph unicode="D" horiz-adv-x="1409" d="M365 1454h460q135 0 234.5 -43t164 -117.5t96.5 -176t32 -218.5q0 -195 -62.5 -358.5t-174 -284.5t-265.5 -188.5t-334 -67.5h-461zM537 94q164 0 295 64.5t222 173t140 251t49 298.5q0 104 -27.5 192t-83 151.5t-137.5 99.5t-190 36h-356l-269 -1266h357z" />
<glyph unicode="E" horiz-adv-x="1196" d="M365 1454h903l-19 -94h-800l-121 -572h698l-20 -90h-697l-129 -604h817l-20 -94h-922z" />
<glyph unicode="F" horiz-adv-x="1183" d="M365 1454h901l-21 -94h-796l-121 -578h673l-18 -90h-676l-147 -692h-105z" />
<glyph unicode="G" horiz-adv-x="1406" d="M1118 225q-248 -236 -508 -235q-121 0 -215 51t-159.5 136t-100.5 194.5t-35 226.5q0 162 66.5 317.5t179.5 277.5t259.5 196.5t303.5 74.5q104 0 182 -23.5t133.5 -65.5t91.5 -100t54 -128l-94 -51q-41 143 -141.5 207.5t-247.5 64.5q-141 0 -265 -68.5t-216.5 -178 t-146.5 -246t-54 -271.5q0 -104 30.5 -198.5t87 -165t135.5 -112.5t177 -42q125 0 250 60.5t258 193.5l61 283h-311l18 84h402l-150 -707h-92z" />
<glyph unicode="H" horiz-adv-x="1445" d="M365 1454h104l-141 -663h864l141 663h105l-310 -1454h-104l147 696h-862l-149 -696h-105z" />
<glyph unicode="I" horiz-adv-x="477" d="M365 1452h104l-309 -1452h-105z" />
<glyph unicode="J" horiz-adv-x="950" d="M209 -23q-174 0 -281 91l52 84q39 -35 102 -56.5t147 -21.5q111 0 187 43t128 125t87 201.5t67 271.5l158 737h105l-158 -737q-35 -166 -78 -302.5t-108.5 -232.5t-164 -149.5t-243.5 -53.5z" />
<glyph unicode="K" horiz-adv-x="1241" d="M365 1452h104l-188 -881l987 883h121l-709 -637l428 -817h-119l-389 754l-344 -305l-96 -449h-105z" />
<glyph unicode="L" horiz-adv-x="1136" d="M365 1454h104l-289 -1360h821l-20 -94h-926z" />
<glyph unicode="M" horiz-adv-x="1724" d="M365 1454h104l350 -1040l795 1040h102l-309 -1454h-104l268 1257l-748 -981h-65l-330 981l-268 -1257h-105z" />
<glyph unicode="N" horiz-adv-x="1517" d="M365 1454h81l689 -1280l270 1278h104l-309 -1452h-92l-680 1257l-268 -1257h-105z" />
<glyph unicode="O" d="M608 -10q-123 0 -218 49t-159.5 132t-98.5 191.5t-34 225.5q0 168 70 325.5t184.5 280.5t264 196.5t307.5 73.5q123 0 217 -51t158.5 -135t97.5 -192.5t33 -223.5q0 -166 -70 -323.5t-184.5 -279.5t-262 -195.5t-305.5 -73.5zM629 86q141 0 268 68.5t221 178t149.5 247 t55.5 272.5q0 104 -28.5 197.5t-83 164t-133.5 112.5t-177 42q-141 0 -268 -68.5t-222.5 -178t-150.5 -247t-55 -274.5q0 -104 28.5 -197.5t83 -164t133.5 -111.5t179 -41z" />
<glyph unicode="P" horiz-adv-x="1224" d="M365 1454h569q76 0 134 -31.5t99 -84t62.5 -119t21.5 -138.5q0 -96 -40 -191t-107.5 -171t-158.5 -123t-191 -47h-478l-116 -549h-105zM770 645q78 0 146.5 38t118.5 99.5t80 137t30 151.5q0 59 -17.5 111.5t-48 92.5t-74.5 62.5t-98 22.5h-458l-152 -715h473z" />
<glyph unicode="Q" horiz-adv-x="1480" d="M1028 131q-96 -66 -202.5 -103.5t-217.5 -37.5q-123 0 -217 49t-159.5 132t-99.5 191.5t-34 225.5q0 168 70 325.5t184.5 280.5t264 196.5t307.5 73.5q123 0 217 -51t158.5 -135t97.5 -192.5t33 -223.5q0 -96 -24 -189t-67 -180t-103 -164t-134 -141l112 -188h-108z M629 86q98 0 187 33t167 90l-123 213h107l90 -154q59 57 108 126t84 144.5t54.5 155.5t19.5 158q0 104 -28.5 197.5t-83 164t-133.5 112.5t-177 42q-141 0 -268 -68.5t-222.5 -178t-150.5 -247t-55 -274.5q0 -104 28.5 -197.5t83 -164t133.5 -111.5t179 -41z" />
<glyph unicode="R" horiz-adv-x="1277" d="M55 0l310 1454h577q74 0 133.5 -31.5t100.5 -84t62.5 -119t21.5 -138.5q0 -90 -34 -177t-92.5 -157.5t-135 -119.5t-164.5 -62l221 -565h-119l-217 549h-443l-116 -549h-105zM778 645q76 0 144.5 38t119 98.5t80 136t29.5 151.5q0 57 -17.5 110.5t-48 93.5t-73.5 63.5 t-97 23.5h-466l-152 -715h481z" />
<glyph unicode="S" horiz-adv-x="1193" d="M492 -12q-324 0 -504 217l73 84q66 -96 179.5 -152.5t273.5 -56.5q207 0 328 86t121 248q0 113 -95.5 171t-275.5 99q-92 20 -163 45t-120 58.5t-74.5 82t-25.5 115.5q0 113 45 202t123 150.5t185.5 94t232.5 32.5q135 0 232 -42t163 -128l-72 -82q-98 158 -344 158 q-121 0 -206 -27.5t-140 -74.5t-80.5 -111.5t-25.5 -140.5q0 -53 21.5 -90t64.5 -63.5t107.5 -47t150.5 -41.5q92 -23 168.5 -48.5t130 -63t83 -90t29.5 -128.5q0 -111 -44 -196.5t-123 -143t-186 -87t-232 -29.5z" />
<glyph unicode="T" horiz-adv-x="1185" d="M694 1360h-504l19 94h1114l-20 -94h-504l-291 -1360h-102z" />
<glyph unicode="U" d="M610 -10q-127 0 -213 38t-138 102.5t-75.5 151.5t-23.5 187q0 121 28 254l156 731h105l-156 -731q-12 -61 -20.5 -120.5t-8.5 -117.5q0 -84 18.5 -156.5t61.5 -127t112.5 -85t172.5 -30.5q139 0 242.5 55.5t176 145.5t118.5 204.5t71 231.5l154 731h104l-154 -731 q-31 -147 -89 -279.5t-148 -233.5t-212 -160.5t-282 -59.5z" />
<glyph unicode="V" horiz-adv-x="1325" d="M201 1454h110l242 -1323l801 1323h110l-893 -1454h-96z" />
<glyph unicode="W" horiz-adv-x="2033" d="M199 1454h114l242 -1331l436 708l-114 613h102l92 -529l318 529h102l-373 -613l135 -708l807 1331h115l-899 -1454h-94l-144 748l-465 -748h-94z" />
<glyph unicode="X" horiz-adv-x="1224" d="M575 717l-382 737h118l340 -661l619 661h119l-697 -737l371 -717h-119l-326 641l-600 -641h-118z" />
<glyph unicode="Y" horiz-adv-x="1232" d="M541 553l-351 901h117l307 -805l652 805h114l-735 -905l-119 -549h-102z" />
<glyph unicode="Z" horiz-adv-x="1214" d="M-57 86l1245 1274h-963l21 94h1087l-20 -86l-1239 -1274h964l-18 -94h-1096z" />
<glyph unicode="[" horiz-adv-x="487" d="M35 -82l340 1598h200l-18 -89h-104l-303 -1421h106l-18 -88h-203z" />
<glyph unicode="\" horiz-adv-x="1052" d="M336 1454l536 -1454h-116l-539 1454h119z" />
<glyph unicode="]" horiz-adv-x="485" d="M-47 -82l18 88h105l303 1421h-105l19 89h201l-338 -1598h-203z" />
<glyph unicode="^" horiz-adv-x="1081" d="M109 621l405 833h88l404 -833h-95l-352 729l-360 -729h-90z" />
<glyph unicode="_" horiz-adv-x="1024" d="M-18 -94l20 94h750l-21 -94h-749z" />
<glyph unicode="`" horiz-adv-x="417" d="M129 1495h113l84 -174l-76 -33z" />
<glyph unicode="a" horiz-adv-x="1210" d="M434 -20q-88 0 -158.5 36.5t-120 98t-75 142.5t-25.5 171q0 125 49.5 242.5t132 210t189 147.5t223.5 55q68 0 122 -20.5t97 -54t74 -78.5t49 -96l49 231h105l-197 -918q-4 -16 -4 -24q0 -31 35 -31l-21 -92q-10 -2 -17 -3t-13 -1q-41 0 -62.5 20.5t-21.5 53.5q0 6 1 15 t4 24.5t7 40t12 63.5q-84 -106 -200.5 -169.5t-233.5 -63.5zM471 72q55 0 120.5 23.5t126 62.5t107.5 91t66 109l74 351q-8 57 -36 108t-70 90t-95 61.5t-115 22.5q-98 0 -186 -49t-154.5 -128t-106.5 -177t-40 -197q0 -74 22.5 -141.5t63.5 -117.5t98 -79.5t125 -29.5z" />
<glyph unicode="b" horiz-adv-x="1200" d="M502 -20q-131 0 -217 67.5t-123 165.5l-45 -213h-92l317 1495h102l-141 -661q96 111 208 180t237 69q92 0 159.5 -37.5t113.5 -99t68.5 -140.5t22.5 -161q0 -131 -52 -252t-138 -213t-195.5 -146t-224.5 -54zM502 72q96 0 187 47t161 126t112 179t42 207q0 70 -19.5 135 t-58.5 115.5t-94.5 80t-129.5 29.5q-61 0 -119.5 -22.5t-111.5 -59.5t-101 -86t-91 -104l-82 -393q6 -55 32.5 -102.5t67.5 -81t93.5 -52t111.5 -18.5z" />
<glyph unicode="c" horiz-adv-x="1069" d="M455 -20q-92 0 -166 34.5t-126 96t-80 143.5t-28 176q0 131 51.5 249t138.5 208t200.5 143t240.5 53q139 0 230.5 -65.5t119.5 -181.5l-108 -33q-25 88 -96.5 138t-169.5 50q-96 0 -186.5 -44t-160 -118.5t-112.5 -174t-43 -210.5q0 -78 22.5 -146.5t62.5 -118.5 t97 -78.5t125 -28.5q53 0 108.5 16t104.5 43t87 62.5t58 74.5l95 -28q-31 -55 -81.5 -103.5t-111.5 -83.5t-131.5 -54t-140.5 -19z" />
<glyph unicode="d" horiz-adv-x="1210" d="M438 -20q-90 0 -161.5 36.5t-121 98t-75 142.5t-25.5 171q0 125 49.5 242.5t132 210t190.5 147.5t224 55q66 0 120 -20.5t97 -54t74 -78.5t49 -96l139 661h105l-287 -1348q-4 -20 -4 -24q0 -31 35 -31l-21 -92q-14 -2 -24 -2h-21q-70 10 -69 74q0 6 1 13t3 22.5t7 40 t13 65.5q-84 -106 -200.5 -169.5t-229.5 -63.5zM477 72q51 0 115.5 22.5t124 62.5t107.5 91t67 110l74 351q-8 57 -37 109t-71 90t-94 60.5t-108 22.5q-100 0 -190 -49t-157.5 -128t-106.5 -176t-39 -194q0 -76 22.5 -143.5t63.5 -118.5t99 -80.5t130 -29.5z" />
<glyph unicode="e" horiz-adv-x="1083" d="M459 -20q-96 0 -171 35.5t-127 97t-79 143.5t-27 174q0 125 48.5 243t134.5 209t201.5 146t250.5 55q63 0 122.5 -18t106 -54t74 -89.5t27.5 -122.5q0 -307 -557 -307q-66 0 -138.5 2t-160.5 8q-2 -16 -3 -34.5t-1 -35.5q0 -76 19.5 -143.5t59.5 -117.5t100 -80t140 -30 q51 0 105.5 15.5t103.5 43t91 67.5t71 89l86 -26q-37 -61 -89 -110.5t-114.5 -85.5t-132 -55t-141.5 -19zM678 999q-96 0 -177 -35.5t-144.5 -94t-108.5 -134.5t-68 -155q86 -6 154.5 -8.5t134.5 -2.5q127 0 214 17.5t140.5 48.5t77 73t23.5 93t-21.5 89t-55.5 62.5 t-79 35.5t-90 11z" />
<glyph unicode="f" horiz-adv-x="636" d="M272 981h-141l19 84h143l6 35q39 197 140.5 306.5t236.5 109.5q57 0 107.5 -18.5t80.5 -49.5l-53 -74q-20 23 -58 37t-79 14q-98 0 -172 -81.5t-101 -241.5l-6 -37h285l-18 -84h-287l-299 -1417h-103z" />
<glyph unicode="g" horiz-adv-x="1200" d="M338 -457q-176 0 -267 66.5t-130 179.5l77 47q37 -109 129.5 -159t208.5 -50q76 0 150 22.5t134 66.5t104 109.5t63 154.5l49 233q-41 -51 -92 -93t-106.5 -73t-115 -47t-114.5 -16q-88 0 -157.5 36.5t-118 98t-74 141.5t-25.5 168q0 123 49.5 240.5t132 210t191.5 148.5 t229 56q131 0 214 -72.5t130 -176.5l50 231h92l-232 -1085q-23 -109 -79 -191t-134 -136t-170 -82t-188 -28zM473 72q63 0 130 25.5t124 66.5t100 92t62 102l74 351q-10 61 -38 113t-69 89t-94 58.5t-111 21.5q-104 0 -193 -51t-155.5 -130t-104.5 -176t-38 -190 q0 -76 22.5 -143.5t63.5 -118.5t98 -80.5t129 -29.5z" />
<glyph unicode="h" horiz-adv-x="1130" d="M342 1495h102l-145 -684q88 125 213 198.5t252 73.5q129 0 186.5 -72.5t57.5 -203.5q0 -43 -5.5 -92t-17.5 -103l-129 -612h-102l125 594q20 96 20 170q0 225 -186 225q-61 0 -126 -24.5t-125.5 -69.5t-111.5 -105.5t-84 -130.5l-139 -659h-102z" />
<glyph unicode="i" horiz-adv-x="411" d="M250 1065h102l-225 -1065h-102zM342 1495h102l-38 -188h-103z" />
<glyph unicode="j" horiz-adv-x="428" d="M-223 -362q-61 0 -111.5 17t-85.5 58l70 68q25 -29 61.5 -39t75.5 -10q37 0 75 15t70.5 43t57 66t35.5 83l239 1126h103l-238 -1122q-14 -68 -51 -123.5t-86 -96t-105.5 -63t-109.5 -22.5zM356 1495h103l-41 -188h-103z" />
<glyph unicode="k" horiz-adv-x="1085" d="M342 1495h102l-159 -756q117 160 249 254t277 94q117 0 177.5 -57t60.5 -158q0 -135 -107.5 -239.5t-304.5 -157.5l242 -475h-113l-254 522q215 45 326.5 135.5t111.5 200.5q0 72 -43 107.5t-121 35.5q-135 0 -274 -111.5t-262 -311.5l-123 -578h-102z" />
<glyph unicode="l" horiz-adv-x="509" d="M211 -12q-70 0 -109 37.5t-39 103.5q0 23 7 51l278 1315h103l-273 -1284q-2 -10 -3 -18.5t-1 -18.5q0 -43 25.5 -67.5t74.5 -24.5q23 0 53.5 5t57.5 15v-82q-35 -14 -87 -23t-87 -9z" />
<glyph unicode="m" horiz-adv-x="1789" d="M250 1065h96l-55 -254q90 129 206.5 200.5t237.5 71.5q125 0 183.5 -76.5t58.5 -218.5q86 145 208 220t251 75q123 0 178 -68.5t55 -195.5q0 -90 -24 -207l-132 -612h-102l127 594q20 100 21 182q0 213 -177 213q-61 0 -121.5 -24.5t-115.5 -67.5t-103.5 -104.5 t-83.5 -135.5l-137 -657h-102l125 594q12 55 17 101t5 85q0 209 -174 209q-61 0 -122.5 -23.5t-117 -67.5t-102.5 -104.5t-84 -134.5l-139 -659h-102z" />
<glyph unicode="n" horiz-adv-x="1130" d="M250 1065h96l-55 -254q43 61 100.5 111.5t122 86t133 55t135.5 19.5q123 0 176.5 -65.5t53.5 -190.5q0 -47 -7.5 -100t-19.5 -115l-129 -612h-102l125 594q12 57 17 104t5 86q0 205 -170 205q-63 0 -131 -24.5t-130 -69.5t-115.5 -105.5t-88.5 -130.5l-139 -659h-102z " />
<glyph unicode="o" horiz-adv-x="1165" d="M446 -20q-92 0 -164.5 34.5t-122.5 95t-78 141.5t-28 173q0 129 52.5 249t140.5 211t201.5 145t234.5 54q90 0 163 -35.5t123 -96t77.5 -142.5t27.5 -174q0 -127 -52 -246t-139 -210t-200 -145t-236 -54zM465 72q92 0 183 45t162 120.5t115 175t44 208.5 q0 78 -22.5 145.5t-62.5 117.5t-97.5 78.5t-124.5 28.5q-92 0 -181.5 -45t-161 -121.5t-115.5 -177t-44 -211.5q0 -78 22.5 -144.5t62.5 -115.5t96 -76.5t124 -27.5z" />
<glyph unicode="p" horiz-adv-x="1202" d="M252 1065h92l-45 -213q84 102 199.5 166.5t232.5 64.5q90 0 161 -36.5t119 -99t73.5 -144.5t25.5 -170q0 -123 -47 -241t-128 -210t-189.5 -147t-229.5 -55q-129 0 -215 72.5t-125 176.5l-141 -665h-103zM512 72q100 0 189.5 49t157 127t106.5 175t39 195q0 76 -23 143.5 t-63.5 119t-98 81t-129.5 29.5q-53 0 -116.5 -23.5t-123 -63.5t-107.5 -91t-67 -108l-75 -351q12 -59 39.5 -110t67.5 -90t92.5 -60.5t111.5 -21.5z" />
<glyph unicode="q" horiz-adv-x="1200" d="M414 -20q-88 0 -154.5 35.5t-113 96t-70 139.5t-23.5 167q0 131 53.5 250.5t139.5 212t196.5 147.5t227.5 55q119 0 207 -66.5t124 -166.5l46 215h94l-287 -1354q-4 -16 -4 -20q0 -31 33 -33l-19 -90q-4 0 -8 -1t-8 -1q-45 0 -77 19.5t-32 64.5q0 8 4 24l117 555 q-208 -249 -446 -249zM459 72q63 0 123.5 22.5t115 59t101.5 87t86 105.5l78 361q-6 57 -30 109t-61.5 91t-90 61.5t-113.5 22.5q-100 0 -191.5 -49t-162 -128t-112.5 -178t-42 -202q0 -74 20.5 -139.5t59.5 -115.5t94 -78.5t125 -28.5z" />
<glyph unicode="r" horiz-adv-x="681" d="M250 1065h98l-57 -262q86 123 197.5 193.5t216.5 70.5q20 0 28 -2l-20 -92q-137 -4 -255 -85t-190 -222l-141 -666h-102z" />
<glyph unicode="s" horiz-adv-x="944" d="M342 -20q-117 0 -216 40.5t-161 122.5l64 70q68 -78 146.5 -115t182.5 -37q74 0 136.5 18.5t108.5 51.5t71.5 80t25.5 106q0 78 -71.5 115t-204.5 72q-72 18 -125 36.5t-89 42t-54.5 56.5t-18.5 80q0 88 37 156.5t98.5 114.5t142.5 69.5t169 23.5q119 0 201.5 -42 t117.5 -107l-67 -55q-35 61 -110 91.5t-167 30.5q-63 0 -120.5 -15t-101.5 -47t-70.5 -80t-26.5 -114q0 -35 14 -58t42 -40.5t71 -31t100 -27.5q80 -20 142.5 -41t106.5 -48.5t66.5 -65.5t22.5 -91q0 -80 -35 -146.5t-96.5 -114.5t-146.5 -74.5t-185 -26.5z" />
<glyph unicode="t" horiz-adv-x="626" d="M264 -12q-72 0 -119 36.5t-47 108.5q0 10 1 21.5t3 23.5l172 803h-143l19 84h143l76 365h102l-76 -365h236l-19 -84h-235l-154 -721q-14 -66 -14 -82q0 -47 29.5 -70.5t72.5 -23.5q31 0 58.5 6t50 15.5t38 16.5t21.5 11l13 -82q-8 -6 -30 -16t-52.5 -21.5t-67.5 -18.5 t-78 -7z" />
<glyph unicode="u" horiz-adv-x="1150" d="M332 -20q-248 0 -248 278q0 41 5 89t17 104l134 614h100l-127 -600q-23 -102 -23 -174q0 -219 191 -219q63 0 128.5 23.5t126 65.5t114 101.5t90.5 130.5l141 672h102l-188 -891q-4 -16 -7 -30.5t-3 -18.5q0 -33 35 -33l-21 -92q-14 -2 -24.5 -2h-20.5q-33 0 -50.5 21.5 t-17.5 50.5q0 6 1 14t4.5 26.5t10.5 52.5t19 89q-94 -129 -224 -200.5t-265 -71.5z" />
<glyph unicode="v" horiz-adv-x="974" d="M123 1065h106l144 -963q186 229 316 481.5t196 481.5h98q-78 -268 -222.5 -536.5t-361.5 -528.5h-106z" />
<glyph unicode="w" horiz-adv-x="1521" d="M115 1065h106l174 -963q96 109 176 228t146 239l-107 496h107l71 -360q47 94 82 184t62 176h98q-74 -244 -211 -498l94 -465q193 229 324 481.5t199 481.5h100q-82 -268 -227.5 -536.5t-368.5 -528.5h-106l-89 444q-66 -113 -145.5 -224t-175.5 -220h-107z" />
<glyph unicode="x" horiz-adv-x="966" d="M406 530l-279 535h113l229 -440l8 -29l21 25l420 444h112l-506 -535l279 -530h-115l-227 438l-10 27l-21 -25l-414 -440h-114z" />
<glyph unicode="y" horiz-adv-x="978" d="M-74 -375q63 10 107.5 27.5t81.5 46.5t70.5 73t74.5 107l74 111l-228 1075h107l193 -965l98 156q92 147 154.5 257t107.5 202t75.5 175t55.5 175h102q-29 -98 -59.5 -183t-76.5 -180.5t-114.5 -212t-170.5 -278.5l-168 -264q-72 -115 -128.5 -189.5t-109.5 -121 t-108.5 -68t-124.5 -27.5z" />
<glyph unicode="z" horiz-adv-x="948" d="M-57 74l901 911h-694l18 80h811l-16 -74l-897 -911h702l-18 -80h-824z" />
<glyph unicode="{" horiz-adv-x="487" d="M455 1427l-121 -567q-4 -20 -21.5 -57t-54.5 -66q16 -16 21.5 -38.5t5.5 -45.5q0 -10 -1 -21t-1 -18l-127 -589h108l-20 -88h-158q-12 0 -22.5 8t-10.5 30q0 14 2 23l127 594q2 8 2 16v17q0 29 -11 49t-38 24l17 82q20 0 36.5 12.5t27.5 29t18.5 33.5t9.5 28l121 571 q8 41 27.5 51.5t29.5 10.5h158l-19 -89h-106z" />
<glyph unicode="|" horiz-adv-x="563" d="M246 -266v1853h92v-1853h-92z" />
<glyph unicode="}" horiz-adv-x="487" d="M272 1427l19 89h155q8 0 21.5 -7.5t13.5 -35.5q0 -12 -2 -19l-123 -571q-2 -4 -2 -12.5v-18.5q0 -25 11.5 -48.5t40.5 -23.5l-19 -82q-37 -4 -60.5 -36.5t-31.5 -69.5l-125 -594q-8 -35 -25.5 -48t-33.5 -13h-156l18 88h107l125 589q4 18 21.5 56.5t52.5 66.5 q-14 18 -19.5 40t-5.5 42q0 25 4 41l121 567h-107z" />
<glyph unicode="~" horiz-adv-x="968" d="M109 502q2 6 16 37.5t41 66.5t67.5 62.5t94.5 27.5q45 0 83 -19.5t72.5 -42t70.5 -42t77 -19.5q37 0 65.5 15.5t47 35t27.5 37t9 21.5h70q0 -4 -14.5 -31.5t-42 -61.5t-71.5 -60.5t-104 -26.5q-49 0 -89 18.5t-75.5 42t-68.5 42t-68 18.5t-60.5 -18.5t-42.5 -41 t-26.5 -41t-9.5 -20.5h-69v0z" />
<glyph unicode="&#xa1;" horiz-adv-x="489" d="M381 1020l-217 -1022h-103l218 1022h102zM475 1466l-43 -209h-108l49 209h102z" />
<glyph unicode="&#xa2;" horiz-adv-x="1091" d="M358 -246l50 228q-82 6 -146.5 47t-108.5 102.5t-68 139t-24 159.5q0 115 45.5 227.5t123 203.5t184 150.5t227.5 69.5l51 240h62l-52 -240q147 -4 228.5 -69.5t109.5 -175.5l-106 -33q-29 92 -93.5 137t-156.5 49l-195 -915q41 0 91.5 14t99.5 40t90 61.5t61 78.5 l95 -28q-35 -66 -91.5 -114t-119 -81t-128 -49t-118.5 -16l-49 -226h-62zM166 442q0 -68 18.5 -130t52 -111t82 -82t109.5 -41l193 907q-98 -8 -181.5 -60.5t-143.5 -130t-95 -171t-35 -181.5z" />
<glyph unicode="&#xa3;" horiz-adv-x="954" d="M135 758h193q-23 78 -46.5 149.5t-23.5 149.5q0 82 37 156.5t96.5 130t135 88t155.5 32.5q104 0 182 -58t113 -157l-76 -63q-29 88 -94.5 139t-147.5 51q-57 0 -111 -24.5t-97 -67.5t-69 -100.5t-26 -120.5q0 -74 25 -147.5t45 -157.5h346l-18 -84h-312q2 -16 3 -34.5 t1 -35.5q0 -61 -10 -114.5t-43 -112t-95 -129t-165 -164.5q76 16 143 16q43 0 77 -6t66 -13t62.5 -13.5t67.5 -6.5q72 0 188 39l8 -82q-115 -49 -221 -49q-43 0 -79.5 7.5t-71.5 15.5t-73 15t-83 7q-43 0 -100.5 -8t-106.5 -20l-14 75q113 100 183.5 172t108.5 130.5 t51 111.5t13 119q0 39 -6 80h-227z" />
<glyph unicode="&#xa4;" horiz-adv-x="1142" d="M346 973q47 41 106.5 64.5t129.5 23.5t130 -24.5t107 -65.5l146 145l53 -53l-146 -145q35 -47 55.5 -105.5t20.5 -124.5q0 -129 -80 -231l150 -146l-49 -49l-150 144q-47 -41 -106.5 -64t-130.5 -23q-70 0 -129.5 21.5t-106.5 62.5l-145 -141l-49 49l145 144 q-80 102 -80 233q0 66 20.5 125t55.5 107l-141 143l55 53zM305 686q0 -61 21.5 -113.5t59.5 -92.5t88 -62.5t108 -22.5q57 0 107 23.5t88 63.5t60.5 93.5t22.5 114.5t-22.5 114.5t-60.5 93.5t-88 62.5t-107 22.5q-55 0 -105.5 -23.5t-88.5 -63.5t-60.5 -94.5t-22.5 -115.5z " />
<glyph unicode="&#xa5;" horiz-adv-x="1314" d="M827 731h170l-16 -78h-213l-86 -104l-10 -53h276l-14 -76h-279l-90 -420h-104l90 420h-277l17 76h276l13 57l-39 100h-215l16 78h172l-285 723h117l305 -805l652 805h116z" />
<glyph unicode="&#xa6;" horiz-adv-x="550" d="M332 573v-839h-92v839h92zM332 1587v-839h-92v839h92z" />
<glyph unicode="&#xa7;" horiz-adv-x="985" d="M750 389q59 -43 59 -149q0 -104 -46 -183.5t-115.5 -131.5t-152.5 -78.5t-155 -26.5q-66 0 -119 15t-94 41t-72.5 58.5t-54.5 65.5l82 63q57 -74 123.5 -109.5t152.5 -35.5q57 0 118 20.5t110 58.5t80.5 92t31.5 124q0 49 -20.5 80t-53 48t-73.5 24.5t-82 9.5 q-137 6 -225 70.5t-88 191.5q0 78 32.5 142.5t69.5 101.5q-29 23 -45 70.5t-16 107.5q0 92 43 168t108.5 128t146 80.5t156.5 28.5q70 0 121 -14t87 -39t60.5 -57.5t41.5 -69.5l-91 -37q-10 37 -34.5 60.5t-57.5 37t-69.5 19.5t-73.5 6q-57 0 -116.5 -20.5t-108 -59.5 t-79 -93t-30.5 -124q0 -98 65.5 -137t170.5 -43q61 -2 119.5 -15.5t104.5 -44t73.5 -77.5t27.5 -117q0 -76 -33.5 -143.5t-78.5 -106.5zM254 637q0 -84 47 -121t111.5 -51t133 -19.5t113.5 -25.5q43 33 73 88t30 115q0 51 -22.5 85.5t-57.5 56t-77 31t-83 9.5 q-106 0 -176 35q-35 -31 -63.5 -85.5t-28.5 -117.5z" />
<glyph unicode="&#xa8;" horiz-adv-x="581" d="M113 1311l37 180h90l-39 -180h-88zM381 1311l39 180h88l-37 -180h-90z" />
<glyph unicode="&#xa9;" horiz-adv-x="1724" d="M883 -14q-160 0 -297 56t-236.5 155.5t-156 234.5t-56.5 295q0 158 56.5 293t156 233.5t236.5 154.5t297 56q162 0 299 -56t237.5 -154.5t157.5 -233.5t57 -293q0 -160 -57 -295t-157.5 -234.5t-237.5 -155.5t-299 -56zM885 43q145 0 271 49t218 139.5t145.5 214 t53.5 275.5q0 147 -52.5 273t-144.5 218.5t-218 143.5t-273 51t-273.5 -51t-218.5 -142.5t-144 -216.5t-52 -272q0 -145 51 -270t143 -216.5t218 -143.5t276 -52zM899 254q-88 0 -172 32.5t-149.5 94t-105.5 149.5t-40 197q0 84 26.5 169t83 153.5t141.5 111.5t202 43 q127 0 229.5 -55t147.5 -164l-99 -33q-23 49 -57.5 81t-72.5 49.5t-78 23.5t-70 6q-90 0 -155.5 -35t-108.5 -90t-63.5 -123.5t-20.5 -136.5q0 -92 32.5 -162.5t85 -119t114.5 -74t122 -25.5q41 0 84 11.5t83 33t71.5 53t50.5 70.5l98 -29q-12 -35 -44 -74.5t-81 -74.5 t-113.5 -58.5t-140.5 -23.5z" />
<glyph unicode="&#xaa;" horiz-adv-x="839" d="M344 713q-86 0 -137 53t-51 131q0 55 26.5 102.5t73.5 81t108.5 53t133.5 19.5q55 0 106 -9t92 -28l13 64q6 27 6 53q0 68 -41 107.5t-117 39.5q-102 0 -242 -84l-20 64q156 94 285 94q111 0 172 -53t61 -152q0 -43 -8 -82l-68 -313q-2 -4 -2 -14q0 -23 27 -27l-19 -88 q-59 0 -76.5 20.5t-17.5 63.5v17.5t2 19.5q-61 -66 -141 -99.5t-166 -33.5zM385 791q43 0 88 12t84 31.5t66.5 47t33.5 58.5l25 113q-41 20 -87 27t-95 7q-106 0 -177 -47t-71 -125q0 -53 37 -88.5t96 -35.5z" />
<glyph unicode="&#xab;" horiz-adv-x="1089" d="M74 559l551 359l-19 -93l-452 -295l327 -292l-20 -93l-402 353zM471 559l553 359l-20 -93l-453 -295l328 -292l-19 -93l-401 353z" />
<glyph unicode="&#xac;" horiz-adv-x="1134" d="M1014 725l-99 -457h-90l78 363h-741l20 94h832z" />
<glyph unicode="&#xad;" horiz-adv-x="1099" d="M111 510l20 94h832l-19 -94h-833z" />
<glyph unicode="&#xae;" horiz-adv-x="1724" d="M885 -14q-162 0 -299 56t-236.5 155.5t-156 234.5t-56.5 295q0 158 56.5 293t156 233.5t236.5 154.5t299 56q160 0 297 -56t237.5 -154.5t157.5 -233.5t57 -293q0 -160 -57 -295t-157.5 -234.5t-237.5 -155.5t-297 -56zM885 43q145 0 270 49t217 139.5t145.5 216 t53.5 279.5q0 145 -51.5 269t-143.5 215.5t-218 143.5t-273 52t-273.5 -52t-218.5 -143.5t-143 -215.5t-51 -269q0 -147 51 -272t142 -216.5t217 -143.5t276 -52zM578 1190h389q59 0 109 -25.5t86 -66.5t56.5 -93.5t20.5 -105.5q0 -51 -16.5 -98t-45 -85t-70.5 -63.5 t-91 -31.5l233 -365h-94l-225 354h-268v-354h-84v934zM969 684q92 0 140 63.5t48 151.5q0 92 -55 152.5t-141 60.5h-299v-428h307z" />
<glyph unicode="&#xaf;" horiz-adv-x="761" d="M127 1374l16 76h557l-16 -76h-557z" />
<glyph unicode="&#xb0;" horiz-adv-x="520" d="M371 1163q-55 0 -89 36t-34 89q0 37 15.5 72t41 62.5t60 44t73.5 16.5q55 0 89 -38t34 -91q0 -39 -15.5 -74t-42 -60.5t-61 -41t-71.5 -15.5zM385 1229q37 0 74 32.5t37 79.5q0 35 -19.5 53.5t-52.5 18.5q-41 0 -75 -30.5t-34 -75.5q0 -35 18.5 -56.5t51.5 -21.5z" />
<glyph unicode="&#xb1;" horiz-adv-x="991" d="M145 143v88h643v-88h-643zM788 782v-88h-272v-295h-96v295h-275v88h275v295h96v-295h272z" />
<glyph unicode="&#xb2;" horiz-adv-x="751" d="M127 846q16 78 45 136t69 101t91 74t117 55q53 20 109 39t102.5 44.5t76 63.5t29.5 95q0 55 -42 96t-132 41q-49 0 -92 -12t-77 -29.5t-60.5 -38t-43.5 -36.5l-38 49q6 8 32.5 30.5t70.5 46t102.5 42t129.5 18.5q119 0 175.5 -55.5t56.5 -135.5q0 -70 -28.5 -116.5 t-76 -79.5t-108 -56.5t-123.5 -43.5q-74 -25 -122 -58t-76.5 -67.5t-43 -69.5t-20.5 -64h477l-14 -69h-586z" />
<glyph unicode="&#xb3;" horiz-adv-x="757" d="M420 834q-121 0 -186.5 52t-75.5 136l57 43q0 -66 54.5 -112t162.5 -46q53 0 101.5 13.5t85 37t59 55t22.5 70.5q0 66 -68.5 104t-189.5 38h-43l13 65h45q139 0 218 43t79 123q0 63 -52.5 100t-134.5 37q-80 0 -146.5 -31.5t-105.5 -84.5l-39 53q47 59 130 95t176 36 q115 0 182 -53.5t67 -139.5q0 -78 -55 -132t-162 -76q74 -14 116 -60.5t42 -112.5q0 -57 -30.5 -104t-80 -80t-112.5 -51t-129 -18z" />
<glyph unicode="&#xb4;" horiz-adv-x="415" d="M135 1288l-63 33l155 174h117z" />
<glyph unicode="&#xb5;" horiz-adv-x="1210" d="M268 1065h103l-127 -600q-23 -102 -23 -174q0 -219 193 -219q61 0 126.5 23.5t126 65.5t112.5 101.5t89 130.5l144 672h104l-196 -922q-2 -6 -2 -20q0 -31 34 -31l-22 -92q-72 0 -89.5 23.5t-17.5 58.5q0 4 3 25.5t7.5 48t9.5 53.5t9 43q-41 -59 -95.5 -109.5 t-114.5 -86.5t-124.5 -56t-128.5 -20q-98 0 -150.5 50t-64.5 138l-123 -602h-102z" />
<glyph unicode="&#xb6;" horiz-adv-x="1157" d="M131 868q0 131 47 240t134 185.5t210 118.5t275 42h442l-18 -84h-136l-327 -1534h-90l139 649h-156l-139 -649h-90l137 649q-205 4 -316.5 105.5t-111.5 277.5zM223 889q0 -80 28 -138.5t75 -96.5t112.5 -58.5t139.5 -24.5l170 799q-125 0 -222.5 -37t-165 -100.5 t-102.5 -151.5t-35 -192zM993 1370h-153l-170 -799h153z" />
<glyph unicode="&#xb7;" horiz-adv-x="356" d="M109 508l45 207h88l-43 -207h-90z" />
<glyph unicode="&#xb8;" horiz-adv-x="528" d="M16 -256q27 -14 70 -26.5t92 -12.5q133 0 133 92q0 33 -23.5 45.5t-60.5 12.5q-41 0 -88 -10.5t-73 -18.5l151 205l49 -25l-90 -115q18 8 40 10.5t38 2.5q119 0 119 -94q0 -78 -55.5 -119t-159.5 -41q-53 0 -99.5 11t-81.5 28z" />
<glyph unicode="&#xb9;" horiz-adv-x="518" d="M541 915l-15 -71h-379l15 71h160l139 660q-12 -12 -38 -29.5t-55.5 -33t-59 -25.5t-54.5 -10l14 71q31 0 68 16.5t67.5 37t52 39t23.5 20.5h74l-160 -746h148z" />
<glyph unicode="&#xba;" horiz-adv-x="882" d="M457 713q-66 0 -117 23.5t-87 65.5t-54.5 96t-18.5 116q0 86 36 166t95.5 140t138 97t164.5 37q63 0 115.5 -23.5t89.5 -64.5t56.5 -96.5t19.5 -118.5q0 -84 -36 -163t-96.5 -140.5t-139 -98t-166.5 -36.5zM473 788q61 0 120.5 29t107 77t76 111.5t28.5 133.5 q0 100 -57.5 167.5t-149.5 67.5q-61 0 -119.5 -27.5t-105.5 -75.5t-76 -111.5t-29 -135.5q0 -100 56.5 -168t148.5 -68z" />
<glyph unicode="&#xbb;" horiz-adv-x="1089" d="M977 498l-549 -353l18 93l453 292l-328 295l19 93l401 -359zM580 498l-551 -353l20 93l453 292l-328 295l19 93l399 -359z" />
<glyph unicode="&#xbc;" horiz-adv-x="1552" d="M1210 217h-446l14 66l580 522h49l-111 -518h111l-14 -70h-111l-47 -217h-70zM1227 287l88 413l-455 -413h367zM109 43l1378 1417l47 -47l-1378 -1419zM520 752l-14 -72h-379l14 72h160l139 659q-12 -12 -37.5 -29.5t-55.5 -33t-59.5 -25.5t-54.5 -10l15 71 q31 0 67.5 16.5t67.5 37t52.5 39t23.5 20.5h73l-159 -745h147z" />
<glyph unicode="&#xbd;" horiz-adv-x="1628" d="M834 0q33 156 111.5 239t207.5 130q51 18 106.5 36.5t100.5 44t73.5 63.5t28.5 95t-40 97t-128 40q-49 0 -91 -12t-75.5 -29.5t-59.5 -38t-44 -38.5l-39 51q8 8 33.5 30.5t68.5 46t100.5 42t129.5 18.5q117 0 172 -55t55 -135q0 -68 -27.5 -115t-73.5 -80t-105.5 -56.5 t-125.5 -45.5q-72 -25 -118.5 -57.5t-75.5 -67.5t-43 -70t-21 -63h480l-17 -70h-583zM51 43l1379 1417l47 -47l-1379 -1419zM528 752l-14 -72h-379l15 72h159l140 659q-12 -12 -38 -29.5t-55.5 -33t-59.5 -25.5t-54 -10l14 71q31 0 67.5 16.5t67.5 37t52.5 39t23.5 20.5h74 l-160 -745h147z" />
<glyph unicode="&#xbe;" horiz-adv-x="1579" d="M387 670q-49 0 -95 12t-82 35.5t-58.5 58.5t-22.5 82l57 43q0 -59 55.5 -108.5t159.5 -49.5q53 0 102.5 13.5t86.5 37t59.5 55.5t22.5 71q0 66 -70 103.5t-188 37.5h-43l12 65h45q139 0 218 42t79 126q0 61 -53.5 98.5t-132.5 37.5q-80 0 -146.5 -32t-105.5 -85l-39 53 q47 59 130 95t175 36q115 0 182.5 -54t67.5 -136q0 -166 -217 -211q74 -14 115.5 -61.5t41.5 -110.5q0 -57 -29.5 -104.5t-79.5 -80t-114.5 -51t-132.5 -18.5zM1229 217h-447l15 66l579 522h49l-110 -518h110l-14 -70h-111l-47 -217h-69zM1245 287l88 413l-454 -413h366z M176 43l1378 1417l48 -47l-1379 -1419z" />
<glyph unicode="&#xbf;" horiz-adv-x="921" d="M616 641q-16 -80 -39.5 -137.5t-53 -99.5t-66.5 -71.5t-82 -53.5q-53 -29 -115.5 -57.5t-116 -70.5t-88.5 -106.5t-35 -163.5q0 -115 68 -172t162 -57q109 0 210 61.5t167 159.5l65 -45q-41 -63 -95 -112.5t-114.5 -83t-126 -51t-127.5 -17.5q-61 0 -116.5 19.5t-97.5 57 t-66.5 95t-24.5 133.5q0 106 32 178t84 123t117.5 86t135.5 66q37 16 71.5 38.5t65.5 57.5t55.5 89t40.5 134h90zM698 1036l-43 -200h-88l41 200h90z" />
<glyph unicode="&#xc0;" horiz-adv-x="1329" d="M807 1454h90l272 -1454h-110l-90 479h-654l-290 -479h-113zM961 565l-136 762l-467 -762h603zM750 1880h112l84 -174l-76 -33z" />
<glyph unicode="&#xc1;" horiz-adv-x="1329" d="M807 1454h90l272 -1454h-110l-90 479h-654l-290 -479h-113zM961 565l-136 762l-467 -762h603zM881 1671l-64 33l156 174h117z" />
<glyph unicode="&#xc2;" horiz-adv-x="1329" d="M807 1454h90l272 -1454h-110l-90 479h-654l-290 -479h-113zM961 565l-136 762l-467 -762h603zM678 1712l223 166h76l153 -166l-67 -35l-139 129l-193 -129z" />
<glyph unicode="&#xc3;" horiz-adv-x="1329" d="M807 1454h90l272 -1454h-110l-90 479h-654l-290 -479h-113zM961 565l-136 762l-467 -762h603zM1016 1708q-43 0 -74 12.5t-55.5 27.5t-47 28.5t-53.5 13.5q-33 0 -55 -14.5t-35.5 -32t-20.5 -32.5t-7 -19h-70q2 8 14.5 35.5t37 57.5t61.5 53.5t90 23.5q39 0 66.5 -13.5 t52 -29t49 -27.5t61.5 -12q39 0 63.5 14t40 31.5t22.5 33t7 19.5h68q-2 -10 -14.5 -38t-38 -56.5t-65.5 -52t-97 -23.5z" />
<glyph unicode="&#xc4;" horiz-adv-x="1329" d="M807 1454h90l272 -1454h-110l-90 479h-654l-290 -479h-113zM961 565l-136 762l-467 -762h603zM709 1696l36 180h91l-39 -180h-88zM977 1696l39 180h88l-37 -180h-90z" />
<glyph unicode="&#xc5;" horiz-adv-x="1329" d="M807 1454h90l272 -1454h-110l-90 479h-654l-290 -479h-113zM961 565l-136 762l-467 -762h603zM774 1726q0 66 49 109t115 43q49 0 77.5 -28.5t28.5 -73.5q0 -66 -48 -110t-113 -44q-51 0 -80 28.5t-29 75.5zM926 1831q-37 0 -67 -26.5t-30 -69.5q0 -29 17.5 -47.5 t46.5 -18.5q33 0 65.5 27.5t32.5 68.5q0 31 -18 48.5t-47 17.5z" />
<glyph unicode="&#xc6;" horiz-adv-x="1888" d="M1036 1454h926l-23 -94h-792l-119 -569h686l-20 -97h-688l-127 -600h809l-19 -94h-913l102 479h-518l-391 -479h-117zM872 573l158 750l-620 -750h462z" />
<glyph unicode="&#xc7;" horiz-adv-x="1341" d="M387 -256q27 -14 70 -26.5t92 -12.5q133 0 133 92q0 33 -23.5 45.5t-60.5 12.5q-41 0 -88 -10.5t-74 -18.5l121 164q-111 8 -198 62t-145 138t-89 190.5t-31 219.5q0 150 62.5 302.5t173 277.5t262 203.5t330.5 78.5q92 0 165.5 -23.5t129 -65.5t92.5 -100.5t53 -127.5 l-96 -49q-18 76 -57.5 127t-89.5 82.5t-108.5 46t-117.5 14.5q-100 0 -191.5 -31.5t-168 -87t-139 -130.5t-105.5 -159t-66.5 -175t-23.5 -177q0 -106 29.5 -200.5t85 -166t134 -113.5t177.5 -42q61 0 130.5 16.5t137.5 51t130 89t114 128.5l82 -43q-51 -80 -121 -140.5 t-150 -103.5t-164 -66.5t-161 -25.5l-76 -99q18 8 39.5 10.5t38.5 2.5q119 0 118 -94q0 -78 -55 -119t-160 -41q-53 0 -99 11t-81 28z" />
<glyph unicode="&#xc8;" horiz-adv-x="1196" d="M365 1454h903l-19 -94h-800l-121 -572h698l-20 -90h-697l-129 -604h817l-20 -94h-922zM739 1880h113l84 -174l-76 -33z" />
<glyph unicode="&#xc9;" horiz-adv-x="1196" d="M846 1671l-64 33l156 174h117zM365 1454h903l-19 -94h-800l-121 -572h698l-20 -90h-697l-129 -604h817l-20 -94h-922z" />
<glyph unicode="&#xca;" horiz-adv-x="1196" d="M662 1712l223 166h76l153 -166l-67 -35l-140 129l-192 -129zM365 1454h903l-19 -94h-800l-121 -572h698l-20 -90h-697l-129 -604h817l-20 -94h-922z" />
<glyph unicode="&#xcb;" horiz-adv-x="1196" d="M688 1696l37 180h90l-39 -180h-88zM956 1696l39 180h88l-36 -180h-91zM365 1454h903l-19 -94h-800l-121 -572h698l-20 -90h-697l-129 -604h817l-20 -94h-922z" />
<glyph unicode="&#xcc;" horiz-adv-x="477" d="M365 1452h104l-309 -1452h-105zM332 1880h112l84 -174l-75 -33z" />
<glyph unicode="&#xcd;" horiz-adv-x="477" d="M365 1452h104l-309 -1452h-105zM446 1671l-63 33l156 174h116z" />
<glyph unicode="&#xce;" horiz-adv-x="477" d="M365 1452h104l-309 -1452h-105zM244 1712l223 166h76l153 -166l-67 -35l-140 129l-192 -129z" />
<glyph unicode="&#xcf;" horiz-adv-x="477" d="M365 1452h104l-309 -1452h-105zM287 1696l37 180h90l-39 -180h-88zM555 1696l39 180h88l-37 -180h-90z" />
<glyph unicode="&#xd0;" horiz-adv-x="1423" d="M111 774h122l146 680h461q135 0 234.5 -43t164 -117.5t96 -176t31.5 -218.5q0 -195 -62.5 -358.5t-174 -284.5t-265 -188.5t-334.5 -67.5h-460l145 688h-123zM551 94q164 0 295 64.5t222 173t140 251t49 298.5q0 104 -27.5 192t-82.5 151.5t-137 99.5t-191 36h-356 l-125 -586h346l-18 -86h-347l-124 -594h356z" />
<glyph unicode="&#xd1;" horiz-adv-x="1517" d="M365 1454h81l689 -1280l270 1278h104l-309 -1452h-92l-680 1257l-268 -1257h-105zM1120 1708q-43 0 -73.5 12.5t-55 27.5t-47 28.5t-53.5 13.5q-33 0 -55.5 -14.5t-36 -32t-20.5 -32.5t-7 -19h-70q2 8 14.5 35.5t37 57.5t61.5 53.5t90 23.5q39 0 66.5 -13.5t52.5 -29 t49.5 -27.5t61.5 -12q39 0 63.5 14t39.5 31.5t22.5 33t7.5 19.5h67q-2 -10 -14 -38t-38 -56.5t-66 -52t-97 -23.5z" />
<glyph unicode="&#xd2;" d="M608 -10q-123 0 -218 49t-159.5 132t-98.5 191.5t-34 225.5q0 168 70 325.5t184.5 280.5t264 196.5t307.5 73.5q123 0 217 -51t158.5 -135t97.5 -192.5t33 -223.5q0 -166 -70 -323.5t-184.5 -279.5t-262 -195.5t-305.5 -73.5zM629 86q141 0 268 68.5t221 178t149.5 247 t55.5 272.5q0 104 -28.5 197.5t-83 164t-133.5 112.5t-177 42q-141 0 -268 -68.5t-222.5 -178t-150.5 -247t-55 -274.5q0 -104 28.5 -197.5t83 -164t133.5 -111.5t179 -41zM868 1880h113l84 -174l-76 -33z" />
<glyph unicode="&#xd3;" d="M961 1671l-64 33l156 174h116zM608 -10q-123 0 -218 49t-159.5 132t-98.5 191.5t-34 225.5q0 168 70 325.5t184.5 280.5t264 196.5t307.5 73.5q123 0 217 -51t158.5 -135t97.5 -192.5t33 -223.5q0 -166 -70 -323.5t-184.5 -279.5t-262 -195.5t-305.5 -73.5zM629 86 q141 0 268 68.5t221 178t149.5 247t55.5 272.5q0 104 -28.5 197.5t-83 164t-133.5 112.5t-177 42q-141 0 -268 -68.5t-222.5 -178t-150.5 -247t-55 -274.5q0 -104 28.5 -197.5t83 -164t133.5 -111.5t179 -41z" />
<glyph unicode="&#xd4;" d="M760 1712l223 166h76l153 -166l-67 -35l-139 129l-193 -129zM608 -10q-123 0 -218 49t-159.5 132t-98.5 191.5t-34 225.5q0 168 70 325.5t184.5 280.5t264 196.5t307.5 73.5q123 0 217 -51t158.5 -135t97.5 -192.5t33 -223.5q0 -166 -70 -323.5t-184.5 -279.5 t-262 -195.5t-305.5 -73.5zM629 86q141 0 268 68.5t221 178t149.5 247t55.5 272.5q0 104 -28.5 197.5t-83 164t-133.5 112.5t-177 42q-141 0 -268 -68.5t-222.5 -178t-150.5 -247t-55 -274.5q0 -104 28.5 -197.5t83 -164t133.5 -111.5t179 -41z" />
<glyph unicode="&#xd5;" d="M608 -10q-123 0 -218 49t-159.5 132t-98.5 191.5t-34 225.5q0 168 70 325.5t184.5 280.5t264 196.5t307.5 73.5q123 0 217 -51t158.5 -135t97.5 -192.5t33 -223.5q0 -166 -70 -323.5t-184.5 -279.5t-262 -195.5t-305.5 -73.5zM629 86q141 0 268 68.5t221 178t149.5 247 t55.5 272.5q0 104 -28.5 197.5t-83 164t-133.5 112.5t-177 42q-141 0 -268 -68.5t-222.5 -178t-150.5 -247t-55 -274.5q0 -104 28.5 -197.5t83 -164t133.5 -111.5t179 -41zM1094 1708q-43 0 -74 12.5t-55.5 27.5t-47 28.5t-53.5 13.5q-33 0 -55.5 -14.5t-35.5 -32 t-20.5 -32.5t-7.5 -19h-69q2 8 14 35.5t37 57.5t61.5 53.5t90.5 23.5q39 0 66.5 -13.5t52 -29t49 -27.5t61.5 -12q39 0 63.5 14t40 31.5t22.5 33t7 19.5h68q-2 -10 -14.5 -38t-38 -56.5t-65.5 -52t-97 -23.5z" />
<glyph unicode="&#xd6;" d="M795 1696l36 180h91l-39 -180h-88zM1063 1696l39 180h88l-37 -180h-90zM608 -10q-123 0 -218 49t-159.5 132t-98.5 191.5t-34 225.5q0 168 70 325.5t184.5 280.5t264 196.5t307.5 73.5q123 0 217 -51t158.5 -135t97.5 -192.5t33 -223.5q0 -166 -70 -323.5t-184.5 -279.5 t-262 -195.5t-305.5 -73.5zM629 86q141 0 268 68.5t221 178t149.5 247t55.5 272.5q0 104 -28.5 197.5t-83 164t-133.5 112.5t-177 42q-141 0 -268 -68.5t-222.5 -178t-150.5 -247t-55 -274.5q0 -104 28.5 -197.5t83 -164t133.5 -111.5t179 -41z" />
<glyph unicode="&#xd7;" horiz-adv-x="952" d="M786 297l-67 -66l-258 258l-260 -258l-66 68l258 256l-258 260l68 66l258 -258l258 260l65 -68l-258 -260z" />
<glyph unicode="&#xd8;" d="M1436 1454l-144 -170q68 -86 103 -195.5t35 -226.5q0 -166 -70 -323.5t-184.5 -279.5t-262 -195.5t-305.5 -73.5q-94 0 -171 28.5t-138 79.5l-82 -98h-117l138 164q-70 84 -105 193.5t-35 230.5q0 168 70 325.5t184.5 280.5t264 196.5t307.5 73.5q94 0 170.5 -30.5 t136.5 -83.5l88 104h117zM205 600q0 -207 104 -352l852 1018q-51 47 -116.5 74.5t-143.5 27.5q-141 0 -268 -68.5t-222.5 -178t-150.5 -247t-55 -274.5zM629 86q141 0 268 68.5t221 178t149.5 247t55.5 272.5q0 98 -26.5 187t-75.5 159l-852 -1016q51 -47 116.5 -71.5 t143.5 -24.5z" />
<glyph unicode="&#xd9;" d="M610 -10q-127 0 -213 38t-138 102.5t-75.5 151.5t-23.5 187q0 121 28 254l156 731h105l-156 -731q-12 -61 -20.5 -120.5t-8.5 -117.5q0 -84 18.5 -156.5t61.5 -127t112.5 -85t172.5 -30.5q139 0 242.5 55.5t176 145.5t118.5 204.5t71 231.5l154 731h104l-154 -731 q-31 -147 -89 -279.5t-148 -233.5t-212 -160.5t-282 -59.5zM852 1880h113l84 -174l-76 -33z" />
<glyph unicode="&#xda;" d="M928 1671l-64 33l156 174h117zM610 -10q-127 0 -213 38t-138 102.5t-75.5 151.5t-23.5 187q0 121 28 254l156 731h105l-156 -731q-12 -61 -20.5 -120.5t-8.5 -117.5q0 -84 18.5 -156.5t61.5 -127t112.5 -85t172.5 -30.5q139 0 242.5 55.5t176 145.5t118.5 204.5t71 231.5 l154 731h104l-154 -731q-31 -147 -89 -279.5t-148 -233.5t-212 -160.5t-282 -59.5z" />
<glyph unicode="&#xdb;" d="M745 1712l224 166h75l154 -166l-68 -35l-139 129l-192 -129zM610 -10q-127 0 -213 38t-138 102.5t-75.5 151.5t-23.5 187q0 121 28 254l156 731h105l-156 -731q-12 -61 -20.5 -120.5t-8.5 -117.5q0 -84 18.5 -156.5t61.5 -127t112.5 -85t172.5 -30.5q139 0 242.5 55.5 t176 145.5t118.5 204.5t71 231.5l154 731h104l-154 -731q-31 -147 -89 -279.5t-148 -233.5t-212 -160.5t-282 -59.5z" />
<glyph unicode="&#xdc;" d="M784 1696l37 180h90l-39 -180h-88zM1053 1696l39 180h88l-37 -180h-90zM610 -10q-127 0 -213 38t-138 102.5t-75.5 151.5t-23.5 187q0 121 28 254l156 731h105l-156 -731q-12 -61 -20.5 -120.5t-8.5 -117.5q0 -84 18.5 -156.5t61.5 -127t112.5 -85t172.5 -30.5 q139 0 242.5 55.5t176 145.5t118.5 204.5t71 231.5l154 731h104l-154 -731q-31 -147 -89 -279.5t-148 -233.5t-212 -160.5t-282 -59.5z" />
<glyph unicode="&#xdd;" horiz-adv-x="1232" d="M541 553l-351 901h117l307 -805l652 805h114l-735 -905l-119 -549h-102zM793 1671l-64 33l156 174h116z" />
<glyph unicode="&#xde;" horiz-adv-x="1181" d="M365 1454h104l-63 -295h428q76 0 134 -31.5t99 -84t62.5 -119t21.5 -138.5q0 -96 -40 -191t-107.5 -171t-158.5 -123t-192 -47h-440l-53 -254h-105zM670 350q80 0 148.5 38t118.5 99.5t80 137t30 149.5q0 57 -17.5 110.5t-48.5 92.5t-75 62.5t-97 23.5h-422l-151 -713 h434z" />
<glyph unicode="&#xdf;" horiz-adv-x="1079" d="M348 82q117 2 210 30.5t159.5 81t102.5 128t36 174.5q0 127 -74.5 201.5t-208.5 74.5h-36l20 96h35q63 0 120.5 23.5t100.5 63.5t68.5 94.5t25.5 115.5q0 94 -60.5 149.5t-156.5 55.5q-66 0 -123 -25.5t-101 -69.5t-76 -105.5t-46 -133.5l-221 -1036h-98l223 1051 q18 92 62 167.5t106.5 130t138.5 84t160 29.5q135 0 216 -75.5t81 -194.5q0 -63 -24.5 -123.5t-65.5 -111t-93.5 -85t-105.5 -47.5q119 -29 179.5 -113.5t60.5 -205.5t-45.5 -214t-128 -159.5t-200.5 -102.5t-261 -42z" />
<glyph unicode="&#xe0;" horiz-adv-x="1210" d="M434 -20q-88 0 -158.5 36.5t-120 98t-75 142.5t-25.5 171q0 125 49.5 242.5t132 210t189 147.5t223.5 55q68 0 122 -20.5t97 -54t74 -78.5t49 -96l49 231h105l-197 -918q-4 -16 -4 -24q0 -31 35 -31l-21 -92q-10 -2 -17 -3t-13 -1q-41 0 -62.5 20.5t-21.5 53.5q0 6 1 15 t4 24.5t7 40t12 63.5q-84 -106 -200.5 -169.5t-233.5 -63.5zM471 72q55 0 120.5 23.5t126 62.5t107.5 91t66 109l74 351q-8 57 -36 108t-70 90t-95 61.5t-115 22.5q-98 0 -186 -49t-154.5 -128t-106.5 -177t-40 -197q0 -74 22.5 -141.5t63.5 -117.5t98 -79.5t125 -29.5z M612 1495h113l84 -174l-76 -33z" />
<glyph unicode="&#xe1;" horiz-adv-x="1210" d="M434 -20q-88 0 -158.5 36.5t-120 98t-75 142.5t-25.5 171q0 125 49.5 242.5t132 210t189 147.5t223.5 55q68 0 122 -20.5t97 -54t74 -78.5t49 -96l49 231h105l-197 -918q-4 -16 -4 -24q0 -31 35 -31l-21 -92q-10 -2 -17 -3t-13 -1q-41 0 -62.5 20.5t-21.5 53.5q0 6 1 15 t4 24.5t7 40t12 63.5q-84 -106 -200.5 -169.5t-233.5 -63.5zM471 72q55 0 120.5 23.5t126 62.5t107.5 91t66 109l74 351q-8 57 -36 108t-70 90t-95 61.5t-115 22.5q-98 0 -186 -49t-154.5 -128t-106.5 -177t-40 -197q0 -74 22.5 -141.5t63.5 -117.5t98 -79.5t125 -29.5z M709 1288l-64 33l156 174h117z" />
<glyph unicode="&#xe2;" horiz-adv-x="1210" d="M434 -20q-88 0 -158.5 36.5t-120 98t-75 142.5t-25.5 171q0 125 49.5 242.5t132 210t189 147.5t223.5 55q68 0 122 -20.5t97 -54t74 -78.5t49 -96l49 231h105l-197 -918q-4 -16 -4 -24q0 -31 35 -31l-21 -92q-10 -2 -17 -3t-13 -1q-41 0 -62.5 20.5t-21.5 53.5q0 6 1 15 t4 24.5t7 40t12 63.5q-84 -106 -200.5 -169.5t-233.5 -63.5zM471 72q55 0 120.5 23.5t126 62.5t107.5 91t66 109l74 351q-8 57 -36 108t-70 90t-95 61.5t-115 22.5q-98 0 -186 -49t-154.5 -128t-106.5 -177t-40 -197q0 -74 22.5 -141.5t63.5 -117.5t98 -79.5t125 -29.5z M510 1329l223 166h76l154 -166l-68 -35l-139 129l-193 -129z" />
<glyph unicode="&#xe3;" horiz-adv-x="1210" d="M434 -20q-88 0 -158.5 36.5t-120 98t-75 142.5t-25.5 171q0 125 49.5 242.5t132 210t189 147.5t223.5 55q68 0 122 -20.5t97 -54t74 -78.5t49 -96l49 231h105l-197 -918q-4 -16 -4 -24q0 -31 35 -31l-21 -92q-10 -2 -17 -3t-13 -1q-41 0 -62.5 20.5t-21.5 53.5q0 6 1 15 t4 24.5t7 40t12 63.5q-84 -106 -200.5 -169.5t-233.5 -63.5zM471 72q55 0 120.5 23.5t126 62.5t107.5 91t66 109l74 351q-8 57 -36 108t-70 90t-95 61.5t-115 22.5q-98 0 -186 -49t-154.5 -128t-106.5 -177t-40 -197q0 -74 22.5 -141.5t63.5 -117.5t98 -79.5t125 -29.5z M840 1325q-43 0 -74 12.5t-55.5 27.5t-47 28.5t-53.5 13.5q-33 0 -55.5 -14.5t-35.5 -32t-20 -32.5t-7 -19h-70q2 8 14.5 35.5t37 57.5t61 53.5t90.5 23.5q39 0 66.5 -13.5t52 -29t49 -27.5t61.5 -12q39 0 63.5 14t40 31.5t22.5 33t7 19.5h68q-2 -10 -14.5 -37.5t-38 -56.5 t-65.5 -52.5t-97 -23.5z" />
<glyph unicode="&#xe4;" horiz-adv-x="1210" d="M434 -20q-88 0 -158.5 36.5t-120 98t-75 142.5t-25.5 171q0 125 49.5 242.5t132 210t189 147.5t223.5 55q68 0 122 -20.5t97 -54t74 -78.5t49 -96l49 231h105l-197 -918q-4 -16 -4 -24q0 -31 35 -31l-21 -92q-10 -2 -17 -3t-13 -1q-41 0 -62.5 20.5t-21.5 53.5q0 6 1 15 t4 24.5t7 40t12 63.5q-84 -106 -200.5 -169.5t-233.5 -63.5zM471 72q55 0 120.5 23.5t126 62.5t107.5 91t66 109l74 351q-8 57 -36 108t-70 90t-95 61.5t-115 22.5q-98 0 -186 -49t-154.5 -128t-106.5 -177t-40 -197q0 -74 22.5 -141.5t63.5 -117.5t98 -79.5t125 -29.5z M549 1311l37 180h90l-39 -180h-88zM817 1311l39 180h88l-37 -180h-90z" />
<glyph unicode="&#xe5;" horiz-adv-x="1210" d="M434 -20q-88 0 -158.5 36.5t-120 98t-75 142.5t-25.5 171q0 125 49.5 242.5t132 210t189 147.5t223.5 55q68 0 122 -20.5t97 -54t74 -78.5t49 -96l49 231h105l-197 -918q-4 -16 -4 -24q0 -31 35 -31l-21 -92q-10 -2 -17 -3t-13 -1q-41 0 -62.5 20.5t-21.5 53.5q0 6 1 15 t4 24.5t7 40t12 63.5q-84 -106 -200.5 -169.5t-233.5 -63.5zM471 72q55 0 120.5 23.5t126 62.5t107.5 91t66 109l74 351q-8 57 -36 108t-70 90t-95 61.5t-115 22.5q-98 0 -186 -49t-154.5 -128t-106.5 -177t-40 -197q0 -74 22.5 -141.5t63.5 -117.5t98 -79.5t125 -29.5z M600 1343q0 66 49 109t115 43q49 0 77.5 -28.5t28.5 -73.5q0 -66 -48 -110t-113 -44q-51 0 -80 28.5t-29 75.5zM752 1448q-37 0 -67 -26.5t-30 -69.5q0 -29 17.5 -47.5t46.5 -18.5q33 0 65.5 27.5t32.5 68.5q0 31 -18 48.5t-47 17.5z" />
<glyph unicode="&#xe6;" horiz-adv-x="1812" d="M276 -20q-68 0 -121 21.5t-87.5 58t-53 86t-18.5 104.5q0 82 39 151.5t105.5 118.5t157.5 77t196 28q68 0 134 -11.5t122 -29.5q16 53 36.5 98t36.5 92q0 102 -61.5 164.5t-175.5 62.5q-78 0 -167 -32.5t-188 -94.5l-24 70q115 70 214 104.5t191 34.5q121 0 199 -58 t96 -169q86 102 202 164.5t243 62.5q90 0 163.5 -32.5t126 -90t81 -136.5t28.5 -169q0 -53 -9 -96t-20 -67h-893q-2 -18 -3 -37t-1 -37q0 -78 23.5 -143.5t65.5 -112.5t100.5 -74t130.5 -27q53 0 106.5 15.5t102.5 42t90 64.5t69 83l86 -24q-35 -57 -87 -105.5t-114.5 -83.5 t-133 -54t-140.5 -19q-133 0 -226 65.5t-138 173.5q-45 -66 -107.5 -111t-129 -73.5t-131.5 -41.5t-116 -13zM315 61q57 0 124 18.5t127.5 50.5t106.5 75t62 92q-12 45 -12 100q0 59 12 115q-55 20 -118.5 30.5t-122.5 10.5q-86 0 -159 -20.5t-126 -57.5t-83 -89t-30 -116 q0 -41 13.5 -78.5t40 -66.5t68.5 -46.5t97 -17.5zM1640 567q4 23 6.5 47.5t2.5 47.5q0 70 -20.5 131t-60.5 107t-99.5 72.5t-135.5 26.5q-82 0 -158.5 -32.5t-142 -90t-115 -136t-73.5 -173.5h796z" />
<glyph unicode="&#xe7;" horiz-adv-x="1069" d="M246 -256q27 -14 69.5 -26.5t92.5 -12.5q133 0 133 92q0 33 -23.5 45.5t-60.5 12.5q-41 0 -88 -10.5t-74 -18.5l115 156q-82 8 -147.5 46t-112 98t-71 138t-24.5 166q0 131 51.5 249t138.5 208t200.5 143t240.5 53q139 0 230.5 -65.5t119.5 -181.5l-108 -33 q-25 88 -96.5 138t-169.5 50q-96 0 -186.5 -44t-160 -118.5t-112.5 -174t-43 -210.5q0 -78 22.5 -146.5t62.5 -118.5t97 -78.5t125 -28.5q53 0 108.5 16t104.5 43t87 62.5t58 74.5l95 -28q-31 -55 -79 -101.5t-106.5 -80t-125 -55t-134.5 -23.5l-69 -89q18 8 39.5 10.5 t37.5 2.5q119 0 119 -94q0 -78 -55 -119t-160 -41q-53 0 -99 11t-81 28z" />
<glyph unicode="&#xe8;" horiz-adv-x="1083" d="M459 -20q-96 0 -171 35.5t-127 97t-79 143.5t-27 174q0 125 48.5 243t134.5 209t201.5 146t250.5 55q63 0 122.5 -18t106 -54t74 -89.5t27.5 -122.5q0 -307 -557 -307q-66 0 -138.5 2t-160.5 8q-2 -16 -3 -34.5t-1 -35.5q0 -76 19.5 -143.5t59.5 -117.5t100 -80t140 -30 q51 0 105.5 15.5t103.5 43t91 67.5t71 89l86 -26q-37 -61 -89 -110.5t-114.5 -85.5t-132 -55t-141.5 -19zM678 999q-96 0 -177 -35.5t-144.5 -94t-108.5 -134.5t-68 -155q86 -6 154.5 -8.5t134.5 -2.5q127 0 214 17.5t140.5 48.5t77 73t23.5 93t-21.5 89t-55.5 62.5 t-79 35.5t-90 11zM633 1495h112l84 -174l-75 -33z" />
<glyph unicode="&#xe9;" horiz-adv-x="1083" d="M688 1288l-63 33l155 174h117zM459 -20q-96 0 -171 35.5t-127 97t-79 143.5t-27 174q0 125 48.5 243t134.5 209t201.5 146t250.5 55q63 0 122.5 -18t106 -54t74 -89.5t27.5 -122.5q0 -307 -557 -307q-66 0 -138.5 2t-160.5 8q-2 -16 -3 -34.5t-1 -35.5q0 -76 19.5 -143.5 t59.5 -117.5t100 -80t140 -30q51 0 105.5 15.5t103.5 43t91 67.5t71 89l86 -26q-37 -61 -89 -110.5t-114.5 -85.5t-132 -55t-141.5 -19zM678 999q-96 0 -177 -35.5t-144.5 -94t-108.5 -134.5t-68 -155q86 -6 154.5 -8.5t134.5 -2.5q127 0 214 17.5t140.5 48.5t77 73t23.5 93 t-21.5 89t-55.5 62.5t-79 35.5t-90 11z" />
<glyph unicode="&#xea;" horiz-adv-x="1083" d="M526 1329l224 166h75l154 -166l-68 -35l-139 129l-192 -129zM459 -20q-96 0 -171 35.5t-127 97t-79 143.5t-27 174q0 125 48.5 243t134.5 209t201.5 146t250.5 55q63 0 122.5 -18t106 -54t74 -89.5t27.5 -122.5q0 -307 -557 -307q-66 0 -138.5 2t-160.5 8 q-2 -16 -3 -34.5t-1 -35.5q0 -76 19.5 -143.5t59.5 -117.5t100 -80t140 -30q51 0 105.5 15.5t103.5 43t91 67.5t71 89l86 -26q-37 -61 -89 -110.5t-114.5 -85.5t-132 -55t-141.5 -19zM678 999q-96 0 -177 -35.5t-144.5 -94t-108.5 -134.5t-68 -155q86 -6 154.5 -8.5 t134.5 -2.5q127 0 214 17.5t140.5 48.5t77 73t23.5 93t-21.5 89t-55.5 62.5t-79 35.5t-90 11z" />
<glyph unicode="&#xeb;" horiz-adv-x="1083" d="M551 1311l37 180h90l-39 -180h-88zM819 1311l39 180h88l-37 -180h-90zM459 -20q-96 0 -171 35.5t-127 97t-79 143.5t-27 174q0 125 48.5 243t134.5 209t201.5 146t250.5 55q63 0 122.5 -18t106 -54t74 -89.5t27.5 -122.5q0 -307 -557 -307q-66 0 -138.5 2t-160.5 8 q-2 -16 -3 -34.5t-1 -35.5q0 -76 19.5 -143.5t59.5 -117.5t100 -80t140 -30q51 0 105.5 15.5t103.5 43t91 67.5t71 89l86 -26q-37 -61 -89 -110.5t-114.5 -85.5t-132 -55t-141.5 -19zM678 999q-96 0 -177 -35.5t-144.5 -94t-108.5 -134.5t-68 -155q86 -6 154.5 -8.5 t134.5 -2.5q127 0 214 17.5t140.5 48.5t77 73t23.5 93t-21.5 89t-55.5 62.5t-79 35.5t-90 11z" />
<glyph unicode="&#xec;" horiz-adv-x="411" d="M250 1065h102l-225 -1065h-102zM195 1495h112l84 -174l-76 -33z" />
<glyph unicode="&#xed;" horiz-adv-x="411" d="M348 1288l-63 33l155 174h117zM250 1065h102l-225 -1065h-102z" />
<glyph unicode="&#xee;" horiz-adv-x="411" d="M131 1329l223 166h76l154 -166l-68 -35l-139 129l-193 -129zM250 1065h102l-225 -1065h-102z" />
<glyph unicode="&#xef;" horiz-adv-x="411" d="M172 1311l37 180h90l-39 -180h-88zM440 1311l39 180h88l-37 -180h-90zM250 1065h102l-225 -1065h-102z" />
<glyph unicode="&#xf0;" horiz-adv-x="1177" d="M1120 1411l-196 -115q96 -129 134 -269t38 -269q0 -180 -57.5 -323.5t-149.5 -245t-209 -155.5t-236 -54q-88 0 -161.5 31.5t-126 87t-81 130t-28.5 160.5q0 117 51.5 222.5t135 185.5t190 127t217.5 47q137 0 232.5 -72t121.5 -188q0 16 1 31.5t1 31.5q0 121 -30.5 241 t-126.5 240l-254 -149l-25 51l244 141q-45 49 -100.5 98.5t-126.5 98.5h143q49 -37 91 -76t77 -80l207 121zM152 401q0 -70 22.5 -130t64.5 -104t99 -69.5t127 -25.5q92 0 181 41t158.5 109.5t111.5 157.5t42 183q0 68 -23.5 126.5t-64.5 101.5t-99 67.5t-128 24.5 q-92 0 -180 -39t-157.5 -105.5t-111.5 -154t-42 -183.5z" />
<glyph unicode="&#xf1;" horiz-adv-x="1130" d="M250 1065h96l-55 -254q43 61 100.5 111.5t122 86t133 55t135.5 19.5q123 0 176.5 -65.5t53.5 -190.5q0 -47 -7.5 -100t-19.5 -115l-129 -612h-102l125 594q12 57 17 104t5 86q0 205 -170 205q-63 0 -131 -24.5t-130 -69.5t-115.5 -105.5t-88.5 -130.5l-139 -659h-102z M821 1325q-43 0 -73.5 12.5t-55 27.5t-47 28.5t-53.5 13.5q-33 0 -55.5 -14.5t-36 -32t-20.5 -32.5t-7 -19h-70q2 8 14.5 35.5t37 57.5t61.5 53.5t90 23.5q39 0 66.5 -13.5t52.5 -29t49.5 -27.5t61.5 -12q39 0 63.5 14t39.5 31.5t22.5 33t7.5 19.5h67q-2 -10 -14 -37.5 t-38 -56.5t-66 -52.5t-97 -23.5z" />
<glyph unicode="&#xf2;" horiz-adv-x="1165" d="M446 -20q-92 0 -164.5 34.5t-122.5 95t-78 141.5t-28 173q0 129 52.5 249t140.5 211t201.5 145t234.5 54q90 0 163 -35.5t123 -96t77.5 -142.5t27.5 -174q0 -127 -52 -246t-139 -210t-200 -145t-236 -54zM465 72q92 0 183 45t162 120.5t115 175t44 208.5 q0 78 -22.5 145.5t-62.5 117.5t-97.5 78.5t-124.5 28.5q-92 0 -181.5 -45t-161 -121.5t-115.5 -177t-44 -211.5q0 -78 22.5 -144.5t62.5 -115.5t96 -76.5t124 -27.5zM623 1495h112l84 -174l-76 -33z" />
<glyph unicode="&#xf3;" horiz-adv-x="1165" d="M717 1288l-64 33l156 174h117zM446 -20q-92 0 -164.5 34.5t-122.5 95t-78 141.5t-28 173q0 129 52.5 249t140.5 211t201.5 145t234.5 54q90 0 163 -35.5t123 -96t77.5 -142.5t27.5 -174q0 -127 -52 -246t-139 -210t-200 -145t-236 -54zM465 72q92 0 183 45t162 120.5 t115 175t44 208.5q0 78 -22.5 145.5t-62.5 117.5t-97.5 78.5t-124.5 28.5q-92 0 -181.5 -45t-161 -121.5t-115.5 -177t-44 -211.5q0 -78 22.5 -144.5t62.5 -115.5t96 -76.5t124 -27.5z" />
<glyph unicode="&#xf4;" horiz-adv-x="1165" d="M510 1329l223 166h76l154 -166l-68 -35l-139 129l-193 -129zM446 -20q-92 0 -164.5 34.5t-122.5 95t-78 141.5t-28 173q0 129 52.5 249t140.5 211t201.5 145t234.5 54q90 0 163 -35.5t123 -96t77.5 -142.5t27.5 -174q0 -127 -52 -246t-139 -210t-200 -145t-236 -54z M465 72q92 0 183 45t162 120.5t115 175t44 208.5q0 78 -22.5 145.5t-62.5 117.5t-97.5 78.5t-124.5 28.5q-92 0 -181.5 -45t-161 -121.5t-115.5 -177t-44 -211.5q0 -78 22.5 -144.5t62.5 -115.5t96 -76.5t124 -27.5z" />
<glyph unicode="&#xf5;" horiz-adv-x="1165" d="M446 -20q-92 0 -164.5 34.5t-122.5 95t-78 141.5t-28 173q0 129 52.5 249t140.5 211t201.5 145t234.5 54q90 0 163 -35.5t123 -96t77.5 -142.5t27.5 -174q0 -127 -52 -246t-139 -210t-200 -145t-236 -54zM465 72q92 0 183 45t162 120.5t115 175t44 208.5 q0 78 -22.5 145.5t-62.5 117.5t-97.5 78.5t-124.5 28.5q-92 0 -181.5 -45t-161 -121.5t-115.5 -177t-44 -211.5q0 -78 22.5 -144.5t62.5 -115.5t96 -76.5t124 -27.5zM842 1325q-43 0 -74 12.5t-55.5 27.5t-47 28.5t-53.5 13.5q-33 0 -55 -14.5t-35.5 -32t-20.5 -32.5t-7 -19 h-70q2 8 14.5 35.5t37 57.5t61 53.5t90.5 23.5q39 0 66.5 -13.5t52 -29t49 -27.5t61.5 -12q39 0 63.5 14t40 31.5t22.5 33t7 19.5h68q-2 -10 -14.5 -37.5t-38 -56.5t-65.5 -52.5t-97 -23.5z" />
<glyph unicode="&#xf6;" horiz-adv-x="1165" d="M547 1311l37 180h90l-39 -180h-88zM815 1311l39 180h88l-37 -180h-90zM446 -20q-92 0 -164.5 34.5t-122.5 95t-78 141.5t-28 173q0 129 52.5 249t140.5 211t201.5 145t234.5 54q90 0 163 -35.5t123 -96t77.5 -142.5t27.5 -174q0 -127 -52 -246t-139 -210t-200 -145 t-236 -54zM465 72q92 0 183 45t162 120.5t115 175t44 208.5q0 78 -22.5 145.5t-62.5 117.5t-97.5 78.5t-124.5 28.5q-92 0 -181.5 -45t-161 -121.5t-115.5 -177t-44 -211.5q0 -78 22.5 -144.5t62.5 -115.5t96 -76.5t124 -27.5z" />
<glyph unicode="&#xf7;" horiz-adv-x="1107" d="M498 807v166h90v-166h-90zM498 166v164h90v-164h-90zM131 526v88h825v-88h-825z" />
<glyph unicode="&#xf8;" horiz-adv-x="1165" d="M166 100q-55 59 -84 143.5t-29 180.5q0 129 53.5 249t140.5 211t200.5 145t234.5 54q139 0 236 -84l61 68h78l-99 -106q55 -61 85 -145.5t30 -180.5q0 -127 -52 -246t-138 -210t-199 -145t-235 -54q-141 0 -240 79l-57 -61h-78zM465 72q92 0 183 45t162 120.5t115 175 t44 208.5q0 76 -21.5 142t-60.5 116l-611 -738q39 -33 86.5 -51t102.5 -18zM160 436q0 -156 82 -256l606 740q-37 35 -84 53t-102 18q-92 0 -182.5 -45t-161 -121.5t-114.5 -177t-44 -211.5z" />
<glyph unicode="&#xf9;" horiz-adv-x="1150" d="M332 -20q-248 0 -248 278q0 41 5 89t17 104l134 614h100l-127 -600q-23 -102 -23 -174q0 -219 191 -219q63 0 128.5 23.5t126 65.5t114 101.5t90.5 130.5l141 672h102l-188 -891q-4 -16 -7 -30.5t-3 -18.5q0 -33 35 -33l-21 -92q-14 -2 -24.5 -2h-20.5q-33 0 -50.5 21.5 t-17.5 50.5q0 6 1 14t4.5 26.5t10.5 52.5t19 89q-94 -129 -224 -200.5t-265 -71.5zM557 1495h113l84 -174l-76 -33z" />
<glyph unicode="&#xfa;" horiz-adv-x="1150" d="M659 1288l-63 33l156 174h116zM332 -20q-248 0 -248 278q0 41 5 89t17 104l134 614h100l-127 -600q-23 -102 -23 -174q0 -219 191 -219q63 0 128.5 23.5t126 65.5t114 101.5t90.5 130.5l141 672h102l-188 -891q-4 -16 -7 -30.5t-3 -18.5q0 -33 35 -33l-21 -92 q-14 -2 -24.5 -2h-20.5q-33 0 -50.5 21.5t-17.5 50.5q0 6 1 14t4.5 26.5t10.5 52.5t19 89q-94 -129 -224 -200.5t-265 -71.5z" />
<glyph unicode="&#xfb;" horiz-adv-x="1150" d="M489 1329l224 166h75l154 -166l-68 -35l-139 129l-192 -129zM332 -20q-248 0 -248 278q0 41 5 89t17 104l134 614h100l-127 -600q-23 -102 -23 -174q0 -219 191 -219q63 0 128.5 23.5t126 65.5t114 101.5t90.5 130.5l141 672h102l-188 -891q-4 -16 -7 -30.5t-3 -18.5 q0 -33 35 -33l-21 -92q-14 -2 -24.5 -2h-20.5q-33 0 -50.5 21.5t-17.5 50.5q0 6 1 14t4.5 26.5t10.5 52.5t19 89q-94 -129 -224 -200.5t-265 -71.5z" />
<glyph unicode="&#xfc;" horiz-adv-x="1150" d="M522 1311l37 180h90l-39 -180h-88zM791 1311l38 180h89l-37 -180h-90zM332 -20q-248 0 -248 278q0 41 5 89t17 104l134 614h100l-127 -600q-23 -102 -23 -174q0 -219 191 -219q63 0 128.5 23.5t126 65.5t114 101.5t90.5 130.5l141 672h102l-188 -891q-4 -16 -7 -30.5 t-3 -18.5q0 -33 35 -33l-21 -92q-14 -2 -24.5 -2h-20.5q-33 0 -50.5 21.5t-17.5 50.5q0 6 1 14t4.5 26.5t10.5 52.5t19 89q-94 -129 -224 -200.5t-265 -71.5z" />
<glyph unicode="&#xfd;" horiz-adv-x="978" d="M-74 -375q63 10 107.5 27.5t81.5 46.5t70.5 73t74.5 107l74 111l-228 1075h107l193 -965l98 156q92 147 154.5 257t107.5 202t75.5 175t55.5 175h102q-29 -98 -59.5 -183t-76.5 -180.5t-114.5 -212t-170.5 -278.5l-168 -264q-72 -115 -128.5 -189.5t-109.5 -121 t-108.5 -68t-124.5 -27.5zM584 1288l-64 33l156 174h117z" />
<glyph unicode="&#xfe;" horiz-adv-x="1181" d="M334 1454h104l-127 -592q86 96 186.5 159.5t225.5 63.5q92 0 161.5 -35.5t116 -96t70 -137.5t23.5 -159q0 -117 -45 -238.5t-126 -221t-193 -163t-245 -63.5t-208.5 60.5t-110.5 146.5l-129 -614h-105zM508 68q92 0 179 46t153.5 123.5t106.5 180t40 215.5 q0 76 -19.5 141.5t-56.5 113.5t-91 75.5t-124 27.5q-61 0 -119.5 -21.5t-111.5 -59.5t-99.5 -87t-84.5 -104l-78 -369q-4 -10 -4 -17v-14q0 -51 25.5 -97t67.5 -79.5t98.5 -54t117.5 -20.5z" />
<glyph unicode="&#xff;" horiz-adv-x="978" d="M-74 -375q63 10 107.5 27.5t81.5 46.5t70.5 73t74.5 107l74 111l-228 1075h107l193 -965l98 156q92 147 154.5 257t107.5 202t75.5 175t55.5 175h102q-29 -98 -59.5 -183t-76.5 -180.5t-114.5 -212t-170.5 -278.5l-168 -264q-72 -115 -128.5 -189.5t-109.5 -121 t-108.5 -68t-124.5 -27.5zM422 1311l37 180h90l-39 -180h-88zM690 1311l39 180h88l-37 -180h-90z" />
<glyph unicode="&#x100;" horiz-adv-x="1329" d="M807 1454h90l272 -1454h-110l-90 479h-654l-290 -479h-113zM961 565l-136 762l-467 -762h603zM629 1757l16 76h557l-16 -76h-557z" />
<glyph unicode="&#x101;" horiz-adv-x="1210" d="M434 -20q-88 0 -158.5 36.5t-120 98t-75 142.5t-25.5 171q0 125 49.5 242.5t132 210t189 147.5t223.5 55q68 0 122 -20.5t97 -54t74 -78.5t49 -96l49 231h105l-197 -918q-4 -16 -4 -24q0 -31 35 -31l-21 -92q-10 -2 -17 -3t-13 -1q-41 0 -62.5 20.5t-21.5 53.5q0 6 1 15 t4 24.5t7 40t12 63.5q-84 -106 -200.5 -169.5t-233.5 -63.5zM471 72q55 0 120.5 23.5t126 62.5t107.5 91t66 109l74 351q-8 57 -36 108t-70 90t-95 61.5t-115 22.5q-98 0 -186 -49t-154.5 -128t-106.5 -177t-40 -197q0 -74 22.5 -141.5t63.5 -117.5t98 -79.5t125 -29.5z M473 1374l16 76h558l-17 -76h-557z" />
<glyph unicode="&#x102;" horiz-adv-x="1329" d="M807 1454h90l272 -1454h-110l-90 479h-654l-290 -479h-113zM961 565l-136 762l-467 -762h603zM897 1747q41 0 82 38t57 93h66q-8 -39 -29.5 -74t-51.5 -60.5t-64.5 -39.5t-69.5 -14q-66 0 -105 42t-39 105q0 18 7 41h67q-2 -10 -2 -29q0 -41 23.5 -71.5t58.5 -30.5z" />
<glyph unicode="&#x103;" horiz-adv-x="1210" d="M434 -20q-88 0 -158.5 36.5t-120 98t-75 142.5t-25.5 171q0 125 49.5 242.5t132 210t189 147.5t223.5 55q68 0 122 -20.5t97 -54t74 -78.5t49 -96l49 231h105l-197 -918q-4 -16 -4 -24q0 -31 35 -31l-21 -92q-10 -2 -17 -3t-13 -1q-41 0 -62.5 20.5t-21.5 53.5q0 6 1 15 t4 24.5t7 40t12 63.5q-84 -106 -200.5 -169.5t-233.5 -63.5zM471 72q55 0 120.5 23.5t126 62.5t107.5 91t66 109l74 351q-8 57 -36 108t-70 90t-95 61.5t-115 22.5q-98 0 -186 -49t-154.5 -128t-106.5 -177t-40 -197q0 -74 22.5 -141.5t63.5 -117.5t98 -79.5t125 -29.5z M725 1364q41 0 82 38t57 93h66q-8 -39 -29.5 -74t-51.5 -60.5t-64.5 -39.5t-69.5 -14q-66 0 -105 42t-39 105q0 18 7 41h67q-2 -10 -2 -29q0 -41 23.5 -71.5t58.5 -30.5z" />
<glyph unicode="&#x104;" horiz-adv-x="1329" d="M999 -346q-53 12 -78.5 43t-25.5 72q0 59 43 112t147 119h-26l-90 479h-654l-290 -479h-113l895 1454h90l272 -1454q-115 -70 -158.5 -116t-43.5 -93q0 -63 80 -76zM961 565l-136 762l-467 -762h603z" />
<glyph unicode="&#x105;" horiz-adv-x="1210" d="M788 -346q-53 12 -78.5 43t-25.5 72q0 59 45 113.5t154 121.5q-39 18 -39 66q0 6 1 15t4 24.5t7 40t12 63.5q-84 -106 -200.5 -169.5t-233.5 -63.5q-88 0 -158.5 36.5t-120 98t-75 142.5t-25.5 171q0 125 49.5 242.5t132 210t189 147.5t223.5 55q68 0 122 -20.5t97 -54 t74 -78.5t49 -96l49 231h105l-197 -918q-4 -16 -4 -24q0 -31 35 -31l-21 -92q-115 -70 -158.5 -116t-43.5 -93q0 -63 80 -76zM471 72q55 0 120.5 23.5t126 62.5t107.5 91t66 109l74 351q-8 57 -36 108t-70 90t-95 61.5t-115 22.5q-98 0 -186 -49t-154.5 -128t-106.5 -177 t-40 -197q0 -74 22.5 -141.5t63.5 -117.5t98 -79.5t125 -29.5z" />
<glyph unicode="&#x106;" horiz-adv-x="1349" d="M967 1671l-64 33l156 174h117zM604 -12q-121 0 -214 51t-157.5 137t-98.5 196.5t-34 227.5q0 150 62.5 302.5t173 277.5t262.5 203.5t330 78.5q92 0 165.5 -23.5t129 -65.5t92.5 -100.5t53 -127.5l-96 -49q-18 76 -57 127t-89.5 82.5t-109 46t-117.5 14.5 q-100 0 -191.5 -31.5t-168 -87t-139 -130.5t-105.5 -159t-66.5 -175t-23.5 -177q0 -106 29.5 -200.5t85 -166t134 -113.5t177.5 -42q61 0 130.5 16.5t137.5 51t130.5 89t113.5 128.5l82 -43q-53 -82 -126 -145.5t-157 -106.5t-171 -64.5t-167 -21.5z" />
<glyph unicode="&#x107;" horiz-adv-x="1069" d="M684 1288l-63 33l155 174h117zM455 -20q-92 0 -166 34.5t-126 96t-80 143.5t-28 176q0 131 51.5 249t138.5 208t200.5 143t240.5 53q139 0 230.5 -65.5t119.5 -181.5l-108 -33q-25 88 -96.5 138t-169.5 50q-96 0 -186.5 -44t-160 -118.5t-112.5 -174t-43 -210.5 q0 -78 22.5 -146.5t62.5 -118.5t97 -78.5t125 -28.5q53 0 108.5 16t104.5 43t87 62.5t58 74.5l95 -28q-31 -55 -81.5 -103.5t-111.5 -83.5t-131.5 -54t-140.5 -19z" />
<glyph unicode="&#x108;" horiz-adv-x="1349" d="M772 1712l223 166h76l154 -166l-68 -35l-139 129l-193 -129zM604 -12q-121 0 -214 51t-157.5 137t-98.5 196.5t-34 227.5q0 150 62.5 302.5t173 277.5t262.5 203.5t330 78.5q92 0 165.5 -23.5t129 -65.5t92.5 -100.5t53 -127.5l-96 -49q-18 76 -57 127t-89.5 82.5 t-109 46t-117.5 14.5q-100 0 -191.5 -31.5t-168 -87t-139 -130.5t-105.5 -159t-66.5 -175t-23.5 -177q0 -106 29.5 -200.5t85 -166t134 -113.5t177.5 -42q61 0 130.5 16.5t137.5 51t130.5 89t113.5 128.5l82 -43q-53 -82 -126 -145.5t-157 -106.5t-171 -64.5t-167 -21.5z " />
<glyph unicode="&#x109;" horiz-adv-x="1069" d="M520 1329l223 166h76l154 -166l-68 -35l-139 129l-193 -129zM455 -20q-92 0 -166 34.5t-126 96t-80 143.5t-28 176q0 131 51.5 249t138.5 208t200.5 143t240.5 53q139 0 230.5 -65.5t119.5 -181.5l-108 -33q-25 88 -96.5 138t-169.5 50q-96 0 -186.5 -44t-160 -118.5 t-112.5 -174t-43 -210.5q0 -78 22.5 -146.5t62.5 -118.5t97 -78.5t125 -28.5q53 0 108.5 16t104.5 43t87 62.5t58 74.5l95 -28q-31 -55 -81.5 -103.5t-111.5 -83.5t-131.5 -54t-140.5 -19z" />
<glyph unicode="&#x10a;" horiz-adv-x="1349" d="M604 -12q-121 0 -214 51t-157.5 137t-98.5 196.5t-34 227.5q0 150 62.5 302.5t173 277.5t262.5 203.5t330 78.5q92 0 165.5 -23.5t129 -65.5t92.5 -100.5t53 -127.5l-96 -49q-18 76 -57 127t-89.5 82.5t-109 46t-117.5 14.5q-100 0 -191.5 -31.5t-168 -87t-139 -130.5 t-105.5 -159t-66.5 -175t-23.5 -177q0 -106 29.5 -200.5t85 -166t134 -113.5t177.5 -42q61 0 130.5 16.5t137.5 51t130.5 89t113.5 128.5l82 -43q-53 -82 -126 -145.5t-157 -106.5t-171 -64.5t-167 -21.5zM946 1694l39 184h94l-39 -184h-94z" />
<glyph unicode="&#x10b;" horiz-adv-x="1069" d="M455 -20q-92 0 -166 34.5t-126 96t-80 143.5t-28 176q0 131 51.5 249t138.5 208t200.5 143t240.5 53q139 0 230.5 -65.5t119.5 -181.5l-108 -33q-25 88 -96.5 138t-169.5 50q-96 0 -186.5 -44t-160 -118.5t-112.5 -174t-43 -210.5q0 -78 22.5 -146.5t62.5 -118.5 t97 -78.5t125 -28.5q53 0 108.5 16t104.5 43t87 62.5t58 74.5l95 -28q-31 -55 -81.5 -103.5t-111.5 -83.5t-131.5 -54t-140.5 -19zM690 1311l39 184h94l-39 -184h-94z" />
<glyph unicode="&#x10c;" horiz-adv-x="1349" d="M786 1843l68 35l139 -129l193 129l53 -35l-223 -166h-76zM604 -12q-121 0 -214 51t-157.5 137t-98.5 196.5t-34 227.5q0 150 62.5 302.5t173 277.5t262.5 203.5t330 78.5q92 0 165.5 -23.5t129 -65.5t92.5 -100.5t53 -127.5l-96 -49q-18 76 -57 127t-89.5 82.5t-109 46 t-117.5 14.5q-100 0 -191.5 -31.5t-168 -87t-139 -130.5t-105.5 -159t-66.5 -175t-23.5 -177q0 -106 29.5 -200.5t85 -166t134 -113.5t177.5 -42q61 0 130.5 16.5t137.5 51t130.5 89t113.5 128.5l82 -43q-53 -82 -126 -145.5t-157 -106.5t-171 -64.5t-167 -21.5z" />
<glyph unicode="&#x10d;" horiz-adv-x="1069" d="M535 1460l67 35l139 -129l193 129l53 -35l-223 -166h-76zM455 -20q-92 0 -166 34.5t-126 96t-80 143.5t-28 176q0 131 51.5 249t138.5 208t200.5 143t240.5 53q139 0 230.5 -65.5t119.5 -181.5l-108 -33q-25 88 -96.5 138t-169.5 50q-96 0 -186.5 -44t-160 -118.5 t-112.5 -174t-43 -210.5q0 -78 22.5 -146.5t62.5 -118.5t97 -78.5t125 -28.5q53 0 108.5 16t104.5 43t87 62.5t58 74.5l95 -28q-31 -55 -81.5 -103.5t-111.5 -83.5t-131.5 -54t-140.5 -19z" />
<glyph unicode="&#x10e;" horiz-adv-x="1409" d="M696 1843l68 35l139 -129l193 129l53 -35l-223 -166h-76zM365 1454h460q135 0 234.5 -43t164 -117.5t96.5 -176t32 -218.5q0 -195 -62.5 -358.5t-174 -284.5t-265.5 -188.5t-334 -67.5h-461zM537 94q164 0 295 64.5t222 173t140 251t49 298.5q0 104 -27.5 192t-83 151.5 t-137.5 99.5t-190 36h-356l-269 -1266h357z" />
<glyph unicode="&#x10f;" horiz-adv-x="1210" d="M1286 1321l156 174h117l-209 -207zM438 -20q-90 0 -161.5 36.5t-121 98t-75 142.5t-25.5 171q0 125 49.5 242.5t132 210t190.5 147.5t224 55q66 0 120 -20.5t97 -54t74 -78.5t49 -96l139 661h105l-287 -1348q-4 -20 -4 -24q0 -31 35 -31l-21 -92q-14 -2 -24 -2h-21 q-70 10 -69 74q0 6 1 13t3 22.5t7 40t13 65.5q-84 -106 -200.5 -169.5t-229.5 -63.5zM477 72q51 0 115.5 22.5t124 62.5t107.5 91t67 110l74 351q-8 57 -37 109t-71 90t-94 60.5t-108 22.5q-100 0 -190 -49t-157.5 -128t-106.5 -176t-39 -194q0 -76 22.5 -143.5t63.5 -118.5 t99 -80.5t130 -29.5z" />
<glyph unicode="&#x110;" horiz-adv-x="1423" d="M111 774h122l146 680h461q135 0 234.5 -43t164 -117.5t96 -176t31.5 -218.5q0 -195 -62.5 -358.5t-174 -284.5t-265 -188.5t-334.5 -67.5h-460l145 688h-123zM551 94q164 0 295 64.5t222 173t140 251t49 298.5q0 104 -27.5 192t-82.5 151.5t-137 99.5t-191 36h-356 l-125 -586h346l-18 -86h-347l-124 -594h356z" />
<glyph unicode="&#x111;" horiz-adv-x="1210" d="M881 1341h217l32 154h105l-33 -154h152l-17 -73h-151l-238 -1121q-4 -20 -4 -24q0 -31 35 -31l-21 -92q-14 -2 -24 -2h-21q-70 10 -69 74q0 6 1 13t3 22.5t7 40t13 65.5q-84 -106 -200.5 -169.5t-229.5 -63.5q-90 0 -161.5 36.5t-121 98t-75 142.5t-25.5 171 q0 125 49.5 242.5t132 210t190.5 147.5t224 55q66 0 120 -20.5t97 -54t74 -78.5t49 -96l90 434h-215zM477 72q51 0 115.5 22.5t124 62.5t107.5 91t67 110l74 351q-8 57 -37 109t-71 90t-94 60.5t-108 22.5q-100 0 -190 -49t-157.5 -128t-106.5 -176t-39 -194 q0 -76 22.5 -143.5t63.5 -118.5t99 -80.5t130 -29.5z" />
<glyph unicode="&#x112;" horiz-adv-x="1196" d="M365 1454h903l-19 -94h-800l-121 -572h698l-20 -90h-697l-129 -604h817l-20 -94h-922zM602 1757l16 76h558l-17 -76h-557z" />
<glyph unicode="&#x113;" horiz-adv-x="1083" d="M459 -20q-96 0 -171 35.5t-127 97t-79 143.5t-27 174q0 125 48.5 243t134.5 209t201.5 146t250.5 55q63 0 122.5 -18t106 -54t74 -89.5t27.5 -122.5q0 -307 -557 -307q-66 0 -138.5 2t-160.5 8q-2 -16 -3 -34.5t-1 -35.5q0 -76 19.5 -143.5t59.5 -117.5t100 -80t140 -30 q51 0 105.5 15.5t103.5 43t91 67.5t71 89l86 -26q-37 -61 -89 -110.5t-114.5 -85.5t-132 -55t-141.5 -19zM678 999q-96 0 -177 -35.5t-144.5 -94t-108.5 -134.5t-68 -155q86 -6 154.5 -8.5t134.5 -2.5q127 0 214 17.5t140.5 48.5t77 73t23.5 93t-21.5 89t-55.5 62.5 t-79 35.5t-90 11zM467 1374l16 76h557l-16 -76h-557z" />
<glyph unicode="&#x114;" horiz-adv-x="1196" d="M365 1454h903l-19 -94h-800l-121 -572h698l-20 -90h-697l-129 -604h817l-20 -94h-922zM866 1747q41 0 82 38t58 93h65q-8 -39 -29.5 -74t-51 -60.5t-64.5 -39.5t-70 -14q-66 0 -104.5 42t-38.5 105q0 18 6 41h67q-2 -10 -2 -29q0 -41 23.5 -71.5t58.5 -30.5z" />
<glyph unicode="&#x115;" horiz-adv-x="1083" d="M459 -20q-96 0 -171 35.5t-127 97t-79 143.5t-27 174q0 125 48.5 243t134.5 209t201.5 146t250.5 55q63 0 122.5 -18t106 -54t74 -89.5t27.5 -122.5q0 -307 -557 -307q-66 0 -138.5 2t-160.5 8q-2 -16 -3 -34.5t-1 -35.5q0 -76 19.5 -143.5t59.5 -117.5t100 -80t140 -30 q51 0 105.5 15.5t103.5 43t91 67.5t71 89l86 -26q-37 -61 -89 -110.5t-114.5 -85.5t-132 -55t-141.5 -19zM678 999q-96 0 -177 -35.5t-144.5 -94t-108.5 -134.5t-68 -155q86 -6 154.5 -8.5t134.5 -2.5q127 0 214 17.5t140.5 48.5t77 73t23.5 93t-21.5 89t-55.5 62.5 t-79 35.5t-90 11zM735 1364q41 0 82 38t57 93h66q-8 -39 -29.5 -74t-51.5 -60.5t-64.5 -39.5t-69.5 -14q-66 0 -104.5 42t-38.5 105q0 18 6 41h67q-2 -10 -2 -29q0 -41 23.5 -71.5t58.5 -30.5z" />
<glyph unicode="&#x116;" horiz-adv-x="1196" d="M365 1454h903l-19 -94h-800l-121 -572h698l-20 -90h-697l-129 -604h817l-20 -94h-922zM827 1694l39 184h95l-39 -184h-95z" />
<glyph unicode="&#x117;" horiz-adv-x="1083" d="M459 -20q-96 0 -171 35.5t-127 97t-79 143.5t-27 174q0 125 48.5 243t134.5 209t201.5 146t250.5 55q63 0 122.5 -18t106 -54t74 -89.5t27.5 -122.5q0 -307 -557 -307q-66 0 -138.5 2t-160.5 8q-2 -16 -3 -34.5t-1 -35.5q0 -76 19.5 -143.5t59.5 -117.5t100 -80t140 -30 q51 0 105.5 15.5t103.5 43t91 67.5t71 89l86 -26q-37 -61 -89 -110.5t-114.5 -85.5t-132 -55t-141.5 -19zM678 999q-96 0 -177 -35.5t-144.5 -94t-108.5 -134.5t-68 -155q86 -6 154.5 -8.5t134.5 -2.5q127 0 214 17.5t140.5 48.5t77 73t23.5 93t-21.5 89t-55.5 62.5 t-79 35.5t-90 11zM690 1311l39 184h94l-39 -184h-94z" />
<glyph unicode="&#x118;" horiz-adv-x="1196" d="M365 1454h903l-19 -94h-800l-121 -572h698l-20 -90h-697l-129 -604h817l-20 -94h-402q-115 -70 -158.5 -116t-43.5 -93q0 -63 80 -76l-47 -61q-53 12 -79 43t-26 72q0 59 43 112t148 119h-437z" />
<glyph unicode="&#x119;" horiz-adv-x="1083" d="M352 -360q-53 12 -78.5 42.5t-25.5 71.5q0 57 41 109.5t139 118.5q-90 6 -158.5 42.5t-117 97t-73 139.5t-24.5 169q0 125 48.5 243t134.5 209t201.5 146t250.5 55q63 0 122.5 -18t106 -54t74 -89.5t27.5 -122.5q0 -307 -557 -307q-66 0 -138.5 2t-160.5 8 q-2 -16 -3 -34.5t-1 -35.5q0 -76 19.5 -143.5t59.5 -117.5t100 -80t140 -30q51 0 105.5 15.5t103.5 43t91 67.5t71 89l86 -26q-66 -111 -178.5 -181.5t-241.5 -84.5q-113 -68 -155 -114t-42 -93q0 -63 80 -76zM678 999q-96 0 -177 -35.5t-144.5 -94t-108.5 -134.5t-68 -155 q86 -6 154.5 -8.5t134.5 -2.5q127 0 214 17.5t140.5 48.5t77 73t23.5 93t-21.5 89t-55.5 62.5t-79 35.5t-90 11z" />
<glyph unicode="&#x11a;" horiz-adv-x="1196" d="M662 1843l67 35l139 -129l193 129l53 -35l-223 -166h-76zM365 1454h903l-19 -94h-800l-121 -572h698l-20 -90h-697l-129 -604h817l-20 -94h-922z" />
<glyph unicode="&#x11b;" horiz-adv-x="1083" d="M532 1460l68 35l139 -129l193 129l53 -35l-223 -166h-76zM459 -20q-96 0 -171 35.5t-127 97t-79 143.5t-27 174q0 125 48.5 243t134.5 209t201.5 146t250.5 55q63 0 122.5 -18t106 -54t74 -89.5t27.5 -122.5q0 -307 -557 -307q-66 0 -138.5 2t-160.5 8q-2 -16 -3 -34.5 t-1 -35.5q0 -76 19.5 -143.5t59.5 -117.5t100 -80t140 -30q51 0 105.5 15.5t103.5 43t91 67.5t71 89l86 -26q-37 -61 -89 -110.5t-114.5 -85.5t-132 -55t-141.5 -19zM678 999q-96 0 -177 -35.5t-144.5 -94t-108.5 -134.5t-68 -155q86 -6 154.5 -8.5t134.5 -2.5 q127 0 214 17.5t140.5 48.5t77 73t23.5 93t-21.5 89t-55.5 62.5t-79 35.5t-90 11z" />
<glyph unicode="&#x11c;" horiz-adv-x="1406" d="M737 1712l224 166h75l154 -166l-68 -35l-139 129l-192 -129zM1118 225q-248 -236 -508 -235q-121 0 -215 51t-159.5 136t-100.5 194.5t-35 226.5q0 162 66.5 317.5t179.5 277.5t259.5 196.5t303.5 74.5q104 0 182 -23.5t133.5 -65.5t91.5 -100t54 -128l-94 -51 q-41 143 -141.5 207.5t-247.5 64.5q-141 0 -265 -68.5t-216.5 -178t-146.5 -246t-54 -271.5q0 -104 30.5 -198.5t87 -165t135.5 -112.5t177 -42q125 0 250 60.5t258 193.5l61 283h-311l18 84h402l-150 -707h-92z" />
<glyph unicode="&#x11d;" horiz-adv-x="1200" d="M500 1329l223 166h76l153 -166l-67 -35l-140 129l-192 -129zM338 -457q-176 0 -267 66.5t-130 179.5l77 47q37 -109 129.5 -159t208.5 -50q76 0 150 22.5t134 66.5t104 109.5t63 154.5l49 233q-41 -51 -92 -93t-106.5 -73t-115 -47t-114.5 -16q-88 0 -157.5 36.5t-118 98 t-74 141.5t-25.5 168q0 123 49.5 240.5t132 210t191.5 148.5t229 56q131 0 214 -72.5t130 -176.5l50 231h92l-232 -1085q-23 -109 -79 -191t-134 -136t-170 -82t-188 -28zM473 72q63 0 130 25.5t124 66.5t100 92t62 102l74 351q-10 61 -38 113t-69 89t-94 58.5t-111 21.5 q-104 0 -193 -51t-155.5 -130t-104.5 -176t-38 -190q0 -76 22.5 -143.5t63.5 -118.5t98 -80.5t129 -29.5z" />
<glyph unicode="&#x11e;" horiz-adv-x="1406" d="M1118 225q-248 -236 -508 -235q-121 0 -215 51t-159.5 136t-100.5 194.5t-35 226.5q0 162 66.5 317.5t179.5 277.5t259.5 196.5t303.5 74.5q104 0 182 -23.5t133.5 -65.5t91.5 -100t54 -128l-94 -51q-41 143 -141.5 207.5t-247.5 64.5q-141 0 -265 -68.5t-216.5 -178 t-146.5 -246t-54 -271.5q0 -104 30.5 -198.5t87 -165t135.5 -112.5t177 -42q125 0 250 60.5t258 193.5l61 283h-311l18 84h402l-150 -707h-92zM958 1747q41 0 82 38t58 93h65q-8 -39 -29.5 -74t-51 -60.5t-64.5 -39.5t-70 -14q-66 0 -104.5 42t-38.5 105q0 18 6 41h68 q-2 -10 -2 -29q0 -41 23 -71.5t58 -30.5z" />
<glyph unicode="&#x11f;" horiz-adv-x="1200" d="M338 -457q-176 0 -267 66.5t-130 179.5l77 47q37 -109 129.5 -159t208.5 -50q76 0 150 22.5t134 66.5t104 109.5t63 154.5l49 233q-41 -51 -92 -93t-106.5 -73t-115 -47t-114.5 -16q-88 0 -157.5 36.5t-118 98t-74 141.5t-25.5 168q0 123 49.5 240.5t132 210t191.5 148.5 t229 56q131 0 214 -72.5t130 -176.5l50 231h92l-232 -1085q-23 -109 -79 -191t-134 -136t-170 -82t-188 -28zM473 72q63 0 130 25.5t124 66.5t100 92t62 102l74 351q-10 61 -38 113t-69 89t-94 58.5t-111 21.5q-104 0 -193 -51t-155.5 -130t-104.5 -176t-38 -190 q0 -76 22.5 -143.5t63.5 -118.5t98 -80.5t129 -29.5zM711 1364q41 0 82 38t57 93h65q-8 -39 -29.5 -74t-51 -60.5t-64.5 -39.5t-70 -14q-66 0 -104.5 42t-38.5 105q0 18 6 41h68q-2 -10 -2 -29q0 -41 23.5 -71.5t58.5 -30.5z" />
<glyph unicode="&#x120;" horiz-adv-x="1406" d="M1118 225q-248 -236 -508 -235q-121 0 -215 51t-159.5 136t-100.5 194.5t-35 226.5q0 162 66.5 317.5t179.5 277.5t259.5 196.5t303.5 74.5q104 0 182 -23.5t133.5 -65.5t91.5 -100t54 -128l-94 -51q-41 143 -141.5 207.5t-247.5 64.5q-141 0 -265 -68.5t-216.5 -178 t-146.5 -246t-54 -271.5q0 -104 30.5 -198.5t87 -165t135.5 -112.5t177 -42q125 0 250 60.5t258 193.5l61 283h-311l18 84h402l-150 -707h-92zM920 1694l38 184h95l-39 -184h-94z" />
<glyph unicode="&#x121;" horiz-adv-x="1200" d="M338 -457q-176 0 -267 66.5t-130 179.5l77 47q37 -109 129.5 -159t208.5 -50q76 0 150 22.5t134 66.5t104 109.5t63 154.5l49 233q-41 -51 -92 -93t-106.5 -73t-115 -47t-114.5 -16q-88 0 -157.5 36.5t-118 98t-74 141.5t-25.5 168q0 123 49.5 240.5t132 210t191.5 148.5 t229 56q131 0 214 -72.5t130 -176.5l50 231h92l-232 -1085q-23 -109 -79 -191t-134 -136t-170 -82t-188 -28zM473 72q63 0 130 25.5t124 66.5t100 92t62 102l74 351q-10 61 -38 113t-69 89t-94 58.5t-111 21.5q-104 0 -193 -51t-155.5 -130t-104.5 -176t-38 -190 q0 -76 22.5 -143.5t63.5 -118.5t98 -80.5t129 -29.5zM664 1311l38 184h95l-39 -184h-94z" />
<glyph unicode="&#x122;" horiz-adv-x="1406" d="M475 -383l60 139h-33l30 144h99l-29 -144l-72 -139h-55zM1118 225q-248 -236 -508 -235q-121 0 -215 51t-159.5 136t-100.5 194.5t-35 226.5q0 162 66.5 317.5t179.5 277.5t259.5 196.5t303.5 74.5q104 0 182 -23.5t133.5 -65.5t91.5 -100t54 -128l-94 -51 q-41 143 -141.5 207.5t-247.5 64.5q-141 0 -265 -68.5t-216.5 -178t-146.5 -246t-54 -271.5q0 -104 30.5 -198.5t87 -165t135.5 -112.5t177 -42q125 0 250 60.5t258 193.5l61 283h-311l18 84h402l-150 -707h-92z" />
<glyph unicode="&#x123;" horiz-adv-x="1200" d="M803 1507l-60 -139h33l-31 -143h-98l29 143l72 139h55zM338 -457q-176 0 -267 66.5t-130 179.5l77 47q37 -109 129.5 -159t208.5 -50q76 0 150 22.5t134 66.5t104 109.5t63 154.5l49 233q-41 -51 -92 -93t-106.5 -73t-115 -47t-114.5 -16q-88 0 -157.5 36.5t-118 98 t-74 141.5t-25.5 168q0 123 49.5 240.5t132 210t191.5 148.5t229 56q131 0 214 -72.5t130 -176.5l50 231h92l-232 -1085q-23 -109 -79 -191t-134 -136t-170 -82t-188 -28zM473 72q63 0 130 25.5t124 66.5t100 92t62 102l74 351q-10 61 -38 113t-69 89t-94 58.5t-111 21.5 q-104 0 -193 -51t-155.5 -130t-104.5 -176t-38 -190q0 -76 22.5 -143.5t63.5 -118.5t98 -80.5t129 -29.5z" />
<glyph unicode="&#x124;" horiz-adv-x="1445" d="M727 1712l223 166h76l154 -166l-68 -35l-139 129l-193 -129zM365 1454h104l-141 -663h864l141 663h105l-310 -1454h-104l147 696h-862l-149 -696h-105z" />
<glyph unicode="&#x125;" horiz-adv-x="1130" d="M573 1329l218 166h73l148 -166l-66 -35l-135 129l-186 -129zM342 1495h102l-145 -684q88 125 213 198.5t252 73.5q129 0 186.5 -72.5t57.5 -203.5q0 -43 -5.5 -92t-17.5 -103l-129 -612h-102l125 594q20 96 20 170q0 225 -186 225q-61 0 -126 -24.5t-125.5 -69.5 t-111.5 -105.5t-84 -130.5l-139 -659h-102z" />
<glyph unicode="&#x126;" horiz-adv-x="1464" d="M223 1194h96l56 260h104l-55 -260h864l55 260h105l-55 -260h96l-14 -66h-97l-239 -1128h-105l148 696h-865l-147 -696h-104l239 1128h-96zM1202 791l72 337h-864l-72 -337h864z" />
<glyph unicode="&#x127;" horiz-adv-x="1130" d="M166 1341h143l33 154h102l-32 -154h225l-16 -73h-226l-96 -457q88 125 213 198.5t252 73.5q129 0 186.5 -72.5t57.5 -203.5q0 -43 -5.5 -92t-17.5 -103l-129 -612h-102l125 594q20 94 20 170q0 225 -186 225q-61 0 -126 -24.5t-125.5 -69.5t-111.5 -105.5t-84 -130.5 l-139 -659h-102l268 1268h-141z" />
<glyph unicode="&#x128;" horiz-adv-x="477" d="M365 1452h104l-309 -1452h-105zM584 1708q-43 0 -74 12.5t-55.5 27.5t-47 28.5t-53.5 13.5q-33 0 -55.5 -14.5t-35.5 -32t-20 -32.5t-7 -19h-70q2 8 14.5 35.5t37 57.5t61 53.5t90.5 23.5q39 0 66.5 -13.5t52 -29t49 -27.5t61.5 -12q39 0 63.5 14t40 31.5t22.5 33t7 19.5 h68q-2 -10 -14.5 -38t-38 -56.5t-65.5 -52t-97 -23.5z" />
<glyph unicode="&#x129;" horiz-adv-x="411" d="M250 1065h102l-225 -1065h-102zM459 1325q-43 0 -74 12.5t-55.5 27.5t-47 28.5t-53.5 13.5q-33 0 -55 -14.5t-35.5 -32t-20.5 -32.5t-7 -19h-70q2 8 14.5 35.5t37 57.5t61 53.5t90.5 23.5q39 0 66.5 -13.5t52 -29t49 -27.5t61.5 -12q39 0 63.5 14t40 31.5t22.5 33t7 19.5 h68q-2 -10 -14.5 -37.5t-38 -56.5t-65.5 -52.5t-97 -23.5z" />
<glyph unicode="&#x12a;" horiz-adv-x="477" d="M365 1452h104l-309 -1452h-105zM203 1757l16 76h557l-16 -76h-557z" />
<glyph unicode="&#x12b;" horiz-adv-x="411" d="M250 1065h102l-225 -1065h-102zM72 1374l16 76h557l-16 -76h-557z" />
<glyph unicode="&#x12c;" horiz-adv-x="477" d="M365 1452h104l-309 -1452h-105zM457 1747q41 0 82 38t57 93h66q-8 -39 -30 -74t-51.5 -60.5t-64.5 -39.5t-70 -14q-66 0 -104.5 42t-38.5 105q0 18 6 41h68q-2 -10 -2 -29q0 -41 23.5 -71.5t58.5 -30.5z" />
<glyph unicode="&#x12d;" horiz-adv-x="411" d="M250 1065h102l-225 -1065h-102zM346 1364q41 0 82 38t57 93h66q-8 -39 -29.5 -74t-51.5 -60.5t-64.5 -39.5t-69.5 -14q-66 0 -104.5 42t-38.5 105q0 18 6 41h67q-2 -10 -2 -29q0 -41 23.5 -71.5t58.5 -30.5z" />
<glyph unicode="&#x12e;" horiz-adv-x="479" d="M367 1452h104l-309 -1452q-115 -70 -159 -116t-44 -93q0 -63 80 -76l-47 -61q-53 12 -79 43t-26 72q0 59 44 112t147 119h-21z" />
<glyph unicode="&#x12f;" horiz-adv-x="413" d="M252 1065h102l-225 -1065q-115 -70 -159 -116t-44 -93q0 -63 80 -76l-47 -61q-53 12 -78.5 43t-25.5 72q0 59 44 112t146 119h-18zM344 1495h102l-38 -188h-103z" />
<glyph unicode="&#x130;" horiz-adv-x="477" d="M365 1452h104l-309 -1452h-105zM420 1694l39 184h94l-39 -184h-94z" />
<glyph unicode="&#x131;" horiz-adv-x="411" d="M250 1065h102l-225 -1065h-102z" />
<glyph unicode="&#x132;" horiz-adv-x="1429" d="M365 1452h104l-309 -1452h-105zM686 -23q-174 0 -280 91l51 84q39 -35 102.5 -56.5t147.5 -21.5q111 0 186.5 43t127.5 125t87 201.5t68 271.5l157 737h105l-158 -737q-35 -166 -78 -302.5t-108.5 -232.5t-164 -149.5t-243.5 -53.5z" />
<glyph unicode="&#x133;" horiz-adv-x="839" d="M250 1065h102l-225 -1065h-102zM342 1495h102l-38 -188h-103zM188 -362q-61 0 -111 17t-85 58l69 68q25 -29 62 -39t76 -10q37 0 74.5 15t70.5 43t57.5 66t34.5 83l240 1126h102l-237 -1122q-14 -68 -51 -123.5t-86.5 -96t-106 -63t-109.5 -22.5zM768 1495h102l-41 -188 h-102z" />
<glyph unicode="&#x134;" horiz-adv-x="950" d="M731 1712l223 166h76l154 -166l-68 -35l-139 129l-193 -129zM209 -23q-174 0 -281 91l52 84q39 -35 102 -56.5t147 -21.5q111 0 187 43t128 125t87 201.5t67 271.5l158 737h105l-158 -737q-35 -166 -78 -302.5t-108.5 -232.5t-164 -149.5t-243.5 -53.5z" />
<glyph unicode="&#x135;" horiz-adv-x="411" d="M-238 -362q-61 0 -111 17t-85 58l69 68q25 -29 62 -39t76 -10q37 0 74.5 15t70.5 43t57.5 66t34.5 83l240 1126h102l-239 -1122q-14 -68 -50 -123.5t-85.5 -96t-106 -63t-109.5 -22.5zM123 1329l223 166h76l153 -166l-67 -35l-139 129l-193 -129z" />
<glyph unicode="&#x136;" horiz-adv-x="1241" d="M391 -383l60 139h-33l31 144h98l-29 -144l-72 -139h-55zM365 1452h104l-188 -881l987 883h121l-709 -637l428 -817h-119l-389 754l-344 -305l-96 -449h-105z" />
<glyph unicode="&#x137;" horiz-adv-x="1085" d="M287 -383l59 139h-33l31 144h98l-28 -144l-72 -139h-55zM342 1495h102l-159 -756q117 160 249 254t277 94q117 0 177.5 -57t60.5 -158q0 -135 -107.5 -239.5t-304.5 -157.5l242 -475h-113l-254 522q215 45 326.5 135.5t111.5 200.5q0 72 -43 107.5t-121 35.5 q-135 0 -274 -111.5t-262 -311.5l-123 -578h-102z" />
<glyph unicode="&#x138;" horiz-adv-x="1021" d="M250 1065h102l-129 -614l738 612h118l-514 -432l303 -631h-112l-273 569l-284 -231l-72 -338h-102z" />
<glyph unicode="&#x139;" horiz-adv-x="1136" d="M463 1671l-64 33l156 174h117zM365 1454h104l-289 -1360h821l-20 -94h-926z" />
<glyph unicode="&#x13a;" horiz-adv-x="509" d="M412 1587l-64 33l156 174h117zM211 -12q-70 0 -109 37.5t-39 103.5q0 23 7 51l278 1315h103l-273 -1284q-2 -10 -3 -18.5t-1 -18.5q0 -43 25.5 -67.5t74.5 -24.5q23 0 53.5 5t57.5 15v-82q-35 -14 -87 -23t-87 -9z" />
<glyph unicode="&#x13b;" horiz-adv-x="1136" d="M391 -383l60 139h-33l31 144h98l-29 -144l-72 -139h-55zM365 1454h104l-289 -1360h821l-20 -94h-926z" />
<glyph unicode="&#x13c;" horiz-adv-x="509" d="M72 -383l59 139h-33l31 144h98l-28 -144l-72 -139h-55zM211 -12q-70 0 -109 37.5t-39 103.5q0 23 7 51l278 1315h103l-273 -1284q-2 -10 -3 -18.5t-1 -18.5q0 -43 25.5 -67.5t74.5 -24.5q23 0 53.5 5t57.5 15v-82q-35 -14 -87 -23t-87 -9z" />
<glyph unicode="&#x13d;" horiz-adv-x="1136" d="M578 1321l155 174h117l-209 -207zM365 1454h104l-289 -1360h821l-20 -94h-926z" />
<glyph unicode="&#x13e;" horiz-adv-x="493" d="M524 1321l156 174h117l-209 -207zM211 -12q-70 0 -109 37.5t-39 103.5q0 23 7 51l278 1315h103l-273 -1284q-2 -10 -3 -18.5t-1 -18.5q0 -43 25.5 -67.5t74.5 -24.5q23 0 53.5 5t57.5 15v-82q-35 -14 -87 -23t-87 -9z" />
<glyph unicode="&#x13f;" horiz-adv-x="1136" d="M365 1454h104l-289 -1360h821l-20 -94h-926zM678 723l45 207h88l-43 -207h-90z" />
<glyph unicode="&#x140;" horiz-adv-x="567" d="M211 -12q-70 0 -109 37.5t-39 103.5q0 23 7 51l278 1315h103l-273 -1284q-2 -10 -3 -18.5t-1 -18.5q0 -43 25.5 -67.5t74.5 -24.5q23 0 53.5 5t57.5 15v-82q-35 -14 -87 -23t-87 -9zM432 530l45 207h88l-43 -207h-90z" />
<glyph unicode="&#x141;" horiz-adv-x="1150" d="M29 526l186 144l166 784h104l-147 -688l387 303l25 -61l-433 -338l-122 -576h821l-19 -94h-925l121 571l-140 -108z" />
<glyph unicode="&#x142;" horiz-adv-x="544" d="M37 664l203 151l143 680h102l-125 -588l209 158l29 -61l-258 -193l-123 -584q-8 -27 -8 -53q0 -43 25.5 -67.5t72.5 -24.5q23 0 54.5 5t60.5 15v-82q-37 -14 -89 -23t-87 -9q-72 0 -110 36.5t-38 102.5q0 25 6 53l115 539l-156 -115z" />
<glyph unicode="&#x143;" horiz-adv-x="1517" d="M981 1671l-63 33l155 174h117zM365 1454h81l689 -1280l270 1278h104l-309 -1452h-92l-680 1257l-268 -1257h-105z" />
<glyph unicode="&#x144;" horiz-adv-x="1130" d="M741 1288l-63 33l156 174h116zM250 1065h96l-55 -254q43 61 100.5 111.5t122 86t133 55t135.5 19.5q123 0 176.5 -65.5t53.5 -190.5q0 -47 -7.5 -100t-19.5 -115l-129 -612h-102l125 594q12 57 17 104t5 86q0 205 -170 205q-63 0 -131 -24.5t-130 -69.5t-115.5 -105.5 t-88.5 -130.5l-139 -659h-102z" />
<glyph unicode="&#x145;" horiz-adv-x="1517" d="M510 -383l59 139h-32l30 144h99l-29 -144l-72 -139h-55zM365 1454h81l689 -1280l270 1278h104l-309 -1452h-92l-680 1257l-268 -1257h-105z" />
<glyph unicode="&#x146;" horiz-adv-x="1130" d="M313 -383l60 139h-33l31 144h98l-29 -144l-71 -139h-56zM250 1065h96l-55 -254q43 61 100.5 111.5t122 86t133 55t135.5 19.5q123 0 176.5 -65.5t53.5 -190.5q0 -47 -7.5 -100t-19.5 -115l-129 -612h-102l125 594q12 57 17 104t5 86q0 205 -170 205q-63 0 -131 -24.5 t-130 -69.5t-115.5 -105.5t-88.5 -130.5l-139 -659h-102z" />
<glyph unicode="&#x147;" horiz-adv-x="1517" d="M788 1843l68 35l139 -129l193 129l53 -35l-223 -166h-76zM365 1454h81l689 -1280l270 1278h104l-309 -1452h-92l-680 1257l-268 -1257h-105z" />
<glyph unicode="&#x148;" horiz-adv-x="1130" d="M516 1460l68 35l139 -129l192 129l54 -35l-224 -166h-75zM250 1065h96l-55 -254q43 61 100.5 111.5t122 86t133 55t135.5 19.5q123 0 176.5 -65.5t53.5 -190.5q0 -47 -7.5 -100t-19.5 -115l-129 -612h-102l125 594q12 57 17 104t5 86q0 205 -170 205q-63 0 -131 -24.5 t-130 -69.5t-115.5 -105.5t-88.5 -130.5l-139 -659h-102z" />
<glyph unicode="&#x149;" horiz-adv-x="1130" d="M-63 1321l98 111l14 63h160l-211 -207zM250 1065h96l-55 -254q43 61 100.5 111.5t122 86t133 55t135.5 19.5q123 0 176.5 -65.5t53.5 -190.5q0 -47 -7.5 -100t-19.5 -115l-129 -612h-102l125 594q12 57 17 104t5 86q0 205 -170 205q-63 0 -131 -24.5t-130 -69.5 t-115.5 -105.5t-88.5 -130.5l-139 -659h-102z" />
<glyph unicode="&#x14a;" horiz-adv-x="1513" d="M829 -362q-61 0 -111 17t-85 58l69 68q25 -29 62 -39t76 -10q37 0 73.5 15t69.5 43t58.5 66t35.5 83l17 69l-666 1247l-268 -1255h-105l310 1454h79l682 -1276l273 1274h102l-319 -1511q-14 -68 -51 -123.5t-86.5 -95t-106 -62t-109.5 -22.5z" />
<glyph unicode="&#x14b;" horiz-adv-x="1130" d="M492 -362q-61 0 -111.5 17t-85.5 58l70 68q25 -29 61.5 -39t75.5 -10q35 0 72.5 15t71.5 43t58.5 66t34.5 83l140 655q12 57 17 104t5 86q0 205 -170 205q-63 0 -131 -24.5t-130 -69.5t-115.5 -105.5t-88.5 -130.5l-139 -659h-102l225 1065h96l-55 -254 q43 61 100.5 111.5t122 86t133 55t135.5 19.5q123 0 176.5 -65.5t53.5 -190.5q0 -47 -7.5 -100t-19.5 -115l-141 -669q-14 -68 -51 -123.5t-86.5 -96t-105.5 -63t-109 -22.5z" />
<glyph unicode="&#x14c;" d="M707 1757l16 76h557l-16 -76h-557zM608 -10q-123 0 -218 49t-159.5 132t-98.5 191.5t-34 225.5q0 168 70 325.5t184.5 280.5t264 196.5t307.5 73.5q123 0 217 -51t158.5 -135t97.5 -192.5t33 -223.5q0 -166 -70 -323.5t-184.5 -279.5t-262 -195.5t-305.5 -73.5zM629 86 q141 0 268 68.5t221 178t149.5 247t55.5 272.5q0 104 -28.5 197.5t-83 164t-133.5 112.5t-177 42q-141 0 -268 -68.5t-222.5 -178t-150.5 -247t-55 -274.5q0 -104 28.5 -197.5t83 -164t133.5 -111.5t179 -41z" />
<glyph unicode="&#x14d;" horiz-adv-x="1165" d="M461 1374l16 76h557l-16 -76h-557zM446 -20q-92 0 -164.5 34.5t-122.5 95t-78 141.5t-28 173q0 129 52.5 249t140.5 211t201.5 145t234.5 54q90 0 163 -35.5t123 -96t77.5 -142.5t27.5 -174q0 -127 -52 -246t-139 -210t-200 -145t-236 -54zM465 72q92 0 183 45t162 120.5 t115 175t44 208.5q0 78 -22.5 145.5t-62.5 117.5t-97.5 78.5t-124.5 28.5q-92 0 -181.5 -45t-161 -121.5t-115.5 -177t-44 -211.5q0 -78 22.5 -144.5t62.5 -115.5t96 -76.5t124 -27.5z" />
<glyph unicode="&#x14e;" d="M608 -10q-123 0 -218 49t-159.5 132t-98.5 191.5t-34 225.5q0 168 70 325.5t184.5 280.5t264 196.5t307.5 73.5q123 0 217 -51t158.5 -135t97.5 -192.5t33 -223.5q0 -166 -70 -323.5t-184.5 -279.5t-262 -195.5t-305.5 -73.5zM629 86q141 0 268 68.5t221 178t149.5 247 t55.5 272.5q0 104 -28.5 197.5t-83 164t-133.5 112.5t-177 42q-141 0 -268 -68.5t-222.5 -178t-150.5 -247t-55 -274.5q0 -104 28.5 -197.5t83 -164t133.5 -111.5t179 -41zM969 1747q41 0 82 38t57 93h66q-8 -39 -30 -74t-51.5 -60.5t-64.5 -39.5t-70 -14q-66 0 -104.5 42 t-38.5 105q0 18 6 41h68q-2 -10 -2 -29q0 -41 23.5 -71.5t58.5 -30.5z" />
<glyph unicode="&#x14f;" horiz-adv-x="1165" d="M446 -20q-92 0 -164.5 34.5t-122.5 95t-78 141.5t-28 173q0 129 52.5 249t140.5 211t201.5 145t234.5 54q90 0 163 -35.5t123 -96t77.5 -142.5t27.5 -174q0 -127 -52 -246t-139 -210t-200 -145t-236 -54zM465 72q92 0 183 45t162 120.5t115 175t44 208.5 q0 78 -22.5 145.5t-62.5 117.5t-97.5 78.5t-124.5 28.5q-92 0 -181.5 -45t-161 -121.5t-115.5 -177t-44 -211.5q0 -78 22.5 -144.5t62.5 -115.5t96 -76.5t124 -27.5zM729 1364q41 0 82 38t57 93h66q-8 -39 -29.5 -74t-51.5 -60.5t-64.5 -39.5t-69.5 -14q-66 0 -105 42 t-39 105q0 18 7 41h67q-2 -10 -2 -29q0 -41 23.5 -71.5t58.5 -30.5z" />
<glyph unicode="&#x150;" d="M823 1673l-53 33l154 174h104zM1053 1673l-54 33l152 174h106zM608 -10q-123 0 -218 49t-159.5 132t-98.5 191.5t-34 225.5q0 168 70 325.5t184.5 280.5t264 196.5t307.5 73.5q123 0 217 -51t158.5 -135t97.5 -192.5t33 -223.5q0 -166 -70 -323.5t-184.5 -279.5 t-262 -195.5t-305.5 -73.5zM629 86q141 0 268 68.5t221 178t149.5 247t55.5 272.5q0 104 -28.5 197.5t-83 164t-133.5 112.5t-177 42q-141 0 -268 -68.5t-222.5 -178t-150.5 -247t-55 -274.5q0 -104 28.5 -197.5t83 -164t133.5 -111.5t179 -41z" />
<glyph unicode="&#x151;" horiz-adv-x="1165" d="M567 1288l-53 33l154 174h104zM797 1288l-54 33l152 174h106zM446 -20q-92 0 -164.5 34.5t-122.5 95t-78 141.5t-28 173q0 129 52.5 249t140.5 211t201.5 145t234.5 54q90 0 163 -35.5t123 -96t77.5 -142.5t27.5 -174q0 -127 -52 -246t-139 -210t-200 -145t-236 -54z M465 72q92 0 183 45t162 120.5t115 175t44 208.5q0 78 -22.5 145.5t-62.5 117.5t-97.5 78.5t-124.5 28.5q-92 0 -181.5 -45t-161 -121.5t-115.5 -177t-44 -211.5q0 -78 22.5 -144.5t62.5 -115.5t96 -76.5t124 -27.5z" />
<glyph unicode="&#x152;" horiz-adv-x="2287" d="M610 -10q-123 0 -218 50t-160.5 133t-99.5 191.5t-34 225.5q0 166 70 323.5t184.5 280.5t264 196.5t307.5 73.5q96 0 174 -33.5t134 -91t93 -134.5t49 -163l88 412h899l-22 -94h-793l-119 -569h687l-21 -97h-688l-127 -600h809l-19 -94h-915l88 410q-53 -88 -122.5 -165 t-151.5 -133.5t-173.5 -89t-183.5 -32.5zM629 86q141 0 267 68.5t221 178t150.5 247t55.5 274.5q0 102 -28.5 195.5t-83 164t-133.5 112.5t-177 42q-141 0 -268 -68.5t-222.5 -178t-150.5 -247t-55 -274.5q0 -104 28.5 -197.5t83 -164t133.5 -111.5t179 -41z" />
<glyph unicode="&#x153;" horiz-adv-x="2029" d="M444 -20q-88 0 -160.5 33.5t-123.5 93t-79 140.5t-28 173q0 135 53.5 255t141.5 211t201.5 144t234.5 53q154 0 251 -97t112 -263q86 170 224 265t300 95q184 0 285.5 -122.5t101.5 -329.5q0 -68 -7 -97.5t-12 -41.5h-882q-6 -37 -6 -72q0 -78 23.5 -143.5t66.5 -112.5 t103.5 -75t133.5 -28q55 0 110.5 15.5t104.5 42t90 64.5t68 83l84 -24q-37 -59 -91 -107.5t-117.5 -82.5t-133.5 -53t-137 -19q-76 0 -141.5 25.5t-116.5 73.5t-85 113.5t-46 145.5q-47 -82 -106.5 -148.5t-127 -112.5t-141.5 -71.5t-148 -25.5zM465 72q94 0 185 44 t162 119.5t114 176t43 211.5q0 78 -21.5 145.5t-61.5 116.5t-96.5 77.5t-125.5 28.5q-94 0 -184.5 -45t-161 -121.5t-114.5 -178t-44 -214.5q0 -78 21.5 -143.5t61.5 -113.5t96 -75.5t126 -27.5zM1855 567q6 43 7 84q0 78 -22.5 141.5t-62.5 109.5t-98.5 71.5t-128.5 25.5 q-80 0 -155.5 -32.5t-140 -90t-112.5 -136t-73 -173.5h786z" />
<glyph unicode="&#x154;" horiz-adv-x="1277" d="M819 1677l-63 33l155 174h117zM55 0l310 1454h577q74 0 133.5 -31.5t100.5 -84t62.5 -119t21.5 -138.5q0 -90 -34 -177t-92.5 -157.5t-135 -119.5t-164.5 -62l221 -565h-119l-217 549h-443l-116 -549h-105zM778 645q76 0 144.5 38t119 98.5t80 136t29.5 151.5 q0 57 -17.5 110.5t-48 93.5t-73.5 63.5t-97 23.5h-466l-152 -715h481z" />
<glyph unicode="&#x155;" horiz-adv-x="681" d="M496 1288l-64 33l156 174h117zM250 1065h98l-57 -262q86 123 197.5 193.5t216.5 70.5q20 0 28 -2l-20 -92q-137 -4 -255 -85t-190 -222l-141 -666h-102z" />
<glyph unicode="&#x156;" horiz-adv-x="1277" d="M385 -383l59 139h-32l30 144h99l-29 -144l-72 -139h-55zM55 0l310 1454h577q74 0 133.5 -31.5t100.5 -84t62.5 -119t21.5 -138.5q0 -90 -34 -177t-92.5 -157.5t-135 -119.5t-164.5 -62l221 -565h-119l-217 549h-443l-116 -549h-105zM778 645q76 0 144.5 38t119 98.5 t80 136t29.5 151.5q0 57 -17.5 110.5t-48 93.5t-73.5 63.5t-97 23.5h-466l-152 -715h481z" />
<glyph unicode="&#x157;" horiz-adv-x="681" d="M-61 -383l59 139h-33l31 144h98l-28 -144l-72 -139h-55zM250 1065h98l-57 -262q86 123 197.5 193.5t216.5 70.5q20 0 28 -2l-20 -92q-137 -4 -255 -85t-190 -222l-141 -666h-102z" />
<glyph unicode="&#x158;" horiz-adv-x="1277" d="M670 1849l67 35l140 -129l192 129l53 -35l-223 -166h-76zM55 0l310 1454h577q74 0 133.5 -31.5t100.5 -84t62.5 -119t21.5 -138.5q0 -90 -34 -177t-92.5 -157.5t-135 -119.5t-164.5 -62l221 -565h-119l-217 549h-443l-116 -549h-105zM778 645q76 0 144.5 38t119 98.5 t80 136t29.5 151.5q0 57 -17.5 110.5t-48 93.5t-73.5 63.5t-97 23.5h-466l-152 -715h481z" />
<glyph unicode="&#x159;" horiz-adv-x="681" d="M313 1460l68 35l139 -129l193 129l53 -35l-223 -166h-76zM250 1065h98l-57 -262q86 123 197.5 193.5t216.5 70.5q20 0 28 -2l-20 -92q-137 -4 -255 -85t-190 -222l-141 -666h-102z" />
<glyph unicode="&#x15a;" horiz-adv-x="1193" d="M821 1710l-63 33l155 174h117zM492 -12q-324 0 -504 217l73 84q66 -96 179.5 -152.5t273.5 -56.5q207 0 328 86t121 248q0 113 -95.5 171t-275.5 99q-92 20 -163 45t-120 58.5t-74.5 82t-25.5 115.5q0 113 45 202t123 150.5t185.5 94t232.5 32.5q135 0 232 -42t163 -128 l-72 -82q-98 158 -344 158q-121 0 -206 -27.5t-140 -74.5t-80.5 -111.5t-25.5 -140.5q0 -53 21.5 -90t64.5 -63.5t107.5 -47t150.5 -41.5q92 -23 168.5 -48.5t130 -63t83 -90t29.5 -128.5q0 -111 -44 -196.5t-123 -143t-186 -87t-232 -29.5z" />
<glyph unicode="&#x15b;" horiz-adv-x="944" d="M596 1288l-64 33l156 174h117zM342 -20q-117 0 -216 40.5t-161 122.5l64 70q68 -78 146.5 -115t182.5 -37q74 0 136.5 18.5t108.5 51.5t71.5 80t25.5 106q0 78 -71.5 115t-204.5 72q-72 18 -125 36.5t-89 42t-54.5 56.5t-18.5 80q0 88 37 156.5t98.5 114.5t142.5 69.5 t169 23.5q119 0 201.5 -42t117.5 -107l-67 -55q-35 61 -110 91.5t-167 30.5q-63 0 -120.5 -15t-101.5 -47t-70.5 -80t-26.5 -114q0 -35 14 -58t42 -40.5t71 -31t100 -27.5q80 -20 142.5 -41t106.5 -48.5t66.5 -65.5t22.5 -91q0 -80 -35 -146.5t-96.5 -114.5t-146.5 -74.5 t-185 -26.5z" />
<glyph unicode="&#x15c;" horiz-adv-x="1193" d="M633 1751l223 166h76l153 -166l-67 -35l-139 129l-193 -129zM492 -12q-324 0 -504 217l73 84q66 -96 179.5 -152.5t273.5 -56.5q207 0 328 86t121 248q0 113 -95.5 171t-275.5 99q-92 20 -163 45t-120 58.5t-74.5 82t-25.5 115.5q0 113 45 202t123 150.5t185.5 94 t232.5 32.5q135 0 232 -42t163 -128l-72 -82q-98 158 -344 158q-121 0 -206 -27.5t-140 -74.5t-80.5 -111.5t-25.5 -140.5q0 -53 21.5 -90t64.5 -63.5t107.5 -47t150.5 -41.5q92 -23 168.5 -48.5t130 -63t83 -90t29.5 -128.5q0 -111 -44 -196.5t-123 -143t-186 -87 t-232 -29.5z" />
<glyph unicode="&#x15d;" horiz-adv-x="944" d="M420 1329l223 166h76l153 -166l-67 -35l-139 129l-193 -129zM342 -20q-117 0 -216 40.5t-161 122.5l64 70q68 -78 146.5 -115t182.5 -37q74 0 136.5 18.5t108.5 51.5t71.5 80t25.5 106q0 78 -71.5 115t-204.5 72q-72 18 -125 36.5t-89 42t-54.5 56.5t-18.5 80 q0 88 37 156.5t98.5 114.5t142.5 69.5t169 23.5q119 0 201.5 -42t117.5 -107l-67 -55q-35 61 -110 91.5t-167 30.5q-63 0 -120.5 -15t-101.5 -47t-70.5 -80t-26.5 -114q0 -35 14 -58t42 -40.5t71 -31t100 -27.5q80 -20 142.5 -41t106.5 -48.5t66.5 -65.5t22.5 -91 q0 -80 -35 -146.5t-96.5 -114.5t-146.5 -74.5t-185 -26.5z" />
<glyph unicode="&#x15e;" horiz-adv-x="1196" d="M303 -256q27 -14 70 -26.5t92 -12.5q133 0 133 92q0 33 -23.5 45.5t-60.5 12.5q-41 0 -88 -10.5t-74 -18.5l119 162q-307 6 -481 217l73 84q66 -96 179.5 -152.5t273.5 -56.5q207 0 328 86t121 248q0 113 -95.5 171t-275.5 99q-92 20 -163 45t-120 58.5t-74.5 82 t-25.5 115.5q0 113 45 202t123 150.5t185.5 94t232.5 32.5q135 0 232 -42t163 -128l-72 -82q-98 158 -344 158q-121 0 -206 -27.5t-140 -74.5t-80.5 -111.5t-25.5 -140.5q0 -53 21.5 -90t64.5 -63.5t107.5 -47t150.5 -41.5q92 -23 168.5 -48.5t130 -63t83 -90t29.5 -128.5 q0 -106 -40 -189t-112.5 -140.5t-172 -89t-215.5 -35.5l-76 -99q18 8 39.5 10.5t38.5 2.5q119 0 118 -94q0 -78 -55 -119t-160 -41q-53 0 -99 11t-81 28z" />
<glyph unicode="&#x15f;" horiz-adv-x="944" d="M141 -256q27 -14 70 -26.5t92 -12.5q133 0 133 92q0 33 -23.5 45.5t-60.5 12.5q-41 0 -88 -10.5t-74 -18.5l115 156q-106 6 -194 46t-146 115l64 70q68 -78 146.5 -115t182.5 -37q74 0 136.5 18.5t108.5 51.5t71.5 80t25.5 106q0 78 -71.5 115t-204.5 72 q-72 18 -125 36.5t-89 42t-54.5 56.5t-18.5 80q0 88 37 156.5t98.5 114.5t142.5 69.5t169 23.5q119 0 201.5 -42t117.5 -107l-67 -55q-35 61 -110 91.5t-167 30.5q-63 0 -120.5 -15t-101.5 -47t-70.5 -80t-26.5 -114q0 -35 14 -58t42 -40.5t71 -31t100 -27.5 q80 -20 142.5 -41t106.5 -48.5t66.5 -65.5t22.5 -91q0 -78 -32 -142.5t-90 -112.5t-138 -75.5t-174 -31.5l-70 -89q18 8 39.5 10.5t38.5 2.5q119 0 119 -94q0 -78 -55.5 -119t-159.5 -41q-53 0 -99.5 11t-81.5 28z" />
<glyph unicode="&#x160;" horiz-adv-x="1193" d="M649 1882l68 35l139 -129l193 129l53 -35l-223 -166h-76zM492 -12q-324 0 -504 217l73 84q66 -96 179.5 -152.5t273.5 -56.5q207 0 328 86t121 248q0 113 -95.5 171t-275.5 99q-92 20 -163 45t-120 58.5t-74.5 82t-25.5 115.5q0 113 45 202t123 150.5t185.5 94 t232.5 32.5q135 0 232 -42t163 -128l-72 -82q-98 158 -344 158q-121 0 -206 -27.5t-140 -74.5t-80.5 -111.5t-25.5 -140.5q0 -53 21.5 -90t64.5 -63.5t107.5 -47t150.5 -41.5q92 -23 168.5 -48.5t130 -63t83 -90t29.5 -128.5q0 -111 -44 -196.5t-123 -143t-186 -87 t-232 -29.5z" />
<glyph unicode="&#x161;" horiz-adv-x="944" d="M422 1460l67 35l140 -129l192 129l53 -35l-223 -166h-76zM342 -20q-117 0 -216 40.5t-161 122.5l64 70q68 -78 146.5 -115t182.5 -37q74 0 136.5 18.5t108.5 51.5t71.5 80t25.5 106q0 78 -71.5 115t-204.5 72q-72 18 -125 36.5t-89 42t-54.5 56.5t-18.5 80q0 88 37 156.5 t98.5 114.5t142.5 69.5t169 23.5q119 0 201.5 -42t117.5 -107l-67 -55q-35 61 -110 91.5t-167 30.5q-63 0 -120.5 -15t-101.5 -47t-70.5 -80t-26.5 -114q0 -35 14 -58t42 -40.5t71 -31t100 -27.5q80 -20 142.5 -41t106.5 -48.5t66.5 -65.5t22.5 -91q0 -80 -35 -146.5 t-96.5 -114.5t-146.5 -74.5t-185 -26.5z" />
<glyph unicode="&#x162;" horiz-adv-x="1183" d="M692 1360h-504l19 94h1114l-21 -94h-503l-291 -1360h-17l-83 -109q18 8 39.5 10.5t37.5 2.5q119 0 119 -94q0 -78 -55 -119t-160 -41q-53 0 -99 11t-81 28l39 55q27 -14 69.5 -26.5t92.5 -12.5q133 0 133 92q0 33 -23.5 45.5t-60.5 12.5q-41 0 -88 -10.5t-74 -18.5 l129 174h-21z" />
<glyph unicode="&#x163;" horiz-adv-x="626" d="M61 -256q27 -14 70 -26.5t92 -12.5q133 0 133 92q0 33 -23.5 45.5t-60.5 12.5q-41 0 -88 -10.5t-73 -18.5l120 164q-59 8 -96 44t-37 99v21.5t4 23.5l172 803h-143l19 84h143l76 365h102l-76 -365h236l-19 -84h-235l-154 -721q-14 -66 -14 -82q0 -47 29.5 -70.5 t72.5 -23.5q31 0 58.5 6t50 15.5t38 16.5t21.5 11l13 -82q-16 -10 -69.5 -32.5t-125.5 -28.5l-76 -99q18 8 40 10.5t38 2.5q119 0 119 -94q0 -78 -55.5 -119t-159.5 -41q-53 0 -99.5 11t-80.5 28z" />
<glyph unicode="&#x164;" horiz-adv-x="1185" d="M608 1843l68 35l139 -129l193 129l53 -35l-223 -166h-76zM694 1360h-504l19 94h1114l-20 -94h-504l-291 -1360h-102z" />
<glyph unicode="&#x165;" horiz-adv-x="626" d="M575 1321l156 174h117l-209 -207zM264 -12q-72 0 -119 36.5t-47 108.5q0 10 1 21.5t3 23.5l172 803h-143l19 84h143l76 365h102l-76 -365h236l-19 -84h-235l-154 -721q-14 -66 -14 -82q0 -47 29.5 -70.5t72.5 -23.5q31 0 58.5 6t50 15.5t38 16.5t21.5 11l13 -82 q-8 -6 -30 -16t-52.5 -21.5t-67.5 -18.5t-78 -7z" />
<glyph unicode="&#x166;" horiz-adv-x="1261" d="M180 844h443l110 516h-504l19 94h1114l-21 -94h-503l-111 -516h442l-14 -66h-442l-164 -778h-105l164 778h-440z" />
<glyph unicode="&#x167;" horiz-adv-x="628" d="M80 727h139l55 254h-141l19 84h141l78 365h102l-78 -365h236l-17 -84h-237l-55 -254h237l-14 -74h-240l-82 -389q-12 -61 -12 -84q0 -49 28.5 -72.5t73.5 -23.5q29 0 56.5 6t51 15.5t39 16.5t21.5 11l13 -82q-10 -6 -32 -17t-51.5 -21.5t-67.5 -17.5t-77 -7 q-72 0 -119 36.5t-47 108.5q0 10 1 21.5t3 23.5l101 475h-142z" />
<glyph unicode="&#x168;" d="M610 -10q-127 0 -213 38t-138 102.5t-75.5 151.5t-23.5 187q0 121 28 254l156 731h105l-156 -731q-12 -61 -20.5 -120.5t-8.5 -117.5q0 -84 18.5 -156.5t61.5 -127t112.5 -85t172.5 -30.5q139 0 242.5 55.5t176 145.5t118.5 204.5t71 231.5l154 731h104l-154 -731 q-31 -147 -89 -279.5t-148 -233.5t-212 -160.5t-282 -59.5zM1081 1708q-43 0 -73.5 12.5t-55 27.5t-47 28.5t-53.5 13.5q-33 0 -55.5 -14.5t-35.5 -32t-20.5 -32.5t-7.5 -19h-69q2 8 14 35.5t36.5 57.5t61.5 53.5t90 23.5q39 0 67 -13.5t52.5 -29t49 -27.5t61.5 -12 q39 0 63.5 14t39.5 31.5t22.5 33t7.5 19.5h67q-2 -10 -14 -38t-37.5 -56.5t-66 -52t-97.5 -23.5z" />
<glyph unicode="&#x169;" horiz-adv-x="1150" d="M332 -20q-248 0 -248 278q0 41 5 89t17 104l134 614h100l-127 -600q-23 -102 -23 -174q0 -219 191 -219q63 0 128.5 23.5t126 65.5t114 101.5t90.5 130.5l141 672h102l-188 -891q-4 -16 -7 -30.5t-3 -18.5q0 -33 35 -33l-21 -92q-14 -2 -24.5 -2h-20.5q-33 0 -50.5 21.5 t-17.5 50.5q0 6 1 14t4.5 26.5t10.5 52.5t19 89q-94 -129 -224 -200.5t-265 -71.5zM815 1325q-43 0 -73.5 12.5t-55 27.5t-47.5 28.5t-53 13.5q-33 0 -55.5 -14.5t-36 -32t-20.5 -32.5t-7 -19h-70q2 8 14.5 35.5t37 57.5t61.5 53.5t90 23.5q39 0 66.5 -13.5t52 -29 t49.5 -27.5t61 -12q39 0 64 14t40 31.5t22.5 33t7.5 19.5h67q-2 -10 -14 -37.5t-38 -56.5t-66 -52.5t-97 -23.5z" />
<glyph unicode="&#x16a;" d="M610 -10q-127 0 -213 38t-138 102.5t-75.5 151.5t-23.5 187q0 121 28 254l156 731h105l-156 -731q-12 -61 -20.5 -120.5t-8.5 -117.5q0 -84 18.5 -156.5t61.5 -127t112.5 -85t172.5 -30.5q139 0 242.5 55.5t176 145.5t118.5 204.5t71 231.5l154 731h104l-154 -731 q-31 -147 -89 -279.5t-148 -233.5t-212 -160.5t-282 -59.5zM696 1757l17 76h557l-17 -76h-557z" />
<glyph unicode="&#x16b;" horiz-adv-x="1150" d="M332 -20q-248 0 -248 278q0 41 5 89t17 104l134 614h100l-127 -600q-23 -102 -23 -174q0 -219 191 -219q63 0 128.5 23.5t126 65.5t114 101.5t90.5 130.5l141 672h102l-188 -891q-4 -16 -7 -30.5t-3 -18.5q0 -33 35 -33l-21 -92q-14 -2 -24.5 -2h-20.5q-33 0 -50.5 21.5 t-17.5 50.5q0 6 1 14t4.5 26.5t10.5 52.5t19 89q-94 -129 -224 -200.5t-265 -71.5zM424 1374l16 76h557l-16 -76h-557z" />
<glyph unicode="&#x16c;" d="M610 -10q-127 0 -213 38t-138 102.5t-75.5 151.5t-23.5 187q0 121 28 254l156 731h105l-156 -731q-12 -61 -20.5 -120.5t-8.5 -117.5q0 -84 18.5 -156.5t61.5 -127t112.5 -85t172.5 -30.5q139 0 242.5 55.5t176 145.5t118.5 204.5t71 231.5l154 731h104l-154 -731 q-31 -147 -89 -279.5t-148 -233.5t-212 -160.5t-282 -59.5zM963 1747q41 0 81.5 38t57.5 93h65q-8 -39 -29.5 -74t-51 -60.5t-64.5 -39.5t-70 -14q-66 0 -104.5 42t-38.5 105q0 18 6 41h68q-2 -10 -2 -29q0 -41 23.5 -71.5t58.5 -30.5z" />
<glyph unicode="&#x16d;" horiz-adv-x="1150" d="M332 -20q-248 0 -248 278q0 41 5 89t17 104l134 614h100l-127 -600q-23 -102 -23 -174q0 -219 191 -219q63 0 128.5 23.5t126 65.5t114 101.5t90.5 130.5l141 672h102l-188 -891q-4 -16 -7 -30.5t-3 -18.5q0 -33 35 -33l-21 -92q-14 -2 -24.5 -2h-20.5q-33 0 -50.5 21.5 t-17.5 50.5q0 6 1 14t4.5 26.5t10.5 52.5t19 89q-94 -129 -224 -200.5t-265 -71.5zM692 1364q41 0 82 38t57 93h66q-8 -39 -29.5 -74t-51.5 -60.5t-64.5 -39.5t-69.5 -14q-66 0 -104.5 42t-38.5 105q0 18 6 41h67q-2 -10 -2 -29q0 -41 23.5 -71.5t58.5 -30.5z" />
<glyph unicode="&#x16e;" d="M842 1726q0 66 49 109t115 43q49 0 77.5 -28.5t28.5 -73.5q0 -66 -48 -110t-114 -44q-51 0 -79.5 28.5t-28.5 75.5zM993 1831q-37 0 -66.5 -26.5t-29.5 -69.5q0 -29 17.5 -47.5t46.5 -18.5q33 0 65.5 27.5t32.5 68.5q0 31 -18.5 48.5t-47.5 17.5zM610 -10q-127 0 -213 38 t-138 102.5t-75.5 151.5t-23.5 187q0 121 28 254l156 731h105l-156 -731q-12 -61 -20.5 -120.5t-8.5 -117.5q0 -84 18.5 -156.5t61.5 -127t112.5 -85t172.5 -30.5q139 0 242.5 55.5t176 145.5t118.5 204.5t71 231.5l154 731h104l-154 -731q-31 -147 -89 -279.5t-148 -233.5 t-212 -160.5t-282 -59.5z" />
<glyph unicode="&#x16f;" horiz-adv-x="1150" d="M569 1343q0 66 49.5 109t114.5 43q49 0 78 -28.5t29 -73.5q0 -66 -48.5 -110t-113.5 -44q-51 0 -80 28.5t-29 75.5zM721 1448q-37 0 -66.5 -26.5t-29.5 -69.5q0 -29 17 -47.5t46 -18.5q33 0 65.5 27.5t32.5 68.5q0 31 -18 48.5t-47 17.5zM332 -20q-248 0 -248 278 q0 41 5 89t17 104l134 614h100l-127 -600q-23 -102 -23 -174q0 -219 191 -219q63 0 128.5 23.5t126 65.5t114 101.5t90.5 130.5l141 672h102l-188 -891q-4 -16 -7 -30.5t-3 -18.5q0 -33 35 -33l-21 -92q-14 -2 -24.5 -2h-20.5q-33 0 -50.5 21.5t-17.5 50.5q0 6 1 14 t4.5 26.5t10.5 52.5t19 89q-94 -129 -224 -200.5t-265 -71.5z" />
<glyph unicode="&#x170;" d="M610 -10q-127 0 -213 38t-138 102.5t-75.5 151.5t-23.5 187q0 121 28 254l156 731h105l-156 -731q-12 -61 -20.5 -120.5t-8.5 -117.5q0 -84 18.5 -156.5t61.5 -127t112.5 -85t172.5 -30.5q139 0 242.5 55.5t176 145.5t118.5 204.5t71 231.5l154 731h104l-154 -731 q-31 -147 -89 -279.5t-148 -233.5t-212 -160.5t-282 -59.5zM807 1673l-53 33l153 174h105zM1036 1673l-53 33l152 174h106z" />
<glyph unicode="&#x171;" horiz-adv-x="1150" d="M332 -20q-248 0 -248 278q0 41 5 89t17 104l134 614h100l-127 -600q-23 -102 -23 -174q0 -219 191 -219q63 0 128.5 23.5t126 65.5t114 101.5t90.5 130.5l141 672h102l-188 -891q-4 -16 -7 -30.5t-3 -18.5q0 -33 35 -33l-21 -92q-14 -2 -24.5 -2h-20.5q-33 0 -50.5 21.5 t-17.5 50.5q0 6 1 14t4.5 26.5t10.5 52.5t19 89q-94 -129 -224 -200.5t-265 -71.5zM528 1288l-53 33l154 174h104zM758 1288l-53 33l151 174h107z" />
<glyph unicode="&#x172;" d="M479 -350q-53 12 -78.5 43t-25.5 71q0 57 42 109.5t140 118.5q-111 8 -186.5 48t-122.5 103.5t-67.5 147.5t-20.5 178q0 121 28 254l156 731h105l-156 -731q-12 -61 -20.5 -120.5t-8.5 -117.5q0 -84 18.5 -156.5t61.5 -127t112.5 -85t172.5 -30.5q139 0 242.5 55.5 t176 145.5t118.5 204.5t71 231.5l154 731h104l-154 -731q-31 -143 -87 -273.5t-142 -230.5t-203.5 -160.5t-269.5 -66.5q-109 -68 -151 -113t-42 -92q0 -63 80 -76l-47 -61v0z" />
<glyph unicode="&#x173;" horiz-adv-x="1150" d="M332 -20q-248 0 -248 278q0 41 5 89t17 104l134 614h100l-127 -600q-23 -102 -23 -174q0 -219 191 -219q63 0 128.5 23.5t126 65.5t114 101.5t90.5 130.5l141 672h102l-188 -891q-4 -16 -7 -30.5t-3 -18.5q0 -33 35 -33l-21 -92q-115 -70 -159 -116t-44 -93q0 -63 80 -76 l-47 -61q-53 12 -78.5 43t-25.5 72q0 59 45 113.5t153 121.5q-37 18 -37 66q0 6 1 14t4.5 26.5t10.5 52.5t19 89q-94 -129 -224 -200.5t-265 -71.5z" />
<glyph unicode="&#x174;" horiz-adv-x="2033" d="M1014 1712l223 166h76l153 -166l-67 -35l-139 129l-193 -129zM199 1454h114l242 -1331l436 708l-114 613h102l92 -529l318 529h102l-373 -613l135 -708l807 1331h115l-899 -1454h-94l-144 748l-465 -748h-94z" />
<glyph unicode="&#x175;" horiz-adv-x="1521" d="M672 1329l223 166h76l153 -166l-67 -35l-139 129l-193 -129zM115 1065h106l174 -963q96 109 176 228t146 239l-107 496h107l71 -360q47 94 82 184t62 176h98q-74 -244 -211 -498l94 -465q193 229 324 481.5t199 481.5h100q-82 -268 -227.5 -536.5t-368.5 -528.5h-106 l-89 444q-66 -113 -145.5 -224t-175.5 -220h-107z" />
<glyph unicode="&#x176;" horiz-adv-x="1232" d="M541 553l-351 901h117l307 -805l652 805h114l-735 -905l-119 -549h-102zM606 1712l223 166h76l154 -166l-68 -35l-139 129l-193 -129z" />
<glyph unicode="&#x177;" horiz-adv-x="978" d="M-74 -375q63 10 107.5 27.5t81.5 46.5t70.5 73t74.5 107l74 111l-228 1075h107l193 -965l98 156q92 147 154.5 257t107.5 202t75.5 175t55.5 175h102q-29 -98 -59.5 -183t-76.5 -180.5t-114.5 -212t-170.5 -278.5l-168 -264q-72 -115 -128.5 -189.5t-109.5 -121 t-108.5 -68t-124.5 -27.5zM387 1329l223 166h76l154 -166l-68 -35l-139 129l-193 -129z" />
<glyph unicode="&#x178;" horiz-adv-x="1232" d="M541 553l-351 901h117l307 -805l652 805h114l-735 -905l-119 -549h-102zM651 1696l37 180h90l-39 -180h-88zM920 1696l38 180h89l-37 -180h-90z" />
<glyph unicode="&#x179;" horiz-adv-x="1214" d="M786 1671l-63 33l156 174h116zM-57 86l1245 1274h-963l21 94h1087l-20 -86l-1239 -1274h964l-18 -94h-1096z" />
<glyph unicode="&#x17a;" horiz-adv-x="948" d="M567 1288l-63 33l155 174h117zM-57 74l901 911h-694l18 80h811l-16 -74l-897 -911h702l-18 -80h-824z" />
<glyph unicode="&#x17b;" horiz-adv-x="1214" d="M-57 86l1245 1274h-963l21 94h1087l-20 -86l-1239 -1274h964l-18 -94h-1096zM780 1694l39 184h94l-39 -184h-94z" />
<glyph unicode="&#x17c;" horiz-adv-x="948" d="M-57 74l901 911h-694l18 80h811l-16 -74l-897 -911h702l-18 -80h-824zM563 1311l39 184h94l-39 -184h-94z" />
<glyph unicode="&#x17d;" horiz-adv-x="1214" d="M627 1843l67 35l140 -129l192 129l53 -35l-223 -166h-76zM-57 86l1245 1274h-963l21 94h1087l-20 -86l-1239 -1274h964l-18 -94h-1096z" />
<glyph unicode="&#x17e;" horiz-adv-x="948" d="M408 1460l67 35l139 -129l193 129l53 -35l-223 -166h-76zM-57 74l901 911h-694l18 80h811l-16 -74l-897 -911h702l-18 -80h-824z" />
<glyph unicode="&#x18f;" horiz-adv-x="1447" d="M575 -16q-117 0 -211 43t-161.5 119.5t-104.5 181t-37 227.5q0 66 10.5 120t22.5 93h1176q6 55 6 106q0 106 -29.5 197.5t-85 156t-132.5 101.5t-171 37q-72 0 -145.5 -21.5t-141 -61.5t-125 -94t-94.5 -122l-90 47q47 76 118 140.5t153.5 110.5t173 72.5t178.5 26.5 q115 0 209 -46t160.5 -128t102.5 -191.5t36 -234.5q0 -178 -70 -338.5t-184.5 -280.5t-261 -190.5t-302.5 -70.5zM594 82q111 0 217.5 45t193.5 125t151.5 187.5t92.5 234.5h-1069q-6 -33 -10 -66t-4 -65q0 -90 26.5 -173t80 -147.5t133 -102.5t188.5 -38z" />
<glyph unicode="&#x192;" horiz-adv-x="1019" d="M68 -362q-61 0 -111.5 17t-85.5 58l70 68q25 -29 61.5 -39t75.5 -10q37 0 74.5 15t70.5 43t57.5 66t34.5 83l195 917h-141l16 84h145l33 160q41 197 140.5 306.5t234.5 109.5q59 0 109.5 -18.5t80.5 -49.5l-53 -74q-20 23 -58 37t-79 14q-100 0 -169 -82.5t-103 -240.5 l-33 -162h285l-19 -84h-287l-194 -915q-14 -68 -51 -123.5t-86.5 -95t-104.5 -62t-108 -22.5z" />
<glyph unicode="&#x1c4;" horiz-adv-x="2621" d="M2034 1843l67 35l140 -129l192 129l53 -35l-223 -166h-76zM1352 86l1245 1274h-963l21 94h1087l-20 -86l-1239 -1274h964l-18 -94h-1096zM365 1454h460q135 0 234.5 -43t164 -117.5t96.5 -176t32 -218.5q0 -195 -62.5 -358.5t-174 -284.5t-265.5 -188.5t-334 -67.5h-461z M537 94q164 0 295 64.5t222 173t140 251t49 298.5q0 104 -27.5 192t-83 151.5t-137.5 99.5t-190 36h-356l-269 -1266h357z" />
<glyph unicode="&#x1c5;" horiz-adv-x="2355" d="M1817 1460l67 35l139 -129l193 129l53 -35l-223 -166h-76zM1352 74l901 911h-694l18 80h811l-16 -74l-897 -911h702l-18 -80h-824zM365 1454h460q135 0 234.5 -43t164 -117.5t96.5 -176t32 -218.5q0 -195 -62.5 -358.5t-174 -284.5t-265.5 -188.5t-334 -67.5h-461z M537 94q164 0 295 64.5t222 173t140 251t49 298.5q0 104 -27.5 192t-83 151.5t-137.5 99.5t-190 36h-356l-269 -1266h357z" />
<glyph unicode="&#x1c6;" horiz-adv-x="2158" d="M1618 1460l68 35l139 -129l192 129l54 -35l-224 -166h-75zM1153 74l901 911h-694l18 80h811l-16 -74l-897 -911h702l-18 -80h-823zM438 -20q-90 0 -161.5 36.5t-121 98t-75 142.5t-25.5 171q0 125 49.5 242.5t132 210t190.5 147.5t224 55q66 0 120 -20.5t97 -54t74 -78.5 t49 -96l139 661h105l-287 -1348q-4 -20 -4 -24q0 -31 35 -31l-21 -92q-14 -2 -24 -2h-21q-70 10 -69 74q0 6 1 13t3 22.5t7 40t13 65.5q-84 -106 -200.5 -169.5t-229.5 -63.5zM477 72q51 0 115.5 22.5t124 62.5t107.5 91t67 110l74 351q-8 57 -37 109t-71 90t-94 60.5 t-108 22.5q-100 0 -190 -49t-157.5 -128t-106.5 -176t-39 -194q0 -76 22.5 -143.5t63.5 -118.5t99 -80.5t130 -29.5z" />
<glyph unicode="&#x1c7;" horiz-adv-x="2086" d="M1346 -23q-174 0 -281 91l51 84q39 -35 102.5 -56.5t147.5 -21.5q111 0 186.5 43t128 125t87 201.5t67.5 271.5l158 737h104l-158 -737q-35 -166 -77.5 -302.5t-108 -232.5t-164 -149.5t-243.5 -53.5zM365 1454h104l-289 -1360h821l-20 -94h-926z" />
<glyph unicode="&#x1c8;" horiz-adv-x="1564" d="M913 -362q-61 0 -111 17t-85 58l69 68q25 -29 62 -39t76 -10q37 0 74.5 15t70.5 43t57.5 66t34.5 83l240 1126h102l-237 -1122q-14 -68 -51 -123.5t-86.5 -96t-106 -63t-109.5 -22.5zM1493 1495h102l-41 -188h-102zM365 1454h104l-289 -1360h821l-20 -94h-926z" />
<glyph unicode="&#x1c9;" horiz-adv-x="935" d="M287 -362q-61 0 -111.5 17t-85.5 58l70 68q25 -29 61.5 -39t75.5 -10q37 0 75 15t70.5 43t57 66t35.5 83l239 1126h103l-238 -1122q-14 -68 -51 -123.5t-86 -96t-105.5 -63t-109.5 -22.5zM866 1495h103l-41 -188h-103zM211 -12q-70 0 -109 37.5t-39 103.5q0 23 7 51 l278 1315h103l-273 -1284q-2 -10 -3 -18.5t-1 -18.5q0 -43 25.5 -67.5t74.5 -24.5q23 0 53.5 5t57.5 15v-82q-35 -14 -87 -23t-87 -9z" />
<glyph unicode="&#x1ca;" horiz-adv-x="2467" d="M1726 -23q-174 0 -280 91l51 84q39 -35 102.5 -56.5t147.5 -21.5q111 0 186.5 43t128 125t87 201.5t67.5 271.5l158 737h104l-158 -737q-35 -166 -77.5 -302.5t-108.5 -232.5t-164.5 -149.5t-243.5 -53.5zM365 1454h81l689 -1280l270 1278h104l-309 -1452h-92l-680 1257 l-268 -1257h-105z" />
<glyph unicode="&#x1cb;" horiz-adv-x="1945" d="M1294 -362q-61 0 -111 17t-85 58l69 68q25 -29 62 -39t76 -10q37 0 74.5 15t70.5 43t57.5 66t34.5 83l240 1126h102l-237 -1122q-14 -68 -51 -123.5t-86.5 -96t-106 -63t-109.5 -22.5zM1874 1495h102l-41 -188h-102zM365 1454h81l689 -1280l270 1278h104l-309 -1452h-92 l-680 1257l-268 -1257h-105z" />
<glyph unicode="&#x1cc;" horiz-adv-x="1556" d="M907 -362q-61 0 -111.5 17t-84.5 58l69 68q25 -29 62 -39t76 -10q37 0 74.5 15t70.5 43t57.5 66t34.5 83l240 1126h102l-237 -1122q-14 -68 -51.5 -123.5t-86.5 -96t-105.5 -63t-109.5 -22.5zM1487 1495h102l-41 -188h-102zM250 1065h96l-55 -254q43 61 100.5 111.5 t122 86t133 55t135.5 19.5q123 0 176.5 -65.5t53.5 -190.5q0 -47 -7.5 -100t-19.5 -115l-129 -612h-102l125 594q12 57 17 104t5 86q0 205 -170 205q-63 0 -131 -24.5t-130 -69.5t-115.5 -105.5t-88.5 -130.5l-139 -659h-102z" />
<glyph unicode="&#x1ea;" horiz-adv-x="1480" d="M479 -350q-53 12 -78.5 43t-25.5 71q0 57 42 109.5t142 118.5q-111 10 -197 63.5t-144 134t-89 184t-31 214.5q0 168 70 325.5t184.5 280.5t264 196.5t307.5 73.5q123 0 217 -51t158.5 -135t97.5 -192.5t33 -223.5q0 -164 -66 -316.5t-175.5 -273t-251.5 -196.5t-296 -84 q-111 -68 -153 -113t-42 -92q0 -63 80 -76zM629 86q141 0 268 68.5t221 178t149.5 247t55.5 272.5q0 104 -28.5 197.5t-83 164t-133.5 112.5t-177 42q-141 0 -268 -68.5t-222.5 -178t-150.5 -247t-55 -274.5q0 -104 28.5 -197.5t83 -164t133.5 -111.5t179 -41z" />
<glyph unicode="&#x1eb;" horiz-adv-x="1165" d="M346 -360q-53 12 -78.5 42.5t-25.5 71.5q0 57 41 108.5t139 117.5q-86 4 -154.5 40.5t-116 97t-73 139.5t-25.5 167q0 129 52.5 249t140.5 211t201.5 145t234.5 54q90 0 163 -35.5t123 -96t77.5 -142.5t27.5 -174q0 -119 -46 -230.5t-123 -199.5t-178 -147.5t-214 -73.5 q-57 -35 -95 -61.5t-61.5 -51.5t-33 -47.5t-9.5 -46.5q0 -63 80 -76zM465 72q92 0 183 45t162 120.5t115 175t44 208.5q0 78 -22.5 145.5t-62.5 117.5t-97.5 78.5t-124.5 28.5q-92 0 -181.5 -45t-161 -121.5t-115.5 -177t-44 -211.5q0 -78 22.5 -144.5t62.5 -115.5t96 -76.5 t124 -27.5z" />
<glyph unicode="&#x1f1;" horiz-adv-x="2598" d="M1327 86l1245 1274h-962l20 94h1088l-21 -86l-1239 -1274h965l-19 -94h-1095zM365 1454h460q135 0 234.5 -43t164 -117.5t96.5 -176t32 -218.5q0 -195 -62.5 -358.5t-174 -284.5t-265.5 -188.5t-334 -67.5h-461zM537 94q164 0 295 64.5t222 173t140 251t49 298.5 q0 104 -27.5 192t-83 151.5t-137.5 99.5t-190 36h-356l-269 -1266h357z" />
<glyph unicode="&#x1f2;" horiz-adv-x="2355" d="M1352 74l901 911h-694l18 80h811l-16 -74l-897 -911h702l-18 -80h-824zM365 1454h460q135 0 234.5 -43t164 -117.5t96.5 -176t32 -218.5q0 -195 -62.5 -358.5t-174 -284.5t-265.5 -188.5t-334 -67.5h-461zM537 94q164 0 295 64.5t222 173t140 251t49 298.5 q0 104 -27.5 192t-83 151.5t-137.5 99.5t-190 36h-356l-269 -1266h357z" />
<glyph unicode="&#x1f3;" horiz-adv-x="2158" d="M1153 74l901 911h-694l18 80h811l-16 -74l-897 -911h702l-18 -80h-823zM438 -20q-90 0 -161.5 36.5t-121 98t-75 142.5t-25.5 171q0 125 49.5 242.5t132 210t190.5 147.5t224 55q66 0 120 -20.5t97 -54t74 -78.5t49 -96l139 661h105l-287 -1348q-4 -20 -4 -24 q0 -31 35 -31l-21 -92q-14 -2 -24 -2h-21q-70 10 -69 74q0 6 1 13t3 22.5t7 40t13 65.5q-84 -106 -200.5 -169.5t-229.5 -63.5zM477 72q51 0 115.5 22.5t124 62.5t107.5 91t67 110l74 351q-8 57 -37 109t-71 90t-94 60.5t-108 22.5q-100 0 -190 -49t-157.5 -128t-106.5 -176 t-39 -194q0 -76 22.5 -143.5t63.5 -118.5t99 -80.5t130 -29.5z" />
<glyph unicode="&#x1f4;" horiz-adv-x="1406" d="M932 1671l-64 33l156 174h117zM1118 225q-248 -236 -508 -235q-121 0 -215 51t-159.5 136t-100.5 194.5t-35 226.5q0 162 66.5 317.5t179.5 277.5t259.5 196.5t303.5 74.5q104 0 182 -23.5t133.5 -65.5t91.5 -100t54 -128l-94 -51q-41 143 -141.5 207.5t-247.5 64.5 q-141 0 -265 -68.5t-216.5 -178t-146.5 -246t-54 -271.5q0 -104 30.5 -198.5t87 -165t135.5 -112.5t177 -42q125 0 250 60.5t258 193.5l61 283h-311l18 84h402l-150 -707h-92z" />
<glyph unicode="&#x1f5;" horiz-adv-x="1200" d="M659 1288l-63 33l156 174h116zM338 -457q-176 0 -267 66.5t-130 179.5l77 47q37 -109 129.5 -159t208.5 -50q76 0 150 22.5t134 66.5t104 109.5t63 154.5l49 233q-41 -51 -92 -93t-106.5 -73t-115 -47t-114.5 -16q-88 0 -157.5 36.5t-118 98t-74 141.5t-25.5 168 q0 123 49.5 240.5t132 210t191.5 148.5t229 56q131 0 214 -72.5t130 -176.5l50 231h92l-232 -1085q-23 -109 -79 -191t-134 -136t-170 -82t-188 -28zM473 72q63 0 130 25.5t124 66.5t100 92t62 102l74 351q-10 61 -38 113t-69 89t-94 58.5t-111 21.5q-104 0 -193 -51 t-155.5 -130t-104.5 -176t-38 -190q0 -76 22.5 -143.5t63.5 -118.5t98 -80.5t129 -29.5z" />
<glyph unicode="&#x1fa;" horiz-adv-x="1331" d="M733 1511q0 66 49 109t115 43q49 0 78 -28.5t29 -73.5q0 -49 -28 -88t-73 -56l266 -1417h-110l-90 479h-654l-290 -479h-113l872 1419q-51 24 -51 92zM961 565l-136 762l-467 -762h603zM885 1616q-37 0 -67 -26.5t-30 -69.5q0 -29 17.5 -47.5t46.5 -18.5q33 0 65.5 27.5 t32.5 68.5q0 31 -18 48.5t-47 17.5zM899 1677l-63 33l155 170h117z" />
<glyph unicode="&#x1fb;" horiz-adv-x="1210" d="M434 -20q-88 0 -158.5 36.5t-120 98t-75 142.5t-25.5 171q0 125 49.5 242.5t132 210t189 147.5t223.5 55q68 0 122 -20.5t97 -54t74 -78.5t49 -96l49 231h105l-197 -918q-4 -16 -4 -24q0 -31 35 -31l-21 -92q-10 -2 -17 -3t-13 -1q-41 0 -62.5 20.5t-21.5 53.5q0 6 1 15 t4 24.5t7 40t12 63.5q-84 -106 -200.5 -169.5t-233.5 -63.5zM471 72q55 0 120.5 23.5t126 62.5t107.5 91t66 109l74 351q-8 57 -36 108t-70 90t-95 61.5t-115 22.5q-98 0 -186 -49t-154.5 -128t-106.5 -177t-40 -197q0 -74 22.5 -141.5t63.5 -117.5t98 -79.5t125 -29.5z M758 1583l-64 33l156 174h117zM600 1343q0 66 49 109t115 43q49 0 77.5 -28.5t28.5 -73.5q0 -66 -48 -110t-113 -44q-51 0 -80 28.5t-29 75.5zM752 1448q-37 0 -67 -26.5t-30 -69.5q0 -29 17.5 -47.5t46.5 -18.5q33 0 65.5 27.5t32.5 68.5q0 31 -18 48.5t-47 17.5z" />
<glyph unicode="&#x1fc;" horiz-adv-x="1888" d="M1143 1671l-64 33l156 174h117zM1036 1454h926l-23 -94h-792l-119 -569h686l-20 -97h-688l-127 -600h809l-19 -94h-913l102 479h-518l-391 -479h-117zM872 573l158 750l-620 -750h462z" />
<glyph unicode="&#x1fd;" horiz-adv-x="1812" d="M1001 1288l-63 33l156 174h116zM276 -20q-68 0 -121 21.5t-87.5 58t-53 86t-18.5 104.5q0 82 39 151.5t105.5 118.5t157.5 77t196 28q68 0 134 -11.5t122 -29.5q16 53 36.5 98t36.5 92q0 102 -61.5 164.5t-175.5 62.5q-78 0 -167 -32.5t-188 -94.5l-24 70 q115 70 214 104.5t191 34.5q121 0 199 -58t96 -169q86 102 202 164.5t243 62.5q90 0 163.5 -32.5t126 -90t81 -136.5t28.5 -169q0 -53 -9 -96t-20 -67h-893q-2 -18 -3 -37t-1 -37q0 -78 23.5 -143.5t65.5 -112.5t100.5 -74t130.5 -27q53 0 106.5 15.5t102.5 42t90 64.5 t69 83l86 -24q-35 -57 -87 -105.5t-114.5 -83.5t-133 -54t-140.5 -19q-133 0 -226 65.5t-138 173.5q-45 -66 -107.5 -111t-129 -73.5t-131.5 -41.5t-116 -13zM315 61q57 0 124 18.5t127.5 50.5t106.5 75t62 92q-12 45 -12 100q0 59 12 115q-55 20 -118.5 30.5t-122.5 10.5 q-86 0 -159 -20.5t-126 -57.5t-83 -89t-30 -116q0 -41 13.5 -78.5t40 -66.5t68.5 -46.5t97 -17.5zM1640 567q4 23 6.5 47.5t2.5 47.5q0 70 -20.5 131t-60.5 107t-99.5 72.5t-135.5 26.5q-82 0 -158.5 -32.5t-142 -90t-115 -136t-73.5 -173.5h796z" />
<glyph unicode="&#x1fe;" d="M1436 1454l-144 -170q68 -86 103 -195.5t35 -226.5q0 -166 -70 -323.5t-184.5 -279.5t-262 -195.5t-305.5 -73.5q-94 0 -171 28.5t-138 79.5l-82 -98h-117l138 164q-70 84 -105 193.5t-35 230.5q0 168 70 325.5t184.5 280.5t264 196.5t307.5 73.5q94 0 170.5 -30.5 t136.5 -83.5l88 104h117zM205 600q0 -207 104 -352l852 1018q-51 47 -116.5 74.5t-143.5 27.5q-141 0 -268 -68.5t-222.5 -178t-150.5 -247t-55 -274.5zM629 86q141 0 268 68.5t221 178t149.5 247t55.5 272.5q0 98 -26.5 187t-75.5 159l-852 -1016q51 -47 116.5 -71.5 t143.5 -24.5zM952 1671l-63 33l155 174h117z" />
<glyph unicode="&#x1ff;" horiz-adv-x="1165" d="M166 100q-55 59 -84 143.5t-29 180.5q0 129 53.5 249t140.5 211t200.5 145t234.5 54q139 0 236 -84l61 68h78l-99 -106q55 -61 85 -145.5t30 -180.5q0 -127 -52 -246t-138 -210t-199 -145t-235 -54q-141 0 -240 79l-57 -61h-78zM465 72q92 0 183 45t162 120.5t115 175 t44 208.5q0 76 -21.5 142t-60.5 116l-611 -738q39 -33 86.5 -51t102.5 -18zM160 436q0 -156 82 -256l606 740q-37 35 -84 53t-102 18q-92 0 -182.5 -45t-161 -121.5t-114.5 -177t-44 -211.5zM717 1288l-64 33l156 174h117z" />
<glyph unicode="&#x200;" horiz-adv-x="1329" d="M807 1454h90l272 -1454h-110l-90 479h-654l-290 -479h-113zM961 565l-136 762l-467 -762h603zM901 1880h103l79 -174l-65 -33zM672 1880h106l76 -174l-66 -33z" />
<glyph unicode="&#x201;" horiz-adv-x="1210" d="M434 -20q-88 0 -158.5 36.5t-120 98t-75 142.5t-25.5 171q0 125 49.5 242.5t132 210t189 147.5t223.5 55q68 0 122 -20.5t97 -54t74 -78.5t49 -96l49 231h105l-197 -918q-4 -16 -4 -24q0 -31 35 -31l-21 -92q-10 -2 -17 -3t-13 -1q-41 0 -62.5 20.5t-21.5 53.5q0 6 1 15 t4 24.5t7 40t12 63.5q-84 -106 -200.5 -169.5t-233.5 -63.5zM471 72q55 0 120.5 23.5t126 62.5t107.5 91t66 109l74 351q-8 57 -36 108t-70 90t-95 61.5t-115 22.5q-98 0 -186 -49t-154.5 -128t-106.5 -177t-40 -197q0 -74 22.5 -141.5t63.5 -117.5t98 -79.5t125 -29.5z M719 1495h102l80 -174l-65 -33zM489 1495h107l76 -174l-66 -33z" />
<glyph unicode="&#x202;" horiz-adv-x="1329" d="M807 1454h90l272 -1454h-110l-90 479h-654l-290 -479h-113zM961 565l-136 762l-467 -762h603zM729 1690q16 78 75.5 133t137.5 55q68 0 104.5 -45t36.5 -104v-19.5t-4 -19.5h-63q0 10 1 18t1 18q0 94 -82 95q-59 0 -94 -39t-47 -92h-66z" />
<glyph unicode="&#x203;" horiz-adv-x="1210" d="M434 -20q-88 0 -158.5 36.5t-120 98t-75 142.5t-25.5 171q0 125 49.5 242.5t132 210t189 147.5t223.5 55q68 0 122 -20.5t97 -54t74 -78.5t49 -96l49 231h105l-197 -918q-4 -16 -4 -24q0 -31 35 -31l-21 -92q-10 -2 -17 -3t-13 -1q-41 0 -62.5 20.5t-21.5 53.5q0 6 1 15 t4 24.5t7 40t12 63.5q-84 -106 -200.5 -169.5t-233.5 -63.5zM471 72q55 0 120.5 23.5t126 62.5t107.5 91t66 109l74 351q-8 57 -36 108t-70 90t-95 61.5t-115 22.5q-98 0 -186 -49t-154.5 -128t-106.5 -177t-40 -197q0 -74 22.5 -141.5t63.5 -117.5t98 -79.5t125 -29.5z M551 1307q16 78 75.5 133t137.5 55q68 0 104.5 -45t36.5 -104v-19.5t-4 -19.5h-63q0 10 1 18t1 18q0 94 -82 95q-59 0 -94 -39t-48 -92h-65z" />
<glyph unicode="&#x204;" horiz-adv-x="1196" d="M862 1880h103l79 -174l-65 -33zM633 1880h106l76 -174l-65 -33zM365 1454h903l-19 -94h-800l-121 -572h698l-20 -90h-697l-129 -604h817l-20 -94h-922z" />
<glyph unicode="&#x205;" horiz-adv-x="1083" d="M713 1495h102l80 -174l-66 -33zM483 1495h107l76 -174l-66 -33zM459 -20q-96 0 -171 35.5t-127 97t-79 143.5t-27 174q0 125 48.5 243t134.5 209t201.5 146t250.5 55q63 0 122.5 -18t106 -54t74 -89.5t27.5 -122.5q0 -307 -557 -307q-66 0 -138.5 2t-160.5 8 q-2 -16 -3 -34.5t-1 -35.5q0 -76 19.5 -143.5t59.5 -117.5t100 -80t140 -30q51 0 105.5 15.5t103.5 43t91 67.5t71 89l86 -26q-37 -61 -89 -110.5t-114.5 -85.5t-132 -55t-141.5 -19zM678 999q-96 0 -177 -35.5t-144.5 -94t-108.5 -134.5t-68 -155q86 -6 154.5 -8.5 t134.5 -2.5q127 0 214 17.5t140.5 48.5t77 73t23.5 93t-21.5 89t-55.5 62.5t-79 35.5t-90 11z" />
<glyph unicode="&#x206;" horiz-adv-x="1196" d="M700 1690q16 78 76 133t137 55q68 0 105 -45t37 -104v-19.5t-4 -19.5h-64q0 10 1 18t1 18q0 94 -82 95q-59 0 -94 -39t-47 -92h-66zM365 1454h903l-19 -94h-800l-121 -572h698l-20 -90h-697l-129 -604h817l-20 -94h-922z" />
<glyph unicode="&#x207;" horiz-adv-x="1083" d="M565 1307q16 78 75.5 133t137.5 55q68 0 105 -45t37 -104v-19.5t-5 -19.5h-63q0 10 1 18t1 18q0 94 -82 95q-59 0 -94 -39t-47 -92h-66zM459 -20q-96 0 -171 35.5t-127 97t-79 143.5t-27 174q0 125 48.5 243t134.5 209t201.5 146t250.5 55q63 0 122.5 -18t106 -54 t74 -89.5t27.5 -122.5q0 -307 -557 -307q-66 0 -138.5 2t-160.5 8q-2 -16 -3 -34.5t-1 -35.5q0 -76 19.5 -143.5t59.5 -117.5t100 -80t140 -30q51 0 105.5 15.5t103.5 43t91 67.5t71 89l86 -26q-37 -61 -89 -110.5t-114.5 -85.5t-132 -55t-141.5 -19zM678 999 q-96 0 -177 -35.5t-144.5 -94t-108.5 -134.5t-68 -155q86 -6 154.5 -8.5t134.5 -2.5q127 0 214 17.5t140.5 48.5t77 73t23.5 93t-21.5 89t-55.5 62.5t-79 35.5t-90 11z" />
<glyph unicode="&#x208;" horiz-adv-x="477" d="M365 1452h104l-309 -1452h-105zM469 1880h102l80 -174l-65 -33zM240 1880h106l76 -174l-66 -33z" />
<glyph unicode="&#x209;" horiz-adv-x="411" d="M336 1495h102l80 -174l-65 -33zM106 1495h107l76 -174l-66 -33zM250 1065h102l-225 -1065h-102z" />
<glyph unicode="&#x20a;" horiz-adv-x="477" d="M365 1452h104l-309 -1452h-105zM299 1690q16 78 75.5 133t137.5 55q68 0 104.5 -45t36.5 -104v-19.5t-4 -19.5h-63q0 10 1 18t1 18q0 94 -82 95q-59 0 -94 -39t-47 -92h-66z" />
<glyph unicode="&#x20b;" horiz-adv-x="411" d="M180 1307q16 78 75.5 133t137.5 55q68 0 105 -45t37 -104v-19.5t-5 -19.5h-63q0 10 1 18t1 18q0 94 -82 95q-59 0 -94 -39t-47 -92h-66zM250 1065h102l-225 -1065h-102z" />
<glyph unicode="&#x20c;" d="M1001 1880h103l80 -174l-66 -33zM772 1880h107l75 -174l-65 -33zM608 -10q-123 0 -218 49t-159.5 132t-98.5 191.5t-34 225.5q0 168 70 325.5t184.5 280.5t264 196.5t307.5 73.5q123 0 217 -51t158.5 -135t97.5 -192.5t33 -223.5q0 -166 -70 -323.5t-184.5 -279.5 t-262 -195.5t-305.5 -73.5zM629 86q141 0 268 68.5t221 178t149.5 247t55.5 272.5q0 104 -28.5 197.5t-83 164t-133.5 112.5t-177 42q-141 0 -268 -68.5t-222.5 -178t-150.5 -247t-55 -274.5q0 -104 28.5 -197.5t83 -164t133.5 -111.5t179 -41z" />
<glyph unicode="&#x20d;" horiz-adv-x="1165" d="M741 1495h103l80 -174l-66 -33zM512 1495h106l76 -174l-65 -33zM446 -20q-92 0 -164.5 34.5t-122.5 95t-78 141.5t-28 173q0 129 52.5 249t140.5 211t201.5 145t234.5 54q90 0 163 -35.5t123 -96t77.5 -142.5t27.5 -174q0 -127 -52 -246t-139 -210t-200 -145t-236 -54z M465 72q92 0 183 45t162 120.5t115 175t44 208.5q0 78 -22.5 145.5t-62.5 117.5t-97.5 78.5t-124.5 28.5q-92 0 -181.5 -45t-161 -121.5t-115.5 -177t-44 -211.5q0 -78 22.5 -144.5t62.5 -115.5t96 -76.5t124 -27.5z" />
<glyph unicode="&#x20e;" d="M811 1690q16 78 75.5 133t137.5 55q68 0 104.5 -45t36.5 -104v-19.5t-4 -19.5h-63q0 10 1 18t1 18q0 94 -82 95q-59 0 -94 -39t-47 -92h-66zM608 -10q-123 0 -218 49t-159.5 132t-98.5 191.5t-34 225.5q0 168 70 325.5t184.5 280.5t264 196.5t307.5 73.5q123 0 217 -51 t158.5 -135t97.5 -192.5t33 -223.5q0 -166 -70 -323.5t-184.5 -279.5t-262 -195.5t-305.5 -73.5zM629 86q141 0 268 68.5t221 178t149.5 247t55.5 272.5q0 104 -28.5 197.5t-83 164t-133.5 112.5t-177 42q-141 0 -268 -68.5t-222.5 -178t-150.5 -247t-55 -274.5 q0 -104 28.5 -197.5t83 -164t133.5 -111.5t179 -41z" />
<glyph unicode="&#x20f;" horiz-adv-x="1165" d="M561 1307q16 78 75.5 133t137.5 55q68 0 104.5 -45t36.5 -104v-19.5t-4 -19.5h-63q0 10 1 18t1 18q0 94 -82 95q-59 0 -94 -39t-47 -92h-66zM446 -20q-92 0 -164.5 34.5t-122.5 95t-78 141.5t-28 173q0 129 52.5 249t140.5 211t201.5 145t234.5 54q90 0 163 -35.5 t123 -96t77.5 -142.5t27.5 -174q0 -127 -52 -246t-139 -210t-200 -145t-236 -54zM465 72q92 0 183 45t162 120.5t115 175t44 208.5q0 78 -22.5 145.5t-62.5 117.5t-97.5 78.5t-124.5 28.5q-92 0 -181.5 -45t-161 -121.5t-115.5 -177t-44 -211.5q0 -78 22.5 -144.5 t62.5 -115.5t96 -76.5t124 -27.5z" />
<glyph unicode="&#x210;" horiz-adv-x="1277" d="M862 1880h103l79 -174l-65 -33zM633 1880h106l76 -174l-65 -33zM55 0l310 1454h577q74 0 133.5 -31.5t100.5 -84t62.5 -119t21.5 -138.5q0 -90 -34 -177t-92.5 -157.5t-135 -119.5t-164.5 -62l221 -565h-119l-217 549h-443l-116 -549h-105zM778 645q76 0 144.5 38 t119 98.5t80 136t29.5 151.5q0 57 -17.5 110.5t-48 93.5t-73.5 63.5t-97 23.5h-466l-152 -715h481z" />
<glyph unicode="&#x211;" horiz-adv-x="681" d="M522 1495h103l80 -174l-66 -33zM293 1495h106l76 -174l-65 -33zM250 1065h98l-57 -262q86 123 197.5 193.5t216.5 70.5q20 0 28 -2l-20 -92q-137 -4 -255 -85t-190 -222l-141 -666h-102z" />
<glyph unicode="&#x212;" horiz-adv-x="1277" d="M692 1690q16 78 75.5 133t137.5 55q68 0 105 -45t37 -104v-19.5t-5 -19.5h-63q0 10 1 18t1 18q0 94 -82 95q-59 0 -94 -39t-47 -92h-66zM55 0l310 1454h577q74 0 133.5 -31.5t100.5 -84t62.5 -119t21.5 -138.5q0 -90 -34 -177t-92.5 -157.5t-135 -119.5t-164.5 -62 l221 -565h-119l-217 549h-443l-116 -549h-105zM778 645q76 0 144.5 38t119 98.5t80 136t29.5 151.5q0 57 -17.5 110.5t-48 93.5t-73.5 63.5t-97 23.5h-466l-152 -715h481z" />
<glyph unicode="&#x213;" horiz-adv-x="681" d="M342 1311q16 78 75.5 133t137.5 55q68 0 104.5 -45t36.5 -104v-19.5t-4 -19.5h-63q0 10 1 18t1 19q0 94 -82 94q-59 0 -94 -39t-47 -92h-66zM250 1065h98l-57 -262q86 123 197.5 193.5t216.5 70.5q20 0 28 -2l-20 -92q-137 -4 -255 -85t-190 -222l-141 -666h-102z" />
<glyph unicode="&#x214;" d="M975 1880h102l80 -174l-65 -33zM745 1880h107l76 -174l-66 -33zM610 -10q-127 0 -213 38t-138 102.5t-75.5 151.5t-23.5 187q0 121 28 254l156 731h105l-156 -731q-12 -61 -20.5 -120.5t-8.5 -117.5q0 -84 18.5 -156.5t61.5 -127t112.5 -85t172.5 -30.5q139 0 242.5 55.5 t176 145.5t118.5 204.5t71 231.5l154 731h104l-154 -731q-31 -147 -89 -279.5t-148 -233.5t-212 -160.5t-282 -59.5z" />
<glyph unicode="&#x215;" horiz-adv-x="1150" d="M709 1495h102l80 -174l-66 -33zM479 1495h107l76 -174l-66 -33zM332 -20q-248 0 -248 278q0 41 5 89t17 104l134 614h100l-127 -600q-23 -102 -23 -174q0 -219 191 -219q63 0 128.5 23.5t126 65.5t114 101.5t90.5 130.5l141 672h102l-188 -891q-4 -16 -7 -30.5t-3 -18.5 q0 -33 35 -33l-21 -92q-14 -2 -24.5 -2h-20.5q-33 0 -50.5 21.5t-17.5 50.5q0 6 1 14t4.5 26.5t10.5 52.5t19 89q-94 -129 -224 -200.5t-265 -71.5z" />
<glyph unicode="&#x216;" d="M797 1690q16 78 75.5 133t137.5 55q68 0 104.5 -45t36.5 -104v-19.5t-4 -19.5h-64q0 10 1 18t1 18q0 94 -81 95q-59 0 -94.5 -39t-47.5 -92h-65zM610 -10q-127 0 -213 38t-138 102.5t-75.5 151.5t-23.5 187q0 121 28 254l156 731h105l-156 -731q-12 -61 -20.5 -120.5 t-8.5 -117.5q0 -84 18.5 -156.5t61.5 -127t112.5 -85t172.5 -30.5q139 0 242.5 55.5t176 145.5t118.5 204.5t71 231.5l154 731h104l-154 -731q-31 -147 -89 -279.5t-148 -233.5t-212 -160.5t-282 -59.5z" />
<glyph unicode="&#x217;" horiz-adv-x="1150" d="M528 1307q16 78 76 133t137 55q68 0 105 -45t37 -104v-19.5t-4 -19.5h-64q0 10 1 18t1 18q0 94 -82 95q-59 0 -94 -39t-47 -92h-66zM332 -20q-248 0 -248 278q0 41 5 89t17 104l134 614h100l-127 -600q-23 -102 -23 -174q0 -219 191 -219q63 0 128.5 23.5t126 65.5 t114 101.5t90.5 130.5l141 672h102l-188 -891q-4 -16 -7 -30.5t-3 -18.5q0 -33 35 -33l-21 -92q-14 -2 -24.5 -2h-20.5q-33 0 -50.5 21.5t-17.5 50.5q0 6 1 14t4.5 26.5t10.5 52.5t19 89q-94 -129 -224 -200.5t-265 -71.5z" />
<glyph unicode="&#x218;" horiz-adv-x="1193" d="M362 -383l60 139h-33l31 144h98l-29 -144l-71 -139h-56zM492 -12q-324 0 -504 217l73 84q66 -96 179.5 -152.5t273.5 -56.5q207 0 328 86t121 248q0 113 -95.5 171t-275.5 99q-92 20 -163 45t-120 58.5t-74.5 82t-25.5 115.5q0 113 45 202t123 150.5t185.5 94t232.5 32.5 q135 0 232 -42t163 -128l-72 -82q-98 158 -344 158q-121 0 -206 -27.5t-140 -74.5t-80.5 -111.5t-25.5 -140.5q0 -53 21.5 -90t64.5 -63.5t107.5 -47t150.5 -41.5q92 -23 168.5 -48.5t130 -63t83 -90t29.5 -128.5q0 -111 -44 -196.5t-123 -143t-186 -87t-232 -29.5z" />
<glyph unicode="&#x219;" horiz-adv-x="944" d="M225 -383l60 139h-33l31 144h98l-29 -144l-71 -139h-56zM342 -20q-117 0 -216 40.5t-161 122.5l64 70q68 -78 146.5 -115t182.5 -37q74 0 136.5 18.5t108.5 51.5t71.5 80t25.5 106q0 78 -71.5 115t-204.5 72q-72 18 -125 36.5t-89 42t-54.5 56.5t-18.5 80q0 88 37 156.5 t98.5 114.5t142.5 69.5t169 23.5q119 0 201.5 -42t117.5 -107l-67 -55q-35 61 -110 91.5t-167 30.5q-63 0 -120.5 -15t-101.5 -47t-70.5 -80t-26.5 -114q0 -35 14 -58t42 -40.5t71 -31t100 -27.5q80 -20 142.5 -41t106.5 -48.5t66.5 -65.5t22.5 -91q0 -80 -35 -146.5 t-96.5 -114.5t-146.5 -74.5t-185 -26.5z" />
<glyph unicode="&#x21a;" horiz-adv-x="1185" d="M328 -383l59 139h-33l31 144h98l-28 -144l-72 -139h-55zM694 1360h-504l19 94h1114l-20 -94h-504l-291 -1360h-102z" />
<glyph unicode="&#x21b;" horiz-adv-x="626" d="M133 -383l60 139h-33l30 144h99l-29 -144l-72 -139h-55zM264 -12q-72 0 -119 36.5t-47 108.5q0 10 1 21.5t3 23.5l172 803h-143l19 84h143l76 365h102l-76 -365h236l-19 -84h-235l-154 -721q-14 -66 -14 -82q0 -47 29.5 -70.5t72.5 -23.5q31 0 58.5 6t50 15.5t38 16.5 t21.5 11l13 -82q-8 -6 -30 -16t-52.5 -21.5t-67.5 -18.5t-78 -7z" />
<glyph unicode="&#x237;" horiz-adv-x="411" d="M-238 -362q-61 0 -111 17t-85 58l69 68q25 -29 62 -39t76 -10q37 0 74.5 15t70.5 43t57.5 66t34.5 83l240 1126h102l-239 -1122q-14 -68 -50 -123.5t-85.5 -96t-106 -63t-109.5 -22.5z" />
<glyph unicode="&#x259;" horiz-adv-x="1138" d="M424 -20q-92 0 -165 31.5t-125 88t-79.5 134t-27.5 167.5q0 39 5 85t19 83h885q6 39 6 78q0 76 -22.5 141.5t-63.5 111.5t-98.5 72.5t-126.5 26.5q-53 0 -107.5 -15t-103.5 -42t-90 -63.5t-70 -81.5l-84 24q33 55 85 103.5t115.5 84t134.5 55t142 19.5q90 0 164 -34.5 t125 -96t79 -144.5t28 -177q0 -129 -51.5 -247t-138.5 -208t-199.5 -143t-235.5 -53zM442 61q80 0 155 33t139.5 90.5t112.5 137t73 172.5h-787q-6 -43 -6 -82q0 -78 22.5 -142.5t63.5 -110.5t98 -72t129 -26z" />
<glyph unicode="&#x2bc;" horiz-adv-x="1099" d="M594 1321l98 111l15 63h159l-211 -207z" />
<glyph unicode="&#x2c6;" horiz-adv-x="624" d="M111 1329l223 166h76l153 -166l-67 -35l-140 129l-192 -129z" />
<glyph unicode="&#x2c7;" horiz-adv-x="624" d="M123 1460l67 35l140 -129l192 129l53 -35l-223 -166h-76z" />
<glyph unicode="&#x2c9;" horiz-adv-x="761" d="M143 1450h557l-16 -76h-557z" />
<glyph unicode="&#x2d8;" horiz-adv-x="526" d="M264 1364q41 0 82 38t57 93h66q-8 -39 -29.5 -74t-51.5 -60.5t-64.5 -39.5t-69.5 -14q-66 0 -104.5 42t-38.5 105q0 18 6 41h67q-2 -10 -2 -29q0 -41 23.5 -71.5t58.5 -30.5z" />
<glyph unicode="&#x2d9;" horiz-adv-x="286" d="M96 1311l39 184h94l-39 -184h-94z" />
<glyph unicode="&#x2da;" horiz-adv-x="475" d="M129 1343q0 66 49 109t115 43q49 0 77.5 -28.5t28.5 -73.5q0 -66 -48 -110t-113 -44q-51 0 -80 28.5t-29 75.5zM281 1448q-37 0 -67 -26.5t-30 -69.5q0 -29 17.5 -47.5t46.5 -18.5q33 0 65.5 27.5t32.5 68.5q0 31 -18 48.5t-47 17.5z" />
<glyph unicode="&#x2db;" horiz-adv-x="442" d="M160 -346q-53 12 -79 43t-26 72q0 66 55.5 125t188.5 139l31 -33q-115 -70 -159 -116t-44 -93q0 -63 80 -76l-47 -61v0z" />
<glyph unicode="&#x2dc;" horiz-adv-x="774" d="M506 1325q-43 0 -74 12.5t-55.5 27.5t-47 28.5t-53.5 13.5q-33 0 -55 -14.5t-35.5 -32t-20.5 -32.5t-7 -19h-70q2 8 14.5 35.5t37 57.5t61.5 53.5t90 23.5q39 0 66.5 -13.5t52 -29t49 -27.5t61.5 -12q39 0 63.5 14t40 31.5t22.5 33t7 19.5h68q-2 -10 -14.5 -37.5 t-38 -56.5t-65.5 -52.5t-97 -23.5z" />
<glyph unicode="&#x2dd;" horiz-adv-x="618" d="M137 1288l-53 33l154 174h104zM367 1288l-54 33l152 174h106z" />
<glyph unicode="&#x30f;" horiz-adv-x="618" d="M350 1495h103l79 -174l-65 -33zM121 1495h106l76 -174l-65 -33z" />
<glyph unicode="&#x311;" horiz-adv-x="526" d="M109 1307q16 78 75.5 133t137.5 55q68 0 104.5 -45t36.5 -104v-19.5t-4 -19.5h-64q0 10 1 18t1 18q0 94 -82 95q-59 0 -94 -39t-47 -92h-65v0z" />
<glyph unicode="&#x394;" horiz-adv-x="1269" d="M-43 84l571 1370h88l570 -1370v-84h-1229v84zM1071 94l-498 1233l-501 -1233h999z" />
<glyph unicode="&#x3a9;" horiz-adv-x="1660" d="M119 96h411q-186 92 -291.5 266.5t-105.5 385.5q0 141 51.5 271t141.5 228.5t213 157.5t268 59q143 0 267 -59t213 -157.5t140.5 -228.5t51.5 -271q0 -211 -105.5 -385.5t-292.5 -266.5h414v-96h-592v96q113 27 201 93.5t147.5 156.5t91 194.5t31.5 207.5q0 115 -39 226 t-112.5 198.5t-179 140.5t-236.5 53q-133 0 -237.5 -53t-178.5 -140.5t-112.5 -199t-38.5 -225.5q0 -102 31.5 -207t91 -195t147.5 -156.5t201 -93.5v-96h-592v96z" />
<glyph unicode="&#x3bc;" horiz-adv-x="1165" d="M252 1065h102l-127 -600q-23 -102 -22 -174q0 -219 192 -219q61 0 127 23.5t126.5 65.5t112.5 101.5t89 130.5l143 672h105l-197 -922q-2 -6 -2 -20q0 -31 35 -31l-23 -92q-72 0 -89 23.5t-17 58.5q0 4 3 25.5t7 48t9 53.5t10 43q-41 -59 -95.5 -109.5t-115 -86.5 t-125 -56t-127.5 -20q-98 0 -150.5 50t-64.5 138l-123 -602h-103z" />
<glyph unicode="&#x3c0;" horiz-adv-x="1337" d="M1010 -12q-86 0 -137.5 52t-51.5 140v791h-444v-971h-101v971h-163v94h1034v-94h-225v-760q0 -59 34.5 -94t94.5 -35q23 0 53.5 5t56.5 15l23 -82q-35 -14 -87 -23t-87 -9z" />
<glyph unicode="&#x1e0c;" horiz-adv-x="1409" d="M424 -309l39 184h94l-39 -184h-94zM365 1454h460q135 0 234.5 -43t164 -117.5t96.5 -176t32 -218.5q0 -195 -62.5 -358.5t-174 -284.5t-265.5 -188.5t-334 -67.5h-461zM537 94q164 0 295 64.5t222 173t140 251t49 298.5q0 104 -27.5 192t-83 151.5t-137.5 99.5t-190 36 h-356l-269 -1266h357z" />
<glyph unicode="&#x1e0d;" horiz-adv-x="1210" d="M354 -309l39 184h94l-38 -184h-95zM438 -20q-90 0 -161.5 36.5t-121 98t-75 142.5t-25.5 171q0 125 49.5 242.5t132 210t190.5 147.5t224 55q66 0 120 -20.5t97 -54t74 -78.5t49 -96l139 661h105l-287 -1348q-4 -20 -4 -24q0 -31 35 -31l-21 -92q-14 -2 -24 -2h-21 q-70 10 -69 74q0 6 1 13t3 22.5t7 40t13 65.5q-84 -106 -200.5 -169.5t-229.5 -63.5zM477 72q51 0 115.5 22.5t124 62.5t107.5 91t67 110l74 351q-8 57 -37 109t-71 90t-94 60.5t-108 22.5q-100 0 -190 -49t-157.5 -128t-106.5 -176t-39 -194q0 -76 22.5 -143.5t63.5 -118.5 t99 -80.5t130 -29.5z" />
<glyph unicode="&#x1e24;" horiz-adv-x="1445" d="M365 1454h104l-141 -663h864l141 663h105l-310 -1454h-104l147 696h-862l-149 -696h-105zM481 -309l39 184h94l-39 -184h-94z" />
<glyph unicode="&#x1e25;" horiz-adv-x="1130" d="M342 1495h102l-145 -684q88 125 213 198.5t252 73.5q129 0 186.5 -72.5t57.5 -203.5q0 -43 -5.5 -92t-17.5 -103l-129 -612h-102l125 594q20 96 20 170q0 225 -186 225q-61 0 -126 -24.5t-125.5 -69.5t-111.5 -105.5t-84 -130.5l-139 -659h-102zM336 -309l39 184h94 l-39 -184h-94z" />
<glyph unicode="&#x1e44;" horiz-adv-x="1517" d="M950 1694l39 184h94l-39 -184h-94zM365 1454h81l689 -1280l270 1278h104l-309 -1452h-92l-680 1257l-268 -1257h-105z" />
<glyph unicode="&#x1e45;" horiz-adv-x="1130" d="M664 1311l38 184h95l-39 -184h-94zM250 1065h96l-55 -254q43 61 100.5 111.5t122 86t133 55t135.5 19.5q123 0 176.5 -65.5t53.5 -190.5q0 -47 -7.5 -100t-19.5 -115l-129 -612h-102l125 594q12 57 17 104t5 86q0 205 -170 205q-63 0 -131 -24.5t-130 -69.5 t-115.5 -105.5t-88.5 -130.5l-139 -659h-102z" />
<glyph unicode="&#x1e5a;" horiz-adv-x="1277" d="M55 0l310 1454h577q74 0 133.5 -31.5t100.5 -84t62.5 -119t21.5 -138.5q0 -90 -34 -177t-92.5 -157.5t-135 -119.5t-164.5 -62l221 -565h-119l-217 549h-443l-116 -549h-105zM778 645q76 0 144.5 38t119 98.5t80 136t29.5 151.5q0 57 -17.5 110.5t-48 93.5t-73.5 63.5 t-97 23.5h-466l-152 -715h481zM403 -309l39 184h95l-39 -184h-95z" />
<glyph unicode="&#x1e5b;" horiz-adv-x="681" d="M250 1065h98l-57 -262q86 123 197.5 193.5t216.5 70.5q20 0 28 -2l-20 -92q-137 -4 -255 -85t-190 -222l-141 -666h-102zM-37 -309l39 184h94l-39 -184h-94z" />
<glyph unicode="&#x1e62;" horiz-adv-x="1193" d="M492 -12q-324 0 -504 217l73 84q66 -96 179.5 -152.5t273.5 -56.5q207 0 328 86t121 248q0 113 -95.5 171t-275.5 99q-92 20 -163 45t-120 58.5t-74.5 82t-25.5 115.5q0 113 45 202t123 150.5t185.5 94t232.5 32.5q135 0 232 -42t163 -128l-72 -82q-98 158 -344 158 q-121 0 -206 -27.5t-140 -74.5t-80.5 -111.5t-25.5 -140.5q0 -53 21.5 -90t64.5 -63.5t107.5 -47t150.5 -41.5q92 -23 168.5 -48.5t130 -63t83 -90t29.5 -128.5q0 -111 -44 -196.5t-123 -143t-186 -87t-232 -29.5zM377 -309l39 184h94l-39 -184h-94z" />
<glyph unicode="&#x1e63;" horiz-adv-x="944" d="M342 -20q-117 0 -216 40.5t-161 122.5l64 70q68 -78 146.5 -115t182.5 -37q74 0 136.5 18.5t108.5 51.5t71.5 80t25.5 106q0 78 -71.5 115t-204.5 72q-72 18 -125 36.5t-89 42t-54.5 56.5t-18.5 80q0 88 37 156.5t98.5 114.5t142.5 69.5t169 23.5q119 0 201.5 -42 t117.5 -107l-67 -55q-35 61 -110 91.5t-167 30.5q-63 0 -120.5 -15t-101.5 -47t-70.5 -80t-26.5 -114q0 -35 14 -58t42 -40.5t71 -31t100 -27.5q80 -20 142.5 -41t106.5 -48.5t66.5 -65.5t22.5 -91q0 -80 -35 -146.5t-96.5 -114.5t-146.5 -74.5t-185 -26.5zM238 -309l38 184 h95l-39 -184h-94z" />
<glyph unicode="&#x1e6c;" horiz-adv-x="1185" d="M344 -309l39 184h94l-39 -184h-94zM694 1360h-504l19 94h1114l-20 -94h-504l-291 -1360h-102z" />
<glyph unicode="&#x1e6d;" horiz-adv-x="626" d="M141 -309l39 184h94l-38 -184h-95zM264 -12q-72 0 -119 36.5t-47 108.5q0 10 1 21.5t3 23.5l172 803h-143l19 84h143l76 365h102l-76 -365h236l-19 -84h-235l-154 -721q-14 -66 -14 -82q0 -47 29.5 -70.5t72.5 -23.5q31 0 58.5 6t50 15.5t38 16.5t21.5 11l13 -82 q-8 -6 -30 -16t-52.5 -21.5t-67.5 -18.5t-78 -7z" />
<glyph unicode="&#x1e80;" horiz-adv-x="2033" d="M199 1454h114l242 -1331l436 708l-114 613h102l92 -529l318 529h102l-373 -613l135 -708l807 1331h115l-899 -1454h-94l-144 748l-465 -748h-94zM1112 1880h113l84 -174l-76 -33z" />
<glyph unicode="&#x1e81;" horiz-adv-x="1521" d="M115 1065h106l174 -963q96 109 176 228t146 239l-107 496h107l71 -360q47 94 82 184t62 176h98q-74 -244 -211 -498l94 -465q193 229 324 481.5t199 481.5h100q-82 -268 -227.5 -536.5t-368.5 -528.5h-106l-89 444q-66 -113 -145.5 -224t-175.5 -220h-107zM782 1495h113 l84 -174l-76 -33z" />
<glyph unicode="&#x1e82;" horiz-adv-x="2033" d="M1204 1671l-63 33l155 174h117zM199 1454h114l242 -1331l436 708l-114 613h102l92 -529l318 529h102l-373 -613l135 -708l807 1331h115l-899 -1454h-94l-144 748l-465 -748h-94z" />
<glyph unicode="&#x1e83;" horiz-adv-x="1521" d="M860 1288l-63 33l155 174h117zM115 1065h106l174 -963q96 109 176 228t146 239l-107 496h107l71 -360q47 94 82 184t62 176h98q-74 -244 -211 -498l94 -465q193 229 324 481.5t199 481.5h100q-82 -268 -227.5 -536.5t-368.5 -528.5h-106l-89 444q-66 -113 -145.5 -224 t-175.5 -220h-107z" />
<glyph unicode="&#x1e84;" horiz-adv-x="2033" d="M1042 1696l37 180h90l-39 -180h-88zM1311 1696l39 180h88l-37 -180h-90zM199 1454h114l242 -1331l436 708l-114 613h102l92 -529l318 529h102l-373 -613l135 -708l807 1331h115l-899 -1454h-94l-144 748l-465 -748h-94z" />
<glyph unicode="&#x1e85;" horiz-adv-x="1521" d="M694 1311l37 180h90l-39 -180h-88zM963 1311l38 180h89l-37 -180h-90zM115 1065h106l174 -963q96 109 176 228t146 239l-107 496h107l71 -360q47 94 82 184t62 176h98q-74 -244 -211 -498l94 -465q193 229 324 481.5t199 481.5h100q-82 -268 -227.5 -536.5t-368.5 -528.5 h-106l-89 444q-66 -113 -145.5 -224t-175.5 -220h-107z" />
<glyph unicode="&#x1e92;" horiz-adv-x="1214" d="M-57 86l1245 1274h-963l21 94h1087l-20 -86l-1239 -1274h964l-18 -94h-1096zM371 -309l39 184h94l-39 -184h-94z" />
<glyph unicode="&#x1e93;" horiz-adv-x="948" d="M-57 74l901 911h-694l18 80h811l-16 -74l-897 -911h702l-18 -80h-824zM233 -309l39 184h95l-39 -184h-95z" />
<glyph unicode="&#x1eb8;" horiz-adv-x="1196" d="M365 1454h903l-19 -94h-800l-121 -572h698l-20 -90h-697l-129 -604h817l-20 -94h-922zM399 -309l39 184h94l-38 -184h-95z" />
<glyph unicode="&#x1eb9;" horiz-adv-x="1083" d="M459 -20q-96 0 -171 35.5t-127 97t-79 143.5t-27 174q0 125 48.5 243t134.5 209t201.5 146t250.5 55q63 0 122.5 -18t106 -54t74 -89.5t27.5 -122.5q0 -307 -557 -307q-66 0 -138.5 2t-160.5 8q-2 -16 -3 -34.5t-1 -35.5q0 -76 19.5 -143.5t59.5 -117.5t100 -80t140 -30 q51 0 105.5 15.5t103.5 43t91 67.5t71 89l86 -26q-37 -61 -89 -110.5t-114.5 -85.5t-132 -55t-141.5 -19zM678 999q-96 0 -177 -35.5t-144.5 -94t-108.5 -134.5t-68 -155q86 -6 154.5 -8.5t134.5 -2.5q127 0 214 17.5t140.5 48.5t77 73t23.5 93t-21.5 89t-55.5 62.5 t-79 35.5t-90 11zM346 -309l39 184h94l-39 -184h-94z" />
<glyph unicode="&#x1ebc;" horiz-adv-x="1196" d="M365 1454h903l-19 -94h-800l-121 -572h698l-20 -90h-697l-129 -604h817l-20 -94h-922zM975 1708q-43 0 -74 12.5t-55.5 27.5t-47 28.5t-53.5 13.5q-33 0 -55 -14.5t-35.5 -32t-20.5 -32.5t-7 -19h-70q2 8 14.5 35.5t37 57.5t61.5 53.5t90 23.5q39 0 66.5 -13.5t52 -29 t49 -27.5t61.5 -12q39 0 63.5 14t40 31.5t22.5 33t7 19.5h68q-2 -10 -14.5 -38t-38 -56.5t-65.5 -52t-97 -23.5z" />
<glyph unicode="&#x1ebd;" horiz-adv-x="1083" d="M459 -20q-96 0 -171 35.5t-127 97t-79 143.5t-27 174q0 125 48.5 243t134.5 209t201.5 146t250.5 55q63 0 122.5 -18t106 -54t74 -89.5t27.5 -122.5q0 -307 -557 -307q-66 0 -138.5 2t-160.5 8q-2 -16 -3 -34.5t-1 -35.5q0 -76 19.5 -143.5t59.5 -117.5t100 -80t140 -30 q51 0 105.5 15.5t103.5 43t91 67.5t71 89l86 -26q-37 -61 -89 -110.5t-114.5 -85.5t-132 -55t-141.5 -19zM678 999q-96 0 -177 -35.5t-144.5 -94t-108.5 -134.5t-68 -155q86 -6 154.5 -8.5t134.5 -2.5q127 0 214 17.5t140.5 48.5t77 73t23.5 93t-21.5 89t-55.5 62.5 t-79 35.5t-90 11zM846 1325q-43 0 -74 12.5t-55.5 27.5t-47 28.5t-53.5 13.5q-33 0 -55 -14.5t-35.5 -32t-20.5 -32.5t-7 -19h-70q2 8 14.5 35.5t37 57.5t61.5 53.5t90 23.5q39 0 66.5 -13.5t52 -29t49 -27.5t61.5 -12q39 0 63.5 14t40 31.5t22.5 33t7 19.5h68 q-2 -10 -14.5 -37.5t-38 -56.5t-65.5 -52.5t-97 -23.5z" />
<glyph unicode="&#x1eca;" horiz-adv-x="477" d="M365 1452h104l-309 -1452h-105zM-6 -309l39 184h94l-39 -184h-94z" />
<glyph unicode="&#x1ecb;" horiz-adv-x="411" d="M250 1065h102l-225 -1065h-102zM342 1495h102l-38 -188h-103zM-39 -309l39 184h94l-39 -184h-94z" />
<glyph unicode="&#x1ecc;" d="M504 -309l39 184h94l-39 -184h-94zM608 -10q-123 0 -218 49t-159.5 132t-98.5 191.5t-34 225.5q0 168 70 325.5t184.5 280.5t264 196.5t307.5 73.5q123 0 217 -51t158.5 -135t97.5 -192.5t33 -223.5q0 -166 -70 -323.5t-184.5 -279.5t-262 -195.5t-305.5 -73.5zM629 86 q141 0 268 68.5t221 178t149.5 247t55.5 272.5q0 104 -28.5 197.5t-83 164t-133.5 112.5t-177 42q-141 0 -268 -68.5t-222.5 -178t-150.5 -247t-55 -274.5q0 -104 28.5 -197.5t83 -164t133.5 -111.5t179 -41z" />
<glyph unicode="&#x1ecd;" horiz-adv-x="1165" d="M340 -309l39 184h94l-39 -184h-94zM446 -20q-92 0 -164.5 34.5t-122.5 95t-78 141.5t-28 173q0 129 52.5 249t140.5 211t201.5 145t234.5 54q90 0 163 -35.5t123 -96t77.5 -142.5t27.5 -174q0 -127 -52 -246t-139 -210t-200 -145t-236 -54zM465 72q92 0 183 45t162 120.5 t115 175t44 208.5q0 78 -22.5 145.5t-62.5 117.5t-97.5 78.5t-124.5 28.5q-92 0 -181.5 -45t-161 -121.5t-115.5 -177t-44 -211.5q0 -78 22.5 -144.5t62.5 -115.5t96 -76.5t124 -27.5z" />
<glyph unicode="&#x1ee4;" d="M610 -10q-127 0 -213 38t-138 102.5t-75.5 151.5t-23.5 187q0 121 28 254l156 731h105l-156 -731q-12 -61 -20.5 -120.5t-8.5 -117.5q0 -84 18.5 -156.5t61.5 -127t112.5 -85t172.5 -30.5q139 0 242.5 55.5t176 145.5t118.5 204.5t71 231.5l154 731h104l-154 -731 q-31 -147 -89 -279.5t-148 -233.5t-212 -160.5t-282 -59.5zM494 -309l38 184h95l-39 -184h-94z" />
<glyph unicode="&#x1ee5;" horiz-adv-x="1150" d="M332 -20q-248 0 -248 278q0 41 5 89t17 104l134 614h100l-127 -600q-23 -102 -23 -174q0 -219 191 -219q63 0 128.5 23.5t126 65.5t114 101.5t90.5 130.5l141 672h102l-188 -891q-4 -16 -7 -30.5t-3 -18.5q0 -33 35 -33l-21 -92q-14 -2 -24.5 -2h-20.5q-33 0 -50.5 21.5 t-17.5 50.5q0 6 1 14t4.5 26.5t10.5 52.5t19 89q-94 -129 -224 -200.5t-265 -71.5zM309 -309l39 184h94l-39 -184h-94z" />
<glyph unicode="&#x1ef2;" horiz-adv-x="1232" d="M541 553l-351 901h117l307 -805l652 805h114l-735 -905l-119 -549h-102zM705 1880h112l84 -174l-76 -33z" />
<glyph unicode="&#x1ef3;" horiz-adv-x="978" d="M-74 -375q63 10 107.5 27.5t81.5 46.5t70.5 73t74.5 107l74 111l-228 1075h107l193 -965l98 156q92 147 154.5 257t107.5 202t75.5 175t55.5 175h102q-29 -98 -59.5 -183t-76.5 -180.5t-114.5 -212t-170.5 -278.5l-168 -264q-72 -115 -128.5 -189.5t-109.5 -121 t-108.5 -68t-124.5 -27.5zM483 1495h113l84 -174l-76 -33z" />
<glyph unicode="&#x1ef8;" horiz-adv-x="1232" d="M541 553l-351 901h117l307 -805l652 805h114l-735 -905l-119 -549h-102zM928 1708q-43 0 -74 12.5t-55.5 27.5t-47 28.5t-53.5 13.5q-33 0 -55 -14.5t-35.5 -32t-20.5 -32.5t-7 -19h-70q2 8 14.5 35.5t37 57.5t61 53.5t90.5 23.5q39 0 66.5 -13.5t52 -29t49 -27.5 t61.5 -12q39 0 63.5 14t40 31.5t22.5 33t7 19.5h68q-2 -10 -14.5 -38t-38 -56.5t-65.5 -52t-97 -23.5z" />
<glyph unicode="&#x1ef9;" horiz-adv-x="978" d="M-74 -375q63 10 107.5 27.5t81.5 46.5t70.5 73t74.5 107l74 111l-228 1075h107l193 -965l98 156q92 147 154.5 257t107.5 202t75.5 175t55.5 175h102q-29 -98 -59.5 -183t-76.5 -180.5t-114.5 -212t-170.5 -278.5l-168 -264q-72 -115 -128.5 -189.5t-109.5 -121 t-108.5 -68t-124.5 -27.5zM719 1325q-43 0 -74 12.5t-55.5 27.5t-47 28.5t-53.5 13.5q-33 0 -55 -14.5t-35.5 -32t-20.5 -32.5t-7 -19h-70q2 8 14.5 35.5t37 57.5t61.5 53.5t90 23.5q39 0 66.5 -13.5t52 -29t49 -27.5t61.5 -12q39 0 63.5 14t40 31.5t22.5 33t7 19.5h68 q-2 -10 -14.5 -37.5t-38 -56.5t-65.5 -52.5t-97 -23.5z" />
<glyph unicode="&#x2000;" horiz-adv-x="958" />
<glyph unicode="&#x2001;" horiz-adv-x="1917" />
<glyph unicode="&#x2002;" horiz-adv-x="1116" />
<glyph unicode="&#x2003;" horiz-adv-x="1775" />
<glyph unicode="&#x2004;" horiz-adv-x="639" />
<glyph unicode="&#x2005;" horiz-adv-x="479" />
<glyph unicode="&#x2006;" horiz-adv-x="319" />
<glyph unicode="&#x2007;" horiz-adv-x="319" />
<glyph unicode="&#x2008;" horiz-adv-x="239" />
<glyph unicode="&#x2009;" horiz-adv-x="383" />
<glyph unicode="&#x200a;" horiz-adv-x="106" />
<glyph unicode="&#x2010;" horiz-adv-x="829" d="M111 510l20 94h561l-20 -94h-561z" />
<glyph unicode="&#x2011;" horiz-adv-x="829" d="M111 510l20 94h561l-20 -94h-561z" />
<glyph unicode="&#x2012;" horiz-adv-x="829" d="M111 510l20 94h561l-20 -94h-561z" />
<glyph unicode="&#x2013;" horiz-adv-x="1099" d="M111 510l20 94h832l-19 -94h-833z" />
<glyph unicode="&#x2014;" horiz-adv-x="1746" d="M111 510l20 94h1479l-19 -94h-1480z" />
<glyph unicode="&#x2018;" horiz-adv-x="370" d="M414 1495l-72 -203h37l-39 -186h-107l41 186l84 203h56z" />
<glyph unicode="&#x2019;" horiz-adv-x="362" d="M242 1106l71 203h-37l39 186h107l-41 -186l-84 -203h-55z" />
<glyph unicode="&#x201a;" horiz-adv-x="485" d="M27 -190l69 190h-39l41 188h105l-41 -188l-80 -190h-55z" />
<glyph unicode="&#x201c;" horiz-adv-x="577" d="M414 1495l-72 -203h37l-39 -186h-107l41 186l84 203h56zM618 1495l-71 -203h37l-39 -186h-107l41 186l84 203h55z" />
<glyph unicode="&#x201d;" horiz-adv-x="567" d="M242 1106l71 201h-37l39 188h107l-41 -188l-84 -201h-55zM449 1106l69 201h-37l39 188h107l-41 -188l-84 -201h-53z" />
<glyph unicode="&#x201e;" horiz-adv-x="686" d="M27 -190l69 190h-39l41 188h105l-41 -188l-80 -190h-55zM225 -190l70 190h-37l39 188h106l-41 -188l-81 -190h-56z" />
<glyph unicode="&#x2020;" horiz-adv-x="780" d="M154 -266l163 774h-256l21 94h258l209 985h98l-209 -985h254l-18 -94h-256l-164 -774h-100z" />
<glyph unicode="&#x2021;" horiz-adv-x="788" d="M160 -266l131 624h-256l20 95h256l49 227h-256l19 94h256l174 813h98l-172 -813h254l-20 -94h-254l-49 -227h256l-21 -95h-256l-131 -624h-98z" />
<glyph unicode="&#x2022;" horiz-adv-x="690" d="M532 737q0 -41 -17 -78.5t-47 -66.5t-68 -45.5t-76 -16.5q-59 0 -96.5 42t-37.5 104q0 41 18.5 78t48.5 65.5t66.5 45t75.5 16.5q61 0 97 -42.5t36 -101.5z" />
<glyph unicode="&#x2026;" horiz-adv-x="837" d="M8 0l39 174h88l-37 -174h-90zM246 0l39 174h86l-35 -174h-90zM481 0l39 174h90l-39 -174h-90z" />
<glyph unicode="&#x202f;" horiz-adv-x="383" />
<glyph unicode="&#x2030;" horiz-adv-x="2037" d="M449 895q-106 0 -170 68.5t-64 166.5q0 70 30.5 132.5t80 109.5t112 75t127.5 28q104 0 168 -69t64 -169q0 -70 -31 -131.5t-80 -108.5t-111.5 -74.5t-125.5 -27.5zM463 961q47 0 92 22.5t81 59t57.5 85t21.5 101.5q0 76 -47 128t-119 52q-47 0 -92 -22.5t-80 -60.5 t-57.5 -86t-22.5 -99q0 -76 46 -128t120 -52zM885 -20q-106 0 -170 68.5t-64 168.5q0 70 30 131.5t79 108.5t111.5 74.5t127.5 27.5q106 0 169 -68.5t63 -168.5q0 -70 -30 -131.5t-79 -108.5t-111.5 -74.5t-125.5 -27.5zM897 45q47 0 92 22.5t81 59.5t58.5 85t22.5 101 q0 74 -46 127.5t-120 53.5q-47 0 -92 -22.5t-81 -59.5t-58.5 -86.5t-22.5 -100.5q0 -76 45 -128t121 -52zM1556 -20q-106 0 -169.5 67.5t-63.5 169.5q0 70 30.5 131.5t80 108.5t112 74.5t127.5 27.5q104 0 167 -68.5t63 -168.5q0 -70 -30 -131.5t-79 -108.5t-112 -74.5 t-126 -27.5zM1569 45q47 0 93 22.5t82 59.5t57.5 85t21.5 99q0 76 -46 129.5t-120 53.5q-47 0 -92 -22.5t-81 -59.5t-57.5 -86.5t-21.5 -100.5q0 -76 45 -128t119 -52zM10 43l1379 1417l47 -47l-1379 -1419z" />
<glyph unicode="&#x2039;" horiz-adv-x="690" d="M74 559l551 359l-19 -93l-452 -295l327 -292l-20 -93l-402 353z" />
<glyph unicode="&#x203a;" horiz-adv-x="690" d="M580 498l-551 -353l20 93l453 292l-328 295l19 93l399 -359z" />
<glyph unicode="&#x2044;" horiz-adv-x="288" d="M-545 43l1379 1417l47 -47l-1379 -1419z" />
<glyph unicode="&#x205f;" horiz-adv-x="479" />
<glyph unicode="&#x2070;" horiz-adv-x="886" d="M494 844q-76 0 -130.5 29.5t-90 76.5t-52 107.5t-16.5 120.5q0 82 35.5 168t99 155.5t146.5 113.5t180 44q76 0 129 -31t88 -78t51 -107.5t16 -117.5q0 -84 -35.5 -170t-97 -154.5t-144.5 -112.5t-179 -44zM281 1186q0 -49 13 -98.5t42 -87t71 -61.5t101 -24 q82 0 150.5 40t116.5 99.5t75 129t27 131.5q0 51 -14.5 99t-42 87t-69.5 62.5t-100 23.5q-84 0 -152.5 -40t-116.5 -99t-74.5 -130t-26.5 -132z" />
<glyph unicode="&#x2074;" horiz-adv-x="745" d="M551 854l45 215h-446l14 68l579 522h50l-111 -518h113l-17 -72h-110l-45 -215h-72zM246 1141h366l88 413z" />
<glyph unicode="&#x2075;" horiz-adv-x="735" d="M526 1364q109 0 176.5 -58.5t67.5 -152.5q0 -68 -30.5 -125t-82 -98t-118 -63.5t-138.5 -22.5q-96 0 -161.5 42t-87.5 113l57 37q23 -57 78 -91t133 -34q55 0 104 17.5t87 48.5t60.5 74t22.5 92q0 78 -57 120t-131 42q-61 0 -122.5 -27t-102.5 -72h-68q14 33 44 100.5 t61.5 140.5t58 133t33.5 79h426l-17 -72h-370l-130 -291q43 35 96.5 51.5t110.5 16.5z" />
<glyph unicode="&#x2076;" horiz-adv-x="794" d="M836 1157q0 -66 -32 -124t-84 -102t-121 -69.5t-142 -25.5q-117 0 -186.5 69.5t-69.5 192.5q0 117 32.5 218t91 178t139.5 121t177 44q86 0 148.5 -39t80.5 -111l-57 -45q-12 57 -63.5 92t-124.5 35q-115 0 -204 -92t-126 -260q41 66 122 105.5t165 39.5 q115 0 184.5 -64.5t69.5 -162.5zM473 903q55 0 107.5 19.5t93.5 52.5t65.5 77t24.5 91q0 74 -56.5 127t-146.5 53q-55 0 -107.5 -19.5t-93.5 -52t-65.5 -77t-24.5 -91.5q0 -76 57.5 -128t145.5 -52z" />
<glyph unicode="&#x2077;" horiz-adv-x="677" d="M748 1587h-492l14 72h604l-622 -805h-80z" />
<glyph unicode="&#x2078;" horiz-adv-x="772" d="M793 1108q0 -59 -31 -107.5t-81 -83t-115.5 -54t-133.5 -19.5q-121 0 -189.5 59.5t-68.5 143.5q0 47 20.5 84.5t53.5 68.5t75 52.5t83 33.5q-49 18 -84 55t-35 91q0 53 29.5 95t75.5 71.5t102.5 45t111.5 15.5q45 0 88 -11.5t76 -34t52.5 -54t19.5 -72.5 q0 -76 -57.5 -126t-135.5 -75q63 -23 103.5 -67.5t40.5 -110.5zM721 1106q0 35 -17.5 62.5t-45 46t-64.5 28.5t-74 10q-47 0 -96 -14t-88 -39.5t-63.5 -60.5t-24.5 -78q0 -35 17.5 -61.5t47 -45t65.5 -29t73 -10.5q45 0 93 13.5t88 38t64.5 60.5t24.5 79zM358 1434 q0 -29 15.5 -50.5t40 -37t56.5 -23.5t62 -8q39 0 80 10t76 30.5t57.5 49.5t22.5 65q0 57 -53 89t-123 32q-43 0 -85 -11t-75 -31.5t-53.5 -49t-20.5 -65.5z" />
<glyph unicode="&#x2079;" horiz-adv-x="794" d="M227 1339q0 66 31 124.5t83 101.5t120.5 68.5t142.5 25.5q117 0 186.5 -69.5t69.5 -192.5q0 -117 -31.5 -218.5t-90 -178t-138.5 -120.5t-178 -44q-88 0 -149.5 39.5t-79.5 111.5l55 43q14 -57 65.5 -92t124.5 -35q113 0 203 92t127 260q-43 -66 -123 -106.5t-164 -40.5 q-115 0 -184.5 66.5t-69.5 164.5zM588 1591q-55 0 -106.5 -19.5t-92.5 -52t-65.5 -75.5t-24.5 -90q0 -76 56.5 -128t146.5 -52q55 0 106 19t92 52t66 76t25 90q0 74 -56.5 127t-146.5 53z" />
<glyph unicode="&#x2080;" horiz-adv-x="888" d="M279 -174q-76 0 -130.5 29.5t-90 78t-52 107.5t-16.5 119q0 82 35.5 168t99 155.5t146.5 113.5t180 44q76 0 129 -30.5t87.5 -78t51 -107.5t16.5 -118q0 -84 -35.5 -169t-97 -154.5t-145.5 -113.5t-178 -44zM66 168q0 -49 13 -98.5t40.5 -87t70.5 -61t103 -23.5 q82 0 150.5 39.5t116.5 99t75 129.5t27 131q0 51 -14.5 99t-42 87t-70.5 62.5t-101 23.5q-84 0 -151.5 -40t-115.5 -99t-74.5 -130t-26.5 -132z" />
<glyph unicode="&#x2081;" horiz-adv-x="538" d="M348 -94l-14 -70h-402l15 70h170l139 661q-12 -14 -39 -30.5t-57.5 -32t-63.5 -25.5t-57 -10l14 72q33 0 71 16t70.5 36.5t55 39t24.5 20.5h74l-158 -747h158z" />
<glyph unicode="&#x2082;" horiz-adv-x="753" d="M-88 -164q33 156 112.5 239t211.5 130q51 18 107 36.5t102.5 44t76 63.5t29.5 95t-41 97.5t-131 40.5q-51 0 -93 -12.5t-77 -30t-60.5 -38t-44.5 -38.5l-38 51q8 8 34.5 30.5t69.5 46t101.5 42t129.5 18.5q121 0 176.5 -55t55.5 -135q0 -68 -29 -115t-75 -81 t-107.5 -57.5t-124.5 -43.5q-74 -25 -122 -57.5t-76.5 -67.5t-43 -70t-20.5 -63h485l-16 -70h-592z" />
<glyph unicode="&#x2083;" horiz-adv-x="759" d="M203 -174q-49 0 -95.5 10t-82 31.5t-58 57.5t-22.5 89l55 41q0 -66 56.5 -111.5t160.5 -45.5q53 0 102.5 13t86 36.5t58 55.5t21.5 71q0 66 -68.5 103.5t-187.5 37.5h-45l15 66h43q139 0 219 42t80 126q0 61 -53.5 99t-133.5 38q-82 0 -148.5 -33t-105.5 -86l-37 53 q45 59 128 95t176 36q115 0 183 -54t68 -136q0 -164 -219 -211q76 -12 118 -59.5t42 -112.5q0 -57 -29.5 -104.5t-80 -80t-114.5 -50t-132 -17.5z" />
<glyph unicode="&#x2084;" horiz-adv-x="743" d="M334 -164l45 217h-447l15 66l579 522h49l-110 -518h110l-14 -70h-110l-48 -217h-69zM29 123h366l88 414z" />
<glyph unicode="&#x2085;" horiz-adv-x="733" d="M311 346q109 0 175.5 -58.5t66.5 -152.5q0 -68 -30.5 -124t-82 -98t-118 -64.5t-136.5 -22.5q-96 0 -162.5 42t-89.5 112l60 38q23 -57 78 -90.5t133 -33.5q55 0 104 17t87 48t60.5 74t22.5 92q0 78 -57 120t-131 42q-61 0 -123 -27t-102 -72h-70q14 33 44 100.5 t61.5 140.5t58 133.5t33.5 78.5h428l-17 -72h-371l-129 -290q43 35 96.5 51t110.5 16z" />
<glyph unicode="&#x2086;" horiz-adv-x="792" d="M618 145q0 -66 -31.5 -124t-83.5 -101t-120 -68.5t-141 -25.5q-117 0 -185.5 69.5t-68.5 192.5q0 117 31.5 218.5t90 177t139.5 119.5t177 44q86 0 148.5 -39t80.5 -110l-55 -45q-14 57 -65.5 92t-122.5 35q-117 0 -206 -91.5t-126 -261.5q43 66 123 107t164 41 q115 0 183 -66t68 -164zM260 -109q55 0 106.5 19.5t92.5 52.5t65.5 77t24.5 91q0 74 -56.5 127t-146.5 53q-55 0 -107.5 -19.5t-93.5 -52t-65.5 -76.5t-24.5 -91q0 -74 57.5 -127.5t147.5 -53.5z" />
<glyph unicode="&#x2087;" horiz-adv-x="677" d="M530 569h-491l16 72h604l-622 -805h-82z" />
<glyph unicode="&#x2088;" horiz-adv-x="772" d="M578 90q0 -59 -31 -107.5t-82 -82t-116.5 -53t-133.5 -19.5q-121 0 -188.5 58.5t-67.5 142.5q0 47 20.5 86t53.5 68.5t75 51t82 33.5q-51 18 -84.5 55t-33.5 91q0 53 29.5 95t75.5 71.5t102.5 45t111.5 15.5q45 0 88 -11.5t76 -34t52.5 -54t19.5 -72.5q0 -76 -58.5 -126 t-136.5 -75q63 -23 104.5 -67.5t41.5 -110.5zM504 88q0 35 -17.5 62.5t-45 46t-64.5 29t-74 10.5q-47 0 -95 -14.5t-87 -40t-63.5 -61.5t-24.5 -79q0 -35 17.5 -61.5t46 -45t65.5 -27.5t74 -9q45 0 93 13t87 37.5t63.5 60.5t24.5 79zM143 416q0 -29 15.5 -50.5t40 -37 t56.5 -23.5t62 -8q39 0 80 11t76 30.5t57.5 48.5t22.5 66q0 57 -53.5 88.5t-124.5 31.5q-43 0 -85 -11t-74 -31.5t-52.5 -49t-20.5 -65.5z" />
<glyph unicode="&#x2089;" horiz-adv-x="796" d="M12 328q0 66 32 124t84 101t120.5 68.5t142.5 25.5q117 0 186.5 -69.5t69.5 -192.5q0 -117 -31.5 -218t-90 -177t-138.5 -120t-178 -44q-88 0 -150.5 39t-81.5 110l58 45q12 -59 63.5 -92.5t124.5 -33.5q115 0 205 92t127 258q-45 -66 -124 -106t-165 -40 q-115 0 -184.5 66t-69.5 164zM375 582q-55 0 -107.5 -19.5t-92.5 -52.5t-64.5 -77t-24.5 -91q0 -76 56.5 -128t144.5 -52q55 0 107 19.5t93 52t66 76.5t25 91q0 74 -57.5 127.5t-145.5 53.5z" />
<glyph unicode="&#x20a1;" horiz-adv-x="1073" d="M322 0q-125 45 -196 162t-71 268q0 113 39 216.5t105.5 188.5t156.5 145t193 87l53 254h62l-54 -244q37 6 76 6q14 0 27.5 -1t25.5 -3l52 242h63l-53 -252q92 -25 152.5 -84t82.5 -149l-106 -33q-27 88 -97.5 138t-168.5 50q-96 0 -186.5 -44t-161 -118.5t-112.5 -174 t-42 -210.5q0 -78 22.5 -146.5t62.5 -118.5t97 -78.5t125 -28.5q51 0 106.5 16t104.5 43t88 62.5t57 74.5l97 -28q-51 -90 -145.5 -156t-205.5 -90l-51 -240h-61l49 230q-14 -2 -27.5 -3t-25.5 -1q-20 0 -39 2t-35 6l-51 -234h-60z" />
<glyph unicode="&#x20a3;" horiz-adv-x="1212" d="M109 0l61 287h-178l16 86h180l230 1081h901l-21 -94h-796l-121 -578h674l-19 -90h-676l-67 -319h282l-16 -86h-285l-61 -287h-104z" />
<glyph unicode="&#x20a4;" horiz-adv-x="935" d="M133 784h180q-20 70 -40.5 135.5t-20.5 137.5q0 82 36 156.5t95 130t135 88t156 32.5q104 0 182 -58t113 -157l-76 -63q-29 88 -93.5 139t-146.5 51q-57 0 -111.5 -24.5t-97.5 -67.5t-68.5 -100.5t-25.5 -120.5q0 -70 21.5 -137.5t42.5 -141.5h354l-14 -69h-324 q4 -27 7 -56.5t3 -72.5h308l-15 -70h-299q-6 -45 -23.5 -89t-53 -95t-92 -111.5t-140.5 -136.5q78 16 145 16q43 0 77 -6t64.5 -13t62.5 -13.5t69 -6.5q72 0 188 39l8 -82q-115 -49 -221 -49q-43 0 -80 7.5t-72.5 15.5t-72.5 15t-82 7t-101.5 -8t-105.5 -20l-14 75 q94 82 157.5 145.5t103.5 116t60.5 98.5t26.5 95h-215l14 70h207q0 39 -4 69.5t-10 59.5h-211z" />
<glyph unicode="&#x20a6;" horiz-adv-x="1630" d="M1585 770h-164l-28 -133h163l-14 -70h-164l-121 -567h-94l-305 567h-520l-121 -567h-104l120 567h-165l14 70h166l28 133h-165l14 70h166l131 614h80l329 -614h500l131 612h105l-131 -612h163zM395 840h316l-226 417zM1190 174l84 393h-295zM352 637h467l-71 133h-367z M940 637h348l29 133h-449z" />
<glyph unicode="&#x20a9;" horiz-adv-x="2144" d="M106 745h289l-26 142h-232l15 69h202l-94 498h113l90 -498h563l-90 488h102l92 -529l318 529h102l-297 -488h566l303 498h112l-309 -498h205l-16 -69h-232l-86 -142h287l-15 -69h-315l-418 -676h-94l-143 748l-463 -748h-96l-131 676h-316zM1313 123l336 553h-443z M614 123l340 553h-442zM1040 887h-565l25 -142h497l54 86zM1178 831l16 -86h496l86 142h-566z" />
<glyph unicode="&#x20ac;" horiz-adv-x="1572" d="M322 840q39 121 113.5 233.5t176 198.5t228.5 138t270 52q92 0 167 -23.5t130 -65.5t92 -100.5t53 -127.5l-96 -49q-20 76 -58 127t-88 82.5t-108.5 46t-118.5 14.5q-119 0 -222 -44t-188 -116.5t-147.5 -168t-97.5 -197.5h700l-45 -70h-673q-8 -35 -13.5 -67.5 t-7.5 -65.5h623l-45 -70h-578q6 -100 38 -188t87 -153.5t131 -103.5t170 -38q61 0 130 16.5t136.5 51t131 89t116.5 128.5l78 -43q-51 -82 -125 -145.5t-157 -106.5t-171 -64.5t-168 -21.5q-117 0 -208 48t-155.5 129t-100 185.5t-39.5 216.5h-226l45 70h181q2 33 7 65.5 t13 67.5h-141l47 70h113z" />
<glyph unicode="&#x20b9;" horiz-adv-x="882" d="M918 1171h-189q4 -23 7 -45t3 -45q0 -90 -33.5 -177t-92 -157.5t-136.5 -119.5t-166 -62l224 -565h-119l-256 645h98q78 0 145.5 38t118.5 98.5t80 136t29 151.5q0 27 -4 52.5t-11 49.5h-417l14 70h375q-31 53 -80 86t-111 33h-159l20 94h719l-14 -70h-351 q33 -29 57.5 -65.5t41.5 -77.5h221z" />
<glyph unicode="&#x2113;" horiz-adv-x="663" d="M346 -12q-92 0 -142 52t-50 153v1056q0 57 16 105.5t45 84.5t66.5 56.5t83.5 20.5q90 0 145 -74t55 -193q0 -80 -26.5 -173t-70.5 -186t-101.5 -178t-118.5 -147v-356q0 -59 37 -94t100 -35q25 0 56.5 9t60.5 20l20 -82q-39 -16 -87 -27.5t-89 -11.5zM477 1237 q0 92 -28.5 142.5t-81.5 50.5t-86 -50.5t-33 -130.5v-569q45 55 87 128t73.5 149.5t50 149.5t18.5 130z" />
<glyph unicode="&#x2116;" horiz-adv-x="2205" d="M426 1257l-266 -1257h-105l310 1454h79l691 -1280l270 1278h104l-309 -1452h-94zM1831 719q-66 0 -117 24.5t-87 65.5t-55.5 95t-19.5 116q0 86 36 166t95.5 140t139.5 97t166 37q63 0 115.5 -23.5t88 -64.5t55 -96t19.5 -117q0 -86 -36 -165t-95 -140t-139 -98t-166 -37 zM1642 1030q0 -98 56.5 -165.5t148.5 -67.5q61 0 119.5 28.5t105 76.5t75 111.5t28.5 133.5q0 100 -55.5 167.5t-147.5 67.5q-61 0 -120.5 -28.5t-105.5 -76.5t-75 -111.5t-29 -135.5z" />
<glyph unicode="&#x2120;" horiz-adv-x="1363" d="M1294 1454h103l-123 -580h-76l98 463l-252 -376h-63l-92 376l-96 -463h-78l123 580h100l94 -399zM635 1331q-39 63 -133 64q-80 0 -116 -30t-36 -77q0 -35 37 -53t98 -35q66 -18 112 -48t46 -93q0 -96 -69.5 -143.5t-180.5 -47.5q-135 0 -211 88l49 60q55 -78 181 -78 q68 0 108.5 24.5t40.5 75.5q0 37 -32.5 56.5t-92.5 35.5q-70 20 -118 48t-48 90q0 92 71 144t175 52q113 0 170 -69z" />
<glyph unicode="&#x2122;" horiz-adv-x="1372" d="M723 1380h-184l-107 -506h-78l109 506h-184l16 78h444zM829 1454h101l92 -399l264 399h103l-123 -580h-76l98 463l-252 -376h-63l-92 376l-99 -463h-75z" />
<glyph unicode="&#x2126;" horiz-adv-x="1660" d="M119 96h411q-186 92 -291.5 266.5t-105.5 385.5q0 141 51.5 271t141.5 228.5t213 157.5t268 59q143 0 267 -59t213 -157.5t140.5 -228.5t51.5 -271q0 -211 -105.5 -385.5t-292.5 -266.5h414v-96h-592v96q113 27 201 93.5t147.5 156.5t91 194.5t31.5 207.5q0 115 -39 226 t-112.5 198.5t-179 140.5t-236.5 53q-133 0 -237.5 -53t-178.5 -140.5t-112.5 -199t-38.5 -225.5q0 -102 31.5 -207t91 -195t147.5 -156.5t201 -93.5v-96h-592v96z" />
<glyph unicode="&#x212e;" horiz-adv-x="1255" d="M621 37q141 0 242.5 45t160.5 111l37 -43q-72 -72 -179.5 -121t-260.5 -49q-121 0 -220.5 45t-170 120.5t-109.5 176t-39 210.5q0 113 40 213.5t110.5 176t170 120.5t218.5 45t219 -45t170.5 -121.5t110.5 -179t40 -219.5h-899v-307q63 -84 155.5 -131t203.5 -47z M621 1030q-111 0 -203 -48t-156 -134v-266h723v264q-66 86 -160.5 135t-203.5 49z" />
<glyph unicode="&#x2153;" horiz-adv-x="1628" d="M57 43l1379 1417l47 -47l-1379 -1419zM528 752l-14 -72h-379l15 72h159l140 659q-12 -12 -38 -29.5t-55.5 -33t-59.5 -25.5t-54 -10l14 71q31 0 67.5 16.5t67.5 37t52.5 39t23.5 20.5h74l-160 -745h147zM1112 -10q-49 0 -95 11t-82 34.5t-58.5 59.5t-22.5 83l55 41 q0 -59 56.5 -108.5t160.5 -49.5q53 0 102.5 13.5t86.5 37t58.5 55.5t21.5 71q0 66 -67.5 103.5t-188.5 37.5h-45l14 65h43q139 0 219 42t80 126q0 61 -53.5 99.5t-132.5 38.5q-82 0 -148.5 -33t-105.5 -86l-37 53q45 59 128 95t175 36q115 0 183.5 -54t68.5 -136 q0 -164 -219 -211q76 -12 117.5 -59.5t41.5 -112.5q0 -57 -29.5 -104.5t-79.5 -80t-114.5 -50t-132.5 -17.5z" />
<glyph unicode="&#x2154;" horiz-adv-x="1658" d="M100 682q16 78 44 136.5t68 101.5t91 73.5t115 55.5q51 20 106.5 38.5t101.5 44t74.5 63.5t28.5 95q0 55 -41 96t-129 41q-49 0 -91 -12t-76 -29.5t-59.5 -38t-41.5 -36.5l-39 49q6 8 32.5 30.5t69.5 46t100.5 42t129.5 18.5q117 0 172 -55.5t55 -134.5q0 -68 -27.5 -115 t-73.5 -81t-106.5 -57.5t-124.5 -43.5q-74 -25 -121 -57.5t-75.5 -67.5t-42 -70t-19.5 -63h471l-14 -70h-578zM164 43l1378 1417l47 -47l-1378 -1419zM1141 -10q-49 0 -95.5 11t-82 34.5t-58 59.5t-22.5 83l55 41q0 -59 56.5 -108.5t160.5 -49.5q53 0 102.5 13.5t86 37 t58 55.5t21.5 71q0 66 -67.5 103.5t-188.5 37.5h-45l15 65h43q139 0 219 42t80 126q0 61 -53.5 99.5t-133.5 38.5q-82 0 -148.5 -33t-105.5 -86l-37 53q45 59 128 95t176 36q115 0 183 -54t68 -136q0 -164 -219 -211q76 -12 118 -59.5t42 -112.5q0 -57 -29.5 -104.5t-80 -80 t-114.5 -50t-132 -17.5z" />
<glyph unicode="&#x215b;" horiz-adv-x="1626" d="M78 43l1378 1417l47 -47l-1378 -1419zM524 752l-14 -72h-379l14 72h160l139 659q-12 -12 -37.5 -29.5t-55 -33t-59.5 -25.5t-54 -10l14 71q31 0 67.5 16.5t67.5 37t52.5 39t23.5 20.5h74l-160 -745h147zM1110 -8q-119 0 -187.5 58.5t-68.5 142.5q0 47 20.5 85.5 t53.5 68.5t74.5 51.5t82.5 33.5q-51 18 -84.5 55t-33.5 91q0 53 29.5 95t75.5 71.5t102.5 45t111.5 15.5q45 0 88 -11.5t76 -34t52.5 -54t19.5 -72.5q0 -76 -58.5 -126t-136.5 -75q63 -23 104.5 -68t41.5 -110q0 -59 -31 -107.5t-82 -82t-116.5 -53t-133.5 -19.5zM1130 61 q45 0 93.5 13.5t87.5 38t63.5 60.5t24.5 79q0 35 -17.5 62.5t-45 46t-64.5 28.5t-74 10q-47 0 -95 -14t-87 -40t-63.5 -61.5t-24.5 -78.5q0 -35 17.5 -61.5t46 -45t65 -28t73.5 -9.5zM1212 461q39 0 80 11t76 30.5t57.5 48.5t22.5 65q0 57 -53.5 89t-124.5 32q-43 0 -85 -11 t-74 -31.5t-52.5 -49.5t-20.5 -65q0 -29 15.5 -50.5t40 -37t56 -23.5t62.5 -8z" />
<glyph unicode="&#x215c;" horiz-adv-x="1638" d="M391 670q-49 0 -95 12t-82 35.5t-58.5 58.5t-22.5 82l57 43q0 -59 55.5 -108.5t160.5 -49.5q53 0 102 13.5t86 37t59.5 55.5t22.5 71q0 66 -69.5 103.5t-188.5 37.5h-43l12 65h45q139 0 218 42t79 126q0 61 -53 98.5t-133 37.5t-146.5 -32t-105.5 -85l-39 53 q47 59 130 95t175 36q115 0 182.5 -54t67.5 -136q0 -166 -217 -211q74 -14 116 -61.5t42 -110.5q0 -57 -30 -104.5t-80 -80t-114.5 -51t-132.5 -18.5zM125 43l1378 1417l47 -47l-1378 -1419zM1116 -8q-119 0 -187.5 58.5t-68.5 142.5q0 47 20.5 85.5t53.5 68.5t75 51.5 t83 33.5q-51 18 -85 55t-34 91q0 53 29.5 95t75.5 71.5t102.5 45t111.5 15.5q45 0 88 -11.5t76 -34t52.5 -54t19.5 -72.5q0 -76 -58.5 -126t-136.5 -75q63 -23 104.5 -68t41.5 -110q0 -59 -31 -107.5t-82 -82t-116.5 -53t-133.5 -19.5zM1137 61q45 0 93 13.5t87 38 t63.5 60.5t24.5 79q0 35 -17.5 62.5t-45 46t-64.5 28.5t-74 10q-47 0 -95 -14t-87 -40t-63.5 -61.5t-24.5 -78.5q0 -35 17.5 -61.5t46 -45t65.5 -28t74 -9.5zM1219 461q39 0 79.5 11t75.5 30.5t57.5 48.5t22.5 65q0 57 -53 89t-125 32q-43 0 -85 -11t-74 -31.5t-52.5 -49.5 t-20.5 -65q0 -29 15.5 -50.5t40 -37t56.5 -23.5t63 -8z" />
<glyph unicode="&#x215d;" horiz-adv-x="1644" d="M500 1200q109 0 176 -58.5t67 -152.5q0 -68 -30.5 -125t-81.5 -98t-118 -63.5t-138 -22.5q-94 0 -161 42t-89 114l57 36q23 -57 78 -90.5t133 -33.5q55 0 104.5 17t87.5 48t60.5 74t22.5 92q0 78 -57.5 120t-131.5 42q-61 0 -122.5 -27t-102.5 -72h-68q14 33 44 100.5 t62 140.5t58.5 133.5t32.5 78.5h426l-16 -72h-371l-129 -290q43 35 96.5 51t110.5 16zM117 43l1378 1417l47 -47l-1378 -1419zM1124 -8q-119 0 -187.5 58.5t-68.5 142.5q0 47 20.5 85.5t53.5 68.5t75 51.5t83 33.5q-51 18 -85 55t-34 91q0 53 29.5 95t76 71.5t102.5 45 t111 15.5q45 0 88.5 -11.5t76 -34t52 -54t19.5 -72.5q0 -76 -58.5 -126t-136.5 -75q63 -23 104.5 -68t41.5 -110q0 -59 -31 -107.5t-82 -82t-116.5 -53t-133.5 -19.5zM1145 61q45 0 93 13.5t87 38t63.5 60.5t24.5 79q0 35 -17.5 62.5t-45 46t-64.5 28.5t-74 10 q-47 0 -95 -14t-87 -40t-63.5 -61.5t-24.5 -78.5q0 -35 17.5 -61.5t46 -45t65.5 -28t74 -9.5zM1227 461q39 0 80 11t75.5 30.5t57 48.5t22.5 65q0 57 -53 89t-125 32q-43 0 -85 -11t-73.5 -31.5t-52 -49.5t-20.5 -65q0 -29 15 -50.5t40 -37t56.5 -23.5t62.5 -8z" />
<glyph unicode="&#x215e;" horiz-adv-x="1615" d="M-6 43l1378 1417l47 -47l-1378 -1419zM1100 -8q-119 0 -187.5 58.5t-68.5 142.5q0 47 20.5 85.5t53 68.5t74.5 51.5t83 33.5q-51 18 -85 55t-34 91q0 53 30 95t76 71.5t102.5 45t111.5 15.5q45 0 88 -11.5t76 -34t52 -54t19 -72.5q0 -76 -58 -126t-136 -75 q63 -23 104 -68t41 -110q0 -59 -30.5 -107.5t-82 -82t-116.5 -53t-133 -19.5zM1120 61q45 0 93.5 13.5t87 38t63.5 60.5t25 79q0 35 -17.5 62.5t-45.5 46t-64.5 28.5t-73.5 10q-47 0 -95.5 -14t-87 -40t-63 -61.5t-24.5 -78.5q0 -35 17 -61.5t46 -45t65.5 -28t73.5 -9.5z M1202 461q39 0 80 11t76 30.5t57.5 48.5t22.5 65q0 57 -53.5 89t-124.5 32q-43 0 -85 -11t-74 -31.5t-52.5 -49.5t-20.5 -65q0 -29 15.5 -50.5t40 -37t56 -23.5t62.5 -8zM745 1423h-491l16 72h604l-622 -805h-82z" />
<glyph unicode="&#x2202;" horiz-adv-x="1159" d="M518 -20q-98 0 -180 32.5t-142.5 89t-93 133t-32.5 164.5q0 98 40 186.5t109.5 156t160.5 107.5t193 40q137 0 242 -75t137 -212q8 49 12.5 122t4.5 128q0 145 -25.5 244.5t-73 161t-114 88t-148.5 26.5q-104 0 -194 -36t-138 -93l-59 62q68 80 174.5 119.5t224.5 39.5 q223 0 337 -151.5t114 -495.5q0 -207 -40 -363.5t-112.5 -262t-173 -158.5t-223.5 -53zM518 72q92 0 167 36.5t127 95t80 130.5t28 139q0 68 -27 127t-74 103.5t-109.5 71t-136.5 26.5q-80 0 -153.5 -32t-128.5 -86t-89 -126t-34 -151q0 -70 25.5 -130.5t72.5 -105.5 t110.5 -71.5t141.5 -26.5z" />
<glyph unicode="&#x2206;" horiz-adv-x="1323" d="M1214 84v-84h-1228v84l571 1370h88zM1100 94l-498 1233l-502 -1233h1000z" />
<glyph unicode="&#x220f;" horiz-adv-x="1464" d="M1116 1360h-688v-1544h-100v1544h-176v94h1228v-94h-163v-1544h-101v1544z" />
<glyph unicode="&#x2211;" horiz-adv-x="1198" d="M1038 1366h-739v-8l438 -602l-456 -647v-9h788v-100h-915v84l469 661l-459 633v76h874v-88z" />
<glyph unicode="&#x2212;" horiz-adv-x="1124" d="M143 543v86h826v-86h-826z" />
<glyph unicode="&#x2215;" horiz-adv-x="1142" d="M-127 47l1393 1413l53 -53l-1393 -1413z" />
<glyph unicode="&#x2219;" horiz-adv-x="356" d="M109 508l45 207h88l-43 -207h-90z" />
<glyph unicode="&#x221a;" horiz-adv-x="808" d="M43 748h252l164 -648l252 1518h100l-293 -1618h-121l-188 668h-166v80z" />
<glyph unicode="&#x221e;" horiz-adv-x="1425" d="M432 1059q59 0 105.5 -18.5t81 -51.5t62.5 -75t50 -89q23 47 49.5 89t62.5 75t81 51.5t104 18.5q72 0 130.5 -26.5t99 -73t63 -109t22.5 -131.5q0 -70 -24.5 -131.5t-66.5 -107.5t-100 -72.5t-126 -26.5q-57 0 -101 18.5t-79 50t-61.5 72.5t-49.5 86q-23 -45 -49.5 -86 t-62 -72.5t-82.5 -50t-109 -18.5q-63 0 -120.5 26.5t-100.5 72.5t-68.5 108.5t-25.5 132.5t24.5 131t66.5 107.5t99 73t125 26.5zM432 467q51 0 90 20.5t70 54t56.5 79t47.5 96.5q-23 51 -48 98t-56 81t-70 54.5t-90 20.5q-41 0 -82 -15.5t-73.5 -46t-53 -78t-20.5 -110.5 t20.5 -111.5t53 -80t73.5 -47t82 -15.5zM1028 467q41 0 82 15.5t74 47t53 79.5t20 112q0 63 -20 110.5t-53 78t-74 46t-82 15.5q-53 0 -91 -21.5t-68.5 -57.5t-54 -83t-44.5 -100q23 -49 47.5 -93.5t55 -77t68.5 -52t87 -19.5z" />
<glyph unicode="&#x222b;" horiz-adv-x="579" d="M217 1386q-4 57 -5 76t-1 29q0 82 48 135t134 53q41 0 92.5 -12t92.5 -31l-27 -73q-29 12 -68 22t-61 10q-53 0 -85 -33.5t-32 -99.5v-25.5t4 -66.5l78 -1421q4 -55 4 -68.5v-19.5q0 -98 -48 -150.5t-134 -52.5q-39 0 -89 12.5t-91 30.5l26 74q31 -12 66 -22.5t61 -10.5 q53 0 85 38t32 109v15.5t-4 56.5z" />
<glyph unicode="&#x2248;" horiz-adv-x="907" d="M743 643q-27 -25 -62.5 -42t-88.5 -17q-51 0 -92 13t-78 29.5t-71 30t-68 13.5q-35 0 -57.5 -12.5t-37.5 -28.5l-51 57q23 27 57.5 45.5t86.5 18.5q45 0 83.5 -13.5t74.5 -29t72 -28.5t79 -13q74 0 104 30zM743 440q-27 -23 -62.5 -39t-88.5 -16q-51 0 -92 13.5t-78 29.5 t-71 29.5t-68 13.5q-35 0 -57.5 -12.5t-37.5 -28.5l-51 57q23 27 57.5 46.5t86.5 19.5q45 0 83.5 -13.5t74.5 -29.5t72 -29.5t79 -13.5q74 0 104 33z" />
<glyph unicode="&#x2260;" horiz-adv-x="958" d="M160 705h348l133 227l64 -21l-121 -206h188v-78h-235l-72 -123h307v-78h-354l-133 -227l-64 18l123 209h-184v78h229l72 123h-301v78z" />
<glyph unicode="&#x2264;" horiz-adv-x="937" d="M119 143v88h643v-88h-643zM119 770l629 317v-100l-480 -246l480 -245v-105l-629 318v61z" />
<glyph unicode="&#x2265;" horiz-adv-x="972" d="M147 231h644v-88h-644v88zM162 496l481 245l-481 246l-12 100l641 -317v-61l-629 -318v105z" />
<glyph unicode="&#x25ca;" horiz-adv-x="1005" d="M586 1495l381 -745l-381 -750h-113l-381 750l381 745h113zM864 725l-340 686l-321 -643l340 -680z" />
<glyph unicode="&#x25fc;" horiz-adv-x="1064" d="M0 1065h1065v-1065h-1065v1065z" />
<glyph unicode="&#xf6c3;" horiz-adv-x="278" d="M31 -383l59 139h-33l31 144h98l-28 -144l-72 -139h-55z" />
<glyph unicode="&#xfb06;" horiz-adv-x="1550" d="M352 -20q-127 0 -222 47t-150 112l63 70q135 -147 328 -148q57 0 117.5 14.5t110.5 45.5t82 77t32 111q0 74 -43 108t-108.5 50t-141.5 25.5t-141.5 32t-108.5 67.5t-43 135q0 94 41 161.5t105.5 110.5t142.5 63.5t153 20.5q68 0 126.5 -15t99.5 -48q-8 43 -16.5 84 t-8.5 88q0 59 17.5 120.5t60.5 111t114.5 80t180.5 30.5q127 0 173 -46t46 -138q0 -55 -12.5 -125t-28.5 -160h233l-18 -84h-233l-166 -778q-2 -10 -3 -16.5t-1 -10.5q0 -47 30.5 -69.5t77.5 -22.5q27 0 53.5 6t50 15.5t39 16.5t21.5 11l12 -82q-10 -4 -31.5 -15t-52 -21.5 t-66.5 -18.5t-73 -8q-74 0 -122 36.5t-48 104.5q0 16 2 33.5t6 34.5l168 784h-143l18 84h144q18 92 28 157.5t10 112.5q0 78 -33.5 106.5t-111.5 28.5q-84 0 -139 -24.5t-87 -64.5t-44.5 -92t-12.5 -105q0 -90 20.5 -155.5t31.5 -92.5l-68 -57q-43 74 -113.5 98t-142.5 24 q-59 0 -118.5 -13t-106.5 -43t-77 -76t-30 -113q0 -78 44 -115t109.5 -53.5t141.5 -25.5t141.5 -29.5t109.5 -65.5t44 -135t-43 -156.5t-109.5 -109.5t-148.5 -64.5t-162 -21.5z" />
<glyph horiz-adv-x="1148" d="M647 1116h82l248 -1116h-100l-80 358h-539l-231 -358h-103zM786 442l-124 553l-361 -553h485z" />
<glyph horiz-adv-x="1130" d="M283 1116h544q51 0 90 -19.5t65 -52t39 -74.5t13 -85q0 -102 -62.5 -187.5t-162.5 -124.5q78 -25 119 -88t41 -143q0 -74 -33 -136.5t-86 -108.5t-122 -71.5t-142 -25.5h-541zM602 84q51 0 100.5 21.5t87 58.5t61 83t23.5 95q0 72 -44 126t-121 54h-457l-92 -438h442z M682 604q49 0 95 21.5t82 56.5t56.5 81t20.5 95q0 72 -42 122t-114 50h-422l-88 -426h412z" />
<glyph horiz-adv-x="1169" d="M504 -10q-102 0 -182 41t-135.5 107.5t-84 152.5t-28.5 178q0 113 50 229.5t141 211t215 153.5t272 59q154 0 249 -68.5t125 -174.5l-88 -48q-16 57 -49 96.5t-75 63t-90 33.5t-97 10q-123 0 -225.5 -51t-175 -132t-113.5 -180.5t-41 -195.5q0 -80 24.5 -151.5t70.5 -127 t112.5 -87t148.5 -31.5q102 0 217 50t199 163l72 -41q-43 -63 -103.5 -111.5t-129 -81t-141 -50t-138.5 -17.5z" />
<glyph horiz-adv-x="1220" d="M283 1116h387q115 0 199.5 -33.5t140 -92t82 -138.5t26.5 -172q0 -147 -51 -272t-143.5 -215.5t-217 -141.5t-272.5 -51h-389zM451 86q133 0 238.5 47t179 127t112.5 185.5t39 220.5q0 160 -92 261t-277 101h-293l-198 -942h291z" />
<glyph horiz-adv-x="1042" d="M283 1116h757l-18 -88h-664l-88 -418h580l-19 -82h-577l-94 -442h676l-19 -86h-772z" />
<glyph horiz-adv-x="1024" d="M283 1116h753l-18 -88h-660l-88 -422h559l-18 -84h-559l-111 -522h-96z" />
<glyph horiz-adv-x="1437" d="M612 -10q-121 0 -216 49t-160.5 132t-100.5 192.5t-35 228.5q0 166 69 322.5t183.5 278.5t263 196.5t310.5 74.5q174 0 289.5 -88t168.5 -229l-94 -68q-20 57 -55 110.5t-84 92.5t-112.5 62.5t-139.5 23.5q-141 0 -267 -68.5t-221.5 -178t-150.5 -247t-55 -274.5 q0 -102 27.5 -194.5t82 -164t133 -113.5t181.5 -42q106 0 205.5 43t183.5 115.5t148.5 166t99.5 193.5h-428l20 94h541l-17 -65q-29 -113 -101.5 -227.5t-176 -207t-230.5 -150.5t-262 -58z" />
<glyph horiz-adv-x="1212" d="M920 168q-197 -176 -416 -176q-100 0 -180 40t-135.5 106.5t-85 151.5t-29.5 177q0 123 54 240.5t145.5 210t211 148.5t252.5 56q170 0 261.5 -67.5t125.5 -173.5l-88 -50q-35 106 -118.5 155.5t-202.5 49.5q-115 0 -214.5 -50t-173 -131t-115.5 -181.5t-42 -200.5 q0 -80 25.5 -151.5t72.5 -126t112.5 -85t147.5 -30.5q205 0 414 190l43 199h-258l14 76h342l-114 -545h-84z" />
<glyph horiz-adv-x="1253" d="M283 1116h96l-107 -502h711l104 502h97l-238 -1116h-94l111 526h-711l-111 -526h-96z" />
<glyph horiz-adv-x="448" d="M283 1114h94l-236 -1114h-96z" />
<glyph horiz-adv-x="837" d="M172 -16q-150 0 -235 67l45 78q33 -25 86 -42t122 -17q92 0 154 31.5t102.5 93t68.5 150.5t52 204l121 565h94l-120 -565q-27 -127 -61 -231.5t-88 -178t-136 -114.5t-205 -41z" />
<glyph horiz-adv-x="1085" d="M283 1114h94l-139 -661l796 663h111l-582 -489l369 -627h-107l-336 567l-274 -223l-74 -344h-96z" />
<glyph horiz-adv-x="964" d="M283 1116h96l-219 -1030h661l-16 -86h-760z" />
<glyph horiz-adv-x="415" d="M98 1321l156 174h117l-209 -207z" />
<glyph d="M283 1116h96l305 -780l633 780h96l-237 -1116h-95l199 940l-594 -731h-59l-287 731l-199 -940h-96z" />
<glyph horiz-adv-x="1312" d="M283 1116h73l588 -952l203 950h94l-235 -1114h-86l-580 936l-199 -936h-96z" />
<glyph horiz-adv-x="1275" d="M506 -8q-104 0 -185 39t-136.5 103.5t-84 149.5t-28.5 177q0 125 56 244.5t150.5 212t216 148.5t253.5 56q104 0 184 -40t134 -105.5t83 -150.5t29 -175q0 -127 -56.5 -245.5t-149.5 -211t-214 -147.5t-252 -55zM526 80q115 0 216.5 50t176 131t118.5 181.5t44 200.5 q0 78 -24.5 148.5t-69.5 125t-111.5 86t-148.5 31.5q-115 0 -215 -50t-177 -131t-121 -181.5t-44 -200.5q0 -78 23.5 -148.5t69.5 -125t112.5 -86t150.5 -31.5z" />
<glyph horiz-adv-x="1064" d="M283 1116h475q63 0 114.5 -24.5t86 -66.5t53 -94t18.5 -108q0 -74 -32.5 -147.5t-88 -131t-130 -93t-158.5 -35.5h-392l-88 -416h-96zM635 502q63 0 117.5 27.5t94.5 71.5t62.5 99.5t22.5 110.5q0 92 -53.5 154.5t-143.5 62.5h-377l-110 -526h387z" />
<glyph horiz-adv-x="1273" d="M854 98q-78 -51 -167 -78.5t-181 -27.5q-104 0 -185 39t-136.5 103.5t-84 149.5t-28.5 177q0 125 56 244.5t150.5 212t216 148.5t253.5 56q104 0 184 -40t134 -105.5t83 -150.5t29 -175q0 -143 -71 -275t-187 -229l96 -147h-98zM526 80q78 0 148.5 24.5t134.5 65.5 l-107 166h97l73 -117q94 84 150.5 196.5t56.5 227.5q0 78 -23.5 149.5t-69.5 126t-111.5 86t-147.5 31.5q-115 0 -216 -50t-177 -131t-120 -182.5t-44 -201.5q0 -78 23.5 -148.5t69.5 -125t112.5 -86t150.5 -31.5z" />
<glyph horiz-adv-x="1114" d="M283 1116h483q63 0 114.5 -24.5t86 -66.5t53 -94t18.5 -108q0 -68 -26.5 -133t-73.5 -118.5t-109.5 -90.5t-134.5 -49l195 -432h-111l-186 416h-363l-88 -416h-96zM641 502q61 0 115.5 27.5t95.5 71.5t64.5 99.5t23.5 110.5q0 88 -53 152.5t-146 64.5h-383l-110 -526h393 z" />
<glyph horiz-adv-x="1038" d="M408 -10q-264 0 -422 164l67 77q55 -72 149.5 -114.5t227.5 -42.5q160 0 257 60.5t97 180.5q0 86 -77.5 128t-229.5 75q-76 16 -135 35.5t-99 47.5t-60.5 66t-20.5 91q0 86 37 153.5t101.5 114.5t151.5 71.5t189 24.5q113 0 193.5 -31.5t138.5 -97.5l-62 -75 q-45 59 -114.5 89.5t-173.5 30.5q-96 0 -164 -19.5t-112 -54t-64.5 -80.5t-20.5 -102q0 -39 17.5 -66.5t53.5 -48t90 -37t126 -32.5q76 -16 139.5 -36.5t107.5 -49.5t68.5 -70t24.5 -100q0 -86 -36 -152.5t-100.5 -110.5t-152.5 -66.5t-192 -22.5z" />
<glyph horiz-adv-x="1032" d="M555 1028h-420l19 88h931l-20 -88h-414l-219 -1028h-96z" />
<glyph horiz-adv-x="1275" d="M508 -8q-106 0 -180 29.5t-119 82t-64.5 121t-19.5 148.5q0 45 5 90t15 92l119 561h96l-118 -561q-18 -84 -19 -166q0 -66 15.5 -122t50.5 -97t93 -65.5t142 -24.5q113 0 197 41t142.5 108.5t94 152.5t54.5 173l118 561h95l-119 -561q-25 -113 -71 -215t-119.5 -179 t-175 -123t-232.5 -46z" />
<glyph horiz-adv-x="1144" d="M143 1116h103l219 -985l635 985h102l-725 -1116h-84z" />
<glyph horiz-adv-x="2037" d="M211 1454h115l110 -1304l686 1304h113l145 -1304l666 1304h117l-752 -1454h-111l-157 1284l-688 -1284h-111z" />
<glyph horiz-adv-x="1740" d="M143 1116h105l223 -999l338 516l-102 475h92l82 -401l256 401h92l-303 -475l118 -516l650 999h104l-729 -1116h-86l-131 561l-369 -561h-86z" />
<glyph horiz-adv-x="1071" d="M467 551l-328 565h109l289 -495l497 495h109l-570 -565l320 -551h-107l-280 479l-481 -479h-109z" />
<glyph horiz-adv-x="1069" d="M436 420l-301 696h105l262 -610l524 610h107l-603 -698l-88 -418h-96z" />
<glyph horiz-adv-x="1064" d="M-43 78l1010 950h-795l18 88h908l-17 -78l-1001 -952h794l-18 -86h-915z" />
<glyph horiz-adv-x="1208" d="M432 -20q-90 0 -160.5 35.5t-119 97t-74 142.5t-25.5 169q0 129 52.5 249t137.5 211t193.5 145t222.5 54q129 0 215.5 -70.5t120.5 -181.5l49 228h103l-225 -1059h-103l49 225q-84 -111 -196.5 -178t-239.5 -67zM471 72q66 0 127 22.5t115.5 60.5t100.5 90t81 111l74 344 q-10 61 -36 114.5t-65 92.5t-91 61.5t-113 22.5q-100 0 -191.5 -50t-160 -130t-109.5 -178t-41 -195q0 -74 20.5 -140.5t60.5 -116.5t97 -79.5t131 -29.5z" />
<glyph horiz-adv-x="1048" d="M268 -20q-61 0 -111.5 20t-86 57t-55 86.5t-19.5 106.5q0 100 47 172t121 117t161 65.5t167 20.5q113 0 189.5 -20.5t111.5 -37.5l22 105q6 25 8 47t2 45q0 111 -62.5 174t-178.5 63q-76 0 -165 -32.5t-188 -94.5l-22 70q96 59 196.5 99t202.5 40q162 0 241 -84t79 -219 q0 -55 -13 -116l-141 -664h-98l35 172q-92 -100 -210 -146t-233 -46zM305 61q47 0 99.5 10.5t103.5 30t97 50t83 73.5q41 47 49 82l39 189q-66 29 -139.5 43t-147.5 14q-63 0 -131.5 -14.5t-127 -48t-96.5 -87t-38 -133.5q0 -96 60.5 -152.5t148.5 -56.5z" />
<glyph horiz-adv-x="1679" d="M451 -20q-96 0 -170 37.5t-124.5 100t-77 144.5t-26.5 170q0 119 49.5 235.5t133 209t196.5 149.5t242 57q96 0 159.5 -24.5t108.5 -67.5q-16 39 -29.5 92.5t-13.5 110.5q0 68 24.5 130t69.5 108.5t109.5 74t144.5 27.5q141 0 191.5 -53.5t50.5 -145.5 q0 -55 -12.5 -123.5t-28.5 -146.5h235l-18 -84h-235l-166 -778q-2 -8 -2 -23q0 -47 30.5 -71.5t73.5 -24.5q49 0 92 16.5t76 32.5l10 -82q-47 -23 -102.5 -43t-124.5 -20q-72 0 -119 36.5t-47 108.5q0 20 6 45l170 803h-141l16 84h144q14 68 26 130t12 116q0 72 -35.5 115.5 t-136.5 43.5q-63 0 -110 -23.5t-79 -62t-48.5 -89t-16.5 -101.5q0 -49 10.5 -103.5t24 -103.5t25.5 -89t16 -62l-106 -33q-29 98 -101.5 143t-175.5 45q-104 0 -193 -50t-155.5 -129t-104.5 -176t-38 -192q0 -76 22.5 -143.5t62.5 -118.5t97 -80.5t127 -29.5q43 0 95 13 t103.5 39t93.5 62.5t64 81.5l95 -28q-35 -63 -89.5 -111.5t-118 -81.5t-132 -50t-129.5 -17z" />
<glyph horiz-adv-x="1202" d="M438 -20q-90 0 -161.5 36.5t-121 98t-75 142.5t-25.5 171q0 125 49.5 242.5t132 210t189 147.5t223.5 55q66 0 119 -20.5t95 -54t74 -78.5t54 -96l139 661h103l-318 -1495h-102l45 207q-82 -102 -194.5 -164.5t-225.5 -62.5zM475 72q53 0 118.5 22.5t126 62.5t107.5 91 t64 110l74 351q-6 59 -35 110t-72 90t-96 60.5t-109 21.5q-100 0 -189 -49t-156.5 -128t-106.5 -176t-39 -194q0 -76 22.5 -143.5t63.5 -118.5t98 -80.5t129 -29.5z" />
<glyph horiz-adv-x="1157" d="M1016 463q0 -106 -49 -194.5t-131 -151t-185.5 -97t-212.5 -34.5q-90 0 -161.5 27.5t-122 74.5t-77 111.5t-26.5 136.5q0 86 35 158.5t89 129t122 96.5t133 60q-78 33 -130 100.5t-52 159.5q0 98 47 175t122 130.5t165 81t176 27.5q68 0 132 -20.5t114.5 -58.5t80 -94 t29.5 -128q0 -70 -27.5 -128t-71.5 -105.5t-101.5 -82t-118.5 -57.5q96 -37 158.5 -119.5t62.5 -197.5zM911 459q0 66 -26.5 117t-70.5 86.5t-100.5 54t-113.5 18.5q-74 0 -152.5 -28.5t-143 -78.5t-106.5 -121t-42 -157q0 -66 26.5 -116t70.5 -85.5t99.5 -54t112.5 -18.5 q74 0 153.5 27.5t144 77.5t106.5 121t42 157zM350 1047q0 -55 23.5 -97.5t62.5 -71t87 -44t98 -15.5q61 0 129.5 21.5t125 61.5t94.5 98.5t38 134.5q0 53 -21.5 95t-59.5 70.5t-87 44t-105 15.5q-70 0 -138.5 -22.5t-123.5 -63.5t-89 -98t-34 -129z" />
<glyph horiz-adv-x="1097" d="M395 -20q-147 0 -247.5 78.5t-133.5 207.5l84 43q31 -106 115 -170.5t201 -64.5q88 0 171 34.5t147.5 96t102 144.5t37.5 179q0 133 -77.5 216t-206.5 83q-98 0 -194.5 -46t-170.5 -132h-98q6 14 23.5 57.5t41 102.5t52 130t57.5 142q68 168 150 373h663l-20 -96h-586 l-227 -576q72 66 158.5 102t178.5 36q80 0 147.5 -28t115 -77t74 -117.5t26.5 -150.5q0 -123 -50 -227.5t-131 -180.5t-186.5 -117.5t-216.5 -41.5z" />
<glyph horiz-adv-x="733" d="M492 1200q109 0 176 -58.5t67 -152.5q0 -68 -30.5 -125t-82 -98t-118 -63.5t-137.5 -22.5q-94 0 -161 42t-89 114l57 36q23 -57 78 -90.5t133 -33.5q55 0 104.5 17t87 48t60 74t22.5 92q0 78 -57 120t-131 42q-61 0 -122.5 -27t-102.5 -72h-68q14 33 44 100.5t61.5 140.5 t58.5 133.5t33 78.5h426l-17 -72h-370l-129 -290q43 35 96.5 51t110.5 16z" />
<glyph horiz-adv-x="772" d="M250 -8q-119 0 -187.5 58.5t-68.5 142.5q0 47 20.5 85.5t53 68.5t74.5 51.5t83 33.5q-51 18 -85 55t-34 91q0 53 30 95t76 71.5t102.5 45t111.5 15.5q45 0 88 -11.5t76 -34t52.5 -54t19.5 -72.5q0 -76 -58.5 -126t-136.5 -75q63 -23 104 -68t41 -110q0 -59 -30.5 -107.5 t-81.5 -82t-116.5 -53t-133.5 -19.5zM270 61q45 0 93.5 13.5t87 38t63.5 60.5t25 79q0 35 -17.5 62.5t-45 46t-64.5 28.5t-74 10q-47 0 -95 -14t-87 -40t-63.5 -61.5t-24.5 -78.5q0 -35 17 -61.5t46 -45t65.5 -28t73.5 -9.5zM352 461q39 0 80 11t76 30.5t57.5 48.5t22.5 65 q0 57 -53.5 89t-124.5 32q-43 0 -85 -11t-74 -31.5t-52.5 -49.5t-20.5 -65q0 -29 15.5 -50.5t40 -37t56 -23.5t62.5 -8z" />
<glyph horiz-adv-x="1103" d="M625 0l86 406h-701l21 90l934 958h71l-202 -954h172l-21 -94h-172l-86 -406h-102zM739 500l168 790l-762 -790h594z" />
<glyph horiz-adv-x="411" d="M250 1059h102l-317 -1495h-103zM338 1473h102l-34 -166h-103z" />
<glyph horiz-adv-x="440" d="M354 1495h103l-318 -1495h-102z" />
<glyph horiz-adv-x="1198" d="M154 877q0 119 51 225t135 187t192.5 128t225.5 47q180 0 283.5 -118.5t103.5 -327.5q0 -201 -52.5 -388.5t-145.5 -331.5t-224 -231t-291 -87q-137 0 -230 75.5t-118 206.5l82 55q16 -111 94 -177t193 -66q90 0 174 46t155.5 135t128 217t93.5 294q-37 -66 -88.5 -120 t-113 -93t-130 -60.5t-137.5 -21.5q-86 0 -156 32t-120 87t-77.5 129t-27.5 158zM737 1374q-90 0 -176 -39t-153.5 -104.5t-108.5 -152.5t-41 -181q0 -70 22.5 -131t62.5 -107.5t97.5 -73t124.5 -26.5q88 0 175 39t155 105.5t110 152.5t42 180q0 70 -23 131.5t-63.5 107.5 t-98 72.5t-125.5 26.5z" />
<glyph horiz-adv-x="768" d="M18 94h261l266 1258q-20 -25 -62.5 -54.5t-91.5 -57.5t-99 -46t-89 -18l20 96q51 0 111.5 29.5t112 66.5t87 68.5t37.5 36.5h105l-293 -1379h246l-21 -94h-610z" />
<glyph horiz-adv-x="518" d="M506 752l-14 -72h-379l14 72h160l139 659q-12 -12 -38 -29.5t-55.5 -33t-59 -25.5t-54.5 -10l14 71q31 0 68 16.5t67.5 37t52 39t23.5 20.5h74l-160 -745h148z" />
<glyph horiz-adv-x="753" d="M-53 0q33 156 112.5 239t210.5 130q51 18 107.5 36.5t102.5 44t76 63.5t30 95t-41 97t-131 40q-51 0 -93 -12t-77 -29.5t-60.5 -38t-44.5 -38.5l-39 51q8 8 35 30.5t70 46t101.5 42t129.5 18.5q121 0 176.5 -55t55.5 -135q0 -68 -28 -115t-74 -80t-107.5 -56.5 t-126.5 -45.5q-74 -25 -122 -57.5t-77 -67.5t-43 -70t-20 -63h485l-16 -70h-592v0z" />
<glyph horiz-adv-x="743" d="M414 217h-447l15 66l579 522h49l-110 -518h110l-14 -70h-111l-47 -217h-69zM430 287l88 413l-455 -413h367z" />
<glyph horiz-adv-x="759" d="M238 -10q-49 0 -95.5 11t-82 34.5t-58 59.5t-22.5 83l55 41q0 -59 56 -108.5t161 -49.5q53 0 102 13.5t86 37t58.5 55.5t21.5 71q0 66 -67.5 103.5t-188.5 37.5h-45l14 65h43q139 0 219 42t80 126q0 61 -53 99.5t-133 38.5q-82 0 -148.5 -33t-105.5 -86l-37 53 q45 59 128 95t175 36q115 0 183.5 -54t68.5 -136q0 -164 -219 -211q76 -12 118 -59.5t42 -112.5q0 -57 -29.5 -104.5t-80 -80t-114.5 -50t-132 -17.5z" />
<glyph horiz-adv-x="1200" d="M860 229q-209 -250 -446 -249q-88 0 -154.5 35.5t-113 96t-70 139.5t-23.5 167q0 131 53.5 250.5t139.5 212t196.5 147.5t227.5 55q119 0 207 -66.5t124 -166.5l46 215h94l-320 -1501h-102zM459 72q63 0 123.5 22.5t115 59t101.5 87t86 105.5l80 369q-4 53 -27 103 t-62.5 88t-93 61.5t-114.5 23.5q-100 0 -191.5 -49t-162 -128t-112.5 -178t-42 -202q0 -74 20.5 -139.5t59.5 -115.5t94 -78.5t125 -28.5z" />
<glyph horiz-adv-x="995" d="M975 1358h-770l18 96h938l-1014 -1454h-114z" />
<glyph horiz-adv-x="675" d="M711 1423h-492l17 72h604l-623 -805h-82z" />
<glyph horiz-adv-x="1198" d="M485 -20q-178 0 -282.5 118.5t-104.5 327.5q0 203 52.5 390.5t146.5 331.5t225 230t291 86q137 0 230.5 -75.5t115.5 -206.5l-82 -56q-16 111 -93 178.5t-193 67.5q-90 0 -174.5 -46t-156 -135t-128 -218t-92.5 -295q37 66 89 120t113.5 93t129 60.5t137.5 21.5 q86 0 156.5 -32t119.5 -86t77 -128t28 -160q0 -119 -51.5 -225t-135.5 -187t-192.5 -128t-225.5 -47zM508 72q90 0 176 39t153.5 104.5t108.5 151.5t41 182q0 70 -22.5 131t-63.5 106t-97 72t-124 27q-90 0 -176 -39t-153.5 -105.5t-109.5 -152.5t-42 -180 q0 -70 22.5 -131.5t63.5 -106.5t98 -71.5t125 -26.5z" />
<glyph horiz-adv-x="600" d="M276 971h-147l21 94h147l78 367h104l-78 -367h242l-20 -94h-242l-207 -971h-104z" />
<glyph horiz-adv-x="1140" d="M430 -18q-88 0 -160.5 23.5t-125 68.5t-81 111.5t-28.5 150.5l78 47q0 -141 90 -223t243 -82q86 0 165 26.5t140.5 73.5t97.5 111.5t36 138.5q0 125 -104.5 195.5t-291.5 70.5h-65l18 92h68q225 0 353 86t128 242q0 123 -78.5 193.5t-212.5 70.5q-125 0 -233.5 -60.5 t-165.5 -156.5l-61 66q37 57 91 102t117.5 77t134 49.5t142.5 17.5q86 0 155.5 -26t119 -71t76 -108.5t26.5 -139.5q0 -141 -90 -242.5t-262 -142.5q115 -25 178 -108.5t63 -196.5q0 -100 -48 -184t-127 -144.5t-180.5 -94t-205.5 -33.5z" />
<glyph horiz-adv-x="757" d="M381 670q-49 0 -95 12t-82 35.5t-58.5 58.5t-22.5 82l57 43q0 -59 55.5 -108.5t159.5 -49.5q53 0 102.5 13.5t86.5 37t59.5 55.5t22.5 71q0 66 -70 103.5t-188 37.5h-43l12 65h45q139 0 218 42t79 126q0 61 -53.5 98.5t-133.5 37.5t-146.5 -32t-104.5 -85l-39 53 q47 59 130 95t175 36q115 0 182.5 -54t67.5 -136q0 -166 -217 -211q74 -14 115.5 -61.5t41.5 -110.5q0 -57 -29.5 -104.5t-79.5 -80t-114.5 -51t-132.5 -18.5z" />
<glyph horiz-adv-x="1120" d="M-31 0q25 141 73 246.5t114.5 183.5t151.5 133t184 99q84 35 175 68.5t165.5 81.5t124 122t49.5 188q0 51 -15.5 97.5t-47.5 81t-82 55t-120 20.5q-80 0 -148.5 -23.5t-124.5 -57t-99 -71.5t-70 -69l-55 64q8 10 50 51t111.5 86t163 81t205.5 36q88 0 153.5 -27 t108.5 -73t63.5 -106.5t20.5 -127.5q0 -125 -52 -213t-132 -149.5t-176 -103.5t-182 -77q-129 -51 -213 -111.5t-135.5 -126t-76 -133t-36.5 -131.5h788l-18 -94h-918v0z" />
<glyph horiz-adv-x="751" d="M92 682q16 78 45 136.5t69 101.5t91 73.5t117 55.5q53 20 109.5 38.5t102.5 44t75.5 63.5t29.5 95q0 55 -42 96t-132 41q-49 0 -92 -12t-77 -29.5t-60.5 -38t-42.5 -36.5l-39 49q6 8 32.5 30.5t70.5 46t102.5 42t130.5 18.5q121 0 176 -55.5t55 -134.5q0 -68 -28.5 -115 t-74.5 -81t-107.5 -57.5t-125.5 -43.5q-74 -25 -122 -57.5t-76.5 -67.5t-43 -70t-20.5 -63h477l-14 -70h-586z" />
<glyph horiz-adv-x="1144" d="M342 -20q-74 0 -123 20t-79.5 57t-43 86.5t-12.5 108.5q0 47 7 96t18 103l131 614h102l-129 -600q-10 -47 -16.5 -92t-6.5 -86q0 -96 43 -155.5t156 -59.5q66 0 132.5 25.5t126 70.5t109.5 102.5t83 122.5l143 672h102l-227 -1065h-100l53 248q-43 -61 -98.5 -110.5 t-116.5 -85.5t-126 -54t-128 -18z" />
<glyph horiz-adv-x="1591" d="M135 1065h109l108 -934l484 934h100l86 -934l506 934h106l-585 -1065h-105l-90 913l-479 -913h-107z" />
<glyph horiz-adv-x="1024" d="M74 -436q0 2 16 27.5t40 65.5t53.5 89t58 97t53 90t41.5 67l-223 1065h106l193 -965l577 965h101l-906 -1501h-110v0z" />
<glyph horiz-adv-x="1335" d="M532 -20q-113 0 -193.5 52t-132.5 135t-77 186.5t-25 207.5q0 100 27 206.5t76 205t116.5 186.5t150.5 153.5t177 103.5t195 38q113 0 193.5 -53t133 -137t76 -187.5t23.5 -206.5q0 -154 -58.5 -311.5t-160 -286.5t-235.5 -210.5t-286 -81.5zM553 76q133 0 245.5 77.5 t193.5 195.5t127 255t46 256q0 92 -20.5 182.5t-62.5 160t-106.5 112.5t-150.5 43q-90 0 -171 -37t-148.5 -100.5t-121.5 -145.5t-92 -173t-58.5 -183t-20.5 -174q0 -92 19.5 -177t60.5 -149.5t105.5 -103.5t154.5 -39z" />
<glyph horiz-adv-x="288" d="M33 -309l39 184h94l-39 -184h-94z" />
<glyph horiz-adv-x="888" d="M313 -10q-76 0 -130 29.5t-90 77.5t-52 107.5t-16 119.5q0 82 35.5 168t99 155.5t146.5 113.5t179 44q76 0 129.5 -31t88 -78t51 -107.5t16.5 -117.5q0 -84 -36 -169t-97.5 -154.5t-145.5 -113.5t-178 -44zM328 61q82 0 150.5 40t116.5 99.5t74.5 129t26.5 131.5 q0 51 -14 99t-42 87t-71 62.5t-100 23.5q-84 0 -151.5 -40t-115.5 -99t-75 -130t-27 -132q0 -49 13.5 -98.5t42 -87t71 -61.5t101.5 -24z" />
<glyph horiz-adv-x="536" d="M-18 70h170l139 661q-12 -14 -39 -30.5t-57.5 -32t-63.5 -25.5t-57 -10l14 72q33 0 71 16t70.5 36.5t55 39t24.5 20.5h74l-158 -747h158l-14 -70h-402z" />
<glyph horiz-adv-x="733" d="M221 -10q-96 0 -162.5 42t-89.5 111l60 39q23 -57 78 -91t133 -34q55 0 104 17.5t87 48.5t60.5 74t22.5 92q0 78 -57.5 120t-130.5 42q-61 0 -123 -27t-103 -72h-69q14 33 43.5 100.5t61.5 140.5t58.5 133t32.5 79h428l-16 -72h-371l-129 -291q43 35 96.5 51.5 t110.5 16.5q109 0 175.5 -58.5t66.5 -152.5q0 -68 -31 -124t-82 -98t-117.5 -64.5t-136.5 -22.5z" />
<glyph horiz-adv-x="794" d="M276 -10q-117 0 -185 69.5t-68 192.5q0 117 31.5 218t90 177t139.5 120t177 44q86 0 148.5 -39t80.5 -110l-55 -46q-14 57 -65.5 92t-123.5 35q-117 0 -205.5 -91t-125.5 -261q43 66 122.5 107t163.5 41q115 0 183.5 -65.5t68.5 -164.5q0 -66 -31.5 -124t-84 -101 t-120 -68.5t-141.5 -25.5zM295 55q55 0 106.5 19.5t92.5 52.5t65.5 77t24.5 91q0 74 -56.5 127t-146.5 53q-55 0 -107.5 -19.5t-93.5 -52t-65.5 -76.5t-24.5 -91q0 -74 57.5 -127.5t147.5 -53.5z" />
<glyph horiz-adv-x="675" d="M565 733h-491l16 72h604l-622 -805h-82z" />
<glyph horiz-adv-x="794" d="M244 -10q-90 0 -151.5 39t-80.5 110l58 45q12 -59 63 -93t125 -34q115 0 205 92.5t127 258.5q-45 -66 -124 -106t-165 -40q-115 0 -184.5 65.5t-69.5 164.5q0 66 32 124t84 101t120.5 68.5t142.5 25.5q117 0 186.5 -69.5t69.5 -192.5q0 -117 -32 -218.5t-90 -177 t-138 -119.5t-178 -44zM322 326q55 0 107 19.5t93 52t65.5 76.5t24.5 91q0 74 -57 127t-145 53q-55 0 -107.5 -19t-92.5 -52t-64.5 -77t-24.5 -91q0 -76 56.5 -128t144.5 -52z" />
<glyph horiz-adv-x="886" d="M459 680q-76 0 -130.5 29.5t-90 77t-52 107.5t-16.5 120q0 82 36 168t99.5 155.5t146.5 113.5t179 44q76 0 129 -30.5t88 -78t51 -107.5t16 -118q0 -84 -35.5 -170t-97 -154.5t-144.5 -112.5t-179 -44zM246 1022q0 -49 13 -98.5t42 -87t71 -61t101 -23.5q82 0 150.5 39.5 t116.5 99t75 129.5t27 131q0 51 -14.5 99t-42 87t-69.5 62.5t-100 23.5q-84 0 -152.5 -40t-116.5 -99t-74.5 -130t-26.5 -132z" />
<glyph horiz-adv-x="745" d="M516 690l45 215h-446l14 68l580 522h49l-111 -518h113l-17 -72h-110l-45 -215h-72zM211 977h367l88 414z" />
<glyph horiz-adv-x="794" d="M801 993q0 -66 -32 -124t-84 -102t-120.5 -69.5t-142.5 -25.5q-117 0 -186.5 69.5t-69.5 192.5q0 117 32.5 218t91 178t139.5 121t177 44q86 0 148.5 -39t81.5 -110l-58 -46q-12 57 -63 92t-125 35q-115 0 -204 -92t-126 -260q41 66 122 106t165 40q115 0 184.5 -65 t69.5 -163zM438 739q55 0 107.5 19.5t93.5 52.5t65.5 77t24.5 91q0 74 -56.5 127t-146.5 53q-55 0 -108 -19.5t-93 -52t-64.5 -76.5t-24.5 -91q0 -76 57 -128.5t145 -52.5z" />
<glyph horiz-adv-x="772" d="M758 944q0 -59 -31 -107.5t-81 -83t-115.5 -54t-133.5 -19.5q-121 0 -189.5 59.5t-68.5 143.5q0 47 20.5 85t54.5 68.5t76 52t83 33.5q-49 18 -85 55t-36 91q0 53 29.5 95t77 71.5t103.5 45t111 15.5q45 0 87 -11t75 -34t52.5 -54.5t19.5 -72.5q0 -76 -57.5 -126 t-135.5 -75q63 -23 103.5 -67.5t40.5 -110.5zM686 942q0 35 -17.5 62.5t-45 46t-63.5 29t-73 10.5q-47 0 -96 -14.5t-88 -40t-63.5 -60.5t-24.5 -78q0 -35 17.5 -61.5t46 -45t65.5 -28.5t74 -10q45 0 93 13t87 37.5t63.5 60.5t24.5 79zM326 1270q0 -29 15 -50.5t40 -37 t55.5 -23.5t63.5 -8q37 0 79 10t76.5 30.5t57 49.5t22.5 66q0 57 -53 88.5t-125 31.5q-43 0 -85 -11t-73.5 -31.5t-52 -49t-20.5 -65.5z" />
<glyph horiz-adv-x="794" d="M193 1176q0 66 31.5 124t83.5 101t121 68.5t142 25.5q117 0 186.5 -69.5t69.5 -192.5q0 -117 -31.5 -218.5t-90 -178t-139.5 -120.5t-179 -44q-86 0 -148.5 40t-80.5 111l57 43q12 -57 63.5 -92t124.5 -35q115 0 204 92.5t126 260.5q-41 -66 -122 -107t-165 -41 q-55 0 -102 18.5t-81 49t-52 73t-18 91.5zM555 1427q-55 0 -107.5 -19t-93.5 -52t-65.5 -76t-24.5 -90q0 -76 57.5 -128t145.5 -52q55 0 107.5 19.5t93.5 52t65.5 75.5t24.5 90q0 74 -57.5 127t-145.5 53z" />
</font>
</defs>
</svg>
