<?xml version="1.0" standalone="no"?>
<!DOCTYPE svg PUBLIC "-//W3C//DTD SVG 1.1//EN" "http://www.w3.org/Graphics/SVG/1.1/DTD/svg11.dtd" >
<svg xmlns="http://www.w3.org/2000/svg" xmlns:xlink="http://www.w3.org/1999/xlink" version="1.1">
<metadata></metadata>
<defs>
<font id="ralewaythin_italic" horiz-adv-x="1204" >
<font-face units-per-em="2048" ascent="1638" descent="-410" />
<missing-glyph horiz-adv-x="522" />
<glyph unicode="ff" horiz-adv-x="1064" d="M285 1022h-146l8 41h148l4 22q12 61 40 124t72 113t105.5 81t140.5 31q66 0 114 -18.5t67 -35.5q53 61 118.5 98.5t155.5 37.5q49 0 81 -10.5t48 -23t22.5 -23.5t6.5 -13l-37 -25q-4 6 -10 14.5t-19.5 17.5t-36 15.5t-57.5 6.5q-80 0 -142.5 -34t-107.5 -88.5t-72.5 -120 t-39.5 -126.5l-9 -43h359l-8 -41h-361l-217 -1022h-41l217 1022h-362l-217 -1022h-41zM696 1063q18 102 45 163.5t68 116.5q-14 14 -34.5 24.5t-43 16t-44 7.5t-36.5 2q-74 0 -128 -32t-91 -78t-58.5 -99.5t-33.5 -98.5l-6 -22h362z" />
<glyph unicode="fi" horiz-adv-x="882" d="M285 1022h-146l8 41h148l8 43q12 63 43 136t81 133.5t119.5 100.5t160.5 40q51 0 92 -10.5t69.5 -23t43 -23.5t14.5 -13l-37 -25q-14 18 -65.5 36t-127.5 18q-74 0 -134 -34t-104 -87.5t-73 -119t-41 -128.5l-8 -43h475l-225 -1063h-41l217 1022h-436l-217 -1022h-41z " />
<glyph unicode="fl" horiz-adv-x="1019" d="M758 -10q-61 0 -92 35.5t-31 89.5v21t4 22l233 1097q6 25 7 52q0 66 -46.5 117t-154.5 51q-70 0 -126 -33t-98 -86t-70 -119t-40 -131l-8 -43h242l-11 -41h-241l-217 -1022h-41l217 1022h-146l8 41h148l8 43q16 84 48 158.5t79 130t111.5 88.5t144.5 33 q117 0 175.5 -56.5t58.5 -142.5q0 -29 -7 -60l-233 -1099q-4 -20 -4 -29q0 -39 22.5 -69.5t69.5 -30.5q41 0 81 9t42 9l10 -39q-2 -2 -47 -10t-96 -8z" />
<glyph unicode="ffi" horiz-adv-x="1286" d="M285 1022h-146l8 41h146l4 20q12 61 41 124t73 113t106.5 82t141.5 32q66 0 113 -18.5t66 -35.5q53 61 118.5 98.5t157.5 37.5q49 0 89 -10.5t67.5 -23t43 -23.5t15.5 -13l-37 -25q-12 18 -66.5 36t-115.5 18q-80 0 -142.5 -34t-107.5 -87.5t-72.5 -119t-39.5 -128.5 l-9 -43h478l-228 -1063h-41l217 1022h-436l-217 -1022h-41l217 1022h-362l-217 -1022h-41zM696 1063q20 88 46 156.5t67 123.5q-14 14 -34.5 24.5t-43 16t-44 7.5t-36.5 2q-74 0 -129 -32t-93 -78t-60.5 -100.5t-30.5 -99.5l-4 -20h362z" />
<glyph unicode="ffl" horiz-adv-x="1433" d="M1182 -10q-72 0 -102.5 35.5t-30.5 89.5v21t4 22l233 1097q6 25 6 50q0 72 -46 121t-142 49q-76 0 -134.5 -33t-101.5 -85t-70.5 -119t-39.5 -132l-8 -43h241l-10 -41h-242l-217 -1022h-41l217 1022h-372l-217 -1022h-41l217 1022h-146l8 41h146l4 18q16 76 49 140.5 t80 111.5t108.5 74t139.5 27q70 0 106.5 -17.5t55.5 -34.5q47 61 112.5 97.5t153.5 36.5q115 0 173 -57.5t58 -143.5q0 -27 -6 -58l-233 -1099q-4 -20 -4 -31q0 -37 22.5 -67.5t75.5 -30.5q16 0 35.5 3t37 6t30 6t14.5 3l10 -39q-2 0 -15.5 -3t-34 -6t-43 -6t-40.5 -3z M707 1063q23 98 45 164.5t55 118.5q-27 29 -66 38t-73 9q-74 0 -129.5 -28t-96.5 -72t-66.5 -100t-37.5 -112l-4 -18h373z" />
<glyph horiz-adv-x="0" />
<glyph horiz-adv-x="0" />
<glyph unicode=" "  horiz-adv-x="522" />
<glyph unicode="&#x09;" horiz-adv-x="522" />
<glyph unicode="&#xa0;" horiz-adv-x="522" />
<glyph unicode="!" horiz-adv-x="458" d="M166 410l223 1058h41l-223 -1058h-41zM78 0l37 172h51l-47 -172h-41z" />
<glyph unicode="&#x22;" horiz-adv-x="434" d="M260 1167l62 287h40l-61 -287h-41zM358 1167l62 287h41l-62 -287h-41z" />
<glyph unicode="#" horiz-adv-x="1275" d="M1276 985h-229l-218 -491h265l-9 -41h-274l-199 -453h-43l201 453h-465l-199 -453h-43l201 453h-219l8 41h232l215 491h-264l10 41h274l189 428h43l-193 -428h465l190 428h43l-192 -428h219zM788 494l218 491h-465l-217 -491h464z" />
<glyph unicode="$" horiz-adv-x="1206" d="M1149 1262q-61 96 -142 129.5t-204 33.5l-146 -680q94 -23 171 -47t132.5 -60t85 -87t29.5 -125q0 -102 -41 -183t-116.5 -137.5t-182 -86t-237.5 -29.5l-37 -180h-41l39 182q-150 6 -258.5 59t-188.5 164l35 27q76 -106 176.5 -157.5t241.5 -59.5l147 690 q-90 18 -160.5 40.5t-119.5 55.5t-75 80t-26 115q0 102 40 185t111 142.5t170 93t218 37.5l45 205h41l-45 -205q131 -2 220 -42t151 -132zM1032 416q0 123 -94 185.5t-289 105.5l-145 -682q121 0 219 25.5t166.5 74.5t105.5 122t37 169zM274 1014q0 -57 21.5 -97t64.5 -70 t107.5 -51.5t153.5 -41.5l143 671q-131 -4 -223 -37.5t-151.5 -89t-87.5 -129t-28 -155.5z" />
<glyph unicode="%" horiz-adv-x="1318" d="M430 909q-98 0 -156.5 66.5t-58.5 165.5q0 68 28.5 128t76 106t107.5 73t124 27q96 0 155.5 -67t59.5 -165q0 -68 -28.5 -128t-76 -106t-108 -73t-123.5 -27zM438 950q55 0 106.5 23.5t91.5 63.5t64.5 91.5t24.5 106.5q0 84 -53.5 141.5t-130.5 57.5q-55 0 -106.5 -24 t-91.5 -63.5t-63.5 -91t-23.5 -106.5q0 -86 51 -142.5t131 -56.5zM815 -20q-96 0 -155.5 66.5t-59.5 164.5q0 68 28.5 128t76 106.5t107.5 73t124 26.5q96 0 155.5 -66.5t59.5 -165.5q0 -68 -28.5 -128t-76 -106t-108 -72.5t-123.5 -26.5zM823 20q55 0 106.5 24t91.5 63.5 t64.5 90t24.5 105.5q0 84 -52 142.5t-130 58.5q-55 0 -106.5 -24.5t-91.5 -64.5t-64.5 -91.5t-24.5 -106.5q0 -84 50 -140.5t132 -56.5zM-27 23l1391 1433l27 -24l-1391 -1434z" />
<glyph unicode="&#x26;" horiz-adv-x="1368" d="M868 246q-104 -125 -228 -195.5t-255 -70.5q-76 0 -139.5 24.5t-108.5 69.5t-70.5 107.5t-25.5 137.5q0 70 22.5 135.5t71.5 130t129 127t197 128.5q-70 106 -97.5 171.5t-27.5 123.5q0 68 32.5 128t88 107t128 75t152.5 28q111 0 196 -56.5t130 -159.5l-29 -24 q-41 96 -119.5 149.5t-183.5 53.5q-70 0 -133 -25t-112.5 -66.5t-79 -96t-29.5 -111.5q0 -55 30.5 -123t96.5 -164l370 -531q78 109 136.5 244t87.5 289h245l-8 -41h-200q-35 -154 -94.5 -287t-141.5 -239l199 -285h-60zM391 23q123 0 238.5 68.5t214.5 189.5l-363 526 q-207 -121 -301 -236.5t-94 -246.5q0 -68 22.5 -123.5t62.5 -95t96 -61t124 -21.5z" />
<glyph unicode="'" horiz-adv-x="333" d="M260 1165l62 289h40l-61 -289h-41z" />
<glyph unicode="(" horiz-adv-x="466" d="M100 524q0 137 36 261t97.5 241t142.5 230.5t173 230.5l26 -25q-72 -84 -148.5 -193.5t-140 -230t-104.5 -248.5t-41 -249q0 -63 7.5 -136t21.5 -148t36.5 -148.5t51.5 -137.5l-37 -24q-59 135 -90 288.5t-31 288.5z" />
<glyph unicode=")" horiz-adv-x="466" d="M406 887q0 -242 -117 -468t-328 -472l-27 24q96 109 175 221.5t135.5 226t87 227.5t30.5 222q0 76 -8 158t-23.5 161t-36 150.5t-42.5 124.5l37 25q49 -137 83 -291.5t34 -308.5z" />
<glyph unicode="*" horiz-adv-x="600" d="M295 1155l104 117l-120 45l20 39l121 -45l31 143h38l-30 -143l143 45v-39l-139 -45l57 -117l-39 -25l-55 117l-104 -117z" />
<glyph unicode="+" horiz-adv-x="839" d="M748 748v-41h-287v-308h-41v308h-287v41h287v307h41v-307h287z" />
<glyph unicode="," horiz-adv-x="526" d="M66 -166l51 146h-19l33 151h51l-32 -151l-56 -146h-28z" />
<glyph unicode="-" horiz-adv-x="827" d="M121 535l8 40h551l-8 -40h-551z" />
<glyph unicode="." horiz-adv-x="325" d="M16 0l29 131h39l-27 -131h-41z" />
<glyph unicode="/" horiz-adv-x="1087" d="M1194 1454l-1196 -1454h-51l1196 1454h51z" />
<glyph unicode="0" horiz-adv-x="1202" d="M465 -20q-84 0 -151.5 34.5t-114.5 97t-73 149.5t-26 190q0 160 52.5 300t139.5 244.5t200.5 166t236.5 61.5q86 0 153.5 -35t114.5 -97.5t73 -149.5t26 -189q0 -160 -52.5 -300.5t-139.5 -246t-200.5 -165.5t-238.5 -60zM475 20q117 0 222.5 56.5t185.5 155t126 231.5 t46 287q0 96 -22.5 176t-65.5 136t-105.5 88t-140.5 32q-117 0 -222.5 -57.5t-185.5 -156t-126 -231.5t-46 -286q0 -96 22.5 -175t65.5 -136.5t104.5 -88.5t141.5 -31z" />
<glyph unicode="1" horiz-adv-x="722" d="M12 41h277l225 1061q-20 -25 -64 -54.5t-96.5 -57t-105.5 -46t-92 -18.5l10 49q53 0 115.5 29.5t117 64.5t91 65.5t38.5 34.5h41l-239 -1128h248l-9 -41h-565z" />
<glyph unicode="2" horiz-adv-x="976" d="M-14 0q8 37 30.5 106.5t71.5 148.5t132 155.5t212 128.5q123 49 207 90t137 84t77 94t24 121q0 41 -15.5 81t-47.5 70.5t-81 50t-119 19.5q-72 0 -135 -24.5t-112.5 -55.5t-81 -59.5t-41.5 -38.5l-27 24l32 31t86 66.5t128 66.5t160 31q76 0 132 -21.5t93 -57.5t54.5 -82 t17.5 -95q0 -80 -26 -136.5t-83 -104.5t-148.5 -93t-222.5 -100q-111 -47 -185.5 -114t-121.5 -134.5t-69.5 -124.5t-28.5 -86h721l-11 -41h-759z" />
<glyph unicode="3" horiz-adv-x="1003" d="M299 -301q-145 0 -239.5 70.5t-110.5 191.5l41 14q10 -106 98 -170.5t223 -64.5q98 0 182.5 32.5t144.5 91t95 139.5t35 177q0 131 -81 208t-232 77h-43l8 41h45q201 0 312.5 96t111.5 262q0 123 -78 199t-207 76q-123 0 -229.5 -63.5t-167.5 -168.5l-33 15 q66 117 184.5 187.5t253.5 70.5q147 0 233.5 -86t86.5 -220q0 -76 -26.5 -142t-75 -118.5t-115 -86t-144.5 -44.5q113 -16 174.5 -100t61.5 -205q0 -104 -40 -191t-109.5 -151.5t-162 -100.5t-196.5 -36z" />
<glyph unicode="4" horiz-adv-x="1021" d="M653 147h-708l8 35l930 987h28l-209 -981h172l-8 -41h-172l-86 -407h-41zM662 188l192 906l-844 -906h652z" />
<glyph unicode="5" horiz-adv-x="1069" d="M326 -305q-147 0 -245.5 82t-127.5 217h43q29 -117 119 -187.5t219 -70.5q98 0 192.5 39t167 107.5t116.5 162.5t44 203q0 74 -24.5 136t-67.5 107.5t-103.5 70t-134.5 24.5q-111 0 -219 -51.5t-194 -149.5h-50q8 18 25.5 61t41.5 101.5t51.5 127t56.5 138.5 q66 162 145 356h655l-8 -41h-622l-267 -665q86 80 188.5 122t207.5 42q80 0 145 -28t113.5 -77t75 -117.5t26.5 -150.5q0 -123 -50 -225.5t-130 -176t-182.5 -115.5t-206.5 -42z" />
<glyph unicode="6" horiz-adv-x="1189" d="M485 -20q-86 0 -156.5 29.5t-121.5 86t-79 137t-28 181.5q0 199 51.5 388t144.5 336.5t222 236.5t287 89q141 0 232 -80.5t104 -220.5l-41 -14q-6 61 -29.5 111.5t-63.5 87t-93.5 56t-116.5 19.5q-115 0 -216.5 -58t-184.5 -162.5t-144.5 -251t-93.5 -320.5 q39 80 97 143.5t131 107.5t154 67.5t165 23.5t153.5 -32t118.5 -87t76.5 -129t27.5 -160q0 -119 -50 -225.5t-134 -186t-191.5 -126.5t-220.5 -47zM498 20q100 0 197.5 43t174 117t122.5 170t46 203q0 78 -25.5 147.5t-72.5 120.5t-111.5 81t-140.5 30q-102 0 -199.5 -44 t-173 -118t-123 -171t-47.5 -202q0 -78 26 -146.5t73 -119.5t111.5 -81t142.5 -30z" />
<glyph unicode="7" horiz-adv-x="1044" d="M1030 1153h-827l8 41h897l-1018 -1454h-47z" />
<glyph unicode="8" horiz-adv-x="1140" d="M430 -14q-92 0 -162.5 27.5t-119 73.5t-73 108.5t-24.5 130.5q0 88 38 162.5t96.5 133t131 99.5t144.5 59q-86 35 -145.5 104.5t-59.5 170.5q0 94 45 168.5t116.5 126t159 78t173.5 26.5q68 0 130 -19.5t109 -56.5t76 -90t29 -123q0 -74 -30 -134t-78 -108.5t-110.5 -84 t-127.5 -58.5q109 -35 177 -122t68 -207q0 -104 -49 -190.5t-128 -147t-180.5 -94t-205.5 -33.5zM446 20q84 0 173.5 31t163 87.5t121.5 135t48 175.5q0 74 -30.5 131t-80.5 97t-113.5 61.5t-129.5 21.5q-84 0 -173 -31t-163 -88t-122 -136t-48 -175q0 -74 31 -131.5 t81 -97.5t113 -60.5t129 -20.5zM608 801q70 0 149 23.5t144.5 69.5t108.5 112.5t43 150.5q0 61 -26 108.5t-69 80t-100 50t-121 17.5q-80 0 -157.5 -24.5t-141 -70.5t-102.5 -111.5t-39 -147.5q0 -61 27.5 -109.5t71.5 -81t99.5 -50t112.5 -17.5z" />
<glyph unicode="9" horiz-adv-x="1157" d="M354 -319q-141 0 -232 80.5t-104 220.5l41 14q6 -61 30 -111.5t64 -87.5t93 -56.5t116 -19.5q113 0 215.5 58.5t185.5 163t144.5 250t93.5 321.5q-39 -80 -98 -143.5t-131 -107.5t-153.5 -67.5t-163.5 -23.5q-84 0 -154 32t-119 87t-76.5 129t-27.5 160q0 119 50 225 t134 186t190.5 127t221.5 47q86 0 156.5 -29.5t122 -86t79 -137.5t27.5 -181q0 -199 -51.5 -388t-144.5 -336.5t-223 -236.5t-286 -89zM471 213q100 0 198.5 44t174.5 118t123 171t47 202q0 78 -25.5 146.5t-73 119.5t-112 80.5t-141.5 29.5q-102 0 -198.5 -43 t-173.5 -116.5t-123 -170t-46 -202.5q0 -78 25.5 -147.5t72.5 -121t110.5 -81t141.5 -29.5z" />
<glyph unicode=":" horiz-adv-x="317" d="M203 928l28 131h41l-28 -131h-41zM6 0l29 131h39l-27 -131h-41z" />
<glyph unicode=";" horiz-adv-x="329" d="M209 928l29 131h41l-29 -131h-41zM-29 -166l52 146h-19l33 151h51l-33 -151l-55 -146h-29z" />
<glyph unicode="&#x3c;" horiz-adv-x="1107" d="M63 549l855 510v-45l-795 -484l795 -485v-45l-855 512v37z" />
<glyph unicode="=" horiz-adv-x="927" d="M152 473v41h600v-41h-600zM152 616v41h600v-41h-600z" />
<glyph unicode="&#x3e;" horiz-adv-x="1107" d="M1008 512l-854 -512v45l794 485l-794 484v45l854 -510v-37z" />
<glyph unicode="?" horiz-adv-x="919" d="M291 367q20 98 47 162.5t57.5 107.5t66.5 68.5t77 44.5q61 31 125.5 58.5t119 70.5t89 111.5t34.5 180.5q0 68 -21.5 116t-56 81t-83 48.5t-99.5 15.5q-117 0 -232.5 -64.5t-189.5 -175.5l-32 16q41 63 95 112.5t115.5 83.5t125 51.5t124.5 17.5t114.5 -19.5t93.5 -57.5 t63.5 -94.5t23.5 -130.5q0 -119 -37 -192.5t-94 -120.5t-128 -80t-140 -67q-35 -18 -66.5 -40t-58.5 -60t-50.5 -96t-41.5 -148h-41zM213 0l37 172h41l-37 -172h-41z" />
<glyph unicode="@" horiz-adv-x="1619" d="M1106 8q66 0 127 52.5t109.5 138.5t77 194.5t28.5 220.5q0 129 -40 236.5t-111.5 183.5t-169 118t-214.5 42q-156 0 -303 -72.5t-262 -194.5t-184.5 -278.5t-69.5 -324.5q0 -125 40 -231.5t110.5 -184.5t170 -122t216.5 -44q150 0 303 78l12 -37q-86 -41 -173 -61.5 t-165 -20.5q-121 0 -222 48t-175 132t-116 196.5t-42 244.5q0 119 34 231.5t94.5 213.5t142.5 187t178 148.5t202.5 97.5t215.5 35q121 0 225 -44t181 -125t120 -194.5t43 -250.5q0 -121 -33 -238t-88 -209t-128 -149.5t-155 -57.5q-55 0 -79.5 29t-24.5 94q0 16 2 38t6 44 q-70 -68 -160 -107.5t-174 -39.5q-66 0 -119 25.5t-91.5 71.5t-59 111.5t-20.5 143.5q0 109 38.5 207t105 172.5t155 119t184.5 44.5t164.5 -46.5t103.5 -132.5l37 181h41l-154 -719q-10 -45 -12 -69.5t-2 -37.5q0 -88 80 -88zM666 66q51 0 105 17t103.5 47t87 70t56.5 85 l82 399q-27 92 -94.5 142.5t-163.5 50.5q-86 0 -165 -41t-139.5 -109t-96 -158t-35.5 -188q0 -68 18 -126t52 -100t82.5 -65.5t107.5 -23.5z" />
<glyph unicode="A" horiz-adv-x="1325" d="M831 1454h37l291 -1454h-45l-104 520h-719l-326 -520h-45zM1001 561l-163 834l-523 -834h686z" />
<glyph unicode="B" horiz-adv-x="1286" d="M377 1454h612q61 0 107.5 -25.5t77 -66.5t46 -94.5t15.5 -110.5q0 -68 -21.5 -130t-59.5 -116.5t-89 -96.5t-111 -69q92 -31 140.5 -113.5t48.5 -185.5q0 -88 -38 -168.5t-99.5 -142t-139.5 -98.5t-157 -37h-641zM717 41q72 0 140.5 35t122.5 91t87 128t33 145 q0 55 -15.5 104.5t-45 86.5t-71.5 59.5t-96 22.5h-612l-143 -672h600zM827 754q72 0 138.5 34.5t117 91t81 128t30.5 143.5q0 53 -14.5 100t-42 83t-67.5 57.5t-91 21.5h-569l-142 -659h559z" />
<glyph unicode="C" horiz-adv-x="1357" d="M606 -12q-119 0 -212 51t-156.5 137t-97.5 196.5t-34 227.5q0 147 61.5 301t172.5 279t261.5 203.5t328.5 78.5q92 0 165.5 -23.5t128 -65.5t90.5 -100.5t52 -127.5l-41 -12q-23 80 -65.5 135t-97 89t-119 49t-130.5 15q-166 0 -306 -74.5t-242.5 -193.5t-160 -265.5 t-57.5 -287.5q0 -117 34 -220.5t95.5 -181t149.5 -123.5t197 -46q68 0 143.5 18.5t150 55t144 95t127.5 138.5l37 -10q-53 -82 -127 -145.5t-157 -106.5t-169 -64.5t-166 -21.5z" />
<glyph unicode="D" horiz-adv-x="1400" d="M377 1454h444q133 0 230.5 -43t161 -117.5t94 -175t30.5 -217.5q0 -195 -61.5 -359.5t-172 -284.5t-262 -188.5t-329.5 -68.5h-444zM520 41q182 0 326.5 69.5t244 187.5t152.5 271.5t53 321.5q0 115 -30.5 211t-91 164.5t-151.5 107.5t-210 39h-403l-293 -1372h403z" />
<glyph unicode="E" d="M377 1454h889l-9 -41h-847l-140 -649h744l-8 -41h-744l-145 -682h866l-8 -41h-907z" />
<glyph unicode="F" d="M377 1454h889l-9 -41h-847l-138 -647h723l-8 -41h-725l-153 -725h-41z" />
<glyph unicode="G" horiz-adv-x="1409" d="M1169 248q-270 -258 -551 -258q-123 0 -218 52t-160.5 137t-99.5 194.5t-34 224.5q0 158 67 313.5t177.5 278.5t256 198.5t302.5 75.5q106 0 185.5 -23.5t133.5 -65.5t88 -100t52 -128l-41 -12q-47 154 -156.5 221t-271.5 67q-156 0 -293 -74.5t-238.5 -193.5 t-161 -265.5t-59.5 -289.5q0 -115 34 -218t96.5 -181t151.5 -124t198 -46q135 0 271 65.5t284 208.5l73 346h-323l8 41h365l-148 -692h-41z" />
<glyph unicode="H" horiz-adv-x="1435" d="M377 1454h41l-148 -690h957l147 690h41l-309 -1454h-41l154 723h-957l-153 -723h-41z" />
<glyph unicode="I" horiz-adv-x="438" d="M377 1452h41l-309 -1452h-41z" />
<glyph unicode="J" horiz-adv-x="937" d="M215 -23q-174 0 -281 91l29 32q94 -82 260 -82q123 0 207 48.5t140.5 137.5t95.5 218t73 293l158 737h41l-158 -737q-35 -166 -76.5 -302.5t-104 -232.5t-155 -149.5t-229.5 -53.5z" />
<glyph unicode="K" horiz-adv-x="1210" d="M377 1452h41l-201 -942l1077 944h60l-725 -635l442 -819h-53l-426 791l-387 -338l-96 -453h-41z" />
<glyph unicode="L" horiz-adv-x="1130" d="M377 1454h41l-301 -1413h866l-8 -41h-907z" />
<glyph unicode="M" horiz-adv-x="1732" d="M377 1454h33l397 -1118l872 1118h33l-309 -1454h-41l289 1364l-838 -1077h-33l-381 1077l-290 -1364h-41z" />
<glyph unicode="N" horiz-adv-x="1521" d="M377 1454h31l757 -1395l295 1393h41l-309 -1452h-45l-746 1374l-292 -1374h-41z" />
<glyph unicode="O" horiz-adv-x="1486" d="M610 -10q-121 0 -215 49t-158.5 132t-97.5 191.5t-33 225.5q0 168 70 325.5t184.5 280.5t261 196.5t302.5 73.5q121 0 215 -51t158.5 -135t97 -192.5t32.5 -223.5q0 -166 -69.5 -323.5t-184 -279.5t-261 -195.5t-302.5 -73.5zM621 31q154 0 293 73.5t243.5 192.5 t166.5 266.5t62 294.5q0 113 -32.5 215.5t-94 180t-148.5 123.5t-196 46q-154 0 -293 -73.5t-244.5 -192.5t-168 -266.5t-62.5 -296.5q0 -113 32 -215.5t93.5 -179t149.5 -122.5t199 -46z" />
<glyph unicode="P" horiz-adv-x="1218" d="M377 1454h563q72 0 129 -30.5t96 -82t59.5 -116t20.5 -133.5q0 -94 -39 -187.5t-104.5 -167t-152.5 -120t-183 -46.5h-537l-120 -571h-41zM774 612q90 0 169 43t137.5 112t91 153t32.5 165q0 66 -19.5 125.5t-55 104.5t-87 71.5t-112.5 26.5h-520l-170 -801h534z" />
<glyph unicode="Q" horiz-adv-x="1484" d="M1053 150q-98 -76 -211 -118t-230 -42q-121 0 -215 49t-158.5 132t-98.5 191.5t-34 225.5q0 168 70 325.5t184.5 280.5t262 196.5t303.5 73.5q121 0 215 -51t157.5 -135t96 -192.5t32.5 -223.5q0 -98 -24.5 -194.5t-69.5 -184.5t-107.5 -165.5t-138.5 -139.5l99 -178h-51 zM621 31q113 0 217 40t196 111l-108 199h51l92 -170q72 61 130 136t100 160t64.5 174t22.5 177q0 113 -32.5 215.5t-93 180t-147.5 123.5t-195 46q-154 0 -293.5 -73.5t-246 -192.5t-169 -266.5t-62.5 -296.5q0 -113 32 -215.5t93.5 -179t149.5 -122.5t199 -46z" />
<glyph unicode="R" horiz-adv-x="1261" d="M68 0l309 1454h563q72 0 129 -30.5t96 -82t59.5 -116t20.5 -133.5q0 -94 -37 -184.5t-98 -163t-144 -119.5t-175 -54l227 -571h-49l-228 571h-512l-120 -571h-41zM774 612q90 0 168 43t136.5 111t92 151.5t33.5 167.5q0 66 -19.5 125.5t-55 104.5t-87 71.5t-112.5 26.5 h-520l-170 -801h534z" />
<glyph unicode="S" horiz-adv-x="1185" d="M487 -10q-166 0 -284.5 54t-204.5 171l35 27q82 -115 193.5 -166t271.5 -51q119 0 215 25.5t163.5 74.5t104.5 121.5t37 169.5q0 61 -24.5 107t-74 80t-123 58.5t-171.5 47.5q-96 20 -172 42.5t-128.5 55.5t-80 81t-27.5 118q0 106 42 191t119 144.5t182.5 91t232.5 31.5 q133 0 223 -40t151 -134l-32 -28q-61 96 -142.5 129.5t-204.5 33.5q-141 0 -241.5 -31.5t-164 -88t-93 -131t-29.5 -160.5q0 -59 22.5 -100.5t68.5 -71t117 -52t165 -42.5q96 -23 175 -47.5t135 -60.5t87 -88t31 -126q0 -102 -41 -183t-116 -137.5t-181.5 -86t-235.5 -29.5z " />
<glyph unicode="T" horiz-adv-x="1175" d="M729 1413h-528l8 41h1098l-9 -41h-528l-301 -1413h-41z" />
<glyph unicode="U" horiz-adv-x="1480" d="M610 -10q-125 0 -209 36.5t-135 101.5t-73.5 151t-22.5 184q0 63 8 129.5t23 134.5l153 727h41l-153 -727q-14 -66 -22.5 -131.5t-8.5 -126.5q0 -92 20.5 -172t67.5 -139.5t125 -93t192 -33.5q156 0 270.5 61.5t195.5 159.5t131.5 223t76.5 252l154 727h41l-154 -727 q-31 -145 -88 -278.5t-144 -234.5t-208 -162.5t-281 -61.5z" />
<glyph unicode="V" horiz-adv-x="1318" d="M207 1454h43l282 -1403l875 1403h45l-909 -1454h-45z" />
<glyph unicode="W" horiz-adv-x="2019" d="M207 1454h45l280 -1403l496 797l-121 594h45l107 -545l342 545h45l-375 -594l162 -797l874 1403h45l-909 -1454h-45l-158 797l-497 -797h-45z" />
<glyph unicode="X" d="M598 717l-401 737h53l381 -704l682 704h51l-715 -737l389 -717h-51l-369 684l-661 -684h-53z" />
<glyph unicode="Y" horiz-adv-x="1216" d="M567 567l-368 887h47l352 -844l713 844h47l-750 -891l-121 -563h-41z" />
<glyph unicode="Z" horiz-adv-x="1202" d="M-74 41l1344 1372h-1043l11 41h1093l-10 -41l-1344 -1372h1045l-8 -41h-1096z" />
<glyph unicode="[" horiz-adv-x="442" d="M47 -82l340 1598h137l-8 -41h-98l-322 -1516h99l-9 -41h-139z" />
<glyph unicode="\" horiz-adv-x="983" d="M266 1454l537 -1454h-51l-539 1454h53z" />
<glyph unicode="]" horiz-adv-x="440" d="M-41 -82l8 41h99l321 1516h-96l8 41h137l-338 -1598h-139z" />
<glyph unicode="^" horiz-adv-x="1034" d="M113 621l405 833h37l403 -833h-47l-374 774l-381 -774h-43z" />
<glyph unicode="_" horiz-adv-x="1050" d="M-2 -41l8 41h764l-8 -41h-764z" />
<glyph unicode="`" horiz-adv-x="387" d="M113 1495h65l94 -149l-36 -25z" />
<glyph unicode="a" horiz-adv-x="1187" d="M442 -20q-88 0 -158.5 37.5t-119.5 100t-75 144.5t-26 168q0 123 49.5 239.5t132.5 208t190.5 146.5t221.5 55q72 0 130.5 -21.5t102.5 -57t76.5 -84t51.5 -101.5l53 248h43l-209 -973q-4 -12 -4 -24q0 -25 25 -25l-8 -41q-12 0 -19 2q-39 12 -39 57q0 4 1 10.5t4 21.5 t9.5 46t16.5 84q-43 -53 -96.5 -97t-111.5 -77t-120 -50t-121 -17zM446 20q66 0 141 27t142.5 72t118.5 103.5t70 123.5l81 383q-8 61 -37.5 116.5t-76.5 98.5t-109.5 68.5t-134.5 25.5q-106 0 -203.5 -54t-171 -142t-118 -196.5t-44.5 -215.5q0 -82 26 -155.5t72 -130 t108 -90.5t136 -34z" />
<glyph unicode="b" horiz-adv-x="1179" d="M473 -20q-68 0 -124 19t-100 53t-76 78t-50 91l-47 -221h-41l317 1495h41l-143 -680q104 117 219 190.5t246 73.5q94 0 162.5 -39t114.5 -100t68.5 -140t22.5 -159q0 -129 -53 -248t-139 -211t-195.5 -147t-222.5 -55zM477 20q109 0 210 53.5t180 140.5t126 197.5 t47 227.5q0 76 -22.5 148.5t-65.5 128t-106.5 89t-145.5 33.5q-70 0 -133 -23.5t-120.5 -63.5t-110.5 -92t-103 -109l-94 -461q23 -125 117 -197t221 -72z" />
<glyph unicode="c" horiz-adv-x="1052" d="M449 -20q-86 0 -157 34.5t-122 96t-79 143.5t-28 176q0 131 51.5 250t137.5 207t197.5 140t230.5 52q129 0 215 -62.5t115 -174.5l-45 -15q-29 98 -109 154.5t-190 56.5q-106 0 -208 -48t-179.5 -130t-126 -191.5t-48.5 -230.5q0 -86 26 -162.5t71 -133t108.5 -89.5 t141.5 -33q59 0 121.5 18.5t117.5 49.5t99.5 72t64.5 84l39 -13q-29 -53 -77 -99t-108.5 -80t-126.5 -53t-132 -19z" />
<glyph unicode="d" horiz-adv-x="1185" d="M446 -20q-90 0 -161.5 37.5t-120.5 100t-75 144.5t-26 170q0 123 49.5 238.5t132.5 207t191.5 146.5t225.5 55q70 0 127 -21.5t101 -57t76.5 -84t51.5 -101.5l143 680h43l-301 -1407q-2 -6 -2 -11v-9q0 -27 25 -27l-8 -41q-12 0 -25 4q-33 12 -33 57v7.5t3 20.5t9.5 46 t18.5 86q-43 -53 -96.5 -97t-111.5 -77t-119 -50t-118 -17zM455 20q59 0 131.5 27t140.5 71t120 103.5t71 124.5l81 383q-8 63 -39.5 119.5t-80 98.5t-106.5 66.5t-120 24.5q-113 0 -213 -54t-175 -140t-118 -193.5t-43 -214.5q0 -84 25 -159.5t71 -132t110.5 -90.5 t144.5 -34z" />
<glyph unicode="e" horiz-adv-x="1067" d="M451 -20q-92 0 -164 35.5t-121 97t-76 143.5t-27 174q0 121 47.5 237.5t130.5 208t195.5 147.5t245.5 56q51 0 107.5 -18.5t101.5 -53t74.5 -87t29.5 -121.5q0 -291 -536 -291q-78 0 -160 2t-186 8q-6 -43 -7 -86q0 -84 23 -158.5t68 -131t112.5 -89.5t155.5 -33 q55 0 114.5 17.5t115 48.5t101.5 76t76 100l39 -12q-35 -61 -85 -111.5t-110.5 -85.5t-127.5 -54t-137 -19zM674 1038q-100 0 -190.5 -40t-163 -106.5t-125 -153.5t-74.5 -179q104 -6 185 -8t159 -2q135 0 228 18.5t150.5 52t83 79.5t25.5 102q0 61 -26.5 106t-67.5 75 t-90 43t-94 13z" />
<glyph unicode="f" horiz-adv-x="598" d="M285 1022h-146l8 41h148l8 43q39 195 133 302.5t221 107.5q55 0 102.5 -19.5t67.5 -50.5l-36 -25q-18 25 -56.5 40.5t-83.5 15.5q-111 0 -191.5 -95.5t-115.5 -275.5l-8 -43h299l-8 -41h-301l-310 -1458h-41z" />
<glyph unicode="g" horiz-adv-x="1179" d="M340 -457q-90 0 -155.5 18.5t-110.5 52.5t-74 80t-45 103l41 13q18 -59 52 -102.5t80 -71t102.5 -40t117.5 -12.5q82 0 161 23.5t143.5 71t111.5 116t67 160.5l58 266q-43 -53 -96.5 -97t-111.5 -77t-119.5 -50t-119.5 -17q-90 0 -160.5 37.5t-119.5 100t-75 144.5 t-26 170q0 119 49.5 234.5t131.5 208t190.5 148.5t226.5 56q68 0 123.5 -20.5t98.5 -56t76.5 -84t58.5 -103.5l53 248h39l-236 -1108q-23 -104 -76 -182t-125.5 -129.5t-158.5 -76t-172 -24.5zM453 20q72 0 146.5 30t139 77t112.5 104.5t64 114.5l82 383q-10 68 -40.5 124 t-76.5 97t-105.5 64.5t-123.5 23.5q-117 0 -217 -56t-174 -144t-116 -194.5t-42 -207.5q0 -84 25 -159.5t71 -132t110.5 -90.5t144.5 -34z" />
<glyph unicode="h" horiz-adv-x="1105" d="M352 1495h41l-149 -707q45 66 102 120.5t120.5 92t130.5 58t132 20.5q242 0 242 -284q0 -90 -25 -203l-125 -592h-41l125 592q10 55 17.5 104t7.5 90q0 252 -209 252q-72 0 -144.5 -28.5t-140 -77.5t-124 -115.5t-93.5 -144.5l-143 -672h-41z" />
<glyph unicode="i" horiz-adv-x="372" d="M260 1063h41l-225 -1063h-41zM352 1495h41l-33 -158h-41z" />
<glyph unicode="j" horiz-adv-x="389" d="M-242 -348q-57 0 -104 14.5t-76 54.5l37 25q29 -33 69 -43t80 -10q39 0 83 18.5t82 49t67 73.5t39 92l241 1137h41l-241 -1137q-12 -59 -47 -109t-80 -87t-95.5 -57.5t-95.5 -20.5zM369 1495h41l-33 -158h-41z" />
<glyph unicode="k" horiz-adv-x="1067" d="M352 1495h41l-170 -799q133 197 277.5 294t287.5 97q123 0 191 -56t68 -159q0 -68 -33 -128t-92.5 -109t-145.5 -85t-192 -54l245 -496h-49l-254 522q231 45 353 133t122 211q0 86 -57 134.5t-162 48.5q-135 0 -273 -99.5t-298 -312.5l-135 -637h-41z" />
<glyph unicode="l" horiz-adv-x="458" d="M197 -10q-57 0 -90 33.5t-33 91.5v20t4 23l284 1337h41l-284 -1337q-2 -10 -3 -17.5t-1 -15.5q0 -96 106 -96q23 0 53.5 5t57.5 13l6 -33q-29 -10 -70.5 -17t-70.5 -7z" />
<glyph unicode="m" horiz-adv-x="1773" d="M260 1063h41l-57 -275q96 139 213.5 215t238.5 76q115 0 178.5 -71.5t63.5 -200.5v-24.5t-2 -24.5q39 78 93 138t116.5 101t130 61.5t133.5 20.5q231 0 231 -268q0 -45 -6 -100.5t-20 -118.5l-125 -592h-41l125 592q25 119 24 207q0 240 -200 239q-70 0 -138.5 -26.5 t-130 -75.5t-113.5 -116.5t-91 -149.5l-142 -670h-41l125 592q14 63 20.5 116.5t6.5 96.5q0 233 -199 233q-72 0 -139.5 -26.5t-128.5 -74.5t-114.5 -115.5t-92.5 -149.5l-143 -672h-41z" />
<glyph unicode="n" horiz-adv-x="1105" d="M260 1063h41l-57 -275q45 63 104.5 118t126 92.5t137 59t138.5 21.5q115 0 170 -62.5t55 -195.5q0 -49 -7 -106.5t-22 -122.5l-125 -592h-41l125 592q27 125 27 219q0 117 -46 172t-145 55q-72 0 -148.5 -27.5t-147 -76.5t-130 -116.5t-96.5 -145.5l-143 -672h-41z" />
<glyph unicode="o" horiz-adv-x="1148" d="M440 -20q-86 0 -155.5 34.5t-119.5 95t-77 141.5t-27 173q0 129 53.5 248t140.5 210t196.5 144t222.5 53q84 0 153.5 -34.5t118.5 -96t77 -143.5t28 -174q0 -127 -53.5 -245t-139.5 -208t-195.5 -144t-222.5 -54zM446 20q102 0 204 50.5t181.5 133.5t129 192.5 t49.5 228.5q0 86 -26 160.5t-71 131t-108.5 89t-138.5 32.5q-102 0 -203 -50t-180.5 -135t-130 -195.5t-50.5 -229.5q0 -84 25 -158.5t71 -130t108 -87.5t140 -32z" />
<glyph unicode="p" horiz-adv-x="1181" d="M262 1063h39l-47 -225q43 53 96 97t111.5 76.5t120 50t118.5 17.5q90 0 161 -37.5t120 -101t74.5 -145.5t25.5 -168q0 -121 -47 -237t-129 -207t-190.5 -147t-231.5 -56q-68 0 -123 21.5t-100 57t-77.5 83.5t-53.5 102l-145 -680h-41zM492 20q113 0 213 54.5t174.5 140.5 t117.5 193.5t43 214.5q0 82 -24.5 157.5t-70.5 133t-110.5 91t-144.5 33.5q-59 0 -132 -26.5t-140.5 -71.5t-119.5 -104.5t-71 -122.5l-82 -383q14 -66 45 -122t75 -97t101.5 -66t125.5 -25z" />
<glyph unicode="q" horiz-adv-x="1179" d="M426 -20q-90 0 -158.5 36.5t-115 97t-70 140.5t-23.5 166q0 127 53.5 245.5t140.5 211t197.5 147.5t227.5 55q57 0 111.5 -18.5t99.5 -51t78.5 -76.5t52.5 -95l47 225h41l-301 -1417q-2 -2 -2 -15q0 -27 24 -26l-8 -41q-57 0 -57 63q0 16 2 19l127 598 q-113 -129 -230.5 -196.5t-236.5 -67.5zM434 20q70 0 138.5 26t130 69t114.5 98t94 117l88 403q-10 61 -36.5 117.5t-68.5 97.5t-98.5 65.5t-125.5 24.5q-113 0 -215.5 -54t-181 -141t-126 -196.5t-47.5 -220.5q0 -82 22.5 -155.5t65.5 -129t105.5 -88.5t140.5 -33z" />
<glyph unicode="r" horiz-adv-x="649" d="M260 1063h41l-57 -275q84 125 192.5 194t218.5 79q10 2 19.5 2h19.5l-8 -41q-145 -6 -269 -98.5t-198 -251.5l-143 -672h-41z" />
<glyph unicode="s" horiz-adv-x="921" d="M326 -20q-117 0 -205 41.5t-146 130.5l35 26q61 -80 138 -119t186 -39q84 0 155.5 21.5t125 59.5t84 93.5t30.5 122.5q0 45 -20.5 77t-59.5 54.5t-95 41t-128 36.5q-68 16 -119 32.5t-87 38t-54.5 53.5t-18.5 79q0 88 36 154.5t96.5 109.5t137.5 64.5t158 21.5 q123 0 200 -44t97 -109l-38 -17q-23 63 -101 96t-174 33q-72 0 -138.5 -17t-117.5 -54t-82 -93.5t-31 -132.5q0 -39 15.5 -65.5t46.5 -45t77 -32.5t107 -31q76 -20 138.5 -38.5t106.5 -45t67.5 -62.5t23.5 -89q0 -78 -33.5 -142.5t-93 -111.5t-141.5 -72.5t-178 -25.5z" />
<glyph unicode="t" horiz-adv-x="575" d="M244 -10q-63 0 -104.5 34.5t-41.5 94.5q0 8 1 16t3 19l185 868h-146l9 41h147l78 371h41l-78 -371h242l-9 -41h-243l-164 -764q-12 -57 -17.5 -82.5t-5.5 -40.5q0 -51 33 -77.5t80 -26.5q33 0 63.5 7t54 16t39 17.5t17.5 10.5l14 -33l-16 -10t-44 -20.5t-63.5 -19.5 t-74.5 -9z" />
<glyph unicode="u" horiz-adv-x="1128" d="M342 -20q-246 0 -246 284q0 88 25 203l127 596h41l-127 -596q-25 -115 -25 -199q0 -248 215 -248q74 0 148.5 28t143.5 76t127 115.5t97 147.5l144 676h41l-197 -926q-4 -23 -9 -43t-5 -24q0 -29 26 -29l-10 -41q-55 0 -55 61q0 2 1 10.5t5 30t12 61.5t23 107 q-47 -68 -105.5 -121t-124 -91t-135 -58t-137.5 -20z" />
<glyph unicode="v" horiz-adv-x="923" d="M131 1063h43l160 -1006q100 113 185 242t153.5 261t121 260t89.5 243h41q-84 -268 -223.5 -538.5t-362.5 -524.5h-37z" />
<glyph unicode="w" horiz-adv-x="1480" d="M125 1063h43l180 -1006q119 129 215 275.5t172 294.5l-78 436h43l66 -373q47 98 85 192.5t67 180.5h40q-35 -111 -79.5 -221.5t-100.5 -220.5l103 -564q104 113 192 242t160 261t126 260t91 243h41q-86 -268 -230.5 -538.5t-375.5 -524.5h-37l-100 559 q-78 -143 -175.5 -283.5t-220.5 -275.5h-37z" />
<glyph unicode="x" horiz-adv-x="933" d="M422 528l-291 535h53l260 -479l11 -25l485 504h53l-518 -535l289 -528h-53l-258 475l-11 25l-479 -500h-53z" />
<glyph unicode="y" horiz-adv-x="942" d="M-76 -424q61 12 105.5 32.5t81 54.5t72.5 85t83 123l84 129l-244 1063h46l229 -1012l119 189q96 154 162.5 266t112.5 205.5t78 176.5t58 175h43q-29 -98 -59.5 -183t-77.5 -179.5t-115.5 -211t-171.5 -278.5l-168 -264q-74 -115 -126 -189.5t-100 -119t-96 -66 t-112 -31.5z" />
<glyph unicode="z" horiz-adv-x="935" d="M-66 41l977 981h-757l8 41h809l-8 -41l-975 -981h760l-11 -41h-811z" />
<glyph unicode="{" horiz-adv-x="444" d="M418 1475l-133 -623q-2 -10 -15.5 -48t-50.5 -67q12 -14 16.5 -32.5t4.5 -36.5q0 -16 -2 -28.5t-2 -16.5l-138 -646h109l-10 -40h-103q-12 0 -22.5 8t-10.5 30q0 14 2 23l134 625q4 20 4 34q0 23 -9.5 40.5t-33.5 21.5l8 41q20 0 34.5 12t23.5 27.5t13.5 31t6.5 21.5 l129 602q8 41 27.5 51.5t29.5 10.5h102l-8 -41h-106z" />
<glyph unicode="|" horiz-adv-x="520" d="M250 -266v1853h41v-1853h-41z" />
<glyph unicode="}" horiz-adv-x="446" d="M287 1475l8 41h102q6 0 20.5 -7.5t14.5 -35.5q0 -12 -2 -19l-129 -602q-4 -12 -4 -35q0 -20 8 -38.5t35 -18.5l-8 -41q-35 -4 -54.5 -35t-25.5 -61l-131 -625q-8 -35 -25.5 -48t-34.5 -13h-102l8 40h107l137 646q2 10 16.5 48t48.5 66q-12 16 -16 35t-4 35q0 33 4 45 l133 623h-106z" />
<glyph unicode="~" horiz-adv-x="905" d="M115 514q0 2 9 28.5t30.5 57.5t53.5 55.5t79 24.5q41 0 78.5 -19.5t74.5 -43t74 -43t78 -19.5q37 0 63.5 15.5t45 36t26.5 38t8 21.5l41 -2q-10 -25 -24.5 -51.5t-36 -48t-52 -36t-71.5 -14.5q-49 0 -90 19.5t-78 43t-71 43t-66 19.5q-31 0 -55.5 -19.5t-42 -42 t-25.5 -42t-8 -21.5h-41z" />
<glyph unicode="&#xa1;" horiz-adv-x="458" d="M344 1059l-225 -1059h-41l225 1059h41zM430 1468l-35 -172h-51l45 172h41z" />
<glyph unicode="&#xa2;" horiz-adv-x="1069" d="M358 -246l50 228q-82 6 -146.5 47t-108.5 102.5t-67 139t-23 159.5q0 117 47.5 230.5t126 204.5t183 149.5t221.5 64.5l51 242h39l-51 -242q76 -2 131 -20.5t94 -50t63.5 -73.5t39.5 -93l-43 -15q-33 106 -110 156.5t-183 54.5l-217 -1018q47 0 106.5 15.5t116.5 45.5 t105 71t71 92l39 -13q-33 -61 -86 -108t-114.5 -79t-126 -48t-120.5 -16l-49 -226h-39zM104 434q0 -78 21.5 -149.5t62.5 -128t98.5 -92t129.5 -41.5l215 1015q-115 -6 -211 -64.5t-166 -145.5t-110 -191.5t-40 -202.5z" />
<glyph unicode="&#xa3;" horiz-adv-x="913" d="M131 750h211q-23 84 -50.5 158.5t-27.5 156.5q0 80 35 152.5t90 127t127 87t146 32.5q98 0 169.5 -58t100.5 -157l-39 -24q-29 92 -93.5 145t-150.5 53q-63 0 -123.5 -27.5t-108.5 -75.5t-78 -111.5t-30 -133.5q0 -82 29 -159.5t51 -165.5h340l-10 -41h-322 q6 -29 10.5 -60t4.5 -63q0 -63 -10.5 -118.5t-46.5 -116t-102.5 -135.5t-178.5 -179q33 6 69.5 10t71.5 4q45 0 80 -6t66.5 -14t63.5 -14.5t69 -6.5q41 0 88 10.5t112 32.5l4 -39q-115 -45 -215 -45q-43 0 -77.5 6.5t-67.5 14.5t-67.5 14t-77.5 6q-41 0 -93.5 -7t-95.5 -17 l-12 34q129 117 203.5 195t113.5 137.5t49.5 110.5t10.5 117q0 63 -17 129h-229z" />
<glyph unicode="&#xa4;" horiz-adv-x="1128" d="M328 956q47 47 109.5 73t133.5 26q74 0 138.5 -28t111.5 -75l144 142l30 -29l-145 -143q39 -49 61.5 -109.5t22.5 -126.5t-23.5 -127t-64.5 -110l149 -146l-30 -29l-148 146q-49 -47 -111.5 -72.5t-134.5 -25.5t-132 24.5t-107 67.5l-142 -140l-30 29l143 141 q-90 102 -90 242q0 68 22.5 129.5t63.5 110.5l-139 139l30 29zM256 684q0 -68 24.5 -127t67.5 -103t100.5 -70t122.5 -26q66 0 124.5 27t101.5 72t68.5 104.5t25.5 126.5q0 68 -25.5 128.5t-68.5 104.5t-101.5 69.5t-124.5 25.5q-63 0 -120.5 -25.5t-100.5 -71t-68.5 -105.5 t-25.5 -130z" />
<glyph unicode="&#xa5;" horiz-adv-x="1284" d="M754 698h180l-8 -41h-207l-80 -94l-10 -49h266l-8 -41h-266l-103 -473h-41l103 473h-267l9 41h266l10 53l-37 90h-209l10 41h183l-316 756h47l353 -844l712 844h48z" />
<glyph unicode="&#xa6;" horiz-adv-x="507" d="M285 584v-850h-41v850h41zM285 1587v-850h-41v850h41z" />
<glyph unicode="&#xa7;" horiz-adv-x="958" d="M709 371q68 -47 67 -154q0 -96 -43 -171t-109.5 -125t-144.5 -75.5t-147 -25.5q-125 0 -201 49t-127 119l37 26q61 -78 132 -115.5t169 -37.5q63 0 132 23.5t126 67.5t94 107.5t37 143.5q0 57 -23.5 93t-61.5 56.5t-85 27.5t-96 9q-63 2 -118.5 16.5t-97.5 45t-65.5 76.5 t-23.5 112q0 74 34.5 142.5t77.5 109.5q-35 25 -53 75t-18 109q0 94 43 167t107.5 122t141 74.5t144.5 25.5q63 0 111.5 -10t82 -29.5t57 -48t40.5 -65.5l-41 -17q-10 39 -38 64.5t-64.5 40t-77.5 19.5t-78 5q-63 0 -131 -23.5t-124.5 -67.5t-93 -107.5t-36.5 -143.5 q0 -115 75.5 -162t196.5 -47q61 0 117.5 -13t99.5 -43t69.5 -76t26.5 -111q0 -74 -34.5 -144.5t-85.5 -113.5zM201 639q0 -66 25.5 -104.5t65.5 -61t92 -33t104.5 -16.5t100.5 -12t83 -23q49 37 82.5 101.5t33.5 130.5q0 59 -25.5 100t-66.5 65.5t-90 34.5t-98 10 q-57 0 -108.5 9.5t-92.5 29.5q-43 -35 -74.5 -97t-31.5 -134z" />
<glyph unicode="&#xa8;" horiz-adv-x="464" d="M82 1337l33 158h41l-33 -158h-41zM309 1337l33 158h41l-33 -158h-41z" />
<glyph unicode="&#xa9;" horiz-adv-x="1712" d="M879 -14q-160 0 -295 56t-233.5 155.5t-155 234.5t-56.5 295q0 158 56.5 293t155 233.5t233.5 154.5t295 56t295 -56t233 -154.5t154.5 -233.5t56.5 -293q0 -160 -56.5 -295t-154.5 -234.5t-233 -155.5t-295 -56zM881 27q147 0 273 50t220 142t147.5 220t53.5 282 q0 152 -52.5 280.5t-145.5 222t-220 146.5t-276 53q-152 0 -279 -52t-221 -146.5t-146.5 -222.5t-52.5 -277q0 -150 52.5 -278t145.5 -221t221 -146t280 -53zM893 260q-78 0 -158 31t-144.5 91t-105.5 147t-41 198q0 82 26 166t78 152.5t134 111.5t195 43q115 0 211 -49 t137 -154l-39 -14q-25 55 -63 90t-82 54.5t-88 25.5t-76 6q-102 0 -176 -40t-121.5 -102.5t-71 -139t-23.5 -150.5q0 -102 38 -181t96.5 -133.5t129 -83t136.5 -28.5q45 0 93 13.5t93 37t81 58t54 77.5l39 -10q-8 -27 -36.5 -64.5t-75 -71.5t-107.5 -57.5t-133 -23.5z" />
<glyph unicode="&#xaa;" horiz-adv-x="827" d="M350 719q-86 0 -137 52t-51 130q0 55 26.5 100.5t72.5 77t107.5 50t133.5 18.5q125 0 215 -39l14 72q6 31 6 57q0 76 -44 120t-130 44q-104 0 -244 -84l-16 41q156 94 275 94q106 0 163.5 -51t57.5 -150q0 -18 -2 -37.5t-6 -39.5l-74 -351q-2 -2 -2 -12q0 -20 22 -20 l-12 -60q-35 0 -52.5 9.5t-17.5 37.5q0 10 2 15l11 59q-61 -63 -145.5 -98t-172.5 -35zM373 772q47 0 98 12.5t95 35t75 52t39 64.5l27 125q-47 23 -98.5 31t-108.5 8q-119 0 -198 -50.5t-79 -138.5q0 -59 41 -99t109 -40z" />
<glyph unicode="&#xab;" horiz-adv-x="1017" d="M74 549l534 346l-10 -45l-489 -320l354 -321l-10 -45l-387 348zM406 549l536 346l-10 -45l-492 -320l355 -321l-9 -45l-387 348z" />
<glyph unicode="&#xac;" horiz-adv-x="1105" d="M979 692l-86 -405h-41l78 364h-746l9 41h786z" />
<glyph unicode="&#xad;" horiz-adv-x="1062" d="M121 535l8 40h786l-8 -40h-786z" />
<glyph unicode="&#xae;" horiz-adv-x="1712" d="M879 -14q-160 0 -295 56t-233.5 155.5t-155 234.5t-56.5 295q0 158 56.5 293t155 233.5t233.5 154.5t295 56t295 -56t233 -154.5t154.5 -233.5t56.5 -293q0 -160 -56.5 -295t-154.5 -234.5t-233 -155.5t-295 -56zM879 27q147 0 274 50t221 142t147.5 221t53.5 287 q0 150 -52.5 276.5t-145.5 220t-221 146.5t-277 53q-150 0 -278 -53t-221 -146.5t-145.5 -220t-52.5 -276.5q0 -152 52.5 -280t145.5 -221t220 -146t279 -53zM582 1194h385q57 0 106 -24.5t85 -65.5t55.5 -92t19.5 -105q0 -55 -17.5 -105t-49 -89t-77 -63.5t-98.5 -28.5 l240 -373h-49l-238 373h-319v-373h-43v946zM977 662q53 0 93 19t67.5 53t41 79t13.5 94t-16.5 94.5t-46 78t-71.5 52t-91 19.5h-342v-489h352z" />
<glyph unicode="&#xaf;" horiz-adv-x="739" d="M94 1405l8 41h545l-8 -41h-545z" />
<glyph unicode="&#xb0;" horiz-adv-x="501" d="M369 1200q-47 0 -78 32t-31 79q0 31 13.5 61.5t37 55t54 40t65.5 15.5q47 0 78 -34t31 -83q0 -33 -14.5 -62.5t-38 -53t-54 -37t-63.5 -13.5zM379 1241q18 0 39.5 9.5t39 25.5t29 37.5t11.5 46.5q0 41 -21.5 58.5t-56.5 17.5q-45 0 -79 -33t-34 -80q0 -35 18.5 -58.5 t53.5 -23.5z" />
<glyph unicode="&#xb1;" horiz-adv-x="989" d="M158 174v41h614v-41h-614zM772 748v-41h-287v-308h-41v308h-286v41h286v307h41v-307h287z" />
<glyph unicode="&#xb2;" horiz-adv-x="724" d="M137 866q33 152 114 232t202 123q51 18 108 36.5t104.5 45t78 66.5t30.5 101q0 59 -43 105.5t-141 46.5q-53 0 -97 -13.5t-79 -31.5t-60.5 -39.5t-42.5 -38.5l-24 25q2 4 25.5 25.5t64.5 46t97 45t128 20.5q113 0 164 -54.5t51 -127.5q0 -74 -34.5 -122t-87 -79 t-111 -49.5t-107.5 -34.5q-82 -29 -134 -65.5t-83 -75.5t-44 -78t-19 -70h503l-8 -39h-555z" />
<glyph unicode="&#xb3;" horiz-adv-x="743" d="M420 856q-123 0 -185.5 55.5t-62.5 141.5l35 14q0 -84 58.5 -128t162.5 -44q57 0 109.5 15.5t91.5 42t62.5 62.5t23.5 79q0 72 -67.5 112.5t-186.5 40.5h-43l8 37h43q143 0 222 47t79 137q0 70 -55.5 113t-147.5 43q-82 0 -151.5 -35t-104.5 -88l-24 25q41 61 119.5 98 t168.5 37q109 0 173.5 -53.5t64.5 -132.5q0 -78 -53 -132.5t-162 -76.5q74 -14 116 -60.5t42 -107.5q0 -53 -28 -97.5t-74 -76t-107 -50t-127 -18.5z" />
<glyph unicode="&#xb4;" horiz-adv-x="385" d="M109 1321l-27 25l156 149h67z" />
<glyph unicode="&#xb5;" horiz-adv-x="1187" d="M279 1063h43l-127 -596q-25 -115 -25 -199q0 -248 213 -248q74 0 148.5 28t143 76t127 115.5t97.5 147.5l143 676h43l-208 -981q-2 -2 -3 -14q0 -27 25 -27l-10 -41q-55 0 -55 61q0 16 2 21l41 188q-47 -68 -106.5 -121t-125 -91t-134.5 -58t-136 -20q-211 0 -240 213 l-133 -627h-41z" />
<glyph unicode="&#xb6;" horiz-adv-x="1107" d="M131 887q0 127 47 231.5t133 179t208 115.5t274 41h393l-10 -41h-136l-335 -1577h-41l143 672h-176l-144 -672h-41l144 672q-221 4 -340 103.5t-119 275.5zM172 897q0 -90 34 -153.5t91 -105.5t135 -63.5t166 -25.5l184 864q-145 0 -258.5 -38t-191.5 -105.5t-119 -162.5 t-41 -210zM999 1413h-176l-184 -864h176z" />
<glyph unicode="&#xb7;" horiz-adv-x="317" d="M115 512l37 170h38l-34 -170h-41z" />
<glyph unicode="&#xb8;" horiz-adv-x="489" d="M8 -256q29 -14 71 -25.5t91 -11.5q133 0 133 96q0 33 -22.5 46.5t-57.5 13.5q-41 0 -88 -11.5t-76 -21.5l146 193l31 -23l-91 -117q23 8 46.5 10.5t39.5 2.5q111 0 111 -86q0 -72 -50 -107t-136 -35q-51 0 -95.5 11.5t-78.5 27.5z" />
<glyph unicode="&#xb9;" horiz-adv-x="491" d="M512 903l-8 -39h-352l8 39h162l149 705q-12 -12 -37.5 -29.5t-55.5 -32t-60.5 -25t-55.5 -10.5l8 39q31 0 68 16.5t67.5 37t52 38t23.5 19.5h41l-162 -758h152z" />
<glyph unicode="&#xba;" horiz-adv-x="882" d="M457 719q-61 0 -111.5 23.5t-86.5 64.5t-54.5 95t-18.5 116q0 86 36 164t95.5 138t136 96t158.5 36q61 0 112.5 -23.5t88.5 -64.5t56.5 -96.5t19.5 -116.5q0 -84 -37 -163t-96.5 -138t-138 -95t-160.5 -36zM465 758q70 0 138.5 31.5t121.5 85t86 123t33 147.5 q0 55 -17.5 104t-49.5 85t-76 56.5t-97 20.5q-68 0 -135.5 -31.5t-120.5 -85t-86 -124t-33 -148.5q0 -55 17.5 -103.5t48.5 -84t74 -56t96 -20.5z" />
<glyph unicode="&#xbb;" horiz-adv-x="1017" d="M907 512l-534 -348l8 45l491 321l-354 320l8 45l389 -346zM575 512l-536 -348l10 45l492 321l-357 320l11 45l387 -346z" />
<glyph unicode="&#xbc;" horiz-adv-x="1454" d="M61 23l1391 1433l27 -24l-1391 -1434zM492 739l-9 -39h-352l8 39h162l150 705q-12 -12 -38 -29.5t-55.5 -32t-60.5 -24.5t-55 -10l8 38q31 0 67.5 16.5t67.5 37t52.5 38t23.5 19.5h41l-162 -758h152zM1147 225h-453l8 35l576 524h29l-111 -520h107l-9 -39h-106l-49 -225 h-39zM1155 264l96 449l-493 -449h397z" />
<glyph unicode="&#xbd;" horiz-adv-x="1544" d="M14 23l1391 1433l27 -24l-1391 -1434zM504 739l-8 -39h-353l9 39h161l150 705q-12 -12 -38 -29.5t-55.5 -32t-60 -24.5t-55.5 -10l8 38q31 0 68 16.5t67.5 37t52 38t23.5 19.5h41l-162 -758h152zM778 0q33 152 114 231.5t202 122.5q51 18 108.5 37t104.5 45.5t77.5 66.5 t30.5 101q0 59 -43 105.5t-141 46.5q-53 0 -97 -13.5t-79 -32t-60.5 -40t-42.5 -37.5l-24 24q2 4 25.5 26t64.5 46.5t97 45t128 20.5q115 0 165 -54.5t50 -128.5t-34.5 -122t-87 -78.5t-111 -49t-107.5 -34.5q-82 -29 -134 -66t-83 -76t-44 -77.5t-19 -69.5h503l-8 -39h-555 z" />
<glyph unicode="&#xbe;" horiz-adv-x="1492" d="M135 23l1391 1433l26 -24l-1390 -1434zM1171 225h-452l8 35l576 524h28l-110 -520h106l-8 -39h-107l-49 -225h-39zM1180 264l96 449l-494 -449h398zM387 692q-39 0 -83 11.5t-81 35t-60.5 60.5t-23.5 90l35 14q0 -72 58.5 -122t162.5 -50q57 0 109.5 15.5t91.5 42 t62.5 62.5t23.5 79q0 72 -68.5 112.5t-185.5 40.5h-43l8 37h43q143 0 222 47t79 138q0 70 -55 112.5t-147 42.5q-82 0 -152 -34.5t-104 -88.5l-25 25q41 61 120 98t169 37q109 0 173 -53t64 -133q0 -78 -53 -132.5t-162 -76.5q74 -14 116 -60.5t42 -107.5q0 -53 -27.5 -97 t-74 -76t-107.5 -50.5t-127 -18.5z" />
<glyph unicode="&#xbf;" horiz-adv-x="911" d="M582 670q-20 -98 -47 -163t-58 -108t-67.5 -68.5t-75.5 -43.5q-61 -31 -126 -58.5t-119 -70.5t-89 -112t-35 -181q0 -68 21.5 -116t56.5 -81t82 -48t100 -15q117 0 232.5 64.5t189.5 174.5l33 -16q-41 -63 -95.5 -112.5t-115.5 -83t-124.5 -51t-125.5 -17.5 q-61 0 -114.5 19.5t-93.5 57t-63.5 94t-23.5 130.5q0 119 37 192.5t94.5 120.5t128 80t140.5 68q35 18 66.5 39.5t58 59.5t50 96.5t42.5 148.5h41zM659 1036l-36 -172h-41l36 172h41z" />
<glyph unicode="&#xc0;" horiz-adv-x="1325" d="M831 1454h37l291 -1454h-45l-104 520h-719l-326 -520h-45zM1001 561l-163 834l-523 -834h686zM791 1880h65l94 -149l-37 -25z" />
<glyph unicode="&#xc1;" horiz-adv-x="1325" d="M831 1454h37l291 -1454h-45l-104 520h-719l-326 -520h-45zM1001 561l-163 834l-523 -834h686zM877 1706l-27 25l156 149h67z" />
<glyph unicode="&#xc2;" horiz-adv-x="1325" d="M831 1454h37l291 -1454h-45l-104 520h-719l-326 -520h-45zM1001 561l-163 834l-523 -834h686zM709 1729l213 151h32l150 -151l-37 -25l-139 129l-193 -129z" />
<glyph unicode="&#xc3;" horiz-adv-x="1325" d="M831 1454h37l291 -1454h-45l-104 520h-719l-326 -520h-45zM1001 561l-163 834l-523 -834h686zM1018 1743q-43 0 -73 12t-54.5 26.5t-47 27t-52.5 12.5q-31 0 -53.5 -13.5t-37 -31t-21.5 -34t-9 -20.5h-39q0 4 9 27t28.5 47.5t52.5 44t82 19.5q37 0 63.5 -12.5t50 -27 t50 -26.5t63.5 -12q39 0 65.5 14t42 31.5t21.5 33t6 19.5h39q-2 -6 -11 -28.5t-30.5 -47t-56.5 -43t-88 -18.5z" />
<glyph unicode="&#xc4;" horiz-adv-x="1325" d="M831 1454h37l291 -1454h-45l-104 520h-719l-326 -520h-45zM1001 561l-163 834l-523 -834h686zM766 1722l33 158h41l-33 -158h-41zM993 1722l33 158h41l-33 -158h-41z" />
<glyph unicode="&#xc5;" horiz-adv-x="1325" d="M831 1454h37l291 -1454h-45l-104 520h-719l-326 -520h-45zM1001 561l-163 834l-523 -834h686zM797 1741q0 29 11 54.5t30.5 44t45 29.5t52.5 11q41 0 64.5 -26.5t23.5 -67.5q0 -29 -11.5 -54.5t-30.5 -44t-45 -29.5t-52 -11q-41 0 -64.5 26.5t-23.5 67.5zM928 1847 q-37 0 -68 -27.5t-31 -72.5q0 -29 17.5 -48.5t46.5 -19.5q33 0 66.5 29t33.5 72q0 31 -18 49t-47 18z" />
<glyph unicode="&#xc6;" horiz-adv-x="1886" d="M1047 1454h901l-11 -41h-847l-138 -649h744l-10 -41h-744l-143 -682h864l-8 -41h-907l110 520h-545l-434 -520h-51zM868 561l174 828l-696 -828h522z" />
<glyph unicode="&#xc7;" horiz-adv-x="1351" d="M408 -256q29 -14 70.5 -25.5t90.5 -11.5q133 0 133 96q0 33 -22.5 46.5t-56.5 13.5q-41 0 -88.5 -11.5t-75.5 -21.5l119 160q-115 4 -203 57t-149.5 137t-93.5 192.5t-32 223.5q0 147 61.5 301t172 279t261 203.5t329.5 78.5q92 0 165.5 -23.5t128 -65.5t90 -100.5 t52.5 -127.5l-41 -12q-23 80 -66 135t-97 89t-118.5 49t-130.5 15q-166 0 -306 -74.5t-242.5 -193.5t-160 -265.5t-57.5 -287.5q0 -117 34 -220.5t95.5 -181t149.5 -123.5t196 -46q68 0 144 18.5t150.5 55t144 95t127.5 138.5l37 -10q-51 -80 -122 -140.5t-150 -103.5 t-162 -66.5t-160 -25.5l-80 -107q23 8 46 10.5t40 2.5q111 0 110 -86q0 -72 -50 -107t-136 -35q-51 0 -95 11.5t-79 27.5z" />
<glyph unicode="&#xc8;" d="M377 1454h889l-9 -41h-847l-140 -649h744l-8 -41h-744l-145 -682h866l-8 -41h-907zM754 1880h65l94 -149l-36 -25z" />
<glyph unicode="&#xc9;" d="M377 1454h889l-9 -41h-847l-140 -649h744l-8 -41h-744l-145 -682h866l-8 -41h-907zM815 1706l-27 25l156 149h68z" />
<glyph unicode="&#xca;" d="M377 1454h889l-9 -41h-847l-140 -649h744l-8 -41h-744l-145 -682h866l-8 -41h-907zM692 1729l213 151h33l149 -151l-36 -25l-140 129l-192 -129z" />
<glyph unicode="&#xcb;" d="M377 1454h889l-9 -41h-847l-140 -649h744l-8 -41h-744l-145 -682h866l-8 -41h-907zM739 1722l33 158h41l-33 -158h-41zM967 1722l32 158h41l-32 -158h-41z" />
<glyph unicode="&#xcc;" horiz-adv-x="438" d="M377 1452h41l-309 -1452h-41zM326 1880h65l94 -149l-36 -25z" />
<glyph unicode="&#xcd;" horiz-adv-x="438" d="M377 1452h41l-309 -1452h-41zM428 1706l-27 25l156 149h68z" />
<glyph unicode="&#xce;" horiz-adv-x="438" d="M377 1452h41l-309 -1452h-41zM258 1729l213 151h33l149 -151l-37 -25l-139 129l-192 -129z" />
<glyph unicode="&#xcf;" horiz-adv-x="438" d="M377 1452h41l-309 -1452h-41zM315 1722l33 158h41l-33 -158h-41zM543 1722l32 158h41l-32 -158h-41z" />
<glyph unicode="&#xd0;" horiz-adv-x="1415" d="M104 752h138l149 702h445q133 0 230 -43t160.5 -117.5t94.5 -175t31 -217.5q0 -195 -61.5 -359.5t-172 -284.5t-262 -188.5t-330.5 -68.5h-444l151 711h-137zM535 41q182 0 326.5 69.5t243.5 187.5t152.5 271.5t53.5 321.5q0 115 -31 211t-91.5 164.5t-151.5 107.5 t-210 39h-403l-141 -661h372l-8 -41h-375l-141 -670h404z" />
<glyph unicode="&#xd1;" horiz-adv-x="1521" d="M377 1454h31l757 -1395l295 1393h41l-309 -1452h-45l-746 1374l-292 -1374h-41zM1135 1743q-43 0 -73 12t-54.5 26.5t-47 27t-53.5 12.5t-53.5 -13.5t-36.5 -31t-21.5 -34t-9.5 -20.5h-38q0 4 9 27t28.5 47.5t52 44t82.5 19.5q37 0 63.5 -12.5t50 -27t50 -26.5t63.5 -12 q39 0 65.5 14t42 31.5t21.5 33t6 19.5h39q-2 -6 -11.5 -28.5t-31 -47t-56 -43t-87.5 -18.5z" />
<glyph unicode="&#xd2;" horiz-adv-x="1486" d="M610 -10q-121 0 -215 49t-158.5 132t-97.5 191.5t-33 225.5q0 168 70 325.5t184.5 280.5t261 196.5t302.5 73.5q121 0 215 -51t158.5 -135t97 -192.5t32.5 -223.5q0 -166 -69.5 -323.5t-184 -279.5t-261 -195.5t-302.5 -73.5zM621 31q154 0 293 73.5t243.5 192.5 t166.5 266.5t62 294.5q0 113 -32.5 215.5t-94 180t-148.5 123.5t-196 46q-154 0 -293 -73.5t-244.5 -192.5t-168 -266.5t-62.5 -296.5q0 -113 32 -215.5t93.5 -179t149.5 -122.5t199 -46zM870 1880h66l94 -149l-37 -25z" />
<glyph unicode="&#xd3;" horiz-adv-x="1486" d="M610 -10q-121 0 -215 49t-158.5 132t-97.5 191.5t-33 225.5q0 168 70 325.5t184.5 280.5t261 196.5t302.5 73.5q121 0 215 -51t158.5 -135t97 -192.5t32.5 -223.5q0 -166 -69.5 -323.5t-184 -279.5t-261 -195.5t-302.5 -73.5zM621 31q154 0 293 73.5t243.5 192.5 t166.5 266.5t62 294.5q0 113 -32.5 215.5t-94 180t-148.5 123.5t-196 46q-154 0 -293 -73.5t-244.5 -192.5t-168 -266.5t-62.5 -296.5q0 -113 32 -215.5t93.5 -179t149.5 -122.5t199 -46zM954 1706l-26 25l155 149h68z" />
<glyph unicode="&#xd4;" horiz-adv-x="1486" d="M610 -10q-121 0 -215 49t-158.5 132t-97.5 191.5t-33 225.5q0 168 70 325.5t184.5 280.5t261 196.5t302.5 73.5q121 0 215 -51t158.5 -135t97 -192.5t32.5 -223.5q0 -166 -69.5 -323.5t-184 -279.5t-261 -195.5t-302.5 -73.5zM621 31q154 0 293 73.5t243.5 192.5 t166.5 266.5t62 294.5q0 113 -32.5 215.5t-94 180t-148.5 123.5t-196 46q-154 0 -293 -73.5t-244.5 -192.5t-168 -266.5t-62.5 -296.5q0 -113 32 -215.5t93.5 -179t149.5 -122.5t199 -46zM788 1729l213 151h33l150 -151l-37 -25l-139 129l-193 -129z" />
<glyph unicode="&#xd5;" horiz-adv-x="1486" d="M610 -10q-121 0 -215 49t-158.5 132t-97.5 191.5t-33 225.5q0 168 70 325.5t184.5 280.5t261 196.5t302.5 73.5q121 0 215 -51t158.5 -135t97 -192.5t32.5 -223.5q0 -166 -69.5 -323.5t-184 -279.5t-261 -195.5t-302.5 -73.5zM621 31q154 0 293 73.5t243.5 192.5 t166.5 266.5t62 294.5q0 113 -32.5 215.5t-94 180t-148.5 123.5t-196 46q-154 0 -293 -73.5t-244.5 -192.5t-168 -266.5t-62.5 -296.5q0 -113 32 -215.5t93.5 -179t149.5 -122.5t199 -46zM1096 1743q-43 0 -73 12t-54.5 26.5t-47 27t-53.5 12.5t-53 -13.5t-36.5 -31 t-21.5 -34t-9 -20.5h-39q0 4 9 27t28.5 47.5t52 44t82.5 19.5q37 0 63.5 -12.5t50 -27t50 -26.5t63.5 -12q39 0 65.5 14t42 31.5t21.5 33t6 19.5h39q-2 -6 -11 -28.5t-30.5 -47t-56.5 -43t-88 -18.5z" />
<glyph unicode="&#xd6;" horiz-adv-x="1486" d="M610 -10q-121 0 -215 49t-158.5 132t-97.5 191.5t-33 225.5q0 168 70 325.5t184.5 280.5t261 196.5t302.5 73.5q121 0 215 -51t158.5 -135t97 -192.5t32.5 -223.5q0 -166 -69.5 -323.5t-184 -279.5t-261 -195.5t-302.5 -73.5zM621 31q154 0 293 73.5t243.5 192.5 t166.5 266.5t62 294.5q0 113 -32.5 215.5t-94 180t-148.5 123.5t-196 46q-154 0 -293 -73.5t-244.5 -192.5t-168 -266.5t-62.5 -296.5q0 -113 32 -215.5t93.5 -179t149.5 -122.5t199 -46zM844 1722l33 158h41l-33 -158h-41zM1071 1722l33 158h41l-33 -158h-41z" />
<glyph unicode="&#xd7;" horiz-adv-x="942" d="M762 276l-31 -28l-276 276l-277 -276l-28 31l274 274l-277 278l31 29l277 -276l278 278l29 -31l-279 -278z" />
<glyph unicode="&#xd8;" horiz-adv-x="1486" d="M1393 1454l-121 -147q76 -86 115.5 -202t39.5 -243q0 -166 -69.5 -323.5t-184 -279.5t-261 -195.5t-302.5 -73.5q-98 0 -179 32.5t-142 90.5l-92 -113h-52l117 141q-78 86 -117 202t-39 245q0 168 70 325.5t184.5 280.5t261 196.5t302.5 73.5q98 0 179 -34.5t142 -94.5 l96 119h52zM147 594q0 -123 36 -231.5t108 -186.5l926 1124q-59 57 -134 90t-168 33q-154 0 -293 -73.5t-244.5 -192.5t-168 -266t-62.5 -297zM621 31q154 0 293 73.5t243.5 192.5t166.5 266.5t62 294.5q0 121 -36.5 228.5t-106.5 185.5l-926 -1125q59 -55 135.5 -85.5 t168.5 -30.5z" />
<glyph unicode="&#xd9;" horiz-adv-x="1482" d="M610 -10q-125 0 -209 36.5t-135 101.5t-73.5 151t-22.5 184q0 63 8 129.5t23 134.5l153 727h41l-153 -727q-14 -66 -22.5 -131.5t-8.5 -126.5q0 -92 20.5 -172t67.5 -139.5t125 -93t192 -33.5q156 0 270.5 61.5t195.5 159.5t131.5 223t76.5 252l154 727h41l-154 -727 q-31 -145 -88 -278.5t-144 -234.5t-208 -162.5t-281 -61.5zM874 1880h66l94 -149l-37 -25z" />
<glyph unicode="&#xda;" horiz-adv-x="1482" d="M610 -10q-125 0 -209 36.5t-135 101.5t-73.5 151t-22.5 184q0 63 8 129.5t23 134.5l153 727h41l-153 -727q-14 -66 -22.5 -131.5t-8.5 -126.5q0 -92 20.5 -172t67.5 -139.5t125 -93t192 -33.5q156 0 270.5 61.5t195.5 159.5t131.5 223t76.5 252l154 727h41l-154 -727 q-31 -145 -88 -278.5t-144 -234.5t-208 -162.5t-281 -61.5zM911 1706l-26 25l155 149h68z" />
<glyph unicode="&#xdb;" horiz-adv-x="1482" d="M610 -10q-125 0 -209 36.5t-135 101.5t-73.5 151t-22.5 184q0 63 8 129.5t23 134.5l153 727h41l-153 -727q-14 -66 -22.5 -131.5t-8.5 -126.5q0 -92 20.5 -172t67.5 -139.5t125 -93t192 -33.5q156 0 270.5 61.5t195.5 159.5t131.5 223t76.5 252l154 727h41l-154 -727 q-31 -145 -88 -278.5t-144 -234.5t-208 -162.5t-281 -61.5zM784 1729l213 151h33l150 -151l-37 -25l-139 129l-193 -129z" />
<glyph unicode="&#xdc;" horiz-adv-x="1482" d="M610 -10q-125 0 -209 36.5t-135 101.5t-73.5 151t-22.5 184q0 63 8 129.5t23 134.5l153 727h41l-153 -727q-14 -66 -22.5 -131.5t-8.5 -126.5q0 -92 20.5 -172t67.5 -139.5t125 -93t192 -33.5q156 0 270.5 61.5t195.5 159.5t131.5 223t76.5 252l154 727h41l-154 -727 q-31 -145 -88 -278.5t-144 -234.5t-208 -162.5t-281 -61.5zM840 1722l32 158h41l-32 -158h-41zM1067 1722l33 158h41l-33 -158h-41z" />
<glyph unicode="&#xdd;" horiz-adv-x="1216" d="M567 567l-368 887h47l352 -844l713 844h47l-750 -891l-121 -563h-41zM766 1706l-27 25l156 149h68z" />
<glyph unicode="&#xde;" horiz-adv-x="1175" d="M377 1454h41l-66 -307h484q72 0 129 -31t96 -82t59.5 -115.5t20.5 -134.5q0 -94 -39 -187t-104.5 -167t-152.5 -120t-183 -46h-498l-55 -264h-41zM670 305q90 0 169 43t137 111.5t91 152.5t33 166q0 66 -19.5 125.5t-55.5 104.5t-87 71.5t-113 26.5h-481l-170 -801h496z " />
<glyph unicode="&#xdf;" horiz-adv-x="1071" d="M326 27q135 2 242.5 35.5t182 93t113.5 144.5t39 192q0 141 -86 227t-239 86h-33l8 41h31q74 0 139 26.5t116.5 71.5t81 105.5t29.5 130.5q0 104 -69.5 172.5t-186.5 68.5q-72 0 -136 -26.5t-116.5 -76.5t-89.5 -120t-55 -156l-221 -1042h-41l221 1042q20 94 62 172 t101.5 133.5t132.5 85t153 29.5q66 0 119 -20.5t90.5 -56t58 -85t20.5 -106.5q0 -63 -26.5 -124.5t-69.5 -111t-98.5 -84t-112.5 -47.5q129 -29 194.5 -114.5t65.5 -210.5q0 -231 -162.5 -367.5t-466.5 -146.5z" />
<glyph unicode="&#xe0;" horiz-adv-x="1187" d="M442 -20q-88 0 -158.5 37.5t-119.5 100t-75 144.5t-26 168q0 123 49.5 239.5t132.5 208t190.5 146.5t221.5 55q72 0 130.5 -21.5t102.5 -57t76.5 -84t51.5 -101.5l53 248h43l-209 -973q-4 -12 -4 -24q0 -25 25 -25l-8 -41q-12 0 -19 2q-39 12 -39 57q0 4 1 10.5t4 21.5 t9.5 46t16.5 84q-43 -53 -96.5 -97t-111.5 -77t-120 -50t-121 -17zM446 20q66 0 141 27t142.5 72t118.5 103.5t70 123.5l81 383q-8 61 -37.5 116.5t-76.5 98.5t-109.5 68.5t-134.5 25.5q-106 0 -203.5 -54t-171 -142t-118 -196.5t-44.5 -215.5q0 -82 26 -155.5t72 -130 t108 -90.5t136 -34zM672 1495h65l94 -149l-36 -25z" />
<glyph unicode="&#xe1;" horiz-adv-x="1187" d="M442 -20q-88 0 -158.5 37.5t-119.5 100t-75 144.5t-26 168q0 123 49.5 239.5t132.5 208t190.5 146.5t221.5 55q72 0 130.5 -21.5t102.5 -57t76.5 -84t51.5 -101.5l53 248h43l-209 -973q-4 -12 -4 -24q0 -25 25 -25l-8 -41q-12 0 -19 2q-39 12 -39 57q0 4 1 10.5t4 21.5 t9.5 46t16.5 84q-43 -53 -96.5 -97t-111.5 -77t-120 -50t-121 -17zM446 20q66 0 141 27t142.5 72t118.5 103.5t70 123.5l81 383q-8 61 -37.5 116.5t-76.5 98.5t-109.5 68.5t-134.5 25.5q-106 0 -203.5 -54t-171 -142t-118 -196.5t-44.5 -215.5q0 -82 26 -155.5t72 -130 t108 -90.5t136 -34zM698 1321l-26 25l155 149h68z" />
<glyph unicode="&#xe2;" horiz-adv-x="1187" d="M442 -20q-88 0 -158.5 37.5t-119.5 100t-75 144.5t-26 168q0 123 49.5 239.5t132.5 208t190.5 146.5t221.5 55q72 0 130.5 -21.5t102.5 -57t76.5 -84t51.5 -101.5l53 248h43l-209 -973q-4 -12 -4 -24q0 -25 25 -25l-8 -41q-12 0 -19 2q-39 12 -39 57q0 4 1 10.5t4 21.5 t9.5 46t16.5 84q-43 -53 -96.5 -97t-111.5 -77t-120 -50t-121 -17zM446 20q66 0 141 27t142.5 72t118.5 103.5t70 123.5l81 383q-8 61 -37.5 116.5t-76.5 98.5t-109.5 68.5t-134.5 25.5q-106 0 -203.5 -54t-171 -142t-118 -196.5t-44.5 -215.5q0 -82 26 -155.5t72 -130 t108 -90.5t136 -34zM551 1343l213 152h33l149 -152l-37 -24l-139 129l-192 -129z" />
<glyph unicode="&#xe3;" horiz-adv-x="1187" d="M442 -20q-88 0 -158.5 37.5t-119.5 100t-75 144.5t-26 168q0 123 49.5 239.5t132.5 208t190.5 146.5t221.5 55q72 0 130.5 -21.5t102.5 -57t76.5 -84t51.5 -101.5l53 248h43l-209 -973q-4 -12 -4 -24q0 -25 25 -25l-8 -41q-12 0 -19 2q-39 12 -39 57q0 4 1 10.5t4 21.5 t9.5 46t16.5 84q-43 -53 -96.5 -97t-111.5 -77t-120 -50t-121 -17zM446 20q66 0 141 27t142.5 72t118.5 103.5t70 123.5l81 383q-8 61 -37.5 116.5t-76.5 98.5t-109.5 68.5t-134.5 25.5q-106 0 -203.5 -54t-171 -142t-118 -196.5t-44.5 -215.5q0 -82 26 -155.5t72 -130 t108 -90.5t136 -34zM854 1358q-43 0 -72.5 12t-54.5 26.5t-47.5 27t-52.5 12.5q-31 0 -53.5 -13.5t-37 -31t-21.5 -34t-9 -20.5h-39q0 4 9 26.5t28.5 47.5t52.5 44.5t82 19.5q37 0 63.5 -12.5t50 -27t50 -26.5t63.5 -12q39 0 65.5 14t42 31.5t21.5 33t6 19.5h39 q-2 -6 -11 -28.5t-30.5 -47t-56.5 -43t-88 -18.5z" />
<glyph unicode="&#xe4;" horiz-adv-x="1187" d="M442 -20q-88 0 -158.5 37.5t-119.5 100t-75 144.5t-26 168q0 123 49.5 239.5t132.5 208t190.5 146.5t221.5 55q72 0 130.5 -21.5t102.5 -57t76.5 -84t51.5 -101.5l53 248h43l-209 -973q-4 -12 -4 -24q0 -25 25 -25l-8 -41q-12 0 -19 2q-39 12 -39 57q0 4 1 10.5t4 21.5 t9.5 46t16.5 84q-43 -53 -96.5 -97t-111.5 -77t-120 -50t-121 -17zM446 20q66 0 141 27t142.5 72t118.5 103.5t70 123.5l81 383q-8 61 -37.5 116.5t-76.5 98.5t-109.5 68.5t-134.5 25.5q-106 0 -203.5 -54t-171 -142t-118 -196.5t-44.5 -215.5q0 -82 26 -155.5t72 -130 t108 -90.5t136 -34zM604 1337l33 158h41l-33 -158h-41zM831 1337l33 158h41l-33 -158h-41z" />
<glyph unicode="&#xe5;" horiz-adv-x="1187" d="M442 -20q-88 0 -158.5 37.5t-119.5 100t-75 144.5t-26 168q0 123 49.5 239.5t132.5 208t190.5 146.5t221.5 55q72 0 130.5 -21.5t102.5 -57t76.5 -84t51.5 -101.5l53 248h43l-209 -973q-4 -12 -4 -24q0 -25 25 -25l-8 -41q-12 0 -19 2q-39 12 -39 57q0 4 1 10.5t4 21.5 t9.5 46t16.5 84q-43 -53 -96.5 -97t-111.5 -77t-120 -50t-121 -17zM446 20q66 0 141 27t142.5 72t118.5 103.5t70 123.5l81 383q-8 61 -37.5 116.5t-76.5 98.5t-109.5 68.5t-134.5 25.5q-106 0 -203.5 -54t-171 -142t-118 -196.5t-44.5 -215.5q0 -82 26 -155.5t72 -130 t108 -90.5t136 -34zM633 1356q0 29 11 54.5t30.5 44t45 29.5t52.5 11q41 0 64.5 -26.5t23.5 -67.5q0 -29 -11 -54.5t-30.5 -44t-45 -29.5t-52.5 -11q-41 0 -64.5 26.5t-23.5 67.5zM764 1462q-37 0 -67.5 -27.5t-30.5 -72.5q0 -29 17 -48.5t46 -19.5q33 0 66.5 29t33.5 72 q0 31 -18 49t-47 18z" />
<glyph unicode="&#xe6;" horiz-adv-x="1808" d="M281 -20q-70 0 -122.5 21.5t-87 58t-52 85t-17.5 101.5q0 82 38 148.5t104.5 113.5t156.5 73.5t193 26.5q70 0 140.5 -11t129.5 -30q14 53 36.5 104.5t51.5 98.5q0 123 -67.5 195.5t-188.5 72.5q-80 0 -171 -33.5t-189 -97.5l-17 33q115 72 207 105.5t178 33.5 q119 0 198 -64.5t89 -189.5q88 115 209 184.5t250 69.5q84 0 155.5 -30.5t123.5 -85t82 -129t30 -162.5q0 -35 -5 -83t-22 -81h-921q-6 -47 -7 -86q0 -86 25 -160t71 -128t110.5 -84t144.5 -30q57 0 116.5 16.5t113.5 46.5t100 71t77 90l37 -11q-33 -55 -83 -101t-111.5 -80 t-128 -53t-132.5 -19q-127 0 -218 67.5t-134 179.5q-45 -68 -107.5 -114.5t-131 -76.5t-136 -43t-118.5 -13zM293 20q63 0 137 19.5t140.5 54.5t117.5 82t70 105q-16 61 -17 127q0 55 13 116q-61 23 -130 33t-135 10q-98 0 -180 -22.5t-141 -63.5t-92 -98t-33 -129 q0 -45 14.5 -87t45 -75t77.5 -52.5t113 -19.5zM1681 549q14 55 15 117q0 72 -21.5 139t-65.5 119.5t-110.5 83t-155.5 30.5q-90 0 -176 -36.5t-157.5 -102t-127 -156t-81.5 -194.5h880z" />
<glyph unicode="&#xe7;" horiz-adv-x="1052" d="M252 -258q29 -14 71 -25.5t91 -11.5q133 0 133 96q0 33 -22.5 46.5t-57.5 13.5q-41 0 -88 -11.5t-76 -21.5l115 154q-80 6 -145.5 42.5t-111.5 97t-72 139.5t-26 169q0 131 51.5 250t137.5 207t197.5 140t230.5 52q129 0 215 -62.5t115 -174.5l-45 -15q-29 98 -109 154.5 t-190 56.5q-106 0 -208 -48t-179.5 -130t-126 -191.5t-48.5 -230.5q0 -86 26 -162.5t71 -133t108.5 -89.5t141.5 -33q59 0 121.5 18.5t117.5 49.5t99.5 72t64.5 84l39 -13q-29 -53 -75 -97t-103.5 -77.5t-122 -54t-127.5 -22.5l-76 -99q23 8 46.5 10.5t39.5 2.5 q111 0 111 -87q0 -72 -50.5 -106.5t-136.5 -34.5q-51 0 -95 11.5t-79 27.5z" />
<glyph unicode="&#xe8;" horiz-adv-x="1067" d="M451 -20q-92 0 -164 35.5t-121 97t-76 143.5t-27 174q0 121 47.5 237.5t130.5 208t195.5 147.5t245.5 56q51 0 107.5 -18.5t101.5 -53t74.5 -87t29.5 -121.5q0 -291 -536 -291q-78 0 -160 2t-186 8q-6 -43 -7 -86q0 -84 23 -158.5t68 -131t112.5 -89.5t155.5 -33 q55 0 114.5 17.5t115 48.5t101.5 76t76 100l39 -12q-35 -61 -85 -111.5t-110.5 -85.5t-127.5 -54t-137 -19zM674 1038q-100 0 -190.5 -40t-163 -106.5t-125 -153.5t-74.5 -179q104 -6 185 -8t159 -2q135 0 228 18.5t150.5 52t83 79.5t25.5 102q0 61 -26.5 106t-67.5 75 t-90 43t-94 13zM676 1495h65l95 -149l-37 -25z" />
<glyph unicode="&#xe9;" horiz-adv-x="1067" d="M451 -20q-92 0 -164 35.5t-121 97t-76 143.5t-27 174q0 121 47.5 237.5t130.5 208t195.5 147.5t245.5 56q51 0 107.5 -18.5t101.5 -53t74.5 -87t29.5 -121.5q0 -291 -536 -291q-78 0 -160 2t-186 8q-6 -43 -7 -86q0 -84 23 -158.5t68 -131t112.5 -89.5t155.5 -33 q55 0 114.5 17.5t115 48.5t101.5 76t76 100l39 -12q-35 -61 -85 -111.5t-110.5 -85.5t-127.5 -54t-137 -19zM674 1038q-100 0 -190.5 -40t-163 -106.5t-125 -153.5t-74.5 -179q104 -6 185 -8t159 -2q135 0 228 18.5t150.5 52t83 79.5t25.5 102q0 61 -26.5 106t-67.5 75 t-90 43t-94 13zM676 1321l-27 25l156 149h67z" />
<glyph unicode="&#xea;" horiz-adv-x="1067" d="M451 -20q-92 0 -164 35.5t-121 97t-76 143.5t-27 174q0 121 47.5 237.5t130.5 208t195.5 147.5t245.5 56q51 0 107.5 -18.5t101.5 -53t74.5 -87t29.5 -121.5q0 -291 -536 -291q-78 0 -160 2t-186 8q-6 -43 -7 -86q0 -84 23 -158.5t68 -131t112.5 -89.5t155.5 -33 q55 0 114.5 17.5t115 48.5t101.5 76t76 100l39 -12q-35 -61 -85 -111.5t-110.5 -85.5t-127.5 -54t-137 -19zM674 1038q-100 0 -190.5 -40t-163 -106.5t-125 -153.5t-74.5 -179q104 -6 185 -8t159 -2q135 0 228 18.5t150.5 52t83 79.5t25.5 102q0 61 -26.5 106t-67.5 75 t-90 43t-94 13zM561 1343l213 152h33l149 -152l-36 -24l-140 129l-192 -129z" />
<glyph unicode="&#xeb;" horiz-adv-x="1067" d="M451 -20q-92 0 -164 35.5t-121 97t-76 143.5t-27 174q0 121 47.5 237.5t130.5 208t195.5 147.5t245.5 56q51 0 107.5 -18.5t101.5 -53t74.5 -87t29.5 -121.5q0 -291 -536 -291q-78 0 -160 2t-186 8q-6 -43 -7 -86q0 -84 23 -158.5t68 -131t112.5 -89.5t155.5 -33 q55 0 114.5 17.5t115 48.5t101.5 76t76 100l39 -12q-35 -61 -85 -111.5t-110.5 -85.5t-127.5 -54t-137 -19zM674 1038q-100 0 -190.5 -40t-163 -106.5t-125 -153.5t-74.5 -179q104 -6 185 -8t159 -2q135 0 228 18.5t150.5 52t83 79.5t25.5 102q0 61 -26.5 106t-67.5 75 t-90 43t-94 13zM604 1337l33 158h41l-33 -158h-41zM831 1337l33 158h41l-33 -158h-41z" />
<glyph unicode="&#xec;" horiz-adv-x="372" d="M260 1063h41l-225 -1063h-41zM188 1495h66l94 -149l-37 -25z" />
<glyph unicode="&#xed;" horiz-adv-x="372" d="M260 1063h41l-225 -1063h-41zM330 1321l-27 25l156 149h67z" />
<glyph unicode="&#xee;" horiz-adv-x="372" d="M260 1063h41l-225 -1063h-41zM137 1343l213 152h33l149 -152l-36 -24l-140 129l-192 -129z" />
<glyph unicode="&#xef;" horiz-adv-x="372" d="M260 1063h41l-225 -1063h-41zM205 1337l33 158h41l-33 -158h-41zM432 1337l33 158h41l-33 -158h-41z" />
<glyph unicode="&#xf0;" horiz-adv-x="1163" d="M1094 1432l-213 -129q111 -133 151.5 -272.5t40.5 -274.5q0 -180 -56 -324.5t-146.5 -245t-203 -153.5t-225.5 -53q-86 0 -157.5 32.5t-122.5 88t-79 130t-28 158.5q0 117 52.5 222.5t136.5 185.5t191.5 128t217.5 48q76 0 139.5 -21.5t112.5 -61.5t81 -94.5t44 -119.5 q6 61 6 123q0 119 -37.5 240.5t-146.5 246.5l-274 -166l-15 29l266 162q-41 47 -94 92t-119 92h60q55 -41 100 -83t84 -85l219 133zM96 393q0 -78 25.5 -145.5t72 -118.5t112 -80t143.5 -29q102 0 201.5 47.5t178 124t127 177t48.5 204.5q0 74 -27 139.5t-75 115t-113.5 77 t-143.5 27.5q-102 0 -200.5 -44t-175 -119t-125 -172.5t-48.5 -203.5z" />
<glyph unicode="&#xf1;" horiz-adv-x="1105" d="M260 1063h41l-57 -275q45 63 104.5 118t126 92.5t137 59t138.5 21.5q115 0 170 -62.5t55 -195.5q0 -49 -7 -106.5t-22 -122.5l-125 -592h-41l125 592q27 125 27 219q0 117 -46 172t-145 55q-72 0 -148.5 -27.5t-147 -76.5t-130 -116.5t-96.5 -145.5l-143 -672h-41z M848 1358q-43 0 -73 12t-54.5 26.5t-47 27t-52.5 12.5q-31 0 -53.5 -13.5t-37 -31t-21.5 -34t-9 -20.5h-39q0 4 9 26.5t28.5 47.5t52.5 44.5t82 19.5q37 0 63.5 -12.5t50 -27t50 -26.5t63.5 -12q39 0 65.5 14t42 31.5t21.5 33t6 19.5h39q-2 -6 -11 -28.5t-30.5 -47 t-56.5 -43t-88 -18.5z" />
<glyph unicode="&#xf2;" horiz-adv-x="1148" d="M440 -20q-86 0 -155.5 34.5t-119.5 95t-77 141.5t-27 173q0 129 53.5 248t140.5 210t196.5 144t222.5 53q84 0 153.5 -34.5t118.5 -96t77 -143.5t28 -174q0 -127 -53.5 -245t-139.5 -208t-195.5 -144t-222.5 -54zM446 20q102 0 204 50.5t181.5 133.5t129 192.5 t49.5 228.5q0 86 -26 160.5t-71 131t-108.5 89t-138.5 32.5q-102 0 -203 -50t-180.5 -135t-130 -195.5t-50.5 -229.5q0 -84 25 -158.5t71 -130t108 -87.5t140 -32zM664 1495h65l94 -149l-37 -25z" />
<glyph unicode="&#xf3;" horiz-adv-x="1148" d="M440 -20q-86 0 -155.5 34.5t-119.5 95t-77 141.5t-27 173q0 129 53.5 248t140.5 210t196.5 144t222.5 53q84 0 153.5 -34.5t118.5 -96t77 -143.5t28 -174q0 -127 -53.5 -245t-139.5 -208t-195.5 -144t-222.5 -54zM446 20q102 0 204 50.5t181.5 133.5t129 192.5 t49.5 228.5q0 86 -26 160.5t-71 131t-108.5 89t-138.5 32.5q-102 0 -203 -50t-180.5 -135t-130 -195.5t-50.5 -229.5q0 -84 25 -158.5t71 -130t108 -87.5t140 -32zM719 1321l-27 25l156 149h67z" />
<glyph unicode="&#xf4;" horiz-adv-x="1148" d="M440 -20q-86 0 -155.5 34.5t-119.5 95t-77 141.5t-27 173q0 129 53.5 248t140.5 210t196.5 144t222.5 53q84 0 153.5 -34.5t118.5 -96t77 -143.5t28 -174q0 -127 -53.5 -245t-139.5 -208t-195.5 -144t-222.5 -54zM446 20q102 0 204 50.5t181.5 133.5t129 192.5 t49.5 228.5q0 86 -26 160.5t-71 131t-108.5 89t-138.5 32.5q-102 0 -203 -50t-180.5 -135t-130 -195.5t-50.5 -229.5q0 -84 25 -158.5t71 -130t108 -87.5t140 -32zM541 1343l213 152h32l150 -152l-37 -24l-139 129l-193 -129z" />
<glyph unicode="&#xf5;" horiz-adv-x="1148" d="M440 -20q-86 0 -155.5 34.5t-119.5 95t-77 141.5t-27 173q0 129 53.5 248t140.5 210t196.5 144t222.5 53q84 0 153.5 -34.5t118.5 -96t77 -143.5t28 -174q0 -127 -53.5 -245t-139.5 -208t-195.5 -144t-222.5 -54zM446 20q102 0 204 50.5t181.5 133.5t129 192.5 t49.5 228.5q0 86 -26 160.5t-71 131t-108.5 89t-138.5 32.5q-102 0 -203 -50t-180.5 -135t-130 -195.5t-50.5 -229.5q0 -84 25 -158.5t71 -130t108 -87.5t140 -32zM844 1358q-43 0 -73 12t-54.5 26.5t-47 27t-53.5 12.5t-53 -13.5t-36.5 -31t-21.5 -34t-9 -20.5h-39 q0 4 9 26.5t28.5 47.5t52.5 44.5t82 19.5q37 0 63.5 -12.5t50 -27t50 -26.5t63.5 -12q39 0 65.5 14t42 31.5t21.5 33t6 19.5h39q-2 -6 -11 -28.5t-30.5 -47t-56.5 -43t-88 -18.5z" />
<glyph unicode="&#xf6;" horiz-adv-x="1148" d="M440 -20q-86 0 -155.5 34.5t-119.5 95t-77 141.5t-27 173q0 129 53.5 248t140.5 210t196.5 144t222.5 53q84 0 153.5 -34.5t118.5 -96t77 -143.5t28 -174q0 -127 -53.5 -245t-139.5 -208t-195.5 -144t-222.5 -54zM446 20q102 0 204 50.5t181.5 133.5t129 192.5 t49.5 228.5q0 86 -26 160.5t-71 131t-108.5 89t-138.5 32.5q-102 0 -203 -50t-180.5 -135t-130 -195.5t-50.5 -229.5q0 -84 25 -158.5t71 -130t108 -87.5t140 -32zM588 1337l33 158h41l-33 -158h-41zM815 1337l33 158h41l-33 -158h-41z" />
<glyph unicode="&#xf7;" horiz-adv-x="1122" d="M526 788v132h41v-132h-41zM526 188v131h41v-131h-41zM135 535v40h826v-40h-826z" />
<glyph unicode="&#xf8;" horiz-adv-x="1148" d="M182 90q-57 61 -89 147.5t-32 186.5q0 129 53.5 248t140.5 210t196.5 144t222.5 53q66 0 123 -22.5t104 -63.5l55 70h52l-78 -98q57 -61 89 -147.5t32 -186.5q0 -127 -53.5 -245t-139.5 -208t-195.5 -144t-222.5 -54q-68 0 -125 21.5t-104 59.5l-49 -61h-49zM102 428 q0 -92 28 -170t81 -135l661 835q-86 80 -206 80q-102 0 -204 -50t-181.5 -135t-129 -195.5t-49.5 -229.5zM446 20q102 0 204 50.5t181.5 133.5t129 192.5t49.5 228.5q0 92 -29 169.5t-80 135.5l-663 -834q43 -35 95 -55.5t113 -20.5z" />
<glyph unicode="&#xf9;" horiz-adv-x="1128" d="M342 -20q-246 0 -246 284q0 88 25 203l127 596h41l-127 -596q-25 -115 -25 -199q0 -248 215 -248q74 0 148.5 28t143.5 76t127 115.5t97 147.5l144 676h41l-197 -926q-4 -23 -9 -43t-5 -24q0 -29 26 -29l-10 -41q-55 0 -55 61q0 2 1 10.5t5 30t12 61.5t23 107 q-47 -68 -105.5 -121t-124 -91t-135 -58t-137.5 -20zM563 1495h66l94 -149l-37 -25z" />
<glyph unicode="&#xfa;" horiz-adv-x="1128" d="M342 -20q-246 0 -246 284q0 88 25 203l127 596h41l-127 -596q-25 -115 -25 -199q0 -248 215 -248q74 0 148.5 28t143.5 76t127 115.5t97 147.5l144 676h41l-197 -926q-4 -23 -9 -43t-5 -24q0 -29 26 -29l-10 -41q-12 0 -24 4q-31 12 -31 55q0 2 1 8.5t4 27t11 61.5 t25 114q-47 -68 -105.5 -121t-124 -91t-135 -58t-137.5 -20zM645 1321l-27 25l156 149h68z" />
<glyph unicode="&#xfb;" horiz-adv-x="1128" d="M342 -20q-246 0 -246 284q0 88 25 203l127 596h41l-127 -596q-25 -115 -25 -199q0 -248 215 -248q74 0 148.5 28t143.5 76t127 115.5t97 147.5l144 676h41l-197 -926q-4 -23 -9 -43t-5 -24q0 -29 26 -29l-10 -41q-12 0 -24 4q-31 12 -31 55q0 2 1 8.5t4 27t11 61.5 t25 114q-47 -68 -105.5 -121t-124 -91t-135 -58t-137.5 -20zM502 1343l213 152h33l149 -152l-37 -24l-139 129l-193 -129z" />
<glyph unicode="&#xfc;" horiz-adv-x="1128" d="M342 -20q-246 0 -246 284q0 88 25 203l127 596h41l-127 -596q-25 -115 -25 -199q0 -248 215 -248q74 0 148.5 28t143.5 76t127 115.5t97 147.5l144 676h41l-197 -926q-4 -23 -9 -43t-5 -24q0 -29 26 -29l-10 -41q-12 0 -24 4q-31 12 -31 55q0 2 1 8.5t4 27t11 61.5 t25 114q-47 -68 -105.5 -121t-124 -91t-135 -58t-137.5 -20zM561 1337l33 158h41l-33 -158h-41zM788 1337l33 158h41l-33 -158h-41z" />
<glyph unicode="&#xfd;" horiz-adv-x="942" d="M-76 -424q61 12 105.5 32.5t81 54.5t72.5 85t83 123l84 129l-244 1063h46l229 -1012l119 189q96 154 162.5 266t112.5 205.5t78 176.5t58 175h43q-29 -98 -59.5 -183t-77.5 -179.5t-115.5 -211t-171.5 -278.5l-168 -264q-74 -115 -126 -189.5t-100 -119t-96 -66 t-112 -31.5zM565 1321l-26 25l155 149h68z" />
<glyph unicode="&#xfe;" horiz-adv-x="1179" d="M344 1454h41l-135 -639q102 117 218 190.5t251 73.5q92 0 159.5 -35.5t113.5 -94t68.5 -134.5t22.5 -158q0 -117 -44 -237.5t-123.5 -219t-190.5 -159.5t-242 -61q-139 0 -228 67.5t-132 173.5l-139 -657h-41zM498 20q100 0 197.5 49.5t174 135.5t123.5 199.5t47 242.5 q0 84 -21.5 155.5t-63.5 124t-103 82t-141 29.5q-72 0 -139.5 -24.5t-128 -66.5t-115 -98t-97.5 -120l-81 -383q-4 -12 -4.5 -19.5t-0.5 -11.5q0 -61 30 -115.5t79 -94t112.5 -62.5t131.5 -23z" />
<glyph unicode="&#xff;" horiz-adv-x="942" d="M-76 -424q61 12 105.5 32.5t81 54.5t72.5 85t83 123l84 129l-244 1063h46l229 -1012l119 189q96 154 162.5 266t112.5 205.5t78 176.5t58 175h43q-29 -98 -59.5 -183t-77.5 -179.5t-115.5 -211t-171.5 -278.5l-168 -264q-74 -115 -126 -189.5t-100 -119t-96 -66 t-112 -31.5zM467 1337l33 158h41l-33 -158h-41zM694 1337l33 158h41l-33 -158h-41z" />
<glyph unicode="&#x100;" horiz-adv-x="1325" d="M831 1454h37l291 -1454h-45l-104 520h-719l-326 -520h-45zM1001 561l-163 834l-523 -834h686zM641 1790l8 41h545l-8 -41h-545z" />
<glyph unicode="&#x101;" horiz-adv-x="1187" d="M442 -20q-88 0 -158.5 37.5t-119.5 100t-75 144.5t-26 168q0 123 49.5 239.5t132.5 208t190.5 146.5t221.5 55q72 0 130.5 -21.5t102.5 -57t76.5 -84t51.5 -101.5l53 248h43l-209 -973q-4 -12 -4 -24q0 -25 25 -25l-8 -41q-12 0 -19 2q-39 12 -39 57q0 4 1 10.5t4 21.5 t9.5 46t16.5 84q-43 -53 -96.5 -97t-111.5 -77t-120 -50t-121 -17zM446 20q66 0 141 27t142.5 72t118.5 103.5t70 123.5l81 383q-8 61 -37.5 116.5t-76.5 98.5t-109.5 68.5t-134.5 25.5q-106 0 -203.5 -54t-171 -142t-118 -196.5t-44.5 -215.5q0 -82 26 -155.5t72 -130 t108 -90.5t136 -34zM483 1405l9 41h544l-8 -41h-545z" />
<glyph unicode="&#x102;" horiz-adv-x="1325" d="M831 1454h37l291 -1454h-45l-104 520h-719l-326 -520h-45zM1001 561l-163 834l-523 -834h686zM897 1757q41 0 80 36t55 87h37q-6 -31 -24.5 -59.5t-43 -50t-53 -35t-57.5 -13.5q-51 0 -84 37t-33 90q0 10 4 31h39q-2 -8 -2 -22q0 -41 23.5 -71t58.5 -30z" />
<glyph unicode="&#x103;" horiz-adv-x="1187" d="M442 -20q-88 0 -158.5 37.5t-119.5 100t-75 144.5t-26 168q0 123 49.5 239.5t132.5 208t190.5 146.5t221.5 55q72 0 130.5 -21.5t102.5 -57t76.5 -84t51.5 -101.5l53 248h43l-209 -973q-4 -12 -4 -24q0 -25 25 -25l-8 -41q-12 0 -19 2q-39 12 -39 57q0 4 1 10.5t4 21.5 t9.5 46t16.5 84q-43 -53 -96.5 -97t-111.5 -77t-120 -50t-121 -17zM446 20q66 0 141 27t142.5 72t118.5 103.5t70 123.5l81 383q-8 61 -37.5 116.5t-76.5 98.5t-109.5 68.5t-134.5 25.5q-106 0 -203.5 -54t-171 -142t-118 -196.5t-44.5 -215.5q0 -82 26 -155.5t72 -130 t108 -90.5t136 -34zM735 1372q41 0 80 36t55 87h37q-6 -31 -24.5 -59.5t-43 -50t-53 -35t-57.5 -13.5q-51 0 -84 37t-33 90q0 10 4 31h39q-2 -8 -2 -22q0 -41 23.5 -71t58.5 -30z" />
<glyph unicode="&#x104;" horiz-adv-x="1325" d="M993 -326q-39 10 -58.5 38t-19.5 63q0 57 43 109.5t154 123.5l-102 512h-719l-326 -520h-45l911 1454h37l291 -1454q-59 -37 -99 -66.5t-62.5 -54t-32 -47t-9.5 -47.5q0 -59 70 -76zM1001 561l-163 834l-523 -834h686z" />
<glyph unicode="&#x105;" horiz-adv-x="1187" d="M752 -326q-39 10 -58.5 38t-19.5 63q0 29 10 55.5t33.5 55t62.5 60t97 68.5q-16 14 -17 45q0 4 1 10.5t4 21.5t9.5 46t16.5 84q-43 -53 -96.5 -97t-111.5 -77t-119.5 -50t-121.5 -17q-88 0 -158.5 37.5t-119.5 100t-75 144.5t-26 168q0 123 49.5 239.5t132.5 208 t190.5 146.5t221.5 55q72 0 130.5 -21.5t102.5 -57t76.5 -84t51.5 -101.5l53 248h43l-209 -973q-4 -12 -4 -24q0 -25 25 -25l-8 -41q-59 -37 -99.5 -66.5t-63 -54t-31.5 -47t-9 -47.5q0 -59 69 -76zM446 20q66 0 141 27t142.5 72t118.5 103.5t70 123.5l81 383 q-8 61 -37.5 116.5t-76.5 98.5t-109.5 68.5t-134.5 25.5q-106 0 -203.5 -54t-171 -142t-118 -196.5t-44.5 -215.5q0 -82 26 -155.5t72 -130t108 -90.5t136 -34z" />
<glyph unicode="&#x106;" horiz-adv-x="1357" d="M606 -12q-119 0 -212 51t-156.5 137t-97.5 196.5t-34 227.5q0 147 61.5 301t172.5 279t261.5 203.5t328.5 78.5q92 0 165.5 -23.5t128 -65.5t90.5 -100.5t52 -127.5l-41 -12q-23 80 -65.5 135t-97 89t-119 49t-130.5 15q-166 0 -306 -74.5t-242.5 -193.5t-160 -265.5 t-57.5 -287.5q0 -117 34 -220.5t95.5 -181t149.5 -123.5t197 -46q68 0 143.5 18.5t150 55t144 95t127.5 138.5l37 -10q-53 -82 -127 -145.5t-157 -106.5t-169 -64.5t-166 -21.5zM971 1706l-27 25l156 149h67z" />
<glyph unicode="&#x107;" horiz-adv-x="1052" d="M449 -20q-86 0 -157 34.5t-122 96t-79 143.5t-28 176q0 131 51.5 250t137.5 207t197.5 140t230.5 52q129 0 215 -62.5t115 -174.5l-45 -15q-29 98 -109 154.5t-190 56.5q-106 0 -208 -48t-179.5 -130t-126 -191.5t-48.5 -230.5q0 -86 26 -162.5t71 -133t108.5 -89.5 t141.5 -33q59 0 121.5 18.5t117.5 49.5t99.5 72t64.5 84l39 -13q-29 -53 -77 -99t-108.5 -80t-126.5 -53t-132 -19zM674 1321l-27 25l156 149h67z" />
<glyph unicode="&#x108;" horiz-adv-x="1357" d="M606 -12q-119 0 -212 51t-156.5 137t-97.5 196.5t-34 227.5q0 147 61.5 301t172.5 279t261.5 203.5t328.5 78.5q92 0 165.5 -23.5t128 -65.5t90.5 -100.5t52 -127.5l-41 -12q-23 80 -65.5 135t-97 89t-119 49t-130.5 15q-166 0 -306 -74.5t-242.5 -193.5t-160 -265.5 t-57.5 -287.5q0 -117 34 -220.5t95.5 -181t149.5 -123.5t197 -46q68 0 143.5 18.5t150 55t144 95t127.5 138.5l37 -10q-53 -82 -127 -145.5t-157 -106.5t-169 -64.5t-166 -21.5zM803 1729l213 151h33l149 -151l-37 -25l-139 129l-193 -129z" />
<glyph unicode="&#x109;" horiz-adv-x="1052" d="M449 -20q-86 0 -157 34.5t-122 96t-79 143.5t-28 176q0 131 51.5 250t137.5 207t197.5 140t230.5 52q129 0 215 -62.5t115 -174.5l-45 -15q-29 98 -109 154.5t-190 56.5q-106 0 -208 -48t-179.5 -130t-126 -191.5t-48.5 -230.5q0 -86 26 -162.5t71 -133t108.5 -89.5 t141.5 -33q59 0 121.5 18.5t117.5 49.5t99.5 72t64.5 84l39 -13q-29 -53 -77 -99t-108.5 -80t-126.5 -53t-132 -19zM555 1343l213 152h33l149 -152l-37 -24l-139 129l-192 -129z" />
<glyph unicode="&#x10a;" horiz-adv-x="1357" d="M606 -12q-119 0 -212 51t-156.5 137t-97.5 196.5t-34 227.5q0 147 61.5 301t172.5 279t261.5 203.5t328.5 78.5q92 0 165.5 -23.5t128 -65.5t90.5 -100.5t52 -127.5l-41 -12q-23 80 -65.5 135t-97 89t-119 49t-130.5 15q-166 0 -306 -74.5t-242.5 -193.5t-160 -265.5 t-57.5 -287.5q0 -117 34 -220.5t95.5 -181t149.5 -123.5t197 -46q68 0 143.5 18.5t150 55t144 95t127.5 138.5l37 -10q-53 -82 -127 -145.5t-157 -106.5t-169 -64.5t-166 -21.5zM979 1722l33 158h41l-33 -158h-41z" />
<glyph unicode="&#x10b;" horiz-adv-x="1052" d="M449 -20q-86 0 -157 34.5t-122 96t-79 143.5t-28 176q0 131 51.5 250t137.5 207t197.5 140t230.5 52q129 0 215 -62.5t115 -174.5l-45 -15q-29 98 -109 154.5t-190 56.5q-106 0 -208 -48t-179.5 -130t-126 -191.5t-48.5 -230.5q0 -86 26 -162.5t71 -133t108.5 -89.5 t141.5 -33q59 0 121.5 18.5t117.5 49.5t99.5 72t64.5 84l39 -13q-29 -53 -77 -99t-108.5 -80t-126.5 -53t-132 -19zM721 1337l33 158h41l-33 -158h-41z" />
<glyph unicode="&#x10c;" horiz-adv-x="1357" d="M606 -12q-119 0 -212 51t-156.5 137t-97.5 196.5t-34 227.5q0 147 61.5 301t172.5 279t261.5 203.5t328.5 78.5q92 0 165.5 -23.5t128 -65.5t90.5 -100.5t52 -127.5l-41 -12q-23 80 -65.5 135t-97 89t-119 49t-130.5 15q-166 0 -306 -74.5t-242.5 -193.5t-160 -265.5 t-57.5 -287.5q0 -117 34 -220.5t95.5 -181t149.5 -123.5t197 -46q68 0 143.5 18.5t150 55t144 95t127.5 138.5l37 -10q-53 -82 -127 -145.5t-157 -106.5t-169 -64.5t-166 -21.5zM813 1855l37 25l139 -129l193 129l26 -25l-213 -151h-32z" />
<glyph unicode="&#x10d;" horiz-adv-x="1052" d="M449 -20q-86 0 -157 34.5t-122 96t-79 143.5t-28 176q0 131 51.5 250t137.5 207t197.5 140t230.5 52q129 0 215 -62.5t115 -174.5l-45 -15q-29 98 -109 154.5t-190 56.5q-106 0 -208 -48t-179.5 -130t-126 -191.5t-48.5 -230.5q0 -86 26 -162.5t71 -133t108.5 -89.5 t141.5 -33q59 0 121.5 18.5t117.5 49.5t99.5 72t64.5 84l39 -13q-29 -53 -77 -99t-108.5 -80t-126.5 -53t-132 -19zM565 1470l37 25l139 -129l193 129l27 -25l-213 -151h-33z" />
<glyph unicode="&#x10e;" horiz-adv-x="1400" d="M377 1454h444q133 0 230.5 -43t161 -117.5t94 -175t30.5 -217.5q0 -195 -61.5 -359.5t-172 -284.5t-262 -188.5t-329.5 -68.5h-444zM520 41q182 0 326.5 69.5t244 187.5t152.5 271.5t53 321.5q0 115 -30.5 211t-91 164.5t-151.5 107.5t-210 39h-403l-293 -1372h403z M745 1855l37 25l140 -129l192 129l27 -25l-213 -151h-33z" />
<glyph unicode="&#x10f;" horiz-adv-x="1185" d="M446 -20q-90 0 -161.5 37.5t-120.5 100t-75 144.5t-26 170q0 123 49.5 238.5t132.5 207t191.5 146.5t225.5 55q70 0 127 -21.5t101 -57t76.5 -84t51.5 -101.5l143 680h43l-301 -1407q-2 -6 -2 -11v-9q0 -27 25 -27l-8 -41q-12 0 -25 4q-33 12 -33 57v7.5t3 20.5t9.5 46 t18.5 86q-43 -53 -96.5 -97t-111.5 -77t-119 -50t-118 -17zM455 20q59 0 131.5 27t140.5 71t120 103.5t71 124.5l81 383q-8 63 -39.5 119.5t-80 98.5t-106.5 66.5t-120 24.5q-113 0 -213 -54t-175 -140t-118 -193.5t-43 -214.5q0 -84 25 -159.5t71 -132t110.5 -90.5 t144.5 -34zM1257 1346l156 149h68l-197 -174z" />
<glyph unicode="&#x110;" horiz-adv-x="1415" d="M104 752h138l149 702h445q133 0 230 -43t160.5 -117.5t94.5 -175t31 -217.5q0 -195 -61.5 -359.5t-172 -284.5t-262 -188.5t-330.5 -68.5h-444l151 711h-137zM535 41q182 0 326.5 69.5t243.5 187.5t152.5 271.5t53.5 321.5q0 115 -31 211t-91.5 164.5t-151.5 107.5 t-210 39h-403l-141 -661h372l-8 -41h-375l-141 -670h404z" />
<glyph unicode="&#x111;" horiz-adv-x="1185" d="M887 1337h239l35 158h43l-35 -158h148l-8 -41h-148l-258 -1214q-2 -4 -2 -14q0 -27 25 -27l-8 -41q-31 0 -44.5 17.5t-13.5 43.5q0 14 2 21l29 139q-43 -53 -96.5 -97t-111.5 -77t-118.5 -50t-118.5 -17q-90 0 -161.5 37.5t-120.5 100t-75 144.5t-26 170 q0 123 49.5 238.5t132.5 207t191.5 146.5t225.5 55q70 0 127 -21.5t101 -57t76.5 -84t51.5 -101.5l100 481h-239zM455 20q59 0 131.5 27t140.5 71t120 103.5t71 124.5l81 383q-8 63 -39.5 119.5t-80 98.5t-106.5 66.5t-120 24.5q-113 0 -213 -54t-175 -140t-118 -193.5 t-43 -214.5q0 -84 25 -159.5t71 -132t110.5 -90.5t144.5 -34z" />
<glyph unicode="&#x112;" d="M377 1454h889l-9 -41h-847l-140 -649h744l-8 -41h-744l-145 -682h866l-8 -41h-907zM618 1790l9 41h544l-8 -41h-545z" />
<glyph unicode="&#x113;" horiz-adv-x="1067" d="M451 -20q-92 0 -164 35.5t-121 97t-76 143.5t-27 174q0 121 47.5 237.5t130.5 208t195.5 147.5t245.5 56q51 0 107.5 -18.5t101.5 -53t74.5 -87t29.5 -121.5q0 -291 -536 -291q-78 0 -160 2t-186 8q-6 -43 -7 -86q0 -84 23 -158.5t68 -131t112.5 -89.5t155.5 -33 q55 0 114.5 17.5t115 48.5t101.5 76t76 100l39 -12q-35 -61 -85 -111.5t-110.5 -85.5t-127.5 -54t-137 -19zM674 1038q-100 0 -190.5 -40t-163 -106.5t-125 -153.5t-74.5 -179q104 -6 185 -8t159 -2q135 0 228 18.5t150.5 52t83 79.5t25.5 102q0 61 -26.5 106t-67.5 75 t-90 43t-94 13zM487 1405l9 41h544l-8 -41h-545z" />
<glyph unicode="&#x114;" d="M377 1454h889l-9 -41h-847l-140 -649h744l-8 -41h-744l-145 -682h866l-8 -41h-907zM879 1757q41 0 79.5 36t55.5 87h37q-6 -31 -24.5 -59.5t-43.5 -50t-53.5 -35t-57.5 -13.5q-51 0 -83.5 37t-32.5 90q0 10 4 31h39q-2 -8 -2 -22q0 -41 23.5 -71t58.5 -30z" />
<glyph unicode="&#x115;" horiz-adv-x="1067" d="M451 -20q-92 0 -164 35.5t-121 97t-76 143.5t-27 174q0 121 47.5 237.5t130.5 208t195.5 147.5t245.5 56q51 0 107.5 -18.5t101.5 -53t74.5 -87t29.5 -121.5q0 -291 -536 -291q-78 0 -160 2t-186 8q-6 -43 -7 -86q0 -84 23 -158.5t68 -131t112.5 -89.5t155.5 -33 q55 0 114.5 17.5t115 48.5t101.5 76t76 100l39 -12q-35 -61 -85 -111.5t-110.5 -85.5t-127.5 -54t-137 -19zM674 1038q-100 0 -190.5 -40t-163 -106.5t-125 -153.5t-74.5 -179q104 -6 185 -8t159 -2q135 0 228 18.5t150.5 52t83 79.5t25.5 102q0 61 -26.5 106t-67.5 75 t-90 43t-94 13zM745 1372q41 0 80 36t56 87h37q-6 -31 -25 -59.5t-43.5 -50t-53 -35t-57.5 -13.5q-51 0 -83.5 37t-32.5 90q0 10 4 31h39q-2 -8 -2 -22q0 -41 23 -71t58 -30z" />
<glyph unicode="&#x116;" d="M377 1454h889l-9 -41h-847l-140 -649h744l-8 -41h-744l-145 -682h866l-8 -41h-907zM866 1722l33 158h41l-33 -158h-41z" />
<glyph unicode="&#x117;" horiz-adv-x="1067" d="M451 -20q-92 0 -164 35.5t-121 97t-76 143.5t-27 174q0 121 47.5 237.5t130.5 208t195.5 147.5t245.5 56q51 0 107.5 -18.5t101.5 -53t74.5 -87t29.5 -121.5q0 -291 -536 -291q-78 0 -160 2t-186 8q-6 -43 -7 -86q0 -84 23 -158.5t68 -131t112.5 -89.5t155.5 -33 q55 0 114.5 17.5t115 48.5t101.5 76t76 100l39 -12q-35 -61 -85 -111.5t-110.5 -85.5t-127.5 -54t-137 -19zM674 1038q-100 0 -190.5 -40t-163 -106.5t-125 -153.5t-74.5 -179q104 -6 185 -8t159 -2q135 0 228 18.5t150.5 52t83 79.5t25.5 102q0 61 -26.5 106t-67.5 75 t-90 43t-94 13zM723 1337l33 158h41l-33 -158h-41z" />
<glyph unicode="&#x118;" d="M377 1454h889l-9 -41h-847l-140 -649h744l-8 -41h-744l-145 -682h866l-8 -41h-406q-59 -37 -99 -66.5t-62.5 -54t-31.5 -47t-9 -47.5q0 -59 69 -76l-33 -35q-39 10 -58 38t-19 63q0 55 40 105t142 120h-440z" />
<glyph unicode="&#x119;" horiz-adv-x="1067" d="M332 -344q-39 10 -58.5 37.5t-19.5 62.5q0 53 39 103.5t139 120.5q-88 4 -156.5 40.5t-115.5 98t-72 141.5t-25 170q0 121 47.5 237.5t130.5 208t195.5 147.5t245.5 56q51 0 107.5 -18.5t101.5 -53t74.5 -87t29.5 -121.5q0 -291 -536 -291q-78 0 -160 2t-186 8 q-6 -43 -7 -86q0 -84 23 -158.5t68 -131t112.5 -89.5t155.5 -33q55 0 114.5 17.5t115 48.5t101.5 76t76 100l39 -12q-63 -113 -174.5 -184.5t-238.5 -83.5q-59 -37 -99.5 -67t-63 -54.5t-31.5 -47t-9 -46.5q0 -59 70 -76zM674 1038q-100 0 -190.5 -40t-163 -106.5 t-125 -153.5t-74.5 -179q104 -6 185 -8t159 -2q135 0 228 18.5t150.5 52t83 79.5t25.5 102q0 61 -26.5 106t-67.5 75t-90 43t-94 13z" />
<glyph unicode="&#x11a;" d="M377 1454h889l-9 -41h-847l-140 -649h744l-8 -41h-744l-145 -682h866l-8 -41h-907zM696 1855l37 25l139 -129l193 129l27 -25l-213 -151h-33z" />
<glyph unicode="&#x11b;" horiz-adv-x="1067" d="M451 -20q-92 0 -164 35.5t-121 97t-76 143.5t-27 174q0 121 47.5 237.5t130.5 208t195.5 147.5t245.5 56q51 0 107.5 -18.5t101.5 -53t74.5 -87t29.5 -121.5q0 -291 -536 -291q-78 0 -160 2t-186 8q-6 -43 -7 -86q0 -84 23 -158.5t68 -131t112.5 -89.5t155.5 -33 q55 0 114.5 17.5t115 48.5t101.5 76t76 100l39 -12q-35 -61 -85 -111.5t-110.5 -85.5t-127.5 -54t-137 -19zM674 1038q-100 0 -190.5 -40t-163 -106.5t-125 -153.5t-74.5 -179q104 -6 185 -8t159 -2q135 0 228 18.5t150.5 52t83 79.5t25.5 102q0 61 -26.5 106t-67.5 75 t-90 43t-94 13zM559 1470l37 25l139 -129l193 129l26 -25l-213 -151h-32z" />
<glyph unicode="&#x11c;" horiz-adv-x="1409" d="M1169 248q-270 -258 -551 -258q-123 0 -218 52t-160.5 137t-99.5 194.5t-34 224.5q0 158 67 313.5t177.5 278.5t256 198.5t302.5 75.5q106 0 185.5 -23.5t133.5 -65.5t88 -100t52 -128l-41 -12q-47 154 -156.5 221t-271.5 67q-156 0 -293 -74.5t-238.5 -193.5 t-161 -265.5t-59.5 -289.5q0 -115 34 -218t96.5 -181t151.5 -124t198 -46q135 0 271 65.5t284 208.5l73 346h-323l8 41h365l-148 -692h-41zM768 1729l213 151h33l149 -151l-37 -25l-139 129l-192 -129z" />
<glyph unicode="&#x11d;" horiz-adv-x="1179" d="M340 -457q-90 0 -155.5 18.5t-110.5 52.5t-74 80t-45 103l41 13q18 -59 52 -102.5t80 -71t102.5 -40t117.5 -12.5q82 0 161 23.5t143.5 71t111.5 116t67 160.5l58 266q-43 -53 -96.5 -97t-111.5 -77t-119.5 -50t-119.5 -17q-90 0 -160.5 37.5t-119.5 100t-75 144.5 t-26 170q0 119 49.5 234.5t131.5 208t190.5 148.5t226.5 56q68 0 123.5 -20.5t98.5 -56t76.5 -84t58.5 -103.5l53 248h39l-236 -1108q-23 -104 -76 -182t-125.5 -129.5t-158.5 -76t-172 -24.5zM453 20q72 0 146.5 30t139 77t112.5 104.5t64 114.5l82 383q-10 68 -40.5 124 t-76.5 97t-105.5 64.5t-123.5 23.5q-117 0 -217 -56t-174 -144t-116 -194.5t-42 -207.5q0 -84 25 -159.5t71 -132t110.5 -90.5t144.5 -34zM535 1343l213 152h32l150 -152l-37 -24l-139 129l-193 -129z" />
<glyph unicode="&#x11e;" horiz-adv-x="1409" d="M1169 248q-270 -258 -551 -258q-123 0 -218 52t-160.5 137t-99.5 194.5t-34 224.5q0 158 67 313.5t177.5 278.5t256 198.5t302.5 75.5q106 0 185.5 -23.5t133.5 -65.5t88 -100t52 -128l-41 -12q-47 154 -156.5 221t-271.5 67q-156 0 -293 -74.5t-238.5 -193.5 t-161 -265.5t-59.5 -289.5q0 -115 34 -218t96.5 -181t151.5 -124t198 -46q135 0 271 65.5t284 208.5l73 346h-323l8 41h365l-148 -692h-41zM961 1757q41 0 79.5 36t55.5 87h37q-6 -31 -24.5 -59.5t-43.5 -50t-53.5 -35t-57.5 -13.5q-51 0 -83.5 37t-32.5 90q0 10 4 31h39 q-2 -8 -2 -22q0 -41 23.5 -71t58.5 -30z" />
<glyph unicode="&#x11f;" horiz-adv-x="1179" d="M340 -457q-90 0 -155.5 18.5t-110.5 52.5t-74 80t-45 103l41 13q18 -59 52 -102.5t80 -71t102.5 -40t117.5 -12.5q82 0 161 23.5t143.5 71t111.5 116t67 160.5l58 266q-43 -53 -96.5 -97t-111.5 -77t-119.5 -50t-119.5 -17q-90 0 -160.5 37.5t-119.5 100t-75 144.5 t-26 170q0 119 49.5 234.5t131.5 208t190.5 148.5t226.5 56q68 0 123.5 -20.5t98.5 -56t76.5 -84t58.5 -103.5l53 248h39l-236 -1108q-23 -104 -76 -182t-125.5 -129.5t-158.5 -76t-172 -24.5zM453 20q72 0 146.5 30t139 77t112.5 104.5t64 114.5l82 383q-10 68 -40.5 124 t-76.5 97t-105.5 64.5t-123.5 23.5q-117 0 -217 -56t-174 -144t-116 -194.5t-42 -207.5q0 -84 25 -159.5t71 -132t110.5 -90.5t144.5 -34zM719 1372q41 0 80 36t55 87h37q-6 -31 -24.5 -59.5t-43 -50t-53.5 -35t-57 -13.5q-51 0 -84 37t-33 90q0 10 4 31h39q-2 -8 -2 -22 q0 -41 23.5 -71t58.5 -30z" />
<glyph unicode="&#x120;" horiz-adv-x="1409" d="M1169 248q-270 -258 -551 -258q-123 0 -218 52t-160.5 137t-99.5 194.5t-34 224.5q0 158 67 313.5t177.5 278.5t256 198.5t302.5 75.5q106 0 185.5 -23.5t133.5 -65.5t88 -100t52 -128l-41 -12q-47 154 -156.5 221t-271.5 67q-156 0 -293 -74.5t-238.5 -193.5 t-161 -265.5t-59.5 -289.5q0 -115 34 -218t96.5 -181t151.5 -124t198 -46q135 0 271 65.5t284 208.5l73 346h-323l8 41h365l-148 -692h-41zM946 1722l33 158h41l-33 -158h-41z" />
<glyph unicode="&#x121;" horiz-adv-x="1179" d="M340 -457q-90 0 -155.5 18.5t-110.5 52.5t-74 80t-45 103l41 13q18 -59 52 -102.5t80 -71t102.5 -40t117.5 -12.5q82 0 161 23.5t143.5 71t111.5 116t67 160.5l58 266q-43 -53 -96.5 -97t-111.5 -77t-119.5 -50t-119.5 -17q-90 0 -160.5 37.5t-119.5 100t-75 144.5 t-26 170q0 119 49.5 234.5t131.5 208t190.5 148.5t226.5 56q68 0 123.5 -20.5t98.5 -56t76.5 -84t58.5 -103.5l53 248h39l-236 -1108q-23 -104 -76 -182t-125.5 -129.5t-158.5 -76t-172 -24.5zM453 20q72 0 146.5 30t139 77t112.5 104.5t64 114.5l82 383q-10 68 -40.5 124 t-76.5 97t-105.5 64.5t-123.5 23.5q-117 0 -217 -56t-174 -144t-116 -194.5t-42 -207.5q0 -84 25 -159.5t71 -132t110.5 -90.5t144.5 -34zM702 1337l33 158h41l-33 -158h-41z" />
<glyph unicode="&#x122;" horiz-adv-x="1409" d="M1169 248q-270 -258 -551 -258q-123 0 -218 52t-160.5 137t-99.5 194.5t-34 224.5q0 158 67 313.5t177.5 278.5t256 198.5t302.5 75.5q106 0 185.5 -23.5t133.5 -65.5t88 -100t52 -128l-41 -12q-47 154 -156.5 221t-271.5 67q-156 0 -293 -74.5t-238.5 -193.5 t-161 -265.5t-59.5 -289.5q0 -115 34 -218t96.5 -181t151.5 -124t198 -46q135 0 271 65.5t284 208.5l73 346h-323l8 41h365l-148 -692h-41zM500 -342l45 119h-19l27 121h51l-24 -121l-52 -119h-28z" />
<glyph unicode="&#x123;" horiz-adv-x="1179" d="M340 -457q-90 0 -155.5 18.5t-110.5 52.5t-74 80t-45 103l41 13q18 -59 52 -102.5t80 -71t102.5 -40t117.5 -12.5q82 0 161 23.5t143.5 71t111.5 116t67 160.5l58 266q-43 -53 -96.5 -97t-111.5 -77t-119.5 -50t-119.5 -17q-90 0 -160.5 37.5t-119.5 100t-75 144.5 t-26 170q0 119 49.5 234.5t131.5 208t190.5 148.5t226.5 56q68 0 123.5 -20.5t98.5 -56t76.5 -84t58.5 -103.5l53 248h39l-236 -1108q-23 -104 -76 -182t-125.5 -129.5t-158.5 -76t-172 -24.5zM453 20q72 0 146.5 30t139 77t112.5 104.5t64 114.5l82 383q-10 68 -40.5 124 t-76.5 97t-105.5 64.5t-123.5 23.5q-117 0 -217 -56t-174 -144t-116 -194.5t-42 -207.5q0 -84 25 -159.5t71 -132t110.5 -90.5t144.5 -34zM780 1495l-45 -119h19l-27 -121h-51l24 121l52 119h28z" />
<glyph unicode="&#x124;" horiz-adv-x="1435" d="M377 1454h41l-148 -690h957l147 690h41l-309 -1454h-41l154 723h-957l-153 -723h-41zM758 1729l213 151h33l149 -151l-37 -25l-139 129l-193 -129z" />
<glyph unicode="&#x125;" horiz-adv-x="1105" d="M352 1495h41l-149 -707q45 66 102 120.5t120.5 92t130.5 58t132 20.5q242 0 242 -284q0 -90 -25 -203l-125 -592h-41l125 592q10 55 17.5 104t7.5 90q0 252 -209 252q-72 0 -144.5 -28.5t-140 -77.5t-124 -115.5t-93.5 -144.5l-143 -672h-41zM582 1343l213 152h32 l150 -152l-37 -24l-139 129l-193 -129z" />
<glyph unicode="&#x126;" horiz-adv-x="1452" d="M229 1176h97l59 278h41l-59 -278h956l59 278h41l-59 -278h96l-8 -41h-96l-242 -1135h-41l154 723h-957l-153 -723h-41l241 1135h-98zM1235 764l78 371h-957l-77 -371h956z" />
<glyph unicode="&#x127;" horiz-adv-x="1105" d="M176 1337h141l35 158h41l-35 -158h246l-8 -41h-246l-106 -508q45 66 102 120.5t120.5 92t130.5 58t132 20.5q242 0 242 -284q0 -90 -25 -203l-125 -592h-41l125 592q25 111 25 194q0 252 -209 252q-72 0 -144.5 -28.5t-140 -77.5t-124 -115.5t-93.5 -144.5l-143 -672h-41 l274 1296h-141z" />
<glyph unicode="&#x128;" horiz-adv-x="438" d="M377 1452h41l-309 -1452h-41zM561 1743q-43 0 -72.5 12t-54 26.5t-47 27t-53.5 12.5t-53.5 -13.5t-37 -31t-21.5 -34t-9 -20.5h-39q0 4 9.5 27t28.5 47.5t52 44t82 19.5q37 0 63.5 -12.5t50 -27t50.5 -26.5t63 -12q39 0 66 14t42 31.5t21.5 33t6.5 19.5h39 q-2 -6 -11.5 -28.5t-31 -47t-56.5 -43t-88 -18.5z" />
<glyph unicode="&#x129;" horiz-adv-x="372" d="M260 1063h41l-225 -1063h-41zM436 1358q-43 0 -72.5 12t-54 26.5t-47 27t-53.5 12.5t-53.5 -13.5t-37 -31t-21.5 -34t-9 -20.5h-39q0 4 9.5 26.5t28.5 47.5t52 44.5t82 19.5q37 0 63.5 -12.5t50 -27t50.5 -26.5t64 -12q39 0 65.5 14t41.5 31.5t21.5 33t6.5 19.5h39 q-2 -6 -11.5 -28.5t-31 -47t-56.5 -43t-88 -18.5z" />
<glyph unicode="&#x12a;" horiz-adv-x="438" d="M377 1452h41l-309 -1452h-41zM195 1790l8 41h545l-9 -41h-544z" />
<glyph unicode="&#x12b;" horiz-adv-x="372" d="M260 1063h41l-225 -1063h-41zM61 1405l9 41h544l-8 -41h-545z" />
<glyph unicode="&#x12c;" horiz-adv-x="438" d="M377 1452h41l-309 -1452h-41zM442 1757q41 0 80 36t56 87h36q-6 -31 -24.5 -59.5t-43 -50t-53 -35t-57.5 -13.5q-51 0 -84 37t-33 90q0 10 5 31h38q-2 -8 -2 -22q0 -41 23.5 -71t58.5 -30z" />
<glyph unicode="&#x12d;" horiz-adv-x="372" d="M260 1063h41l-225 -1063h-41zM330 1372q41 0 80 36t55 87h37q-6 -31 -24.5 -59.5t-43 -50t-53.5 -35t-57 -13.5q-51 0 -84 37t-33 90q0 10 4 31h39q-2 -8 -2 -22q0 -41 23.5 -71t58.5 -30z" />
<glyph unicode="&#x12e;" horiz-adv-x="440" d="M-55 -326q-39 10 -58.5 38t-19.5 63q0 29 11 56.5t36 56t63.5 60.5t96.5 70l305 1434h41l-309 -1452q-59 -37 -99.5 -66.5t-63 -54t-31.5 -47t-9 -47.5q0 -61 69 -76z" />
<glyph unicode="&#x12f;" horiz-adv-x="374" d="M-88 -326q-39 10 -58.5 38t-19.5 63q0 29 11.5 56.5t36 56t63.5 60.5t96 70l221 1045h41l-225 -1063q-59 -37 -99 -66.5t-62.5 -54t-32 -47t-9.5 -47.5q0 -59 70 -76zM354 1495h41l-33 -158h-40z" />
<glyph unicode="&#x130;" horiz-adv-x="438" d="M377 1452h41l-309 -1452h-41zM432 1722l33 158h41l-33 -158h-41z" />
<glyph unicode="&#x131;" horiz-adv-x="372" d="M260 1063h41l-225 -1063h-41z" />
<glyph unicode="&#x132;" horiz-adv-x="1376" d="M377 1452h41l-309 -1452h-41zM653 -23q-174 0 -280 91l28 32q94 -82 261 -82q123 0 206.5 48.5t140 137.5t95.5 218t74 293l157 737h41l-157 -737q-35 -166 -77 -302.5t-104.5 -232.5t-155 -149.5t-229.5 -53.5z" />
<glyph unicode="&#x133;" horiz-adv-x="761" d="M260 1063h41l-225 -1063h-41zM352 1495h41l-33 -158h-41zM131 -348q-57 0 -104 14.5t-76 54.5l37 25q29 -33 68.5 -43t80.5 -10q39 0 83 18.5t82 49t66.5 73.5t39.5 92l241 1137h41l-241 -1137q-12 -59 -47 -109t-80.5 -87t-95.5 -57.5t-95 -20.5zM741 1495h41l-32 -158 h-41z" />
<glyph unicode="&#x134;" horiz-adv-x="937" d="M215 -23q-174 0 -281 91l29 32q94 -82 260 -82q123 0 207 48.5t140.5 137.5t95.5 218t73 293l158 737h41l-158 -737q-35 -166 -76.5 -302.5t-104 -232.5t-155 -149.5t-229.5 -53.5zM768 1729l213 151h33l149 -151l-37 -25l-139 129l-192 -129z" />
<glyph unicode="&#x135;" horiz-adv-x="372" d="M-258 -348q-57 0 -104.5 14.5t-75.5 54.5l37 25q29 -33 68.5 -43t80.5 -10q39 0 83 18.5t82 49t66.5 73.5t38.5 92l242 1137h41l-242 -1137q-12 -59 -47 -109t-80 -87t-95 -57.5t-95 -20.5zM131 1343l213 152h33l149 -152l-37 -24l-139 129l-192 -129z" />
<glyph unicode="&#x136;" horiz-adv-x="1210" d="M377 1452h41l-201 -942l1077 944h60l-725 -635l442 -819h-53l-426 791l-387 -338l-96 -453h-41zM381 -342l45 119h-18l26 121h51l-24 -121l-51 -119h-29z" />
<glyph unicode="&#x137;" horiz-adv-x="1067" d="M352 1495h41l-170 -799q133 197 277.5 294t287.5 97q123 0 191 -56t68 -159q0 -68 -33 -128t-92.5 -109t-145.5 -85t-192 -54l245 -496h-49l-254 522q231 45 353 133t122 211q0 86 -57 134.5t-162 48.5q-135 0 -273 -99.5t-298 -312.5l-135 -637h-41zM281 -342l45 119 h-19l27 121h51l-25 -121l-51 -119h-28z" />
<glyph unicode="&#x138;" horiz-adv-x="991" d="M260 1063h41l-139 -662l825 658h55l-528 -422l313 -637h-49l-301 608l-327 -262l-74 -346h-41z" />
<glyph unicode="&#x139;" horiz-adv-x="1130" d="M377 1454h41l-301 -1413h866l-8 -41h-907zM436 1706l-26 25l155 149h68z" />
<glyph unicode="&#x13a;" horiz-adv-x="458" d="M197 -10q-57 0 -90 33.5t-33 91.5v20t4 23l284 1337h41l-284 -1337q-2 -10 -3 -17.5t-1 -15.5q0 -96 106 -96q23 0 53.5 5t57.5 13l6 -33q-29 -10 -70.5 -17t-70.5 -7zM383 1595l-27 25l156 149h68z" />
<glyph unicode="&#x13b;" horiz-adv-x="1130" d="M377 1454h41l-301 -1413h866l-8 -41h-907zM414 -342l45 119h-19l27 121h51l-24 -121l-52 -119h-28z" />
<glyph unicode="&#x13c;" horiz-adv-x="458" d="M197 -10q-57 0 -90 33.5t-33 91.5v20t4 23l284 1337h41l-284 -1337q-2 -10 -3 -17.5t-1 -15.5q0 -96 106 -96q23 0 53.5 5t57.5 13l6 -33q-29 -10 -70.5 -17t-70.5 -7zM82 -342l45 119h-18l26 121h51l-24 -121l-51 -119h-29z" />
<glyph unicode="&#x13d;" horiz-adv-x="1130" d="M377 1454h41l-301 -1413h866l-8 -41h-907zM522 1346l156 149h67l-196 -174z" />
<glyph unicode="&#x13e;" horiz-adv-x="444" d="M197 -10q-57 0 -90 33.5t-33 91.5v20t4 23l284 1337h41l-284 -1337q-2 -10 -3 -17.5t-1 -15.5q0 -96 106 -96q23 0 53.5 5t57.5 13l6 -33q-29 -10 -70.5 -17t-70.5 -7zM477 1346l156 149h67l-196 -174z" />
<glyph unicode="&#x13f;" horiz-adv-x="1130" d="M377 1454h41l-301 -1413h866l-8 -41h-907zM684 737l37 170h39l-35 -170h-41z" />
<glyph unicode="&#x140;" horiz-adv-x="489" d="M197 -10q-57 0 -90 33.5t-33 91.5v20t4 23l284 1337h41l-284 -1337q-2 -10 -3 -17.5t-1 -15.5q0 -96 106 -96q23 0 53.5 5t57.5 13l6 -33q-29 -10 -70.5 -17t-70.5 -7zM399 512l37 170h39l-35 -170h-41z" />
<glyph unicode="&#x141;" horiz-adv-x="1146" d="M37 483l182 156l174 815h41l-164 -772l447 385l20 -31l-479 -411l-125 -584h866l-8 -41h-907l123 582l-150 -129z" />
<glyph unicode="&#x142;" horiz-adv-x="487" d="M43 651l207 178l143 666h41l-133 -623l219 189l25 -29l-256 -219l-139 -655l-3.5 -17.5t-1.5 -15.5q0 -96 107 -96q23 0 52.5 5t57.5 13l7 -33q-29 -10 -71 -17t-71 -7q-59 0 -91 32.5t-32 90.5v21t5 24l129 612l-172 -147z" />
<glyph unicode="&#x143;" horiz-adv-x="1521" d="M377 1454h31l757 -1395l295 1393h41l-309 -1452h-45l-746 1374l-292 -1374h-41zM979 1706l-27 25l156 149h68z" />
<glyph unicode="&#x144;" horiz-adv-x="1105" d="M260 1063h41l-57 -275q45 63 104.5 118t126 92.5t137 59t138.5 21.5q115 0 170 -62.5t55 -195.5q0 -49 -7 -106.5t-22 -122.5l-125 -592h-41l125 592q27 125 27 219q0 117 -46 172t-145 55q-72 0 -148.5 -27.5t-147 -76.5t-130 -116.5t-96.5 -145.5l-143 -672h-41z M702 1321l-26 25l155 149h68z" />
<glyph unicode="&#x145;" horiz-adv-x="1521" d="M377 1454h31l757 -1395l295 1393h41l-309 -1452h-45l-746 1374l-292 -1374h-41zM545 -342l45 119h-19l27 121h51l-24 -121l-52 -119h-28z" />
<glyph unicode="&#x146;" horiz-adv-x="1105" d="M260 1063h41l-57 -275q45 63 104.5 118t126 92.5t137 59t138.5 21.5q115 0 170 -62.5t55 -195.5q0 -49 -7 -106.5t-22 -122.5l-125 -592h-41l125 592q27 125 27 219q0 117 -46 172t-145 55q-72 0 -148.5 -27.5t-147 -76.5t-130 -116.5t-96.5 -145.5l-143 -672h-41z M342 -342l45 119h-18l26 121h51l-24 -121l-51 -119h-29z" />
<glyph unicode="&#x147;" horiz-adv-x="1521" d="M377 1454h31l757 -1395l295 1393h41l-309 -1452h-45l-746 1374l-292 -1374h-41zM834 1855l36 25l140 -129l192 129l27 -25l-213 -151h-33z" />
<glyph unicode="&#x148;" horiz-adv-x="1105" d="M260 1063h41l-57 -275q45 63 104.5 118t126 92.5t137 59t138.5 21.5q115 0 170 -62.5t55 -195.5q0 -49 -7 -106.5t-22 -122.5l-125 -592h-41l125 592q27 125 27 219q0 117 -46 172t-145 55q-72 0 -148.5 -27.5t-147 -76.5t-130 -116.5t-96.5 -145.5l-143 -672h-41z M543 1470l37 25l139 -129l192 129l27 -25l-213 -151h-33z" />
<glyph unicode="&#x149;" horiz-adv-x="1105" d="M260 1063h41l-57 -275q45 63 104.5 118t126 92.5t137 59t138.5 21.5q115 0 170 -62.5t55 -195.5q0 -49 -7 -106.5t-22 -122.5l-125 -592h-41l125 592q27 125 27 219q0 117 -46 172t-145 55q-72 0 -148.5 -27.5t-147 -76.5t-130 -116.5t-96.5 -145.5l-143 -672h-41z M121 1495l-197 -174l-26 25l100 96l16 53h107z" />
<glyph unicode="&#x14a;" horiz-adv-x="1523" d="M858 -348q-57 0 -103 14.5t-77 54.5l37 25q29 -33 69.5 -43t81.5 -10q39 0 83 18.5t82 49t66.5 73.5t39.5 92l14 66l-750 1382l-292 -1374h-41l309 1454h31l755 -1395l297 1393h41l-323 -1526q-12 -59 -47 -109t-80 -87t-96.5 -57.5t-96.5 -20.5z" />
<glyph unicode="&#x14b;" horiz-adv-x="1105" d="M487 -348q-57 0 -104 14.5t-76 54.5l37 25q29 -33 69 -43t81 -10q39 0 83 18.5t81.5 49t66.5 73.5t39 92l141 666q27 125 27 219q0 117 -46 172t-145 55q-72 0 -148.5 -27.5t-147 -76.5t-130 -116.5t-96.5 -145.5l-143 -672h-41l225 1063h41l-57 -275q45 63 104.5 118 t126 92.5t137 59t138.5 21.5q115 0 170 -62.5t55 -195.5q0 -49 -7 -106.5t-22 -122.5l-141 -666q-12 -59 -47 -109t-80 -87t-95.5 -57.5t-95.5 -20.5z" />
<glyph unicode="&#x14c;" horiz-adv-x="1486" d="M610 -10q-121 0 -215 49t-158.5 132t-97.5 191.5t-33 225.5q0 168 70 325.5t184.5 280.5t261 196.5t302.5 73.5q121 0 215 -51t158.5 -135t97 -192.5t32.5 -223.5q0 -166 -69.5 -323.5t-184 -279.5t-261 -195.5t-302.5 -73.5zM621 31q154 0 293 73.5t243.5 192.5 t166.5 266.5t62 294.5q0 113 -32.5 215.5t-94 180t-148.5 123.5t-196 46q-154 0 -293 -73.5t-244.5 -192.5t-168 -266.5t-62.5 -296.5q0 -113 32 -215.5t93.5 -179t149.5 -122.5t199 -46zM715 1790l8 41h545l-8 -41h-545z" />
<glyph unicode="&#x14d;" horiz-adv-x="1148" d="M440 -20q-86 0 -155.5 34.5t-119.5 95t-77 141.5t-27 173q0 129 53.5 248t140.5 210t196.5 144t222.5 53q84 0 153.5 -34.5t118.5 -96t77 -143.5t28 -174q0 -127 -53.5 -245t-139.5 -208t-195.5 -144t-222.5 -54zM446 20q102 0 204 50.5t181.5 133.5t129 192.5 t49.5 228.5q0 86 -26 160.5t-71 131t-108.5 89t-138.5 32.5q-102 0 -203 -50t-180.5 -135t-130 -195.5t-50.5 -229.5q0 -84 25 -158.5t71 -130t108 -87.5t140 -32zM469 1405l8 41h545l-8 -41h-545z" />
<glyph unicode="&#x14e;" horiz-adv-x="1486" d="M610 -10q-121 0 -215 49t-158.5 132t-97.5 191.5t-33 225.5q0 168 70 325.5t184.5 280.5t261 196.5t302.5 73.5q121 0 215 -51t158.5 -135t97 -192.5t32.5 -223.5q0 -166 -69.5 -323.5t-184 -279.5t-261 -195.5t-302.5 -73.5zM621 31q154 0 293 73.5t243.5 192.5 t166.5 266.5t62 294.5q0 113 -32.5 215.5t-94 180t-148.5 123.5t-196 46q-154 0 -293 -73.5t-244.5 -192.5t-168 -266.5t-62.5 -296.5q0 -113 32 -215.5t93.5 -179t149.5 -122.5t199 -46zM973 1757q41 0 80 36t55 87h37q-6 -31 -24.5 -59.5t-43 -50t-53.5 -35t-57 -13.5 q-51 0 -84 37t-33 90q0 10 4 31h39q-2 -8 -2 -22q0 -41 23.5 -71t58.5 -30z" />
<glyph unicode="&#x14f;" horiz-adv-x="1148" d="M440 -20q-86 0 -155.5 34.5t-119.5 95t-77 141.5t-27 173q0 129 53.5 248t140.5 210t196.5 144t222.5 53q84 0 153.5 -34.5t118.5 -96t77 -143.5t28 -174q0 -127 -53.5 -245t-139.5 -208t-195.5 -144t-222.5 -54zM446 20q102 0 204 50.5t181.5 133.5t129 192.5 t49.5 228.5q0 86 -26 160.5t-71 131t-108.5 89t-138.5 32.5q-102 0 -203 -50t-180.5 -135t-130 -195.5t-50.5 -229.5q0 -84 25 -158.5t71 -130t108 -87.5t140 -32zM725 1372q41 0 80 36t55 87h37q-6 -31 -24.5 -59.5t-43 -50t-53 -35t-57.5 -13.5q-51 0 -84 37t-33 90 q0 10 4 31h39q-2 -8 -2 -22q0 -41 23.5 -71t58.5 -30z" />
<glyph unicode="&#x150;" horiz-adv-x="1486" d="M610 -10q-121 0 -215 49t-158.5 132t-97.5 191.5t-33 225.5q0 168 70 325.5t184.5 280.5t261 196.5t302.5 73.5q121 0 215 -51t158.5 -135t97 -192.5t32.5 -223.5q0 -166 -69.5 -323.5t-184 -279.5t-261 -195.5t-302.5 -73.5zM621 31q154 0 293 73.5t243.5 192.5 t166.5 266.5t62 294.5q0 113 -32.5 215.5t-94 180t-148.5 123.5t-196 46q-154 0 -293 -73.5t-244.5 -192.5t-168 -266.5t-62.5 -296.5q0 -113 32 -215.5t93.5 -179t149.5 -122.5t199 -46zM813 1706l-27 25l156 149h68zM1010 1706l-27 25l156 149h67z" />
<glyph unicode="&#x151;" horiz-adv-x="1148" d="M440 -20q-86 0 -155.5 34.5t-119.5 95t-77 141.5t-27 173q0 129 53.5 248t140.5 210t196.5 144t222.5 53q84 0 153.5 -34.5t118.5 -96t77 -143.5t28 -174q0 -127 -53.5 -245t-139.5 -208t-195.5 -144t-222.5 -54zM446 20q102 0 204 50.5t181.5 133.5t129 192.5 t49.5 228.5q0 86 -26 160.5t-71 131t-108.5 89t-138.5 32.5q-102 0 -203 -50t-180.5 -135t-130 -195.5t-50.5 -229.5q0 -84 25 -158.5t71 -130t108 -87.5t140 -32zM561 1321l-26 25l155 149h68zM758 1321l-27 25l156 149h67z" />
<glyph unicode="&#x152;" horiz-adv-x="2353" d="M616 -10q-123 0 -217 50t-159.5 133t-99.5 191.5t-34 225.5q0 166 70 323.5t184.5 280.5t262 196.5t303.5 73.5q111 0 197.5 -39t149 -106.5t100.5 -156.5t48 -189l103 481h891l-11 -41h-848l-137 -649h744l-11 -41h-743l-143 -682h864l-8 -41h-908l103 479 q-55 -102 -132 -192t-169 -155.5t-194 -103.5t-206 -38zM621 31q154 0 293 73.5t243.5 192.5t166.5 266.5t62 294.5q0 113 -32.5 215.5t-93 180t-147.5 123.5t-195 46q-154 0 -293.5 -73.5t-246 -192.5t-169 -266.5t-62.5 -296.5q0 -113 32 -215.5t93.5 -179t149.5 -122.5 t199 -46z" />
<glyph unicode="&#x153;" horiz-adv-x="2048" d="M436 -20q-84 0 -153.5 33.5t-118.5 93t-76 139.5t-27 172q0 133 53.5 253t139.5 211t196.5 144t227.5 53q80 0 146.5 -28.5t115.5 -80.5t76.5 -126t30.5 -164q39 92 97 166t130 126t152.5 79.5t166.5 27.5q180 0 277.5 -121.5t97.5 -332.5q0 -63 -4 -85t-8 -32h-922 q-6 -43 -6 -82q0 -86 26.5 -161t76 -129t117 -85t149.5 -31q61 0 121.5 16.5t114 46.5t98.5 71t75 90l37 -11q-35 -55 -86 -102t-112.5 -81t-128 -52t-132.5 -18q-82 0 -152.5 29.5t-123.5 82.5t-85 127t-38 160q-43 -90 -103.5 -164t-133 -126t-152.5 -80.5t-160 -28.5z M446 20q104 0 206 49.5t181.5 133.5t128 193.5t48.5 232.5q0 86 -24.5 160.5t-70 130t-109 87t-138.5 31.5q-104 0 -206 -50t-181.5 -135t-129 -195.5t-49.5 -233.5q0 -86 25 -160t70 -128t108 -85t141 -31zM1923 549q4 25 6 49.5t2 48.5q0 86 -24.5 159t-69.5 124 t-109.5 79.5t-142.5 28.5q-90 0 -176 -36.5t-157.5 -102t-127 -156t-82.5 -194.5h881z" />
<glyph unicode="&#x154;" horiz-adv-x="1261" d="M68 0l309 1454h563q72 0 129 -30.5t96 -82t59.5 -116t20.5 -133.5q0 -94 -37 -184.5t-98 -163t-144 -119.5t-175 -54l227 -571h-49l-228 571h-512l-120 -571h-41zM774 612q90 0 168 43t136.5 111t92 151.5t33.5 167.5q0 66 -19.5 125.5t-55 104.5t-87 71.5t-112.5 26.5 h-520l-170 -801h534zM805 1712l-27 25l156 149h67z" />
<glyph unicode="&#x155;" horiz-adv-x="649" d="M260 1063h41l-57 -275q84 125 192.5 194t218.5 79q10 2 19.5 2h19.5l-8 -41q-145 -6 -269 -98.5t-198 -251.5l-143 -672h-41zM457 1321l-27 25l156 149h67z" />
<glyph unicode="&#x156;" horiz-adv-x="1261" d="M68 0l309 1454h563q72 0 129 -30.5t96 -82t59.5 -116t20.5 -133.5q0 -94 -37 -184.5t-98 -163t-144 -119.5t-175 -54l227 -571h-49l-228 571h-512l-120 -571h-41zM774 612q90 0 168 43t136.5 111t92 151.5t33.5 167.5q0 66 -19.5 125.5t-55 104.5t-87 71.5t-112.5 26.5 h-520l-170 -801h534zM408 -342l45 119h-19l27 121h51l-25 -121l-51 -119h-28z" />
<glyph unicode="&#x157;" horiz-adv-x="649" d="M260 1063h41l-57 -275q84 125 192.5 194t218.5 79q10 2 19.5 2h19.5l-8 -41q-145 -6 -269 -98.5t-198 -251.5l-143 -672h-41zM-51 -342l45 119h-19l27 121h51l-24 -121l-52 -119h-28z" />
<glyph unicode="&#x158;" horiz-adv-x="1261" d="M68 0l309 1454h563q72 0 129 -30.5t96 -82t59.5 -116t20.5 -133.5q0 -94 -37 -184.5t-98 -163t-144 -119.5t-175 -54l227 -571h-49l-228 571h-512l-120 -571h-41zM774 612q90 0 168 43t136.5 111t92 151.5t33.5 167.5q0 66 -19.5 125.5t-55 104.5t-87 71.5t-112.5 26.5 h-520l-170 -801h534zM700 1862l37 24l140 -129l192 129l27 -24l-213 -152h-33z" />
<glyph unicode="&#x159;" horiz-adv-x="649" d="M260 1063h41l-57 -275q84 125 192.5 194t218.5 79q10 2 19.5 2h19.5l-8 -41q-145 -6 -269 -98.5t-198 -251.5l-143 -672h-41zM326 1470l36 25l140 -129l192 129l27 -25l-213 -151h-33z" />
<glyph unicode="&#x15a;" horiz-adv-x="1185" d="M487 -10q-166 0 -284.5 54t-204.5 171l35 27q82 -115 193.5 -166t271.5 -51q119 0 215 25.5t163.5 74.5t104.5 121.5t37 169.5q0 61 -24.5 107t-74 80t-123 58.5t-171.5 47.5q-96 20 -172 42.5t-128.5 55.5t-80 81t-27.5 118q0 106 42 191t119 144.5t182.5 91t232.5 31.5 q133 0 223 -40t151 -134l-32 -28q-61 96 -142.5 129.5t-204.5 33.5q-141 0 -241.5 -31.5t-164 -88t-93 -131t-29.5 -160.5q0 -59 22.5 -100.5t68.5 -71t117 -52t165 -42.5q96 -23 175 -47.5t135 -60.5t87 -88t31 -126q0 -102 -41 -183t-116 -137.5t-181.5 -86t-235.5 -29.5z M803 1751l-27 25l156 149h67z" />
<glyph unicode="&#x15b;" horiz-adv-x="921" d="M326 -20q-117 0 -205 41.5t-146 130.5l35 26q61 -80 138 -119t186 -39q84 0 155.5 21.5t125 59.5t84 93.5t30.5 122.5q0 45 -20.5 77t-59.5 54.5t-95 41t-128 36.5q-68 16 -119 32.5t-87 38t-54.5 53.5t-18.5 79q0 88 36 154.5t96.5 109.5t137.5 64.5t158 21.5 q123 0 200 -44t97 -109l-38 -17q-23 63 -101 96t-174 33q-72 0 -138.5 -17t-117.5 -54t-82 -93.5t-31 -132.5q0 -39 15.5 -65.5t46.5 -45t77 -32.5t107 -31q76 -20 138.5 -38.5t106.5 -45t67.5 -62.5t23.5 -89q0 -78 -33.5 -142.5t-93 -111.5t-141.5 -72.5t-178 -25.5z M596 1321l-27 25l156 149h68z" />
<glyph unicode="&#x15c;" horiz-adv-x="1185" d="M487 -10q-166 0 -284.5 54t-204.5 171l35 27q82 -115 193.5 -166t271.5 -51q119 0 215 25.5t163.5 74.5t104.5 121.5t37 169.5q0 61 -24.5 107t-74 80t-123 58.5t-171.5 47.5q-96 20 -172 42.5t-128.5 55.5t-80 81t-27.5 118q0 106 42 191t119 144.5t182.5 91t232.5 31.5 q133 0 223 -40t151 -134l-32 -28q-61 96 -142.5 129.5t-204.5 33.5q-141 0 -241.5 -31.5t-164 -88t-93 -131t-29.5 -160.5q0 -59 22.5 -100.5t68.5 -71t117 -52t165 -42.5q96 -23 175 -47.5t135 -60.5t87 -88t31 -126q0 -102 -41 -183t-116 -137.5t-181.5 -86t-235.5 -29.5z M668 1774l213 151h32l150 -151l-37 -25l-139 129l-193 -129z" />
<glyph unicode="&#x15d;" horiz-adv-x="921" d="M326 -20q-117 0 -205 41.5t-146 130.5l35 26q61 -80 138 -119t186 -39q84 0 155.5 21.5t125 59.5t84 93.5t30.5 122.5q0 45 -20.5 77t-59.5 54.5t-95 41t-128 36.5q-68 16 -119 32.5t-87 38t-54.5 53.5t-18.5 79q0 88 36 154.5t96.5 109.5t137.5 64.5t158 21.5 q123 0 200 -44t97 -109l-38 -17q-23 63 -101 96t-174 33q-72 0 -138.5 -17t-117.5 -54t-82 -93.5t-31 -132.5q0 -39 15.5 -65.5t46.5 -45t77 -32.5t107 -31q76 -20 138.5 -38.5t106.5 -45t67.5 -62.5t23.5 -89q0 -78 -33.5 -142.5t-93 -111.5t-141.5 -72.5t-178 -25.5z M442 1343l213 152h33l150 -152l-37 -24l-139 129l-193 -129z" />
<glyph unicode="&#x15e;" horiz-adv-x="1189" d="M307 -256q29 -14 71 -25.5t91 -11.5q133 0 133 96q0 33 -22.5 46.5t-57.5 13.5q-41 0 -88 -11.5t-76 -21.5l121 160q-162 4 -276.5 57t-200.5 168l35 27q82 -115 193.5 -166t271.5 -51q119 0 215 25.5t163.5 74.5t104.5 121.5t37 169.5q0 61 -24.5 107t-74 80t-123 58.5 t-171.5 47.5q-96 20 -172 42.5t-128.5 55.5t-80 81t-27.5 118q0 106 42 191t119 144.5t182.5 91t232.5 31.5q133 0 223 -40t151 -134l-32 -28q-61 96 -142.5 129.5t-203.5 33.5q-141 0 -241.5 -31.5t-164 -88t-93.5 -131t-30 -160.5q0 -59 22.5 -100.5t68.5 -71t117 -52 t165 -42.5q96 -23 175 -47.5t135.5 -60.5t87 -88t30.5 -126q0 -98 -38 -178t-108.5 -135.5t-170 -87t-222.5 -35.5l-82 -107q23 8 46.5 10.5t39.5 2.5q111 0 111 -86q0 -72 -50 -107t-136 -35q-51 0 -95.5 11.5t-78.5 27.5z" />
<glyph unicode="&#x15f;" horiz-adv-x="921" d="M125 -266q29 -14 71 -25.5t91 -11.5q133 0 133 96q0 33 -22.5 46.5t-57.5 13.5q-41 0 -88 -11.5t-76 -21.5l121 162q-106 4 -187 45t-135 125l35 26q61 -80 138 -119t186 -39q84 0 155.5 21.5t125 59.5t84 93.5t30.5 122.5q0 45 -20.5 77t-59.5 54.5t-95 41t-128 36.5 q-68 16 -119 32.5t-87 38t-54.5 53.5t-18.5 79q0 88 36 154.5t96.5 109.5t137.5 64.5t158 21.5q123 0 200 -44t97 -109l-38 -17q-23 63 -101 96t-174 33q-72 0 -138.5 -17t-117.5 -54t-82 -93.5t-31 -132.5q0 -39 15.5 -65.5t46.5 -45t77 -32.5t107 -31q76 -20 138.5 -38.5 t106.5 -45t67.5 -62.5t23.5 -89q0 -76 -32.5 -139.5t-89 -109.5t-135.5 -73.5t-171 -29.5l-82 -107q23 8 46.5 10t39.5 2q111 0 111 -86q0 -72 -50.5 -106.5t-136.5 -34.5q-51 0 -95 11.5t-79 27.5z" />
<glyph unicode="&#x160;" horiz-adv-x="1185" d="M487 -10q-166 0 -284.5 54t-204.5 171l35 27q82 -115 193.5 -166t271.5 -51q119 0 215 25.5t163.5 74.5t104.5 121.5t37 169.5q0 61 -24.5 107t-74 80t-123 58.5t-171.5 47.5q-96 20 -172 42.5t-128.5 55.5t-80 81t-27.5 118q0 106 42 191t119 144.5t182.5 91t232.5 31.5 q133 0 223 -40t151 -134l-32 -28q-61 96 -142.5 129.5t-204.5 33.5q-141 0 -241.5 -31.5t-164 -88t-93 -131t-29.5 -160.5q0 -59 22.5 -100.5t68.5 -71t117 -52t165 -42.5q96 -23 175 -47.5t135 -60.5t87 -88t31 -126q0 -102 -41 -183t-116 -137.5t-181.5 -86t-235.5 -29.5z M688 1901l37 24l139 -129l193 129l26 -24l-213 -152h-32z" />
<glyph unicode="&#x161;" horiz-adv-x="921" d="M326 -20q-117 0 -205 41.5t-146 130.5l35 26q61 -80 138 -119t186 -39q84 0 155.5 21.5t125 59.5t84 93.5t30.5 122.5q0 45 -20.5 77t-59.5 54.5t-95 41t-128 36.5q-68 16 -119 32.5t-87 38t-54.5 53.5t-18.5 79q0 88 36 154.5t96.5 109.5t137.5 64.5t158 21.5 q123 0 200 -44t97 -109l-38 -17q-23 63 -101 96t-174 33q-72 0 -138.5 -17t-117.5 -54t-82 -93.5t-31 -132.5q0 -39 15.5 -65.5t46.5 -45t77 -32.5t107 -31q76 -20 138.5 -38.5t106.5 -45t67.5 -62.5t23.5 -89q0 -78 -33.5 -142.5t-93 -111.5t-141.5 -72.5t-178 -25.5z M449 1470l36 25l140 -129l192 129l27 -25l-213 -151h-33z" />
<glyph unicode="&#x162;" horiz-adv-x="1173" d="M240 -256q29 -14 70.5 -25.5t90.5 -11.5q133 0 134 96q0 33 -23 46.5t-57 13.5q-41 0 -88.5 -11.5t-75.5 -21.5l137 182l299 1401h-528l8 41h1098l-9 -41h-528l-301 -1413l-90 -117q23 8 46 10.5t40 2.5q111 0 110 -86q0 -72 -50 -107t-136 -35q-51 0 -95 11.5t-79 27.5z " />
<glyph unicode="&#x163;" horiz-adv-x="575" d="M43 -256q29 -14 71 -25.5t91 -11.5q133 0 133 96q0 33 -22.5 46.5t-57.5 13.5q-41 0 -88 -11.5t-76 -21.5l121 162q-53 8 -85 41t-32 86q0 8 1 16t3 19l185 868h-146l9 41h147l78 371h41l-78 -371h242l-9 -41h-243l-164 -764q-12 -57 -17.5 -82.5t-5.5 -40.5 q0 -51 33 -77.5t80 -26.5q33 0 63.5 7t54 16t39 17.5t17.5 10.5l14 -33l-14 -9t-38.5 -19.5t-57.5 -19.5t-70 -11l-82 -107q23 8 46.5 10.5t39.5 2.5q111 0 111 -86q0 -72 -50.5 -107t-136.5 -35q-51 0 -95 11.5t-79 27.5z" />
<glyph unicode="&#x164;" horiz-adv-x="1175" d="M729 1413h-528l8 41h1098l-9 -41h-528l-301 -1413h-41zM631 1855l37 25l139 -129l192 129l27 -25l-213 -151h-33z" />
<glyph unicode="&#x165;" horiz-adv-x="575" d="M244 -10q-63 0 -104.5 34.5t-41.5 94.5q0 8 1 16t3 19l185 868h-146l9 41h147l78 371h41l-78 -371h242l-9 -41h-243l-164 -764q-12 -57 -17.5 -82.5t-5.5 -40.5q0 -51 33 -77.5t80 -26.5q33 0 63.5 7t54 16t39 17.5t17.5 10.5l14 -33l-16 -10t-44 -20.5t-63.5 -19.5 t-74.5 -9zM543 1346l155 149h68l-197 -174z" />
<glyph unicode="&#x166;" horiz-adv-x="1261" d="M188 868h469l117 545h-528l8 41h1100l-11 -41h-528l-117 -545h471l-8 -41h-471l-174 -827h-41l174 827h-469z" />
<glyph unicode="&#x167;" horiz-adv-x="579" d="M82 735h145l62 287h-146l9 41h145l80 371h41l-80 -371h244l-9 -41h-243l-62 -287h244l-8 -41h-246l-96 -456q-8 -37 -13.5 -62.5t-5.5 -42.5q0 -51 33 -76.5t80 -25.5q33 0 63.5 7t54 16t39 17.5t17.5 10.5l14 -33q-2 -2 -18 -11t-43 -20.5t-62.5 -19.5t-74.5 -8 q-63 0 -104.5 34.5t-41.5 94.5q0 8 1 16t3 19l115 540h-145z" />
<glyph unicode="&#x168;" horiz-adv-x="1482" d="M610 -10q-125 0 -209 36.5t-135 101.5t-73.5 151t-22.5 184q0 63 8 129.5t23 134.5l153 727h41l-153 -727q-14 -66 -22.5 -131.5t-8.5 -126.5q0 -92 20.5 -172t67.5 -139.5t125 -93t192 -33.5q156 0 270.5 61.5t195.5 159.5t131.5 223t76.5 252l154 727h41l-154 -727 q-31 -145 -88 -278.5t-144 -234.5t-208 -162.5t-281 -61.5zM1092 1743q-43 0 -73 12t-54.5 26.5t-47 27t-53.5 12.5t-53.5 -13.5t-36.5 -31t-21.5 -34t-9.5 -20.5h-38q0 4 9 27t28.5 47.5t52 44t82.5 19.5q37 0 63.5 -12.5t50 -27t50 -26.5t63.5 -12q39 0 65.5 14t42 31.5 t21.5 33t6 19.5h39q-2 -6 -11.5 -28.5t-31 -47t-56 -43t-87.5 -18.5z" />
<glyph unicode="&#x169;" horiz-adv-x="1128" d="M342 -20q-246 0 -246 284q0 88 25 203l127 596h41l-127 -596q-25 -115 -25 -199q0 -248 215 -248q74 0 148.5 28t143.5 76t127 115.5t97 147.5l144 676h41l-197 -926q-4 -23 -9 -43t-5 -24q0 -29 26 -29l-10 -41q-12 0 -24 4q-31 12 -31 55q0 2 1 8.5t4 27t11 61.5 t25 114q-47 -68 -105.5 -121t-124 -91t-135 -58t-137.5 -20zM811 1358q-43 0 -72.5 12t-54.5 26.5t-47.5 27t-52.5 12.5q-31 0 -53.5 -13.5t-37 -31t-21.5 -34t-9 -20.5h-39q0 4 9 26.5t28.5 47.5t52.5 44.5t82 19.5q37 0 63.5 -12.5t50 -27t50 -26.5t63.5 -12q39 0 65.5 14 t42 31.5t21.5 33t6 19.5h39q-2 -6 -11 -28.5t-30.5 -47t-56.5 -43t-88 -18.5z" />
<glyph unicode="&#x16a;" horiz-adv-x="1482" d="M610 -10q-125 0 -209 36.5t-135 101.5t-73.5 151t-22.5 184q0 63 8 129.5t23 134.5l153 727h41l-153 -727q-14 -66 -22.5 -131.5t-8.5 -126.5q0 -92 20.5 -172t67.5 -139.5t125 -93t192 -33.5q156 0 270.5 61.5t195.5 159.5t131.5 223t76.5 252l154 727h41l-154 -727 q-31 -145 -88 -278.5t-144 -234.5t-208 -162.5t-281 -61.5zM711 1790l8 41h545l-9 -41h-544z" />
<glyph unicode="&#x16b;" horiz-adv-x="1128" d="M342 -20q-246 0 -246 284q0 88 25 203l127 596h41l-127 -596q-25 -115 -25 -199q0 -248 215 -248q74 0 148.5 28t143.5 76t127 115.5t97 147.5l144 676h41l-197 -926q-4 -23 -9 -43t-5 -24q0 -29 26 -29l-10 -41q-12 0 -24 4q-31 12 -31 55q0 2 1 8.5t4 27t11 61.5 t25 114q-47 -68 -105.5 -121t-124 -91t-135 -58t-137.5 -20zM426 1405l8 41h545l-8 -41h-545z" />
<glyph unicode="&#x16c;" horiz-adv-x="1482" d="M610 -10q-125 0 -209 36.5t-135 101.5t-73.5 151t-22.5 184q0 63 8 129.5t23 134.5l153 727h41l-153 -727q-14 -66 -22.5 -131.5t-8.5 -126.5q0 -92 20.5 -172t67.5 -139.5t125 -93t192 -33.5q156 0 270.5 61.5t195.5 159.5t131.5 223t76.5 252l154 727h41l-154 -727 q-31 -145 -88 -278.5t-144 -234.5t-208 -162.5t-281 -61.5zM971 1757q41 0 80 36t55 87h37q-6 -31 -24.5 -59.5t-43 -50t-53.5 -35t-57 -13.5q-51 0 -84 37t-33 90q0 10 4 31h39q-2 -8 -2 -22q0 -41 23.5 -71t58.5 -30z" />
<glyph unicode="&#x16d;" horiz-adv-x="1128" d="M342 -20q-246 0 -246 284q0 88 25 203l127 596h41l-127 -596q-25 -115 -25 -199q0 -248 215 -248q74 0 148.5 28t143.5 76t127 115.5t97 147.5l144 676h41l-197 -926q-4 -23 -9 -43t-5 -24q0 -29 26 -29l-10 -41q-12 0 -24 4q-31 12 -31 55q0 2 1 8.5t4 27t11 61.5 t25 114q-47 -68 -105.5 -121t-124 -91t-135 -58t-137.5 -20zM680 1372q41 0 80 36t55 87h37q-6 -31 -24.5 -59.5t-43 -50t-53.5 -35t-57 -13.5q-51 0 -84 37t-33 90q0 10 4 31h39q-2 -8 -2 -22q0 -41 23.5 -71t58.5 -30z" />
<glyph unicode="&#x16e;" horiz-adv-x="1482" d="M610 -10q-125 0 -209 36.5t-135 101.5t-73.5 151t-22.5 184q0 63 8 129.5t23 134.5l153 727h41l-153 -727q-14 -66 -22.5 -131.5t-8.5 -126.5q0 -92 20.5 -172t67.5 -139.5t125 -93t192 -33.5q156 0 270.5 61.5t195.5 159.5t131.5 223t76.5 252l154 727h41l-154 -727 q-31 -145 -88 -278.5t-144 -234.5t-208 -162.5t-281 -61.5zM868 1741q0 29 11.5 54.5t31 44t45 29.5t52.5 11q41 0 64.5 -26.5t23.5 -67.5q0 -29 -11.5 -54.5t-31 -44t-45 -29.5t-52.5 -11q-41 0 -64.5 26.5t-23.5 67.5zM999 1847q-37 0 -67.5 -27.5t-30.5 -72.5 q0 -29 17.5 -48.5t46.5 -19.5q33 0 66.5 29t33.5 72q0 31 -18.5 49t-47.5 18z" />
<glyph unicode="&#x16f;" horiz-adv-x="1128" d="M342 -20q-246 0 -246 284q0 88 25 203l127 596h41l-127 -596q-25 -115 -25 -199q0 -248 215 -248q74 0 148.5 28t143.5 76t127 115.5t97 147.5l144 676h41l-197 -926q-4 -23 -9 -43t-5 -24q0 -29 26 -29l-10 -41q-12 0 -24 4q-31 12 -31 55q0 2 1 8.5t4 27t11 61.5 t25 114q-47 -68 -105.5 -121t-124 -91t-135 -58t-137.5 -20zM586 1356q0 29 11 54.5t30.5 44t45 29.5t52.5 11q41 0 64.5 -26.5t23.5 -67.5q0 -29 -11 -54.5t-30.5 -44t-45.5 -29.5t-52 -11q-41 0 -64.5 26.5t-23.5 67.5zM717 1462q-37 0 -68 -27.5t-31 -72.5 q0 -29 17.5 -48.5t46.5 -19.5q33 0 66.5 29t33.5 72q0 31 -18 49t-47 18z" />
<glyph unicode="&#x170;" horiz-adv-x="1482" d="M610 -10q-125 0 -209 36.5t-135 101.5t-73.5 151t-22.5 184q0 63 8 129.5t23 134.5l153 727h41l-153 -727q-14 -66 -22.5 -131.5t-8.5 -126.5q0 -92 20.5 -172t67.5 -139.5t125 -93t192 -33.5q156 0 270.5 61.5t195.5 159.5t131.5 223t76.5 252l154 727h41l-154 -727 q-31 -145 -88 -278.5t-144 -234.5t-208 -162.5t-281 -61.5zM819 1706l-26 25l155 149h68zM1016 1706l-27 25l156 149h67z" />
<glyph unicode="&#x171;" horiz-adv-x="1128" d="M342 -20q-246 0 -246 284q0 88 25 203l127 596h41l-127 -596q-25 -115 -25 -199q0 -248 215 -248q74 0 148.5 28t143.5 76t127 115.5t97 147.5l144 676h41l-197 -926q-4 -23 -9 -43t-5 -24q0 -29 26 -29l-10 -41q-12 0 -24 4q-31 12 -31 55q0 2 1 8.5t4 27t11 61.5 t25 114q-47 -68 -105.5 -121t-124 -91t-135 -58t-137.5 -20zM526 1321l-26 25l155 149h68zM723 1321l-27 25l156 149h68z" />
<glyph unicode="&#x172;" horiz-adv-x="1482" d="M471 -334q-39 10 -58.5 38t-19.5 63q0 53 39 104t141 121q-115 6 -191.5 45t-123.5 102.5t-67.5 146.5t-20.5 177q0 63 8 129.5t23 134.5l153 727h41l-153 -727q-14 -66 -22.5 -131.5t-8.5 -126.5q0 -92 20.5 -172t67.5 -139.5t125 -93t192 -33.5q156 0 270.5 61.5 t195.5 159.5t131.5 223t76.5 252l154 727h41l-154 -727q-31 -141 -86 -272t-139 -232.5t-201 -164t-270 -66.5q-59 -37 -98 -66.5t-61.5 -54.5t-32 -47.5t-9.5 -46.5q0 -61 70 -76z" />
<glyph unicode="&#x173;" horiz-adv-x="1128" d="M692 -326q-39 10 -58.5 38t-19.5 63q0 55 44 110.5t159 128.5q-14 14 -14 47q0 2 1 10.5t5 30t12 61.5t23 107q-47 -68 -105.5 -121t-124 -91t-135 -58t-137.5 -20q-246 0 -246 284q0 88 25 203l127 596h41l-127 -596q-25 -115 -25 -199q0 -248 215 -248q74 0 148.5 28 t143.5 76t127 115.5t97 147.5l144 676h41l-197 -926q-4 -23 -9 -43t-5 -24q0 -29 26 -29l-10 -41q-59 -37 -99 -66.5t-62.5 -54t-32 -47t-9.5 -47.5q0 -61 70 -76z" />
<glyph unicode="&#x174;" horiz-adv-x="2019" d="M207 1454h45l280 -1403l496 797l-121 594h45l107 -545l342 545h45l-375 -594l162 -797l874 1403h45l-909 -1454h-45l-158 797l-497 -797h-45zM1040 1729l213 151h33l150 -151l-37 -25l-139 129l-193 -129z" />
<glyph unicode="&#x175;" horiz-adv-x="1480" d="M125 1063h43l180 -1006q119 129 215 275.5t172 294.5l-78 436h43l66 -373q47 98 85 192.5t67 180.5h40q-35 -111 -79.5 -221.5t-100.5 -220.5l103 -564q104 113 192 242t160 261t126 260t91 243h41q-86 -268 -230.5 -538.5t-375.5 -524.5h-37l-100 559 q-78 -143 -175.5 -283.5t-220.5 -275.5h-37zM707 1343l213 152h32l150 -152l-37 -24l-139 129l-193 -129z" />
<glyph unicode="&#x176;" horiz-adv-x="1216" d="M567 567l-368 887h47l352 -844l713 844h47l-750 -891l-121 -563h-41zM643 1729l213 151h33l149 -151l-37 -25l-139 129l-192 -129z" />
<glyph unicode="&#x177;" horiz-adv-x="942" d="M-76 -424q61 12 105.5 32.5t81 54.5t72.5 85t83 123l84 129l-244 1063h46l229 -1012l119 189q96 154 162.5 266t112.5 205.5t78 176.5t58 175h43q-29 -98 -59.5 -183t-77.5 -179.5t-115.5 -211t-171.5 -278.5l-168 -264q-74 -115 -126 -189.5t-100 -119t-96 -66 t-112 -31.5zM408 1343l213 152h32l150 -152l-37 -24l-139 129l-193 -129z" />
<glyph unicode="&#x178;" horiz-adv-x="1216" d="M567 567l-368 887h47l352 -844l713 844h47l-750 -891l-121 -563h-41zM692 1722l33 158h41l-33 -158h-41zM920 1722l32 158h41l-32 -158h-41z" />
<glyph unicode="&#x179;" horiz-adv-x="1202" d="M-74 41l1344 1372h-1043l11 41h1093l-10 -41l-1344 -1372h1045l-8 -41h-1096zM768 1706l-27 25l156 149h68z" />
<glyph unicode="&#x17a;" horiz-adv-x="935" d="M-66 41l977 981h-757l8 41h809l-8 -41l-975 -981h760l-11 -41h-811zM565 1321l-26 25l155 149h68z" />
<glyph unicode="&#x17b;" horiz-adv-x="1202" d="M-74 41l1344 1372h-1043l11 41h1093l-10 -41l-1344 -1372h1045l-8 -41h-1096zM817 1722l33 158h41l-33 -158h-41z" />
<glyph unicode="&#x17c;" horiz-adv-x="935" d="M-66 41l977 981h-757l8 41h809l-8 -41l-975 -981h760l-11 -41h-811zM610 1337l33 158h41l-33 -158h-41z" />
<glyph unicode="&#x17d;" horiz-adv-x="1202" d="M-74 41l1344 1372h-1043l11 41h1093l-10 -41l-1344 -1372h1045l-8 -41h-1096zM659 1855l37 25l140 -129l192 129l27 -25l-213 -151h-33z" />
<glyph unicode="&#x17e;" horiz-adv-x="935" d="M-66 41l977 981h-757l8 41h809l-8 -41l-975 -981h760l-11 -41h-811zM453 1470l36 25l140 -129l192 129l27 -25l-213 -151h-33z" />
<glyph unicode="&#x18f;" horiz-adv-x="1447" d="M575 -20q-115 0 -209 40.5t-160.5 114.5t-103 176.5t-36.5 225.5q0 100 26 204h1235q4 35 7 67t3 66q0 119 -33.5 219.5t-95 173t-148.5 113.5t-192 41q-78 0 -157.5 -22.5t-153.5 -64.5t-137.5 -100t-106.5 -130l-37 18q43 74 110 136.5t147.5 108.5t169 71.5 t174.5 25.5q115 0 209 -47t160.5 -130t102 -193.5t35.5 -235.5q0 -178 -69.5 -338t-183 -279.5t-259 -190t-297.5 -70.5zM575 25q129 0 250 51t221.5 142t171 214t99.5 264h-1188q-16 -78 -16 -151q0 -98 26.5 -191.5t84 -166t144 -117.5t207.5 -45z" />
<glyph unicode="&#x192;" horiz-adv-x="997" d="M53 -348q-57 0 -104 14.5t-76 54.5l37 25q29 -33 68.5 -43t80.5 -10q39 0 83 18.5t82 49t66.5 73.5t39.5 92l207 971h-146l8 41h148l35 168q41 195 134 302.5t220 107.5q55 0 102 -19.5t68 -50.5l-37 -25q-18 25 -56 40.5t-83 15.5q-111 0 -191 -95.5t-116 -275.5 l-35 -168h299l-8 -41h-301l-207 -971q-12 -59 -47 -109t-80 -87t-95.5 -57.5t-95.5 -20.5z" />
<glyph unicode="&#x1c4;" horiz-adv-x="2603" d="M377 1454h444q133 0 230.5 -43t161 -117.5t94 -175t30.5 -217.5q0 -195 -61.5 -359.5t-172 -284.5t-262 -188.5t-329.5 -68.5h-444zM520 41q182 0 326.5 69.5t244 187.5t152.5 271.5t53 321.5q0 115 -30.5 211t-91 164.5t-151.5 107.5t-210 39h-403l-293 -1372h403z M1327 41l1344 1372h-1043l10 41h1094l-10 -41l-1344 -1372h1045l-8 -41h-1096zM2060 1855l37 25l139 -129l193 129l27 -25l-213 -151h-33z" />
<glyph unicode="&#x1c5;" horiz-adv-x="2336" d="M377 1454h444q133 0 230.5 -43t161 -117.5t94 -175t30.5 -217.5q0 -195 -61.5 -359.5t-172 -284.5t-262 -188.5t-329.5 -68.5h-444zM520 41q182 0 326.5 69.5t244 187.5t152.5 271.5t53 321.5q0 115 -30.5 211t-91 164.5t-151.5 107.5t-210 39h-403l-293 -1372h403z M1335 41l977 981h-758l9 41h809l-9 -41l-974 -981h759l-10 -41h-811zM1853 1470l37 25l140 -129l192 129l27 -25l-213 -151h-33z" />
<glyph unicode="&#x1c6;" horiz-adv-x="2121" d="M446 -20q-90 0 -161.5 37.5t-120.5 100t-75 144.5t-26 170q0 123 49.5 238.5t132.5 207t191.5 146.5t225.5 55q70 0 127 -21.5t101 -57t76.5 -84t51.5 -101.5l143 680h43l-301 -1407q-2 -6 -2 -11v-9q0 -27 25 -27l-8 -41q-12 0 -25 4q-33 12 -33 57v7.5t3 20.5t9.5 46 t18.5 86q-43 -53 -96.5 -97t-111.5 -77t-119 -50t-118 -17zM455 20q59 0 131.5 27t140.5 71t120 103.5t71 124.5l81 383q-8 63 -39.5 119.5t-80 98.5t-106.5 66.5t-120 24.5q-113 0 -213 -54t-175 -140t-118 -193.5t-43 -214.5q0 -84 25 -159.5t71 -132t110.5 -90.5 t144.5 -34zM1120 41l977 981h-758l9 41h809l-9 -41l-974 -981h759l-10 -41h-811zM1638 1470l37 25l140 -129l192 129l27 -25l-213 -151h-33z" />
<glyph unicode="&#x1c7;" horiz-adv-x="2068" d="M377 1454h41l-301 -1413h866l-8 -41h-907zM1346 -23q-174 0 -281 91l29 32q94 -82 260 -82q123 0 207 48.5t140 137.5t95 218t74 293l158 737h40l-157 -737q-35 -166 -77 -302.5t-104.5 -232.5t-154.5 -149.5t-229 -53.5z" />
<glyph unicode="&#x1c8;" horiz-adv-x="1519" d="M377 1454h41l-301 -1413h866l-8 -41h-907zM889 -348q-57 0 -104.5 14.5t-75.5 54.5l36 25q29 -33 69 -43t81 -10q39 0 83 18.5t82 49t66.5 73.5t38.5 92l242 1137h41l-242 -1137q-12 -59 -47 -109t-80 -87t-95 -57.5t-95 -20.5zM1499 1495h41l-33 -158h-41z" />
<glyph unicode="&#x1c9;" horiz-adv-x="847" d="M197 -10q-57 0 -90 33.5t-33 91.5v20t4 23l284 1337h41l-284 -1337q-2 -10 -3 -17.5t-1 -15.5q0 -96 106 -96q23 0 53.5 5t57.5 13l6 -33q-29 -10 -70.5 -17t-70.5 -7zM217 -348q-57 0 -104 14.5t-76 54.5l37 25q29 -33 68.5 -43t80.5 -10q39 0 83 18.5t82 49t66.5 73.5 t39.5 92l241 1137h41l-241 -1137q-12 -59 -47 -109t-80.5 -87t-95.5 -57.5t-95 -20.5zM827 1495h41l-32 -158h-41z" />
<glyph unicode="&#x1ca;" horiz-adv-x="2459" d="M377 1454h31l757 -1395l295 1393h41l-309 -1452h-45l-746 1374l-292 -1374h-41zM1737 -23q-174 0 -281 91l29 32q94 -82 260 -82q123 0 207 48.5t140 137.5t95 218t74 293l158 737h41l-158 -737q-35 -166 -77 -302.5t-104.5 -232.5t-154.5 -149.5t-229 -53.5z" />
<glyph unicode="&#x1cb;" horiz-adv-x="1910" d="M377 1454h31l757 -1395l295 1393h41l-309 -1452h-45l-746 1374l-292 -1374h-41zM1280 -348q-57 0 -104.5 14.5t-75.5 54.5l37 25q29 -33 68.5 -43t80.5 -10q39 0 83 18.5t82 49t66.5 73.5t38.5 92l242 1137h41l-242 -1137q-12 -59 -46.5 -109t-80 -87t-95.5 -57.5 t-95 -20.5zM1890 1495h41l-33 -158h-40z" />
<glyph unicode="&#x1cc;" horiz-adv-x="1495" d="M260 1063h41l-57 -275q45 63 104.5 118t126 92.5t137 59t138.5 21.5q115 0 170 -62.5t55 -195.5q0 -49 -7 -106.5t-22 -122.5l-125 -592h-41l125 592q27 125 27 219q0 117 -46 172t-145 55q-72 0 -148.5 -27.5t-147 -76.5t-130 -116.5t-96.5 -145.5l-143 -672h-41z M864 -348q-57 0 -104 14.5t-76 54.5l37 25q29 -33 68.5 -43t80.5 -10q39 0 83 18.5t82 49t66.5 73.5t39.5 92l241 1137h41l-241 -1137q-12 -59 -47 -109t-80 -87t-95.5 -57.5t-95.5 -20.5zM1475 1495h41l-33 -158h-41z" />
<glyph unicode="&#x1ea;" horiz-adv-x="1486" d="M475 -334q-39 10 -58.5 38t-19.5 63q0 55 39 105t142 120q-115 6 -202 57t-147.5 133t-91.5 187.5t-31 218.5q0 168 70 325.5t184.5 280.5t261 196.5t302.5 73.5q121 0 215 -51t158.5 -135t97 -192.5t32.5 -223.5q0 -164 -66.5 -317.5t-176 -274t-251.5 -196.5t-294 -82 q-59 -37 -98 -66.5t-61.5 -54.5t-32 -47.5t-9.5 -46.5q0 -59 70 -76zM621 31q154 0 293 73.5t243.5 192.5t166.5 266.5t62 294.5q0 113 -32.5 215.5t-94 180t-148.5 123.5t-196 46q-154 0 -293 -73.5t-244.5 -192.5t-168 -266.5t-62.5 -296.5q0 -113 32 -215.5t93.5 -179 t149.5 -122.5t199 -46z" />
<glyph unicode="&#x1eb;" horiz-adv-x="1148" d="M319 -344q-39 10 -58 37.5t-19 62.5q0 53 38.5 103.5t139.5 120.5q-82 4 -147.5 40.5t-112.5 96t-73 138.5t-26 169q0 129 53.5 248t140.5 210t196.5 144t222.5 53q84 0 153.5 -34.5t118.5 -96t77 -143.5t28 -174q0 -121 -48.5 -233.5t-127 -202t-181 -146.5t-209.5 -67 q-59 -37 -99 -67t-62.5 -54.5t-31.5 -47t-9 -46.5q0 -59 69 -76zM446 20q102 0 204 50.5t181.5 133.5t129 192.5t49.5 228.5q0 86 -26 160.5t-71 131t-108.5 89t-138.5 32.5q-102 0 -203 -50t-180.5 -135t-130 -195.5t-50.5 -229.5q0 -84 25 -158.5t71 -130t108 -87.5 t140 -32z" />
<glyph unicode="&#x1f1;" horiz-adv-x="2578" d="M377 1454h444q133 0 230.5 -43t161 -117.5t94 -175t30.5 -217.5q0 -195 -61.5 -359.5t-172 -284.5t-262 -188.5t-329.5 -68.5h-444zM520 41q182 0 326.5 69.5t244 187.5t152.5 271.5t53 321.5q0 115 -30.5 211t-91 164.5t-151.5 107.5t-210 39h-403l-293 -1372h403z M1303 41l1343 1372h-1042l10 41h1093l-10 -41l-1343 -1372h1044l-8 -41h-1096z" />
<glyph unicode="&#x1f2;" horiz-adv-x="2336" d="M377 1454h444q133 0 230.5 -43t161 -117.5t94 -175t30.5 -217.5q0 -195 -61.5 -359.5t-172 -284.5t-262 -188.5t-329.5 -68.5h-444zM520 41q182 0 326.5 69.5t244 187.5t152.5 271.5t53 321.5q0 115 -30.5 211t-91 164.5t-151.5 107.5t-210 39h-403l-293 -1372h403z M1335 41l977 981h-758l9 41h809l-9 -41l-974 -981h759l-10 -41h-811z" />
<glyph unicode="&#x1f3;" horiz-adv-x="2121" d="M446 -20q-90 0 -161.5 37.5t-120.5 100t-75 144.5t-26 170q0 123 49.5 238.5t132.5 207t191.5 146.5t225.5 55q70 0 127 -21.5t101 -57t76.5 -84t51.5 -101.5l143 680h43l-301 -1407q-2 -6 -2 -11v-9q0 -27 25 -27l-8 -41q-12 0 -25 4q-33 12 -33 57v7.5t3 20.5t9.5 46 t18.5 86q-43 -53 -96.5 -97t-111.5 -77t-119 -50t-118 -17zM455 20q59 0 131.5 27t140.5 71t120 103.5t71 124.5l81 383q-8 63 -39.5 119.5t-80 98.5t-106.5 66.5t-120 24.5q-113 0 -213 -54t-175 -140t-118 -193.5t-43 -214.5q0 -84 25 -159.5t71 -132t110.5 -90.5 t144.5 -34zM1120 41l977 981h-758l9 41h809l-9 -41l-974 -981h759l-10 -41h-811z" />
<glyph unicode="&#x1f4;" horiz-adv-x="1409" d="M1169 248q-270 -258 -551 -258q-123 0 -218 52t-160.5 137t-99.5 194.5t-34 224.5q0 158 67 313.5t177.5 278.5t256 198.5t302.5 75.5q106 0 185.5 -23.5t133.5 -65.5t88 -100t52 -128l-41 -12q-47 154 -156.5 221t-271.5 67q-156 0 -293 -74.5t-238.5 -193.5 t-161 -265.5t-59.5 -289.5q0 -115 34 -218t96.5 -181t151.5 -124t198 -46q135 0 271 65.5t284 208.5l73 346h-323l8 41h365l-148 -692h-41zM936 1706l-27 25l156 149h68z" />
<glyph unicode="&#x1f5;" horiz-adv-x="1179" d="M340 -457q-90 0 -155.5 18.5t-110.5 52.5t-74 80t-45 103l41 13q18 -59 52 -102.5t80 -71t102.5 -40t117.5 -12.5q82 0 161 23.5t143.5 71t111.5 116t67 160.5l58 266q-43 -53 -96.5 -97t-111.5 -77t-119.5 -50t-119.5 -17q-90 0 -160.5 37.5t-119.5 100t-75 144.5 t-26 170q0 119 49.5 234.5t131.5 208t190.5 148.5t226.5 56q68 0 123.5 -20.5t98.5 -56t76.5 -84t58.5 -103.5l53 248h39l-236 -1108q-23 -104 -76 -182t-125.5 -129.5t-158.5 -76t-172 -24.5zM453 20q72 0 146.5 30t139 77t112.5 104.5t64 114.5l82 383q-10 68 -40.5 124 t-76.5 97t-105.5 64.5t-123.5 23.5q-117 0 -217 -56t-174 -144t-116 -194.5t-42 -207.5q0 -84 25 -159.5t71 -132t110.5 -90.5t144.5 -34zM653 1321l-26 25l155 149h68z" />
<glyph unicode="&#x1fa;" horiz-adv-x="1327" d="M756 1516q0 29 11 54t30.5 43.5t45 30t52.5 11.5q41 0 64.5 -26.5t23.5 -67.5q0 -49 -31.5 -87t-77.5 -49l285 -1425h-45l-104 520h-719l-326 -520h-45l893 1425q-57 21 -57 91zM1001 561l-163 834l-523 -834h686zM887 1622q-37 0 -68 -27.5t-31 -72.5q0 -29 17.5 -48.5 t46.5 -19.5q33 0 66.5 28.5t33.5 71.5q0 31 -18 49.5t-47 18.5zM963 1706l-27 25l156 149h67z" />
<glyph unicode="&#x1fb;" horiz-adv-x="1187" d="M442 -20q-88 0 -158.5 37.5t-119.5 100t-75 144.5t-26 168q0 123 49.5 239.5t132.5 208t190.5 146.5t221.5 55q72 0 130.5 -21.5t102.5 -57t76.5 -84t51.5 -101.5l53 248h43l-209 -973q-4 -12 -4 -24q0 -25 25 -25l-8 -41q-12 0 -19 2q-39 12 -39 57q0 4 1 10.5t4 21.5 t9.5 46t16.5 84q-43 -53 -96.5 -97t-111.5 -77t-120 -50t-121 -17zM446 20q66 0 141 27t142.5 72t118.5 103.5t70 123.5l81 383q-8 61 -37.5 116.5t-76.5 98.5t-109.5 68.5t-134.5 25.5q-106 0 -203.5 -54t-171 -142t-118 -196.5t-44.5 -215.5q0 -82 26 -155.5t72 -130 t108 -90.5t136 -34zM635 1356q0 29 11 54.5t30.5 44t45.5 29.5t52 11q41 0 64.5 -26.5t23.5 -67.5q0 -29 -11 -54.5t-30.5 -44t-45 -29.5t-52.5 -11q-41 0 -64.5 26.5t-23.5 67.5zM766 1462q-37 0 -67.5 -27.5t-30.5 -72.5q0 -29 17 -48.5t46 -19.5q33 0 66.5 29t33.5 72 q0 31 -18 49t-47 18zM735 1597l-26 25l155 150h68z" />
<glyph unicode="&#x1fc;" horiz-adv-x="1886" d="M1047 1454h901l-11 -41h-847l-138 -649h744l-10 -41h-744l-143 -682h864l-8 -41h-907l110 520h-545l-434 -520h-51zM868 561l174 828l-696 -828h522zM1090 1706l-27 25l156 149h67z" />
<glyph unicode="&#x1fd;" horiz-adv-x="1810" d="M283 -20q-70 0 -122 21.5t-87 58t-52.5 85t-17.5 101.5q0 82 38 148.5t104.5 113.5t156.5 73.5t193 26.5q70 0 140.5 -11t129.5 -30q14 53 36.5 104.5t51.5 98.5q0 123 -67.5 195.5t-188.5 72.5q-80 0 -171 -33.5t-189 -97.5l-17 33q115 72 207 105.5t178 33.5 q119 0 198 -64.5t89 -189.5q88 115 209 184.5t250 69.5q84 0 155.5 -30.5t123.5 -85t82 -129t30 -162.5q0 -35 -5 -83t-22 -81h-921q-6 -47 -7 -86q0 -86 25 -160t71 -128t110.5 -84t144.5 -30q57 0 116.5 16.5t113.5 46.5t100.5 71t76.5 90l37 -11q-33 -55 -83 -101 t-111.5 -80t-128 -53t-132.5 -19q-127 0 -218 67.5t-134 179.5q-45 -68 -107.5 -114.5t-131 -76.5t-136 -43t-118.5 -13zM295 20q63 0 137 19.5t140.5 54.5t117.5 82t70 105q-16 61 -17 127q0 55 13 116q-61 23 -130 33t-134 10q-98 0 -180.5 -22.5t-141.5 -63.5t-92 -98 t-33 -129q0 -45 14.5 -87t45 -75t77.5 -52.5t113 -19.5zM1683 549q14 55 15 117q0 72 -21.5 139t-65.5 119.5t-110.5 83t-154.5 30.5q-90 0 -176.5 -36.5t-158 -102t-127 -156t-81.5 -194.5h880zM963 1321l-27 25l156 149h67z" />
<glyph unicode="&#x1fe;" horiz-adv-x="1486" d="M1393 1454l-121 -147q76 -86 115.5 -202t39.5 -243q0 -166 -69.5 -323.5t-184 -279.5t-261 -195.5t-302.5 -73.5q-98 0 -179 32.5t-142 90.5l-92 -113h-52l117 141q-78 86 -117 202t-39 245q0 168 70 325.5t184.5 280.5t261 196.5t302.5 73.5q98 0 179 -34.5t142 -94.5 l96 119h52zM147 594q0 -123 36 -231.5t108 -186.5l926 1124q-59 57 -134 90t-168 33q-154 0 -293 -73.5t-244.5 -192.5t-168 -266t-62.5 -297zM621 31q154 0 293 73.5t243.5 192.5t166.5 266.5t62 294.5q0 121 -36.5 228.5t-106.5 185.5l-926 -1125q59 -55 135.5 -85.5 t168.5 -30.5zM930 1706l-27 25l156 149h67z" />
<glyph unicode="&#x1ff;" horiz-adv-x="1148" d="M719 1321l-27 25l156 149h67zM182 90q-57 61 -89 147.5t-32 186.5q0 129 53.5 248t140.5 210t196.5 144t222.5 53q66 0 123 -22.5t104 -63.5l55 70h52l-78 -98q57 -61 89 -147.5t32 -186.5q0 -127 -53.5 -245t-139.5 -208t-195.5 -144t-222.5 -54q-68 0 -125 21.5 t-104 59.5l-49 -61h-49zM102 428q0 -92 28 -170t81 -135l661 835q-86 80 -206 80q-102 0 -204 -50t-181.5 -135t-129 -195.5t-49.5 -229.5zM446 20q102 0 204 50.5t181.5 133.5t129 192.5t49.5 228.5q0 92 -29 169.5t-80 135.5l-663 -834q43 -35 95 -55.5t113 -20.5z" />
<glyph unicode="&#x200;" horiz-adv-x="1325" d="M831 1454h37l291 -1454h-45l-104 520h-719l-326 -520h-45zM1001 561l-163 834l-523 -834h686zM909 1880h66l94 -149l-39 -25zM713 1880h67l92 -149l-36 -25z" />
<glyph unicode="&#x201;" horiz-adv-x="1187" d="M442 -20q-88 0 -158.5 37.5t-119.5 100t-75 144.5t-26 168q0 123 49.5 239.5t132.5 208t190.5 146.5t221.5 55q72 0 130.5 -21.5t102.5 -57t76.5 -84t51.5 -101.5l53 248h43l-209 -973q-4 -12 -4 -24q0 -25 25 -25l-8 -41q-12 0 -19 2q-39 12 -39 57q0 4 1 10.5t4 21.5 t9.5 46t16.5 84q-43 -53 -96.5 -97t-111.5 -77t-120 -50t-121 -17zM446 20q66 0 141 27t142.5 72t118.5 103.5t70 123.5l81 383q-8 61 -37.5 116.5t-76.5 98.5t-109.5 68.5t-134.5 25.5q-106 0 -203.5 -54t-171 -142t-118 -196.5t-44.5 -215.5q0 -82 26 -155.5t72 -130 t108 -90.5t136 -34zM739 1495h66l94 -149l-39 -25zM543 1495h67l92 -149l-36 -25z" />
<glyph unicode="&#x202;" horiz-adv-x="1325" d="M831 1454h37l291 -1454h-45l-104 520h-719l-326 -520h-45zM1001 561l-163 834l-523 -834h686zM774 1722q6 31 22.5 58.5t39 50t52.5 36t62 13.5q59 0 88 -39t29 -88q0 -20 -2 -31h-37q0 6 1 12.5t1 12.5q0 98 -82 98q-53 0 -89 -38t-46 -85h-39z" />
<glyph unicode="&#x203;" horiz-adv-x="1187" d="M442 -20q-88 0 -158.5 37.5t-119.5 100t-75 144.5t-26 168q0 123 49.5 239.5t132.5 208t190.5 146.5t221.5 55q72 0 130.5 -21.5t102.5 -57t76.5 -84t51.5 -101.5l53 248h43l-209 -973q-4 -12 -4 -24q0 -25 25 -25l-8 -41q-12 0 -19 2q-39 12 -39 57q0 4 1 10.5t4 21.5 t9.5 46t16.5 84q-43 -53 -96.5 -97t-111.5 -77t-120 -50t-121 -17zM446 20q66 0 141 27t142.5 72t118.5 103.5t70 123.5l81 383q-8 61 -37.5 116.5t-76.5 98.5t-109.5 68.5t-134.5 25.5q-106 0 -203.5 -54t-171 -142t-118 -196.5t-44.5 -215.5q0 -82 26 -155.5t72 -130 t108 -90.5t136 -34zM596 1337q6 31 22.5 58.5t39 50t52 36t62.5 13.5q59 0 88 -39t29 -88q0 -20 -2 -31h-37q0 6 1 12.5t1 12.5q0 98 -82 98q-53 0 -89 -38t-46 -85h-39z" />
<glyph unicode="&#x204;" d="M377 1454h889l-9 -41h-847l-140 -649h744l-8 -41h-744l-145 -682h866l-8 -41h-907zM844 1880h65l95 -149l-39 -25zM647 1880h68l92 -149l-37 -25z" />
<glyph unicode="&#x205;" horiz-adv-x="1067" d="M451 -20q-92 0 -164 35.5t-121 97t-76 143.5t-27 174q0 121 47.5 237.5t130.5 208t195.5 147.5t245.5 56q51 0 107.5 -18.5t101.5 -53t74.5 -87t29.5 -121.5q0 -291 -536 -291q-78 0 -160 2t-186 8q-6 -43 -7 -86q0 -84 23 -158.5t68 -131t112.5 -89.5t155.5 -33 q55 0 114.5 17.5t115 48.5t101.5 76t76 100l39 -12q-35 -61 -85 -111.5t-110.5 -85.5t-127.5 -54t-137 -19zM674 1038q-100 0 -190.5 -40t-163 -106.5t-125 -153.5t-74.5 -179q104 -6 185 -8t159 -2q135 0 228 18.5t150.5 52t83 79.5t25.5 102q0 61 -26.5 106t-67.5 75 t-90 43t-94 13zM700 1495h66l94 -149l-39 -25zM504 1495h67l93 -149l-37 -25z" />
<glyph unicode="&#x206;" d="M377 1454h889l-9 -41h-847l-140 -649h744l-8 -41h-744l-145 -682h866l-8 -41h-907zM739 1722q6 31 22.5 58.5t39 50t52.5 36t62 13.5q59 0 88 -39t29 -88q0 -20 -2 -31h-37q0 6 1 12.5t1 12.5q0 98 -82 98q-53 0 -89 -38t-46 -85h-39z" />
<glyph unicode="&#x207;" horiz-adv-x="1067" d="M451 -20q-92 0 -164 35.5t-121 97t-76 143.5t-27 174q0 121 47.5 237.5t130.5 208t195.5 147.5t245.5 56q51 0 107.5 -18.5t101.5 -53t74.5 -87t29.5 -121.5q0 -291 -536 -291q-78 0 -160 2t-186 8q-6 -43 -7 -86q0 -84 23 -158.5t68 -131t112.5 -89.5t155.5 -33 q55 0 114.5 17.5t115 48.5t101.5 76t76 100l39 -12q-35 -61 -85 -111.5t-110.5 -85.5t-127.5 -54t-137 -19zM674 1038q-100 0 -190.5 -40t-163 -106.5t-125 -153.5t-74.5 -179q104 -6 185 -8t159 -2q135 0 228 18.5t150.5 52t83 79.5t25.5 102q0 61 -26.5 106t-67.5 75 t-90 43t-94 13zM596 1337q6 31 22.5 58.5t39 50t52 36t62.5 13.5q59 0 88 -39t29 -88q0 -20 -2 -31h-37q0 6 1 12.5t1 12.5q0 98 -82 98q-53 0 -89 -38t-46 -85h-39z" />
<glyph unicode="&#x208;" horiz-adv-x="438" d="M377 1452h41l-309 -1452h-41zM455 1880h65l94 -149l-39 -25zM258 1880h68l92 -149l-37 -25z" />
<glyph unicode="&#x209;" horiz-adv-x="372" d="M260 1063h41l-225 -1063h-41zM311 1495h66l94 -149l-39 -25zM115 1495h67l92 -149l-36 -25z" />
<glyph unicode="&#x20a;" horiz-adv-x="438" d="M377 1452h41l-309 -1452h-41zM319 1722q6 31 22.5 58.5t39 50t52.5 36t63 13.5q59 0 87.5 -39t28.5 -88q0 -20 -2 -31h-37q0 6 1 12.5t1 12.5q0 98 -81 98q-53 0 -89 -38t-47 -85h-39z" />
<glyph unicode="&#x20b;" horiz-adv-x="372" d="M260 1063h41l-225 -1063h-41zM201 1337q6 31 22.5 58.5t39 50t52 36t62.5 13.5q59 0 88 -39t29 -88q0 -20 -2 -31h-37q0 6 1 12.5t1 12.5q0 98 -82 98q-53 0 -89 -38t-46 -85h-39z" />
<glyph unicode="&#x20c;" horiz-adv-x="1486" d="M610 -10q-121 0 -215 49t-158.5 132t-97.5 191.5t-33 225.5q0 168 70 325.5t184.5 280.5t261 196.5t302.5 73.5q121 0 215 -51t158.5 -135t97 -192.5t32.5 -223.5q0 -166 -69.5 -323.5t-184 -279.5t-261 -195.5t-302.5 -73.5zM621 31q154 0 293 73.5t243.5 192.5 t166.5 266.5t62 294.5q0 113 -32.5 215.5t-94 180t-148.5 123.5t-196 46q-154 0 -293 -73.5t-244.5 -192.5t-168 -266.5t-62.5 -296.5q0 -113 32 -215.5t93.5 -179t149.5 -122.5t199 -46zM991 1880h66l94 -149l-39 -25zM795 1880h67l92 -149l-36 -25z" />
<glyph unicode="&#x20d;" horiz-adv-x="1148" d="M440 -20q-86 0 -155.5 34.5t-119.5 95t-77 141.5t-27 173q0 129 53.5 248t140.5 210t196.5 144t222.5 53q84 0 153.5 -34.5t118.5 -96t77 -143.5t28 -174q0 -127 -53.5 -245t-139.5 -208t-195.5 -144t-222.5 -54zM446 20q102 0 204 50.5t181.5 133.5t129 192.5 t49.5 228.5q0 86 -26 160.5t-71 131t-108.5 89t-138.5 32.5q-102 0 -203 -50t-180.5 -135t-130 -195.5t-50.5 -229.5q0 -84 25 -158.5t71 -130t108 -87.5t140 -32zM760 1495h65l95 -149l-39 -25zM563 1495h68l92 -149l-37 -25z" />
<glyph unicode="&#x20e;" horiz-adv-x="1486" d="M610 -10q-121 0 -215 49t-158.5 132t-97.5 191.5t-33 225.5q0 168 70 325.5t184.5 280.5t261 196.5t302.5 73.5q121 0 215 -51t158.5 -135t97 -192.5t32.5 -223.5q0 -166 -69.5 -323.5t-184 -279.5t-261 -195.5t-302.5 -73.5zM621 31q154 0 293 73.5t243.5 192.5 t166.5 266.5t62 294.5q0 113 -32.5 215.5t-94 180t-148.5 123.5t-196 46q-154 0 -293 -73.5t-244.5 -192.5t-168 -266.5t-62.5 -296.5q0 -113 32 -215.5t93.5 -179t149.5 -122.5t199 -46zM842 1722q6 31 22.5 58.5t39 50t52 36t62.5 13.5q59 0 88 -39t29 -88q0 -20 -2 -31 h-37q0 6 1 12.5t1 12.5q0 98 -82 98q-53 0 -89 -38t-46 -85h-39z" />
<glyph unicode="&#x20f;" horiz-adv-x="1148" d="M440 -20q-86 0 -155.5 34.5t-119.5 95t-77 141.5t-27 173q0 129 53.5 248t140.5 210t196.5 144t222.5 53q84 0 153.5 -34.5t118.5 -96t77 -143.5t28 -174q0 -127 -53.5 -245t-139.5 -208t-195.5 -144t-222.5 -54zM446 20q102 0 204 50.5t181.5 133.5t129 192.5 t49.5 228.5q0 86 -26 160.5t-71 131t-108.5 89t-138.5 32.5q-102 0 -203 -50t-180.5 -135t-130 -195.5t-50.5 -229.5q0 -84 25 -158.5t71 -130t108 -87.5t140 -32zM590 1337q6 31 22.5 58.5t39 50t52 36t62.5 13.5q59 0 88 -39t29 -88q0 -20 -2 -31h-37q0 6 1 12.5t1 12.5 q0 98 -82 98q-53 0 -89 -38t-46 -85h-39z" />
<glyph unicode="&#x210;" horiz-adv-x="1261" d="M68 0l309 1454h563q72 0 129 -30.5t96 -82t59.5 -116t20.5 -133.5q0 -94 -37 -184.5t-98 -163t-144 -119.5t-175 -54l227 -571h-49l-228 571h-512l-120 -571h-41zM774 612q90 0 168 43t136.5 111t92 151.5t33.5 167.5q0 66 -19.5 125.5t-55 104.5t-87 71.5t-112.5 26.5 h-520l-170 -801h534zM868 1880h66l94 -149l-39 -25zM672 1880h67l92 -149l-36 -25z" />
<glyph unicode="&#x211;" horiz-adv-x="649" d="M260 1063h41l-57 -275q84 125 192.5 194t218.5 79q10 2 19.5 2h19.5l-8 -41q-145 -6 -269 -98.5t-198 -251.5l-143 -672h-41zM500 1495h65l94 -149l-38 -25zM303 1495h68l92 -149l-37 -25z" />
<glyph unicode="&#x212;" horiz-adv-x="1261" d="M68 0l309 1454h563q72 0 129 -30.5t96 -82t59.5 -116t20.5 -133.5q0 -94 -37 -184.5t-98 -163t-144 -119.5t-175 -54l227 -571h-49l-228 571h-512l-120 -571h-41zM774 612q90 0 168 43t136.5 111t92 151.5t33.5 167.5q0 66 -19.5 125.5t-55 104.5t-87 71.5t-112.5 26.5 h-520l-170 -801h534zM737 1722q6 31 22.5 58.5t39 50t52.5 36t62 13.5q59 0 88 -39t29 -88q0 -20 -2 -31h-37q0 6 1 12.5t1 12.5q0 98 -82 98q-53 0 -89 -38t-46 -85h-39z" />
<glyph unicode="&#x213;" horiz-adv-x="649" d="M260 1063h41l-57 -275q84 125 192.5 194t218.5 79q10 2 19.5 2h19.5l-8 -41q-145 -6 -269 -98.5t-198 -251.5l-143 -672h-41zM362 1346q6 31 22.5 58.5t39 50t52.5 35.5t63 13q59 0 87.5 -39t28.5 -88q0 -20 -2 -30h-37q0 6 1 12t1 12q0 98 -81 98q-53 0 -89 -37.5 t-47 -84.5h-39z" />
<glyph unicode="&#x214;" horiz-adv-x="1482" d="M610 -10q-125 0 -209 36.5t-135 101.5t-73.5 151t-22.5 184q0 63 8 129.5t23 134.5l153 727h41l-153 -727q-14 -66 -22.5 -131.5t-8.5 -126.5q0 -92 20.5 -172t67.5 -139.5t125 -93t192 -33.5q156 0 270.5 61.5t195.5 159.5t131.5 223t76.5 252l154 727h41l-154 -727 q-31 -145 -88 -278.5t-144 -234.5t-208 -162.5t-281 -61.5zM981 1880h66l94 -149l-39 -25zM784 1880h68l92 -149l-37 -25z" />
<glyph unicode="&#x215;" horiz-adv-x="1128" d="M342 -20q-246 0 -246 284q0 88 25 203l127 596h41l-127 -596q-25 -115 -25 -199q0 -248 215 -248q74 0 148.5 28t143.5 76t127 115.5t97 147.5l144 676h41l-197 -926q-4 -23 -9 -43t-5 -24q0 -29 26 -29l-10 -41q-12 0 -24 4q-31 12 -31 55q0 2 1 8.5t4 27t11 61.5 t25 114q-47 -68 -105.5 -121t-124 -91t-135 -58t-137.5 -20zM717 1495h65l95 -149l-39 -25zM520 1495h68l92 -149l-37 -25z" />
<glyph unicode="&#x216;" horiz-adv-x="1482" d="M610 -10q-125 0 -209 36.5t-135 101.5t-73.5 151t-22.5 184q0 63 8 129.5t23 134.5l153 727h41l-153 -727q-14 -66 -22.5 -131.5t-8.5 -126.5q0 -92 20.5 -172t67.5 -139.5t125 -93t192 -33.5q156 0 270.5 61.5t195.5 159.5t131.5 223t76.5 252l154 727h41l-154 -727 q-31 -145 -88 -278.5t-144 -234.5t-208 -162.5t-281 -61.5zM836 1722q6 31 22 58.5t39 50t52.5 36t62.5 13.5q59 0 87.5 -39t28.5 -88q0 -20 -2 -31h-36q0 6 1 12.5t1 12.5q0 98 -82 98q-53 0 -89 -38t-47 -85h-38z" />
<glyph unicode="&#x217;" horiz-adv-x="1128" d="M342 -20q-246 0 -246 284q0 88 25 203l127 596h41l-127 -596q-25 -115 -25 -199q0 -248 215 -248q74 0 148.5 28t143.5 76t127 115.5t97 147.5l144 676h41l-197 -926q-4 -23 -9 -43t-5 -24q0 -29 26 -29l-10 -41q-12 0 -24 4q-31 12 -31 55q0 2 1 8.5t4 27t11 61.5 t25 114q-47 -68 -105.5 -121t-124 -91t-135 -58t-137.5 -20zM563 1337q6 31 22.5 58.5t39 50t52.5 36t62 13.5q59 0 88 -39t29 -88q0 -20 -2 -31h-37q0 6 1 12.5t1 12.5q0 98 -82 98q-53 0 -89 -38t-46 -85h-39z" />
<glyph unicode="&#x218;" horiz-adv-x="1185" d="M487 -10q-166 0 -284.5 54t-204.5 171l35 27q82 -115 193.5 -166t271.5 -51q119 0 215 25.5t163.5 74.5t104.5 121.5t37 169.5q0 61 -24.5 107t-74 80t-123 58.5t-171.5 47.5q-96 20 -172 42.5t-128.5 55.5t-80 81t-27.5 118q0 106 42 191t119 144.5t182.5 91t232.5 31.5 q133 0 223 -40t151 -134l-32 -28q-61 96 -142.5 129.5t-204.5 33.5q-141 0 -241.5 -31.5t-164 -88t-93 -131t-29.5 -160.5q0 -59 22.5 -100.5t68.5 -71t117 -52t165 -42.5q96 -23 175 -47.5t135 -60.5t87 -88t31 -126q0 -102 -41 -183t-116 -137.5t-181.5 -86t-235.5 -29.5z M387 -342l45 119h-18l26 121h52l-25 -121l-51 -119h-29z" />
<glyph unicode="&#x219;" horiz-adv-x="921" d="M326 -20q-117 0 -205 41.5t-146 130.5l35 26q61 -80 138 -119t186 -39q84 0 155.5 21.5t125 59.5t84 93.5t30.5 122.5q0 45 -20.5 77t-59.5 54.5t-95 41t-128 36.5q-68 16 -119 32.5t-87 38t-54.5 53.5t-18.5 79q0 88 36 154.5t96.5 109.5t137.5 64.5t158 21.5 q123 0 200 -44t97 -109l-38 -17q-23 63 -101 96t-174 33q-72 0 -138.5 -17t-117.5 -54t-82 -93.5t-31 -132.5q0 -39 15.5 -65.5t46.5 -45t77 -32.5t107 -31q76 -20 138.5 -38.5t106.5 -45t67.5 -62.5t23.5 -89q0 -78 -33.5 -142.5t-93 -111.5t-141.5 -72.5t-178 -25.5z M244 -342l45 119h-19l27 121h51l-24 -121l-52 -119h-28z" />
<glyph unicode="&#x21a;" horiz-adv-x="1175" d="M729 1413h-528l8 41h1098l-9 -41h-528l-301 -1413h-41zM344 -342l45 119h-18l26 121h52l-25 -121l-51 -119h-29z" />
<glyph unicode="&#x21b;" horiz-adv-x="575" d="M244 -10q-63 0 -104.5 34.5t-41.5 94.5q0 8 1 16t3 19l185 868h-146l9 41h147l78 371h41l-78 -371h242l-9 -41h-243l-164 -764q-12 -57 -17.5 -82.5t-5.5 -40.5q0 -51 33 -77.5t80 -26.5q33 0 63.5 7t54 16t39 17.5t17.5 10.5l14 -33l-16 -10t-44 -20.5t-63.5 -19.5 t-74.5 -9zM141 -342l45 119h-18l27 121h51l-25 -121l-51 -119h-29z" />
<glyph unicode="&#x237;" horiz-adv-x="372" d="M-258 -348q-57 0 -104.5 14.5t-75.5 54.5l37 25q29 -33 68.5 -43t80.5 -10q39 0 83 18.5t82 49t66.5 73.5t38.5 92l242 1137h41l-242 -1137q-12 -59 -47 -109t-80 -87t-95 -57.5t-95 -20.5z" />
<glyph unicode="&#x259;" horiz-adv-x="1122" d="M416 -20q-86 0 -157 31.5t-121 88t-77.5 133t-27.5 166.5q0 35 3 76t15 76h924q6 43 6 86q0 86 -25.5 159.5t-71.5 128t-110.5 84t-142.5 29.5q-59 0 -118.5 -16t-114 -46t-100.5 -71t-77 -90l-35 10q31 55 81 101.5t111.5 80t129 53t133.5 19.5q86 0 155.5 -34.5 t120 -96t78 -144.5t27.5 -177q0 -129 -52 -247t-137 -207t-193.5 -141t-223.5 -52zM424 20q88 0 174 37t158.5 102.5t127 156t81.5 194.5h-879q-8 -47 -8 -98q0 -88 24.5 -160t69.5 -123t108.5 -80t143.5 -29z" />
<glyph unicode="&#x2bc;" horiz-adv-x="1103" d="M844 1495l-197 -174l-26 25l100 96l16 53h107z" />
<glyph unicode="&#x2c6;" horiz-adv-x="589" d="M98 1343l213 152h33l150 -152l-37 -24l-140 129l-192 -129z" />
<glyph unicode="&#x2c7;" horiz-adv-x="589" d="M98 1470l37 25l139 -129l193 129l27 -25l-213 -151h-33z" />
<glyph unicode="&#x2c9;" horiz-adv-x="739" d="M102 1446h545l-8 -41h-545z" />
<glyph unicode="&#x2d8;" horiz-adv-x="483" d="M217 1372q41 0 80 36t55 87h37q-6 -31 -24.5 -59.5t-43 -50t-53 -35t-57.5 -13.5q-51 0 -84 37t-33 90q0 10 4 31h39q-2 -8 -2 -22q0 -41 23.5 -71t58.5 -30z" />
<glyph unicode="&#x2d9;" horiz-adv-x="233" d="M80 1337l33 158h41l-33 -158h-41z" />
<glyph unicode="&#x2da;" horiz-adv-x="462" d="M119 1356q0 29 11 54.5t30.5 44t45 29.5t52.5 11q41 0 64.5 -26.5t23.5 -67.5q0 -29 -11 -54.5t-30.5 -44t-45.5 -29.5t-52 -11q-41 0 -64.5 26.5t-23.5 67.5zM250 1462q-37 0 -67.5 -27.5t-30.5 -72.5q0 -29 17 -48.5t46 -19.5q33 0 66.5 29t33.5 72q0 31 -18 49t-47 18 z" />
<glyph unicode="&#x2db;" horiz-adv-x="395" d="M125 -326q-39 10 -58.5 38t-19.5 63q0 59 49 115.5t176 138.5l19 -29q-59 -37 -99 -66.5t-63 -54t-32 -47t-9 -47.5q0 -61 70 -76z" />
<glyph unicode="&#x2dc;" horiz-adv-x="745" d="M473 1358q-43 0 -72.5 12t-54 26.5t-47.5 27t-53 12.5q-31 0 -53.5 -13.5t-37 -31t-21.5 -34t-9 -20.5h-39q0 4 9 26.5t28.5 47.5t52.5 44.5t82 19.5q37 0 63.5 -12.5t50 -27t50.5 -26.5t63 -12q39 0 66 14t42 31.5t21.5 33t6.5 19.5h38q-2 -6 -11 -28.5t-30.5 -47 t-56.5 -43t-88 -18.5z" />
<glyph unicode="&#x2dd;" horiz-adv-x="581" d="M109 1321l-27 25l156 149h67zM305 1321l-26 25l155 149h68z" />
<glyph unicode="&#x30f;" horiz-adv-x="581" d="M309 1495h66l94 -149l-39 -25zM113 1495h67l92 -149l-36 -25z" />
<glyph unicode="&#x311;" horiz-adv-x="483" d="M94 1337q6 31 22.5 58.5t39 50t52.5 36t62 13.5q59 0 88 -39t29 -88q0 -25 -2 -31h-37q0 6 1 12.5t1 12.5q0 98 -82 98q-53 0 -89 -38t-46 -85h-39z" />
<glyph unicode="&#x394;" horiz-adv-x="1261" d="M-49 41l596 1413h37l594 -1413v-41h-1227v41zM1133 41l-568 1354l-569 -1354h1137z" />
<glyph unicode="&#x3a9;" horiz-adv-x="1677" d="M129 43h449q-102 45 -184.5 119t-138.5 166t-86 199.5t-30 220.5q0 141 51.5 271t141.5 228.5t214 157.5t271 59t271 -59t214.5 -157.5t141.5 -228.5t51 -271q0 -113 -29.5 -220.5t-86 -199.5t-138.5 -166t-184 -119h448v-43h-592v43q131 27 232.5 98.5t169 170 t102.5 212t35 224.5q0 125 -44 245.5t-126 215t-199.5 152.5t-265.5 58q-147 0 -265 -58t-200 -152.5t-126 -215.5t-44 -245q0 -111 35 -224.5t102.5 -212t168 -170t233.5 -98.5v-43h-592v43z" />
<glyph unicode="&#x3bc;" horiz-adv-x="1140" d="M260 1063h43l-127 -596q-25 -115 -24 -199q0 -248 213 -248q74 0 148.5 28t143 76t127 115.5t97.5 147.5l143 676h43l-209 -981q-2 -2 -2 -14q0 -27 25 -27l-11 -41q-55 0 -55 61q0 16 2 21l41 188q-47 -68 -106.5 -121t-125 -91t-134 -58t-136.5 -20q-211 0 -239 213 l-133 -627h-41z" />
<glyph unicode="&#x3c0;" horiz-adv-x="1273" d="M981 -10q-72 0 -117 46t-45 122v864h-504v-1022h-41v1022h-163v41h974v-41h-225v-864q0 -59 37 -94t98 -35q23 0 54.5 5t58.5 13l14 -33q-29 -10 -70.5 -17t-70.5 -7z" />
<glyph unicode="&#x1e0c;" horiz-adv-x="1400" d="M377 1454h444q133 0 230.5 -43t161 -117.5t94 -175t30.5 -217.5q0 -195 -61.5 -359.5t-172 -284.5t-262 -188.5t-329.5 -68.5h-444zM520 41q182 0 326.5 69.5t244 187.5t152.5 271.5t53 321.5q0 115 -30.5 211t-91 164.5t-151.5 107.5t-210 39h-403l-293 -1372h403z M459 -260l33 158h40l-32 -158h-41z" />
<glyph unicode="&#x1e0d;" horiz-adv-x="1185" d="M446 -20q-90 0 -161.5 37.5t-120.5 100t-75 144.5t-26 170q0 123 49.5 238.5t132.5 207t191.5 146.5t225.5 55q70 0 127 -21.5t101 -57t76.5 -84t51.5 -101.5l143 680h43l-301 -1407q-2 -6 -2 -11v-9q0 -27 25 -27l-8 -41q-12 0 -25 4q-33 12 -33 57v7.5t3 20.5t9.5 46 t18.5 86q-43 -53 -96.5 -97t-111.5 -77t-119 -50t-118 -17zM455 20q59 0 131.5 27t140.5 71t120 103.5t71 124.5l81 383q-8 63 -39.5 119.5t-80 98.5t-106.5 66.5t-120 24.5q-113 0 -213 -54t-175 -140t-118 -193.5t-43 -214.5q0 -84 25 -159.5t71 -132t110.5 -90.5 t144.5 -34zM379 -260l33 158h41l-33 -158h-41z" />
<glyph unicode="&#x1e24;" horiz-adv-x="1435" d="M377 1454h41l-148 -690h957l147 690h41l-309 -1454h-41l154 723h-957l-153 -723h-41zM512 -260l33 158h41l-33 -158h-41z" />
<glyph unicode="&#x1e25;" horiz-adv-x="1105" d="M352 1495h41l-149 -707q45 66 102 120.5t120.5 92t130.5 58t132 20.5q242 0 242 -284q0 -90 -25 -203l-125 -592h-41l125 592q10 55 17.5 104t7.5 90q0 252 -209 252q-72 0 -144.5 -28.5t-140 -77.5t-124 -115.5t-93.5 -144.5l-143 -672h-41zM377 -260l33 158h41 l-33 -158h-41z" />
<glyph unicode="&#x1e44;" horiz-adv-x="1521" d="M377 1454h31l757 -1395l295 1393h41l-309 -1452h-45l-746 1374l-292 -1374h-41zM997 1722l33 158h41l-33 -158h-41z" />
<glyph unicode="&#x1e45;" horiz-adv-x="1105" d="M260 1063h41l-57 -275q45 63 104.5 118t126 92.5t137 59t138.5 21.5q115 0 170 -62.5t55 -195.5q0 -49 -7 -106.5t-22 -122.5l-125 -592h-41l125 592q27 125 27 219q0 117 -46 172t-145 55q-72 0 -148.5 -27.5t-147 -76.5t-130 -116.5t-96.5 -145.5l-143 -672h-41z M707 1337l32 158h41l-32 -158h-41z" />
<glyph unicode="&#x1e5a;" horiz-adv-x="1261" d="M68 0l309 1454h563q72 0 129 -30.5t96 -82t59.5 -116t20.5 -133.5q0 -94 -37 -184.5t-98 -163t-144 -119.5t-175 -54l227 -571h-49l-228 571h-512l-120 -571h-41zM774 612q90 0 168 43t136.5 111t92 151.5t33.5 167.5q0 66 -19.5 125.5t-55 104.5t-87 71.5t-112.5 26.5 h-520l-170 -801h534zM436 -260l33 158h41l-33 -158h-41z" />
<glyph unicode="&#x1e5b;" horiz-adv-x="649" d="M260 1063h41l-57 -275q84 125 192.5 194t218.5 79q10 2 19.5 2h19.5l-8 -41q-145 -6 -269 -98.5t-198 -251.5l-143 -672h-41zM-20 -260l32 158h41l-33 -158h-40z" />
<glyph unicode="&#x1e62;" horiz-adv-x="1185" d="M487 -10q-166 0 -284.5 54t-204.5 171l35 27q82 -115 193.5 -166t271.5 -51q119 0 215 25.5t163.5 74.5t104.5 121.5t37 169.5q0 61 -24.5 107t-74 80t-123 58.5t-171.5 47.5q-96 20 -172 42.5t-128.5 55.5t-80 81t-27.5 118q0 106 42 191t119 144.5t182.5 91t232.5 31.5 q133 0 223 -40t151 -134l-32 -28q-61 96 -142.5 129.5t-204.5 33.5q-141 0 -241.5 -31.5t-164 -88t-93 -131t-29.5 -160.5q0 -59 22.5 -100.5t68.5 -71t117 -52t165 -42.5q96 -23 175 -47.5t135 -60.5t87 -88t31 -126q0 -102 -41 -183t-116 -137.5t-181.5 -86t-235.5 -29.5z M414 -260l32 158h41l-32 -158h-41z" />
<glyph unicode="&#x1e63;" horiz-adv-x="921" d="M326 -20q-117 0 -205 41.5t-146 130.5l35 26q61 -80 138 -119t186 -39q84 0 155.5 21.5t125 59.5t84 93.5t30.5 122.5q0 45 -20.5 77t-59.5 54.5t-95 41t-128 36.5q-68 16 -119 32.5t-87 38t-54.5 53.5t-18.5 79q0 88 36 154.5t96.5 109.5t137.5 64.5t158 21.5 q123 0 200 -44t97 -109l-38 -17q-23 63 -101 96t-174 33q-72 0 -138.5 -17t-117.5 -54t-82 -93.5t-31 -132.5q0 -39 15.5 -65.5t46.5 -45t77 -32.5t107 -31q76 -20 138.5 -38.5t106.5 -45t67.5 -62.5t23.5 -89q0 -78 -33.5 -142.5t-93 -111.5t-141.5 -72.5t-178 -25.5z M270 -260l33 158h41l-33 -158h-41z" />
<glyph unicode="&#x1e6c;" horiz-adv-x="1175" d="M729 1413h-528l8 41h1098l-9 -41h-528l-301 -1413h-41zM375 -260l33 158h41l-33 -158h-41z" />
<glyph unicode="&#x1e6d;" horiz-adv-x="575" d="M244 -10q-63 0 -104.5 34.5t-41.5 94.5q0 8 1 16t3 19l185 868h-146l9 41h147l78 371h41l-78 -371h242l-9 -41h-243l-164 -764q-12 -57 -17.5 -82.5t-5.5 -40.5q0 -51 33 -77.5t80 -26.5q33 0 63.5 7t54 16t39 17.5t17.5 10.5l14 -33l-16 -10t-44 -20.5t-63.5 -19.5 t-74.5 -9zM158 -260l32 158h41l-32 -158h-41z" />
<glyph unicode="&#x1e80;" horiz-adv-x="2019" d="M207 1454h45l280 -1403l496 797l-121 594h45l107 -545l342 545h45l-375 -594l162 -797l874 1403h45l-909 -1454h-45l-158 797l-497 -797h-45zM1161 1880h66l94 -149l-37 -25z" />
<glyph unicode="&#x1e81;" horiz-adv-x="1480" d="M125 1063h43l180 -1006q119 129 215 275.5t172 294.5l-78 436h43l66 -373q47 98 85 192.5t67 180.5h40q-35 -111 -79.5 -221.5t-100.5 -220.5l103 -564q104 113 192 242t160 261t126 260t91 243h41q-86 -268 -230.5 -538.5t-375.5 -524.5h-37l-100 559 q-78 -143 -175.5 -283.5t-220.5 -275.5h-37zM811 1495h66l94 -149l-37 -25z" />
<glyph unicode="&#x1e82;" horiz-adv-x="2019" d="M207 1454h45l280 -1403l496 797l-121 594h45l107 -545l342 545h45l-375 -594l162 -797l874 1403h45l-909 -1454h-45l-158 797l-497 -797h-45zM1202 1706l-26 25l155 149h68z" />
<glyph unicode="&#x1e83;" horiz-adv-x="1480" d="M125 1063h43l180 -1006q119 129 215 275.5t172 294.5l-78 436h43l66 -373q47 98 85 192.5t67 180.5h40q-35 -111 -79.5 -221.5t-100.5 -220.5l103 -564q104 113 192 242t160 261t126 260t91 243h41q-86 -268 -230.5 -538.5t-375.5 -524.5h-37l-100 559 q-78 -143 -175.5 -283.5t-220.5 -275.5h-37zM852 1321l-27 25l156 149h68z" />
<glyph unicode="&#x1e84;" horiz-adv-x="2019" d="M207 1454h45l280 -1403l496 797l-121 594h45l107 -545l342 545h45l-375 -594l162 -797l874 1403h45l-909 -1454h-45l-158 797l-497 -797h-45zM1092 1722l32 158h41l-32 -158h-41zM1319 1722l33 158h41l-33 -158h-41z" />
<glyph unicode="&#x1e85;" horiz-adv-x="1480" d="M125 1063h43l180 -1006q119 129 215 275.5t172 294.5l-78 436h43l66 -373q47 98 85 192.5t67 180.5h40q-35 -111 -79.5 -221.5t-100.5 -220.5l103 -564q104 113 192 242t160 261t126 260t91 243h41q-86 -268 -230.5 -538.5t-375.5 -524.5h-37l-100 559 q-78 -143 -175.5 -283.5t-220.5 -275.5h-37zM743 1337l33 158h41l-33 -158h-41zM971 1337l33 158h40l-32 -158h-41z" />
<glyph unicode="&#x1e92;" horiz-adv-x="1202" d="M-74 41l1344 1372h-1043l11 41h1093l-10 -41l-1344 -1372h1045l-8 -41h-1096zM397 -260l33 158h41l-33 -158h-41z" />
<glyph unicode="&#x1e93;" horiz-adv-x="935" d="M-66 41l977 981h-757l8 41h809l-8 -41l-975 -981h760l-11 -41h-811zM268 -260l33 158h41l-33 -158h-41z" />
<glyph unicode="&#x1eb8;" d="M377 1454h889l-9 -41h-847l-140 -649h744l-8 -41h-744l-145 -682h866l-8 -41h-907zM442 -260l33 158h41l-33 -158h-41z" />
<glyph unicode="&#x1eb9;" horiz-adv-x="1067" d="M451 -20q-92 0 -164 35.5t-121 97t-76 143.5t-27 174q0 121 47.5 237.5t130.5 208t195.5 147.5t245.5 56q51 0 107.5 -18.5t101.5 -53t74.5 -87t29.5 -121.5q0 -291 -536 -291q-78 0 -160 2t-186 8q-6 -43 -7 -86q0 -84 23 -158.5t68 -131t112.5 -89.5t155.5 -33 q55 0 114.5 17.5t115 48.5t101.5 76t76 100l39 -12q-35 -61 -85 -111.5t-110.5 -85.5t-127.5 -54t-137 -19zM674 1038q-100 0 -190.5 -40t-163 -106.5t-125 -153.5t-74.5 -179q104 -6 185 -8t159 -2q135 0 228 18.5t150.5 52t83 79.5t25.5 102q0 61 -26.5 106t-67.5 75 t-90 43t-94 13zM371 -260l32 158h41l-32 -158h-41z" />
<glyph unicode="&#x1ebc;" d="M377 1454h889l-9 -41h-847l-140 -649h744l-8 -41h-744l-145 -682h866l-8 -41h-907zM979 1743q-43 0 -72.5 12t-54.5 26.5t-47.5 27t-52.5 12.5q-31 0 -53.5 -13.5t-37 -31t-21.5 -34t-9 -20.5h-39q0 4 9 27t28.5 47.5t52.5 44t82 19.5q37 0 63.5 -12.5t50 -27t50 -26.5 t63.5 -12q39 0 65.5 14t42 31.5t21.5 33t6 19.5h39q-2 -6 -11 -28.5t-30.5 -47t-56.5 -43t-88 -18.5z" />
<glyph unicode="&#x1ebd;" horiz-adv-x="1067" d="M451 -20q-92 0 -164 35.5t-121 97t-76 143.5t-27 174q0 121 47.5 237.5t130.5 208t195.5 147.5t245.5 56q51 0 107.5 -18.5t101.5 -53t74.5 -87t29.5 -121.5q0 -291 -536 -291q-78 0 -160 2t-186 8q-6 -43 -7 -86q0 -84 23 -158.5t68 -131t112.5 -89.5t155.5 -33 q55 0 114.5 17.5t115 48.5t101.5 76t76 100l39 -12q-35 -61 -85 -111.5t-110.5 -85.5t-127.5 -54t-137 -19zM674 1038q-100 0 -190.5 -40t-163 -106.5t-125 -153.5t-74.5 -179q104 -6 185 -8t159 -2q135 0 228 18.5t150.5 52t83 79.5t25.5 102q0 61 -26.5 106t-67.5 75 t-90 43t-94 13zM850 1358q-43 0 -72.5 12t-54.5 26.5t-47.5 27t-52.5 12.5q-31 0 -53.5 -13.5t-37 -31t-21.5 -34t-9 -20.5h-39q0 4 9 26.5t28.5 47.5t52.5 44.5t82 19.5q37 0 63.5 -12.5t50 -27t50 -26.5t63.5 -12q39 0 65.5 14t42 31.5t21.5 33t6 19.5h39q-2 -6 -11 -28.5 t-30.5 -47t-56.5 -43t-88 -18.5z" />
<glyph unicode="&#x1eca;" horiz-adv-x="438" d="M377 1452h41l-309 -1452h-41zM12 -260l33 158h41l-33 -158h-41z" />
<glyph unicode="&#x1ecb;" horiz-adv-x="372" d="M260 1063h41l-225 -1063h-41zM352 1495h41l-33 -158h-41zM-20 -260l32 158h41l-33 -158h-40z" />
<glyph unicode="&#x1ecc;" horiz-adv-x="1486" d="M610 -10q-121 0 -215 49t-158.5 132t-97.5 191.5t-33 225.5q0 168 70 325.5t184.5 280.5t261 196.5t302.5 73.5q121 0 215 -51t158.5 -135t97 -192.5t32.5 -223.5q0 -166 -69.5 -323.5t-184 -279.5t-261 -195.5t-302.5 -73.5zM621 31q154 0 293 73.5t243.5 192.5 t166.5 266.5t62 294.5q0 113 -32.5 215.5t-94 180t-148.5 123.5t-196 46q-154 0 -293 -73.5t-244.5 -192.5t-168 -266.5t-62.5 -296.5q0 -113 32 -215.5t93.5 -179t149.5 -122.5t199 -46zM537 -260l32 158h41l-32 -158h-41z" />
<glyph unicode="&#x1ecd;" horiz-adv-x="1148" d="M440 -20q-86 0 -155.5 34.5t-119.5 95t-77 141.5t-27 173q0 129 53.5 248t140.5 210t196.5 144t222.5 53q84 0 153.5 -34.5t118.5 -96t77 -143.5t28 -174q0 -127 -53.5 -245t-139.5 -208t-195.5 -144t-222.5 -54zM446 20q102 0 204 50.5t181.5 133.5t129 192.5 t49.5 228.5q0 86 -26 160.5t-71 131t-108.5 89t-138.5 32.5q-102 0 -203 -50t-180.5 -135t-130 -195.5t-50.5 -229.5q0 -84 25 -158.5t71 -130t108 -87.5t140 -32zM367 -260l32 158h41l-32 -158h-41z" />
<glyph unicode="&#x1ee4;" horiz-adv-x="1482" d="M610 -10q-125 0 -209 36.5t-135 101.5t-73.5 151t-22.5 184q0 63 8 129.5t23 134.5l153 727h41l-153 -727q-14 -66 -22.5 -131.5t-8.5 -126.5q0 -92 20.5 -172t67.5 -139.5t125 -93t192 -33.5q156 0 270.5 61.5t195.5 159.5t131.5 223t76.5 252l154 727h41l-154 -727 q-31 -145 -88 -278.5t-144 -234.5t-208 -162.5t-281 -61.5zM537 -260l32 158h41l-32 -158h-41z" />
<glyph unicode="&#x1ee5;" horiz-adv-x="1128" d="M342 -20q-246 0 -246 284q0 88 25 203l127 596h41l-127 -596q-25 -115 -25 -199q0 -248 215 -248q74 0 148.5 28t143.5 76t127 115.5t97 147.5l144 676h41l-197 -926q-4 -23 -9 -43t-5 -24q0 -29 26 -29l-10 -41q-12 0 -24 4q-31 12 -31 55q0 2 1 8.5t4 27t11 61.5 t25 114q-47 -68 -105.5 -121t-124 -91t-135 -58t-137.5 -20zM336 -260l33 158h41l-33 -158h-41z" />
<glyph unicode="&#x1ef2;" horiz-adv-x="1216" d="M567 567l-368 887h47l352 -844l713 844h47l-750 -891l-121 -563h-41zM721 1880h65l95 -149l-37 -25z" />
<glyph unicode="&#x1ef3;" horiz-adv-x="942" d="M-76 -424q61 12 105.5 32.5t81 54.5t72.5 85t83 123l84 129l-244 1063h46l229 -1012l119 189q96 154 162.5 266t112.5 205.5t78 176.5t58 175h43q-29 -98 -59.5 -183t-77.5 -179.5t-115.5 -211t-171.5 -278.5l-168 -264q-74 -115 -126 -189.5t-100 -119t-96 -66 t-112 -31.5zM504 1495h65l95 -149l-37 -25z" />
<glyph unicode="&#x1ef8;" horiz-adv-x="1216" d="M567 567l-368 887h47l352 -844l713 844h47l-750 -891l-121 -563h-41zM920 1743q-43 0 -73 12t-54.5 26.5t-47 27t-53.5 12.5t-53.5 -13.5t-36.5 -31t-21.5 -34t-9.5 -20.5h-39q0 4 9.5 27t29 47.5t52 44t82.5 19.5q37 0 63.5 -12.5t50 -27t50 -26.5t63.5 -12 q39 0 65.5 14t42 31.5t21.5 33t6 19.5h39q-2 -6 -11.5 -28.5t-31 -47t-56 -43t-87.5 -18.5z" />
<glyph unicode="&#x1ef9;" horiz-adv-x="942" d="M-76 -424q61 12 105.5 32.5t81 54.5t72.5 85t83 123l84 129l-244 1063h46l229 -1012l119 189q96 154 162.5 266t112.5 205.5t78 176.5t58 175h43q-29 -98 -59.5 -183t-77.5 -179.5t-115.5 -211t-171.5 -278.5l-168 -264q-74 -115 -126 -189.5t-100 -119t-96 -66 t-112 -31.5zM717 1358q-43 0 -73 12t-54.5 26.5t-47 27t-53.5 12.5t-53 -13.5t-36.5 -31t-21.5 -34t-9 -20.5h-39q0 4 9 26.5t28.5 47.5t52.5 44.5t82 19.5q37 0 63.5 -12.5t50 -27t50 -26.5t63.5 -12q39 0 65.5 14t42 31.5t21.5 33t6 19.5h39q-2 -6 -11 -28.5t-30.5 -47 t-56.5 -43t-88 -18.5z" />
<glyph unicode="&#x2000;" horiz-adv-x="962" />
<glyph unicode="&#x2001;" horiz-adv-x="1925" />
<glyph unicode="&#x2002;" horiz-adv-x="1095" />
<glyph unicode="&#x2003;" horiz-adv-x="1763" />
<glyph unicode="&#x2004;" horiz-adv-x="641" />
<glyph unicode="&#x2005;" horiz-adv-x="481" />
<glyph unicode="&#x2006;" horiz-adv-x="320" />
<glyph unicode="&#x2007;" horiz-adv-x="320" />
<glyph unicode="&#x2008;" horiz-adv-x="240" />
<glyph unicode="&#x2009;" horiz-adv-x="385" />
<glyph unicode="&#x200a;" horiz-adv-x="106" />
<glyph unicode="&#x2010;" horiz-adv-x="827" d="M121 535l8 40h551l-8 -40h-551z" />
<glyph unicode="&#x2011;" horiz-adv-x="827" d="M121 535l8 40h551l-8 -40h-551z" />
<glyph unicode="&#x2012;" horiz-adv-x="827" d="M121 535l8 40h551l-8 -40h-551z" />
<glyph unicode="&#x2013;" horiz-adv-x="1062" d="M121 535l8 40h786l-8 -40h-786z" />
<glyph unicode="&#x2014;" horiz-adv-x="1716" d="M121 535l8 40h1440l-8 -40h-1440z" />
<glyph unicode="&#x2018;" horiz-adv-x="331" d="M375 1495l-58 -176h19l-31 -152h-53l33 152l63 176h27z" />
<glyph unicode="&#x2019;" horiz-adv-x="325" d="M254 1167l57 176h-18l31 152h53l-33 -152l-63 -176h-27z" />
<glyph unicode="&#x201a;" horiz-adv-x="526" d="M68 -156l53 156h-19l33 152h51l-32 -152l-58 -156h-28z" />
<glyph unicode="&#x201c;" horiz-adv-x="487" d="M375 1495l-58 -176h19l-31 -152h-53l33 152l63 176h27zM530 1495l-57 -176h19l-31 -152h-53l32 152l64 176h26z" />
<glyph unicode="&#x201d;" horiz-adv-x="481" d="M254 1167l57 176h-18l31 152h53l-33 -152l-63 -176h-27zM410 1167l57 176h-18l30 152h53l-32 -152l-64 -176h-26z" />
<glyph unicode="&#x201e;" horiz-adv-x="665" d="M68 -156l53 156h-19l33 152h51l-32 -152l-58 -156h-28zM207 -156l51 156h-18l32 152h54l-33 -152l-60 -156h-26z" />
<glyph unicode="&#x2020;" horiz-adv-x="733" d="M160 -266l170 801h-256l8 40h258l215 1012h41l-215 -1012h254l-8 -40h-256l-170 -801h-41z" />
<glyph unicode="&#x2021;" horiz-adv-x="749" d="M168 -266l143 678h-256l8 41h259l47 225h-256l8 41h256l184 868h41l-184 -868h256l-10 -41h-254l-48 -225h254l-8 -41h-256l-143 -678h-41z" />
<glyph unicode="&#x2022;" horiz-adv-x="677" d="M512 731q0 -39 -16.5 -73.5t-42 -60.5t-60.5 -41t-71 -15q-53 0 -88 37.5t-35 95.5q0 37 16 71.5t44 60t62.5 41t69.5 15.5q55 0 88 -39t33 -92z" />
<glyph unicode="&#x2026;" horiz-adv-x="700" d="M16 0l29 131h39l-27 -131h-41zM203 0l28 131h39l-26 -131h-41zM389 0l29 131h41l-29 -131h-41z" />
<glyph unicode="&#x202f;" horiz-adv-x="385" />
<glyph unicode="&#x2030;" horiz-adv-x="1945" d="M446 909q-100 0 -159.5 65.5t-59.5 164.5q0 68 29 128t76 106t106.5 74t120.5 28q100 0 159.5 -66t59.5 -164q0 -68 -28.5 -129t-75.5 -107t-107 -73t-121 -27zM455 950q53 0 103 23.5t90 63.5t64.5 92.5t24.5 107.5q0 84 -53 140.5t-135 56.5q-53 0 -103.5 -25 t-89.5 -64.5t-63.5 -92t-24.5 -107.5q0 -82 51.5 -138.5t135.5 -56.5zM831 -20q-100 0 -159.5 65.5t-59.5 163.5q0 68 29 128t76 106t106.5 74t120.5 28q100 0 159.5 -66.5t59.5 -165.5q0 -68 -28.5 -128t-75.5 -106t-107 -72.5t-121 -26.5zM840 20q53 0 103 24t90 63.5 t64.5 92t24.5 107.5q0 82 -51 139.5t-135 57.5q-53 0 -103.5 -24.5t-90.5 -64.5t-64.5 -92.5t-24.5 -107.5q0 -82 50.5 -138.5t136.5 -56.5zM1477 -20q-98 0 -159 65.5t-61 163.5q0 68 29 128t76 106t106.5 74t120.5 28q100 0 159.5 -66.5t59.5 -165.5q0 -68 -28.5 -128 t-75.5 -106t-106.5 -72.5t-120.5 -26.5zM1485 20q53 0 103 24t90 63.5t64.5 91t24.5 106.5q0 84 -52 141.5t-136 57.5q-53 0 -103.5 -24.5t-89 -64.5t-63.5 -92.5t-25 -107.5q0 -82 50.5 -138.5t136.5 -56.5zM-14 23l1390 1433l27 -24l-1391 -1434z" />
<glyph unicode="&#x2039;" horiz-adv-x="684" d="M74 549l534 346l-10 -45l-489 -320l354 -321l-10 -45l-387 348z" />
<glyph unicode="&#x203a;" horiz-adv-x="684" d="M575 512l-536 -348l10 45l492 321l-357 320l11 45l387 -346z" />
<glyph unicode="&#x2044;" horiz-adv-x="245" d="M-563 23l1390 1433l27 -24l-1391 -1434z" />
<glyph unicode="&#x205f;" horiz-adv-x="481" />
<glyph unicode="&#x2070;" horiz-adv-x="860" d="M483 864q-72 0 -123 29t-83.5 75t-48 104t-15.5 116q0 80 35 164t94 152.5t139 111.5t170 43q70 0 121 -30t84 -76t48.5 -103t15.5 -115q0 -82 -34 -166t-93.5 -151.5t-138.5 -110.5t-171 -43zM254 1192q0 -53 14.5 -105.5t44 -93.5t73.5 -65.5t106 -24.5q86 0 157.5 42 t121.5 106.5t79 138.5t29 139q0 53 -14.5 105.5t-44 93.5t-74 66.5t-103.5 25.5q-86 0 -157.5 -42t-123 -106.5t-80 -139t-28.5 -140.5z" />
<glyph unicode="&#x2074;" horiz-adv-x="722" d="M563 874l47 226h-452l8 35l575 524h29l-111 -520h107l-8 -39h-107l-49 -226h-39zM221 1139h397l97 448z" />
<glyph unicode="&#x2075;" horiz-adv-x="718" d="M516 1368q104 0 169 -56.5t65 -148.5q0 -66 -30 -121t-79 -95t-111.5 -61.5t-128.5 -21.5q-92 0 -154.5 43t-82.5 115l37 12q20 -59 75.5 -96t135.5 -37q59 0 112.5 19.5t94 53.5t65.5 80t25 99q0 43 -17.5 76t-46.5 55.5t-65.5 33.5t-77.5 11q-66 0 -128.5 -26.5 t-109.5 -73.5h-41q6 16 22.5 53t37 84t43 96t41 92t30 72t13.5 33h409l-8 -39h-377l-145 -332q49 41 108.5 60.5t118.5 19.5z" />
<glyph unicode="&#x2076;" horiz-adv-x="776" d="M815 1169q0 -63 -29.5 -119.5t-80 -99.5t-116 -67.5t-134.5 -24.5q-111 0 -178.5 65.5t-67.5 182.5q0 113 30.5 213t87 176t133.5 120t169 44q86 0 145.5 -42t71.5 -114l-35 -20q-10 61 -61.5 100t-126.5 39q-121 0 -217.5 -103.5t-137.5 -295.5q45 78 130 124t177 46 q106 0 173 -65t67 -159zM465 895q59 0 115.5 21.5t99.5 57.5t69.5 84t26.5 101q0 82 -60.5 140.5t-154.5 58.5q-59 0 -115.5 -21.5t-99.5 -58.5t-69.5 -85t-26.5 -101q0 -82 60.5 -139.5t154.5 -57.5z" />
<glyph unicode="&#x2077;" horiz-adv-x="638" d="M764 1620h-502l8 39h566l-607 -785h-45z" />
<glyph unicode="&#x2078;" horiz-adv-x="751" d="M770 1118q0 -57 -29.5 -103t-78 -79t-111 -51.5t-125.5 -18.5q-117 0 -180.5 57.5t-63.5 135.5q0 45 21.5 84t56.5 69.5t78 51t84 32.5q-53 18 -90 56.5t-37 91.5q0 51 27.5 91t71.5 67.5t97.5 42t106.5 14.5q43 0 83 -10.5t70.5 -31t49 -51t18.5 -69.5 q0 -37 -16.5 -68.5t-44 -57t-64.5 -44t-76 -31.5q66 -20 109 -66t43 -112zM729 1114q0 39 -18.5 68.5t-49 51t-68.5 33t-77 11.5q-49 0 -101.5 -15.5t-95.5 -44t-69.5 -68.5t-26.5 -87q0 -37 18.5 -66.5t49.5 -50t69.5 -32t77.5 -11.5q49 0 100.5 14.5t94.5 42t69.5 66.5 t26.5 88zM336 1446q0 -31 16.5 -56.5t43 -42t59 -25.5t67.5 -9q41 0 86 12t83 34.5t62.5 55.5t24.5 74q0 63 -57 98t-133 35q-47 0 -92 -12.5t-80 -36t-57.5 -56t-22.5 -71.5z" />
<glyph unicode="&#x2079;" horiz-adv-x="776" d="M233 1348q0 63 30 119.5t80 99.5t115.5 67.5t135.5 24.5q111 0 178.5 -65.5t67.5 -182.5q0 -113 -31 -213t-86 -176t-132 -120t-171 -44q-86 0 -145.5 42t-71.5 114l35 20q10 -63 61 -101t129 -38q119 0 215 103.5t137 293.5q-45 -76 -130 -123t-177 -47q-106 0 -173 66 t-67 160zM584 1622q-59 0 -114.5 -21.5t-98.5 -57.5t-70 -84t-27 -101q0 -84 59.5 -141.5t153.5 -57.5q59 0 115.5 21.5t99.5 58.5t70 85t27 101q0 39 -16.5 75t-45 63.5t-67.5 43t-86 15.5z" />
<glyph unicode="&#x2080;" horiz-adv-x="862" d="M264 -174q-72 0 -123 28.5t-83.5 74.5t-48 104.5t-15.5 116.5q0 80 34.5 163.5t94 152.5t139.5 112t170 43q70 0 121 -30t84 -76t48 -103.5t15 -114.5q0 -82 -33.5 -166t-93 -151.5t-138.5 -110.5t-171 -43zM35 154q0 -53 14 -105.5t44 -93.5t74 -65.5t105 -24.5 q86 0 158 42t122 106.5t78.5 138t28.5 139.5q0 53 -14 105.5t-44 93t-74 66.5t-103 26q-86 0 -157.5 -42t-123 -106.5t-80 -139t-28.5 -140.5z" />
<glyph unicode="&#x2081;" horiz-adv-x="491" d="M295 -125l-8 -39h-355l9 39h161l150 705q-12 -12 -38 -30t-55.5 -32t-60 -24.5t-55.5 -10.5l8 39q31 0 68 16.5t68.5 37t53 38t23.5 19.5h39l-160 -758h152z" />
<glyph unicode="&#x2082;" horiz-adv-x="724" d="M-82 -164q33 152 114 231.5t201 122.5q51 18 108.5 37t105 45.5t78 66.5t30.5 101q0 59 -43 105.5t-141 46.5q-53 0 -97.5 -13.5t-79 -32t-60 -40t-42.5 -37.5l-24 25q2 4 25.5 25.5t64.5 46t97 45t128 20.5q115 0 165 -54.5t50 -127.5q0 -74 -35 -122t-87 -79 t-110.5 -49.5t-107.5 -34.5q-82 -29 -134 -66t-83 -75.5t-44 -77.5t-20 -70h504l-8 -39h-555z" />
<glyph unicode="&#x2083;" horiz-adv-x="743" d="M201 -174q-39 0 -83 8t-81 29.5t-60.5 60.5t-23.5 99l35 14q0 -80 58 -126t163 -46q57 0 109.5 15.5t91.5 42t62.5 62t23.5 78.5q0 72 -69 113t-185 41h-43l8 37h43q143 0 222 47t79 137q0 70 -55.5 113t-147.5 43q-82 0 -151.5 -35t-104.5 -88l-24 25q41 61 119.5 98 t168.5 37q109 0 173.5 -53.5t64.5 -133.5q0 -78 -53.5 -132t-161.5 -76q74 -14 116 -60.5t42 -107.5q0 -53 -28 -97.5t-74 -76t-107 -50t-127 -18.5z" />
<glyph unicode="&#x2084;" horiz-adv-x="720" d="M342 -164l47 225h-452l8 35l575 525h29l-111 -521h107l-8 -39h-107l-49 -225h-39zM0 100h397l97 449z" />
<glyph unicode="&#x2085;" horiz-adv-x="716" d="M295 330q104 0 168.5 -56.5t64.5 -148.5q0 -66 -29.5 -121t-78.5 -95t-111.5 -61.5t-128.5 -21.5q-92 0 -154.5 43t-82.5 115l37 12q20 -59 75.5 -96t134.5 -37q59 0 112.5 19.5t94.5 53t65.5 79.5t24.5 100q0 43 -17 75.5t-46 55t-65.5 34t-77.5 11.5 q-66 0 -128.5 -26.5t-109.5 -74.5h-41q8 16 23.5 53.5t36 84.5t43 96t41 92t29.5 71.5t13 33.5h410l-8 -39h-377l-145 -332q49 41 108.5 60.5t118.5 19.5z" />
<glyph unicode="&#x2086;" horiz-adv-x="776" d="M596 137q0 -63 -29.5 -119.5t-80 -99.5t-116 -67.5t-134.5 -24.5q-111 0 -178.5 65.5t-67.5 182.5q0 113 30.5 213t87 176t133 120t169.5 44q86 0 145 -42t72 -114l-35 -20q-10 61 -61.5 100t-127.5 39q-121 0 -217 -103.5t-137 -296.5q45 78 130 124t177 46 q106 0 173 -64.5t67 -158.5zM246 -137q59 0 115.5 21.5t99.5 57t69.5 84t26.5 101.5q0 82 -60.5 140.5t-154.5 58.5q-59 0 -115.5 -21.5t-99.5 -58.5t-69.5 -85t-26.5 -102q0 -82 60.5 -139t154.5 -57z" />
<glyph unicode="&#x2087;" horiz-adv-x="641" d="M543 582h-502l8 39h565l-606 -785h-45z" />
<glyph unicode="&#x2088;" horiz-adv-x="749" d="M547 80q0 -57 -30 -103.5t-77 -79t-109.5 -51t-125.5 -18.5q-117 0 -180.5 57.5t-63.5 134.5q0 45 21.5 84t55.5 70t77 51.5t84 32.5q-53 18 -89 56t-36 92q0 51 27.5 91t71.5 67.5t97.5 42t106.5 14.5q43 0 83 -10.5t70.5 -31t49 -51t18.5 -69.5q0 -37 -17.5 -69 t-45 -57.5t-64.5 -44t-76 -30.5q68 -20 110 -66t42 -112zM508 76q0 39 -18.5 68.5t-49 51t-69.5 33t-78 11.5q-49 0 -100.5 -15.5t-94.5 -44t-69.5 -68.5t-26.5 -87q0 -37 18.5 -67t49 -50.5t69.5 -31.5t78 -11q49 0 100.5 14.5t94.5 42t69.5 66.5t26.5 88zM115 408 q0 -31 16 -56.5t43 -42t59.5 -26t67.5 -9.5q41 0 86 12.5t83 35t62.5 55.5t24.5 74q0 63 -57.5 98t-132.5 35q-47 0 -92.5 -12.5t-80 -36t-57 -56t-22.5 -71.5z" />
<glyph unicode="&#x2089;" horiz-adv-x="778" d="M14 315q0 63 31 120t81 100t115.5 67.5t135.5 24.5q111 0 178.5 -65.5t67.5 -182.5q0 -113 -31 -213t-86 -176t-132 -120t-171 -44q-88 0 -146.5 42t-70.5 114l34 20q10 -63 61.5 -101t127.5 -38q121 0 217 103.5t137 293.5q-45 -76 -130 -123t-177 -47 q-109 0 -175.5 65.5t-66.5 159.5zM367 590q-59 0 -114.5 -21.5t-98.5 -57.5t-70 -84t-27 -101q0 -41 16.5 -78t44 -63.5t66.5 -42t86 -15.5q59 0 115.5 21.5t99.5 58.5t70 85t27 101q0 39 -16.5 75t-45 63.5t-67.5 43t-86 15.5z" />
<glyph unicode="&#x20a1;" horiz-adv-x="1052" d="M326 0q-61 20 -109.5 61t-83.5 98.5t-53.5 126t-18.5 144.5q0 115 39 219.5t106.5 188.5t157 142t189.5 83l55 258h39l-53 -250q18 4 39.5 6t44.5 2q14 0 26.5 -1t24.5 -3l53 246h41l-53 -252q92 -20 153.5 -77.5t84.5 -149.5l-45 -15q-29 98 -109 154.5t-190 56.5 q-106 0 -208 -48t-179.5 -130t-126 -191.5t-48.5 -230.5q0 -86 26 -162.5t71 -133t108.5 -89.5t141.5 -33q59 0 121.5 18.5t117.5 49.5t99 72t65 84l39 -13q-25 -45 -61.5 -83.5t-83 -70.5t-98.5 -54.5t-107 -32.5l-52 -236h-38l47 230q-12 -2 -25.5 -3t-26.5 -1 q-23 0 -42 3t-39 7l-52 -236h-39z" />
<glyph unicode="&#x20a3;" horiz-adv-x="1218" d="M111 0l65 309h-182l8 41h182l236 1104h889l-9 -41h-847l-138 -647h723l-8 -41h-725l-80 -375h328l-8 -41h-328l-65 -309h-41z" />
<glyph unicode="&#x20a4;" horiz-adv-x="897" d="M121 750h211q-23 84 -50.5 158.5t-27.5 156.5q0 80 35 152.5t90 127t127 87t145 32.5q98 0 170 -58t101 -157l-39 -24q-29 92 -93.5 145t-150.5 53q-63 0 -123.5 -27.5t-109 -75.5t-78 -111.5t-29.5 -133.5q0 -82 28.5 -159.5t51.5 -165.5h340l-10 -41h-322q6 -29 10 -61 t4 -73h318l-8 -40h-312q-4 -53 -18 -103.5t-51 -107t-101.5 -126t-165.5 -161.5q33 6 70 10t72 4q45 0 79.5 -6t66.5 -14t63.5 -14.5t68.5 -6.5q41 0 88 10.5t113 32.5l4 -39q-115 -45 -215 -45q-43 0 -78 6.5t-67.5 14.5t-67.5 14t-78 6q-41 0 -93 -7t-95 -17l-12 34 q115 104 186.5 176t112.5 127.5t56 104.5t19 107h-198l8 40h192q0 37 -4 70t-12 64h-229z" />
<glyph unicode="&#x20a6;" horiz-adv-x="1597" d="M1552 770h-159l-31 -143h160l-9 -41h-159l-123 -586h-47l-318 586h-596l-125 -586h-41l125 586h-157l8 41h158l30 143h-157l8 41h157l138 643h30l349 -643h567l137 641h41l-137 -641h160zM317 811h426l-305 563zM1202 59l111 527h-398zM279 627h565l-78 143h-457z M893 627h428l31 143h-537z" />
<glyph unicode="&#x20a9;" horiz-adv-x="2088" d="M113 756h270l-29 143h-211l9 41h194l-102 514h45l102 -514h656l-103 502h45l107 -545l340 545h45l-316 -502h658l321 514h45l-321 -514h194l-10 -41h-211l-88 -143h268l-8 -41h-287l-446 -715h-45l-158 797l-497 -797h-45l-144 715h-287zM1268 51l413 664h-546zM567 51 l414 664h-545zM1126 756h582l88 143h-657l-31 -51zM1055 899h-656l29 -143h580l57 92z" />
<glyph unicode="&#x20ac;" horiz-adv-x="1589" d="M332 821q37 123 110.5 239t176 205t230.5 143t273 54q92 0 166 -23.5t128 -65.5t90 -100.5t53 -127.5l-41 -12q-23 80 -66 135t-97.5 89t-119 49t-129.5 15q-135 0 -253 -50t-213 -133t-163.5 -191.5t-103.5 -225.5h772l-29 -41h-754q-10 -37 -15 -72.5t-7 -70.5h688 l-29 -41h-659q0 -115 34 -218.5t96 -181t149.5 -122.5t195.5 -45q68 0 143.5 18.5t150.5 55t145.5 95t127.5 138.5l35 -10q-53 -82 -126.5 -145.5t-156.5 -106.5t-169 -64.5t-166 -21.5q-119 0 -212 51t-156.5 135t-97.5 194.5t-34 227.5h-238l29 41h209q2 35 7 70.5 t16 72.5h-144l29 41h125z" />
<glyph unicode="&#x20b9;" horiz-adv-x="806" d="M848 1229h-178q23 -68 22 -137q0 -94 -37 -184.5t-99 -163t-145 -119.5t-175 -54l229 -571h-49l-246 612h51q90 0 168 43t136.5 111t91 151.5t32.5 167.5q0 39 -7 74t-19 70h-410l8 41h383q-33 61 -88 102t-127 41h-137l8 41h635l-8 -41h-355q82 -49 123 -143h201z" />
<glyph unicode="&#x2113;" horiz-adv-x="632" d="M328 -10q-78 0 -122 46t-44 142v1071q0 57 12 105.5t32.5 84.5t49.5 56.5t63 20.5q70 0 113 -74t43 -193q0 -80 -22.5 -166t-60.5 -169t-87 -159.5t-102 -133.5v-465q0 -59 36.5 -94t100.5 -35q27 0 58.5 9t62.5 21l14 -32q-35 -16 -72.5 -25.5t-74.5 -9.5zM432 1237 q0 115 -28.5 176.5t-81.5 61.5t-86 -62.5t-33 -163.5v-573q45 55 87 128t73.5 149.5t50 150.5t18.5 133z" />
<glyph unicode="&#x2116;" horiz-adv-x="2158" d="M401 1374l-292 -1374h-41l309 1454h31l757 -1395l295 1393h41l-309 -1452h-45zM1786 731q-61 0 -112.5 23.5t-86.5 64.5t-54.5 95.5t-19.5 115.5q0 86 36 164t96.5 138.5t137.5 96t159 35.5q61 0 112 -23.5t87 -64.5t55.5 -96t19.5 -117q0 -84 -36 -162.5t-96.5 -138 t-138 -95.5t-159.5 -36zM1559 1034q0 -55 17 -103t48 -84t74 -56.5t96 -20.5q70 0 137.5 32t120.5 85t86 122.5t33 147.5q0 55 -17.5 104.5t-48 85t-74.5 56t-98 20.5q-70 0 -136 -31.5t-119.5 -85t-86 -124t-32.5 -148.5z" />
<glyph unicode="&#x2120;" horiz-adv-x="1290" d="M1274 1454h45l-121 -567h-39l105 489l-277 -403h-35l-104 403l-103 -489h-40l120 567h43l113 -428zM616 1360q-18 37 -46.5 50t-69.5 13q-96 0 -138.5 -37.5t-42.5 -97.5q0 -23 13.5 -38t35 -25.5t49 -19.5t56.5 -17q53 -16 97 -44t44 -85q0 -86 -62.5 -132t-166.5 -46 q-127 0 -192 90l28 35q31 -47 72 -66.5t102 -19.5q80 0 129 31.5t49 97.5q0 45 -38.5 65.5t-88.5 36.5q-31 8 -60.5 18.5t-53 24.5t-38.5 34.5t-15 51.5q0 86 63.5 135t165.5 49q51 0 87 -15t60 -54z" />
<glyph unicode="&#x2122;" horiz-adv-x="1271" d="M692 1417h-184l-113 -530h-41l113 530h-184l8 41h409zM791 1454h43l110 -428l295 428h45l-121 -567h-39l103 489l-275 -403h-34l-105 403l-104 -489h-39z" />
<glyph unicode="&#x2126;" horiz-adv-x="1677" d="M129 43h449q-102 45 -184.5 119t-138.5 166t-86 199.5t-30 220.5q0 141 51.5 271t141.5 228.5t214 157.5t271 59t271 -59t214.5 -157.5t141.5 -228.5t51 -271q0 -113 -29.5 -220.5t-86 -199.5t-138.5 -166t-184 -119h448v-43h-592v43q131 27 232.5 98.5t169 170 t102.5 212t35 224.5q0 125 -44 245.5t-126 215t-199.5 152.5t-265.5 58q-147 0 -265 -58t-200 -152.5t-126 -215.5t-44 -245q0 -111 35 -224.5t102.5 -212t168 -170t233.5 -98.5v-43h-592v43z" />
<glyph unicode="&#x212e;" horiz-adv-x="1265" d="M627 20q141 0 247.5 45.5t165.5 114.5l27 -30q-72 -72 -179.5 -121t-260.5 -49q-121 0 -220.5 45t-170 120.5t-109.5 176t-39 210.5q0 113 40 213.5t110.5 176t170 120.5t218.5 45t219 -45t170.5 -121.5t110.5 -179t40 -219.5h-931v-307q68 -90 169 -142.5t222 -52.5z M627 1047q-121 0 -222.5 -53.5t-168.5 -145.5v-285h786v283q-70 92 -174 146.5t-221 54.5z" />
<glyph unicode="&#x2153;" horiz-adv-x="1540" d="M23 23l1390 1433l27 -24l-1391 -1434zM500 739l-8 -39h-353l8 39h162l150 705q-12 -12 -38 -29.5t-55.5 -32t-60.5 -24.5t-55 -10l8 38q31 0 67.5 16.5t67.5 37t52.5 38t23.5 19.5h41l-162 -758h152zM1042 -10q-39 0 -83 11t-80.5 34.5t-60 60.5t-23.5 90l34 15 q0 -72 58.5 -122t163.5 -50q57 0 109 15t91 42t62.5 62.5t23.5 78.5q0 72 -67.5 113t-186.5 41h-43l9 37h43q141 0 221 47t80 137q0 70 -55.5 113t-147.5 43q-82 0 -151.5 -35t-104.5 -88l-25 24q41 61 120 98.5t169 37.5q109 0 173.5 -53.5t64.5 -133.5q0 -78 -53.5 -132 t-161.5 -77q74 -14 115.5 -60t41.5 -108q0 -53 -27.5 -97t-73.5 -75.5t-107.5 -50t-127.5 -18.5z" />
<glyph unicode="&#x2154;" horiz-adv-x="1574" d="M129 23l1391 1433l26 -24l-1390 -1434zM1069 -10q-39 0 -83 11t-81 34.5t-60.5 60.5t-23.5 90l35 15q0 -72 58.5 -122t162.5 -50q57 0 109.5 15t91.5 42t62.5 62.5t23.5 78.5q0 72 -67.5 113t-186.5 41h-43l8 37h43q141 0 221 47t80 137q0 70 -55 113t-147 43 q-82 0 -152 -35t-104 -88l-25 24q41 61 120 98.5t169 37.5q109 0 173 -53.5t64 -133.5q0 -78 -53 -132t-162 -77q74 -14 116 -60t42 -108q0 -53 -27.5 -97t-74 -75.5t-107.5 -50t-127 -18.5zM111 702q33 152 113.5 232t201.5 123q51 18 108.5 36.5t104.5 45t78 66.5t31 102 q0 59 -43 105t-142 46q-53 0 -97 -13t-79 -31.5t-60.5 -40t-41.5 -38.5l-25 25q2 4 25.5 25.5t64.5 46t97.5 45t127.5 20.5q115 0 165.5 -54t50.5 -128t-35 -122t-87.5 -79t-110.5 -49t-107 -35q-82 -29 -134.5 -65.5t-83 -75.5t-44 -78t-19.5 -70h504l-8 -39h-555z" />
<glyph unicode="&#x215b;" horiz-adv-x="1540" d="M43 23l1391 1433l26 -24l-1390 -1434zM496 739l-9 -39h-352l8 39h162l150 705q-12 -12 -38 -29.5t-55.5 -32t-60.5 -24.5t-55 -10l8 38q31 0 67.5 16.5t67.5 37t52.5 38t23.5 19.5h41l-162 -758h152zM1038 -8q-117 0 -180 57t-63 135q0 45 21.5 84t55 70t76.5 51.5 t84 32.5q-53 18 -89 56t-36 91q0 51 28 91t72 68t97 42t106 14q43 0 83 -10t71 -30.5t49.5 -51t18.5 -69.5q0 -37 -17.5 -69t-45.5 -57.5t-64.5 -44t-75.5 -30.5q68 -20 109.5 -66.5t41.5 -111.5q0 -57 -29.5 -103.5t-76.5 -79t-110 -51t-126 -18.5zM1051 29q49 0 100 14 t94 42t69.5 66.5t26.5 88.5q0 39 -18 68.5t-49 51t-70 32.5t-78 11q-49 0 -100 -15t-94 -44t-69.5 -68.5t-26.5 -87.5q0 -37 18 -66.5t49 -50t70 -31.5t78 -11zM1135 438q41 0 86 12.5t82.5 35t62.5 55t25 73.5q0 63 -57.5 98.5t-133.5 35.5q-47 0 -92 -12.5t-80 -36 t-57.5 -56.5t-22.5 -72q0 -31 16.5 -56.5t43 -41.5t59.5 -25.5t68 -9.5z" />
<glyph unicode="&#x215c;" horiz-adv-x="1550" d="M86 23l1391 1433l26 -24l-1390 -1434zM1044 -8q-117 0 -180 57t-63 135q0 45 21.5 84t55 70t76.5 51.5t84 32.5q-53 18 -89 56t-36 91q0 51 28 91t72 68t97 42t107 14q43 0 82.5 -10t70.5 -30.5t49.5 -51t18.5 -69.5q0 -37 -17.5 -69t-45 -57.5t-64.5 -44t-76 -30.5 q68 -20 109.5 -66.5t41.5 -111.5q0 -57 -29.5 -103.5t-76.5 -79t-110 -51t-126 -18.5zM1057 29q49 0 100 14t94 42t70 66.5t27 88.5q0 39 -18.5 68.5t-49.5 51t-70 32.5t-77 11q-49 0 -100.5 -15t-94.5 -44t-69.5 -68.5t-26.5 -87.5q0 -37 18.5 -66.5t49 -50t69.5 -31.5 t78 -11zM1141 438q41 0 86 12.5t83 35t62.5 55t24.5 73.5q0 63 -57.5 98.5t-133.5 35.5q-47 0 -92 -12.5t-80 -36t-57.5 -56.5t-22.5 -72q0 -31 16.5 -56.5t43 -41.5t59.5 -25.5t68 -9.5zM393 692q-39 0 -83 11.5t-80.5 35t-60.5 60.5t-24 90l35 14q0 -72 58.5 -122 t162.5 -50q57 0 109.5 15.5t91.5 42t62.5 62.5t23.5 79q0 72 -68.5 112.5t-185.5 40.5h-43l8 37h43q143 0 222 47t79 138q0 70 -55 112.5t-147 42.5q-82 0 -152 -34.5t-104 -88.5l-25 25q41 61 120 98t169 37q109 0 173 -53t64 -133q0 -78 -53 -132.5t-162 -76.5 q74 -14 116 -60.5t42 -107.5q0 -53 -27.5 -97t-73.5 -76t-107.5 -50.5t-127.5 -18.5z" />
<glyph unicode="&#x215d;" horiz-adv-x="1546" d="M70 23l1390 1433l27 -24l-1391 -1434zM1042 -8q-117 0 -180 57t-63 135q0 45 21.5 84t55 70t76.5 51.5t84 32.5q-53 18 -89 56t-36 91q0 51 28 91t72 68t97 42t106 14q43 0 83 -10t71 -30.5t49.5 -51t18.5 -69.5q0 -37 -17.5 -69t-45 -57.5t-64.5 -44t-76 -30.5 q68 -20 109.5 -66.5t41.5 -111.5q0 -57 -29.5 -103.5t-76.5 -79t-110 -51t-126 -18.5zM1055 29q49 0 100 14t94 42t70 66.5t27 88.5q0 39 -18.5 68.5t-49.5 51t-70 32.5t-78 11q-49 0 -100 -15t-94 -44t-69.5 -68.5t-26.5 -87.5q0 -37 18.5 -66.5t49 -50t69.5 -31.5t78 -11z M1139 438q41 0 86 12.5t83 35t62.5 55t24.5 73.5q0 63 -57.5 98.5t-133.5 35.5q-47 0 -92 -12.5t-80 -36t-57.5 -56.5t-22.5 -72q0 -31 16.5 -56.5t43 -41.5t59.5 -25.5t68 -9.5zM485 1204q104 0 169 -56t65 -149q0 -66 -30 -121t-79 -95t-111.5 -61.5t-127.5 -21.5 q-92 0 -154.5 43t-83.5 115l37 12q20 -59 75.5 -96t135.5 -37q59 0 112.5 19.5t94.5 53.5t65.5 80t24.5 99q0 43 -17.5 76t-46 55.5t-65.5 33.5t-78 11q-66 0 -128 -26.5t-110 -73.5h-40q6 16 22 53t36.5 84t43 96.5t41 92.5t30 71.5t13.5 32.5h409l-8 -39h-377l-145 -332 q49 41 108.5 60.5t118.5 19.5z" />
<glyph unicode="&#x215e;" horiz-adv-x="1542" d="M-35 23l1391 1433l26 -24l-1390 -1434zM1042 -8q-117 0 -180 57t-63 135q0 45 21.5 84t55 70t76.5 51.5t84 32.5q-53 18 -89 56t-36 91q0 51 28 91t72 68t97 42t106 14q43 0 83 -10t71 -30.5t49.5 -51t18.5 -69.5q0 -37 -17.5 -69t-45 -57.5t-64.5 -44t-76 -30.5 q68 -20 109.5 -66.5t41.5 -111.5q0 -57 -29.5 -103.5t-76.5 -79t-110 -51t-126 -18.5zM1055 29q49 0 100 14t94 42t70 66.5t27 88.5q0 39 -18.5 68.5t-49.5 51t-70 32.5t-78 11q-49 0 -100 -15t-94 -44t-69.5 -68.5t-26.5 -87.5q0 -37 18.5 -66.5t49 -50t69.5 -31.5t78 -11z M1139 438q41 0 86 12.5t83 35t62.5 55t24.5 73.5q0 63 -57.5 98.5t-133.5 35.5q-47 0 -92 -12.5t-80 -36t-57.5 -56.5t-22.5 -72q0 -31 16.5 -56.5t43 -41.5t59.5 -25.5t68 -9.5zM766 1456h-502l8 39h566l-607 -784h-45z" />
<glyph unicode="&#x2202;" horiz-adv-x="1167" d="M522 -20q-98 0 -180 32.5t-142.5 89t-93 133t-32.5 164.5q0 98 41 186.5t109.5 156t160.5 107.5t197 40q76 0 146.5 -23.5t126.5 -69.5t95 -113t56 -155q6 27 10 66t7 84t5 89t2 81q0 160 -29.5 270.5t-83 178t-129 97t-167.5 29.5q-121 0 -218.5 -41t-150.5 -104l-27 25 q68 84 173.5 122.5t222.5 38.5q223 0 336.5 -151.5t113.5 -495.5q0 -207 -40 -363.5t-112.5 -262t-173 -158.5t-223.5 -53zM518 23q113 0 199 45t142 113.5t85 148.5t29 149q0 74 -31 140.5t-84 116.5t-124.5 81t-155.5 31q-92 0 -175.5 -36t-148 -97.5t-102 -143.5 t-37.5 -172q0 -78 29.5 -146.5t83 -119.5t127 -80.5t163.5 -29.5z" />
<glyph unicode="&#x2206;" horiz-adv-x="1314" d="M1204 41v-41h-1227v41l596 1413h37zM1159 41l-567 1354l-569 -1354h1136z" />
<glyph unicode="&#x220f;" horiz-adv-x="1363" d="M1073 1413h-698v-1597h-41v1597h-184v41h1128v-41h-164v-1597h-41v1597z" />
<glyph unicode="&#x2211;" horiz-adv-x="1150" d="M987 1413h-774v-8l473 -649l-473 -697v-8h805v-51h-860v47l477 713l-471 649v45h823v-41z" />
<glyph unicode="&#x2212;" horiz-adv-x="1122" d="M135 535v40h826v-40h-826z" />
<glyph unicode="&#x2215;" horiz-adv-x="1110" d="M-129 23l1391 1433l26 -24l-1390 -1434z" />
<glyph unicode="&#x2219;" horiz-adv-x="317" d="M115 512l37 170h38l-34 -170h-41z" />
<glyph unicode="&#x221a;" horiz-adv-x="770" d="M49 748h199l190 -693l271 1563h43l-279 -1618h-63l-199 707h-162v41z" />
<glyph unicode="&#x221e;" horiz-adv-x="1437" d="M430 1059q61 0 108.5 -22.5t83 -59.5t63.5 -86t52 -103q25 53 52.5 102.5t63.5 86.5t83 59.5t108 22.5q70 0 126.5 -26.5t96.5 -73t61.5 -109t21.5 -131.5q0 -70 -23.5 -131.5t-64.5 -107.5t-97.5 -72.5t-122.5 -26.5q-59 0 -105 22.5t-82 60.5t-63.5 87t-50.5 102 q-23 -53 -50 -102t-64 -87t-85 -60.5t-112 -22.5q-66 0 -122 26.5t-97 72.5t-64.5 108.5t-23.5 132.5t23.5 131t64.5 107.5t97 73t122 26.5zM430 422q55 0 98 23.5t77 63.5t61.5 94t52.5 114q-25 61 -52.5 115.5t-61.5 96.5t-77 65.5t-98 23.5q-47 0 -95 -18.5t-86 -55.5 t-61.5 -93t-23.5 -130q0 -72 23.5 -128t61.5 -94t86 -57.5t95 -19.5zM1044 422q47 0 94.5 19.5t85.5 57.5t61.5 94t23.5 128q0 74 -23.5 129t-61.5 92t-85 55.5t-95 18.5q-57 0 -100 -24.5t-76.5 -66.5t-59.5 -98.5t-48 -117.5q25 -59 51.5 -110.5t60 -91.5t75.5 -62.5 t97 -22.5z" />
<glyph unicode="&#x222b;" horiz-adv-x="534" d="M219 1399q-4 47 -4 59v19q0 86 42 144t114 58q35 0 78 -12t77 -31l-14 -34q-14 8 -32.5 15t-39 13t-38 9t-29.5 3q-55 0 -87 -45t-32 -129v-16t4 -57l78 -1450q4 -53 4 -66.5v-19.5q0 -96 -41 -148.5t-113 -52.5q-35 0 -76.5 12.5t-76.5 30.5l12 35q33 -16 72 -28.5 t67 -12.5q53 0 86 43t33 129v21.5t-4 62.5z" />
<glyph unicode="&#x2248;" horiz-adv-x="907" d="M733 608q-25 -14 -54.5 -22t-66.5 -8q-55 0 -102 13t-89 28.5t-80 29t-75 13.5q-51 0 -92 -31l-27 33q20 16 51 27t68 11q47 0 90 -13t84 -28.5t83 -29t89 -13.5q29 0 52.5 3.5t44.5 19.5zM733 467q-25 -14 -54.5 -22.5t-66.5 -8.5q-55 0 -102 13.5t-89 29t-80 28.5 t-75 13q-51 0 -92 -31l-27 33q20 16 51 27.5t68 11.5q47 0 90 -13t84 -28.5t83 -29t89 -13.5q29 0 52.5 3t44.5 20z" />
<glyph unicode="&#x2260;" horiz-adv-x="929" d="M152 657h325l133 209h54l-134 -209h222v-41h-248l-66 -102h314v-41h-340l-133 -211h-52l133 211h-208v41h235l64 102h-299v41z" />
<glyph unicode="&#x2264;" horiz-adv-x="935" d="M131 174v41h614v-41h-614zM131 748l594 305v-45l-535 -279l535 -280v-46l-594 308v37z" />
<glyph unicode="&#x2265;" horiz-adv-x="962" d="M150 215h614v-41h-614v41zM170 449l535 280l-535 279l-20 45l614 -305v-37l-594 -308v46z" />
<glyph unicode="&#x25ca;" horiz-adv-x="952" d="M528 1495l381 -745l-381 -750h-49l-381 750l381 745h49zM852 725l-358 729l-338 -686l356 -717z" />
<glyph unicode="&#x25fc;" horiz-adv-x="1064" d="M0 1065h1065v-1065h-1065v1065z" />
<glyph unicode="&#xf6c3;" horiz-adv-x="235" d="M31 -342l45 119h-19l27 121h51l-24 -121l-52 -119h-28z" />
<glyph unicode="&#xfb06;" horiz-adv-x="1497" d="M342 -20q-127 0 -212 49t-136 118l35 27q125 -154 325 -154q63 0 133 16.5t128.5 51.5t97.5 90t39 135q0 61 -25 97t-68 56.5t-100 29t-121 14.5q-59 6 -114.5 14t-97.5 31t-66.5 66t-24.5 116q0 96 41 162t104.5 105.5t140.5 57t148 17.5q143 0 222 -61q-10 49 -19.5 92 t-9.5 96q0 55 15.5 114.5t55 109t106.5 81t171 31.5q113 0 155 -42t42 -130q0 -59 -13.5 -134t-33.5 -173h241l-8 -41h-244l-184 -868q-2 -8 -2 -13.5v-9.5q0 -53 33.5 -76.5t83.5 -23.5q31 0 60.5 7t53 16t39 17.5t17.5 10.5l14 -33q-2 -2 -18.5 -11t-44 -20.5t-61.5 -19.5 t-69 -8q-68 0 -109.5 34.5t-41.5 90.5q0 18 4 39l184 868h-145l10 41h146q23 100 34 173t11 122q0 86 -37 114.5t-123 28.5q-96 0 -155.5 -27.5t-92.5 -70.5t-44 -97.5t-11 -107.5q0 -98 21.5 -167.5t31.5 -104.5l-41 -17q-16 39 -43 64.5t-60.5 40t-72.5 19.5t-76 5 q-68 0 -136.5 -15t-122.5 -49t-89 -89.5t-35 -132.5q0 -66 23.5 -104t62.5 -58.5t89 -28.5t102 -12q55 -4 115.5 -12.5t109.5 -32t82 -68.5t33 -121q0 -90 -44 -153.5t-111 -104.5t-146.5 -59t-151.5 -18z" />
<glyph horiz-adv-x="1140" d="M664 1106h36l254 -1106h-43l-90 389h-583l-256 -389h-45zM813 428l-143 621l-410 -621h553z" />
<glyph horiz-adv-x="1114" d="M295 1106h506q51 0 89 -19.5t63.5 -51t39 -73.5t13.5 -85q0 -102 -62.5 -186.5t-161.5 -123.5q76 -25 117 -89t41 -142q0 -68 -30.5 -128.5t-80 -106.5t-113 -73.5t-130.5 -27.5h-527zM594 39q57 0 112.5 25.5t98.5 66.5t68.5 93t25.5 108q0 84 -50 145.5t-138 61.5h-496 l-106 -500h485zM676 578q57 0 109.5 25.5t91 66.5t62.5 93t24 105q0 80 -45.5 138.5t-129.5 58.5h-462l-103 -487h453z" />
<glyph horiz-adv-x="1169" d="M504 -10q-100 0 -178 40t-132.5 106.5t-82 152.5t-27.5 176q0 111 49 226.5t138 208.5t211 152.5t268 59.5q152 0 242.5 -68.5t119.5 -173.5l-41 -16q-18 61 -54 102t-80 67t-96.5 37t-105.5 11q-135 0 -246.5 -55t-192.5 -142.5t-126 -196t-45 -212.5q0 -88 27.5 -167 t79 -138.5t124 -94t162.5 -34.5q55 0 115.5 13t121 41t116 72t100.5 103l35 -12q-43 -61 -102.5 -109.5t-127 -81t-138.5 -50t-134 -17.5z" />
<glyph horiz-adv-x="1208" d="M295 1106h367q111 0 192.5 -33t134.5 -91t79 -137t26 -169q0 -145 -50.5 -269t-139.5 -214.5t-212 -141.5t-266 -51h-367zM434 39q145 0 260 51t194 138t121 202t42 240q0 86 -25 158.5t-75 125t-124.5 82t-175.5 29.5h-325l-217 -1026h325z" />
<glyph horiz-adv-x="1040" d="M295 1106h731l-8 -41h-692l-103 -481h606l-8 -39h-606l-106 -506h704l-8 -39h-746z" />
<glyph horiz-adv-x="1032" d="M295 1106h729l-8 -41h-690l-101 -479h588l-8 -41h-590l-115 -545h-41z" />
<glyph horiz-adv-x="1443" d="M608 -10q-119 0 -212 49t-157.5 132t-98.5 191.5t-34 227.5q0 166 70 323.5t184.5 280.5t262 196.5t303.5 73.5q86 0 157.5 -23.5t129 -66.5t100.5 -102.5t69 -128.5l-34 -29q-51 137 -163 223t-272 86q-154 0 -292 -73.5t-243.5 -192.5t-168 -267.5t-62.5 -297.5 q0 -111 32 -213.5t93.5 -179t149.5 -122.5t199 -46q123 0 235.5 50t207.5 134t168 192.5t111 225.5h-477l8 41h523q-2 -10 -5 -19.5t-8 -23.5q-43 -127 -121.5 -243t-181 -204t-224.5 -141t-249 -53z" />
<glyph horiz-adv-x="1210" d="M952 184q-213 -193 -444 -192q-102 0 -181 40t-133.5 105.5t-83 149.5t-28.5 174q0 119 52 235.5t141.5 208.5t207 149.5t246.5 57.5q88 0 152.5 -17.5t110.5 -50t75 -76.5t45 -96l-41 -16q-39 117 -130 167t-220 50q-125 0 -234.5 -55t-190.5 -143.5t-127 -196 t-46 -213.5q0 -88 28.5 -166t80 -137.5t124 -94t162.5 -34.5q111 0 220.5 49t226.5 156l53 251h-264l8 39h305l-113 -528h-41z" />
<glyph horiz-adv-x="1236" d="M295 1106h41l-111 -520h774l111 520h41l-236 -1106h-41l115 545h-774l-115 -545h-41z" />
<glyph horiz-adv-x="421" d="M295 1104h39l-234 -1104h-41z" />
<glyph horiz-adv-x="825" d="M176 -16q-145 0 -231 67l26 33q78 -61 213 -61q100 0 167 35.5t112 102t74.5 163t56.5 219.5l119 561h41l-119 -561q-27 -127 -59.5 -229.5t-84 -176.5t-127 -113.5t-188.5 -39.5z" />
<glyph horiz-adv-x="1054" d="M295 1104h39l-150 -707l860 709h58l-586 -483l373 -623h-51l-357 594l-307 -250l-74 -344h-41z" />
<glyph horiz-adv-x="968" d="M295 1106h41l-227 -1067h704l-8 -39h-746z" />
<glyph horiz-adv-x="1476" d="M295 1106h35l336 -838l690 838h35l-236 -1106h-39l215 1020l-661 -803h-31l-322 803l-217 -1020h-41z" />
<glyph horiz-adv-x="1306" d="M295 1106h31l632 -1043l220 1041h41l-234 -1104h-45l-623 1026l-217 -1026h-41z" />
<glyph horiz-adv-x="1273" d="M506 -8q-102 0 -181 38t-132.5 102.5t-82 148.5t-28.5 174q0 125 56.5 243.5t148.5 210.5t210.5 147.5t245.5 55.5q100 0 179 -39t132.5 -104.5t81 -149.5t27.5 -172q0 -125 -55 -242.5t-146.5 -210t-210 -147.5t-245.5 -55zM514 33q123 0 233.5 54t193.5 142t132 197 t49 217q0 86 -26.5 164t-77.5 137.5t-123 94t-160 34.5q-123 0 -233.5 -54t-194.5 -142.5t-133 -197t-49 -218.5q0 -86 26.5 -163t77 -136.5t122 -94t163.5 -34.5z" />
<glyph horiz-adv-x="1054" d="M295 1106h461q61 0 108 -23.5t81 -63.5t51.5 -91t17.5 -105q0 -72 -31 -142.5t-84 -125.5t-123.5 -90t-150.5 -35h-432l-93 -430h-41zM633 471q72 0 134 32t107.5 82t71 111.5t25.5 120.5q0 49 -16.5 94t-45 79t-69.5 54.5t-92 20.5h-422l-125 -594h432z" />
<glyph horiz-adv-x="1271" d="M862 111q-80 -55 -170 -87t-186 -32q-102 0 -181 38t-132.5 102.5t-82 148.5t-28.5 174q0 125 55.5 243.5t147.5 210.5t211.5 147.5t246.5 55.5q100 0 178 -39t132.5 -104.5t82 -149.5t27.5 -172q0 -74 -19.5 -145.5t-55 -137t-85 -124t-108.5 -105.5l84 -135h-49z M514 33q90 0 173 29.5t155 80.5l-90 154h47l75 -127q55 45 100.5 100.5t78 117t50 126t17.5 129.5q0 86 -26.5 164t-76.5 137.5t-122 94t-160 34.5q-123 0 -234.5 -54t-195.5 -142.5t-133 -197t-49 -218.5q0 -86 26.5 -163t78 -136.5t123 -94t163.5 -34.5z" />
<glyph horiz-adv-x="1093" d="M295 1106h463q61 0 108 -23.5t81 -63.5t51.5 -91t17.5 -105q0 -70 -29 -137.5t-79 -120.5t-116.5 -89t-140.5 -42l195 -434h-49l-193 430h-411l-93 -430h-41zM633 471q70 0 132 30.5t108.5 81t73 113t26.5 123.5q0 49 -16.5 93t-45 78t-70.5 54.5t-93 20.5h-422 l-125 -594h432z" />
<glyph horiz-adv-x="1032" d="M406 -8q-135 0 -233.5 42t-172.5 128l35 28q66 -84 158 -123.5t223 -39.5q90 0 165.5 17t131 53t86 90.5t30.5 125.5q0 94 -79.5 141.5t-243.5 80.5q-80 14 -141.5 32.5t-104.5 44t-65.5 63.5t-22.5 91q0 82 35 145.5t96.5 108.5t147.5 68.5t188 23.5q109 0 183.5 -29.5 t127.5 -101.5l-30 -31q-51 72 -118 98.5t-169 26.5q-111 0 -191 -23.5t-131 -63.5t-74.5 -95t-23.5 -119q0 -45 18.5 -75.5t56.5 -54t96 -40t136 -33.5q80 -16 144.5 -34.5t110.5 -46t71.5 -68.5t25.5 -98q0 -80 -33.5 -141.5t-95 -103.5t-147.5 -64.5t-190 -22.5z" />
<glyph horiz-adv-x="1013" d="M580 1065h-433l9 41h903l-10 -41h-428l-228 -1065h-41z" />
<glyph horiz-adv-x="1271" d="M506 -8q-104 0 -175 29.5t-114 80t-61.5 118t-18.5 145.5q0 88 23 188l116 553h41l-116 -553q-10 -47 -15.5 -93t-5.5 -89q0 -72 16.5 -133.5t55.5 -106.5t102.5 -71.5t157.5 -26.5q125 0 217 45t156.5 118.5t104.5 167t61 189.5l116 553h39l-116 -553q-25 -111 -70 -212 t-115.5 -179t-170 -124t-228.5 -46z" />
<glyph horiz-adv-x="1138" d="M156 1106h43l245 -1053l691 1053h45l-727 -1106h-41z" />
<glyph horiz-adv-x="1990" d="M219 1454h43l127 -1403l741 1403h46l163 -1403l723 1403h45l-755 -1454h-45l-166 1389l-740 -1389h-45z" />
<glyph horiz-adv-x="1716" d="M156 1106h45l245 -1055l388 590l-105 455h43l92 -412l271 412h43l-299 -455l139 -590l694 1055h45l-727 -1106h-43l-139 598l-393 -598h-41z" />
<glyph horiz-adv-x="1048" d="M483 545l-336 561h52l317 -528l541 528h51l-573 -561l325 -545h-49l-309 512l-525 -512h-51z" />
<glyph horiz-adv-x="1054" d="M459 428l-312 678h48l292 -637l568 637h47l-602 -680l-92 -426h-41z" />
<glyph horiz-adv-x="1048" d="M-51 39l1073 1026h-848l10 41h897l-8 -39l-1073 -1028h848l-8 -39h-899z" />
<glyph horiz-adv-x="1187" d="M438 -20q-90 0 -159.5 36.5t-117.5 99t-74 143.5t-26 167q0 127 53.5 244.5t139.5 209t195.5 145.5t222.5 54q137 0 226 -75.5t126 -190.5l51 246h41l-225 -1059h-41l53 244q-88 -117 -210 -190.5t-255 -73.5zM449 20q74 0 143.5 26t130.5 70t112.5 102t88.5 124l80 377 q-10 68 -38 126t-72 101t-102.5 67.5t-127.5 24.5q-113 0 -215.5 -55t-179 -143t-122 -196.5t-45.5 -213.5q0 -82 24 -156.5t68 -131t108.5 -89.5t146.5 -33z" />
<glyph horiz-adv-x="1026" d="M268 -20q-59 0 -108 20t-84 56t-54.5 85t-19.5 107q0 102 49 171.5t122 111.5t159 59.5t160 17.5q123 0 205.5 -21.5t117.5 -37.5l27 121q12 51 12 102q0 121 -68.5 193.5t-195.5 72.5q-74 0 -165 -33.5t-189 -97.5l-17 33q92 57 188.5 98t190.5 41q152 0 224.5 -83 t72.5 -212q0 -57 -12 -114l-144 -670h-41l39 180q-100 -104 -226 -152t-243 -48zM276 20q55 0 116 11.5t119 34t110.5 58.5t93.5 85q37 43 47 84l45 211q-78 35 -159 49t-167 14q-68 0 -145.5 -15t-142 -51t-107.5 -96.5t-43 -150.5q0 -53 18.5 -96t50 -74t73.5 -47.5 t91 -16.5z" />
<glyph horiz-adv-x="1611" d="M444 -20q-90 0 -161.5 37.5t-120.5 100t-75 144.5t-26 170q0 119 49.5 234.5t131.5 208t190.5 148.5t229.5 56q96 0 161.5 -24.5t106.5 -69.5q-18 41 -35.5 99.5t-17.5 123.5q0 63 22.5 124t64.5 108t101 74.5t131 27.5q129 0 176 -48t47 -140q0 -59 -13 -132t-32 -159 h242l-8 -41h-244l-184 -868q-2 -6 -2 -19q0 -51 32.5 -77.5t79.5 -26.5t90 14t84 37l15 -33q-59 -29 -99.5 -44t-99.5 -15q-63 0 -104 34.5t-41 94.5q0 8 1 16t3 19l184 868h-145l8 41h147q14 72 28.5 139.5t14.5 124.5q0 78 -40 126t-150 48q-66 0 -115 -24.5t-84 -64.5 t-52 -90t-17 -103q0 -51 12 -108.5t27.5 -110t29.5 -94.5t19 -64l-41 -15q-35 111 -117 161t-197 50q-117 0 -217 -56t-174 -144t-116 -194.5t-42 -207.5q0 -84 25 -159.5t71 -132t110.5 -90.5t144.5 -34q47 0 107.5 15.5t117.5 45.5t104 71t72 92l37 -13q-33 -61 -86 -108 t-114.5 -79t-126.5 -48t-120 -16z" />
<glyph horiz-adv-x="385" d="M82 1346l156 149h67l-196 -174z" />
<glyph horiz-adv-x="1181" d="M446 -20q-90 0 -161.5 37.5t-120.5 100t-75 144.5t-26 170q0 123 49.5 238.5t132.5 207t191.5 146.5t225.5 55q70 0 125 -21.5t98 -57t75.5 -84t57.5 -101.5l143 680h41l-317 -1495h-41l47 221q-43 -53 -96.5 -97t-111.5 -77t-119 -50t-118 -17zM455 20q59 0 131.5 27 t140.5 71t120 103.5t71 124.5l81 383q-6 63 -38.5 119.5t-79.5 98.5t-106.5 66.5t-121.5 24.5q-113 0 -213 -54t-175 -140t-118 -193.5t-43 -214.5q0 -84 25 -159.5t71 -132t110.5 -90.5t144.5 -34z" />
<glyph horiz-adv-x="1140" d="M993 451q0 -104 -49 -190.5t-128 -147t-180 -94t-206 -33.5q-92 0 -162.5 27.5t-119 73.5t-73 108.5t-24.5 130.5q0 88 38 162.5t96.5 133t131 99.5t144.5 59q-86 35 -145.5 104.5t-59.5 170.5q0 94 45 168.5t116.5 126t159 78t173.5 26.5q68 0 130 -19.5t109 -56.5 t76 -90t29 -123q0 -74 -30 -134t-78 -108.5t-110.5 -84t-127.5 -58.5q109 -35 177 -121.5t68 -207.5zM952 449q0 74 -30.5 131t-80.5 97t-113.5 61.5t-129.5 21.5q-84 0 -173 -31t-163 -88t-122 -136t-48 -175q0 -74 31 -131.5t81 -97.5t113.5 -60.5t128.5 -20.5 q84 0 173.5 31t163 87.5t121.5 135.5t48 175zM297 1059q0 -61 27.5 -109.5t71.5 -81t99.5 -50t112.5 -17.5q70 0 149 23.5t144.5 69.5t108.5 112.5t43 150.5q0 61 -26 108.5t-69 80t-100 50t-121 17.5q-80 0 -157.5 -24.5t-141 -70.5t-102.5 -111.5t-39 -147.5z" />
<glyph horiz-adv-x="1091" d="M397 -20q-147 0 -245.5 81.5t-126.5 217.5h43q29 -117 118.5 -188t219.5 -71q98 0 192 39t167 108t117 163t44 202q0 74 -24.5 136.5t-67.5 107.5t-103.5 69.5t-134.5 24.5q-111 0 -219.5 -51t-194.5 -149h-49q8 18 25.5 61t41 101.5t51.5 127t56 138.5q66 162 146 356 h655l-8 -41h-623l-266 -665q86 80 188.5 121.5t206.5 41.5q80 0 145.5 -27.5t113.5 -76.5t75 -117.5t27 -150.5q0 -123 -50.5 -225.5t-130 -176.5t-182.5 -115.5t-207 -41.5z" />
<glyph horiz-adv-x="1079" d="M670 0l92 432h-748l9 35l968 987h29l-209 -981h172l-8 -41h-172l-92 -432h-41zM770 473l193 905l-883 -905h690z" />
<glyph horiz-adv-x="372" d="M260 1059h41l-317 -1495h-41zM348 1468h41l-29 -131h-41z" />
<glyph horiz-adv-x="405" d="M369 1495h41l-318 -1495h-41z" />
<glyph horiz-adv-x="1187" d="M154 879q0 119 50 225t134 186t190.5 127t221.5 47q86 0 156.5 -29.5t120.5 -86t78 -137.5t28 -181q0 -199 -51.5 -388t-143.5 -336.5t-222 -236.5t-286 -89q-141 0 -232.5 80.5t-105.5 220.5l41 14q6 -61 30.5 -111.5t64.5 -87.5t93.5 -56.5t114.5 -19.5 q100 0 194.5 53.5t174.5 155t143.5 249t104.5 335.5q-39 -76 -96.5 -139.5t-127 -108.5t-146.5 -69.5t-153 -24.5q-84 0 -153.5 32t-118.5 87t-76.5 129t-27.5 160zM737 1423q-102 0 -198.5 -43t-173 -116.5t-122.5 -170t-46 -202.5q0 -78 25.5 -147.5t71.5 -121t109.5 -81 t141.5 -29.5q100 0 198.5 44t174 118t122.5 171t47 202q0 78 -25.5 146.5t-71.5 119.5t-110.5 80.5t-142.5 29.5z" />
<glyph horiz-adv-x="688" d="M2 41h258l289 1366q-20 -25 -61.5 -54.5t-89.5 -57t-98 -46t-89 -18.5l8 41q51 0 110.5 30.5t111 67.5t86 68.5t36.5 36.5h43l-305 -1434h246l-8 -41h-545z" />
<glyph horiz-adv-x="1179" d="M893 244q-113 -129 -230.5 -196.5t-236.5 -67.5q-90 0 -158.5 36.5t-115 97t-70 140.5t-23.5 166q0 127 53.5 245.5t140.5 211t197.5 147.5t227.5 55q59 0 112.5 -18.5t98.5 -51t78.5 -76.5t52.5 -95l47 225h41l-317 -1499h-41zM434 20q72 0 140.5 26t129 69t113.5 98 t94 117l93 418q-6 55 -33 107t-70 93t-102.5 65.5t-128.5 24.5q-113 0 -215.5 -54t-181 -141t-126 -196.5t-47.5 -220.5q0 -82 22.5 -155.5t65.5 -129t105.5 -88.5t140.5 -33z" />
<glyph horiz-adv-x="948" d="M1034 1413h-827l8 41h897l-1018 -1454h-47z" />
<glyph horiz-adv-x="1189" d="M485 -20q-86 0 -156.5 29.5t-121.5 86t-79 137t-28 181.5q0 199 51.5 388t144.5 336.5t222 236.5t287 89q141 0 232 -80.5t104 -220.5l-41 -14q-6 61 -29.5 111.5t-63.5 87t-93.5 56t-116.5 19.5q-100 0 -193.5 -53t-174.5 -154.5t-144.5 -249t-104.5 -335.5 q39 76 97.5 139.5t127 108.5t145.5 69.5t155 24.5q84 0 153.5 -32t118.5 -87t76.5 -129t27.5 -160q0 -119 -50 -225.5t-134 -186t-191.5 -126.5t-220.5 -47zM498 20q100 0 197.5 43t174 117t122.5 170t46 203q0 78 -25.5 147.5t-72.5 120.5t-111.5 81t-140.5 30 q-102 0 -199.5 -44t-173 -118t-123 -171t-47.5 -202q0 -78 26 -146.5t73 -119.5t111.5 -81t142.5 -30z" />
<glyph horiz-adv-x="540" d="M285 1022h-146l8 41h146l80 373h41l-80 -373h244l-9 -41h-243l-217 -1022h-41z" />
<glyph horiz-adv-x="1136" d="M444 -18q-86 0 -158.5 24.5t-126 71.5t-83 118.5t-29.5 163.5h41q0 -84 28.5 -147t79 -105t117 -63.5t142.5 -21.5q94 0 182 30.5t155.5 85t107.5 126t40 155.5q0 135 -108.5 216t-301.5 81h-67l8 41h70q248 0 379 98t131 266q0 141 -90.5 225.5t-243.5 84.5 q-135 0 -251 -63.5t-181 -172.5l-33 16q72 119 201 190t274 71q82 0 150.5 -25t115.5 -71t74 -109.5t27 -139.5q0 -147 -93.5 -247.5t-267.5 -145.5q119 -25 184.5 -108.5t65.5 -196.5q0 -94 -45 -176t-121 -142.5t-172.5 -95t-200.5 -34.5z" />
<glyph horiz-adv-x="1091" d="M-25 0q20 141 69.5 246.5t120.5 183.5t158 132t183 91q88 33 184 67t176 85t132.5 130t52.5 206q0 57 -17.5 109.5t-54.5 92t-94.5 64.5t-136.5 25q-90 0 -165 -26t-133.5 -62.5t-100.5 -77.5t-68 -72l-29 20q0 2 36 43t102.5 88.5t159.5 87.5t210 40q88 0 150.5 -28 t103.5 -73t60.5 -104.5t19.5 -122.5q0 -139 -59.5 -227.5t-147.5 -143.5t-188.5 -90t-182.5 -68q-143 -55 -234.5 -129.5t-145.5 -153.5t-77.5 -156t-33.5 -136h841l-8 -41h-883z" />
<glyph horiz-adv-x="1124" d="M350 -20q-74 0 -123 21.5t-77.5 58t-41 87t-12.5 107.5q0 51 7.5 105.5t19.5 107.5l127 596h41l-127 -596q-12 -55 -19.5 -106.5t-7.5 -98.5q0 -53 11.5 -97t37 -77t67.5 -50.5t105 -17.5q78 0 155 31t144.5 82t122 116.5t88.5 137.5l146 676h41l-228 -1063h-41l58 270 q-45 -66 -102.5 -119t-123 -90.5t-134 -59t-134.5 -21.5z" />
<glyph horiz-adv-x="1546" d="M143 1063h45l123 -1002l529 1002h45l102 -1002l549 1002h45l-588 -1063h-37l-104 1010l-535 -1010h-38z" />
<glyph horiz-adv-x="997" d="M352 0l-241 1063h43l229 -1012l637 1012h43l-938 -1499h-37z" />
<glyph horiz-adv-x="1314" d="M522 -20q-109 0 -187.5 51t-128.5 134t-73.5 186.5t-23.5 205.5q0 154 58 312.5t157.5 288.5t231.5 213t280 83q111 0 188.5 -52t126.5 -136t72.5 -187.5t23.5 -204.5q0 -154 -57 -312.5t-156.5 -288.5t-232 -211.5t-279.5 -81.5zM530 20q147 0 271.5 84t214.5 211 t140 275.5t50 277.5q0 100 -23.5 198.5t-70.5 175.5t-117.5 124t-167.5 47q-147 0 -270 -86t-213 -217t-140 -283.5t-50 -287.5q0 -102 21.5 -195.5t67.5 -165.5t116.5 -115t170.5 -43z" />
<glyph horiz-adv-x="235" d="M43 -260l33 158h41l-33 -158h-41z" />
<glyph horiz-adv-x="862" d="M299 -10q-72 0 -123 28.5t-84 74.5t-48 104.5t-15 115.5q0 80 34.5 164t94 152.5t139.5 111.5t170 43q70 0 121 -29.5t84 -75.5t48 -103.5t15 -114.5q0 -82 -33.5 -166t-93 -151.5t-138.5 -110.5t-171 -43zM307 29q86 0 158 42t122 106.5t78.5 138t28.5 139.5 q0 53 -14 105t-44 93t-74 66.5t-103 25.5q-86 0 -158 -41.5t-123 -106.5t-79.5 -139.5t-28.5 -140.5q0 -53 14 -105t44 -93t74 -65.5t105 -24.5z" />
<glyph horiz-adv-x="491" d="M-25 39h162l150 704q-12 -12 -38 -29.5t-55.5 -31.5t-60.5 -24.5t-55 -10.5l8 39q31 0 67.5 16.5t68.5 37t53.5 38t23.5 19.5h39l-160 -758h152l-8 -39h-355z" />
<glyph horiz-adv-x="724" d="M-47 0q33 152 113.5 231.5t201.5 122.5q51 18 108.5 37t104.5 45.5t78 66.5t31 101q0 59 -43 105.5t-141 46.5q-53 0 -97.5 -13.5t-79 -32t-60.5 -40t-42 -37.5l-25 24q2 4 25 26t64.5 46.5t99 45t127.5 20.5q115 0 165 -54.5t50 -128.5q0 -76 -35 -123t-87 -77.5 t-110.5 -49t-107.5 -34.5q-84 -29 -135.5 -66t-82 -77t-44 -77.5t-19.5 -68.5h504l-8 -39h-555z" />
<glyph horiz-adv-x="743" d="M236 -10q-39 0 -83 11t-81 34.5t-60.5 60.5t-23.5 90l35 15q0 -72 58 -122t163 -50q57 0 109.5 15t91 42t62 62.5t23.5 78.5q0 72 -67.5 113t-186.5 41h-43l9 37h43q141 0 221 47t80 137q0 70 -55.5 113t-147.5 43q-82 0 -151.5 -35t-104.5 -88l-25 24q41 61 120 98.5 t169 37.5q109 0 173.5 -53.5t64.5 -133.5q0 -78 -53.5 -132t-161.5 -77q74 -14 115.5 -60t41.5 -108q0 -53 -27.5 -97t-73.5 -75.5t-107 -50t-127 -18.5z" />
<glyph horiz-adv-x="720" d="M424 225h-453l9 35l575 524h29l-111 -520h107l-9 -39h-106l-49 -225h-39zM432 264l96 449l-493 -449h397z" />
<glyph horiz-adv-x="716" d="M215 -10q-92 0 -154.5 43t-83.5 114l37 13q20 -59 76.5 -96t134.5 -37q59 0 112.5 19.5t94.5 53t65.5 79.5t24.5 100q0 43 -17.5 75.5t-46 55t-65.5 34t-78 11.5q-66 0 -128 -27t-109 -74h-41q6 16 22.5 53t37 84.5t43 96.5t41 92t29.5 71.5t13 32.5h410l-8 -39h-377 l-146 -331q49 41 108.5 60.5t119.5 19.5q104 0 168.5 -56.5t64.5 -148.5q0 -66 -29.5 -121t-78.5 -95t-111.5 -61.5t-128.5 -21.5z" />
<glyph horiz-adv-x="778" d="M270 -10q-111 0 -178 65.5t-67 182.5q0 113 30.5 213t87 175.5t133 120t168.5 44.5q86 0 145.5 -42t72.5 -114l-35 -21q-10 61 -61.5 100.5t-127.5 39.5q-121 0 -217 -103.5t-137 -296.5q45 78 130 124t177 46q106 0 173 -64.5t67 -158.5q0 -63 -30 -119.5t-80 -99.5 t-115.5 -67.5t-135.5 -24.5zM281 27q59 0 115.5 21.5t99.5 57t69.5 84t26.5 101.5q0 82 -60.5 140t-154.5 58q-59 0 -115.5 -21.5t-99.5 -58t-69.5 -85t-26.5 -101.5q0 -82 60.5 -139t154.5 -57z" />
<glyph horiz-adv-x="641" d="M578 745h-502l8 39h565l-606 -784h-45z" />
<glyph horiz-adv-x="749" d="M240 -8q-117 0 -180.5 57t-63.5 135q0 45 21.5 84t55 70t77 51.5t83.5 32.5q-53 18 -88.5 56t-35.5 91q0 51 27.5 91t71.5 68t97 42t107 14q43 0 83 -10t70.5 -30.5t49 -51t18.5 -69.5q0 -37 -17.5 -69t-45 -57.5t-64.5 -44t-76 -30.5q68 -20 110 -66.5t42 -111.5 q0 -57 -30 -103.5t-77 -79t-109.5 -51t-125.5 -18.5zM252 29q49 0 100 14t94 42t70 66.5t27 88.5q0 39 -18.5 68.5t-49.5 51t-69.5 32.5t-77.5 11q-49 0 -100.5 -15t-94.5 -44t-69.5 -68.5t-26.5 -87.5q0 -37 18.5 -66.5t49 -50t69.5 -31.5t78 -11zM336 438q41 0 86 12.5 t83 35t62.5 55t24.5 73.5q0 63 -57.5 98.5t-133.5 35.5q-47 0 -92 -12.5t-79.5 -36t-57 -56.5t-22.5 -72q0 -31 16 -56.5t43 -41.5t59.5 -25.5t67.5 -9.5z" />
<glyph horiz-adv-x="778" d="M238 -10q-88 0 -146.5 42t-71.5 113l35 21q10 -63 61.5 -101t127.5 -38q121 0 217 103t137 294q-45 -76 -130 -123t-177 -47q-109 0 -175.5 65.5t-66.5 159.5q0 63 31 119.5t81 99.5t115.5 68t135.5 25q111 0 178 -66t67 -182q0 -113 -30.5 -213.5t-86 -176t-132 -119.5 t-170.5 -44zM305 291q59 0 115.5 21.5t99.5 58.5t69.5 85t26.5 101q0 39 -16 75t-45 63.5t-67.5 43t-86.5 15.5q-59 0 -114.5 -21.5t-98.5 -57.5t-69.5 -84t-26.5 -102q0 -84 59.5 -141t153.5 -57z" />
<glyph horiz-adv-x="860" d="M449 700q-72 0 -123.5 29t-84 75t-48 104.5t-15.5 115.5q0 80 35 164t94.5 152.5t139 111.5t169.5 43q70 0 121 -29.5t84 -76t48.5 -103.5t15.5 -115q0 -82 -34 -165.5t-93.5 -151.5t-138 -111t-170.5 -43zM219 1028q0 -53 14.5 -105.5t44 -93.5t73.5 -65.5t106 -24.5 q86 0 157.5 42t121.5 106.5t79 138.5t29 139q0 53 -14.5 105.5t-44 93.5t-73.5 66.5t-104 25.5q-86 0 -157.5 -42t-123 -106.5t-80 -139t-28.5 -140.5z" />
<glyph horiz-adv-x="491" d="M477 739l-8 -39h-352l8 39h162l149 705q-12 -12 -37.5 -29.5t-55.5 -32t-60.5 -24.5t-55.5 -10l9 38q31 0 67.5 16.5t67 37t52 38t23.5 19.5h41l-161 -758h151z" />
<glyph horiz-adv-x="724" d="M102 702q33 152 114 232t202 123q51 18 108.5 36.5t104.5 45t77.5 66.5t30.5 102q0 59 -43 105t-141 46q-53 0 -97 -13t-79 -31.5t-60.5 -40t-42.5 -38.5l-24 25q2 4 25.5 25.5t64.5 46t97.5 45t127.5 20.5q115 0 165 -54t50 -128t-34.5 -122t-87 -79t-110.5 -49 t-108 -35q-82 -29 -134 -65.5t-82.5 -75.5t-44 -78t-19.5 -70h504l-9 -39h-555z" />
<glyph horiz-adv-x="743" d="M385 692q-39 0 -83 11.5t-81 35t-60.5 60.5t-23.5 90l35 14q0 -72 58.5 -122t162.5 -50q57 0 109.5 15.5t91.5 42t62.5 62.5t23.5 79q0 72 -68.5 112.5t-185.5 40.5h-43l8 37h43q143 0 222 47t79 138q0 70 -55 112.5t-148 42.5q-82 0 -151.5 -34.5t-104.5 -88.5l-24 25 q41 61 120 98t169 37q109 0 173 -53t64 -133q0 -78 -53 -132.5t-162 -76.5q74 -14 116 -60.5t42 -107.5q0 -53 -27.5 -97t-74 -76t-107.5 -50.5t-127 -18.5z" />
<glyph horiz-adv-x="722" d="M528 711l47 225h-452l8 35l576 524h28l-110 -520h106l-8 -39h-107l-49 -225h-39zM186 975h398l96 448z" />
<glyph horiz-adv-x="716" d="M481 1204q104 0 169 -56t65 -149q0 -66 -30 -121t-79 -95t-111.5 -61.5t-127.5 -21.5q-92 0 -154.5 43t-83.5 115l37 12q20 -59 75.5 -96t135.5 -37q59 0 112.5 19.5t94.5 53.5t65.5 80t24.5 99q0 43 -17.5 76t-46 55.5t-65.5 33.5t-78 11q-66 0 -128.5 -26.5 t-109.5 -73.5h-41q6 16 22.5 53t37 84t43 96.5t41 92.5t30 71.5t13.5 32.5h409l-8 -39h-377l-145 -332q49 41 108.5 60.5t118.5 19.5z" />
<glyph horiz-adv-x="776" d="M780 1006q0 -63 -29.5 -120t-79.5 -100t-116 -67.5t-135 -24.5q-111 0 -178.5 65.5t-67.5 182.5q0 113 31 213t87 176t133 120t169 44q86 0 145.5 -42t71.5 -114l-35 -20q-10 61 -61 100t-127 39q-121 0 -217.5 -103.5t-137.5 -295.5q45 78 130.5 124t177.5 46 q106 0 172.5 -64.5t66.5 -158.5zM430 731q59 0 115.5 21.5t99.5 57.5t69.5 84t26.5 101q0 82 -60 140.5t-155 58.5q-59 0 -115.5 -21.5t-99.5 -58.5t-69.5 -85t-26.5 -101q0 -82 60.5 -139.5t154.5 -57.5z" />
<glyph horiz-adv-x="638" d="M729 1456h-502l9 39h565l-606 -784h-45z" />
<glyph horiz-adv-x="751" d="M735 954q0 -57 -29.5 -103t-77.5 -79t-110.5 -51.5t-126.5 -18.5q-117 0 -180.5 57.5t-63.5 135.5q0 45 21.5 84t56.5 69.5t78 51t84 33.5q-53 18 -90 56t-37 91q0 51 27.5 91t71.5 67.5t97.5 42t106.5 14.5q43 0 83 -10t71 -30.5t49 -51.5t18 -70q0 -37 -16 -68.5 t-44 -57t-64.5 -44t-75.5 -30.5q66 -20 108.5 -66.5t42.5 -112.5zM694 950q0 39 -18.5 69t-49 51.5t-68.5 32.5t-77 11q-49 0 -101 -15.5t-95 -44t-70 -68.5t-27 -87q0 -37 18.5 -66.5t49.5 -50t70 -32t77 -11.5q49 0 100.5 14.5t94.5 42t69.5 66.5t26.5 88zM301 1282 q0 -31 16.5 -56.5t43 -42t59.5 -25.5t67 -9q41 0 86 12.5t83 35t62.5 55t24.5 73.5q0 63 -57 98t-133 35q-47 0 -92 -12t-80 -36t-57.5 -56.5t-22.5 -71.5z" />
</font>
</defs>
</svg>
